<?xml version="1.0" encoding="utf-8" standalone="no"?>
<!DOCTYPE svg PUBLIC "-//W3C//DTD SVG 1.1//EN"
  "http://www.w3.org/Graphics/SVG/1.1/DTD/svg11.dtd">
<svg xmlns:xlink="http://www.w3.org/1999/xlink" width="606.125781pt" height="393.158906pt" viewBox="0 0 606.125781 393.158906" xmlns="http://www.w3.org/2000/svg" version="1.1">
 <metadata>
  <rdf:RDF xmlns:dc="http://purl.org/dc/elements/1.1/" xmlns:cc="http://creativecommons.org/ns#" xmlns:rdf="http://www.w3.org/1999/02/22-rdf-syntax-ns#">
   <cc:Work>
    <dc:type rdf:resource="http://purl.org/dc/dcmitype/StillImage"/>
    <dc:date>2026-07-15T23:58:39.958185</dc:date>
    <dc:format>image/svg+xml</dc:format>
    <dc:creator>
     <cc:Agent>
      <dc:title>Matplotlib v3.11.0, https://matplotlib.org/</dc:title>
     </cc:Agent>
    </dc:creator>
   </cc:Work>
  </rdf:RDF>
 </metadata>
 <defs>
  <style type="text/css">*{stroke-linejoin: round; stroke-linecap: butt}</style>
 </defs>
 <g id="figure_1">
  <g id="patch_1">
   <path d="M 0 393.158906 
L 606.125781 393.158906 
L 606.125781 0 
L 0 0 
z
" style="fill: #1c1e24"/>
  </g>
  <g id="axes_1">
   <g id="patch_2">
    <path d="M 40.925781 354.958125 
L 598.925781 354.958125 
L 598.925781 22.318125 
L 40.925781 22.318125 
z
" style="fill: #1c1e24"/>
   </g>
   <g id="FillBetweenPolyCollection_1">
    <defs>
     <path id="m0ffe3993a5" d="M 40.925781 -93.640781 
L 40.925781 -38.200781 
L 42.475781 -38.200781 
L 44.025781 -38.200781 
L 45.575781 -38.200781 
L 47.125781 -38.200781 
L 48.675781 -38.200781 
L 50.225781 -38.200781 
L 51.775781 -38.200781 
L 53.325781 -38.200781 
L 54.875781 -38.200781 
L 56.425781 -38.200781 
L 57.975781 -38.200781 
L 59.525781 -38.200781 
L 61.075781 -38.200781 
L 62.625781 -38.200781 
L 64.175781 -38.200781 
L 65.725781 -38.200781 
L 67.275781 -38.200781 
L 68.825781 -38.200781 
L 70.375781 -38.200781 
L 71.925781 -38.200781 
L 73.475781 -38.200781 
L 75.025781 -38.200781 
L 76.575781 -38.200781 
L 78.125781 -38.200781 
L 79.675781 -38.200781 
L 81.225781 -38.200781 
L 82.775781 -38.200781 
L 84.325781 -38.200781 
L 85.875781 -38.200781 
L 87.425781 -38.200781 
L 88.975781 -38.200781 
L 90.525781 -38.200781 
L 92.075781 -38.200781 
L 93.625781 -38.200781 
L 95.175781 -38.200781 
L 96.725781 -38.200781 
L 98.275781 -38.200781 
L 99.825781 -38.200781 
L 101.375781 -38.200781 
L 102.925781 -38.200781 
L 104.475781 -38.200781 
L 106.025781 -38.200781 
L 107.575781 -38.200781 
L 109.125781 -38.200781 
L 110.675781 -38.200781 
L 112.225781 -38.200781 
L 113.775781 -38.200781 
L 115.325781 -38.200781 
L 116.875781 -38.200781 
L 118.425781 -38.200781 
L 119.975781 -38.200781 
L 121.525781 -38.200781 
L 123.075781 -38.200781 
L 124.625781 -38.200781 
L 126.175781 -38.200781 
L 127.725781 -38.200781 
L 129.275781 -38.200781 
L 130.825781 -38.200781 
L 132.375781 -38.200781 
L 133.925781 -38.200781 
L 135.475781 -38.200781 
L 137.025781 -38.200781 
L 138.575781 -38.200781 
L 140.125781 -38.200781 
L 141.675781 -38.200781 
L 143.225781 -38.200781 
L 144.775781 -38.200781 
L 146.325781 -38.200781 
L 147.875781 -38.200781 
L 149.425781 -38.200781 
L 150.975781 -38.200781 
L 152.525781 -38.200781 
L 154.075781 -38.200781 
L 155.625781 -38.200781 
L 157.175781 -38.200781 
L 158.725781 -38.200781 
L 160.275781 -38.200781 
L 161.825781 -38.200781 
L 163.375781 -38.200781 
L 164.925781 -38.200781 
L 166.475781 -38.200781 
L 168.025781 -38.200781 
L 169.575781 -38.200781 
L 171.125781 -38.200781 
L 172.675781 -38.200781 
L 174.225781 -38.200781 
L 175.775781 -38.200781 
L 177.325781 -38.200781 
L 178.875781 -38.200781 
L 180.425781 -38.200781 
L 181.975781 -38.200781 
L 183.525781 -38.200781 
L 185.075781 -38.200781 
L 186.625781 -38.200781 
L 188.175781 -38.200781 
L 189.725781 -38.200781 
L 191.275781 -38.200781 
L 192.825781 -38.200781 
L 194.375781 -38.200781 
L 195.925781 -38.200781 
L 197.475781 -38.200781 
L 199.025781 -38.200781 
L 200.575781 -38.200781 
L 202.125781 -38.200781 
L 203.675781 -38.200781 
L 205.225781 -38.200781 
L 206.775781 -38.200781 
L 208.325781 -38.200781 
L 209.875781 -38.200781 
L 211.425781 -38.200781 
L 212.975781 -38.200781 
L 214.525781 -38.200781 
L 216.075781 -38.200781 
L 217.625781 -38.200781 
L 219.175781 -38.200781 
L 220.725781 -38.200781 
L 222.275781 -38.200781 
L 223.825781 -38.200781 
L 225.375781 -38.200781 
L 226.925781 -38.200781 
L 228.475781 -38.200781 
L 230.025781 -38.200781 
L 231.575781 -38.200781 
L 233.125781 -38.200781 
L 234.675781 -38.200781 
L 236.225781 -38.200781 
L 237.775781 -38.200781 
L 239.325781 -38.200781 
L 240.875781 -38.200781 
L 242.425781 -38.200781 
L 243.975781 -38.200781 
L 245.525781 -38.200781 
L 247.075781 -38.200781 
L 248.625781 -38.200781 
L 250.175781 -38.200781 
L 251.725781 -38.200781 
L 253.275781 -38.200781 
L 254.825781 -38.200781 
L 256.375781 -38.200781 
L 257.925781 -38.200781 
L 259.475781 -38.200781 
L 261.025781 -38.200781 
L 262.575781 -38.200781 
L 264.125781 -38.200781 
L 265.675781 -38.200781 
L 267.225781 -38.200781 
L 268.775781 -38.200781 
L 270.325781 -38.200781 
L 271.875781 -38.200781 
L 273.425781 -38.200781 
L 274.975781 -38.200781 
L 276.525781 -38.200781 
L 278.075781 -38.200781 
L 279.625781 -38.200781 
L 281.175781 -38.200781 
L 282.725781 -38.200781 
L 284.275781 -38.200781 
L 285.825781 -38.200781 
L 287.375781 -38.200781 
L 288.925781 -38.200781 
L 290.475781 -38.200781 
L 292.025781 -38.200781 
L 293.575781 -38.200781 
L 295.125781 -38.200781 
L 296.675781 -38.200781 
L 298.225781 -38.200781 
L 299.775781 -38.200781 
L 301.325781 -38.200781 
L 302.875781 -38.200781 
L 304.425781 -38.200781 
L 305.975781 -38.200781 
L 307.525781 -38.200781 
L 309.075781 -38.200781 
L 310.625781 -38.200781 
L 312.175781 -38.200781 
L 313.725781 -38.200781 
L 315.275781 -38.200781 
L 316.825781 -38.200781 
L 318.375781 -38.200781 
L 319.925781 -38.200781 
L 321.475781 -38.200781 
L 323.025781 -38.200781 
L 324.575781 -38.200781 
L 326.125781 -38.200781 
L 327.675781 -38.200781 
L 329.225781 -38.200781 
L 330.775781 -38.200781 
L 332.325781 -38.200781 
L 333.875781 -38.200781 
L 335.425781 -38.200781 
L 336.975781 -38.200781 
L 338.525781 -38.200781 
L 340.075781 -38.200781 
L 341.625781 -38.200781 
L 343.175781 -38.200781 
L 344.725781 -38.200781 
L 346.275781 -38.200781 
L 347.825781 -38.200781 
L 349.375781 -38.200781 
L 350.925781 -38.200781 
L 352.475781 -38.200781 
L 354.025781 -38.200781 
L 355.575781 -38.200781 
L 357.125781 -38.200781 
L 358.675781 -38.200781 
L 360.225781 -38.200781 
L 361.775781 -38.200781 
L 363.325781 -38.200781 
L 364.875781 -38.200781 
L 366.425781 -38.200781 
L 367.975781 -38.200781 
L 369.525781 -38.200781 
L 371.075781 -38.200781 
L 372.625781 -38.200781 
L 374.175781 -38.200781 
L 375.725781 -38.200781 
L 377.275781 -38.200781 
L 378.825781 -38.200781 
L 380.375781 -38.200781 
L 381.925781 -38.200781 
L 383.475781 -38.200781 
L 385.025781 -38.200781 
L 386.575781 -38.200781 
L 388.125781 -38.200781 
L 389.675781 -38.200781 
L 391.225781 -38.200781 
L 392.775781 -38.200781 
L 394.325781 -38.200781 
L 395.875781 -38.200781 
L 397.425781 -38.200781 
L 398.975781 -38.200781 
L 400.525781 -38.200781 
L 402.075781 -38.200781 
L 403.625781 -38.200781 
L 405.175781 -38.200781 
L 406.725781 -38.200781 
L 408.275781 -38.200781 
L 409.825781 -38.200781 
L 411.375781 -38.200781 
L 412.925781 -38.200781 
L 414.475781 -38.200781 
L 416.025781 -38.200781 
L 417.575781 -38.200781 
L 419.125781 -38.200781 
L 420.675781 -38.200781 
L 422.225781 -38.200781 
L 423.775781 -38.200781 
L 425.325781 -38.200781 
L 426.875781 -38.200781 
L 428.425781 -38.200781 
L 429.975781 -38.200781 
L 431.525781 -38.200781 
L 433.075781 -38.200781 
L 434.625781 -38.200781 
L 436.175781 -38.200781 
L 437.725781 -38.200781 
L 439.275781 -38.200781 
L 440.825781 -38.200781 
L 442.375781 -38.200781 
L 443.925781 -38.200781 
L 445.475781 -38.200781 
L 447.025781 -38.200781 
L 448.575781 -38.200781 
L 450.125781 -38.200781 
L 451.675781 -38.200781 
L 453.225781 -38.200781 
L 454.775781 -38.200781 
L 456.325781 -38.200781 
L 457.875781 -38.200781 
L 459.425781 -38.200781 
L 460.975781 -38.200781 
L 462.525781 -38.200781 
L 464.075781 -38.200781 
L 465.625781 -38.200781 
L 467.175781 -38.200781 
L 468.725781 -38.200781 
L 470.275781 -38.200781 
L 471.825781 -38.200781 
L 473.375781 -38.200781 
L 474.925781 -38.200781 
L 476.475781 -38.200781 
L 478.025781 -38.200781 
L 479.575781 -38.200781 
L 481.125781 -38.200781 
L 482.675781 -38.200781 
L 484.225781 -38.200781 
L 485.775781 -38.200781 
L 487.325781 -38.200781 
L 488.875781 -38.200781 
L 490.425781 -38.200781 
L 491.975781 -38.200781 
L 493.525781 -38.200781 
L 495.075781 -38.200781 
L 496.625781 -38.200781 
L 498.175781 -38.200781 
L 499.725781 -38.200781 
L 501.275781 -38.200781 
L 502.825781 -38.200781 
L 504.375781 -38.200781 
L 505.925781 -38.200781 
L 507.475781 -38.200781 
L 509.025781 -38.200781 
L 510.575781 -38.200781 
L 512.125781 -38.200781 
L 513.675781 -38.200781 
L 515.225781 -38.200781 
L 516.775781 -38.200781 
L 518.325781 -38.200781 
L 519.875781 -38.200781 
L 521.425781 -38.200781 
L 522.975781 -38.200781 
L 524.525781 -38.200781 
L 526.075781 -38.200781 
L 527.625781 -38.200781 
L 529.175781 -38.200781 
L 530.725781 -38.200781 
L 532.275781 -38.200781 
L 533.825781 -38.200781 
L 535.375781 -38.200781 
L 536.925781 -38.200781 
L 538.475781 -38.200781 
L 540.025781 -38.200781 
L 541.575781 -38.200781 
L 543.125781 -38.200781 
L 544.675781 -38.200781 
L 546.225781 -38.200781 
L 547.775781 -38.200781 
L 549.325781 -38.200781 
L 550.875781 -38.200781 
L 552.425781 -38.200781 
L 553.975781 -38.200781 
L 555.525781 -38.200781 
L 557.075781 -38.200781 
L 558.625781 -38.200781 
L 560.175781 -38.200781 
L 561.725781 -38.200781 
L 563.275781 -38.200781 
L 564.825781 -38.200781 
L 566.375781 -38.200781 
L 567.925781 -38.200781 
L 569.475781 -38.200781 
L 571.025781 -38.200781 
L 572.575781 -38.200781 
L 574.125781 -38.200781 
L 575.675781 -38.200781 
L 577.225781 -38.200781 
L 578.775781 -38.200781 
L 580.325781 -38.200781 
L 581.875781 -38.200781 
L 583.425781 -38.200781 
L 584.975781 -38.200781 
L 586.525781 -38.200781 
L 588.075781 -38.200781 
L 589.625781 -38.200781 
L 591.175781 -38.200781 
L 592.725781 -38.200781 
L 594.275781 -38.200781 
L 595.825781 -38.200781 
L 597.375781 -38.200781 
L 598.925781 -38.200781 
L 598.925781 -93.640781 
L 598.925781 -93.640781 
L 597.375781 -91.383727 
L 595.825781 -89.130896 
L 594.275781 -86.8865 
L 592.725781 -84.654735 
L 591.175781 -82.439769 
L 589.625781 -80.245731 
L 588.075781 -78.076708 
L 586.525781 -75.936731 
L 584.975781 -73.829769 
L 583.425781 -71.759717 
L 581.875781 -69.730392 
L 580.325781 -67.745523 
L 578.775781 -65.808743 
L 577.225781 -63.923579 
L 575.675781 -62.093448 
L 574.125781 -60.321649 
L 572.575781 -58.611354 
L 571.025781 -56.965604 
L 569.475781 -55.387301 
L 567.925781 -53.879202 
L 566.375781 -52.443913 
L 564.825781 -51.083888 
L 563.275781 -49.801416 
L 561.725781 -48.598624 
L 560.175781 -47.477469 
L 558.625781 -46.439736 
L 557.075781 -45.487033 
L 555.525781 -44.620788 
L 553.975781 -43.84225 
L 552.425781 -43.152482 
L 550.875781 -42.552364 
L 549.325781 -42.042589 
L 547.775781 -41.623661 
L 546.225781 -41.295898 
L 544.675781 -41.059433 
L 543.125781 -40.914208 
L 541.575781 -40.859983 
L 540.025781 -40.896331 
L 538.475781 -41.022645 
L 536.925781 -41.238137 
L 535.375781 -41.541841 
L 533.825781 -41.932618 
L 532.275781 -42.409157 
L 530.725781 -42.96998 
L 529.175781 -43.613448 
L 527.625781 -44.337763 
L 526.075781 -45.140973 
L 524.525781 -46.020981 
L 522.975781 -46.975544 
L 521.425781 -48.002287 
L 519.875781 -49.098701 
L 518.325781 -50.262158 
L 516.775781 -51.489909 
L 515.225781 -52.779098 
L 513.675781 -54.126766 
L 512.125781 -55.529858 
L 510.575781 -56.985232 
L 509.025781 -58.489667 
L 507.475781 -60.03987 
L 505.925781 -61.632482 
L 504.375781 -63.264092 
L 502.825781 -64.931239 
L 501.275781 -66.630422 
L 499.725781 -68.358112 
L 498.175781 -70.110755 
L 496.625781 -71.884783 
L 495.075781 -73.676622 
L 493.525781 -75.482701 
L 491.975781 -77.299458 
L 490.425781 -79.123351 
L 488.875781 -80.950862 
L 487.325781 -82.77851 
L 485.775781 -84.602852 
L 484.225781 -86.420499 
L 482.675781 -88.228115 
L 481.125781 -90.022429 
L 479.575781 -91.800241 
L 478.025781 -93.558429 
L 476.475781 -95.293954 
L 474.925781 -97.003866 
L 473.375781 -98.685314 
L 471.825781 -100.335545 
L 470.275781 -101.951914 
L 468.725781 -103.53189 
L 467.175781 -105.073054 
L 465.625781 -106.573111 
L 464.075781 -108.02989 
L 462.525781 -109.441347 
L 460.975781 -110.80557 
L 459.425781 -112.120781 
L 457.875781 -113.38534 
L 456.325781 -114.597745 
L 454.775781 -115.756634 
L 453.225781 -116.860787 
L 451.675781 -117.909127 
L 450.125781 -118.900722 
L 448.575781 -119.834781 
L 447.025781 -120.710658 
L 445.475781 -121.52785 
L 443.925781 -122.285995 
L 442.375781 -122.984873 
L 440.825781 -123.624402 
L 439.275781 -124.204636 
L 437.725781 -124.725767 
L 436.175781 -125.188115 
L 434.625781 -125.592131 
L 433.075781 -125.938392 
L 431.525781 -126.227596 
L 429.975781 -126.460559 
L 428.425781 -126.638211 
L 426.875781 -126.761593 
L 425.325781 -126.831848 
L 423.775781 -126.85022 
L 422.225781 -126.818048 
L 420.675781 -126.73676 
L 419.125781 -126.607867 
L 417.575781 -126.432958 
L 416.025781 -126.213696 
L 414.475781 -125.951807 
L 412.925781 -125.64908 
L 411.375781 -125.307356 
L 409.825781 -124.928523 
L 408.275781 -124.514512 
L 406.725781 -124.067288 
L 405.175781 -123.588845 
L 403.625781 -123.081196 
L 402.075781 -122.546374 
L 400.525781 -121.986418 
L 398.975781 -121.403372 
L 397.425781 -120.799276 
L 395.875781 -120.17616 
L 394.325781 -119.536039 
L 392.775781 -118.880908 
L 391.225781 -118.212733 
L 389.675781 -117.533448 
L 388.125781 -116.84495 
L 386.575781 -116.149091 
L 385.025781 -115.447676 
L 383.475781 -114.742457 
L 381.925781 -114.035126 
L 380.375781 -113.327316 
L 378.825781 -112.620591 
L 377.275781 -111.916447 
L 375.725781 -111.216306 
L 374.175781 -110.521511 
L 372.625781 -109.833329 
L 371.075781 -109.152941 
L 369.525781 -108.481445 
L 367.975781 -107.81985 
L 366.425781 -107.16908 
L 364.875781 -106.529965 
L 363.325781 -105.903245 
L 361.775781 -105.289569 
L 360.225781 -104.689491 
L 358.675781 -104.103475 
L 357.125781 -103.53189 
L 355.575781 -102.975014 
L 354.025781 -102.433035 
L 352.475781 -101.906048 
L 350.925781 -101.394062 
L 349.375781 -100.896997 
L 347.825781 -100.41469 
L 346.275781 -99.946894 
L 344.725781 -99.493281 
L 343.175781 -99.053448 
L 341.625781 -98.626917 
L 340.075781 -98.213138 
L 338.525781 -97.811496 
L 336.975781 -97.421312 
L 335.425781 -97.041846 
L 333.875781 -96.672305 
L 332.325781 -96.311845 
L 330.775781 -95.959575 
L 329.225781 -95.614563 
L 327.675781 -95.275842 
L 326.125781 -94.942411 
L 324.575781 -94.613244 
L 323.025781 -94.287295 
L 321.475781 -93.963498 
L 319.925781 -93.640781 
L 318.375781 -93.318064 
L 316.825781 -92.994268 
L 315.275781 -92.668318 
L 313.725781 -92.339151 
L 312.175781 -92.005721 
L 310.625781 -91.666999 
L 309.075781 -91.321988 
L 307.525781 -90.969718 
L 305.975781 -90.609258 
L 304.425781 -90.239717 
L 302.875781 -89.860251 
L 301.325781 -89.470066 
L 299.775781 -89.068424 
L 298.225781 -88.654646 
L 296.675781 -88.228115 
L 295.125781 -87.788282 
L 293.575781 -87.334669 
L 292.025781 -86.866872 
L 290.475781 -86.384565 
L 288.925781 -85.887501 
L 287.375781 -85.375515 
L 285.825781 -84.848528 
L 284.275781 -84.306549 
L 282.725781 -83.749673 
L 281.175781 -83.178088 
L 279.625781 -82.592071 
L 278.075781 -81.991994 
L 276.525781 -81.378317 
L 274.975781 -80.751597 
L 273.425781 -80.112482 
L 271.875781 -79.461712 
L 270.325781 -78.800118 
L 268.775781 -78.128622 
L 267.225781 -77.448234 
L 265.675781 -76.760051 
L 264.125781 -76.065257 
L 262.575781 -75.365115 
L 261.025781 -74.660971 
L 259.475781 -73.954246 
L 257.925781 -73.246436 
L 256.375781 -72.539106 
L 254.825781 -71.833886 
L 253.275781 -71.132471 
L 251.725781 -70.436613 
L 250.175781 -69.748115 
L 248.625781 -69.06883 
L 247.075781 -68.400655 
L 245.525781 -67.745523 
L 243.975781 -67.105403 
L 242.425781 -66.482287 
L 240.875781 -65.87819 
L 239.325781 -65.295144 
L 237.775781 -64.735189 
L 236.225781 -64.200366 
L 234.675781 -63.692718 
L 233.125781 -63.214274 
L 231.575781 -62.76705 
L 230.025781 -62.353039 
L 228.475781 -61.974207 
L 226.925781 -61.632482 
L 225.375781 -61.329755 
L 223.825781 -61.067867 
L 222.275781 -60.848604 
L 220.725781 -60.673696 
L 219.175781 -60.544803 
L 217.625781 -60.463514 
L 216.075781 -60.431343 
L 214.525781 -60.449715 
L 212.975781 -60.51997 
L 211.425781 -60.643351 
L 209.875781 -60.821004 
L 208.325781 -61.053967 
L 206.775781 -61.343171 
L 205.225781 -61.689432 
L 203.675781 -62.093448 
L 202.125781 -62.555796 
L 200.575781 -63.076926 
L 199.025781 -63.657161 
L 197.475781 -64.296689 
L 195.925781 -64.995567 
L 194.375781 -65.753713 
L 192.825781 -66.570905 
L 191.275781 -67.446782 
L 189.725781 -68.380841 
L 188.175781 -69.372435 
L 186.625781 -70.420776 
L 185.075781 -71.524929 
L 183.525781 -72.683817 
L 181.975781 -73.896222 
L 180.425781 -75.160781 
L 178.875781 -76.475993 
L 177.325781 -77.840216 
L 175.775781 -79.251673 
L 174.225781 -80.708451 
L 172.675781 -82.208509 
L 171.125781 -83.749673 
L 169.575781 -85.329648 
L 168.025781 -86.946018 
L 166.475781 -88.596249 
L 164.925781 -90.277696 
L 163.375781 -91.987609 
L 161.825781 -93.723134 
L 160.275781 -95.481321 
L 158.725781 -97.259134 
L 157.175781 -99.053448 
L 155.625781 -100.861064 
L 154.075781 -102.67871 
L 152.525781 -104.503053 
L 150.975781 -106.3307 
L 149.425781 -108.158211 
L 147.875781 -109.982104 
L 146.325781 -111.798861 
L 144.775781 -113.604941 
L 143.225781 -115.39678 
L 141.675781 -117.170808 
L 140.125781 -118.923451 
L 138.575781 -120.65114 
L 137.025781 -122.350324 
L 135.475781 -124.01747 
L 133.925781 -125.64908 
L 132.375781 -127.241693 
L 130.825781 -128.791895 
L 129.275781 -130.29633 
L 127.725781 -131.751705 
L 126.175781 -133.154796 
L 124.625781 -134.502464 
L 123.075781 -135.791653 
L 121.525781 -137.019404 
L 119.975781 -138.182861 
L 118.425781 -139.279276 
L 116.875781 -140.306018 
L 115.325781 -141.260582 
L 113.775781 -142.140589 
L 112.225781 -142.9438 
L 110.675781 -143.668115 
L 109.125781 -144.311583 
L 107.575781 -144.872406 
L 106.025781 -145.348945 
L 104.475781 -145.739721 
L 102.925781 -146.043425 
L 101.375781 -146.258917 
L 99.825781 -146.385231 
L 98.275781 -146.42158 
L 96.725781 -146.367355 
L 95.175781 -146.22213 
L 93.625781 -145.985664 
L 92.075781 -145.657902 
L 90.525781 -145.238974 
L 88.975781 -144.729198 
L 87.425781 -144.12908 
L 85.875781 -143.439313 
L 84.325781 -142.660775 
L 82.775781 -141.79453 
L 81.225781 -140.841826 
L 79.675781 -139.804093 
L 78.125781 -138.682938 
L 76.575781 -137.480147 
L 75.025781 -136.197675 
L 73.475781 -134.837649 
L 71.925781 -133.402361 
L 70.375781 -131.894261 
L 68.825781 -130.315958 
L 67.275781 -128.670208 
L 65.725781 -126.959914 
L 64.175781 -125.188115 
L 62.625781 -123.357984 
L 61.075781 -121.47282 
L 59.525781 -119.536039 
L 57.975781 -117.55117 
L 56.425781 -115.521846 
L 54.875781 -113.451794 
L 53.325781 -111.344831 
L 51.775781 -109.204854 
L 50.225781 -107.035831 
L 48.675781 -104.841794 
L 47.125781 -102.626827 
L 45.575781 -100.395062 
L 44.025781 -98.150667 
L 42.475781 -95.897835 
L 40.925781 -93.640781 
z
" style="stroke: #808080; stroke-opacity: 0.2"/>
    </defs>
    <g clip-path="url(#p5d0007666e)">
     <use xlink:href="#m0ffe3993a5" x="0" y="393.158906" style="fill: #808080; fill-opacity: 0.2; stroke: #808080; stroke-opacity: 0.2"/>
    </g>
   </g>
   <g id="matplotlib.axis_1">
    <g id="xtick_1">
     <g id="line2d_1">
      <path d="M 40.925781 354.958125 
L 40.925781 22.318125 
" clip-path="url(#p5d0007666e)" style="fill: none; stroke: #ffffff; stroke-width: 0.8; stroke-linecap: square"/>
     </g>
     <g id="line2d_2">
      <defs>
       <path id="m48c1338f31" d="M 0 0 
L 0 3.5 
" style="stroke: #ffffff; stroke-width: 0.8"/>
      </defs>
      <g>
       <use xlink:href="#m48c1338f31" x="40.925781" y="354.958125" style="fill: #ffffff; stroke: #ffffff; stroke-width: 0.8"/>
      </g>
     </g>
     <g id="text_1">
      <!-- 0 -->
      <g style="fill: #ffffff" transform="translate(37.744531 369.555781) scale(0.1 -0.1)">
       <defs>
        <path id="DejaVuSans-13" d="M 2034 4250 
Q 1547 4250 1301 3770 
Q 1056 3291 1056 2328 
Q 1056 1369 1301 889 
Q 1547 409 2034 409 
Q 2525 409 2770 889 
Q 3016 1369 3016 2328 
Q 3016 3291 2770 3770 
Q 2525 4250 2034 4250 
z
M 2034 4750 
Q 2819 4750 3233 4129 
Q 3647 3509 3647 2328 
Q 3647 1150 3233 529 
Q 2819 -91 2034 -91 
Q 1250 -91 836 529 
Q 422 1150 422 2328 
Q 422 3509 836 4129 
Q 1250 4750 2034 4750 
z
" transform="scale(0.015625)"/>
       </defs>
       <use xlink:href="#DejaVuSans-13"/>
      </g>
     </g>
    </g>
    <g id="xtick_2">
     <g id="line2d_3">
      <path d="M 118.425781 354.958125 
L 118.425781 22.318125 
" clip-path="url(#p5d0007666e)" style="fill: none; stroke: #ffffff; stroke-width: 0.8; stroke-linecap: square"/>
     </g>
     <g id="line2d_4">
      <g>
       <use xlink:href="#m48c1338f31" x="118.425781" y="354.958125" style="fill: #ffffff; stroke: #ffffff; stroke-width: 0.8"/>
      </g>
     </g>
     <g id="text_2">
      <!-- 50 -->
      <g style="fill: #ffffff" transform="translate(112.063281 369.555781) scale(0.1 -0.1)">
       <defs>
        <path id="DejaVuSans-18" d="M 691 4666 
L 3169 4666 
L 3169 4134 
L 1269 4134 
L 1269 2991 
Q 1406 3038 1543 3061 
Q 1681 3084 1819 3084 
Q 2600 3084 3056 2656 
Q 3513 2228 3513 1497 
Q 3513 744 3044 326 
Q 2575 -91 1722 -91 
Q 1428 -91 1123 -41 
Q 819 9 494 109 
L 494 744 
Q 775 591 1075 516 
Q 1375 441 1709 441 
Q 2250 441 2565 725 
Q 2881 1009 2881 1497 
Q 2881 1984 2565 2268 
Q 2250 2553 1709 2553 
Q 1456 2553 1204 2497 
Q 953 2441 691 2322 
L 691 4666 
z
" transform="scale(0.015625)"/>
       </defs>
       <use xlink:href="#DejaVuSans-18"/>
       <use xlink:href="#DejaVuSans-13" transform="translate(63.625 0)"/>
      </g>
     </g>
    </g>
    <g id="xtick_3">
     <g id="line2d_5">
      <path d="M 195.925781 354.958125 
L 195.925781 22.318125 
" clip-path="url(#p5d0007666e)" style="fill: none; stroke: #ffffff; stroke-width: 0.8; stroke-linecap: square"/>
     </g>
     <g id="line2d_6">
      <g>
       <use xlink:href="#m48c1338f31" x="195.925781" y="354.958125" style="fill: #ffffff; stroke: #ffffff; stroke-width: 0.8"/>
      </g>
     </g>
     <g id="text_3">
      <!-- 100 -->
      <g style="fill: #ffffff" transform="translate(186.382031 369.555781) scale(0.1 -0.1)">
       <defs>
        <path id="DejaVuSans-14" d="M 794 531 
L 1825 531 
L 1825 4091 
L 703 3866 
L 703 4441 
L 1819 4666 
L 2450 4666 
L 2450 531 
L 3481 531 
L 3481 0 
L 794 0 
L 794 531 
z
" transform="scale(0.015625)"/>
       </defs>
       <use xlink:href="#DejaVuSans-14"/>
       <use xlink:href="#DejaVuSans-13" transform="translate(63.625 0)"/>
       <use xlink:href="#DejaVuSans-13" transform="translate(127.25 0)"/>
      </g>
     </g>
    </g>
    <g id="xtick_4">
     <g id="line2d_7">
      <path d="M 273.425781 354.958125 
L 273.425781 22.318125 
" clip-path="url(#p5d0007666e)" style="fill: none; stroke: #ffffff; stroke-width: 0.8; stroke-linecap: square"/>
     </g>
     <g id="line2d_8">
      <g>
       <use xlink:href="#m48c1338f31" x="273.425781" y="354.958125" style="fill: #ffffff; stroke: #ffffff; stroke-width: 0.8"/>
      </g>
     </g>
     <g id="text_4">
      <!-- 150 -->
      <g style="fill: #ffffff" transform="translate(263.882031 369.555781) scale(0.1 -0.1)">
       <use xlink:href="#DejaVuSans-14"/>
       <use xlink:href="#DejaVuSans-18" transform="translate(63.625 0)"/>
       <use xlink:href="#DejaVuSans-13" transform="translate(127.25 0)"/>
      </g>
     </g>
    </g>
    <g id="xtick_5">
     <g id="line2d_9">
      <path d="M 350.925781 354.958125 
L 350.925781 22.318125 
" clip-path="url(#p5d0007666e)" style="fill: none; stroke: #ffffff; stroke-width: 0.8; stroke-linecap: square"/>
     </g>
     <g id="line2d_10">
      <g>
       <use xlink:href="#m48c1338f31" x="350.925781" y="354.958125" style="fill: #ffffff; stroke: #ffffff; stroke-width: 0.8"/>
      </g>
     </g>
     <g id="text_5">
      <!-- 200 -->
      <g style="fill: #ffffff" transform="translate(341.382031 369.555781) scale(0.1 -0.1)">
       <defs>
        <path id="DejaVuSans-15" d="M 1228 531 
L 3431 531 
L 3431 0 
L 469 0 
L 469 531 
Q 828 903 1448 1529 
Q 2069 2156 2228 2338 
Q 2531 2678 2651 2914 
Q 2772 3150 2772 3378 
Q 2772 3750 2511 3984 
Q 2250 4219 1831 4219 
Q 1534 4219 1204 4116 
Q 875 4013 500 3803 
L 500 4441 
Q 881 4594 1212 4672 
Q 1544 4750 1819 4750 
Q 2544 4750 2975 4387 
Q 3406 4025 3406 3419 
Q 3406 3131 3298 2873 
Q 3191 2616 2906 2266 
Q 2828 2175 2409 1742 
Q 1991 1309 1228 531 
z
" transform="scale(0.015625)"/>
       </defs>
       <use xlink:href="#DejaVuSans-15"/>
       <use xlink:href="#DejaVuSans-13" transform="translate(63.625 0)"/>
       <use xlink:href="#DejaVuSans-13" transform="translate(127.25 0)"/>
      </g>
     </g>
    </g>
    <g id="xtick_6">
     <g id="line2d_11">
      <path d="M 428.425781 354.958125 
L 428.425781 22.318125 
" clip-path="url(#p5d0007666e)" style="fill: none; stroke: #ffffff; stroke-width: 0.8; stroke-linecap: square"/>
     </g>
     <g id="line2d_12">
      <g>
       <use xlink:href="#m48c1338f31" x="428.425781" y="354.958125" style="fill: #ffffff; stroke: #ffffff; stroke-width: 0.8"/>
      </g>
     </g>
     <g id="text_6">
      <!-- 250 -->
      <g style="fill: #ffffff" transform="translate(418.882031 369.555781) scale(0.1 -0.1)">
       <use xlink:href="#DejaVuSans-15"/>
       <use xlink:href="#DejaVuSans-18" transform="translate(63.625 0)"/>
       <use xlink:href="#DejaVuSans-13" transform="translate(127.25 0)"/>
      </g>
     </g>
    </g>
    <g id="xtick_7">
     <g id="line2d_13">
      <path d="M 505.925781 354.958125 
L 505.925781 22.318125 
" clip-path="url(#p5d0007666e)" style="fill: none; stroke: #ffffff; stroke-width: 0.8; stroke-linecap: square"/>
     </g>
     <g id="line2d_14">
      <g>
       <use xlink:href="#m48c1338f31" x="505.925781" y="354.958125" style="fill: #ffffff; stroke: #ffffff; stroke-width: 0.8"/>
      </g>
     </g>
     <g id="text_7">
      <!-- 300 -->
      <g style="fill: #ffffff" transform="translate(496.382031 369.555781) scale(0.1 -0.1)">
       <defs>
        <path id="DejaVuSans-16" d="M 2597 2516 
Q 3050 2419 3304 2112 
Q 3559 1806 3559 1356 
Q 3559 666 3084 287 
Q 2609 -91 1734 -91 
Q 1441 -91 1130 -33 
Q 819 25 488 141 
L 488 750 
Q 750 597 1062 519 
Q 1375 441 1716 441 
Q 2309 441 2620 675 
Q 2931 909 2931 1356 
Q 2931 1769 2642 2001 
Q 2353 2234 1838 2234 
L 1294 2234 
L 1294 2753 
L 1863 2753 
Q 2328 2753 2575 2939 
Q 2822 3125 2822 3475 
Q 2822 3834 2567 4026 
Q 2313 4219 1838 4219 
Q 1578 4219 1281 4162 
Q 984 4106 628 3988 
L 628 4550 
Q 988 4650 1302 4700 
Q 1616 4750 1894 4750 
Q 2613 4750 3031 4423 
Q 3450 4097 3450 3541 
Q 3450 3153 3228 2886 
Q 3006 2619 2597 2516 
z
" transform="scale(0.015625)"/>
       </defs>
       <use xlink:href="#DejaVuSans-16"/>
       <use xlink:href="#DejaVuSans-13" transform="translate(63.625 0)"/>
       <use xlink:href="#DejaVuSans-13" transform="translate(127.25 0)"/>
      </g>
     </g>
    </g>
    <g id="xtick_8">
     <g id="line2d_15">
      <path d="M 583.425781 354.958125 
L 583.425781 22.318125 
" clip-path="url(#p5d0007666e)" style="fill: none; stroke: #ffffff; stroke-width: 0.8; stroke-linecap: square"/>
     </g>
     <g id="line2d_16">
      <g>
       <use xlink:href="#m48c1338f31" x="583.425781" y="354.958125" style="fill: #ffffff; stroke: #ffffff; stroke-width: 0.8"/>
      </g>
     </g>
     <g id="text_8">
      <!-- 350 -->
      <g style="fill: #ffffff" transform="translate(573.882031 369.555781) scale(0.1 -0.1)">
       <use xlink:href="#DejaVuSans-16"/>
       <use xlink:href="#DejaVuSans-18" transform="translate(63.625 0)"/>
       <use xlink:href="#DejaVuSans-13" transform="translate(127.25 0)"/>
      </g>
     </g>
    </g>
    <g id="text_9">
     <!-- Azimuth (degrees) -->
     <g style="fill: #ffffff" transform="translate(273.705469 383.556562) scale(0.1 -0.1)">
      <defs>
       <path id="DejaVuSans-24" d="M 2188 4044 
L 1331 1722 
L 3047 1722 
L 2188 4044 
z
M 1831 4666 
L 2547 4666 
L 4325 0 
L 3669 0 
L 3244 1197 
L 1141 1197 
L 716 0 
L 50 0 
L 1831 4666 
z
" transform="scale(0.015625)"/>
       <path id="DejaVuSans-5d" d="M 353 3500 
L 3084 3500 
L 3084 2975 
L 922 459 
L 3084 459 
L 3084 0 
L 275 0 
L 275 525 
L 2438 3041 
L 353 3041 
L 353 3500 
z
" transform="scale(0.015625)"/>
       <path id="DejaVuSans-4c" d="M 603 3500 
L 1178 3500 
L 1178 0 
L 603 0 
L 603 3500 
z
M 603 4863 
L 1178 4863 
L 1178 4134 
L 603 4134 
L 603 4863 
z
" transform="scale(0.015625)"/>
       <path id="DejaVuSans-50" d="M 3328 2828 
Q 3544 3216 3844 3400 
Q 4144 3584 4550 3584 
Q 5097 3584 5394 3201 
Q 5691 2819 5691 2113 
L 5691 0 
L 5113 0 
L 5113 2094 
Q 5113 2597 4934 2840 
Q 4756 3084 4391 3084 
Q 3944 3084 3684 2787 
Q 3425 2491 3425 1978 
L 3425 0 
L 2847 0 
L 2847 2094 
Q 2847 2600 2669 2842 
Q 2491 3084 2119 3084 
Q 1678 3084 1418 2786 
Q 1159 2488 1159 1978 
L 1159 0 
L 581 0 
L 581 3500 
L 1159 3500 
L 1159 2956 
Q 1356 3278 1631 3431 
Q 1906 3584 2284 3584 
Q 2666 3584 2933 3390 
Q 3200 3197 3328 2828 
z
" transform="scale(0.015625)"/>
       <path id="DejaVuSans-58" d="M 544 1381 
L 544 3500 
L 1119 3500 
L 1119 1403 
Q 1119 906 1312 657 
Q 1506 409 1894 409 
Q 2359 409 2629 706 
Q 2900 1003 2900 1516 
L 2900 3500 
L 3475 3500 
L 3475 0 
L 2900 0 
L 2900 538 
Q 2691 219 2414 64 
Q 2138 -91 1772 -91 
Q 1169 -91 856 284 
Q 544 659 544 1381 
z
M 1991 3584 
L 1991 3584 
z
" transform="scale(0.015625)"/>
       <path id="DejaVuSans-57" d="M 1172 4494 
L 1172 3500 
L 2356 3500 
L 2356 3053 
L 1172 3053 
L 1172 1153 
Q 1172 725 1289 603 
Q 1406 481 1766 481 
L 2356 481 
L 2356 0 
L 1766 0 
Q 1100 0 847 248 
Q 594 497 594 1153 
L 594 3053 
L 172 3053 
L 172 3500 
L 594 3500 
L 594 4494 
L 1172 4494 
z
" transform="scale(0.015625)"/>
       <path id="DejaVuSans-4b" d="M 3513 2113 
L 3513 0 
L 2938 0 
L 2938 2094 
Q 2938 2591 2744 2837 
Q 2550 3084 2163 3084 
Q 1697 3084 1428 2787 
Q 1159 2491 1159 1978 
L 1159 0 
L 581 0 
L 581 4863 
L 1159 4863 
L 1159 2956 
Q 1366 3272 1645 3428 
Q 1925 3584 2291 3584 
Q 2894 3584 3203 3211 
Q 3513 2838 3513 2113 
z
" transform="scale(0.015625)"/>
       <path id="DejaVuSans-3" transform="scale(0.015625)"/>
       <path id="DejaVuSans-b" d="M 1984 4856 
Q 1566 4138 1362 3434 
Q 1159 2731 1159 2009 
Q 1159 1288 1364 580 
Q 1569 -128 1984 -844 
L 1484 -844 
Q 1016 -109 783 600 
Q 550 1309 550 2009 
Q 550 2706 781 3412 
Q 1013 4119 1484 4856 
L 1984 4856 
z
" transform="scale(0.015625)"/>
       <path id="DejaVuSans-47" d="M 2906 2969 
L 2906 4863 
L 3481 4863 
L 3481 0 
L 2906 0 
L 2906 525 
Q 2725 213 2448 61 
Q 2172 -91 1784 -91 
Q 1150 -91 751 415 
Q 353 922 353 1747 
Q 353 2572 751 3078 
Q 1150 3584 1784 3584 
Q 2172 3584 2448 3432 
Q 2725 3281 2906 2969 
z
M 947 1747 
Q 947 1113 1208 752 
Q 1469 391 1925 391 
Q 2381 391 2643 752 
Q 2906 1113 2906 1747 
Q 2906 2381 2643 2742 
Q 2381 3103 1925 3103 
Q 1469 3103 1208 2742 
Q 947 2381 947 1747 
z
" transform="scale(0.015625)"/>
       <path id="DejaVuSans-48" d="M 3597 1894 
L 3597 1613 
L 953 1613 
Q 991 1019 1311 708 
Q 1631 397 2203 397 
Q 2534 397 2845 478 
Q 3156 559 3463 722 
L 3463 178 
Q 3153 47 2828 -22 
Q 2503 -91 2169 -91 
Q 1331 -91 842 396 
Q 353 884 353 1716 
Q 353 2575 817 3079 
Q 1281 3584 2069 3584 
Q 2775 3584 3186 3129 
Q 3597 2675 3597 1894 
z
M 3022 2063 
Q 3016 2534 2758 2815 
Q 2500 3097 2075 3097 
Q 1594 3097 1305 2825 
Q 1016 2553 972 2059 
L 3022 2063 
z
" transform="scale(0.015625)"/>
       <path id="DejaVuSans-4a" d="M 2906 1791 
Q 2906 2416 2648 2759 
Q 2391 3103 1925 3103 
Q 1463 3103 1205 2759 
Q 947 2416 947 1791 
Q 947 1169 1205 825 
Q 1463 481 1925 481 
Q 2391 481 2648 825 
Q 2906 1169 2906 1791 
z
M 3481 434 
Q 3481 -459 3084 -895 
Q 2688 -1331 1869 -1331 
Q 1566 -1331 1297 -1286 
Q 1028 -1241 775 -1147 
L 775 -588 
Q 1028 -725 1275 -790 
Q 1522 -856 1778 -856 
Q 2344 -856 2625 -561 
Q 2906 -266 2906 331 
L 2906 616 
Q 2728 306 2450 153 
Q 2172 0 1784 0 
Q 1141 0 747 490 
Q 353 981 353 1791 
Q 353 2603 747 3093 
Q 1141 3584 1784 3584 
Q 2172 3584 2450 3431 
Q 2728 3278 2906 2969 
L 2906 3500 
L 3481 3500 
L 3481 434 
z
" transform="scale(0.015625)"/>
       <path id="DejaVuSans-55" d="M 2631 2963 
Q 2534 3019 2420 3045 
Q 2306 3072 2169 3072 
Q 1681 3072 1420 2755 
Q 1159 2438 1159 1844 
L 1159 0 
L 581 0 
L 581 3500 
L 1159 3500 
L 1159 2956 
Q 1341 3275 1631 3429 
Q 1922 3584 2338 3584 
Q 2397 3584 2469 3576 
Q 2541 3569 2628 3553 
L 2631 2963 
z
" transform="scale(0.015625)"/>
       <path id="DejaVuSans-56" d="M 2834 3397 
L 2834 2853 
Q 2591 2978 2328 3040 
Q 2066 3103 1784 3103 
Q 1356 3103 1142 2972 
Q 928 2841 928 2578 
Q 928 2378 1081 2264 
Q 1234 2150 1697 2047 
L 1894 2003 
Q 2506 1872 2764 1633 
Q 3022 1394 3022 966 
Q 3022 478 2636 193 
Q 2250 -91 1575 -91 
Q 1294 -91 989 -36 
Q 684 19 347 128 
L 347 722 
Q 666 556 975 473 
Q 1284 391 1588 391 
Q 1994 391 2212 530 
Q 2431 669 2431 922 
Q 2431 1156 2273 1281 
Q 2116 1406 1581 1522 
L 1381 1569 
Q 847 1681 609 1914 
Q 372 2147 372 2553 
Q 372 3047 722 3315 
Q 1072 3584 1716 3584 
Q 2034 3584 2315 3537 
Q 2597 3491 2834 3397 
z
" transform="scale(0.015625)"/>
       <path id="DejaVuSans-c" d="M 513 4856 
L 1013 4856 
Q 1481 4119 1714 3412 
Q 1947 2706 1947 2009 
Q 1947 1309 1714 600 
Q 1481 -109 1013 -844 
L 513 -844 
Q 928 -128 1133 580 
Q 1338 1288 1338 2009 
Q 1338 2731 1133 3434 
Q 928 4138 513 4856 
z
" transform="scale(0.015625)"/>
      </defs>
      <use xlink:href="#DejaVuSans-24"/>
      <use xlink:href="#DejaVuSans-5d" transform="translate(68.40625 0)"/>
      <use xlink:href="#DejaVuSans-4c" transform="translate(120.890625 0)"/>
      <use xlink:href="#DejaVuSans-50" transform="translate(148.671875 0)"/>
      <use xlink:href="#DejaVuSans-58" transform="translate(246.078125 0)"/>
      <use xlink:href="#DejaVuSans-57" transform="translate(309.453125 0)"/>
      <use xlink:href="#DejaVuSans-4b" transform="translate(348.65625 0)"/>
      <use xlink:href="#DejaVuSans-3" transform="translate(412.03125 0)"/>
      <use xlink:href="#DejaVuSans-b" transform="translate(443.8125 0)"/>
      <use xlink:href="#DejaVuSans-47" transform="translate(482.828125 0)"/>
      <use xlink:href="#DejaVuSans-48" transform="translate(546.3125 0)"/>
      <use xlink:href="#DejaVuSans-4a" transform="translate(607.84375 0)"/>
      <use xlink:href="#DejaVuSans-55" transform="translate(671.328125 0)"/>
      <use xlink:href="#DejaVuSans-48" transform="translate(710.234375 0)"/>
      <use xlink:href="#DejaVuSans-48" transform="translate(771.765625 0)"/>
      <use xlink:href="#DejaVuSans-56" transform="translate(833.296875 0)"/>
      <use xlink:href="#DejaVuSans-c" transform="translate(885.390625 0)"/>
     </g>
    </g>
   </g>
   <g id="matplotlib.axis_2">
    <g id="ytick_1">
     <g id="line2d_17">
      <path d="M 40.925781 354.958125 
L 598.925781 354.958125 
" clip-path="url(#p5d0007666e)" style="fill: none; stroke: #ffffff; stroke-width: 0.8; stroke-linecap: square"/>
     </g>
     <g id="line2d_18">
      <defs>
       <path id="md396c9ad6f" d="M 0 0 
L -3.5 0 
" style="stroke: #ffffff; stroke-width: 0.8"/>
      </defs>
      <g>
       <use xlink:href="#md396c9ad6f" x="40.925781" y="354.958125" style="fill: #ffffff; stroke: #ffffff; stroke-width: 0.8"/>
      </g>
     </g>
     <g id="text_10">
      <!-- 0 -->
      <g style="fill: #ffffff" transform="translate(27.563281 358.756953) scale(0.1 -0.1)">
       <use xlink:href="#DejaVuSans-13"/>
      </g>
     </g>
    </g>
    <g id="ytick_2">
     <g id="line2d_19">
      <path d="M 40.925781 299.518125 
L 598.925781 299.518125 
" clip-path="url(#p5d0007666e)" style="fill: none; stroke: #ffffff; stroke-width: 0.8; stroke-linecap: square"/>
     </g>
     <g id="line2d_20">
      <g>
       <use xlink:href="#md396c9ad6f" x="40.925781" y="299.518125" style="fill: #ffffff; stroke: #ffffff; stroke-width: 0.8"/>
      </g>
     </g>
     <g id="text_11">
      <!-- 15 -->
      <g style="fill: #ffffff" transform="translate(21.200781 303.316953) scale(0.1 -0.1)">
       <use xlink:href="#DejaVuSans-14"/>
       <use xlink:href="#DejaVuSans-18" transform="translate(63.625 0)"/>
      </g>
     </g>
    </g>
    <g id="ytick_3">
     <g id="line2d_21">
      <path d="M 40.925781 244.078125 
L 598.925781 244.078125 
" clip-path="url(#p5d0007666e)" style="fill: none; stroke: #ffffff; stroke-width: 0.8; stroke-linecap: square"/>
     </g>
     <g id="line2d_22">
      <g>
       <use xlink:href="#md396c9ad6f" x="40.925781" y="244.078125" style="fill: #ffffff; stroke: #ffffff; stroke-width: 0.8"/>
      </g>
     </g>
     <g id="text_12">
      <!-- 30 -->
      <g style="fill: #ffffff" transform="translate(21.200781 247.876953) scale(0.1 -0.1)">
       <use xlink:href="#DejaVuSans-16"/>
       <use xlink:href="#DejaVuSans-13" transform="translate(63.625 0)"/>
      </g>
     </g>
    </g>
    <g id="ytick_4">
     <g id="line2d_23">
      <path d="M 40.925781 188.638125 
L 598.925781 188.638125 
" clip-path="url(#p5d0007666e)" style="fill: none; stroke: #ffffff; stroke-width: 0.8; stroke-linecap: square"/>
     </g>
     <g id="line2d_24">
      <g>
       <use xlink:href="#md396c9ad6f" x="40.925781" y="188.638125" style="fill: #ffffff; stroke: #ffffff; stroke-width: 0.8"/>
      </g>
     </g>
     <g id="text_13">
      <!-- 45 -->
      <g style="fill: #ffffff" transform="translate(21.200781 192.436953) scale(0.1 -0.1)">
       <defs>
        <path id="DejaVuSans-17" d="M 2419 4116 
L 825 1625 
L 2419 1625 
L 2419 4116 
z
M 2253 4666 
L 3047 4666 
L 3047 1625 
L 3713 1625 
L 3713 1100 
L 3047 1100 
L 3047 0 
L 2419 0 
L 2419 1100 
L 313 1100 
L 313 1709 
L 2253 4666 
z
" transform="scale(0.015625)"/>
       </defs>
       <use xlink:href="#DejaVuSans-17"/>
       <use xlink:href="#DejaVuSans-18" transform="translate(63.625 0)"/>
      </g>
     </g>
    </g>
    <g id="ytick_5">
     <g id="line2d_25">
      <path d="M 40.925781 133.198125 
L 598.925781 133.198125 
" clip-path="url(#p5d0007666e)" style="fill: none; stroke: #ffffff; stroke-width: 0.8; stroke-linecap: square"/>
     </g>
     <g id="line2d_26">
      <g>
       <use xlink:href="#md396c9ad6f" x="40.925781" y="133.198125" style="fill: #ffffff; stroke: #ffffff; stroke-width: 0.8"/>
      </g>
     </g>
     <g id="text_14">
      <!-- 60 -->
      <g style="fill: #ffffff" transform="translate(21.200781 136.996953) scale(0.1 -0.1)">
       <defs>
        <path id="DejaVuSans-19" d="M 2113 2584 
Q 1688 2584 1439 2293 
Q 1191 2003 1191 1497 
Q 1191 994 1439 701 
Q 1688 409 2113 409 
Q 2538 409 2786 701 
Q 3034 994 3034 1497 
Q 3034 2003 2786 2293 
Q 2538 2584 2113 2584 
z
M 3366 4563 
L 3366 3988 
Q 3128 4100 2886 4159 
Q 2644 4219 2406 4219 
Q 1781 4219 1451 3797 
Q 1122 3375 1075 2522 
Q 1259 2794 1537 2939 
Q 1816 3084 2150 3084 
Q 2853 3084 3261 2657 
Q 3669 2231 3669 1497 
Q 3669 778 3244 343 
Q 2819 -91 2113 -91 
Q 1303 -91 875 529 
Q 447 1150 447 2328 
Q 447 3434 972 4092 
Q 1497 4750 2381 4750 
Q 2619 4750 2861 4703 
Q 3103 4656 3366 4563 
z
" transform="scale(0.015625)"/>
       </defs>
       <use xlink:href="#DejaVuSans-19"/>
       <use xlink:href="#DejaVuSans-13" transform="translate(63.625 0)"/>
      </g>
     </g>
    </g>
    <g id="ytick_6">
     <g id="line2d_27">
      <path d="M 40.925781 77.758125 
L 598.925781 77.758125 
" clip-path="url(#p5d0007666e)" style="fill: none; stroke: #ffffff; stroke-width: 0.8; stroke-linecap: square"/>
     </g>
     <g id="line2d_28">
      <g>
       <use xlink:href="#md396c9ad6f" x="40.925781" y="77.758125" style="fill: #ffffff; stroke: #ffffff; stroke-width: 0.8"/>
      </g>
     </g>
     <g id="text_15">
      <!-- 75 -->
      <g style="fill: #ffffff" transform="translate(21.200781 81.556953) scale(0.1 -0.1)">
       <defs>
        <path id="DejaVuSans-1a" d="M 525 4666 
L 3525 4666 
L 3525 4397 
L 1831 0 
L 1172 0 
L 2766 4134 
L 525 4134 
L 525 4666 
z
" transform="scale(0.015625)"/>
       </defs>
       <use xlink:href="#DejaVuSans-1a"/>
       <use xlink:href="#DejaVuSans-18" transform="translate(63.625 0)"/>
      </g>
     </g>
    </g>
    <g id="ytick_7">
     <g id="line2d_29">
      <path d="M 40.925781 22.318125 
L 598.925781 22.318125 
" clip-path="url(#p5d0007666e)" style="fill: none; stroke: #ffffff; stroke-width: 0.8; stroke-linecap: square"/>
     </g>
     <g id="line2d_30">
      <g>
       <use xlink:href="#md396c9ad6f" x="40.925781" y="22.318125" style="fill: #ffffff; stroke: #ffffff; stroke-width: 0.8"/>
      </g>
     </g>
     <g id="text_16">
      <!-- 90 -->
      <g style="fill: #ffffff" transform="translate(21.200781 26.116953) scale(0.1 -0.1)">
       <defs>
        <path id="DejaVuSans-1c" d="M 703 97 
L 703 672 
Q 941 559 1184 500 
Q 1428 441 1663 441 
Q 2288 441 2617 861 
Q 2947 1281 2994 2138 
Q 2813 1869 2534 1725 
Q 2256 1581 1919 1581 
Q 1219 1581 811 2004 
Q 403 2428 403 3163 
Q 403 3881 828 4315 
Q 1253 4750 1959 4750 
Q 2769 4750 3195 4129 
Q 3622 3509 3622 2328 
Q 3622 1225 3098 567 
Q 2575 -91 1691 -91 
Q 1453 -91 1209 -44 
Q 966 3 703 97 
z
M 1959 2075 
Q 2384 2075 2632 2365 
Q 2881 2656 2881 3163 
Q 2881 3666 2632 3958 
Q 2384 4250 1959 4250 
Q 1534 4250 1286 3958 
Q 1038 3666 1038 3163 
Q 1038 2656 1286 2365 
Q 1534 2075 1959 2075 
z
" transform="scale(0.015625)"/>
       </defs>
       <use xlink:href="#DejaVuSans-1c"/>
       <use xlink:href="#DejaVuSans-13" transform="translate(63.625 0)"/>
      </g>
     </g>
    </g>
    <g id="text_17">
     <!-- Elevation (degrees) -->
     <g style="fill: #ffffff" transform="translate(14.798437 237.482656) rotate(-90) scale(0.1 -0.1)">
      <defs>
       <path id="DejaVuSans-28" d="M 628 4666 
L 3578 4666 
L 3578 4134 
L 1259 4134 
L 1259 2753 
L 3481 2753 
L 3481 2222 
L 1259 2222 
L 1259 531 
L 3634 531 
L 3634 0 
L 628 0 
L 628 4666 
z
" transform="scale(0.015625)"/>
       <path id="DejaVuSans-4f" d="M 603 4863 
L 1178 4863 
L 1178 0 
L 603 0 
L 603 4863 
z
" transform="scale(0.015625)"/>
       <path id="DejaVuSans-59" d="M 191 3500 
L 800 3500 
L 1894 563 
L 2988 3500 
L 3597 3500 
L 2284 0 
L 1503 0 
L 191 3500 
z
" transform="scale(0.015625)"/>
       <path id="DejaVuSans-44" d="M 2194 1759 
Q 1497 1759 1228 1600 
Q 959 1441 959 1056 
Q 959 750 1161 570 
Q 1363 391 1709 391 
Q 2188 391 2477 730 
Q 2766 1069 2766 1631 
L 2766 1759 
L 2194 1759 
z
M 3341 1997 
L 3341 0 
L 2766 0 
L 2766 531 
Q 2569 213 2275 61 
Q 1981 -91 1556 -91 
Q 1019 -91 701 211 
Q 384 513 384 1019 
Q 384 1609 779 1909 
Q 1175 2209 1959 2209 
L 2766 2209 
L 2766 2266 
Q 2766 2663 2505 2880 
Q 2244 3097 1772 3097 
Q 1472 3097 1187 3025 
Q 903 2953 641 2809 
L 641 3341 
Q 956 3463 1253 3523 
Q 1550 3584 1831 3584 
Q 2591 3584 2966 3190 
Q 3341 2797 3341 1997 
z
" transform="scale(0.015625)"/>
       <path id="DejaVuSans-52" d="M 1959 3097 
Q 1497 3097 1228 2736 
Q 959 2375 959 1747 
Q 959 1119 1226 758 
Q 1494 397 1959 397 
Q 2419 397 2687 759 
Q 2956 1122 2956 1747 
Q 2956 2369 2687 2733 
Q 2419 3097 1959 3097 
z
M 1959 3584 
Q 2709 3584 3137 3096 
Q 3566 2609 3566 1747 
Q 3566 888 3137 398 
Q 2709 -91 1959 -91 
Q 1206 -91 779 398 
Q 353 888 353 1747 
Q 353 2609 779 3096 
Q 1206 3584 1959 3584 
z
" transform="scale(0.015625)"/>
       <path id="DejaVuSans-51" d="M 3513 2113 
L 3513 0 
L 2938 0 
L 2938 2094 
Q 2938 2591 2744 2837 
Q 2550 3084 2163 3084 
Q 1697 3084 1428 2787 
Q 1159 2491 1159 1978 
L 1159 0 
L 581 0 
L 581 3500 
L 1159 3500 
L 1159 2956 
Q 1366 3272 1645 3428 
Q 1925 3584 2291 3584 
Q 2894 3584 3203 3211 
Q 3513 2838 3513 2113 
z
" transform="scale(0.015625)"/>
      </defs>
      <use xlink:href="#DejaVuSans-28"/>
      <use xlink:href="#DejaVuSans-4f" transform="translate(63.1875 0)"/>
      <use xlink:href="#DejaVuSans-48" transform="translate(90.96875 0)"/>
      <use xlink:href="#DejaVuSans-59" transform="translate(152.5 0)"/>
      <use xlink:href="#DejaVuSans-44" transform="translate(211.6875 0)"/>
      <use xlink:href="#DejaVuSans-57" transform="translate(272.96875 0)"/>
      <use xlink:href="#DejaVuSans-4c" transform="translate(312.171875 0)"/>
      <use xlink:href="#DejaVuSans-52" transform="translate(339.953125 0)"/>
      <use xlink:href="#DejaVuSans-51" transform="translate(401.140625 0)"/>
      <use xlink:href="#DejaVuSans-3" transform="translate(464.515625 0)"/>
      <use xlink:href="#DejaVuSans-b" transform="translate(496.296875 0)"/>
      <use xlink:href="#DejaVuSans-47" transform="translate(535.3125 0)"/>
      <use xlink:href="#DejaVuSans-48" transform="translate(598.796875 0)"/>
      <use xlink:href="#DejaVuSans-4a" transform="translate(660.328125 0)"/>
      <use xlink:href="#DejaVuSans-55" transform="translate(723.8125 0)"/>
      <use xlink:href="#DejaVuSans-48" transform="translate(762.71875 0)"/>
      <use xlink:href="#DejaVuSans-48" transform="translate(824.25 0)"/>
      <use xlink:href="#DejaVuSans-56" transform="translate(885.78125 0)"/>
      <use xlink:href="#DejaVuSans-c" transform="translate(937.875 0)"/>
     </g>
    </g>
   </g>
   <g id="line2d_31">
    <path d="M 522.965678 345.828831 
L 522.754706 344.526204 
L 522.535706 343.199313 
L 522.308251 341.846956 
L 522.071883 340.467852 
L 521.826103 339.060602 
L 521.570381 337.623746 
L 521.304147 336.155726 
L 521.026779 334.65484 
L 520.737612 333.119301 
L 520.435928 331.547199 
L 520.120943 329.936445 
L 519.791811 328.284839 
L 519.447613 326.590006 
L 519.087353 324.849404 
L 518.709933 323.060259 
L 518.314168 321.219626 
L 517.898759 319.324336 
L 517.462273 317.37092 
L 517.003146 315.355685 
L 516.51966 313.274644 
L 516.009907 311.123436 
L 515.47179 308.897397 
L 514.902989 306.591486 
L 514.300912 304.200189 
L 513.662689 301.717598 
L 512.985113 299.137298 
L 512.264599 296.452372 
L 511.497108 293.655275 
L 510.678112 290.737924 
L 509.802502 287.691603 
L 508.864467 284.506859 
L 507.857431 281.173622 
L 506.773899 277.681135 
L 505.605272 274.017876 
L 504.341705 270.171778 
L 502.971866 266.130236 
L 501.482619 261.880165 
L 499.858765 257.408436 
L 498.082604 252.702118 
L 496.133492 247.749084 
L 493.987218 242.538611 
L 491.615436 237.062674 
L 488.984869 231.317282 
L 486.05639 225.304271 
L 482.78425 219.034139 
L 479.115173 212.529198 
L 474.987643 205.827517 
L 470.332035 198.988154 
L 465.071664 192.09654 
L 459.12583 185.269965 
L 452.41661 178.662588 
L 444.880055 172.467119 
L 436.483476 166.91136 
L 427.2473 162.245879 
L 417.267856 158.721225 
L 406.730363 156.554603 
L 395.901175 155.892925 
L 385.09471 156.783554 
L 374.62151 159.16399 
L 364.737846 162.875366 
L 355.616207 167.693513 
L 347.341048 173.365991 
L 339.923802 179.644233 
L 333.326099 186.304759 
L 327.481094 193.160127 
L 322.309926 200.061447 
L 317.73214 206.896182 
L 313.671922 213.582901 
L 310.060773 220.065772 
L 306.838354 226.30923 
L 303.952505 232.292857 
L 301.358477 238.007555 
L 299.018019 243.452489 
L 296.898602 248.632353 
L 294.972518 253.555649 
L 293.216091 258.233404 
L 291.60913 262.677931 
L 290.134314 266.902255 
L 288.776763 270.919538 
L 287.523612 274.742854 
L 286.363753 278.384769 
L 285.287536 281.857294 
L 284.286526 285.17188 
L 283.353366 288.33921 
L 282.481598 291.369276 
L 281.665516 294.271455 
L 280.900098 297.054388 
L 280.180891 299.726086 
L 279.503923 302.294027 
L 278.865666 304.765063 
L 278.262962 307.14555 
L 277.692986 309.441339 
L 277.153185 311.657893 
" clip-path="url(#p5d0007666e)" style="fill: none; stroke: #8dd3c7; stroke-width: 2; stroke-linecap: square"/>
   </g>
   <g id="line2d_32">
    <defs>
     <path id="m75f529f6a5" d="M 0 3 
C 0.795609 3 1.55874 2.683901 2.12132 2.12132 
C 2.683901 1.55874 3 0.795609 3 0 
C 3 -0.795609 2.683901 -1.55874 2.12132 -2.12132 
C 1.55874 -2.683901 0.795609 -3 0 -3 
C -0.795609 -3 -1.55874 -2.683901 -2.12132 -2.12132 
C -2.683901 -1.55874 -3 -0.795609 -3 0 
C -3 0.795609 -2.683901 1.55874 -2.12132 2.12132 
C -1.55874 2.683901 -0.795609 3 0 3 
z
" style="stroke: #feffb3"/>
    </defs>
    <g clip-path="url(#p5d0007666e)">
     <use xlink:href="#m75f529f6a5" x="522.965678" y="345.828831" style="fill: #feffb3; stroke: #feffb3"/>
    </g>
   </g>
   <g id="line2d_33">
    <defs>
     <path id="m4f7f93a504" d="M -3 3 
L 3 3 
L 3 -3 
L -3 -3 
z
" style="stroke: #bfbbd9; stroke-linejoin: miter"/>
    </defs>
    <g clip-path="url(#p5d0007666e)">
     <use xlink:href="#m4f7f93a504" x="277.153185" y="311.657893" style="fill: #bfbbd9; stroke: #bfbbd9; stroke-linejoin: miter"/>
    </g>
   </g>
   <g id="line2d_34">
    <path d="M 536.408364 351.695057 
L 536.537603 350.486125 
L 536.670212 349.257274 
L 536.806367 348.007533 
L 536.946254 346.7359 
L 537.09007 345.441309 
L 537.238031 344.122594 
L 537.390363 342.778551 
L 537.547314 341.407854 
L 537.709145 340.009119 
L 537.876139 338.580866 
L 538.048604 337.121475 
L 538.226867 335.629247 
L 538.411283 334.102357 
L 538.602241 332.53881 
L 538.800154 330.936511 
L 539.005478 329.293153 
L 539.218705 327.606289 
L 539.440369 325.873282 
L 539.671059 324.091238 
L 539.911414 322.257072 
L 540.162134 320.367445 
L 540.423991 318.418686 
L 540.69783 316.406879 
L 540.984589 314.327696 
L 541.285299 312.176481 
L 541.601102 309.948159 
L 541.933275 307.637134 
L 542.283234 305.237351 
L 542.652559 302.742183 
L 543.043031 300.144308 
L 543.456642 297.435783 
L 543.895653 294.607794 
L 544.362612 291.65072 
L 544.860419 288.55398 
L 545.392394 285.305843 
L 545.962335 281.893463 
L 546.574613 278.302687 
L 547.234305 274.517826 
L 547.947298 270.521725 
L 548.720504 266.295378 
L 549.562043 261.818018 
L 550.481535 257.066914 
L 551.490481 252.01717 
L 552.602683 246.641943 
L 553.834859 240.912429 
L 555.207475 234.797976 
L 556.745722 228.266918 
L 558.481032 221.287073 
L 560.452918 213.827542 
L 562.711666 205.860819 
L 565.32207 197.365996 
L 568.368459 188.3342 
L 571.961907 178.775804 
L 576.250245 168.730795 
L 581.431161 158.284385 
L 587.768989 147.587434 
L 595.610803 136.885623 
" clip-path="url(#p5d0007666e)" style="fill: none; stroke: #fa8174; stroke-width: 2; stroke-linecap: square"/>
   </g>
   <g id="line2d_35">
    <path d="M 47.390284 126.555537 
L 59.585629 117.142574 
L 74.563997 109.377646 
L 92.250901 104.113411 
L 111.745418 102.109131 
L 131.350823 103.703289 
L 149.315476 108.625922 
L 164.628838 116.150352 
L 177.136634 125.42044 
L 187.174953 135.685355 
L 195.219786 146.377337 
L 201.713701 157.101433 
L 207.01438 167.598506 
L 211.39496 177.707614 
L 215.060186 187.337135 
L 218.162913 196.442315 
L 220.817963 205.009833 
L 223.112453 213.046903 
L 225.113123 220.573145 
L 226.87175 227.615501 
L 228.429001 234.204809 
L 229.817098 240.373039 
L 231.061926 246.152192 
L 232.184418 251.572999 
L 233.201687 256.664537 
L 234.127866 261.45405 
L 234.974681 265.9666 
L 235.751952 270.2252 
L 236.467977 274.250978 
L 237.129776 278.063052 
L 237.743367 281.678922 
L 238.313899 285.114394 
L 238.845822 288.383809 
L 239.343006 291.500258 
L 239.80881 294.475523 
L 240.246189 297.320396 
L 240.65773 300.044616 
L 241.045716 302.657044 
L 241.41218 305.165806 
L 241.758917 307.578253 
L 242.087531 309.901091 
L 242.399462 312.140506 
L 242.695993 314.302086 
L 242.978289 316.391016 
L 243.247391 318.412007 
L 243.504243 320.369384 
L 243.749707 322.267172 
L 243.984557 324.109032 
L 244.209502 325.898343 
" clip-path="url(#p5d0007666e)" style="fill: none; stroke: #81b1d2; stroke-width: 2; stroke-linecap: square"/>
   </g>
   <g id="line2d_36">
    <defs>
     <path id="md1a218d713" d="M 0 3 
C 0.795609 3 1.55874 2.683901 2.12132 2.12132 
C 2.683901 1.55874 3 0.795609 3 0 
C 3 -0.795609 2.683901 -1.55874 2.12132 -2.12132 
C 1.55874 -2.683901 0.795609 -3 0 -3 
C -0.795609 -3 -1.55874 -2.683901 -2.12132 -2.12132 
C -2.683901 -1.55874 -3 -0.795609 -3 0 
C -3 0.795609 -2.683901 1.55874 -2.12132 2.12132 
C -1.55874 2.683901 -0.795609 3 0 3 
z
" style="stroke: #fdb462"/>
    </defs>
    <g clip-path="url(#p5d0007666e)">
     <use xlink:href="#md1a218d713" x="536.408364" y="351.695057" style="fill: #fdb462; stroke: #fdb462"/>
    </g>
   </g>
   <g id="line2d_37">
    <defs>
     <path id="m6a32685c02" d="M -3 3 
L 3 3 
L 3 -3 
L -3 -3 
z
" style="stroke: #b3de69; stroke-linejoin: miter"/>
    </defs>
    <g clip-path="url(#p5d0007666e)">
     <use xlink:href="#m6a32685c02" x="244.209502" y="325.898343" style="fill: #b3de69; stroke: #b3de69; stroke-linejoin: miter"/>
    </g>
   </g>
   <g id="line2d_38">
    <path d="M 548.356367 350.509193 
L 548.78475 349.336344 
L 549.225633 348.145902 
L 549.679612 346.937144 
L 550.147323 345.709297 
L 550.629441 344.461552 
L 551.126685 343.193055 
L 551.63982 341.902911 
L 552.169662 340.590177 
L 552.71708 339.253863 
L 553.283004 337.892928 
L 553.868425 336.506275 
L 554.474404 335.092756 
L 555.102075 333.651161 
L 555.752653 332.180221 
L 556.427441 330.678606 
L 557.127837 329.144918 
L 557.85534 327.577696 
L 558.611563 325.975409 
L 559.398239 324.33646 
L 560.217235 322.659181 
L 561.070562 320.941839 
L 561.960386 319.182632 
L 562.889047 317.379698 
L 563.859067 315.531117 
L 564.873174 313.63492 
L 565.934315 311.689098 
L 567.045678 309.691617 
L 568.21071 307.640436 
L 569.433142 305.53353 
L 570.71701 303.36892 
L 572.066684 301.144711 
L 573.486887 298.859139 
L 574.982727 296.51063 
L 576.559721 294.097871 
L 578.223817 291.619895 
L 579.98142 289.076193 
L 581.839408 286.466833 
L 583.805142 283.792616 
L 585.886472 281.055251 
L 588.091717 278.257565 
L 590.429644 275.403733 
L 592.909402 272.499552 
L 595.540437 269.552734 
L 598.332362 266.57322 
" clip-path="url(#p5d0007666e)" style="fill: none; stroke: #bc82bd; stroke-width: 2; stroke-linecap: square"/>
   </g>
   <g id="line2d_39">
    <path d="M 43.294769 263.573516 
L 46.436982 260.569014 
L 49.767739 257.578295 
L 53.294782 254.623359 
L 57.02437 251.72977 
L 60.960696 248.926634 
L 65.105242 246.246387 
L 69.456088 243.724314 
L 74.007225 241.39777 
L 78.747946 239.30508 
L 83.66239 237.484117 
L 88.729337 235.970635 
L 93.922337 234.796447 
L 99.210232 233.987619 
L 104.558076 233.562848 
L 109.928427 233.53224 
L 115.282878 233.896612 
L 120.5837 234.647438 
L 125.795405 235.76743 
L 130.886087 237.231688 
L 135.828417 239.009254 
L 140.600231 241.064909 
L 145.18473 243.360998 
L 149.570324 245.859141 
L 153.750216 248.5217 
L 157.721814 251.31294 
L 161.48605 254.199867 
L 165.046687 257.152751 
L 168.409665 260.145392 
L 171.582501 263.155163 
L 174.573789 266.162897 
L 177.392776 269.152664 
L 180.049028 272.111477 
L 182.552167 275.028976 
L 184.91168 277.897088 
L 187.136777 280.709713 
L 189.236295 283.462422 
L 191.218637 286.15218 
L 193.091736 288.777112 
L 194.86304 291.336281 
L 196.539511 293.829514 
L 198.127637 296.257241 
L 199.633445 298.620369 
L 201.062525 300.920167 
L 202.420056 303.15818 
L 203.710828 305.336154 
L 204.939269 307.455973 
L 206.109473 309.519614 
L 207.225224 311.529103 
L 208.290017 313.486491 
L 209.307084 315.393819 
L 210.279412 317.25311 
L 211.209766 319.066348 
L 212.100704 320.835467 
L 212.954597 322.562346 
L 213.773641 324.248801 
L 214.559872 325.896585 
L 215.315181 327.507379 
L 216.041326 329.082799 
L 216.739937 330.62439 
L 217.412535 332.13363 
" clip-path="url(#p5d0007666e)" style="fill: none; stroke: #ccebc4; stroke-width: 2; stroke-linecap: square"/>
   </g>
   <g id="line2d_40">
    <defs>
     <path id="m45028ceb41" d="M 0 3 
C 0.795609 3 1.55874 2.683901 2.12132 2.12132 
C 2.683901 1.55874 3 0.795609 3 0 
C 3 -0.795609 2.683901 -1.55874 2.12132 -2.12132 
C 1.55874 -2.683901 0.795609 -3 0 -3 
C -0.795609 -3 -1.55874 -2.683901 -2.12132 -2.12132 
C -2.683901 -1.55874 -3 -0.795609 -3 0 
C -3 0.795609 -2.683901 1.55874 -2.12132 2.12132 
C -1.55874 2.683901 -0.795609 3 0 3 
z
" style="stroke: #ffed6f"/>
    </defs>
    <g clip-path="url(#p5d0007666e)">
     <use xlink:href="#m45028ceb41" x="548.356367" y="350.509193" style="fill: #ffed6f; stroke: #ffed6f"/>
    </g>
   </g>
   <g id="line2d_41">
    <defs>
     <path id="m9c7a35dc05" d="M -3 3 
L 3 3 
L 3 -3 
L -3 -3 
z
" style="stroke: #8dd3c7; stroke-linejoin: miter"/>
    </defs>
    <g clip-path="url(#p5d0007666e)">
     <use xlink:href="#m9c7a35dc05" x="217.412535" y="332.13363" style="fill: #8dd3c7; stroke: #8dd3c7; stroke-linejoin: miter"/>
    </g>
   </g>
   <g id="patch_3">
    <path d="M 40.925781 354.958125 
L 40.925781 22.318125 
" style="fill: none; stroke: #ffffff; stroke-width: 0.8; stroke-linejoin: miter; stroke-linecap: square"/>
   </g>
   <g id="patch_4">
    <path d="M 598.925781 354.958125 
L 598.925781 22.318125 
" style="fill: none; stroke: #ffffff; stroke-width: 0.8; stroke-linejoin: miter; stroke-linecap: square"/>
   </g>
   <g id="patch_5">
    <path d="M 40.925781 354.958125 
L 598.925781 354.958125 
" style="fill: none; stroke: #ffffff; stroke-width: 0.8; stroke-linejoin: miter; stroke-linecap: square"/>
   </g>
   <g id="patch_6">
    <path d="M 40.925781 22.318125 
L 598.925781 22.318125 
" style="fill: none; stroke: #ffffff; stroke-width: 0.8; stroke-linejoin: miter; stroke-linecap: square"/>
   </g>
   <g id="text_18">
    <!-- Elevation vs Azimuth -->
    <g style="fill: #ffffff" transform="translate(256.842344 16.318125) scale(0.12 -0.12)">
     <use xlink:href="#DejaVuSans-28"/>
     <use xlink:href="#DejaVuSans-4f" transform="translate(63.1875 0)"/>
     <use xlink:href="#DejaVuSans-48" transform="translate(90.96875 0)"/>
     <use xlink:href="#DejaVuSans-59" transform="translate(152.5 0)"/>
     <use xlink:href="#DejaVuSans-44" transform="translate(211.6875 0)"/>
     <use xlink:href="#DejaVuSans-57" transform="translate(272.96875 0)"/>
     <use xlink:href="#DejaVuSans-4c" transform="translate(312.171875 0)"/>
     <use xlink:href="#DejaVuSans-52" transform="translate(339.953125 0)"/>
     <use xlink:href="#DejaVuSans-51" transform="translate(401.140625 0)"/>
     <use xlink:href="#DejaVuSans-3" transform="translate(464.515625 0)"/>
     <use xlink:href="#DejaVuSans-59" transform="translate(496.296875 0)"/>
     <use xlink:href="#DejaVuSans-56" transform="translate(555.484375 0)"/>
     <use xlink:href="#DejaVuSans-3" transform="translate(607.578125 0)"/>
     <use xlink:href="#DejaVuSans-24" transform="translate(639.359375 0)"/>
     <use xlink:href="#DejaVuSans-5d" transform="translate(707.765625 0)"/>
     <use xlink:href="#DejaVuSans-4c" transform="translate(760.25 0)"/>
     <use xlink:href="#DejaVuSans-50" transform="translate(788.03125 0)"/>
     <use xlink:href="#DejaVuSans-58" transform="translate(885.4375 0)"/>
     <use xlink:href="#DejaVuSans-57" transform="translate(948.8125 0)"/>
     <use xlink:href="#DejaVuSans-4b" transform="translate(988.015625 0)"/>
    </g>
   </g>
   <g id="legend_1">
    <g id="patch_7">
     <path d="M 484.539844 90.32125 
L 591.925781 90.32125 
Q 593.925781 90.32125 593.925781 88.32125 
L 593.925781 29.318125 
Q 593.925781 27.318125 591.925781 27.318125 
L 484.539844 27.318125 
Q 482.539844 27.318125 482.539844 29.318125 
L 482.539844 88.32125 
Q 482.539844 90.32125 484.539844 90.32125 
z
" style="opacity: 0.8; stroke: #cccccc; stroke-linejoin: miter"/>
    </g>
    <g id="patch_8">
     <path d="M 486.539844 38.916562 
L 506.539844 38.916562 
L 506.539844 31.916562 
L 486.539844 31.916562 
z
" style="fill: #808080; fill-opacity: 0.2; stroke: #808080; stroke-opacity: 0.2; stroke-linejoin: miter"/>
    </g>
    <g id="text_19">
     <!-- Elevation Mask -->
     <g style="fill: #ffffff" transform="translate(514.539844 38.916562) scale(0.1 -0.1)">
      <defs>
       <path id="DejaVuSans-30" d="M 628 4666 
L 1569 4666 
L 2759 1491 
L 3956 4666 
L 4897 4666 
L 4897 0 
L 4281 0 
L 4281 4097 
L 3078 897 
L 2444 897 
L 1241 4097 
L 1241 0 
L 628 0 
L 628 4666 
z
" transform="scale(0.015625)"/>
       <path id="DejaVuSans-4e" d="M 581 4863 
L 1159 4863 
L 1159 1991 
L 2875 3500 
L 3609 3500 
L 1753 1863 
L 3688 0 
L 2938 0 
L 1159 1709 
L 1159 0 
L 581 0 
L 581 4863 
z
" transform="scale(0.015625)"/>
      </defs>
      <use xlink:href="#DejaVuSans-28"/>
      <use xlink:href="#DejaVuSans-4f" transform="translate(63.1875 0)"/>
      <use xlink:href="#DejaVuSans-48" transform="translate(90.96875 0)"/>
      <use xlink:href="#DejaVuSans-59" transform="translate(152.5 0)"/>
      <use xlink:href="#DejaVuSans-44" transform="translate(211.6875 0)"/>
      <use xlink:href="#DejaVuSans-57" transform="translate(272.96875 0)"/>
      <use xlink:href="#DejaVuSans-4c" transform="translate(312.171875 0)"/>
      <use xlink:href="#DejaVuSans-52" transform="translate(339.953125 0)"/>
      <use xlink:href="#DejaVuSans-51" transform="translate(401.140625 0)"/>
      <use xlink:href="#DejaVuSans-3" transform="translate(464.515625 0)"/>
      <use xlink:href="#DejaVuSans-30" transform="translate(496.296875 0)"/>
      <use xlink:href="#DejaVuSans-44" transform="translate(582.578125 0)"/>
      <use xlink:href="#DejaVuSans-56" transform="translate(643.859375 0)"/>
      <use xlink:href="#DejaVuSans-4e" transform="translate(695.953125 0)"/>
     </g>
    </g>
    <g id="line2d_42">
     <path d="M 486.539844 50.417344 
L 496.539844 50.417344 
L 506.539844 50.417344 
" style="fill: none; stroke: #8dd3c7; stroke-width: 2; stroke-linecap: square"/>
    </g>
    <g id="text_20">
     <!-- Pass 1 -->
     <g style="fill: #ffffff" transform="translate(514.539844 53.917344) scale(0.1 -0.1)">
      <defs>
       <path id="DejaVuSans-33" d="M 1259 4147 
L 1259 2394 
L 2053 2394 
Q 2494 2394 2734 2622 
Q 2975 2850 2975 3272 
Q 2975 3691 2734 3919 
Q 2494 4147 2053 4147 
L 1259 4147 
z
M 628 4666 
L 2053 4666 
Q 2838 4666 3239 4311 
Q 3641 3956 3641 3272 
Q 3641 2581 3239 2228 
Q 2838 1875 2053 1875 
L 1259 1875 
L 1259 0 
L 628 0 
L 628 4666 
z
" transform="scale(0.015625)"/>
      </defs>
      <use xlink:href="#DejaVuSans-33"/>
      <use xlink:href="#DejaVuSans-44" transform="translate(55.8125 0)"/>
      <use xlink:href="#DejaVuSans-56" transform="translate(117.09375 0)"/>
      <use xlink:href="#DejaVuSans-56" transform="translate(169.1875 0)"/>
      <use xlink:href="#DejaVuSans-3" transform="translate(221.28125 0)"/>
      <use xlink:href="#DejaVuSans-14" transform="translate(253.0625 0)"/>
     </g>
    </g>
    <g id="line2d_43">
     <path d="M 486.539844 65.418125 
L 496.539844 65.418125 
L 506.539844 65.418125 
" style="fill: none; stroke: #fa8174; stroke-width: 2; stroke-linecap: square"/>
    </g>
    <g id="text_21">
     <!-- Pass 2 -->
     <g style="fill: #ffffff" transform="translate(514.539844 68.918125) scale(0.1 -0.1)">
      <use xlink:href="#DejaVuSans-33"/>
      <use xlink:href="#DejaVuSans-44" transform="translate(55.8125 0)"/>
      <use xlink:href="#DejaVuSans-56" transform="translate(117.09375 0)"/>
      <use xlink:href="#DejaVuSans-56" transform="translate(169.1875 0)"/>
      <use xlink:href="#DejaVuSans-3" transform="translate(221.28125 0)"/>
      <use xlink:href="#DejaVuSans-15" transform="translate(253.0625 0)"/>
     </g>
    </g>
    <g id="line2d_44">
     <path d="M 486.539844 80.418906 
L 496.539844 80.418906 
L 506.539844 80.418906 
" style="fill: none; stroke: #bc82bd; stroke-width: 2; stroke-linecap: square"/>
    </g>
    <g id="text_22">
     <!-- Pass 3 -->
     <g style="fill: #ffffff" transform="translate(514.539844 83.918906) scale(0.1 -0.1)">
      <use xlink:href="#DejaVuSans-33"/>
      <use xlink:href="#DejaVuSans-44" transform="translate(55.8125 0)"/>
      <use xlink:href="#DejaVuSans-56" transform="translate(117.09375 0)"/>
      <use xlink:href="#DejaVuSans-56" transform="translate(169.1875 0)"/>
      <use xlink:href="#DejaVuSans-3" transform="translate(221.28125 0)"/>
      <use xlink:href="#DejaVuSans-16" transform="translate(253.0625 0)"/>
     </g>
    </g>
   </g>
  </g>
 </g>
 <defs>
  <clipPath id="p5d0007666e">
   <rect x="40.925781" y="22.318125" width="558" height="332.64"/>
  </clipPath>
 </defs>
</svg>
