<?xml version="1.0" encoding="utf-8" standalone="no"?>
<!DOCTYPE svg PUBLIC "-//W3C//DTD SVG 1.1//EN"
  "http://www.w3.org/Graphics/SVG/1.1/DTD/svg11.dtd">
<svg xmlns:xlink="http://www.w3.org/1999/xlink" width="607.876608pt" height="379.535625pt" viewBox="0 0 607.876608 379.535625" xmlns="http://www.w3.org/2000/svg" version="1.1">
 <metadata>
  <rdf:RDF xmlns:dc="http://purl.org/dc/elements/1.1/" xmlns:cc="http://creativecommons.org/ns#" xmlns:rdf="http://www.w3.org/1999/02/22-rdf-syntax-ns#">
   <cc:Work>
    <dc:type rdf:resource="http://purl.org/dc/dcmitype/StillImage"/>
    <dc:date>2026-03-04T05:28:05.147420</dc:date>
    <dc:format>image/svg+xml</dc:format>
    <dc:creator>
     <cc:Agent>
      <dc:title>Matplotlib v3.10.8, https://matplotlib.org/</dc:title>
     </cc:Agent>
    </dc:creator>
   </cc:Work>
  </rdf:RDF>
 </metadata>
 <defs>
  <style type="text/css">*{stroke-linejoin: round; stroke-linecap: butt}</style>
 </defs>
 <g id="figure_1">
  <g id="patch_1">
   <path d="M 0 379.535625 
L 607.876608 379.535625 
L 607.876608 0 
L 0 0 
z
" style="fill: #1c1e24"/>
  </g>
  <g id="axes_1">
   <g id="patch_2">
    <path d="M 30.109375 350.435625 
L 588.109375 350.435625 
L 588.109375 17.795625 
L 30.109375 17.795625 
z
" style="fill: #1c1e24"/>
   </g>
   <g id="matplotlib.axis_1">
    <g id="xtick_1">
     <g id="line2d_1">
      <path d="M 106.326063 350.435625 
L 106.326063 17.795625 
" clip-path="url(#pdda526ae9e)" style="fill: none; stroke: #ffffff; stroke-width: 0.5; stroke-linecap: square"/>
     </g>
     <g id="line2d_2">
      <defs>
       <path id="mc629f4ce13" d="M 0 0 
L 0 -3 
" style="stroke: #ffffff; stroke-width: 0.5"/>
      </defs>
      <g>
       <use xlink:href="#mc629f4ce13" x="106.326063" y="350.435625" style="fill: #ffffff; stroke: #ffffff; stroke-width: 0.5"/>
      </g>
     </g>
     <g id="line2d_3">
      <defs>
       <path id="m3f013fe314" d="M 0 0 
L 0 3 
" style="stroke: #ffffff; stroke-width: 0.5"/>
      </defs>
      <g>
       <use xlink:href="#m3f013fe314" x="106.326063" y="17.795625" style="fill: #ffffff; stroke: #ffffff; stroke-width: 0.5"/>
      </g>
     </g>
     <g id="text_1">
      <!-- 02 19:23 -->
      <g style="fill: #ffffff" transform="translate(88.686219 360.765312) scale(0.1 -0.1)">
       <defs>
        <path id="STIXGeneral-Regular-30" d="M 3046 2112 
Q 3046 1683 2963 1302 
Q 2880 922 2717 602 
Q 2554 282 2266 96 
Q 1978 -90 1600 -90 
Q 1210 -90 915 108 
Q 621 307 461 640 
Q 301 973 227 1350 
Q 154 1728 154 2150 
Q 154 2746 301 3222 
Q 448 3699 790 4012 
Q 1133 4326 1626 4326 
Q 2253 4326 2649 3712 
Q 3046 3098 3046 2112 
z
M 2432 2080 
Q 2432 3091 2217 3625 
Q 2003 4160 1587 4160 
Q 1190 4160 979 3622 
Q 768 3085 768 2106 
Q 768 1120 979 598 
Q 1190 77 1600 77 
Q 2003 77 2217 598 
Q 2432 1120 2432 2080 
z
" transform="scale(0.015625)"/>
        <path id="STIXGeneral-Regular-32" d="M 3034 877 
L 2688 0 
L 186 0 
L 186 77 
L 1325 1286 
Q 1773 1754 1965 2144 
Q 2157 2534 2157 2950 
Q 2157 3379 1920 3616 
Q 1683 3853 1267 3853 
Q 922 3853 720 3673 
Q 518 3494 326 3021 
L 192 3053 
Q 301 3648 630 3987 
Q 960 4326 1523 4326 
Q 2054 4326 2380 4006 
Q 2707 3686 2707 3200 
Q 2707 2477 1888 1613 
L 832 486 
L 2330 486 
Q 2541 486 2665 569 
Q 2790 653 2944 915 
L 3034 877 
z
" transform="scale(0.015625)"/>
        <path id="STIXGeneral-Regular-20" transform="scale(0.015625)"/>
        <path id="STIXGeneral-Regular-31" d="M 2522 0 
L 755 0 
L 755 96 
Q 1107 115 1235 227 
Q 1363 339 1363 608 
L 1363 3482 
Q 1363 3795 1171 3795 
Q 1082 3795 883 3718 
L 710 3654 
L 710 3744 
L 1856 4326 
L 1914 4307 
L 1914 486 
Q 1914 275 2042 185 
Q 2170 96 2522 96 
L 2522 0 
z
" transform="scale(0.015625)"/>
        <path id="STIXGeneral-Regular-39" d="M 378 -141 
L 358 -13 
Q 1094 115 1603 608 
Q 2112 1101 2304 1882 
Q 1933 1517 1344 1517 
Q 826 1517 509 1875 
Q 192 2234 192 2816 
Q 192 3462 573 3894 
Q 954 4326 1523 4326 
Q 2131 4326 2528 3840 
Q 2938 3328 2938 2522 
Q 2938 1958 2742 1462 
Q 2547 966 2170 621 
Q 1773 262 1395 105 
Q 1018 -51 378 -141 
z
M 2317 2272 
L 2317 2522 
Q 2317 4147 1472 4147 
Q 1171 4147 1005 3930 
Q 909 3802 845 3546 
Q 781 3290 781 3034 
Q 781 2464 995 2128 
Q 1210 1792 1568 1792 
Q 1824 1792 2070 1917 
Q 2317 2042 2317 2272 
z
" transform="scale(0.015625)"/>
        <path id="STIXGeneral-Regular-3a" d="M 1123 2832 
Q 1229 2726 1229 2579 
Q 1229 2432 1126 2329 
Q 1024 2227 877 2227 
Q 730 2227 624 2332 
Q 518 2438 518 2579 
Q 518 2733 620 2835 
Q 723 2938 877 2938 
Q 1018 2938 1123 2832 
z
M 1229 282 
Q 1229 141 1126 35 
Q 1024 -70 877 -70 
Q 730 -70 624 35 
Q 518 141 518 282 
Q 518 435 620 537 
Q 723 640 877 640 
Q 1018 640 1123 534 
Q 1229 429 1229 282 
z
" transform="scale(0.015625)"/>
        <path id="STIXGeneral-Regular-33" d="M 390 3264 
L 288 3290 
Q 435 3770 748 4048 
Q 1062 4326 1542 4326 
Q 1990 4326 2265 4083 
Q 2541 3840 2541 3450 
Q 2541 2925 1946 2566 
Q 2298 2413 2477 2227 
Q 2758 1914 2758 1402 
Q 2758 890 2464 506 
Q 2246 211 1840 60 
Q 1434 -90 979 -90 
Q 262 -90 262 275 
Q 262 378 339 442 
Q 416 506 525 506 
Q 685 506 915 339 
Q 1197 141 1466 141 
Q 1818 141 2058 425 
Q 2298 710 2298 1120 
Q 2298 1856 1632 2048 
Q 1434 2112 979 2112 
L 979 2202 
Q 1338 2323 1517 2432 
Q 2035 2726 2035 3290 
Q 2035 3610 1852 3776 
Q 1670 3942 1344 3942 
Q 768 3942 390 3264 
z
" transform="scale(0.015625)"/>
       </defs>
       <use xlink:href="#STIXGeneral-Regular-30"/>
       <use xlink:href="#STIXGeneral-Regular-32" transform="translate(49.999985 0)"/>
       <use xlink:href="#STIXGeneral-Regular-20" transform="translate(99.999969 0)"/>
       <use xlink:href="#STIXGeneral-Regular-31" transform="translate(124.999954 0)"/>
       <use xlink:href="#STIXGeneral-Regular-39" transform="translate(174.999939 0)"/>
       <use xlink:href="#STIXGeneral-Regular-3a" transform="translate(224.999924 0)"/>
       <use xlink:href="#STIXGeneral-Regular-32" transform="translate(252.799911 0)"/>
       <use xlink:href="#STIXGeneral-Regular-33" transform="translate(302.799896 0)"/>
      </g>
     </g>
    </g>
    <g id="xtick_2">
     <g id="line2d_4">
      <path d="M 186.377847 350.435625 
L 186.377847 17.795625 
" clip-path="url(#pdda526ae9e)" style="fill: none; stroke: #ffffff; stroke-width: 0.5; stroke-linecap: square"/>
     </g>
     <g id="line2d_5">
      <g>
       <use xlink:href="#mc629f4ce13" x="186.377847" y="350.435625" style="fill: #ffffff; stroke: #ffffff; stroke-width: 0.5"/>
      </g>
     </g>
     <g id="line2d_6">
      <g>
       <use xlink:href="#m3f013fe314" x="186.377847" y="17.795625" style="fill: #ffffff; stroke: #ffffff; stroke-width: 0.5"/>
      </g>
     </g>
     <g id="text_2">
      <!-- 02 19:24 -->
      <g style="fill: #ffffff" transform="translate(168.738003 360.765312) scale(0.1 -0.1)">
       <defs>
        <path id="STIXGeneral-Regular-34" d="M 3027 1069 
L 2368 1069 
L 2368 0 
L 1869 0 
L 1869 1069 
L 77 1069 
L 77 1478 
L 2086 4326 
L 2368 4326 
L 2368 1478 
L 3027 1478 
L 3027 1069 
z
M 1869 1478 
L 1869 3674 
L 333 1478 
L 1869 1478 
z
" transform="scale(0.015625)"/>
       </defs>
       <use xlink:href="#STIXGeneral-Regular-30"/>
       <use xlink:href="#STIXGeneral-Regular-32" transform="translate(49.999985 0)"/>
       <use xlink:href="#STIXGeneral-Regular-20" transform="translate(99.999969 0)"/>
       <use xlink:href="#STIXGeneral-Regular-31" transform="translate(124.999954 0)"/>
       <use xlink:href="#STIXGeneral-Regular-39" transform="translate(174.999939 0)"/>
       <use xlink:href="#STIXGeneral-Regular-3a" transform="translate(224.999924 0)"/>
       <use xlink:href="#STIXGeneral-Regular-32" transform="translate(252.799911 0)"/>
       <use xlink:href="#STIXGeneral-Regular-34" transform="translate(302.799896 0)"/>
      </g>
     </g>
    </g>
    <g id="xtick_3">
     <g id="line2d_7">
      <path d="M 266.42963 350.435625 
L 266.42963 17.795625 
" clip-path="url(#pdda526ae9e)" style="fill: none; stroke: #ffffff; stroke-width: 0.5; stroke-linecap: square"/>
     </g>
     <g id="line2d_8">
      <g>
       <use xlink:href="#mc629f4ce13" x="266.42963" y="350.435625" style="fill: #ffffff; stroke: #ffffff; stroke-width: 0.5"/>
      </g>
     </g>
     <g id="line2d_9">
      <g>
       <use xlink:href="#m3f013fe314" x="266.42963" y="17.795625" style="fill: #ffffff; stroke: #ffffff; stroke-width: 0.5"/>
      </g>
     </g>
     <g id="text_3">
      <!-- 02 19:25 -->
      <g style="fill: #ffffff" transform="translate(248.789786 360.765312) scale(0.1 -0.1)">
       <defs>
        <path id="STIXGeneral-Regular-35" d="M 2803 4358 
L 2573 3814 
Q 2534 3731 2400 3731 
L 1158 3731 
L 902 3187 
Q 1606 3053 1920 2896 
Q 2234 2739 2502 2368 
Q 2726 2061 2726 1555 
Q 2726 1094 2576 780 
Q 2426 467 2099 224 
Q 1664 -90 1011 -90 
Q 646 -90 422 19 
Q 198 128 198 307 
Q 198 550 486 550 
Q 717 550 960 352 
Q 1210 147 1414 147 
Q 1747 147 2012 480 
Q 2278 813 2278 1229 
Q 2278 1843 1850 2189 
Q 1293 2637 486 2637 
Q 410 2637 410 2688 
L 416 2720 
L 1114 4237 
L 2438 4237 
Q 2547 4237 2608 4269 
Q 2669 4301 2746 4403 
L 2803 4358 
z
" transform="scale(0.015625)"/>
       </defs>
       <use xlink:href="#STIXGeneral-Regular-30"/>
       <use xlink:href="#STIXGeneral-Regular-32" transform="translate(49.999985 0)"/>
       <use xlink:href="#STIXGeneral-Regular-20" transform="translate(99.999969 0)"/>
       <use xlink:href="#STIXGeneral-Regular-31" transform="translate(124.999954 0)"/>
       <use xlink:href="#STIXGeneral-Regular-39" transform="translate(174.999939 0)"/>
       <use xlink:href="#STIXGeneral-Regular-3a" transform="translate(224.999924 0)"/>
       <use xlink:href="#STIXGeneral-Regular-32" transform="translate(252.799911 0)"/>
       <use xlink:href="#STIXGeneral-Regular-35" transform="translate(302.799896 0)"/>
      </g>
     </g>
    </g>
    <g id="xtick_4">
     <g id="line2d_10">
      <path d="M 346.481413 350.435625 
L 346.481413 17.795625 
" clip-path="url(#pdda526ae9e)" style="fill: none; stroke: #ffffff; stroke-width: 0.5; stroke-linecap: square"/>
     </g>
     <g id="line2d_11">
      <g>
       <use xlink:href="#mc629f4ce13" x="346.481413" y="350.435625" style="fill: #ffffff; stroke: #ffffff; stroke-width: 0.5"/>
      </g>
     </g>
     <g id="line2d_12">
      <g>
       <use xlink:href="#m3f013fe314" x="346.481413" y="17.795625" style="fill: #ffffff; stroke: #ffffff; stroke-width: 0.5"/>
      </g>
     </g>
     <g id="text_4">
      <!-- 02 19:26 -->
      <g style="fill: #ffffff" transform="translate(328.84157 360.765312) scale(0.1 -0.1)">
       <defs>
        <path id="STIXGeneral-Regular-36" d="M 2854 4378 
L 2867 4275 
Q 2112 4154 1606 3664 
Q 1101 3174 973 2451 
Q 1344 2739 1786 2739 
Q 2349 2739 2672 2380 
Q 2995 2022 2995 1402 
Q 2995 774 2669 378 
Q 2291 -90 1651 -90 
Q 870 -90 518 557 
Q 218 1107 218 1786 
Q 218 2835 915 3552 
Q 1312 3962 1731 4131 
Q 2150 4301 2854 4378 
z
M 2419 1203 
Q 2419 2445 1555 2445 
Q 1235 2445 1024 2275 
Q 813 2106 813 1702 
Q 813 954 1046 522 
Q 1280 90 1722 90 
Q 2061 90 2240 394 
Q 2419 698 2419 1203 
z
" transform="scale(0.015625)"/>
       </defs>
       <use xlink:href="#STIXGeneral-Regular-30"/>
       <use xlink:href="#STIXGeneral-Regular-32" transform="translate(49.999985 0)"/>
       <use xlink:href="#STIXGeneral-Regular-20" transform="translate(99.999969 0)"/>
       <use xlink:href="#STIXGeneral-Regular-31" transform="translate(124.999954 0)"/>
       <use xlink:href="#STIXGeneral-Regular-39" transform="translate(174.999939 0)"/>
       <use xlink:href="#STIXGeneral-Regular-3a" transform="translate(224.999924 0)"/>
       <use xlink:href="#STIXGeneral-Regular-32" transform="translate(252.799911 0)"/>
       <use xlink:href="#STIXGeneral-Regular-36" transform="translate(302.799896 0)"/>
      </g>
     </g>
    </g>
    <g id="xtick_5">
     <g id="line2d_13">
      <path d="M 426.533197 350.435625 
L 426.533197 17.795625 
" clip-path="url(#pdda526ae9e)" style="fill: none; stroke: #ffffff; stroke-width: 0.5; stroke-linecap: square"/>
     </g>
     <g id="line2d_14">
      <g>
       <use xlink:href="#mc629f4ce13" x="426.533197" y="350.435625" style="fill: #ffffff; stroke: #ffffff; stroke-width: 0.5"/>
      </g>
     </g>
     <g id="line2d_15">
      <g>
       <use xlink:href="#m3f013fe314" x="426.533197" y="17.795625" style="fill: #ffffff; stroke: #ffffff; stroke-width: 0.5"/>
      </g>
     </g>
     <g id="text_5">
      <!-- 02 19:27 -->
      <g style="fill: #ffffff" transform="translate(408.893353 360.765312) scale(0.1 -0.1)">
       <defs>
        <path id="STIXGeneral-Regular-37" d="M 2874 4134 
L 1517 -51 
L 1101 -51 
L 2368 3763 
L 992 3763 
Q 717 3763 582 3667 
Q 448 3571 243 3238 
L 128 3296 
L 512 4237 
L 2874 4237 
L 2874 4134 
z
" transform="scale(0.015625)"/>
       </defs>
       <use xlink:href="#STIXGeneral-Regular-30"/>
       <use xlink:href="#STIXGeneral-Regular-32" transform="translate(49.999985 0)"/>
       <use xlink:href="#STIXGeneral-Regular-20" transform="translate(99.999969 0)"/>
       <use xlink:href="#STIXGeneral-Regular-31" transform="translate(124.999954 0)"/>
       <use xlink:href="#STIXGeneral-Regular-39" transform="translate(174.999939 0)"/>
       <use xlink:href="#STIXGeneral-Regular-3a" transform="translate(224.999924 0)"/>
       <use xlink:href="#STIXGeneral-Regular-32" transform="translate(252.799911 0)"/>
       <use xlink:href="#STIXGeneral-Regular-37" transform="translate(302.799896 0)"/>
      </g>
     </g>
    </g>
    <g id="xtick_6">
     <g id="line2d_16">
      <path d="M 506.58498 350.435625 
L 506.58498 17.795625 
" clip-path="url(#pdda526ae9e)" style="fill: none; stroke: #ffffff; stroke-width: 0.5; stroke-linecap: square"/>
     </g>
     <g id="line2d_17">
      <g>
       <use xlink:href="#mc629f4ce13" x="506.58498" y="350.435625" style="fill: #ffffff; stroke: #ffffff; stroke-width: 0.5"/>
      </g>
     </g>
     <g id="line2d_18">
      <g>
       <use xlink:href="#m3f013fe314" x="506.58498" y="17.795625" style="fill: #ffffff; stroke: #ffffff; stroke-width: 0.5"/>
      </g>
     </g>
     <g id="text_6">
      <!-- 02 19:28 -->
      <g style="fill: #ffffff" transform="translate(488.945137 360.765312) scale(0.1 -0.1)">
       <defs>
        <path id="STIXGeneral-Regular-38" d="M 2848 992 
Q 2848 499 2505 204 
Q 2163 -90 1587 -90 
Q 1050 -90 704 204 
Q 358 499 358 954 
Q 358 1293 524 1533 
Q 691 1773 1190 2125 
Q 710 2522 553 2765 
Q 397 3008 397 3328 
Q 397 3782 745 4054 
Q 1094 4326 1638 4326 
Q 2106 4326 2410 4060 
Q 2714 3795 2714 3411 
Q 2714 3059 2531 2848 
Q 2349 2637 1856 2374 
Q 2432 1990 2640 1689 
Q 2848 1389 2848 992 
z
M 2272 3411 
Q 2272 3744 2086 3945 
Q 1901 4147 1574 4147 
Q 1248 4147 1059 3977 
Q 870 3808 870 3513 
Q 870 3219 1059 2979 
Q 1248 2739 1670 2490 
Q 1997 2682 2134 2896 
Q 2272 3110 2272 3411 
z
M 1734 1741 
L 1357 1997 
Q 1075 1766 960 1545 
Q 845 1325 845 1011 
Q 845 576 1065 333 
Q 1286 90 1658 90 
Q 1971 90 2166 285 
Q 2362 480 2362 794 
Q 2362 1082 2214 1299 
Q 2067 1517 1734 1741 
z
" transform="scale(0.015625)"/>
       </defs>
       <use xlink:href="#STIXGeneral-Regular-30"/>
       <use xlink:href="#STIXGeneral-Regular-32" transform="translate(49.999985 0)"/>
       <use xlink:href="#STIXGeneral-Regular-20" transform="translate(99.999969 0)"/>
       <use xlink:href="#STIXGeneral-Regular-31" transform="translate(124.999954 0)"/>
       <use xlink:href="#STIXGeneral-Regular-39" transform="translate(174.999939 0)"/>
       <use xlink:href="#STIXGeneral-Regular-3a" transform="translate(224.999924 0)"/>
       <use xlink:href="#STIXGeneral-Regular-32" transform="translate(252.799911 0)"/>
       <use xlink:href="#STIXGeneral-Regular-38" transform="translate(302.799896 0)"/>
      </g>
     </g>
    </g>
    <g id="xtick_7">
     <g id="line2d_19">
      <path d="M 586.636764 350.435625 
L 586.636764 17.795625 
" clip-path="url(#pdda526ae9e)" style="fill: none; stroke: #ffffff; stroke-width: 0.5; stroke-linecap: square"/>
     </g>
     <g id="line2d_20">
      <g>
       <use xlink:href="#mc629f4ce13" x="586.636764" y="350.435625" style="fill: #ffffff; stroke: #ffffff; stroke-width: 0.5"/>
      </g>
     </g>
     <g id="line2d_21">
      <g>
       <use xlink:href="#m3f013fe314" x="586.636764" y="17.795625" style="fill: #ffffff; stroke: #ffffff; stroke-width: 0.5"/>
      </g>
     </g>
     <g id="text_7">
      <!-- 02 19:29 -->
      <g style="fill: #ffffff" transform="translate(568.99692 360.765312) scale(0.1 -0.1)">
       <use xlink:href="#STIXGeneral-Regular-30"/>
       <use xlink:href="#STIXGeneral-Regular-32" transform="translate(49.999985 0)"/>
       <use xlink:href="#STIXGeneral-Regular-20" transform="translate(99.999969 0)"/>
       <use xlink:href="#STIXGeneral-Regular-31" transform="translate(124.999954 0)"/>
       <use xlink:href="#STIXGeneral-Regular-39" transform="translate(174.999939 0)"/>
       <use xlink:href="#STIXGeneral-Regular-3a" transform="translate(224.999924 0)"/>
       <use xlink:href="#STIXGeneral-Regular-32" transform="translate(252.799911 0)"/>
       <use xlink:href="#STIXGeneral-Regular-39" transform="translate(302.799896 0)"/>
      </g>
     </g>
    </g>
    <g id="xtick_8">
     <g id="line2d_22">
      <defs>
       <path id="mc7b7e6c724" d="M 0 0 
L 0 -1.5 
" style="stroke: #ffffff; stroke-width: 0.5"/>
      </defs>
      <g>
       <use xlink:href="#mc7b7e6c724" x="46.287225" y="350.435625" style="fill: #ffffff; stroke: #ffffff; stroke-width: 0.5"/>
      </g>
     </g>
     <g id="line2d_23">
      <defs>
       <path id="m3a6e1bda06" d="M 0 0 
L 0 1.5 
" style="stroke: #ffffff; stroke-width: 0.5"/>
      </defs>
      <g>
       <use xlink:href="#m3a6e1bda06" x="46.287225" y="17.795625" style="fill: #ffffff; stroke: #ffffff; stroke-width: 0.5"/>
      </g>
     </g>
    </g>
    <g id="xtick_9">
     <g id="line2d_24">
      <g>
       <use xlink:href="#mc7b7e6c724" x="66.300171" y="350.435625" style="fill: #ffffff; stroke: #ffffff; stroke-width: 0.5"/>
      </g>
     </g>
     <g id="line2d_25">
      <g>
       <use xlink:href="#m3a6e1bda06" x="66.300171" y="17.795625" style="fill: #ffffff; stroke: #ffffff; stroke-width: 0.5"/>
      </g>
     </g>
    </g>
    <g id="xtick_10">
     <g id="line2d_26">
      <g>
       <use xlink:href="#mc7b7e6c724" x="86.313117" y="350.435625" style="fill: #ffffff; stroke: #ffffff; stroke-width: 0.5"/>
      </g>
     </g>
     <g id="line2d_27">
      <g>
       <use xlink:href="#m3a6e1bda06" x="86.313117" y="17.795625" style="fill: #ffffff; stroke: #ffffff; stroke-width: 0.5"/>
      </g>
     </g>
    </g>
    <g id="xtick_11">
     <g id="line2d_28">
      <g>
       <use xlink:href="#mc7b7e6c724" x="126.339009" y="350.435625" style="fill: #ffffff; stroke: #ffffff; stroke-width: 0.5"/>
      </g>
     </g>
     <g id="line2d_29">
      <g>
       <use xlink:href="#m3a6e1bda06" x="126.339009" y="17.795625" style="fill: #ffffff; stroke: #ffffff; stroke-width: 0.5"/>
      </g>
     </g>
    </g>
    <g id="xtick_12">
     <g id="line2d_30">
      <g>
       <use xlink:href="#mc7b7e6c724" x="146.351955" y="350.435625" style="fill: #ffffff; stroke: #ffffff; stroke-width: 0.5"/>
      </g>
     </g>
     <g id="line2d_31">
      <g>
       <use xlink:href="#m3a6e1bda06" x="146.351955" y="17.795625" style="fill: #ffffff; stroke: #ffffff; stroke-width: 0.5"/>
      </g>
     </g>
    </g>
    <g id="xtick_13">
     <g id="line2d_32">
      <g>
       <use xlink:href="#mc7b7e6c724" x="166.364901" y="350.435625" style="fill: #ffffff; stroke: #ffffff; stroke-width: 0.5"/>
      </g>
     </g>
     <g id="line2d_33">
      <g>
       <use xlink:href="#m3a6e1bda06" x="166.364901" y="17.795625" style="fill: #ffffff; stroke: #ffffff; stroke-width: 0.5"/>
      </g>
     </g>
    </g>
    <g id="xtick_14">
     <g id="line2d_34">
      <g>
       <use xlink:href="#mc7b7e6c724" x="206.390793" y="350.435625" style="fill: #ffffff; stroke: #ffffff; stroke-width: 0.5"/>
      </g>
     </g>
     <g id="line2d_35">
      <g>
       <use xlink:href="#m3a6e1bda06" x="206.390793" y="17.795625" style="fill: #ffffff; stroke: #ffffff; stroke-width: 0.5"/>
      </g>
     </g>
    </g>
    <g id="xtick_15">
     <g id="line2d_36">
      <g>
       <use xlink:href="#mc7b7e6c724" x="226.403738" y="350.435625" style="fill: #ffffff; stroke: #ffffff; stroke-width: 0.5"/>
      </g>
     </g>
     <g id="line2d_37">
      <g>
       <use xlink:href="#m3a6e1bda06" x="226.403738" y="17.795625" style="fill: #ffffff; stroke: #ffffff; stroke-width: 0.5"/>
      </g>
     </g>
    </g>
    <g id="xtick_16">
     <g id="line2d_38">
      <g>
       <use xlink:href="#mc7b7e6c724" x="246.416685" y="350.435625" style="fill: #ffffff; stroke: #ffffff; stroke-width: 0.5"/>
      </g>
     </g>
     <g id="line2d_39">
      <g>
       <use xlink:href="#m3a6e1bda06" x="246.416685" y="17.795625" style="fill: #ffffff; stroke: #ffffff; stroke-width: 0.5"/>
      </g>
     </g>
    </g>
    <g id="xtick_17">
     <g id="line2d_40">
      <g>
       <use xlink:href="#mc7b7e6c724" x="286.442576" y="350.435625" style="fill: #ffffff; stroke: #ffffff; stroke-width: 0.5"/>
      </g>
     </g>
     <g id="line2d_41">
      <g>
       <use xlink:href="#m3a6e1bda06" x="286.442576" y="17.795625" style="fill: #ffffff; stroke: #ffffff; stroke-width: 0.5"/>
      </g>
     </g>
    </g>
    <g id="xtick_18">
     <g id="line2d_42">
      <g>
       <use xlink:href="#mc7b7e6c724" x="306.455523" y="350.435625" style="fill: #ffffff; stroke: #ffffff; stroke-width: 0.5"/>
      </g>
     </g>
     <g id="line2d_43">
      <g>
       <use xlink:href="#m3a6e1bda06" x="306.455523" y="17.795625" style="fill: #ffffff; stroke: #ffffff; stroke-width: 0.5"/>
      </g>
     </g>
    </g>
    <g id="xtick_19">
     <g id="line2d_44">
      <g>
       <use xlink:href="#mc7b7e6c724" x="326.468468" y="350.435625" style="fill: #ffffff; stroke: #ffffff; stroke-width: 0.5"/>
      </g>
     </g>
     <g id="line2d_45">
      <g>
       <use xlink:href="#m3a6e1bda06" x="326.468468" y="17.795625" style="fill: #ffffff; stroke: #ffffff; stroke-width: 0.5"/>
      </g>
     </g>
    </g>
    <g id="xtick_20">
     <g id="line2d_46">
      <g>
       <use xlink:href="#mc7b7e6c724" x="366.49436" y="350.435625" style="fill: #ffffff; stroke: #ffffff; stroke-width: 0.5"/>
      </g>
     </g>
     <g id="line2d_47">
      <g>
       <use xlink:href="#m3a6e1bda06" x="366.49436" y="17.795625" style="fill: #ffffff; stroke: #ffffff; stroke-width: 0.5"/>
      </g>
     </g>
    </g>
    <g id="xtick_21">
     <g id="line2d_48">
      <g>
       <use xlink:href="#mc7b7e6c724" x="386.507306" y="350.435625" style="fill: #ffffff; stroke: #ffffff; stroke-width: 0.5"/>
      </g>
     </g>
     <g id="line2d_49">
      <g>
       <use xlink:href="#m3a6e1bda06" x="386.507306" y="17.795625" style="fill: #ffffff; stroke: #ffffff; stroke-width: 0.5"/>
      </g>
     </g>
    </g>
    <g id="xtick_22">
     <g id="line2d_50">
      <g>
       <use xlink:href="#mc7b7e6c724" x="406.520252" y="350.435625" style="fill: #ffffff; stroke: #ffffff; stroke-width: 0.5"/>
      </g>
     </g>
     <g id="line2d_51">
      <g>
       <use xlink:href="#m3a6e1bda06" x="406.520252" y="17.795625" style="fill: #ffffff; stroke: #ffffff; stroke-width: 0.5"/>
      </g>
     </g>
    </g>
    <g id="xtick_23">
     <g id="line2d_52">
      <g>
       <use xlink:href="#mc7b7e6c724" x="446.546144" y="350.435625" style="fill: #ffffff; stroke: #ffffff; stroke-width: 0.5"/>
      </g>
     </g>
     <g id="line2d_53">
      <g>
       <use xlink:href="#m3a6e1bda06" x="446.546144" y="17.795625" style="fill: #ffffff; stroke: #ffffff; stroke-width: 0.5"/>
      </g>
     </g>
    </g>
    <g id="xtick_24">
     <g id="line2d_54">
      <g>
       <use xlink:href="#mc7b7e6c724" x="466.55909" y="350.435625" style="fill: #ffffff; stroke: #ffffff; stroke-width: 0.5"/>
      </g>
     </g>
     <g id="line2d_55">
      <g>
       <use xlink:href="#m3a6e1bda06" x="466.55909" y="17.795625" style="fill: #ffffff; stroke: #ffffff; stroke-width: 0.5"/>
      </g>
     </g>
    </g>
    <g id="xtick_25">
     <g id="line2d_56">
      <g>
       <use xlink:href="#mc7b7e6c724" x="486.572036" y="350.435625" style="fill: #ffffff; stroke: #ffffff; stroke-width: 0.5"/>
      </g>
     </g>
     <g id="line2d_57">
      <g>
       <use xlink:href="#m3a6e1bda06" x="486.572036" y="17.795625" style="fill: #ffffff; stroke: #ffffff; stroke-width: 0.5"/>
      </g>
     </g>
    </g>
    <g id="xtick_26">
     <g id="line2d_58">
      <g>
       <use xlink:href="#mc7b7e6c724" x="526.597928" y="350.435625" style="fill: #ffffff; stroke: #ffffff; stroke-width: 0.5"/>
      </g>
     </g>
     <g id="line2d_59">
      <g>
       <use xlink:href="#m3a6e1bda06" x="526.597928" y="17.795625" style="fill: #ffffff; stroke: #ffffff; stroke-width: 0.5"/>
      </g>
     </g>
    </g>
    <g id="xtick_27">
     <g id="line2d_60">
      <g>
       <use xlink:href="#mc7b7e6c724" x="546.610874" y="350.435625" style="fill: #ffffff; stroke: #ffffff; stroke-width: 0.5"/>
      </g>
     </g>
     <g id="line2d_61">
      <g>
       <use xlink:href="#m3a6e1bda06" x="546.610874" y="17.795625" style="fill: #ffffff; stroke: #ffffff; stroke-width: 0.5"/>
      </g>
     </g>
    </g>
    <g id="xtick_28">
     <g id="line2d_62">
      <g>
       <use xlink:href="#mc7b7e6c724" x="566.623819" y="350.435625" style="fill: #ffffff; stroke: #ffffff; stroke-width: 0.5"/>
      </g>
     </g>
     <g id="line2d_63">
      <g>
       <use xlink:href="#m3a6e1bda06" x="566.623819" y="17.795625" style="fill: #ffffff; stroke: #ffffff; stroke-width: 0.5"/>
      </g>
     </g>
    </g>
    <g id="text_8">
     <!-- Time -->
     <g style="fill: #ffffff" transform="translate(298.554688 373.765312) scale(0.1 -0.1)">
      <defs>
       <path id="STIXGeneral-Regular-54" d="M 3795 3149 
L 3642 3149 
Q 3539 3674 3353 3821 
Q 3168 3968 2656 3968 
L 2278 3968 
L 2278 710 
Q 2278 346 2387 243 
Q 2496 141 2893 122 
L 2893 0 
L 1024 0 
L 1024 122 
Q 1427 147 1526 256 
Q 1626 365 1626 787 
L 1626 3968 
L 1242 3968 
Q 723 3968 540 3817 
Q 358 3667 262 3149 
L 109 3149 
L 154 4237 
L 3750 4237 
L 3795 3149 
z
" transform="scale(0.015625)"/>
       <path id="STIXGeneral-Regular-69" d="M 1152 4045 
Q 1152 3904 1056 3811 
Q 960 3718 819 3718 
Q 685 3718 592 3811 
Q 499 3904 499 4045 
Q 499 4179 595 4275 
Q 691 4371 826 4371 
Q 966 4371 1059 4275 
Q 1152 4179 1152 4045 
z
M 1619 0 
L 102 0 
L 102 96 
Q 435 115 521 211 
Q 608 307 608 666 
L 608 2118 
Q 608 2342 563 2432 
Q 518 2522 397 2522 
Q 243 2522 128 2490 
L 128 2592 
L 1120 2944 
L 1146 2918 
L 1146 672 
Q 1146 314 1226 218 
Q 1306 122 1619 96 
L 1619 0 
z
" transform="scale(0.015625)"/>
       <path id="STIXGeneral-Regular-6d" d="M 4960 0 
L 3565 0 
L 3565 96 
Q 3834 122 3907 208 
Q 3981 294 3981 576 
L 3981 1894 
Q 3981 2278 3869 2444 
Q 3757 2611 3488 2611 
Q 3264 2611 3107 2521 
Q 2950 2432 2803 2221 
L 2803 608 
Q 2803 301 2896 201 
Q 2989 102 3264 96 
L 3264 0 
L 1830 0 
L 1830 96 
Q 2112 115 2189 188 
Q 2266 262 2266 550 
L 2266 1901 
Q 2266 2611 1850 2611 
Q 1670 2611 1468 2531 
Q 1267 2451 1171 2336 
Q 1088 2240 1088 2227 
L 1088 448 
Q 1088 243 1177 176 
Q 1267 109 1523 96 
L 1523 0 
L 102 0 
L 102 96 
Q 371 102 460 195 
Q 550 288 550 563 
L 550 2150 
Q 550 2387 499 2480 
Q 448 2573 326 2573 
Q 230 2573 122 2547 
L 122 2656 
Q 557 2778 1011 2944 
L 1062 2925 
L 1062 2451 
L 1075 2451 
Q 1363 2752 1584 2848 
Q 1805 2944 2054 2944 
Q 2560 2944 2733 2406 
Q 3232 2944 3776 2944 
Q 4518 2944 4518 1792 
L 4518 493 
Q 4518 282 4582 202 
Q 4646 122 4794 109 
L 4960 96 
L 4960 0 
z
" transform="scale(0.015625)"/>
       <path id="STIXGeneral-Regular-65" d="M 2611 1050 
L 2714 1005 
Q 2330 -64 1376 -64 
Q 813 -64 486 329 
Q 160 723 160 1389 
Q 160 2074 525 2509 
Q 890 2944 1485 2944 
Q 2061 2944 2374 2502 
Q 2560 2246 2592 1773 
L 621 1773 
Q 646 1370 700 1158 
Q 755 947 915 730 
Q 1184 378 1626 378 
Q 1939 378 2153 531 
Q 2368 685 2611 1050 
z
M 634 1978 
L 1939 1978 
Q 1882 2381 1750 2547 
Q 1619 2714 1312 2714 
Q 1043 2714 864 2525 
Q 685 2336 634 1978 
z
" transform="scale(0.015625)"/>
      </defs>
      <use xlink:href="#STIXGeneral-Regular-54"/>
      <use xlink:href="#STIXGeneral-Regular-69" transform="translate(61.099991 0)"/>
      <use xlink:href="#STIXGeneral-Regular-6d" transform="translate(88.899979 0)"/>
      <use xlink:href="#STIXGeneral-Regular-65" transform="translate(166.699966 0)"/>
     </g>
    </g>
   </g>
   <g id="matplotlib.axis_2">
    <g id="ytick_1">
     <g id="line2d_64">
      <path d="M 30.109375 350.435625 
L 588.109375 350.435625 
" clip-path="url(#pdda526ae9e)" style="fill: none; stroke: #ffffff; stroke-width: 0.5; stroke-linecap: square"/>
     </g>
     <g id="line2d_65">
      <defs>
       <path id="m3b489a3c4a" d="M 0 0 
L 3 0 
" style="stroke: #ffffff; stroke-width: 0.5"/>
      </defs>
      <g>
       <use xlink:href="#m3b489a3c4a" x="30.109375" y="350.435625" style="fill: #ffffff; stroke: #ffffff; stroke-width: 0.5"/>
      </g>
     </g>
     <g id="line2d_66">
      <defs>
       <path id="mf8350d4bbb" d="M 0 0 
L -3 0 
" style="stroke: #ffffff; stroke-width: 0.5"/>
      </defs>
      <g>
       <use xlink:href="#mf8350d4bbb" x="588.109375" y="350.435625" style="fill: #ffffff; stroke: #ffffff; stroke-width: 0.5"/>
      </g>
     </g>
     <g id="text_9">
      <!-- $\mathdefault{0}$ -->
      <g style="fill: #ffffff" transform="translate(21.609375 353.850469) scale(0.1 -0.1)">
       <use xlink:href="#STIXGeneral-Regular-30" transform="translate(0 0.40625)"/>
      </g>
     </g>
    </g>
    <g id="ytick_2">
     <g id="line2d_67">
      <path d="M 30.109375 294.995625 
L 588.109375 294.995625 
" clip-path="url(#pdda526ae9e)" style="fill: none; stroke: #ffffff; stroke-width: 0.5; stroke-linecap: square"/>
     </g>
     <g id="line2d_68">
      <g>
       <use xlink:href="#m3b489a3c4a" x="30.109375" y="294.995625" style="fill: #ffffff; stroke: #ffffff; stroke-width: 0.5"/>
      </g>
     </g>
     <g id="line2d_69">
      <g>
       <use xlink:href="#mf8350d4bbb" x="588.109375" y="294.995625" style="fill: #ffffff; stroke: #ffffff; stroke-width: 0.5"/>
      </g>
     </g>
     <g id="text_10">
      <!-- $\mathdefault{15}$ -->
      <g style="fill: #ffffff" transform="translate(16.609375 298.410469) scale(0.1 -0.1)">
       <use xlink:href="#STIXGeneral-Regular-31" transform="translate(0 0.203125)"/>
       <use xlink:href="#STIXGeneral-Regular-35" transform="translate(49.999985 0.203125)"/>
      </g>
     </g>
    </g>
    <g id="ytick_3">
     <g id="line2d_70">
      <path d="M 30.109375 239.555625 
L 588.109375 239.555625 
" clip-path="url(#pdda526ae9e)" style="fill: none; stroke: #ffffff; stroke-width: 0.5; stroke-linecap: square"/>
     </g>
     <g id="line2d_71">
      <g>
       <use xlink:href="#m3b489a3c4a" x="30.109375" y="239.555625" style="fill: #ffffff; stroke: #ffffff; stroke-width: 0.5"/>
      </g>
     </g>
     <g id="line2d_72">
      <g>
       <use xlink:href="#mf8350d4bbb" x="588.109375" y="239.555625" style="fill: #ffffff; stroke: #ffffff; stroke-width: 0.5"/>
      </g>
     </g>
     <g id="text_11">
      <!-- $\mathdefault{30}$ -->
      <g style="fill: #ffffff" transform="translate(16.609375 242.970469) scale(0.1 -0.1)">
       <use xlink:href="#STIXGeneral-Regular-33" transform="translate(0 0.40625)"/>
       <use xlink:href="#STIXGeneral-Regular-30" transform="translate(49.999985 0.40625)"/>
      </g>
     </g>
    </g>
    <g id="ytick_4">
     <g id="line2d_73">
      <path d="M 30.109375 184.115625 
L 588.109375 184.115625 
" clip-path="url(#pdda526ae9e)" style="fill: none; stroke: #ffffff; stroke-width: 0.5; stroke-linecap: square"/>
     </g>
     <g id="line2d_74">
      <g>
       <use xlink:href="#m3b489a3c4a" x="30.109375" y="184.115625" style="fill: #ffffff; stroke: #ffffff; stroke-width: 0.5"/>
      </g>
     </g>
     <g id="line2d_75">
      <g>
       <use xlink:href="#mf8350d4bbb" x="588.109375" y="184.115625" style="fill: #ffffff; stroke: #ffffff; stroke-width: 0.5"/>
      </g>
     </g>
     <g id="text_12">
      <!-- $\mathdefault{45}$ -->
      <g style="fill: #ffffff" transform="translate(16.609375 187.530469) scale(0.1 -0.1)">
       <use xlink:href="#STIXGeneral-Regular-34" transform="translate(0 0.203125)"/>
       <use xlink:href="#STIXGeneral-Regular-35" transform="translate(49.999985 0.203125)"/>
      </g>
     </g>
    </g>
    <g id="ytick_5">
     <g id="line2d_76">
      <path d="M 30.109375 128.675625 
L 588.109375 128.675625 
" clip-path="url(#pdda526ae9e)" style="fill: none; stroke: #ffffff; stroke-width: 0.5; stroke-linecap: square"/>
     </g>
     <g id="line2d_77">
      <g>
       <use xlink:href="#m3b489a3c4a" x="30.109375" y="128.675625" style="fill: #ffffff; stroke: #ffffff; stroke-width: 0.5"/>
      </g>
     </g>
     <g id="line2d_78">
      <g>
       <use xlink:href="#mf8350d4bbb" x="588.109375" y="128.675625" style="fill: #ffffff; stroke: #ffffff; stroke-width: 0.5"/>
      </g>
     </g>
     <g id="text_13">
      <!-- $\mathdefault{60}$ -->
      <g style="fill: #ffffff" transform="translate(16.609375 132.090469) scale(0.1 -0.1)">
       <use xlink:href="#STIXGeneral-Regular-36" transform="translate(0 0.59375)"/>
       <use xlink:href="#STIXGeneral-Regular-30" transform="translate(49.999985 0.59375)"/>
      </g>
     </g>
    </g>
    <g id="ytick_6">
     <g id="line2d_79">
      <path d="M 30.109375 73.235625 
L 588.109375 73.235625 
" clip-path="url(#pdda526ae9e)" style="fill: none; stroke: #ffffff; stroke-width: 0.5; stroke-linecap: square"/>
     </g>
     <g id="line2d_80">
      <g>
       <use xlink:href="#m3b489a3c4a" x="30.109375" y="73.235625" style="fill: #ffffff; stroke: #ffffff; stroke-width: 0.5"/>
      </g>
     </g>
     <g id="line2d_81">
      <g>
       <use xlink:href="#mf8350d4bbb" x="588.109375" y="73.235625" style="fill: #ffffff; stroke: #ffffff; stroke-width: 0.5"/>
      </g>
     </g>
     <g id="text_14">
      <!-- $\mathdefault{75}$ -->
      <g style="fill: #ffffff" transform="translate(16.609375 76.650469) scale(0.1 -0.1)">
       <use xlink:href="#STIXGeneral-Regular-37" transform="translate(0 0.203125)"/>
       <use xlink:href="#STIXGeneral-Regular-35" transform="translate(49.999985 0.203125)"/>
      </g>
     </g>
    </g>
    <g id="ytick_7">
     <g id="line2d_82">
      <path d="M 30.109375 17.795625 
L 588.109375 17.795625 
" clip-path="url(#pdda526ae9e)" style="fill: none; stroke: #ffffff; stroke-width: 0.5; stroke-linecap: square"/>
     </g>
     <g id="line2d_83">
      <g>
       <use xlink:href="#m3b489a3c4a" x="30.109375" y="17.795625" style="fill: #ffffff; stroke: #ffffff; stroke-width: 0.5"/>
      </g>
     </g>
     <g id="line2d_84">
      <g>
       <use xlink:href="#mf8350d4bbb" x="588.109375" y="17.795625" style="fill: #ffffff; stroke: #ffffff; stroke-width: 0.5"/>
      </g>
     </g>
     <g id="text_15">
      <!-- $\mathdefault{90}$ -->
      <g style="fill: #ffffff" transform="translate(16.609375 21.210469) scale(0.1 -0.1)">
       <use xlink:href="#STIXGeneral-Regular-39" transform="translate(0 0.40625)"/>
       <use xlink:href="#STIXGeneral-Regular-30" transform="translate(49.999985 0.40625)"/>
      </g>
     </g>
    </g>
    <g id="ytick_8">
     <g id="line2d_85">
      <defs>
       <path id="mc05d28a4e8" d="M 0 0 
L 1.5 0 
" style="stroke: #ffffff; stroke-width: 0.5"/>
      </defs>
      <g>
       <use xlink:href="#mc05d28a4e8" x="30.109375" y="336.575625" style="fill: #ffffff; stroke: #ffffff; stroke-width: 0.5"/>
      </g>
     </g>
     <g id="line2d_86">
      <defs>
       <path id="me8dcbcbe56" d="M 0 0 
L -1.5 0 
" style="stroke: #ffffff; stroke-width: 0.5"/>
      </defs>
      <g>
       <use xlink:href="#me8dcbcbe56" x="588.109375" y="336.575625" style="fill: #ffffff; stroke: #ffffff; stroke-width: 0.5"/>
      </g>
     </g>
    </g>
    <g id="ytick_9">
     <g id="line2d_87">
      <g>
       <use xlink:href="#mc05d28a4e8" x="30.109375" y="322.715625" style="fill: #ffffff; stroke: #ffffff; stroke-width: 0.5"/>
      </g>
     </g>
     <g id="line2d_88">
      <g>
       <use xlink:href="#me8dcbcbe56" x="588.109375" y="322.715625" style="fill: #ffffff; stroke: #ffffff; stroke-width: 0.5"/>
      </g>
     </g>
    </g>
    <g id="ytick_10">
     <g id="line2d_89">
      <g>
       <use xlink:href="#mc05d28a4e8" x="30.109375" y="308.855625" style="fill: #ffffff; stroke: #ffffff; stroke-width: 0.5"/>
      </g>
     </g>
     <g id="line2d_90">
      <g>
       <use xlink:href="#me8dcbcbe56" x="588.109375" y="308.855625" style="fill: #ffffff; stroke: #ffffff; stroke-width: 0.5"/>
      </g>
     </g>
    </g>
    <g id="ytick_11">
     <g id="line2d_91">
      <g>
       <use xlink:href="#mc05d28a4e8" x="30.109375" y="281.135625" style="fill: #ffffff; stroke: #ffffff; stroke-width: 0.5"/>
      </g>
     </g>
     <g id="line2d_92">
      <g>
       <use xlink:href="#me8dcbcbe56" x="588.109375" y="281.135625" style="fill: #ffffff; stroke: #ffffff; stroke-width: 0.5"/>
      </g>
     </g>
    </g>
    <g id="ytick_12">
     <g id="line2d_93">
      <g>
       <use xlink:href="#mc05d28a4e8" x="30.109375" y="267.275625" style="fill: #ffffff; stroke: #ffffff; stroke-width: 0.5"/>
      </g>
     </g>
     <g id="line2d_94">
      <g>
       <use xlink:href="#me8dcbcbe56" x="588.109375" y="267.275625" style="fill: #ffffff; stroke: #ffffff; stroke-width: 0.5"/>
      </g>
     </g>
    </g>
    <g id="ytick_13">
     <g id="line2d_95">
      <g>
       <use xlink:href="#mc05d28a4e8" x="30.109375" y="253.415625" style="fill: #ffffff; stroke: #ffffff; stroke-width: 0.5"/>
      </g>
     </g>
     <g id="line2d_96">
      <g>
       <use xlink:href="#me8dcbcbe56" x="588.109375" y="253.415625" style="fill: #ffffff; stroke: #ffffff; stroke-width: 0.5"/>
      </g>
     </g>
    </g>
    <g id="ytick_14">
     <g id="line2d_97">
      <g>
       <use xlink:href="#mc05d28a4e8" x="30.109375" y="225.695625" style="fill: #ffffff; stroke: #ffffff; stroke-width: 0.5"/>
      </g>
     </g>
     <g id="line2d_98">
      <g>
       <use xlink:href="#me8dcbcbe56" x="588.109375" y="225.695625" style="fill: #ffffff; stroke: #ffffff; stroke-width: 0.5"/>
      </g>
     </g>
    </g>
    <g id="ytick_15">
     <g id="line2d_99">
      <g>
       <use xlink:href="#mc05d28a4e8" x="30.109375" y="211.835625" style="fill: #ffffff; stroke: #ffffff; stroke-width: 0.5"/>
      </g>
     </g>
     <g id="line2d_100">
      <g>
       <use xlink:href="#me8dcbcbe56" x="588.109375" y="211.835625" style="fill: #ffffff; stroke: #ffffff; stroke-width: 0.5"/>
      </g>
     </g>
    </g>
    <g id="ytick_16">
     <g id="line2d_101">
      <g>
       <use xlink:href="#mc05d28a4e8" x="30.109375" y="197.975625" style="fill: #ffffff; stroke: #ffffff; stroke-width: 0.5"/>
      </g>
     </g>
     <g id="line2d_102">
      <g>
       <use xlink:href="#me8dcbcbe56" x="588.109375" y="197.975625" style="fill: #ffffff; stroke: #ffffff; stroke-width: 0.5"/>
      </g>
     </g>
    </g>
    <g id="ytick_17">
     <g id="line2d_103">
      <g>
       <use xlink:href="#mc05d28a4e8" x="30.109375" y="170.255625" style="fill: #ffffff; stroke: #ffffff; stroke-width: 0.5"/>
      </g>
     </g>
     <g id="line2d_104">
      <g>
       <use xlink:href="#me8dcbcbe56" x="588.109375" y="170.255625" style="fill: #ffffff; stroke: #ffffff; stroke-width: 0.5"/>
      </g>
     </g>
    </g>
    <g id="ytick_18">
     <g id="line2d_105">
      <g>
       <use xlink:href="#mc05d28a4e8" x="30.109375" y="156.395625" style="fill: #ffffff; stroke: #ffffff; stroke-width: 0.5"/>
      </g>
     </g>
     <g id="line2d_106">
      <g>
       <use xlink:href="#me8dcbcbe56" x="588.109375" y="156.395625" style="fill: #ffffff; stroke: #ffffff; stroke-width: 0.5"/>
      </g>
     </g>
    </g>
    <g id="ytick_19">
     <g id="line2d_107">
      <g>
       <use xlink:href="#mc05d28a4e8" x="30.109375" y="142.535625" style="fill: #ffffff; stroke: #ffffff; stroke-width: 0.5"/>
      </g>
     </g>
     <g id="line2d_108">
      <g>
       <use xlink:href="#me8dcbcbe56" x="588.109375" y="142.535625" style="fill: #ffffff; stroke: #ffffff; stroke-width: 0.5"/>
      </g>
     </g>
    </g>
    <g id="ytick_20">
     <g id="line2d_109">
      <g>
       <use xlink:href="#mc05d28a4e8" x="30.109375" y="114.815625" style="fill: #ffffff; stroke: #ffffff; stroke-width: 0.5"/>
      </g>
     </g>
     <g id="line2d_110">
      <g>
       <use xlink:href="#me8dcbcbe56" x="588.109375" y="114.815625" style="fill: #ffffff; stroke: #ffffff; stroke-width: 0.5"/>
      </g>
     </g>
    </g>
    <g id="ytick_21">
     <g id="line2d_111">
      <g>
       <use xlink:href="#mc05d28a4e8" x="30.109375" y="100.955625" style="fill: #ffffff; stroke: #ffffff; stroke-width: 0.5"/>
      </g>
     </g>
     <g id="line2d_112">
      <g>
       <use xlink:href="#me8dcbcbe56" x="588.109375" y="100.955625" style="fill: #ffffff; stroke: #ffffff; stroke-width: 0.5"/>
      </g>
     </g>
    </g>
    <g id="ytick_22">
     <g id="line2d_113">
      <g>
       <use xlink:href="#mc05d28a4e8" x="30.109375" y="87.095625" style="fill: #ffffff; stroke: #ffffff; stroke-width: 0.5"/>
      </g>
     </g>
     <g id="line2d_114">
      <g>
       <use xlink:href="#me8dcbcbe56" x="588.109375" y="87.095625" style="fill: #ffffff; stroke: #ffffff; stroke-width: 0.5"/>
      </g>
     </g>
    </g>
    <g id="ytick_23">
     <g id="line2d_115">
      <g>
       <use xlink:href="#mc05d28a4e8" x="30.109375" y="59.375625" style="fill: #ffffff; stroke: #ffffff; stroke-width: 0.5"/>
      </g>
     </g>
     <g id="line2d_116">
      <g>
       <use xlink:href="#me8dcbcbe56" x="588.109375" y="59.375625" style="fill: #ffffff; stroke: #ffffff; stroke-width: 0.5"/>
      </g>
     </g>
    </g>
    <g id="ytick_24">
     <g id="line2d_117">
      <g>
       <use xlink:href="#mc05d28a4e8" x="30.109375" y="45.515625" style="fill: #ffffff; stroke: #ffffff; stroke-width: 0.5"/>
      </g>
     </g>
     <g id="line2d_118">
      <g>
       <use xlink:href="#me8dcbcbe56" x="588.109375" y="45.515625" style="fill: #ffffff; stroke: #ffffff; stroke-width: 0.5"/>
      </g>
     </g>
    </g>
    <g id="ytick_25">
     <g id="line2d_119">
      <g>
       <use xlink:href="#mc05d28a4e8" x="30.109375" y="31.655625" style="fill: #ffffff; stroke: #ffffff; stroke-width: 0.5"/>
      </g>
     </g>
     <g id="line2d_120">
      <g>
       <use xlink:href="#me8dcbcbe56" x="588.109375" y="31.655625" style="fill: #ffffff; stroke: #ffffff; stroke-width: 0.5"/>
      </g>
     </g>
    </g>
    <g id="text_16">
     <!-- Elevation (degrees) -->
     <g style="fill: #ffffff" transform="translate(10.429688 223.13125) rotate(-90) scale(0.1 -0.1)">
      <defs>
       <path id="STIXGeneral-Regular-45" d="M 3821 1082 
L 3526 0 
L 77 0 
L 77 122 
Q 442 147 538 252 
Q 634 358 634 730 
L 634 3520 
Q 634 3878 534 3987 
Q 435 4096 77 4115 
L 77 4237 
L 3469 4237 
L 3494 3322 
L 3334 3322 
Q 3264 3750 3085 3872 
Q 2906 3994 2349 3994 
L 1510 3994 
Q 1370 3994 1328 3952 
Q 1286 3910 1286 3763 
L 1286 2355 
L 2253 2355 
Q 2656 2355 2787 2470 
Q 2918 2586 2976 2970 
L 3123 2970 
L 3123 1472 
L 2976 1472 
Q 2918 1875 2790 1984 
Q 2662 2093 2253 2093 
L 1286 2093 
L 1286 538 
Q 1286 346 1420 291 
Q 1555 237 1933 237 
L 2163 237 
Q 2848 237 3136 403 
Q 3424 570 3642 1082 
L 3821 1082 
z
" transform="scale(0.015625)"/>
       <path id="STIXGeneral-Regular-6c" d="M 1645 0 
L 134 0 
L 134 96 
Q 435 122 531 221 
Q 627 320 627 589 
L 627 3590 
Q 627 3821 569 3910 
Q 512 4000 358 4000 
Q 224 4000 122 3987 
L 122 4090 
Q 730 4237 1133 4371 
L 1165 4346 
L 1165 557 
Q 1165 288 1254 201 
Q 1344 115 1645 96 
L 1645 0 
z
" transform="scale(0.015625)"/>
       <path id="STIXGeneral-Regular-76" d="M 3053 2880 
L 3053 2784 
Q 2906 2771 2835 2688 
Q 2765 2605 2637 2285 
L 1818 230 
Q 1690 -90 1638 -90 
Q 1587 -90 1523 77 
Q 1510 96 1497 141 
Q 1485 186 1472 211 
L 704 2048 
Q 499 2534 403 2652 
Q 307 2771 122 2784 
L 122 2880 
L 1376 2880 
L 1376 2784 
Q 1210 2771 1146 2732 
Q 1082 2694 1082 2611 
Q 1082 2509 1139 2368 
L 1792 730 
L 2426 2387 
Q 2464 2483 2464 2579 
Q 2464 2758 2163 2784 
L 2163 2880 
L 3053 2880 
z
" transform="scale(0.015625)"/>
       <path id="STIXGeneral-Regular-61" d="M 2829 422 
L 2829 243 
Q 2586 -64 2253 -64 
Q 1888 -64 1843 403 
L 1837 403 
Q 1427 -64 909 -64 
Q 608 -64 422 112 
Q 237 288 237 602 
Q 237 1050 685 1350 
Q 992 1555 1837 1869 
L 1837 2214 
Q 1837 2502 1699 2646 
Q 1562 2790 1338 2790 
Q 1146 2790 1018 2697 
Q 890 2605 890 2477 
Q 890 2419 909 2348 
Q 928 2278 928 2208 
Q 928 2112 841 2029 
Q 755 1946 634 1946 
Q 525 1946 441 2029 
Q 358 2112 358 2240 
Q 358 2547 685 2752 
Q 986 2944 1421 2944 
Q 1939 2944 2176 2656 
Q 2291 2522 2323 2384 
Q 2355 2246 2355 1946 
L 2355 723 
Q 2355 301 2554 301 
Q 2682 301 2829 422 
z
M 1837 813 
L 1837 1715 
Q 1248 1510 1018 1293 
Q 800 1094 800 800 
Q 800 557 921 432 
Q 1043 307 1242 307 
Q 1453 307 1613 410 
Q 1747 506 1792 589 
Q 1837 672 1837 813 
z
" transform="scale(0.015625)"/>
       <path id="STIXGeneral-Regular-74" d="M 1702 493 
L 1786 422 
Q 1478 -64 1011 -64 
Q 448 -64 448 749 
L 448 2675 
L 109 2675 
Q 83 2694 83 2720 
Q 83 2771 192 2842 
Q 435 2982 813 3526 
Q 826 3546 874 3606 
Q 922 3667 941 3706 
Q 986 3706 986 3622 
L 986 2880 
L 1632 2880 
L 1632 2675 
L 986 2675 
L 986 845 
Q 986 538 1062 403 
Q 1139 269 1318 269 
Q 1510 269 1702 493 
z
" transform="scale(0.015625)"/>
       <path id="STIXGeneral-Regular-6f" d="M 3008 1478 
Q 3008 806 2608 371 
Q 2208 -64 1568 -64 
Q 979 -64 582 368 
Q 186 800 186 1459 
Q 186 2125 582 2534 
Q 979 2944 1626 2944 
Q 2221 2944 2614 2537 
Q 3008 2131 3008 1478 
z
M 2432 1306 
Q 2432 2035 2112 2445 
Q 1856 2765 1504 2765 
Q 1171 2765 966 2493 
Q 762 2221 762 1747 
Q 762 928 1101 435 
Q 1318 115 1677 115 
Q 2029 115 2230 432 
Q 2432 749 2432 1306 
z
" transform="scale(0.015625)"/>
       <path id="STIXGeneral-Regular-6e" d="M 3104 0 
L 1773 0 
L 1779 96 
Q 2016 115 2096 233 
Q 2176 352 2176 672 
L 2176 1946 
Q 2176 2592 1709 2592 
Q 1549 2592 1408 2515 
Q 1267 2438 1050 2227 
L 1050 461 
Q 1050 269 1136 192 
Q 1222 115 1466 96 
L 1466 0 
L 115 0 
L 115 96 
Q 358 115 435 214 
Q 512 314 512 602 
L 512 2157 
Q 512 2394 467 2483 
Q 422 2573 288 2573 
Q 160 2573 102 2547 
L 102 2656 
Q 550 2784 979 2944 
L 1030 2925 
L 1030 2426 
L 1037 2426 
Q 1491 2944 1958 2944 
Q 2323 2944 2518 2688 
Q 2714 2432 2714 1958 
L 2714 544 
Q 2714 288 2790 205 
Q 2867 122 3104 96 
L 3104 0 
z
" transform="scale(0.015625)"/>
       <path id="STIXGeneral-Regular-28" d="M 1946 -1030 
L 1869 -1133 
Q 1126 -710 716 32 
Q 307 774 307 1613 
Q 307 3386 1888 4326 
L 1946 4224 
Q 1293 3667 1075 3126 
Q 858 2586 858 1632 
Q 858 685 1082 96 
Q 1306 -493 1946 -1030 
z
" transform="scale(0.015625)"/>
       <path id="STIXGeneral-Regular-64" d="M 3142 269 
L 2202 -64 
L 2176 -45 
L 2176 365 
Q 1869 -64 1357 -64 
Q 826 -64 499 317 
Q 173 698 173 1312 
Q 173 1990 563 2467 
Q 954 2944 1504 2944 
Q 1850 2944 2176 2669 
L 2176 3667 
Q 2176 3866 2118 3930 
Q 2061 3994 1882 3994 
Q 1792 3994 1741 3987 
L 1741 4090 
Q 2323 4243 2682 4371 
L 2714 4358 
L 2714 730 
Q 2714 506 2768 435 
Q 2822 365 2995 365 
Q 3034 365 3142 371 
L 3142 269 
z
M 2176 653 
L 2176 2125 
Q 2176 2381 1981 2573 
Q 1786 2765 1523 2765 
Q 1158 2765 940 2438 
Q 723 2112 723 1568 
Q 723 979 963 624 
Q 1203 269 1606 269 
Q 1907 269 2080 474 
Q 2176 582 2176 653 
z
" transform="scale(0.015625)"/>
       <path id="STIXGeneral-Regular-67" d="M 3008 2483 
L 2477 2483 
Q 2598 2208 2598 1946 
Q 2598 1453 2265 1203 
Q 1933 954 1600 954 
Q 1530 954 1357 973 
L 1235 986 
Q 1107 947 979 812 
Q 851 678 851 582 
Q 851 435 1350 410 
L 2176 371 
Q 2528 358 2739 172 
Q 2950 -13 2950 -314 
Q 2950 -685 2566 -986 
Q 2035 -1395 1286 -1395 
Q 826 -1395 502 -1212 
Q 179 -1030 179 -774 
Q 179 -595 320 -419 
Q 461 -243 806 6 
Q 602 102 534 172 
Q 467 243 467 346 
Q 467 531 762 787 
Q 909 915 1037 1043 
Q 717 1203 579 1401 
Q 442 1600 442 1901 
Q 442 2336 752 2640 
Q 1062 2944 1510 2944 
Q 1766 2944 2022 2848 
L 2163 2797 
Q 2349 2733 2515 2733 
L 3008 2733 
L 3008 2483 
z
M 973 2163 
L 973 2144 
Q 973 1683 1155 1398 
Q 1338 1114 1632 1114 
Q 1850 1114 1978 1270 
Q 2106 1427 2106 1690 
Q 2106 2112 1914 2464 
Q 1754 2765 1446 2765 
Q 1222 2765 1097 2605 
Q 973 2445 973 2163 
z
M 2771 -410 
Q 2771 -230 2595 -163 
Q 2419 -96 1978 -96 
Q 1344 -96 941 -13 
Q 749 -243 688 -348 
Q 627 -454 627 -563 
Q 627 -774 880 -902 
Q 1133 -1030 1555 -1030 
Q 2099 -1030 2435 -860 
Q 2771 -691 2771 -410 
z
" transform="scale(0.015625)"/>
       <path id="STIXGeneral-Regular-72" d="M 1024 2931 
L 1024 2342 
Q 1267 2688 1430 2816 
Q 1594 2944 1792 2944 
Q 1958 2944 2051 2854 
Q 2144 2765 2144 2605 
Q 2144 2470 2077 2393 
Q 2010 2317 1894 2317 
Q 1773 2317 1638 2445 
Q 1536 2541 1472 2541 
Q 1338 2541 1181 2355 
Q 1024 2170 1024 2016 
L 1024 576 
Q 1024 301 1133 205 
Q 1242 109 1568 96 
L 1568 0 
L 32 0 
L 32 96 
Q 339 154 412 224 
Q 486 294 486 538 
L 486 2138 
Q 486 2349 438 2435 
Q 390 2522 269 2522 
Q 166 2522 45 2496 
L 45 2598 
Q 448 2726 992 2944 
L 1024 2931 
z
" transform="scale(0.015625)"/>
       <path id="STIXGeneral-Regular-73" d="M 998 1926 
L 1664 1523 
Q 1984 1331 2105 1164 
Q 2227 998 2227 736 
Q 2227 416 1961 176 
Q 1696 -64 1331 -64 
Q 1030 -64 864 -6 
Q 691 51 570 51 
Q 461 51 416 -26 
L 333 -26 
L 333 979 
L 435 979 
Q 538 512 730 294 
Q 922 77 1248 77 
Q 1485 77 1632 211 
Q 1779 346 1779 550 
Q 1779 845 1440 1030 
L 1094 1222 
Q 326 1651 326 2150 
Q 326 2522 566 2730 
Q 806 2938 1210 2938 
Q 1491 2938 1638 2867 
Q 1754 2816 1818 2816 
Q 1862 2816 1920 2880 
L 1990 2880 
L 2022 2010 
L 1926 2010 
Q 1818 2445 1654 2621 
Q 1491 2797 1203 2797 
Q 986 2797 854 2688 
Q 723 2579 723 2362 
Q 723 2253 796 2128 
Q 870 2003 998 1926 
z
" transform="scale(0.015625)"/>
       <path id="STIXGeneral-Regular-29" d="M 186 4224 
L 262 4326 
Q 992 3891 1408 3148 
Q 1824 2406 1824 1581 
Q 1824 -166 243 -1133 
L 186 -1030 
Q 845 -486 1059 54 
Q 1274 595 1274 1562 
Q 1274 2534 1059 3120 
Q 845 3706 186 4224 
z
" transform="scale(0.015625)"/>
      </defs>
      <use xlink:href="#STIXGeneral-Regular-45"/>
      <use xlink:href="#STIXGeneral-Regular-6c" transform="translate(61.099991 0)"/>
      <use xlink:href="#STIXGeneral-Regular-65" transform="translate(88.899979 0)"/>
      <use xlink:href="#STIXGeneral-Regular-76" transform="translate(133.299973 0)"/>
      <use xlink:href="#STIXGeneral-Regular-61" transform="translate(183.299957 0)"/>
      <use xlink:href="#STIXGeneral-Regular-74" transform="translate(227.699951 0)"/>
      <use xlink:href="#STIXGeneral-Regular-69" transform="translate(255.499939 0)"/>
      <use xlink:href="#STIXGeneral-Regular-6f" transform="translate(283.299927 0)"/>
      <use xlink:href="#STIXGeneral-Regular-6e" transform="translate(333.299911 0)"/>
      <use xlink:href="#STIXGeneral-Regular-20" transform="translate(383.299896 0)"/>
      <use xlink:href="#STIXGeneral-Regular-28" transform="translate(408.299881 0)"/>
      <use xlink:href="#STIXGeneral-Regular-64" transform="translate(441.599869 0)"/>
      <use xlink:href="#STIXGeneral-Regular-65" transform="translate(491.599854 0)"/>
      <use xlink:href="#STIXGeneral-Regular-67" transform="translate(535.999847 0)"/>
      <use xlink:href="#STIXGeneral-Regular-72" transform="translate(585.999832 0)"/>
      <use xlink:href="#STIXGeneral-Regular-65" transform="translate(619.29982 0)"/>
      <use xlink:href="#STIXGeneral-Regular-65" transform="translate(663.699814 0)"/>
      <use xlink:href="#STIXGeneral-Regular-73" transform="translate(708.099808 0)"/>
      <use xlink:href="#STIXGeneral-Regular-29" transform="translate(746.999802 0)"/>
     </g>
    </g>
   </g>
   <g id="line2d_121">
    <path d="M 55.473011 313.475765 
L 62.147661 311.547514 
L 68.822258 309.561686 
L 75.496907 307.514951 
L 82.171557 305.403823 
L 88.846207 303.224592 
L 95.520856 300.973338 
L 102.195506 298.645923 
L 108.870101 296.238018 
L 115.54475 293.745032 
L 122.2194 291.162245 
L 128.89405 288.484753 
L 135.568699 285.707531 
L 142.243349 282.825487 
L 148.917999 279.833542 
L 155.592595 276.726758 
L 162.267245 273.500388 
L 168.941895 270.150209 
L 175.616544 266.672672 
L 182.291194 263.065248 
L 188.965843 259.326823 
L 195.64044 255.458244 
L 202.315089 251.462819 
L 208.989739 247.347263 
L 215.664387 243.122487 
L 222.339037 238.804682 
L 229.013687 234.416505 
L 235.688283 229.98838 
L 242.362933 225.559615 
L 249.037582 221.179722 
L 255.712232 216.909021 
L 262.386881 212.818762 
L 269.061532 208.990233 
L 275.736181 205.512531 
L 282.410777 202.478766 
L 289.085427 199.980533 
L 295.760076 198.101301 
L 302.434726 196.908993 
L 309.109376 196.449238 
L 315.784026 196.740418 
L 322.458621 197.77156 
L 329.13327 199.503625 
L 335.80792 201.873745 
L 342.482569 204.801674 
L 349.157219 208.197086 
L 355.831869 211.966565 
L 362.506465 216.019409 
L 369.181115 220.272007 
L 375.855764 224.65027 
L 382.530414 229.090969 
L 389.205064 233.541839 
L 395.879714 237.96097 
L 402.554308 242.315734 
L 409.228958 246.581689 
L 415.903607 250.741084 
L 422.578257 254.78179 
L 429.252907 258.696168 
L 435.927557 262.480122 
L 442.602206 266.132295 
L 449.276803 269.653378 
L 455.951452 273.045689 
L 462.626102 276.312567 
L 469.300752 279.458155 
L 475.975401 282.4871 
L 482.650051 285.404355 
L 489.324646 288.215 
L 495.999296 290.924215 
L 502.673945 293.537061 
L 509.348595 296.058508 
L 516.023245 298.493371 
L 522.697895 300.84628 
L 529.37249 303.121644 
L 536.04714 305.323714 
L 542.721789 307.45647 
L 549.39644 309.523695 
L 556.071089 311.528961 
L 562.745739 313.475632 
" clip-path="url(#pdda526ae9e)" style="fill: none; stroke: #0c5da5; stroke-width: 2; stroke-linecap: square"/>
   </g>
   <g id="line2d_122">
    <defs>
     <path id="m6720571c8a" d="M 0 3 
C 0.795609 3 1.55874 2.683901 2.12132 2.12132 
C 2.683901 1.55874 3 0.795609 3 0 
C 3 -0.795609 2.683901 -1.55874 2.12132 -2.12132 
C 1.55874 -2.683901 0.795609 -3 0 -3 
C -0.795609 -3 -1.55874 -2.683901 -2.12132 -2.12132 
C -2.683901 -1.55874 -3 -0.795609 -3 0 
C -3 0.795609 -2.683901 1.55874 -2.12132 2.12132 
C -1.55874 2.683901 -0.795609 3 0 3 
z
" style="stroke: #00b945"/>
    </defs>
    <g clip-path="url(#pdda526ae9e)">
     <use xlink:href="#m6720571c8a" x="55.473011" y="313.475765" style="fill: #00b945; stroke: #00b945"/>
    </g>
   </g>
   <g id="line2d_123">
    <defs>
     <path id="mca458267e6" d="M -3 3 
L 3 3 
L 3 -3 
L -3 -3 
z
" style="stroke: #ff9500; stroke-linejoin: miter"/>
    </defs>
    <g clip-path="url(#pdda526ae9e)">
     <use xlink:href="#mca458267e6" x="562.745739" y="313.475632" style="fill: #ff9500; stroke: #ff9500; stroke-linejoin: miter"/>
    </g>
   </g>
   <g id="patch_3">
    <path d="M 30.109375 350.435625 
L 30.109375 17.795625 
" style="fill: none; stroke: #ffffff; stroke-width: 0.5; stroke-linejoin: miter; stroke-linecap: square"/>
   </g>
   <g id="patch_4">
    <path d="M 588.109375 350.435625 
L 588.109375 17.795625 
" style="fill: none; stroke: #ffffff; stroke-width: 0.5; stroke-linejoin: miter; stroke-linecap: square"/>
   </g>
   <g id="patch_5">
    <path d="M 30.109375 350.435625 
L 588.109375 350.435625 
" style="fill: none; stroke: #ffffff; stroke-width: 0.5; stroke-linejoin: miter; stroke-linecap: square"/>
   </g>
   <g id="patch_6">
    <path d="M 30.109375 17.795625 
L 588.109375 17.795625 
" style="fill: none; stroke: #ffffff; stroke-width: 0.5; stroke-linejoin: miter; stroke-linecap: square"/>
   </g>
   <g id="text_17">
    <!-- Elevation Profile -->
    <g style="fill: #ffffff" transform="translate(268.27375 11.795625) scale(0.12 -0.12)">
     <defs>
      <path id="STIXGeneral-Regular-50" d="M 102 4237 
L 1760 4237 
Q 2669 4237 3149 3834 
Q 3469 3565 3469 3072 
Q 3469 2560 3104 2234 
Q 2835 1990 2553 1916 
Q 2272 1843 1734 1843 
Q 1549 1843 1293 1862 
L 1293 717 
Q 1293 352 1398 246 
Q 1504 141 1894 122 
L 1894 0 
L 102 0 
L 102 122 
Q 474 147 557 256 
Q 640 365 640 781 
L 640 3526 
Q 640 3885 547 3987 
Q 454 4090 102 4115 
L 102 4237 
z
M 1293 3770 
L 1293 2118 
Q 1510 2099 1683 2099 
Q 2202 2099 2486 2352 
Q 2771 2605 2771 3040 
Q 2771 3558 2476 3779 
Q 2182 4000 1517 4000 
Q 1382 4000 1337 3952 
Q 1293 3904 1293 3770 
z
" transform="scale(0.015625)"/>
      <path id="STIXGeneral-Regular-66" d="M 134 2880 
L 659 2880 
Q 666 3264 710 3478 
Q 755 3693 883 3910 
Q 1152 4371 1786 4371 
Q 2074 4371 2262 4259 
Q 2451 4147 2451 3974 
Q 2451 3866 2374 3789 
Q 2298 3712 2182 3712 
Q 2029 3712 1894 3942 
Q 1741 4192 1555 4192 
Q 1197 4192 1197 3622 
L 1197 2880 
L 1978 2880 
L 1978 2675 
L 1197 2675 
L 1197 666 
Q 1197 307 1299 208 
Q 1402 109 1792 96 
L 1792 0 
L 128 0 
L 128 96 
Q 474 115 566 214 
Q 659 314 659 666 
L 659 2675 
L 134 2675 
L 134 2880 
z
" transform="scale(0.015625)"/>
     </defs>
     <use xlink:href="#STIXGeneral-Regular-45"/>
     <use xlink:href="#STIXGeneral-Regular-6c" transform="translate(61.099991 0)"/>
     <use xlink:href="#STIXGeneral-Regular-65" transform="translate(88.899979 0)"/>
     <use xlink:href="#STIXGeneral-Regular-76" transform="translate(133.299973 0)"/>
     <use xlink:href="#STIXGeneral-Regular-61" transform="translate(183.299957 0)"/>
     <use xlink:href="#STIXGeneral-Regular-74" transform="translate(227.699951 0)"/>
     <use xlink:href="#STIXGeneral-Regular-69" transform="translate(255.499939 0)"/>
     <use xlink:href="#STIXGeneral-Regular-6f" transform="translate(283.299927 0)"/>
     <use xlink:href="#STIXGeneral-Regular-6e" transform="translate(333.299911 0)"/>
     <use xlink:href="#STIXGeneral-Regular-20" transform="translate(383.299896 0)"/>
     <use xlink:href="#STIXGeneral-Regular-50" transform="translate(408.299881 0)"/>
     <use xlink:href="#STIXGeneral-Regular-72" transform="translate(463.999878 0)"/>
     <use xlink:href="#STIXGeneral-Regular-6f" transform="translate(497.299866 0)"/>
     <use xlink:href="#STIXGeneral-Regular-66" transform="translate(547.29985 0)"/>
     <use xlink:href="#STIXGeneral-Regular-69" transform="translate(580.599838 0)"/>
     <use xlink:href="#STIXGeneral-Regular-6c" transform="translate(608.399826 0)"/>
     <use xlink:href="#STIXGeneral-Regular-65" transform="translate(636.199814 0)"/>
    </g>
   </g>
   <g id="legend_1"/>
  </g>
 </g>
 <defs>
  <clipPath id="pdda526ae9e">
   <rect x="30.109375" y="17.795625" width="558" height="332.64"/>
  </clipPath>
 </defs>
</svg>
