<?xml version="1.0" encoding="utf-8" standalone="no"?>
<!DOCTYPE svg PUBLIC "-//W3C//DTD SVG 1.1//EN"
  "http://www.w3.org/Graphics/SVG/1.1/DTD/svg11.dtd">
<svg xmlns:xlink="http://www.w3.org/1999/xlink" width="489.771563pt" height="508.065625pt" viewBox="0 0 489.771563 508.065625" xmlns="http://www.w3.org/2000/svg" version="1.1">
 <metadata>
  <rdf:RDF xmlns:dc="http://purl.org/dc/elements/1.1/" xmlns:cc="http://creativecommons.org/ns#" xmlns:rdf="http://www.w3.org/1999/02/22-rdf-syntax-ns#">
   <cc:Work>
    <dc:type rdf:resource="http://purl.org/dc/dcmitype/StillImage"/>
    <dc:date>2025-11-20T15:08:40.328387</dc:date>
    <dc:format>image/svg+xml</dc:format>
    <dc:creator>
     <cc:Agent>
      <dc:title>Matplotlib v3.10.6, https://matplotlib.org/</dc:title>
     </cc:Agent>
    </dc:creator>
   </cc:Work>
  </rdf:RDF>
 </metadata>
 <defs>
  <style type="text/css">*{stroke-linejoin: round; stroke-linecap: butt}</style>
 </defs>
 <g id="figure_1">
  <g id="patch_1">
   <path d="M 0 508.065625 
L 489.771563 508.065625 
L 489.771563 0 
L 0 0 
z
" style="fill: #1c1e24"/>
  </g>
  <g id="axes_1">
   <g id="patch_2">
    <path d="M 467.895781 254.888438 
C 467.895781 225.767181 462.159529 196.929092 451.015306 170.02456 
C 439.871084 143.120027 423.535619 118.672276 402.943781 98.080438 
C 382.351943 77.4886 357.904192 61.153135 330.999659 50.008912 
C 304.095126 38.86469 275.257038 33.128438 246.135781 33.128438 
C 217.014525 33.128438 188.176436 38.86469 161.271903 50.008912 
C 134.367371 61.153135 109.919619 77.4886 89.327781 98.080438 
C 68.735944 118.672276 52.400478 143.120027 41.256256 170.02456 
C 30.112034 196.929092 24.375781 225.767181 24.375781 254.888437 
C 24.375781 284.009694 30.112034 312.847783 41.256256 339.752315 
C 52.400478 366.656848 68.735944 391.104599 89.327781 411.696437 
C 109.919619 432.288275 134.367371 448.62374 161.271903 459.767963 
C 188.176436 470.912185 217.014525 476.648438 246.135781 476.648438 
C 275.257038 476.648438 304.095126 470.912185 330.999659 459.767963 
C 357.904192 448.62374 382.351943 432.288275 402.943781 411.696437 
C 423.535619 391.104599 439.871084 366.656848 451.015306 339.752315 
C 462.159529 312.847783 467.895781 284.009694 467.895781 254.888438 
M 246.135781 254.888438 
C 246.135781 254.888438 246.135781 254.888438 246.135781 254.888438 
C 246.135781 254.888438 246.135781 254.888438 246.135781 254.888438 
C 246.135781 254.888438 246.135781 254.888438 246.135781 254.888438 
C 246.135781 254.888438 246.135781 254.888438 246.135781 254.888438 
C 246.135781 254.888438 246.135781 254.888438 246.135781 254.888438 
C 246.135781 254.888438 246.135781 254.888438 246.135781 254.888438 
C 246.135781 254.888438 246.135781 254.888438 246.135781 254.888438 
C 246.135781 254.888438 246.135781 254.888438 246.135781 254.888438 
C 246.135781 254.888438 246.135781 254.888438 246.135781 254.888438 
C 246.135781 254.888438 246.135781 254.888438 246.135781 254.888438 
C 246.135781 254.888438 246.135781 254.888438 246.135781 254.888438 
C 246.135781 254.888438 246.135781 254.888438 246.135781 254.888438 
C 246.135781 254.888438 246.135781 254.888438 246.135781 254.888438 
C 246.135781 254.888438 246.135781 254.888438 246.135781 254.888438 
C 246.135781 254.888438 246.135781 254.888438 246.135781 254.888438 
C 246.135781 254.888438 246.135781 254.888438 246.135781 254.888438 
z
" style="fill: #1c1e24"/>
   </g>
   <g id="matplotlib.axis_1">
    <g id="xtick_1">
     <g id="line2d_1">
      <path d="M 246.135781 254.888437 
L 246.135781 33.128437 
" clip-path="url(#pa327b1b950)" style="fill: none; stroke: #ffffff; stroke-width: 0.5; stroke-linecap: square"/>
     </g>
     <g id="text_1">
      <!-- 0° -->
      <g style="fill: #ffffff" transform="translate(240.86 25.128438) scale(0.1 -0.1)">
       <defs>
        <path id="Cmr10-30" d="M 1600 -141 
Q 816 -141 533 504 
Q 250 1150 250 2041 
Q 250 2597 351 3087 
Q 453 3578 754 3920 
Q 1056 4263 1600 4263 
Q 2022 4263 2290 4056 
Q 2559 3850 2700 3523 
Q 2841 3197 2892 2823 
Q 2944 2450 2944 2041 
Q 2944 1491 2842 1011 
Q 2741 531 2444 195 
Q 2147 -141 1600 -141 
z
M 1600 25 
Q 1956 25 2131 390 
Q 2306 756 2347 1200 
Q 2388 1644 2388 2144 
Q 2388 2625 2347 3031 
Q 2306 3438 2132 3767 
Q 1959 4097 1600 4097 
Q 1238 4097 1063 3765 
Q 888 3434 847 3029 
Q 806 2625 806 2144 
Q 806 1788 823 1472 
Q 841 1156 916 820 
Q 991 484 1158 254 
Q 1325 25 1600 25 
z
" transform="scale(0.015625)"/>
        <path id="Cmr10-b0" d="M 166 0 
L 166 225 
Q 384 225 525 259 
Q 666 294 666 428 
L 666 2534 
L 172 2534 
L 172 2759 
L 666 2759 
L 666 3525 
Q 666 3766 802 3955 
Q 938 4144 1148 4266 
Q 1359 4388 1606 4450 
Q 1853 4513 2081 4513 
Q 2403 4513 2631 4403 
L 2888 4441 
L 2888 428 
Q 2888 294 3028 259 
Q 3169 225 3384 225 
L 3384 0 
L 1941 0 
L 1941 225 
Q 2156 225 2297 259 
Q 2438 294 2438 428 
L 2438 2534 
L 1113 2534 
L 1113 428 
Q 1113 294 1255 259 
Q 1397 225 1613 225 
L 1613 0 
L 166 0 
z
M 1094 2759 
L 2438 2759 
L 2438 3781 
Q 2278 3866 2278 4044 
Q 2278 4225 2425 4300 
Q 2278 4347 2034 4347 
Q 1869 4347 1692 4284 
Q 1516 4222 1386 4112 
Q 1256 4003 1175 3843 
Q 1094 3684 1094 3513 
L 1094 2759 
z
" transform="scale(0.015625)"/>
       </defs>
       <use xlink:href="#Cmr10-30"/>
       <use xlink:href="#Cmr10-b0" transform="translate(50 0)"/>
      </g>
     </g>
    </g>
    <g id="xtick_2">
     <g id="line2d_2">
      <path d="M 246.135781 254.888437 
L 402.943781 98.080438 
" clip-path="url(#pa327b1b950)" style="fill: none; stroke: #ffffff; stroke-width: 0.5; stroke-linecap: square"/>
     </g>
     <g id="text_2">
      <!-- 45° -->
      <g style="fill: #ffffff" transform="translate(402.592621 93.155817) scale(0.1 -0.1)">
       <defs>
        <path id="Cmr10-34" d="M 178 1056 
L 178 1281 
L 2156 4231 
Q 2178 4263 2222 4263 
L 2316 4263 
Q 2388 4263 2388 4191 
L 2388 1281 
L 3016 1281 
L 3016 1056 
L 2388 1056 
L 2388 428 
Q 2388 297 2575 261 
Q 2763 225 3009 225 
L 3009 0 
L 1247 0 
L 1247 225 
Q 1494 225 1681 261 
Q 1869 297 1869 428 
L 1869 1056 
L 178 1056 
z
M 391 1281 
L 1906 1281 
L 1906 3547 
L 391 1281 
z
" transform="scale(0.015625)"/>
        <path id="Cmr10-35" d="M 556 728 
Q 622 541 758 387 
Q 894 234 1080 148 
Q 1266 63 1466 63 
Q 1928 63 2103 422 
Q 2278 781 2278 1294 
Q 2278 1516 2270 1667 
Q 2263 1819 2228 1959 
Q 2169 2184 2020 2353 
Q 1872 2522 1656 2522 
Q 1441 2522 1286 2456 
Q 1131 2391 1034 2303 
Q 938 2216 863 2119 
Q 788 2022 769 2016 
L 697 2016 
Q 681 2016 657 2036 
Q 634 2056 634 2075 
L 634 4213 
Q 634 4228 654 4245 
Q 675 4263 697 4263 
L 716 4263 
Q 1147 4056 1631 4056 
Q 2106 4056 2547 4263 
L 2566 4263 
Q 2588 4263 2606 4247 
Q 2625 4231 2625 4213 
L 2625 4153 
Q 2625 4122 2613 4122 
Q 2394 3831 2064 3668 
Q 1734 3506 1381 3506 
Q 1125 3506 856 3578 
L 856 2369 
Q 1069 2541 1236 2614 
Q 1403 2688 1663 2688 
Q 2016 2688 2295 2484 
Q 2575 2281 2725 1954 
Q 2875 1628 2875 1288 
Q 2875 903 2686 575 
Q 2497 247 2172 53 
Q 1847 -141 1466 -141 
Q 1150 -141 886 21 
Q 622 184 470 459 
Q 319 734 319 1044 
Q 319 1188 412 1278 
Q 506 1369 647 1369 
Q 788 1369 883 1276 
Q 978 1184 978 1044 
Q 978 906 883 811 
Q 788 716 647 716 
Q 625 716 597 720 
Q 569 725 556 728 
z
" transform="scale(0.015625)"/>
       </defs>
       <use xlink:href="#Cmr10-34"/>
       <use xlink:href="#Cmr10-35" transform="translate(50 0)"/>
       <use xlink:href="#Cmr10-b0" transform="translate(100 0)"/>
      </g>
     </g>
    </g>
    <g id="xtick_3">
     <g id="line2d_3">
      <path d="M 246.135781 254.888437 
L 467.895781 254.888437 
" clip-path="url(#pa327b1b950)" style="fill: none; stroke: #ffffff; stroke-width: 0.5; stroke-linecap: square"/>
     </g>
     <g id="text_3">
      <!-- 90° -->
      <g style="fill: #ffffff" transform="translate(470.62 257.388438) scale(0.1 -0.1)">
       <defs>
        <path id="Cmr10-39" d="M 722 269 
Q 897 63 1331 63 
Q 1575 63 1786 228 
Q 1997 394 2113 634 
Q 2247 906 2284 1214 
Q 2322 1522 2322 1978 
Q 2213 1719 2008 1553 
Q 1803 1388 1538 1388 
Q 1166 1388 873 1589 
Q 581 1791 425 2120 
Q 269 2450 269 2822 
Q 269 3206 444 3539 
Q 619 3872 928 4067 
Q 1238 4263 1631 4263 
Q 2019 4263 2280 4052 
Q 2541 3841 2678 3508 
Q 2816 3175 2870 2803 
Q 2925 2431 2925 2069 
Q 2925 1575 2744 1061 
Q 2563 547 2202 203 
Q 1841 -141 1331 -141 
Q 953 -141 690 37 
Q 428 216 428 575 
Q 428 706 517 795 
Q 606 884 738 884 
Q 866 884 955 795 
Q 1044 706 1044 575 
Q 1044 450 953 359 
Q 863 269 738 269 
L 722 269 
z
M 1563 1556 
Q 1825 1556 1992 1732 
Q 2159 1909 2234 2171 
Q 2309 2434 2309 2694 
L 2309 2816 
L 2309 2841 
Q 2309 3322 2168 3700 
Q 2028 4078 1631 4078 
Q 1378 4078 1220 3967 
Q 1063 3856 988 3672 
Q 913 3488 892 3278 
Q 872 3069 872 2822 
Q 872 2459 906 2203 
Q 941 1947 1094 1751 
Q 1247 1556 1563 1556 
z
" transform="scale(0.015625)"/>
       </defs>
       <use xlink:href="#Cmr10-39"/>
       <use xlink:href="#Cmr10-30" transform="translate(50 0)"/>
       <use xlink:href="#Cmr10-b0" transform="translate(100 0)"/>
      </g>
     </g>
    </g>
    <g id="xtick_4">
     <g id="line2d_4">
      <path d="M 246.135781 254.888437 
L 402.943781 411.696437 
" clip-path="url(#pa327b1b950)" style="fill: none; stroke: #ffffff; stroke-width: 0.5; stroke-linecap: square"/>
     </g>
     <g id="text_4">
      <!-- 135° -->
      <g style="fill: #ffffff" transform="translate(400.092621 421.621058) scale(0.1 -0.1)">
       <defs>
        <path id="Cmr10-31" d="M 594 0 
L 594 225 
Q 1394 225 1394 428 
L 1394 3788 
Q 1063 3628 556 3628 
L 556 3853 
Q 1341 3853 1741 4263 
L 1831 4263 
Q 1853 4263 1873 4245 
Q 1894 4228 1894 4206 
L 1894 428 
Q 1894 225 2694 225 
L 2694 0 
L 594 0 
z
" transform="scale(0.015625)"/>
        <path id="Cmr10-33" d="M 609 494 
Q 759 275 1012 169 
Q 1266 63 1556 63 
Q 1928 63 2084 380 
Q 2241 697 2241 1100 
Q 2241 1281 2208 1462 
Q 2175 1644 2097 1800 
Q 2019 1956 1883 2050 
Q 1747 2144 1550 2144 
L 1125 2144 
Q 1069 2144 1069 2203 
L 1069 2259 
Q 1069 2309 1125 2309 
L 1478 2338 
Q 1703 2338 1851 2506 
Q 2000 2675 2069 2917 
Q 2138 3159 2138 3378 
Q 2138 3684 1994 3881 
Q 1850 4078 1556 4078 
Q 1313 4078 1091 3986 
Q 869 3894 738 3706 
Q 750 3709 759 3711 
Q 769 3713 781 3713 
Q 925 3713 1022 3613 
Q 1119 3513 1119 3372 
Q 1119 3234 1022 3134 
Q 925 3034 781 3034 
Q 641 3034 541 3134 
Q 441 3234 441 3372 
Q 441 3647 606 3850 
Q 772 4053 1033 4158 
Q 1294 4263 1556 4263 
Q 1750 4263 1965 4205 
Q 2181 4147 2356 4039 
Q 2531 3931 2642 3762 
Q 2753 3594 2753 3378 
Q 2753 3109 2633 2881 
Q 2513 2653 2303 2487 
Q 2094 2322 1844 2241 
Q 2122 2188 2372 2031 
Q 2622 1875 2773 1631 
Q 2925 1388 2925 1106 
Q 2925 753 2731 467 
Q 2538 181 2222 20 
Q 1906 -141 1556 -141 
Q 1256 -141 954 -26 
Q 653 88 461 316 
Q 269 544 269 863 
Q 269 1022 375 1128 
Q 481 1234 641 1234 
Q 744 1234 830 1186 
Q 916 1138 964 1050 
Q 1013 963 1013 863 
Q 1013 706 903 600 
Q 794 494 641 494 
L 609 494 
z
" transform="scale(0.015625)"/>
       </defs>
       <use xlink:href="#Cmr10-31"/>
       <use xlink:href="#Cmr10-33" transform="translate(50 0)"/>
       <use xlink:href="#Cmr10-35" transform="translate(100 0)"/>
       <use xlink:href="#Cmr10-b0" transform="translate(150 0)"/>
      </g>
     </g>
    </g>
    <g id="xtick_5">
     <g id="line2d_5">
      <path d="M 246.135781 254.888437 
L 246.135781 476.648438 
" clip-path="url(#pa327b1b950)" style="fill: none; stroke: #ffffff; stroke-width: 0.5; stroke-linecap: square"/>
     </g>
     <g id="text_5">
      <!-- 180° -->
      <g style="fill: #ffffff" transform="translate(235.86 489.648438) scale(0.1 -0.1)">
       <defs>
        <path id="Cmr10-38" d="M 269 972 
Q 269 1356 522 1651 
Q 775 1947 1172 2144 
L 934 2297 
Q 716 2441 578 2680 
Q 441 2919 441 3181 
Q 441 3488 602 3734 
Q 763 3981 1030 4122 
Q 1297 4263 1600 4263 
Q 1884 4263 2148 4147 
Q 2413 4031 2583 3815 
Q 2753 3600 2753 3303 
Q 2753 3088 2651 2903 
Q 2550 2719 2373 2572 
Q 2197 2425 1997 2322 
L 2363 2088 
Q 2616 1922 2770 1653 
Q 2925 1384 2925 1088 
Q 2925 741 2739 456 
Q 2553 172 2247 15 
Q 1941 -141 1600 -141 
Q 1269 -141 961 -6 
Q 653 128 461 383 
Q 269 638 269 972 
z
M 616 972 
Q 616 719 755 509 
Q 894 300 1122 181 
Q 1350 63 1600 63 
Q 1972 63 2275 280 
Q 2578 497 2578 856 
Q 2578 978 2529 1098 
Q 2481 1219 2395 1317 
Q 2309 1416 2203 1478 
L 1344 2034 
Q 1144 1928 976 1765 
Q 809 1603 712 1400 
Q 616 1197 616 972 
z
M 1056 2925 
L 1831 2425 
Q 2100 2581 2272 2803 
Q 2444 3025 2444 3303 
Q 2444 3519 2323 3698 
Q 2203 3878 2009 3978 
Q 1816 4078 1594 4078 
Q 1400 4078 1203 4003 
Q 1006 3928 878 3779 
Q 750 3631 750 3431 
Q 750 3131 1056 2925 
z
" transform="scale(0.015625)"/>
       </defs>
       <use xlink:href="#Cmr10-31"/>
       <use xlink:href="#Cmr10-38" transform="translate(50 0)"/>
       <use xlink:href="#Cmr10-30" transform="translate(100 0)"/>
       <use xlink:href="#Cmr10-b0" transform="translate(150 0)"/>
      </g>
     </g>
    </g>
    <g id="xtick_6">
     <g id="line2d_6">
      <path d="M 246.135781 254.888437 
L 89.327781 411.696437 
" clip-path="url(#pa327b1b950)" style="fill: none; stroke: #ffffff; stroke-width: 0.5; stroke-linecap: square"/>
     </g>
     <g id="text_6">
      <!-- 225° -->
      <g style="fill: #ffffff" transform="translate(71.627379 421.621058) scale(0.1 -0.1)">
       <defs>
        <path id="Cmr10-32" d="M 319 0 
L 319 172 
Q 319 188 331 206 
L 1325 1306 
Q 1550 1550 1690 1715 
Q 1831 1881 1968 2097 
Q 2106 2313 2186 2536 
Q 2266 2759 2266 3009 
Q 2266 3272 2169 3511 
Q 2072 3750 1880 3894 
Q 1688 4038 1416 4038 
Q 1138 4038 916 3870 
Q 694 3703 603 3438 
Q 628 3444 672 3444 
Q 816 3444 917 3347 
Q 1019 3250 1019 3097 
Q 1019 2950 917 2848 
Q 816 2747 672 2747 
Q 522 2747 420 2851 
Q 319 2956 319 3097 
Q 319 3338 409 3548 
Q 500 3759 670 3923 
Q 841 4088 1055 4175 
Q 1269 4263 1509 4263 
Q 1875 4263 2190 4108 
Q 2506 3953 2690 3670 
Q 2875 3388 2875 3009 
Q 2875 2731 2753 2481 
Q 2631 2231 2440 2026 
Q 2250 1822 1953 1562 
Q 1656 1303 1563 1216 
L 838 519 
L 1453 519 
Q 1906 519 2211 526 
Q 2516 534 2534 550 
Q 2609 631 2688 1141 
L 2875 1141 
L 2694 0 
L 319 0 
z
" transform="scale(0.015625)"/>
       </defs>
       <use xlink:href="#Cmr10-32"/>
       <use xlink:href="#Cmr10-32" transform="translate(50 0)"/>
       <use xlink:href="#Cmr10-35" transform="translate(100 0)"/>
       <use xlink:href="#Cmr10-b0" transform="translate(150 0)"/>
      </g>
     </g>
    </g>
    <g id="xtick_7">
     <g id="line2d_7">
      <path d="M 246.135781 254.888437 
L 24.375781 254.888438 
" clip-path="url(#pa327b1b950)" style="fill: none; stroke: #ffffff; stroke-width: 0.5; stroke-linecap: square"/>
     </g>
     <g id="text_7">
      <!-- 270° -->
      <g style="fill: #ffffff" transform="translate(3.6 257.388438) scale(0.1 -0.1)">
       <defs>
        <path id="Cmr10-37" d="M 1113 166 
Q 1113 522 1175 862 
Q 1238 1203 1358 1536 
Q 1478 1869 1648 2189 
Q 1819 2509 2022 2791 
L 2606 3603 
L 1875 3603 
Q 738 3603 703 3572 
Q 619 3469 544 2981 
L 359 2981 
L 569 4325 
L 756 4325 
L 756 4306 
Q 756 4191 1147 4156 
Q 1538 4122 1913 4122 
L 3103 4122 
L 3103 3956 
Q 3103 3950 3101 3947 
Q 3100 3944 3097 3938 
L 2216 2700 
Q 1891 2219 1809 1631 
Q 1728 1044 1728 166 
Q 1728 41 1637 -50 
Q 1547 -141 1422 -141 
Q 1294 -141 1203 -50 
Q 1113 41 1113 166 
z
" transform="scale(0.015625)"/>
       </defs>
       <use xlink:href="#Cmr10-32"/>
       <use xlink:href="#Cmr10-37" transform="translate(50 0)"/>
       <use xlink:href="#Cmr10-30" transform="translate(100 0)"/>
       <use xlink:href="#Cmr10-b0" transform="translate(150 0)"/>
      </g>
     </g>
    </g>
    <g id="xtick_8">
     <g id="line2d_8">
      <path d="M 246.135781 254.888437 
L 89.327781 98.080438 
" clip-path="url(#pa327b1b950)" style="fill: none; stroke: #ffffff; stroke-width: 0.5; stroke-linecap: square"/>
     </g>
     <g id="text_8">
      <!-- 315° -->
      <g style="fill: #ffffff" transform="translate(71.627379 93.155817) scale(0.1 -0.1)">
       <use xlink:href="#Cmr10-33"/>
       <use xlink:href="#Cmr10-31" transform="translate(50 0)"/>
       <use xlink:href="#Cmr10-35" transform="translate(100 0)"/>
       <use xlink:href="#Cmr10-b0" transform="translate(150 0)"/>
      </g>
     </g>
    </g>
    <g id="text_9">
     <!-- Azimuth -->
     <g style="fill: #ffffff" transform="translate(227.124844 502.526562) scale(0.1 -0.1)">
      <defs>
       <path id="Cmr10-41" d="M 206 0 
L 206 225 
Q 778 225 909 603 
L 2253 4513 
Q 2272 4581 2356 4581 
L 2438 4581 
Q 2522 4581 2541 4513 
L 3944 428 
Q 4003 294 4170 259 
Q 4338 225 4588 225 
L 4588 0 
L 2803 0 
L 2803 225 
Q 3334 225 3334 397 
L 3334 428 
L 2988 1428 
L 1434 1428 
L 1147 603 
Q 1141 581 1141 538 
Q 1141 378 1292 301 
Q 1444 225 1619 225 
L 1619 0 
L 206 0 
z
M 1509 1650 
L 2913 1650 
L 2209 3694 
L 1509 1650 
z
" transform="scale(0.015625)"/>
       <path id="Cmr10-7a" d="M 250 0 
Q 178 0 178 72 
L 178 122 
Q 178 147 197 166 
L 1984 2591 
L 1409 2591 
Q 1138 2591 961 2556 
Q 784 2522 670 2426 
Q 556 2331 504 2164 
Q 453 1997 453 1703 
L 269 1703 
L 341 2759 
L 2484 2759 
Q 2513 2759 2533 2739 
Q 2553 2719 2553 2688 
L 2553 2650 
Q 2553 2631 2541 2606 
L 750 184 
L 1363 184 
Q 1641 184 1827 218 
Q 2013 253 2144 384 
Q 2266 506 2311 712 
Q 2356 919 2381 1222 
L 2566 1222 
L 2456 0 
L 250 0 
z
" transform="scale(0.015625)"/>
       <path id="Cmr10-69" d="M 197 0 
L 197 225 
Q 416 225 556 259 
Q 697 294 697 428 
L 697 2175 
Q 697 2422 601 2478 
Q 506 2534 225 2534 
L 225 2759 
L 1147 2828 
L 1147 428 
Q 1147 294 1269 259 
Q 1391 225 1594 225 
L 1594 0 
L 197 0 
z
M 469 3928 
Q 469 4069 575 4175 
Q 681 4281 819 4281 
Q 909 4281 993 4234 
Q 1078 4188 1125 4103 
Q 1172 4019 1172 3928 
Q 1172 3791 1065 3684 
Q 959 3578 819 3578 
Q 681 3578 575 3684 
Q 469 3791 469 3928 
z
" transform="scale(0.015625)"/>
       <path id="Cmr10-6d" d="M 191 0 
L 191 225 
Q 409 225 550 259 
Q 691 294 691 428 
L 691 2175 
Q 691 2347 639 2423 
Q 588 2500 491 2517 
Q 394 2534 191 2534 
L 191 2759 
L 1119 2828 
L 1119 2203 
Q 1247 2478 1498 2653 
Q 1750 2828 2047 2828 
Q 2784 2828 2913 2228 
Q 3041 2497 3287 2662 
Q 3534 2828 3828 2828 
Q 4119 2828 4317 2734 
Q 4516 2641 4616 2448 
Q 4716 2256 4716 1966 
L 4716 428 
Q 4716 294 4858 259 
Q 5000 225 5216 225 
L 5216 0 
L 3750 0 
L 3750 225 
Q 3969 225 4109 259 
Q 4250 294 4250 428 
L 4250 1947 
Q 4250 2269 4159 2466 
Q 4069 2663 3788 2663 
Q 3419 2663 3178 2366 
Q 2938 2069 2938 1691 
L 2938 428 
Q 2938 294 3078 259 
Q 3219 225 3438 225 
L 3438 0 
L 1972 0 
L 1972 225 
Q 2191 225 2331 259 
Q 2472 294 2472 428 
L 2472 1947 
Q 2472 2259 2381 2461 
Q 2291 2663 2009 2663 
Q 1638 2663 1398 2366 
Q 1159 2069 1159 1691 
L 1159 428 
Q 1159 294 1300 259 
Q 1441 225 1656 225 
L 1656 0 
L 191 0 
z
" transform="scale(0.015625)"/>
       <path id="Cmr10-75" d="M 691 763 
L 691 2175 
Q 691 2347 639 2423 
Q 588 2500 491 2517 
Q 394 2534 191 2534 
L 191 2759 
L 1159 2828 
L 1159 763 
Q 1159 513 1195 373 
Q 1231 234 1348 165 
Q 1466 97 1722 97 
Q 2066 97 2269 384 
Q 2472 672 2472 1038 
L 2472 2175 
Q 2472 2347 2419 2423 
Q 2366 2500 2270 2517 
Q 2175 2534 1972 2534 
L 1972 2759 
L 2938 2828 
L 2938 581 
Q 2938 413 2989 336 
Q 3041 259 3137 242 
Q 3234 225 3438 225 
L 3438 0 
L 2491 -72 
L 2491 469 
Q 2372 228 2159 78 
Q 1947 -72 1691 -72 
Q 1231 -72 961 123 
Q 691 319 691 763 
z
" transform="scale(0.015625)"/>
       <path id="Cmr10-74" d="M 653 769 
L 653 2534 
L 122 2534 
L 122 2700 
Q 541 2700 737 3090 
Q 934 3481 934 3938 
L 1119 3938 
L 1119 2759 
L 2022 2759 
L 2022 2534 
L 1119 2534 
L 1119 781 
Q 1119 516 1208 316 
Q 1297 116 1528 116 
Q 1747 116 1844 327 
Q 1941 538 1941 781 
L 1941 1159 
L 2125 1159 
L 2125 769 
Q 2125 569 2051 373 
Q 1978 178 1834 53 
Q 1691 -72 1484 -72 
Q 1100 -72 876 158 
Q 653 388 653 769 
z
" transform="scale(0.015625)"/>
       <path id="Cmr10-68" d="M 191 0 
L 191 225 
Q 409 225 550 259 
Q 691 294 691 428 
L 691 3788 
Q 691 3959 639 4036 
Q 588 4113 491 4130 
Q 394 4147 191 4147 
L 191 4372 
L 1141 4441 
L 1141 2241 
Q 1275 2506 1515 2667 
Q 1756 2828 2047 2828 
Q 2491 2828 2714 2615 
Q 2938 2403 2938 1966 
L 2938 428 
Q 2938 294 3078 259 
Q 3219 225 3438 225 
L 3438 0 
L 1972 0 
L 1972 225 
Q 2191 225 2331 259 
Q 2472 294 2472 428 
L 2472 1947 
Q 2472 2259 2381 2461 
Q 2291 2663 2009 2663 
Q 1638 2663 1398 2366 
Q 1159 2069 1159 1691 
L 1159 428 
Q 1159 294 1300 259 
Q 1441 225 1656 225 
L 1656 0 
L 191 0 
z
" transform="scale(0.015625)"/>
      </defs>
      <use xlink:href="#Cmr10-41"/>
      <use xlink:href="#Cmr10-7a" transform="translate(75 0)"/>
      <use xlink:href="#Cmr10-69" transform="translate(119.384766 0)"/>
      <use xlink:href="#Cmr10-6d" transform="translate(147.070312 0)"/>
      <use xlink:href="#Cmr10-75" transform="translate(230.371094 0)"/>
      <use xlink:href="#Cmr10-74" transform="translate(285.888672 0)"/>
      <use xlink:href="#Cmr10-68" transform="translate(324.707031 0)"/>
     </g>
    </g>
   </g>
   <g id="matplotlib.axis_2">
    <g id="ytick_1">
     <g id="line2d_9">
      <path d="M 246.135781 217.928437 
C 250.989324 217.928437 255.795672 218.88448 260.279761 220.74185 
C 264.76385 222.59922 268.838475 225.321798 272.270448 228.753771 
C 275.702421 232.185744 278.424998 236.260369 280.282369 240.744458 
C 282.139739 245.228547 283.095781 250.034895 283.095781 254.888437 
C 283.095781 259.74198 282.139739 264.548328 280.282369 269.032417 
C 278.424998 273.516506 275.702421 277.591131 272.270448 281.023104 
C 268.838475 284.455077 264.76385 287.177655 260.279761 289.035025 
C 255.795672 290.892395 250.989324 291.848437 246.135781 291.848437 
C 241.282239 291.848437 236.47589 290.892395 231.991802 289.035025 
C 227.507713 287.177655 223.433088 284.455077 220.001115 281.023104 
C 216.569142 277.591131 213.846564 273.516506 211.989194 269.032417 
C 210.131823 264.548328 209.175781 259.74198 209.175781 254.888437 
C 209.175781 250.034895 210.131823 245.228547 211.989194 240.744458 
C 213.846564 236.260369 216.569142 232.185744 220.001115 228.753771 
C 223.433088 225.321798 227.507713 222.59922 231.991802 220.74185 
C 236.47589 218.88448 241.282239 217.928437 246.135781 217.928437 
" clip-path="url(#pa327b1b950)" style="fill: none; stroke: #ffffff; stroke-width: 0.5; stroke-linecap: square"/>
     </g>
     <g id="text_10">
      <!-- 75° -->
      <g style="fill: #ffffff" transform="translate(260.279761 218.802787) scale(0.1 -0.1)">
       <use xlink:href="#Cmr10-37"/>
       <use xlink:href="#Cmr10-35" transform="translate(50 0)"/>
       <use xlink:href="#Cmr10-b0" transform="translate(100 0)"/>
      </g>
     </g>
    </g>
    <g id="ytick_2">
     <g id="line2d_10">
      <path d="M 246.135781 180.968437 
C 255.842867 180.968437 265.455563 182.880522 274.423741 186.595262 
C 283.391918 190.310003 291.541169 195.755158 298.405115 202.619104 
C 305.26906 209.48305 310.714216 217.632301 314.428956 226.600478 
C 318.143697 235.568656 320.055781 245.181352 320.055781 254.888437 
C 320.055781 264.595523 318.143697 274.208219 314.428956 283.176397 
C 310.714216 292.144574 305.26906 300.293825 298.405115 307.157771 
C 291.541169 314.021717 283.391918 319.466872 274.423741 323.181613 
C 265.455563 326.896353 255.842867 328.808437 246.135781 328.808437 
C 236.428696 328.808437 226.816 326.896353 217.847822 323.181613 
C 208.879644 319.466872 200.730394 314.021717 193.866448 307.157771 
C 187.002502 300.293825 181.557347 292.144574 177.842606 283.176397 
C 174.127865 274.208219 172.215781 264.595523 172.215781 254.888437 
C 172.215781 245.181352 174.127865 235.568656 177.842606 226.600478 
C 181.557347 217.632301 187.002502 209.48305 193.866448 202.619104 
C 200.730394 195.755158 208.879644 190.310003 217.847822 186.595262 
C 226.816 182.880522 236.428696 180.968437 246.135781 180.968437 
" clip-path="url(#pa327b1b950)" style="fill: none; stroke: #ffffff; stroke-width: 0.5; stroke-linecap: square"/>
     </g>
     <g id="text_11">
      <!-- 60° -->
      <g style="fill: #ffffff" transform="translate(274.423741 184.6562) scale(0.1 -0.1)">
       <defs>
        <path id="Cmr10-36" d="M 1600 -141 
Q 1203 -141 937 70 
Q 672 281 526 617 
Q 381 953 325 1322 
Q 269 1691 269 2069 
Q 269 2575 466 3084 
Q 663 3594 1045 3928 
Q 1428 4263 1953 4263 
Q 2172 4263 2361 4180 
Q 2550 4097 2658 3936 
Q 2766 3775 2766 3547 
Q 2766 3416 2677 3327 
Q 2588 3238 2456 3238 
Q 2331 3238 2240 3328 
Q 2150 3419 2150 3547 
Q 2150 3672 2240 3762 
Q 2331 3853 2456 3853 
L 2491 3853 
Q 2409 3969 2261 4023 
Q 2113 4078 1953 4078 
Q 1759 4078 1595 3993 
Q 1431 3909 1300 3765 
Q 1169 3622 1081 3448 
Q 994 3275 945 3053 
Q 897 2831 884 2637 
Q 872 2444 872 2150 
Q 984 2413 1190 2580 
Q 1397 2747 1656 2747 
Q 1941 2747 2175 2631 
Q 2409 2516 2578 2311 
Q 2747 2106 2836 1843 
Q 2925 1581 2925 1313 
Q 2925 938 2758 598 
Q 2591 259 2287 59 
Q 1984 -141 1600 -141 
z
M 1600 63 
Q 1847 63 1997 175 
Q 2147 288 2217 473 
Q 2288 659 2305 848 
Q 2322 1038 2322 1313 
Q 2322 1675 2287 1931 
Q 2253 2188 2100 2383 
Q 1947 2578 1631 2578 
Q 1372 2578 1205 2403 
Q 1038 2228 961 1961 
Q 884 1694 884 1447 
Q 884 1363 891 1319 
Q 891 1309 889 1303 
Q 888 1297 884 1288 
Q 884 1013 940 731 
Q 997 450 1156 256 
Q 1316 63 1600 63 
z
" transform="scale(0.015625)"/>
       </defs>
       <use xlink:href="#Cmr10-36"/>
       <use xlink:href="#Cmr10-30" transform="translate(50 0)"/>
       <use xlink:href="#Cmr10-b0" transform="translate(100 0)"/>
      </g>
     </g>
    </g>
    <g id="ytick_3">
     <g id="line2d_11">
      <path d="M 246.135781 144.008437 
C 260.696409 144.008437 275.115454 146.876564 288.56772 152.448675 
C 302.019987 158.020786 314.243862 166.188519 324.539781 176.484438 
C 334.8357 186.780357 343.003433 199.004232 348.575544 212.456499 
C 354.147655 225.908765 357.015781 240.327809 357.015781 254.888437 
C 357.015781 269.449066 354.147655 283.86811 348.575544 297.320376 
C 343.003433 310.772643 334.8357 322.996518 324.539781 333.292437 
C 314.243862 343.588356 302.019987 351.756089 288.56772 357.3282 
C 275.115454 362.900311 260.696409 365.768438 246.135781 365.768438 
C 231.575153 365.768438 217.156109 362.900311 203.703842 357.3282 
C 190.251576 351.756089 178.0277 343.588356 167.731781 333.292437 
C 157.435862 322.996518 149.26813 310.772643 143.696019 297.320376 
C 138.123908 283.86811 135.255781 269.449066 135.255781 254.888437 
C 135.255781 240.327809 138.123908 225.908765 143.696019 212.456499 
C 149.26813 199.004232 157.435862 186.780357 167.731781 176.484438 
C 178.0277 166.188519 190.251576 158.020786 203.703842 152.448675 
C 217.156109 146.876564 231.575153 144.008437 246.135781 144.008437 
" clip-path="url(#pa327b1b950)" style="fill: none; stroke: #ffffff; stroke-width: 0.5; stroke-linecap: square"/>
     </g>
     <g id="text_12">
      <!-- 45° -->
      <g style="fill: #ffffff" transform="translate(288.56772 150.509612) scale(0.1 -0.1)">
       <use xlink:href="#Cmr10-34"/>
       <use xlink:href="#Cmr10-35" transform="translate(50 0)"/>
       <use xlink:href="#Cmr10-b0" transform="translate(100 0)"/>
      </g>
     </g>
    </g>
    <g id="ytick_4">
     <g id="line2d_12">
      <path d="M 246.135781 107.048437 
C 265.549952 107.048437 284.775345 110.872606 302.7117 118.302087 
C 320.648055 125.731569 336.946556 136.621879 350.674448 150.349771 
C 364.40234 164.077663 375.29265 180.376164 382.722131 198.312519 
C 390.151613 216.248874 393.975781 235.474267 393.975781 254.888437 
C 393.975781 274.302608 390.151613 293.528001 382.722131 311.464356 
C 375.29265 329.400711 364.40234 345.699212 350.674448 359.427104 
C 336.946556 373.154996 320.648055 384.045306 302.7117 391.474788 
C 284.775345 398.904269 265.549952 402.728437 246.135781 402.728437 
C 226.72161 402.728437 207.496218 398.904269 189.559863 391.474788 
C 171.623507 384.045306 155.325007 373.154996 141.597115 359.427104 
C 127.869223 345.699212 116.978913 329.400711 109.549431 311.464356 
C 102.11995 293.528001 98.295781 274.302608 98.295781 254.888438 
C 98.295781 235.474267 102.11995 216.248874 109.549431 198.312519 
C 116.978913 180.376164 127.869223 164.077663 141.597115 150.349771 
C 155.325007 136.621879 171.623507 125.731569 189.559863 118.302087 
C 207.496218 110.872606 226.72161 107.048437 246.135781 107.048437 
" clip-path="url(#pa327b1b950)" style="fill: none; stroke: #ffffff; stroke-width: 0.5; stroke-linecap: square"/>
     </g>
     <g id="text_13">
      <!-- 30° -->
      <g style="fill: #ffffff" transform="translate(302.7117 116.363025) scale(0.1 -0.1)">
       <use xlink:href="#Cmr10-33"/>
       <use xlink:href="#Cmr10-30" transform="translate(50 0)"/>
       <use xlink:href="#Cmr10-b0" transform="translate(100 0)"/>
      </g>
     </g>
    </g>
    <g id="ytick_5">
     <g id="line2d_13">
      <path d="M 246.135781 70.088437 
C 270.403495 70.088437 294.435236 74.868648 316.85568 84.1555 
C 339.276123 93.442352 359.64925 107.055239 376.809114 124.215104 
C 393.968979 141.374969 407.581867 161.748095 416.868719 184.168539 
C 426.155571 206.588983 430.935781 230.620724 430.935781 254.888437 
C 430.935781 279.156151 426.155571 303.187892 416.868719 325.608336 
C 407.581867 348.02878 393.968979 368.401906 376.809114 385.561771 
C 359.64925 402.721636 339.276123 416.334523 316.85568 425.621375 
C 294.435236 434.908227 270.403495 439.688437 246.135781 439.688437 
C 221.868068 439.688437 197.836327 434.908227 175.415883 425.621375 
C 152.995439 416.334523 132.622313 402.721636 115.462448 385.561771 
C 98.302583 368.401906 84.689696 348.02878 75.402844 325.608336 
C 66.115992 303.187892 61.335781 279.156151 61.335781 254.888438 
C 61.335781 230.620724 66.115992 206.588983 75.402844 184.168539 
C 84.689696 161.748095 98.302583 141.374969 115.462448 124.215104 
C 132.622313 107.055239 152.995439 93.442352 175.415883 84.1555 
C 197.836327 74.868648 221.868068 70.088437 246.135781 70.088437 
" clip-path="url(#pa327b1b950)" style="fill: none; stroke: #ffffff; stroke-width: 0.5; stroke-linecap: square"/>
     </g>
     <g id="text_14">
      <!-- 15° -->
      <g style="fill: #ffffff" transform="translate(316.85568 82.216437) scale(0.1 -0.1)">
       <use xlink:href="#Cmr10-31"/>
       <use xlink:href="#Cmr10-35" transform="translate(50 0)"/>
       <use xlink:href="#Cmr10-b0" transform="translate(100 0)"/>
      </g>
     </g>
    </g>
    <g id="ytick_6">
     <g id="line2d_14">
      <path d="M 246.135781 33.128437 
C 275.257038 33.128437 304.095126 38.86469 330.999659 50.008912 
C 357.904192 61.153135 382.351943 77.4886 402.943781 98.080438 
C 423.535619 118.672276 439.871084 143.120027 451.015306 170.02456 
C 462.159529 196.929092 467.895781 225.767181 467.895781 254.888437 
C 467.895781 284.009694 462.159529 312.847783 451.015306 339.752315 
C 439.871084 366.656848 423.535619 391.104599 402.943781 411.696437 
C 382.351943 432.288275 357.904192 448.62374 330.999659 459.767963 
C 304.095126 470.912185 275.257038 476.648438 246.135781 476.648438 
C 217.014525 476.648438 188.176436 470.912185 161.271903 459.767963 
C 134.367371 448.62374 109.919619 432.288275 89.327781 411.696437 
C 68.735944 391.104599 52.400478 366.656848 41.256256 339.752315 
C 30.112034 312.847783 24.375781 284.009694 24.375781 254.888438 
C 24.375781 225.767181 30.112034 196.929092 41.256256 170.02456 
C 52.400478 143.120027 68.735944 118.672276 89.327781 98.080438 
C 109.919619 77.4886 134.367371 61.153135 161.271903 50.008912 
C 188.176436 38.86469 217.014525 33.128437 246.135781 33.128437 
" clip-path="url(#pa327b1b950)" style="fill: none; stroke: #ffffff; stroke-width: 0.5; stroke-linecap: square"/>
     </g>
     <g id="text_15">
      <!-- 0° -->
      <g style="fill: #ffffff" transform="translate(330.999659 48.06985) scale(0.1 -0.1)">
       <use xlink:href="#Cmr10-30"/>
       <use xlink:href="#Cmr10-b0" transform="translate(50 0)"/>
      </g>
     </g>
    </g>
   </g>
   <g id="line2d_15">
    <path d="M 184.848253 442.238831 
L 186.739415 441.49835 
L 188.69823 440.72531 
L 190.728639 439.91684 
L 192.834798 439.069794 
L 195.02115 438.180685 
L 197.292427 437.24566 
L 199.653662 436.260453 
L 202.110181 435.220349 
L 204.667696 434.120095 
L 207.332188 432.953895 
L 210.109992 431.715314 
L 213.007773 430.397213 
L 216.03251 428.991679 
L 219.191476 427.489943 
L 222.492168 425.882311 
L 225.942361 424.158024 
L 229.549867 422.305253 
L 233.322524 420.310968 
L 237.268031 418.160881 
L 241.393746 415.839395 
L 245.706415 413.329602 
L 250.211998 410.613227 
L 254.915091 407.670828 
L 259.81861 404.481886 
L 264.923231 401.025093 
L 270.226786 397.278759 
L 275.723567 393.221421 
L 281.403809 388.832455 
L 287.252753 384.093234 
L 293.25022 378.988148 
L 299.370134 373.50595 
L 305.580333 367.641176 
L 311.842743 361.39556 
L 318.113942 354.77935 
L 324.346465 347.81204 
L 330.490093 340.523125 
L 336.494052 332.951689 
L 342.309202 325.145515 
L 347.890309 317.15944 
L 353.19806 309.053172 
L 358.200844 300.888419 
L 362.875518 292.726574 
L 367.207929 284.625929 
L 371.192583 276.639634 
L 374.831842 268.814158 
L 378.134715 261.18843 
L 381.115593 253.793272 
L 383.792688 246.651938 
L 386.186811 239.780416 
L 388.320186 233.188285 
L 390.215496 226.879632 
L 391.895121 220.854056 
L 393.380651 215.107386 
L 394.692431 209.632813 
L 395.849393 204.421419 
L 396.868925 199.462851 
L 397.766844 194.745829 
L 398.557422 190.258554 
L 399.253454 185.989062 
L 399.866372 181.925334 
L 400.40632 178.055685 
L 400.88229 174.36875 
L 401.30223 170.853613 
L 401.673152 167.499862 
L 402.001227 164.297649 
L 402.291896 161.237598 
L 402.549935 158.310967 
L 402.779544 155.509526 
L 402.984414 152.825573 
L 403.167788 150.251907 
L 403.332514 147.781827 
L 403.481098 145.409028 
L 403.615739 143.127688 
L 403.738373 140.932366 
L 403.850698 138.817992 
L 403.954213 136.779848 
" clip-path="url(#pa327b1b950)" style="fill: none; stroke: #0c5da5; stroke-width: 2; stroke-linecap: square"/>
   </g>
   <g id="line2d_16">
    <defs>
     <path id="m4698168f63" d="M 0 3 
C 0.795609 3 1.55874 2.683901 2.12132 2.12132 
C 2.683901 1.55874 3 0.795609 3 0 
C 3 -0.795609 2.683901 -1.55874 2.12132 -2.12132 
C 1.55874 -2.683901 0.795609 -3 0 -3 
C -0.795609 -3 -1.55874 -2.683901 -2.12132 -2.12132 
C -2.683901 -1.55874 -3 -0.795609 -3 0 
C -3 0.795609 -2.683901 1.55874 -2.12132 2.12132 
C -1.55874 2.683901 -0.795609 3 0 3 
z
" style="stroke: #00b945"/>
    </defs>
    <g clip-path="url(#pa327b1b950)">
     <use xlink:href="#m4698168f63" x="184.848253" y="442.238831" style="fill: #00b945; stroke: #00b945"/>
    </g>
   </g>
   <g id="line2d_17">
    <defs>
     <path id="mcb31e6bed5" d="M -3 3 
L 3 3 
L 3 -3 
L -3 -3 
z
" style="stroke: #ff9500; stroke-linejoin: miter"/>
    </defs>
    <g clip-path="url(#pa327b1b950)">
     <use xlink:href="#mcb31e6bed5" x="403.954213" y="136.779848" style="fill: #ff9500; stroke: #ff9500; stroke-linejoin: miter"/>
    </g>
   </g>
   <g id="line2d_18">
    <path d="M 257.195499 58.07881 
L 260.360227 59.33627 
L 263.610327 60.668045 
L 266.94741 62.07931 
L 270.37287 63.57553 
L 273.887746 65.162414 
L 277.492837 66.845983 
L 281.188558 68.632514 
L 284.974792 70.52848 
L 288.850994 72.540598 
L 292.816033 74.675749 
L 296.868016 76.940869 
L 301.0044 79.342988 
L 305.221823 81.889097 
L 309.515918 84.58599 
L 313.881447 87.440273 
L 318.312137 90.458181 
L 322.800518 93.64536 
L 327.338103 97.006852 
L 331.915265 100.546865 
L 336.521141 104.268513 
L 341.143888 108.173804 
L 345.770649 112.263399 
L 350.387554 116.536345 
L 354.980086 120.990137 
L 359.533152 125.620515 
L 364.031192 130.421274 
L 368.458645 135.38446 
L 372.800097 140.500281 
L 377.04046 145.757059 
L 381.165459 151.141599 
L 385.161788 156.639251 
L 389.017264 162.234001 
L 392.721231 167.908999 
L 396.264627 173.646723 
L 399.640027 179.429146 
L 402.841881 185.238319 
L 405.866446 191.056541 
L 408.711678 196.866496 
L 411.377308 202.65178 
L 413.864644 208.396976 
L 416.176369 214.087687 
L 418.316499 219.710938 
L 420.290131 225.255119 
L 422.10322 230.709898 
L 423.762488 236.066492 
L 425.275196 241.317506 
L 426.64895 246.456758 
L 427.891627 251.479455 
L 429.0112 256.381981 
L 430.015604 261.161683 
L 430.912697 265.817001 
L 431.710146 270.347243 
L 432.415356 274.752377 
L 433.035458 279.033147 
L 433.577251 283.190865 
L 434.047174 287.227227 
L 434.451313 291.14443 
L 434.795384 294.944997 
L 435.084724 298.631623 
L 435.324317 302.207294 
L 435.518793 305.675149 
L 435.672436 309.038347 
" clip-path="url(#pa327b1b950)" style="fill: none; stroke: #ff2c00; stroke-width: 2; stroke-linecap: square"/>
   </g>
   <g id="line2d_19">
    <defs>
     <path id="mb77577096e" d="M 0 3 
C 0.795609 3 1.55874 2.683901 2.12132 2.12132 
C 2.683901 1.55874 3 0.795609 3 0 
C 3 -0.795609 2.683901 -1.55874 2.12132 -2.12132 
C 1.55874 -2.683901 0.795609 -3 0 -3 
C -0.795609 -3 -1.55874 -2.683901 -2.12132 -2.12132 
C -2.683901 -1.55874 -3 -0.795609 -3 0 
C -3 0.795609 -2.683901 1.55874 -2.12132 2.12132 
C -1.55874 2.683901 -0.795609 3 0 3 
z
" style="stroke: #845b97"/>
    </defs>
    <g clip-path="url(#pa327b1b950)">
     <use xlink:href="#mb77577096e" x="257.195499" y="58.07881" style="fill: #845b97; stroke: #845b97"/>
    </g>
   </g>
   <g id="line2d_20">
    <defs>
     <path id="m85b24dc4be" d="M -3 3 
L 3 3 
L 3 -3 
L -3 -3 
z
" style="stroke: #474747; stroke-linejoin: miter"/>
    </defs>
    <g clip-path="url(#pa327b1b950)">
     <use xlink:href="#m85b24dc4be" x="435.672436" y="309.038347" style="fill: #474747; stroke: #474747; stroke-linejoin: miter"/>
    </g>
   </g>
   <g id="line2d_21">
    <path d="M 52.265543 290.534571 
L 53.706782 294.893603 
L 55.246731 299.301422 
L 56.888268 303.75339 
L 58.63397 308.244376 
L 60.486124 312.768907 
L 62.446592 317.320971 
L 64.516824 321.89418 
L 66.6978 326.48177 
L 68.989992 331.076641 
L 71.393324 335.671398 
L 73.907148 340.258415 
L 76.530221 344.829887 
L 79.260687 349.377905 
L 82.096077 353.89452 
L 85.033311 358.371822 
L 88.068708 362.802014 
L 91.197991 367.177455 
L 94.416417 371.490871 
L 97.718669 375.735216 
L 101.099005 379.903879 
L 104.551293 383.990705 
L 108.069072 387.990047 
L 111.645616 391.896811 
L 115.274009 395.706482 
L 118.947208 399.415151 
L 122.658119 403.019529 
L 126.39966 406.516944 
L 130.164824 409.905342 
L 133.946745 413.183268 
L 137.738711 416.349823 
L 141.534342 419.404731 
L 145.327443 422.348158 
L 149.112164 425.180773 
L 152.882992 427.903684 
L 156.634775 430.518396 
" clip-path="url(#pa327b1b950)" style="fill: none; stroke: #9e9e9e; stroke-width: 2; stroke-linecap: square"/>
   </g>
   <g id="line2d_22">
    <defs>
     <path id="m5e28cbb736" d="M 0 3 
C 0.795609 3 1.55874 2.683901 2.12132 2.12132 
C 2.683901 1.55874 3 0.795609 3 0 
C 3 -0.795609 2.683901 -1.55874 2.12132 -2.12132 
C 1.55874 -2.683901 0.795609 -3 0 -3 
C -0.795609 -3 -1.55874 -2.683901 -2.12132 -2.12132 
C -2.683901 -1.55874 -3 -0.795609 -3 0 
C -3 0.795609 -2.683901 1.55874 -2.12132 2.12132 
C -1.55874 2.683901 -0.795609 3 0 3 
z
" style="stroke: #0c5da5"/>
    </defs>
    <g clip-path="url(#pa327b1b950)">
     <use xlink:href="#m5e28cbb736" x="52.265543" y="290.534571" style="fill: #0c5da5; stroke: #0c5da5"/>
    </g>
   </g>
   <g id="line2d_23">
    <defs>
     <path id="m2b03fa0106" d="M -3 3 
L 3 3 
L 3 -3 
L -3 -3 
z
" style="stroke: #00b945; stroke-linejoin: miter"/>
    </defs>
    <g clip-path="url(#pa327b1b950)">
     <use xlink:href="#m2b03fa0106" x="156.634775" y="430.518396" style="fill: #00b945; stroke: #00b945; stroke-linejoin: miter"/>
    </g>
   </g>
   <g id="patch_3">
    <path d="M 246.135781 33.128437 
C 217.014525 33.128437 188.176436 38.86469 161.271903 50.008912 
C 134.367371 61.153135 109.919619 77.4886 89.327781 98.080438 
C 68.735944 118.672276 52.400478 143.120027 41.256256 170.02456 
C 30.112034 196.929092 24.375781 225.767181 24.375781 254.888438 
C 24.375781 284.009694 30.112034 312.847783 41.256256 339.752315 
C 52.400478 366.656848 68.735944 391.104599 89.327781 411.696437 
C 109.919619 432.288275 134.367371 448.62374 161.271903 459.767963 
C 188.176436 470.912185 217.014525 476.648438 246.135781 476.648438 
C 275.257038 476.648438 304.095126 470.912185 330.999659 459.767963 
C 357.904192 448.62374 382.351943 432.288275 402.943781 411.696437 
C 423.535619 391.104599 439.871084 366.656848 451.015306 339.752315 
C 462.159529 312.847783 467.895781 284.009694 467.895781 254.888437 
C 467.895781 225.767181 462.159529 196.929092 451.015306 170.02456 
C 439.871084 143.120027 423.535619 118.672276 402.943781 98.080438 
C 382.351943 77.4886 357.904192 61.153135 330.999659 50.008912 
C 304.095126 38.86469 275.257038 33.128437 246.135781 33.128437 
" style="fill: none; stroke: #ffffff; stroke-width: 0.5; stroke-linejoin: miter; stroke-linecap: square"/>
   </g>
   <g id="text_16">
    <!-- Access Window Geometry -->
    <g style="fill: #ffffff" transform="translate(177.237031 12.189375) scale(0.12 -0.12)">
     <defs>
      <path id="Cmr10-63" d="M 1594 -72 
Q 1206 -72 890 129 
Q 575 331 394 667 
Q 213 1003 213 1381 
Q 213 1759 392 2106 
Q 572 2453 889 2661 
Q 1206 2869 1594 2869 
Q 1969 2869 2276 2722 
Q 2584 2575 2584 2241 
Q 2584 2116 2495 2023 
Q 2406 1931 2278 1931 
Q 2150 1931 2061 2023 
Q 1972 2116 1972 2241 
Q 1972 2353 2044 2436 
Q 2116 2519 2222 2541 
Q 2000 2681 1600 2681 
Q 1294 2681 1106 2478 
Q 919 2275 844 1975 
Q 769 1675 769 1381 
Q 769 1072 861 783 
Q 953 494 1158 305 
Q 1363 116 1672 116 
Q 1975 116 2187 302 
Q 2400 488 2478 788 
Q 2478 825 2528 825 
L 2606 825 
Q 2625 825 2640 808 
Q 2656 791 2656 769 
L 2656 750 
Q 2559 372 2271 150 
Q 1984 -72 1594 -72 
z
" transform="scale(0.015625)"/>
      <path id="Cmr10-65" d="M 1594 -72 
Q 1203 -72 876 133 
Q 550 338 364 680 
Q 178 1022 178 1403 
Q 178 1778 348 2115 
Q 519 2453 823 2661 
Q 1128 2869 1503 2869 
Q 1797 2869 2014 2770 
Q 2231 2672 2372 2497 
Q 2513 2322 2584 2084 
Q 2656 1847 2656 1563 
Q 2656 1478 2591 1478 
L 738 1478 
L 738 1409 
Q 738 878 952 497 
Q 1166 116 1650 116 
Q 1847 116 2014 203 
Q 2181 291 2304 447 
Q 2428 603 2472 781 
Q 2478 803 2495 820 
Q 2513 838 2534 838 
L 2591 838 
Q 2656 838 2656 756 
Q 2566 394 2266 161 
Q 1966 -72 1594 -72 
z
M 744 1638 
L 2203 1638 
Q 2203 1878 2136 2125 
Q 2069 2372 1912 2536 
Q 1756 2700 1503 2700 
Q 1141 2700 942 2361 
Q 744 2022 744 1638 
z
" transform="scale(0.015625)"/>
      <path id="Cmr10-73" d="M 213 -19 
L 213 1025 
Q 213 1075 269 1075 
L 347 1075 
Q 384 1075 397 1025 
Q 575 97 1259 97 
Q 1563 97 1767 234 
Q 1972 372 1972 659 
Q 1972 866 1812 1011 
Q 1653 1156 1434 1209 
L 1006 1294 
Q 791 1341 614 1437 
Q 438 1534 325 1695 
Q 213 1856 213 2069 
Q 213 2350 361 2529 
Q 509 2709 746 2789 
Q 984 2869 1259 2869 
Q 1588 2869 1831 2694 
L 2016 2853 
Q 2016 2869 2047 2869 
L 2094 2869 
Q 2113 2869 2128 2851 
Q 2144 2834 2144 2816 
L 2144 1978 
Q 2144 1919 2094 1919 
L 2016 1919 
Q 1959 1919 1959 1978 
Q 1959 2313 1773 2516 
Q 1588 2719 1253 2719 
Q 966 2719 755 2612 
Q 544 2506 544 2247 
Q 544 2069 695 1955 
Q 847 1841 1050 1791 
L 1484 1709 
Q 1703 1659 1892 1540 
Q 2081 1422 2192 1240 
Q 2303 1059 2303 831 
Q 2303 600 2223 429 
Q 2144 259 2001 146 
Q 1859 34 1665 -19 
Q 1472 -72 1259 -72 
Q 859 -72 575 197 
L 341 -56 
Q 341 -72 306 -72 
L 269 -72 
Q 213 -72 213 -19 
z
" transform="scale(0.015625)"/>
      <path id="Cmr10-20" transform="scale(0.015625)"/>
      <path id="Cmr10-57" d="M 1991 -72 
L 684 3944 
Q 634 4078 490 4112 
Q 347 4147 116 4147 
L 116 4372 
L 1831 4372 
L 1831 4147 
Q 1294 4147 1294 3975 
L 1294 3944 
L 2316 794 
L 3188 3488 
L 3041 3944 
Q 2991 4078 2847 4112 
Q 2703 4147 2472 4147 
L 2472 4372 
L 4184 4372 
L 4184 4147 
Q 3641 4147 3641 3975 
Q 3641 3966 3647 3947 
Q 3653 3928 3653 3922 
L 4672 794 
L 5631 3769 
Q 5638 3788 5638 3828 
Q 5638 3997 5459 4072 
Q 5281 4147 5088 4147 
L 5088 4372 
L 6456 4372 
L 6456 4147 
Q 5950 4147 5831 3769 
L 4581 -72 
Q 4559 -141 4488 -141 
L 4441 -141 
Q 4369 -141 4347 -72 
L 3291 3188 
L 2228 -72 
Q 2206 -141 2131 -141 
L 2088 -141 
Q 2013 -141 1991 -72 
z
" transform="scale(0.015625)"/>
      <path id="Cmr10-6e" d="M 191 0 
L 191 225 
Q 409 225 550 259 
Q 691 294 691 428 
L 691 2175 
Q 691 2347 639 2423 
Q 588 2500 491 2517 
Q 394 2534 191 2534 
L 191 2759 
L 1119 2828 
L 1119 2203 
Q 1247 2478 1498 2653 
Q 1750 2828 2047 2828 
Q 2491 2828 2714 2615 
Q 2938 2403 2938 1966 
L 2938 428 
Q 2938 294 3078 259 
Q 3219 225 3438 225 
L 3438 0 
L 1972 0 
L 1972 225 
Q 2191 225 2331 259 
Q 2472 294 2472 428 
L 2472 1947 
Q 2472 2259 2381 2461 
Q 2291 2663 2009 2663 
Q 1638 2663 1398 2366 
Q 1159 2069 1159 1691 
L 1159 428 
Q 1159 294 1300 259 
Q 1441 225 1656 225 
L 1656 0 
L 191 0 
z
" transform="scale(0.015625)"/>
      <path id="Cmr10-64" d="M 1563 -72 
Q 1184 -72 871 133 
Q 559 338 386 672 
Q 213 1006 213 1381 
Q 213 1769 402 2101 
Q 591 2434 916 2631 
Q 1241 2828 1631 2828 
Q 1866 2828 2075 2729 
Q 2284 2631 2438 2456 
L 2438 3788 
Q 2438 3959 2386 4036 
Q 2334 4113 2239 4130 
Q 2144 4147 1941 4147 
L 1941 4372 
L 2888 4441 
L 2888 581 
Q 2888 413 2939 336 
Q 2991 259 3086 242 
Q 3181 225 3384 225 
L 3384 0 
L 2419 -72 
L 2419 331 
Q 2253 141 2025 34 
Q 1797 -72 1563 -72 
z
M 909 556 
Q 1019 347 1201 222 
Q 1384 97 1600 97 
Q 1866 97 2087 250 
Q 2309 403 2419 647 
L 2419 2181 
Q 2344 2322 2230 2433 
Q 2116 2544 1973 2603 
Q 1831 2663 1672 2663 
Q 1338 2663 1134 2473 
Q 931 2284 850 1990 
Q 769 1697 769 1375 
Q 769 1119 795 928 
Q 822 738 909 556 
z
" transform="scale(0.015625)"/>
      <path id="Cmr10-6f" d="M 1600 -72 
Q 1216 -72 887 123 
Q 559 319 368 647 
Q 178 975 178 1363 
Q 178 1656 283 1928 
Q 388 2200 583 2414 
Q 778 2628 1037 2748 
Q 1297 2869 1600 2869 
Q 1994 2869 2317 2661 
Q 2641 2453 2828 2104 
Q 3016 1756 3016 1363 
Q 3016 978 2825 648 
Q 2634 319 2307 123 
Q 1981 -72 1600 -72 
z
M 1600 116 
Q 2113 116 2284 487 
Q 2456 859 2456 1434 
Q 2456 1756 2422 1967 
Q 2388 2178 2272 2350 
Q 2200 2456 2089 2536 
Q 1978 2616 1854 2658 
Q 1731 2700 1600 2700 
Q 1400 2700 1220 2609 
Q 1041 2519 922 2350 
Q 803 2169 770 1951 
Q 738 1734 738 1434 
Q 738 1075 800 789 
Q 863 503 1052 309 
Q 1241 116 1600 116 
z
" transform="scale(0.015625)"/>
      <path id="Cmr10-77" d="M 1416 0 
L 588 2328 
Q 531 2469 425 2501 
Q 319 2534 116 2534 
L 116 2759 
L 1434 2759 
L 1434 2534 
Q 1056 2534 1056 2375 
Q 1059 2366 1061 2356 
Q 1063 2347 1063 2328 
L 1678 603 
L 2209 2106 
L 2125 2328 
Q 2075 2469 1965 2501 
Q 1856 2534 1656 2534 
L 1656 2759 
L 2919 2759 
L 2919 2534 
Q 2541 2534 2541 2375 
Q 2541 2350 2547 2328 
L 3188 525 
L 3769 2156 
Q 3781 2206 3781 2247 
Q 3781 2381 3667 2457 
Q 3553 2534 3413 2534 
L 3413 2759 
L 4500 2759 
L 4500 2534 
Q 4306 2534 4167 2432 
Q 4028 2331 3963 2156 
L 3200 0 
Q 3178 -72 3103 -72 
L 3053 -72 
Q 2978 -72 2956 0 
L 2309 1825 
L 1663 0 
Q 1631 -72 1563 -72 
L 1516 -72 
Q 1438 -72 1416 0 
z
" transform="scale(0.015625)"/>
      <path id="Cmr10-47" d="M 1472 684 
Q 1703 403 2036 243 
Q 2369 84 2731 84 
Q 3088 84 3378 265 
Q 3669 447 3669 781 
L 3669 1319 
Q 3669 1522 2869 1522 
L 2869 1747 
L 4703 1747 
L 4703 1522 
Q 4500 1522 4381 1487 
Q 4263 1453 4263 1319 
L 4263 56 
Q 4263 34 4245 17 
Q 4228 0 4206 0 
Q 4147 0 4008 140 
Q 3869 281 3788 391 
Q 3631 122 3297 -9 
Q 2963 -141 2597 -141 
Q 1975 -141 1464 179 
Q 953 500 656 1036 
Q 359 1572 359 2188 
Q 359 2641 531 3069 
Q 703 3497 1011 3822 
Q 1319 4147 1728 4330 
Q 2138 4513 2597 4513 
Q 2928 4513 3223 4370 
Q 3519 4228 3750 3969 
L 4122 4494 
Q 4159 4513 4166 4513 
L 4213 4513 
Q 4231 4513 4247 4497 
Q 4263 4481 4263 4459 
L 4263 2731 
Q 4263 2675 4213 2675 
L 4097 2675 
Q 4038 2675 4038 2731 
Q 4038 2916 3964 3144 
Q 3891 3372 3777 3576 
Q 3663 3781 3513 3938 
Q 3153 4288 2688 4288 
Q 2331 4288 2006 4128 
Q 1681 3969 1459 3688 
Q 1225 3388 1134 3005 
Q 1044 2622 1044 2188 
Q 1044 1206 1472 684 
z
" transform="scale(0.015625)"/>
      <path id="Cmr10-72" d="M 166 0 
L 166 225 
Q 384 225 525 259 
Q 666 294 666 428 
L 666 2175 
Q 666 2347 614 2423 
Q 563 2500 466 2517 
Q 369 2534 166 2534 
L 166 2759 
L 1081 2828 
L 1081 2203 
Q 1184 2481 1375 2654 
Q 1566 2828 1838 2828 
Q 2028 2828 2178 2715 
Q 2328 2603 2328 2419 
Q 2328 2303 2245 2217 
Q 2163 2131 2041 2131 
Q 1922 2131 1837 2215 
Q 1753 2300 1753 2419 
Q 1753 2591 1875 2663 
L 1838 2663 
Q 1578 2663 1414 2475 
Q 1250 2288 1181 2009 
Q 1113 1731 1113 1478 
L 1113 428 
Q 1113 225 1734 225 
L 1734 0 
L 166 0 
z
" transform="scale(0.015625)"/>
      <path id="Cmr10-79" d="M 441 -1050 
Q 563 -1147 709 -1147 
Q 1113 -1147 1369 -538 
L 1588 0 
L 628 2350 
Q 569 2469 447 2501 
Q 325 2534 122 2534 
L 122 2759 
L 1466 2759 
L 1466 2534 
Q 1113 2534 1113 2381 
Q 1113 2356 1119 2344 
L 1831 594 
L 2472 2169 
Q 2491 2219 2491 2278 
Q 2491 2356 2448 2414 
Q 2406 2472 2339 2503 
Q 2272 2534 2188 2534 
L 2188 2759 
L 3250 2759 
L 3250 2534 
Q 3053 2534 2904 2443 
Q 2756 2353 2675 2175 
L 1569 -538 
Q 1481 -744 1364 -917 
Q 1247 -1091 1078 -1202 
Q 909 -1313 709 -1313 
Q 475 -1313 298 -1158 
Q 122 -1003 122 -775 
Q 122 -656 203 -575 
Q 284 -494 403 -494 
Q 484 -494 548 -530 
Q 613 -566 648 -628 
Q 684 -691 684 -775 
Q 684 -878 615 -959 
Q 547 -1041 441 -1050 
z
" transform="scale(0.015625)"/>
     </defs>
     <use xlink:href="#Cmr10-41"/>
     <use xlink:href="#Cmr10-63" transform="translate(75 0)"/>
     <use xlink:href="#Cmr10-63" transform="translate(119.384766 0)"/>
     <use xlink:href="#Cmr10-65" transform="translate(163.769531 0)"/>
     <use xlink:href="#Cmr10-73" transform="translate(208.154297 0)"/>
     <use xlink:href="#Cmr10-73" transform="translate(247.558594 0)"/>
     <use xlink:href="#Cmr10-20" transform="translate(286.962891 0)"/>
     <use xlink:href="#Cmr10-57" transform="translate(320.263672 0)"/>
     <use xlink:href="#Cmr10-69" transform="translate(422.949219 0)"/>
     <use xlink:href="#Cmr10-6e" transform="translate(450.634766 0)"/>
     <use xlink:href="#Cmr10-64" transform="translate(506.152344 0)"/>
     <use xlink:href="#Cmr10-6f" transform="translate(561.669922 0)"/>
     <use xlink:href="#Cmr10-77" transform="translate(611.669922 0)"/>
     <use xlink:href="#Cmr10-20" transform="translate(683.886719 0)"/>
     <use xlink:href="#Cmr10-47" transform="translate(717.1875 0)"/>
     <use xlink:href="#Cmr10-65" transform="translate(795.605469 0)"/>
     <use xlink:href="#Cmr10-6f" transform="translate(839.990234 0)"/>
     <use xlink:href="#Cmr10-6d" transform="translate(889.990234 0)"/>
     <use xlink:href="#Cmr10-65" transform="translate(973.291016 0)"/>
     <use xlink:href="#Cmr10-74" transform="translate(1017.675781 0)"/>
     <use xlink:href="#Cmr10-72" transform="translate(1056.494141 0)"/>
     <use xlink:href="#Cmr10-79" transform="translate(1095.605469 0)"/>
    </g>
   </g>
   <g id="legend_1">
    <g id="line2d_24">
     <path d="M 393.867656 45.628437 
L 403.867656 45.628437 
L 413.867656 45.628437 
" style="fill: none; stroke: #0c5da5; stroke-width: 2; stroke-linecap: square"/>
    </g>
    <g id="text_17">
     <!-- Access 1 -->
     <g style="fill: #ffffff" transform="translate(421.867656 49.128437) scale(0.1 -0.1)">
      <use xlink:href="#Cmr10-41"/>
      <use xlink:href="#Cmr10-63" transform="translate(75 0)"/>
      <use xlink:href="#Cmr10-63" transform="translate(119.384766 0)"/>
      <use xlink:href="#Cmr10-65" transform="translate(163.769531 0)"/>
      <use xlink:href="#Cmr10-73" transform="translate(208.154297 0)"/>
      <use xlink:href="#Cmr10-73" transform="translate(247.558594 0)"/>
      <use xlink:href="#Cmr10-20" transform="translate(286.962891 0)"/>
      <use xlink:href="#Cmr10-31" transform="translate(320.263672 0)"/>
     </g>
    </g>
    <g id="line2d_25">
     <path d="M 393.867656 59.5675 
L 403.867656 59.5675 
L 413.867656 59.5675 
" style="fill: none; stroke: #ff2c00; stroke-width: 2; stroke-linecap: square"/>
    </g>
    <g id="text_18">
     <!-- Access 2 -->
     <g style="fill: #ffffff" transform="translate(421.867656 63.0675) scale(0.1 -0.1)">
      <use xlink:href="#Cmr10-41"/>
      <use xlink:href="#Cmr10-63" transform="translate(75 0)"/>
      <use xlink:href="#Cmr10-63" transform="translate(119.384766 0)"/>
      <use xlink:href="#Cmr10-65" transform="translate(163.769531 0)"/>
      <use xlink:href="#Cmr10-73" transform="translate(208.154297 0)"/>
      <use xlink:href="#Cmr10-73" transform="translate(247.558594 0)"/>
      <use xlink:href="#Cmr10-20" transform="translate(286.962891 0)"/>
      <use xlink:href="#Cmr10-32" transform="translate(320.263672 0)"/>
     </g>
    </g>
    <g id="line2d_26">
     <path d="M 393.867656 73.506562 
L 403.867656 73.506562 
L 413.867656 73.506562 
" style="fill: none; stroke: #9e9e9e; stroke-width: 2; stroke-linecap: square"/>
    </g>
    <g id="text_19">
     <!-- Access 3 -->
     <g style="fill: #ffffff" transform="translate(421.867656 77.006562) scale(0.1 -0.1)">
      <use xlink:href="#Cmr10-41"/>
      <use xlink:href="#Cmr10-63" transform="translate(75 0)"/>
      <use xlink:href="#Cmr10-63" transform="translate(119.384766 0)"/>
      <use xlink:href="#Cmr10-65" transform="translate(163.769531 0)"/>
      <use xlink:href="#Cmr10-73" transform="translate(208.154297 0)"/>
      <use xlink:href="#Cmr10-73" transform="translate(247.558594 0)"/>
      <use xlink:href="#Cmr10-20" transform="translate(286.962891 0)"/>
      <use xlink:href="#Cmr10-33" transform="translate(320.263672 0)"/>
     </g>
    </g>
   </g>
  </g>
 </g>
 <defs>
  <clipPath id="pa327b1b950">
   <path d="M 467.895781 254.888438 
C 467.895781 225.767181 462.159529 196.929092 451.015306 170.02456 
C 439.871084 143.120027 423.535619 118.672276 402.943781 98.080438 
C 382.351943 77.4886 357.904192 61.153135 330.999659 50.008912 
C 304.095126 38.86469 275.257038 33.128438 246.135781 33.128438 
C 217.014525 33.128438 188.176436 38.86469 161.271903 50.008912 
C 134.367371 61.153135 109.919619 77.4886 89.327781 98.080438 
C 68.735944 118.672276 52.400478 143.120027 41.256256 170.02456 
C 30.112034 196.929092 24.375781 225.767181 24.375781 254.888437 
C 24.375781 284.009694 30.112034 312.847783 41.256256 339.752315 
C 52.400478 366.656848 68.735944 391.104599 89.327781 411.696437 
C 109.919619 432.288275 134.367371 448.62374 161.271903 459.767963 
C 188.176436 470.912185 217.014525 476.648438 246.135781 476.648438 
C 275.257038 476.648438 304.095126 470.912185 330.999659 459.767963 
C 357.904192 448.62374 382.351943 432.288275 402.943781 411.696437 
C 423.535619 391.104599 439.871084 366.656848 451.015306 339.752315 
C 462.159529 312.847783 467.895781 284.009694 467.895781 254.888438 
M 246.135781 254.888438 
C 246.135781 254.888438 246.135781 254.888438 246.135781 254.888438 
C 246.135781 254.888438 246.135781 254.888438 246.135781 254.888438 
C 246.135781 254.888438 246.135781 254.888438 246.135781 254.888438 
C 246.135781 254.888438 246.135781 254.888438 246.135781 254.888438 
C 246.135781 254.888438 246.135781 254.888438 246.135781 254.888438 
C 246.135781 254.888438 246.135781 254.888438 246.135781 254.888438 
C 246.135781 254.888438 246.135781 254.888438 246.135781 254.888438 
C 246.135781 254.888438 246.135781 254.888438 246.135781 254.888438 
C 246.135781 254.888438 246.135781 254.888438 246.135781 254.888438 
C 246.135781 254.888438 246.135781 254.888438 246.135781 254.888438 
C 246.135781 254.888438 246.135781 254.888438 246.135781 254.888438 
C 246.135781 254.888438 246.135781 254.888438 246.135781 254.888438 
C 246.135781 254.888438 246.135781 254.888438 246.135781 254.888438 
C 246.135781 254.888438 246.135781 254.888438 246.135781 254.888438 
C 246.135781 254.888438 246.135781 254.888438 246.135781 254.888438 
C 246.135781 254.888438 246.135781 254.888438 246.135781 254.888438 
z
"/>
  </clipPath>
 </defs>
</svg>
