<?xml version="1.0" encoding="utf-8" standalone="no"?>
<!DOCTYPE svg PUBLIC "-//W3C//DTD SVG 1.1//EN"
  "http://www.w3.org/Graphics/SVG/1.1/DTD/svg11.dtd">
<svg xmlns:xlink="http://www.w3.org/1999/xlink" width="609.276608pt" height="379.423125pt" viewBox="0 0 609.276608 379.423125" xmlns="http://www.w3.org/2000/svg" version="1.1">
 <metadata>
  <rdf:RDF xmlns:dc="http://purl.org/dc/elements/1.1/" xmlns:cc="http://creativecommons.org/ns#" xmlns:rdf="http://www.w3.org/1999/02/22-rdf-syntax-ns#">
   <cc:Work>
    <dc:type rdf:resource="http://purl.org/dc/dcmitype/StillImage"/>
    <dc:date>2025-11-07T17:31:27.385227</dc:date>
    <dc:format>image/svg+xml</dc:format>
    <dc:creator>
     <cc:Agent>
      <dc:title>Matplotlib v3.10.6, https://matplotlib.org/</dc:title>
     </cc:Agent>
    </dc:creator>
   </cc:Work>
  </rdf:RDF>
 </metadata>
 <defs>
  <style type="text/css">*{stroke-linejoin: round; stroke-linecap: butt}</style>
 </defs>
 <g id="figure_1">
  <g id="patch_1">
   <path d="M 0 379.423125 
L 609.276608 379.423125 
L 609.276608 0 
L 0 0 
z
" style="fill: #1c1e24"/>
  </g>
  <g id="axes_1">
   <g id="patch_2">
    <path d="M 31.1 350.566875 
L 589.1 350.566875 
L 589.1 17.926875 
L 31.1 17.926875 
z
" style="fill: #1c1e24"/>
   </g>
   <g id="matplotlib.axis_1">
    <g id="xtick_1">
     <g id="line2d_1">
      <path d="M 107.316688 350.566875 
L 107.316688 17.926875 
" clip-path="url(#p2e3eac24fb)" style="fill: none; stroke: #ffffff; stroke-width: 0.5; stroke-linecap: square"/>
     </g>
     <g id="line2d_2">
      <defs>
       <path id="m0481de349e" d="M 0 0 
L 0 -3 
" style="stroke: #ffffff; stroke-width: 0.5"/>
      </defs>
      <g>
       <use xlink:href="#m0481de349e" x="107.316688" y="350.566875" style="fill: #ffffff; stroke: #ffffff; stroke-width: 0.5"/>
      </g>
     </g>
     <g id="line2d_3">
      <defs>
       <path id="m41f269b5c0" d="M 0 0 
L 0 3 
" style="stroke: #ffffff; stroke-width: 0.5"/>
      </defs>
      <g>
       <use xlink:href="#m41f269b5c0" x="107.316688" y="17.926875" style="fill: #ffffff; stroke: #ffffff; stroke-width: 0.5"/>
      </g>
     </g>
     <g id="text_1">
      <!-- 02 19:23 -->
      <g style="fill: #ffffff" transform="translate(89.267469 361.005937) scale(0.1 -0.1)">
       <defs>
        <path id="Cmr10-30" d="M 1600 -141 
Q 816 -141 533 504 
Q 250 1150 250 2041 
Q 250 2597 351 3087 
Q 453 3578 754 3920 
Q 1056 4263 1600 4263 
Q 2022 4263 2290 4056 
Q 2559 3850 2700 3523 
Q 2841 3197 2892 2823 
Q 2944 2450 2944 2041 
Q 2944 1491 2842 1011 
Q 2741 531 2444 195 
Q 2147 -141 1600 -141 
z
M 1600 25 
Q 1956 25 2131 390 
Q 2306 756 2347 1200 
Q 2388 1644 2388 2144 
Q 2388 2625 2347 3031 
Q 2306 3438 2132 3767 
Q 1959 4097 1600 4097 
Q 1238 4097 1063 3765 
Q 888 3434 847 3029 
Q 806 2625 806 2144 
Q 806 1788 823 1472 
Q 841 1156 916 820 
Q 991 484 1158 254 
Q 1325 25 1600 25 
z
" transform="scale(0.015625)"/>
        <path id="Cmr10-32" d="M 319 0 
L 319 172 
Q 319 188 331 206 
L 1325 1306 
Q 1550 1550 1690 1715 
Q 1831 1881 1968 2097 
Q 2106 2313 2186 2536 
Q 2266 2759 2266 3009 
Q 2266 3272 2169 3511 
Q 2072 3750 1880 3894 
Q 1688 4038 1416 4038 
Q 1138 4038 916 3870 
Q 694 3703 603 3438 
Q 628 3444 672 3444 
Q 816 3444 917 3347 
Q 1019 3250 1019 3097 
Q 1019 2950 917 2848 
Q 816 2747 672 2747 
Q 522 2747 420 2851 
Q 319 2956 319 3097 
Q 319 3338 409 3548 
Q 500 3759 670 3923 
Q 841 4088 1055 4175 
Q 1269 4263 1509 4263 
Q 1875 4263 2190 4108 
Q 2506 3953 2690 3670 
Q 2875 3388 2875 3009 
Q 2875 2731 2753 2481 
Q 2631 2231 2440 2026 
Q 2250 1822 1953 1562 
Q 1656 1303 1563 1216 
L 838 519 
L 1453 519 
Q 1906 519 2211 526 
Q 2516 534 2534 550 
Q 2609 631 2688 1141 
L 2875 1141 
L 2694 0 
L 319 0 
z
" transform="scale(0.015625)"/>
        <path id="Cmr10-20" transform="scale(0.015625)"/>
        <path id="Cmr10-31" d="M 594 0 
L 594 225 
Q 1394 225 1394 428 
L 1394 3788 
Q 1063 3628 556 3628 
L 556 3853 
Q 1341 3853 1741 4263 
L 1831 4263 
Q 1853 4263 1873 4245 
Q 1894 4228 1894 4206 
L 1894 428 
Q 1894 225 2694 225 
L 2694 0 
L 594 0 
z
" transform="scale(0.015625)"/>
        <path id="Cmr10-39" d="M 722 269 
Q 897 63 1331 63 
Q 1575 63 1786 228 
Q 1997 394 2113 634 
Q 2247 906 2284 1214 
Q 2322 1522 2322 1978 
Q 2213 1719 2008 1553 
Q 1803 1388 1538 1388 
Q 1166 1388 873 1589 
Q 581 1791 425 2120 
Q 269 2450 269 2822 
Q 269 3206 444 3539 
Q 619 3872 928 4067 
Q 1238 4263 1631 4263 
Q 2019 4263 2280 4052 
Q 2541 3841 2678 3508 
Q 2816 3175 2870 2803 
Q 2925 2431 2925 2069 
Q 2925 1575 2744 1061 
Q 2563 547 2202 203 
Q 1841 -141 1331 -141 
Q 953 -141 690 37 
Q 428 216 428 575 
Q 428 706 517 795 
Q 606 884 738 884 
Q 866 884 955 795 
Q 1044 706 1044 575 
Q 1044 450 953 359 
Q 863 269 738 269 
L 722 269 
z
M 1563 1556 
Q 1825 1556 1992 1732 
Q 2159 1909 2234 2171 
Q 2309 2434 2309 2694 
L 2309 2816 
L 2309 2841 
Q 2309 3322 2168 3700 
Q 2028 4078 1631 4078 
Q 1378 4078 1220 3967 
Q 1063 3856 988 3672 
Q 913 3488 892 3278 
Q 872 3069 872 2822 
Q 872 2459 906 2203 
Q 941 1947 1094 1751 
Q 1247 1556 1563 1556 
z
" transform="scale(0.015625)"/>
        <path id="Cmr10-3a" d="M 538 353 
Q 538 497 644 600 
Q 750 703 891 703 
Q 978 703 1062 656 
Q 1147 609 1194 525 
Q 1241 441 1241 353 
Q 1241 213 1137 106 
Q 1034 0 891 0 
Q 750 0 644 106 
Q 538 213 538 353 
z
M 538 2406 
Q 538 2497 584 2578 
Q 631 2659 714 2709 
Q 797 2759 891 2759 
Q 981 2759 1064 2709 
Q 1147 2659 1194 2578 
Q 1241 2497 1241 2406 
Q 1241 2263 1139 2158 
Q 1038 2053 891 2053 
Q 747 2053 642 2158 
Q 538 2263 538 2406 
z
" transform="scale(0.015625)"/>
        <path id="Cmr10-33" d="M 609 494 
Q 759 275 1012 169 
Q 1266 63 1556 63 
Q 1928 63 2084 380 
Q 2241 697 2241 1100 
Q 2241 1281 2208 1462 
Q 2175 1644 2097 1800 
Q 2019 1956 1883 2050 
Q 1747 2144 1550 2144 
L 1125 2144 
Q 1069 2144 1069 2203 
L 1069 2259 
Q 1069 2309 1125 2309 
L 1478 2338 
Q 1703 2338 1851 2506 
Q 2000 2675 2069 2917 
Q 2138 3159 2138 3378 
Q 2138 3684 1994 3881 
Q 1850 4078 1556 4078 
Q 1313 4078 1091 3986 
Q 869 3894 738 3706 
Q 750 3709 759 3711 
Q 769 3713 781 3713 
Q 925 3713 1022 3613 
Q 1119 3513 1119 3372 
Q 1119 3234 1022 3134 
Q 925 3034 781 3034 
Q 641 3034 541 3134 
Q 441 3234 441 3372 
Q 441 3647 606 3850 
Q 772 4053 1033 4158 
Q 1294 4263 1556 4263 
Q 1750 4263 1965 4205 
Q 2181 4147 2356 4039 
Q 2531 3931 2642 3762 
Q 2753 3594 2753 3378 
Q 2753 3109 2633 2881 
Q 2513 2653 2303 2487 
Q 2094 2322 1844 2241 
Q 2122 2188 2372 2031 
Q 2622 1875 2773 1631 
Q 2925 1388 2925 1106 
Q 2925 753 2731 467 
Q 2538 181 2222 20 
Q 1906 -141 1556 -141 
Q 1256 -141 954 -26 
Q 653 88 461 316 
Q 269 544 269 863 
Q 269 1022 375 1128 
Q 481 1234 641 1234 
Q 744 1234 830 1186 
Q 916 1138 964 1050 
Q 1013 963 1013 863 
Q 1013 706 903 600 
Q 794 494 641 494 
L 609 494 
z
" transform="scale(0.015625)"/>
       </defs>
       <use xlink:href="#Cmr10-30"/>
       <use xlink:href="#Cmr10-32" transform="translate(50 0)"/>
       <use xlink:href="#Cmr10-20" transform="translate(100 0)"/>
       <use xlink:href="#Cmr10-31" transform="translate(133.300781 0)"/>
       <use xlink:href="#Cmr10-39" transform="translate(183.300781 0)"/>
       <use xlink:href="#Cmr10-3a" transform="translate(233.300781 0)"/>
       <use xlink:href="#Cmr10-32" transform="translate(260.986328 0)"/>
       <use xlink:href="#Cmr10-33" transform="translate(310.986328 0)"/>
      </g>
     </g>
    </g>
    <g id="xtick_2">
     <g id="line2d_4">
      <path d="M 187.368472 350.566875 
L 187.368472 17.926875 
" clip-path="url(#p2e3eac24fb)" style="fill: none; stroke: #ffffff; stroke-width: 0.5; stroke-linecap: square"/>
     </g>
     <g id="line2d_5">
      <g>
       <use xlink:href="#m0481de349e" x="187.368472" y="350.566875" style="fill: #ffffff; stroke: #ffffff; stroke-width: 0.5"/>
      </g>
     </g>
     <g id="line2d_6">
      <g>
       <use xlink:href="#m41f269b5c0" x="187.368472" y="17.926875" style="fill: #ffffff; stroke: #ffffff; stroke-width: 0.5"/>
      </g>
     </g>
     <g id="text_2">
      <!-- 02 19:24 -->
      <g style="fill: #ffffff" transform="translate(169.319253 361.005937) scale(0.1 -0.1)">
       <defs>
        <path id="Cmr10-34" d="M 178 1056 
L 178 1281 
L 2156 4231 
Q 2178 4263 2222 4263 
L 2316 4263 
Q 2388 4263 2388 4191 
L 2388 1281 
L 3016 1281 
L 3016 1056 
L 2388 1056 
L 2388 428 
Q 2388 297 2575 261 
Q 2763 225 3009 225 
L 3009 0 
L 1247 0 
L 1247 225 
Q 1494 225 1681 261 
Q 1869 297 1869 428 
L 1869 1056 
L 178 1056 
z
M 391 1281 
L 1906 1281 
L 1906 3547 
L 391 1281 
z
" transform="scale(0.015625)"/>
       </defs>
       <use xlink:href="#Cmr10-30"/>
       <use xlink:href="#Cmr10-32" transform="translate(50 0)"/>
       <use xlink:href="#Cmr10-20" transform="translate(100 0)"/>
       <use xlink:href="#Cmr10-31" transform="translate(133.300781 0)"/>
       <use xlink:href="#Cmr10-39" transform="translate(183.300781 0)"/>
       <use xlink:href="#Cmr10-3a" transform="translate(233.300781 0)"/>
       <use xlink:href="#Cmr10-32" transform="translate(260.986328 0)"/>
       <use xlink:href="#Cmr10-34" transform="translate(310.986328 0)"/>
      </g>
     </g>
    </g>
    <g id="xtick_3">
     <g id="line2d_7">
      <path d="M 267.420255 350.566875 
L 267.420255 17.926875 
" clip-path="url(#p2e3eac24fb)" style="fill: none; stroke: #ffffff; stroke-width: 0.5; stroke-linecap: square"/>
     </g>
     <g id="line2d_8">
      <g>
       <use xlink:href="#m0481de349e" x="267.420255" y="350.566875" style="fill: #ffffff; stroke: #ffffff; stroke-width: 0.5"/>
      </g>
     </g>
     <g id="line2d_9">
      <g>
       <use xlink:href="#m41f269b5c0" x="267.420255" y="17.926875" style="fill: #ffffff; stroke: #ffffff; stroke-width: 0.5"/>
      </g>
     </g>
     <g id="text_3">
      <!-- 02 19:25 -->
      <g style="fill: #ffffff" transform="translate(249.371036 361.005937) scale(0.1 -0.1)">
       <defs>
        <path id="Cmr10-35" d="M 556 728 
Q 622 541 758 387 
Q 894 234 1080 148 
Q 1266 63 1466 63 
Q 1928 63 2103 422 
Q 2278 781 2278 1294 
Q 2278 1516 2270 1667 
Q 2263 1819 2228 1959 
Q 2169 2184 2020 2353 
Q 1872 2522 1656 2522 
Q 1441 2522 1286 2456 
Q 1131 2391 1034 2303 
Q 938 2216 863 2119 
Q 788 2022 769 2016 
L 697 2016 
Q 681 2016 657 2036 
Q 634 2056 634 2075 
L 634 4213 
Q 634 4228 654 4245 
Q 675 4263 697 4263 
L 716 4263 
Q 1147 4056 1631 4056 
Q 2106 4056 2547 4263 
L 2566 4263 
Q 2588 4263 2606 4247 
Q 2625 4231 2625 4213 
L 2625 4153 
Q 2625 4122 2613 4122 
Q 2394 3831 2064 3668 
Q 1734 3506 1381 3506 
Q 1125 3506 856 3578 
L 856 2369 
Q 1069 2541 1236 2614 
Q 1403 2688 1663 2688 
Q 2016 2688 2295 2484 
Q 2575 2281 2725 1954 
Q 2875 1628 2875 1288 
Q 2875 903 2686 575 
Q 2497 247 2172 53 
Q 1847 -141 1466 -141 
Q 1150 -141 886 21 
Q 622 184 470 459 
Q 319 734 319 1044 
Q 319 1188 412 1278 
Q 506 1369 647 1369 
Q 788 1369 883 1276 
Q 978 1184 978 1044 
Q 978 906 883 811 
Q 788 716 647 716 
Q 625 716 597 720 
Q 569 725 556 728 
z
" transform="scale(0.015625)"/>
       </defs>
       <use xlink:href="#Cmr10-30"/>
       <use xlink:href="#Cmr10-32" transform="translate(50 0)"/>
       <use xlink:href="#Cmr10-20" transform="translate(100 0)"/>
       <use xlink:href="#Cmr10-31" transform="translate(133.300781 0)"/>
       <use xlink:href="#Cmr10-39" transform="translate(183.300781 0)"/>
       <use xlink:href="#Cmr10-3a" transform="translate(233.300781 0)"/>
       <use xlink:href="#Cmr10-32" transform="translate(260.986328 0)"/>
       <use xlink:href="#Cmr10-35" transform="translate(310.986328 0)"/>
      </g>
     </g>
    </g>
    <g id="xtick_4">
     <g id="line2d_10">
      <path d="M 347.472038 350.566875 
L 347.472038 17.926875 
" clip-path="url(#p2e3eac24fb)" style="fill: none; stroke: #ffffff; stroke-width: 0.5; stroke-linecap: square"/>
     </g>
     <g id="line2d_11">
      <g>
       <use xlink:href="#m0481de349e" x="347.472038" y="350.566875" style="fill: #ffffff; stroke: #ffffff; stroke-width: 0.5"/>
      </g>
     </g>
     <g id="line2d_12">
      <g>
       <use xlink:href="#m41f269b5c0" x="347.472038" y="17.926875" style="fill: #ffffff; stroke: #ffffff; stroke-width: 0.5"/>
      </g>
     </g>
     <g id="text_4">
      <!-- 02 19:26 -->
      <g style="fill: #ffffff" transform="translate(329.42282 361.005937) scale(0.1 -0.1)">
       <defs>
        <path id="Cmr10-36" d="M 1600 -141 
Q 1203 -141 937 70 
Q 672 281 526 617 
Q 381 953 325 1322 
Q 269 1691 269 2069 
Q 269 2575 466 3084 
Q 663 3594 1045 3928 
Q 1428 4263 1953 4263 
Q 2172 4263 2361 4180 
Q 2550 4097 2658 3936 
Q 2766 3775 2766 3547 
Q 2766 3416 2677 3327 
Q 2588 3238 2456 3238 
Q 2331 3238 2240 3328 
Q 2150 3419 2150 3547 
Q 2150 3672 2240 3762 
Q 2331 3853 2456 3853 
L 2491 3853 
Q 2409 3969 2261 4023 
Q 2113 4078 1953 4078 
Q 1759 4078 1595 3993 
Q 1431 3909 1300 3765 
Q 1169 3622 1081 3448 
Q 994 3275 945 3053 
Q 897 2831 884 2637 
Q 872 2444 872 2150 
Q 984 2413 1190 2580 
Q 1397 2747 1656 2747 
Q 1941 2747 2175 2631 
Q 2409 2516 2578 2311 
Q 2747 2106 2836 1843 
Q 2925 1581 2925 1313 
Q 2925 938 2758 598 
Q 2591 259 2287 59 
Q 1984 -141 1600 -141 
z
M 1600 63 
Q 1847 63 1997 175 
Q 2147 288 2217 473 
Q 2288 659 2305 848 
Q 2322 1038 2322 1313 
Q 2322 1675 2287 1931 
Q 2253 2188 2100 2383 
Q 1947 2578 1631 2578 
Q 1372 2578 1205 2403 
Q 1038 2228 961 1961 
Q 884 1694 884 1447 
Q 884 1363 891 1319 
Q 891 1309 889 1303 
Q 888 1297 884 1288 
Q 884 1013 940 731 
Q 997 450 1156 256 
Q 1316 63 1600 63 
z
" transform="scale(0.015625)"/>
       </defs>
       <use xlink:href="#Cmr10-30"/>
       <use xlink:href="#Cmr10-32" transform="translate(50 0)"/>
       <use xlink:href="#Cmr10-20" transform="translate(100 0)"/>
       <use xlink:href="#Cmr10-31" transform="translate(133.300781 0)"/>
       <use xlink:href="#Cmr10-39" transform="translate(183.300781 0)"/>
       <use xlink:href="#Cmr10-3a" transform="translate(233.300781 0)"/>
       <use xlink:href="#Cmr10-32" transform="translate(260.986328 0)"/>
       <use xlink:href="#Cmr10-36" transform="translate(310.986328 0)"/>
      </g>
     </g>
    </g>
    <g id="xtick_5">
     <g id="line2d_13">
      <path d="M 427.523822 350.566875 
L 427.523822 17.926875 
" clip-path="url(#p2e3eac24fb)" style="fill: none; stroke: #ffffff; stroke-width: 0.5; stroke-linecap: square"/>
     </g>
     <g id="line2d_14">
      <g>
       <use xlink:href="#m0481de349e" x="427.523822" y="350.566875" style="fill: #ffffff; stroke: #ffffff; stroke-width: 0.5"/>
      </g>
     </g>
     <g id="line2d_15">
      <g>
       <use xlink:href="#m41f269b5c0" x="427.523822" y="17.926875" style="fill: #ffffff; stroke: #ffffff; stroke-width: 0.5"/>
      </g>
     </g>
     <g id="text_5">
      <!-- 02 19:27 -->
      <g style="fill: #ffffff" transform="translate(409.474603 361.005937) scale(0.1 -0.1)">
       <defs>
        <path id="Cmr10-37" d="M 1113 166 
Q 1113 522 1175 862 
Q 1238 1203 1358 1536 
Q 1478 1869 1648 2189 
Q 1819 2509 2022 2791 
L 2606 3603 
L 1875 3603 
Q 738 3603 703 3572 
Q 619 3469 544 2981 
L 359 2981 
L 569 4325 
L 756 4325 
L 756 4306 
Q 756 4191 1147 4156 
Q 1538 4122 1913 4122 
L 3103 4122 
L 3103 3956 
Q 3103 3950 3101 3947 
Q 3100 3944 3097 3938 
L 2216 2700 
Q 1891 2219 1809 1631 
Q 1728 1044 1728 166 
Q 1728 41 1637 -50 
Q 1547 -141 1422 -141 
Q 1294 -141 1203 -50 
Q 1113 41 1113 166 
z
" transform="scale(0.015625)"/>
       </defs>
       <use xlink:href="#Cmr10-30"/>
       <use xlink:href="#Cmr10-32" transform="translate(50 0)"/>
       <use xlink:href="#Cmr10-20" transform="translate(100 0)"/>
       <use xlink:href="#Cmr10-31" transform="translate(133.300781 0)"/>
       <use xlink:href="#Cmr10-39" transform="translate(183.300781 0)"/>
       <use xlink:href="#Cmr10-3a" transform="translate(233.300781 0)"/>
       <use xlink:href="#Cmr10-32" transform="translate(260.986328 0)"/>
       <use xlink:href="#Cmr10-37" transform="translate(310.986328 0)"/>
      </g>
     </g>
    </g>
    <g id="xtick_6">
     <g id="line2d_16">
      <path d="M 507.575605 350.566875 
L 507.575605 17.926875 
" clip-path="url(#p2e3eac24fb)" style="fill: none; stroke: #ffffff; stroke-width: 0.5; stroke-linecap: square"/>
     </g>
     <g id="line2d_17">
      <g>
       <use xlink:href="#m0481de349e" x="507.575605" y="350.566875" style="fill: #ffffff; stroke: #ffffff; stroke-width: 0.5"/>
      </g>
     </g>
     <g id="line2d_18">
      <g>
       <use xlink:href="#m41f269b5c0" x="507.575605" y="17.926875" style="fill: #ffffff; stroke: #ffffff; stroke-width: 0.5"/>
      </g>
     </g>
     <g id="text_6">
      <!-- 02 19:28 -->
      <g style="fill: #ffffff" transform="translate(489.526387 361.005937) scale(0.1 -0.1)">
       <defs>
        <path id="Cmr10-38" d="M 269 972 
Q 269 1356 522 1651 
Q 775 1947 1172 2144 
L 934 2297 
Q 716 2441 578 2680 
Q 441 2919 441 3181 
Q 441 3488 602 3734 
Q 763 3981 1030 4122 
Q 1297 4263 1600 4263 
Q 1884 4263 2148 4147 
Q 2413 4031 2583 3815 
Q 2753 3600 2753 3303 
Q 2753 3088 2651 2903 
Q 2550 2719 2373 2572 
Q 2197 2425 1997 2322 
L 2363 2088 
Q 2616 1922 2770 1653 
Q 2925 1384 2925 1088 
Q 2925 741 2739 456 
Q 2553 172 2247 15 
Q 1941 -141 1600 -141 
Q 1269 -141 961 -6 
Q 653 128 461 383 
Q 269 638 269 972 
z
M 616 972 
Q 616 719 755 509 
Q 894 300 1122 181 
Q 1350 63 1600 63 
Q 1972 63 2275 280 
Q 2578 497 2578 856 
Q 2578 978 2529 1098 
Q 2481 1219 2395 1317 
Q 2309 1416 2203 1478 
L 1344 2034 
Q 1144 1928 976 1765 
Q 809 1603 712 1400 
Q 616 1197 616 972 
z
M 1056 2925 
L 1831 2425 
Q 2100 2581 2272 2803 
Q 2444 3025 2444 3303 
Q 2444 3519 2323 3698 
Q 2203 3878 2009 3978 
Q 1816 4078 1594 4078 
Q 1400 4078 1203 4003 
Q 1006 3928 878 3779 
Q 750 3631 750 3431 
Q 750 3131 1056 2925 
z
" transform="scale(0.015625)"/>
       </defs>
       <use xlink:href="#Cmr10-30"/>
       <use xlink:href="#Cmr10-32" transform="translate(50 0)"/>
       <use xlink:href="#Cmr10-20" transform="translate(100 0)"/>
       <use xlink:href="#Cmr10-31" transform="translate(133.300781 0)"/>
       <use xlink:href="#Cmr10-39" transform="translate(183.300781 0)"/>
       <use xlink:href="#Cmr10-3a" transform="translate(233.300781 0)"/>
       <use xlink:href="#Cmr10-32" transform="translate(260.986328 0)"/>
       <use xlink:href="#Cmr10-38" transform="translate(310.986328 0)"/>
      </g>
     </g>
    </g>
    <g id="xtick_7">
     <g id="line2d_19">
      <path d="M 587.627389 350.566875 
L 587.627389 17.926875 
" clip-path="url(#p2e3eac24fb)" style="fill: none; stroke: #ffffff; stroke-width: 0.5; stroke-linecap: square"/>
     </g>
     <g id="line2d_20">
      <g>
       <use xlink:href="#m0481de349e" x="587.627389" y="350.566875" style="fill: #ffffff; stroke: #ffffff; stroke-width: 0.5"/>
      </g>
     </g>
     <g id="line2d_21">
      <g>
       <use xlink:href="#m41f269b5c0" x="587.627389" y="17.926875" style="fill: #ffffff; stroke: #ffffff; stroke-width: 0.5"/>
      </g>
     </g>
     <g id="text_7">
      <!-- 02 19:29 -->
      <g style="fill: #ffffff" transform="translate(569.57817 361.005937) scale(0.1 -0.1)">
       <use xlink:href="#Cmr10-30"/>
       <use xlink:href="#Cmr10-32" transform="translate(50 0)"/>
       <use xlink:href="#Cmr10-20" transform="translate(100 0)"/>
       <use xlink:href="#Cmr10-31" transform="translate(133.300781 0)"/>
       <use xlink:href="#Cmr10-39" transform="translate(183.300781 0)"/>
       <use xlink:href="#Cmr10-3a" transform="translate(233.300781 0)"/>
       <use xlink:href="#Cmr10-32" transform="translate(260.986328 0)"/>
       <use xlink:href="#Cmr10-39" transform="translate(310.986328 0)"/>
      </g>
     </g>
    </g>
    <g id="xtick_8">
     <g id="line2d_22">
      <defs>
       <path id="m9b03020050" d="M 0 0 
L 0 -1.5 
" style="stroke: #ffffff; stroke-width: 0.5"/>
      </defs>
      <g>
       <use xlink:href="#m9b03020050" x="47.27785" y="350.566875" style="fill: #ffffff; stroke: #ffffff; stroke-width: 0.5"/>
      </g>
     </g>
     <g id="line2d_23">
      <defs>
       <path id="m77dfcc55c1" d="M 0 0 
L 0 1.5 
" style="stroke: #ffffff; stroke-width: 0.5"/>
      </defs>
      <g>
       <use xlink:href="#m77dfcc55c1" x="47.27785" y="17.926875" style="fill: #ffffff; stroke: #ffffff; stroke-width: 0.5"/>
      </g>
     </g>
    </g>
    <g id="xtick_9">
     <g id="line2d_24">
      <g>
       <use xlink:href="#m9b03020050" x="67.290796" y="350.566875" style="fill: #ffffff; stroke: #ffffff; stroke-width: 0.5"/>
      </g>
     </g>
     <g id="line2d_25">
      <g>
       <use xlink:href="#m77dfcc55c1" x="67.290796" y="17.926875" style="fill: #ffffff; stroke: #ffffff; stroke-width: 0.5"/>
      </g>
     </g>
    </g>
    <g id="xtick_10">
     <g id="line2d_26">
      <g>
       <use xlink:href="#m9b03020050" x="87.303742" y="350.566875" style="fill: #ffffff; stroke: #ffffff; stroke-width: 0.5"/>
      </g>
     </g>
     <g id="line2d_27">
      <g>
       <use xlink:href="#m77dfcc55c1" x="87.303742" y="17.926875" style="fill: #ffffff; stroke: #ffffff; stroke-width: 0.5"/>
      </g>
     </g>
    </g>
    <g id="xtick_11">
     <g id="line2d_28">
      <g>
       <use xlink:href="#m9b03020050" x="127.329634" y="350.566875" style="fill: #ffffff; stroke: #ffffff; stroke-width: 0.5"/>
      </g>
     </g>
     <g id="line2d_29">
      <g>
       <use xlink:href="#m77dfcc55c1" x="127.329634" y="17.926875" style="fill: #ffffff; stroke: #ffffff; stroke-width: 0.5"/>
      </g>
     </g>
    </g>
    <g id="xtick_12">
     <g id="line2d_30">
      <g>
       <use xlink:href="#m9b03020050" x="147.34258" y="350.566875" style="fill: #ffffff; stroke: #ffffff; stroke-width: 0.5"/>
      </g>
     </g>
     <g id="line2d_31">
      <g>
       <use xlink:href="#m77dfcc55c1" x="147.34258" y="17.926875" style="fill: #ffffff; stroke: #ffffff; stroke-width: 0.5"/>
      </g>
     </g>
    </g>
    <g id="xtick_13">
     <g id="line2d_32">
      <g>
       <use xlink:href="#m9b03020050" x="167.355525" y="350.566875" style="fill: #ffffff; stroke: #ffffff; stroke-width: 0.5"/>
      </g>
     </g>
     <g id="line2d_33">
      <g>
       <use xlink:href="#m77dfcc55c1" x="167.355525" y="17.926875" style="fill: #ffffff; stroke: #ffffff; stroke-width: 0.5"/>
      </g>
     </g>
    </g>
    <g id="xtick_14">
     <g id="line2d_34">
      <g>
       <use xlink:href="#m9b03020050" x="207.381418" y="350.566875" style="fill: #ffffff; stroke: #ffffff; stroke-width: 0.5"/>
      </g>
     </g>
     <g id="line2d_35">
      <g>
       <use xlink:href="#m77dfcc55c1" x="207.381418" y="17.926875" style="fill: #ffffff; stroke: #ffffff; stroke-width: 0.5"/>
      </g>
     </g>
    </g>
    <g id="xtick_15">
     <g id="line2d_36">
      <g>
       <use xlink:href="#m9b03020050" x="227.394363" y="350.566875" style="fill: #ffffff; stroke: #ffffff; stroke-width: 0.5"/>
      </g>
     </g>
     <g id="line2d_37">
      <g>
       <use xlink:href="#m77dfcc55c1" x="227.394363" y="17.926875" style="fill: #ffffff; stroke: #ffffff; stroke-width: 0.5"/>
      </g>
     </g>
    </g>
    <g id="xtick_16">
     <g id="line2d_38">
      <g>
       <use xlink:href="#m9b03020050" x="247.40731" y="350.566875" style="fill: #ffffff; stroke: #ffffff; stroke-width: 0.5"/>
      </g>
     </g>
     <g id="line2d_39">
      <g>
       <use xlink:href="#m77dfcc55c1" x="247.40731" y="17.926875" style="fill: #ffffff; stroke: #ffffff; stroke-width: 0.5"/>
      </g>
     </g>
    </g>
    <g id="xtick_17">
     <g id="line2d_40">
      <g>
       <use xlink:href="#m9b03020050" x="287.433201" y="350.566875" style="fill: #ffffff; stroke: #ffffff; stroke-width: 0.5"/>
      </g>
     </g>
     <g id="line2d_41">
      <g>
       <use xlink:href="#m77dfcc55c1" x="287.433201" y="17.926875" style="fill: #ffffff; stroke: #ffffff; stroke-width: 0.5"/>
      </g>
     </g>
    </g>
    <g id="xtick_18">
     <g id="line2d_42">
      <g>
       <use xlink:href="#m9b03020050" x="307.446147" y="350.566875" style="fill: #ffffff; stroke: #ffffff; stroke-width: 0.5"/>
      </g>
     </g>
     <g id="line2d_43">
      <g>
       <use xlink:href="#m77dfcc55c1" x="307.446147" y="17.926875" style="fill: #ffffff; stroke: #ffffff; stroke-width: 0.5"/>
      </g>
     </g>
    </g>
    <g id="xtick_19">
     <g id="line2d_44">
      <g>
       <use xlink:href="#m9b03020050" x="327.459093" y="350.566875" style="fill: #ffffff; stroke: #ffffff; stroke-width: 0.5"/>
      </g>
     </g>
     <g id="line2d_45">
      <g>
       <use xlink:href="#m77dfcc55c1" x="327.459093" y="17.926875" style="fill: #ffffff; stroke: #ffffff; stroke-width: 0.5"/>
      </g>
     </g>
    </g>
    <g id="xtick_20">
     <g id="line2d_46">
      <g>
       <use xlink:href="#m9b03020050" x="367.484985" y="350.566875" style="fill: #ffffff; stroke: #ffffff; stroke-width: 0.5"/>
      </g>
     </g>
     <g id="line2d_47">
      <g>
       <use xlink:href="#m77dfcc55c1" x="367.484985" y="17.926875" style="fill: #ffffff; stroke: #ffffff; stroke-width: 0.5"/>
      </g>
     </g>
    </g>
    <g id="xtick_21">
     <g id="line2d_48">
      <g>
       <use xlink:href="#m9b03020050" x="387.497931" y="350.566875" style="fill: #ffffff; stroke: #ffffff; stroke-width: 0.5"/>
      </g>
     </g>
     <g id="line2d_49">
      <g>
       <use xlink:href="#m77dfcc55c1" x="387.497931" y="17.926875" style="fill: #ffffff; stroke: #ffffff; stroke-width: 0.5"/>
      </g>
     </g>
    </g>
    <g id="xtick_22">
     <g id="line2d_50">
      <g>
       <use xlink:href="#m9b03020050" x="407.510877" y="350.566875" style="fill: #ffffff; stroke: #ffffff; stroke-width: 0.5"/>
      </g>
     </g>
     <g id="line2d_51">
      <g>
       <use xlink:href="#m77dfcc55c1" x="407.510877" y="17.926875" style="fill: #ffffff; stroke: #ffffff; stroke-width: 0.5"/>
      </g>
     </g>
    </g>
    <g id="xtick_23">
     <g id="line2d_52">
      <g>
       <use xlink:href="#m9b03020050" x="447.536769" y="350.566875" style="fill: #ffffff; stroke: #ffffff; stroke-width: 0.5"/>
      </g>
     </g>
     <g id="line2d_53">
      <g>
       <use xlink:href="#m77dfcc55c1" x="447.536769" y="17.926875" style="fill: #ffffff; stroke: #ffffff; stroke-width: 0.5"/>
      </g>
     </g>
    </g>
    <g id="xtick_24">
     <g id="line2d_54">
      <g>
       <use xlink:href="#m9b03020050" x="467.549715" y="350.566875" style="fill: #ffffff; stroke: #ffffff; stroke-width: 0.5"/>
      </g>
     </g>
     <g id="line2d_55">
      <g>
       <use xlink:href="#m77dfcc55c1" x="467.549715" y="17.926875" style="fill: #ffffff; stroke: #ffffff; stroke-width: 0.5"/>
      </g>
     </g>
    </g>
    <g id="xtick_25">
     <g id="line2d_56">
      <g>
       <use xlink:href="#m9b03020050" x="487.562661" y="350.566875" style="fill: #ffffff; stroke: #ffffff; stroke-width: 0.5"/>
      </g>
     </g>
     <g id="line2d_57">
      <g>
       <use xlink:href="#m77dfcc55c1" x="487.562661" y="17.926875" style="fill: #ffffff; stroke: #ffffff; stroke-width: 0.5"/>
      </g>
     </g>
    </g>
    <g id="xtick_26">
     <g id="line2d_58">
      <g>
       <use xlink:href="#m9b03020050" x="527.588552" y="350.566875" style="fill: #ffffff; stroke: #ffffff; stroke-width: 0.5"/>
      </g>
     </g>
     <g id="line2d_59">
      <g>
       <use xlink:href="#m77dfcc55c1" x="527.588552" y="17.926875" style="fill: #ffffff; stroke: #ffffff; stroke-width: 0.5"/>
      </g>
     </g>
    </g>
    <g id="xtick_27">
     <g id="line2d_60">
      <g>
       <use xlink:href="#m9b03020050" x="547.601499" y="350.566875" style="fill: #ffffff; stroke: #ffffff; stroke-width: 0.5"/>
      </g>
     </g>
     <g id="line2d_61">
      <g>
       <use xlink:href="#m77dfcc55c1" x="547.601499" y="17.926875" style="fill: #ffffff; stroke: #ffffff; stroke-width: 0.5"/>
      </g>
     </g>
    </g>
    <g id="xtick_28">
     <g id="line2d_62">
      <g>
       <use xlink:href="#m9b03020050" x="567.614444" y="350.566875" style="fill: #ffffff; stroke: #ffffff; stroke-width: 0.5"/>
      </g>
     </g>
     <g id="line2d_63">
      <g>
       <use xlink:href="#m77dfcc55c1" x="567.614444" y="17.926875" style="fill: #ffffff; stroke: #ffffff; stroke-width: 0.5"/>
      </g>
     </g>
    </g>
    <g id="text_8">
     <!-- Time -->
     <g style="fill: #ffffff" transform="translate(298.720313 373.884062) scale(0.1 -0.1)">
      <defs>
       <path id="Cmr10-54" d="M 1081 0 
L 1081 225 
Q 1403 225 1706 261 
Q 2009 297 2009 428 
L 2009 3944 
Q 2009 4081 1932 4114 
Q 1856 4147 1684 4147 
L 1416 4147 
Q 888 4147 666 3916 
Q 550 3800 500 3545 
Q 450 3291 416 2906 
L 231 2906 
L 353 4372 
L 4263 4372 
L 4384 2906 
L 4197 2906 
Q 4159 3319 4114 3561 
Q 4069 3803 3950 3916 
Q 3725 4147 3200 4147 
L 2931 4147 
Q 2816 4147 2752 4137 
Q 2688 4128 2647 4083 
Q 2606 4038 2606 3944 
L 2606 428 
Q 2606 297 2909 261 
Q 3213 225 3531 225 
L 3531 0 
L 1081 0 
z
" transform="scale(0.015625)"/>
       <path id="Cmr10-69" d="M 197 0 
L 197 225 
Q 416 225 556 259 
Q 697 294 697 428 
L 697 2175 
Q 697 2422 601 2478 
Q 506 2534 225 2534 
L 225 2759 
L 1147 2828 
L 1147 428 
Q 1147 294 1269 259 
Q 1391 225 1594 225 
L 1594 0 
L 197 0 
z
M 469 3928 
Q 469 4069 575 4175 
Q 681 4281 819 4281 
Q 909 4281 993 4234 
Q 1078 4188 1125 4103 
Q 1172 4019 1172 3928 
Q 1172 3791 1065 3684 
Q 959 3578 819 3578 
Q 681 3578 575 3684 
Q 469 3791 469 3928 
z
" transform="scale(0.015625)"/>
       <path id="Cmr10-6d" d="M 191 0 
L 191 225 
Q 409 225 550 259 
Q 691 294 691 428 
L 691 2175 
Q 691 2347 639 2423 
Q 588 2500 491 2517 
Q 394 2534 191 2534 
L 191 2759 
L 1119 2828 
L 1119 2203 
Q 1247 2478 1498 2653 
Q 1750 2828 2047 2828 
Q 2784 2828 2913 2228 
Q 3041 2497 3287 2662 
Q 3534 2828 3828 2828 
Q 4119 2828 4317 2734 
Q 4516 2641 4616 2448 
Q 4716 2256 4716 1966 
L 4716 428 
Q 4716 294 4858 259 
Q 5000 225 5216 225 
L 5216 0 
L 3750 0 
L 3750 225 
Q 3969 225 4109 259 
Q 4250 294 4250 428 
L 4250 1947 
Q 4250 2269 4159 2466 
Q 4069 2663 3788 2663 
Q 3419 2663 3178 2366 
Q 2938 2069 2938 1691 
L 2938 428 
Q 2938 294 3078 259 
Q 3219 225 3438 225 
L 3438 0 
L 1972 0 
L 1972 225 
Q 2191 225 2331 259 
Q 2472 294 2472 428 
L 2472 1947 
Q 2472 2259 2381 2461 
Q 2291 2663 2009 2663 
Q 1638 2663 1398 2366 
Q 1159 2069 1159 1691 
L 1159 428 
Q 1159 294 1300 259 
Q 1441 225 1656 225 
L 1656 0 
L 191 0 
z
" transform="scale(0.015625)"/>
       <path id="Cmr10-65" d="M 1594 -72 
Q 1203 -72 876 133 
Q 550 338 364 680 
Q 178 1022 178 1403 
Q 178 1778 348 2115 
Q 519 2453 823 2661 
Q 1128 2869 1503 2869 
Q 1797 2869 2014 2770 
Q 2231 2672 2372 2497 
Q 2513 2322 2584 2084 
Q 2656 1847 2656 1563 
Q 2656 1478 2591 1478 
L 738 1478 
L 738 1409 
Q 738 878 952 497 
Q 1166 116 1650 116 
Q 1847 116 2014 203 
Q 2181 291 2304 447 
Q 2428 603 2472 781 
Q 2478 803 2495 820 
Q 2513 838 2534 838 
L 2591 838 
Q 2656 838 2656 756 
Q 2566 394 2266 161 
Q 1966 -72 1594 -72 
z
M 744 1638 
L 2203 1638 
Q 2203 1878 2136 2125 
Q 2069 2372 1912 2536 
Q 1756 2700 1503 2700 
Q 1141 2700 942 2361 
Q 744 2022 744 1638 
z
" transform="scale(0.015625)"/>
      </defs>
      <use xlink:href="#Cmr10-54"/>
      <use xlink:href="#Cmr10-69" transform="translate(72.216797 0)"/>
      <use xlink:href="#Cmr10-6d" transform="translate(99.902344 0)"/>
      <use xlink:href="#Cmr10-65" transform="translate(183.203125 0)"/>
     </g>
    </g>
   </g>
   <g id="matplotlib.axis_2">
    <g id="ytick_1">
     <g id="line2d_64">
      <path d="M 31.1 350.566875 
L 589.1 350.566875 
" clip-path="url(#p2e3eac24fb)" style="fill: none; stroke: #ffffff; stroke-width: 0.5; stroke-linecap: square"/>
     </g>
     <g id="line2d_65">
      <defs>
       <path id="m4cc160f35e" d="M 0 0 
L 3 0 
" style="stroke: #ffffff; stroke-width: 0.5"/>
      </defs>
      <g>
       <use xlink:href="#m4cc160f35e" x="31.1" y="350.566875" style="fill: #ffffff; stroke: #ffffff; stroke-width: 0.5"/>
      </g>
     </g>
     <g id="line2d_66">
      <defs>
       <path id="mfd51f7fb67" d="M 0 0 
L -3 0 
" style="stroke: #ffffff; stroke-width: 0.5"/>
      </defs>
      <g>
       <use xlink:href="#mfd51f7fb67" x="589.1" y="350.566875" style="fill: #ffffff; stroke: #ffffff; stroke-width: 0.5"/>
      </g>
     </g>
     <g id="text_9">
      <!-- $\mathdefault{0}$ -->
      <g style="fill: #ffffff" transform="translate(22.6 354.036406) scale(0.1 -0.1)">
       <use xlink:href="#Cmr10-30" transform="translate(0 0.390625)"/>
      </g>
     </g>
    </g>
    <g id="ytick_2">
     <g id="line2d_67">
      <path d="M 31.1 295.126875 
L 589.1 295.126875 
" clip-path="url(#p2e3eac24fb)" style="fill: none; stroke: #ffffff; stroke-width: 0.5; stroke-linecap: square"/>
     </g>
     <g id="line2d_68">
      <g>
       <use xlink:href="#m4cc160f35e" x="31.1" y="295.126875" style="fill: #ffffff; stroke: #ffffff; stroke-width: 0.5"/>
      </g>
     </g>
     <g id="line2d_69">
      <g>
       <use xlink:href="#mfd51f7fb67" x="589.1" y="295.126875" style="fill: #ffffff; stroke: #ffffff; stroke-width: 0.5"/>
      </g>
     </g>
     <g id="text_10">
      <!-- $\mathdefault{15}$ -->
      <g style="fill: #ffffff" transform="translate(17.6 298.596406) scale(0.1 -0.1)">
       <use xlink:href="#Cmr10-31" transform="translate(0 0.390625)"/>
       <use xlink:href="#Cmr10-35" transform="translate(50 0.390625)"/>
      </g>
     </g>
    </g>
    <g id="ytick_3">
     <g id="line2d_70">
      <path d="M 31.1 239.686875 
L 589.1 239.686875 
" clip-path="url(#p2e3eac24fb)" style="fill: none; stroke: #ffffff; stroke-width: 0.5; stroke-linecap: square"/>
     </g>
     <g id="line2d_71">
      <g>
       <use xlink:href="#m4cc160f35e" x="31.1" y="239.686875" style="fill: #ffffff; stroke: #ffffff; stroke-width: 0.5"/>
      </g>
     </g>
     <g id="line2d_72">
      <g>
       <use xlink:href="#mfd51f7fb67" x="589.1" y="239.686875" style="fill: #ffffff; stroke: #ffffff; stroke-width: 0.5"/>
      </g>
     </g>
     <g id="text_11">
      <!-- $\mathdefault{30}$ -->
      <g style="fill: #ffffff" transform="translate(17.6 243.156406) scale(0.1 -0.1)">
       <use xlink:href="#Cmr10-33" transform="translate(0 0.390625)"/>
       <use xlink:href="#Cmr10-30" transform="translate(50 0.390625)"/>
      </g>
     </g>
    </g>
    <g id="ytick_4">
     <g id="line2d_73">
      <path d="M 31.1 184.246875 
L 589.1 184.246875 
" clip-path="url(#p2e3eac24fb)" style="fill: none; stroke: #ffffff; stroke-width: 0.5; stroke-linecap: square"/>
     </g>
     <g id="line2d_74">
      <g>
       <use xlink:href="#m4cc160f35e" x="31.1" y="184.246875" style="fill: #ffffff; stroke: #ffffff; stroke-width: 0.5"/>
      </g>
     </g>
     <g id="line2d_75">
      <g>
       <use xlink:href="#mfd51f7fb67" x="589.1" y="184.246875" style="fill: #ffffff; stroke: #ffffff; stroke-width: 0.5"/>
      </g>
     </g>
     <g id="text_12">
      <!-- $\mathdefault{45}$ -->
      <g style="fill: #ffffff" transform="translate(17.6 187.716406) scale(0.1 -0.1)">
       <use xlink:href="#Cmr10-34" transform="translate(0 0.390625)"/>
       <use xlink:href="#Cmr10-35" transform="translate(50 0.390625)"/>
      </g>
     </g>
    </g>
    <g id="ytick_5">
     <g id="line2d_76">
      <path d="M 31.1 128.806875 
L 589.1 128.806875 
" clip-path="url(#p2e3eac24fb)" style="fill: none; stroke: #ffffff; stroke-width: 0.5; stroke-linecap: square"/>
     </g>
     <g id="line2d_77">
      <g>
       <use xlink:href="#m4cc160f35e" x="31.1" y="128.806875" style="fill: #ffffff; stroke: #ffffff; stroke-width: 0.5"/>
      </g>
     </g>
     <g id="line2d_78">
      <g>
       <use xlink:href="#mfd51f7fb67" x="589.1" y="128.806875" style="fill: #ffffff; stroke: #ffffff; stroke-width: 0.5"/>
      </g>
     </g>
     <g id="text_13">
      <!-- $\mathdefault{60}$ -->
      <g style="fill: #ffffff" transform="translate(17.6 132.276406) scale(0.1 -0.1)">
       <use xlink:href="#Cmr10-36" transform="translate(0 0.390625)"/>
       <use xlink:href="#Cmr10-30" transform="translate(50 0.390625)"/>
      </g>
     </g>
    </g>
    <g id="ytick_6">
     <g id="line2d_79">
      <path d="M 31.1 73.366875 
L 589.1 73.366875 
" clip-path="url(#p2e3eac24fb)" style="fill: none; stroke: #ffffff; stroke-width: 0.5; stroke-linecap: square"/>
     </g>
     <g id="line2d_80">
      <g>
       <use xlink:href="#m4cc160f35e" x="31.1" y="73.366875" style="fill: #ffffff; stroke: #ffffff; stroke-width: 0.5"/>
      </g>
     </g>
     <g id="line2d_81">
      <g>
       <use xlink:href="#mfd51f7fb67" x="589.1" y="73.366875" style="fill: #ffffff; stroke: #ffffff; stroke-width: 0.5"/>
      </g>
     </g>
     <g id="text_14">
      <!-- $\mathdefault{75}$ -->
      <g style="fill: #ffffff" transform="translate(17.6 76.836406) scale(0.1 -0.1)">
       <use xlink:href="#Cmr10-37" transform="translate(0 0.421875)"/>
       <use xlink:href="#Cmr10-35" transform="translate(50 0.421875)"/>
      </g>
     </g>
    </g>
    <g id="ytick_7">
     <g id="line2d_82">
      <path d="M 31.1 17.926875 
L 589.1 17.926875 
" clip-path="url(#p2e3eac24fb)" style="fill: none; stroke: #ffffff; stroke-width: 0.5; stroke-linecap: square"/>
     </g>
     <g id="line2d_83">
      <g>
       <use xlink:href="#m4cc160f35e" x="31.1" y="17.926875" style="fill: #ffffff; stroke: #ffffff; stroke-width: 0.5"/>
      </g>
     </g>
     <g id="line2d_84">
      <g>
       <use xlink:href="#mfd51f7fb67" x="589.1" y="17.926875" style="fill: #ffffff; stroke: #ffffff; stroke-width: 0.5"/>
      </g>
     </g>
     <g id="text_15">
      <!-- $\mathdefault{90}$ -->
      <g style="fill: #ffffff" transform="translate(17.6 21.396406) scale(0.1 -0.1)">
       <use xlink:href="#Cmr10-39" transform="translate(0 0.390625)"/>
       <use xlink:href="#Cmr10-30" transform="translate(50 0.390625)"/>
      </g>
     </g>
    </g>
    <g id="ytick_8">
     <g id="line2d_85">
      <defs>
       <path id="m9ea093cd66" d="M 0 0 
L 1.5 0 
" style="stroke: #ffffff; stroke-width: 0.5"/>
      </defs>
      <g>
       <use xlink:href="#m9ea093cd66" x="31.1" y="336.706875" style="fill: #ffffff; stroke: #ffffff; stroke-width: 0.5"/>
      </g>
     </g>
     <g id="line2d_86">
      <defs>
       <path id="ma437677a8b" d="M 0 0 
L -1.5 0 
" style="stroke: #ffffff; stroke-width: 0.5"/>
      </defs>
      <g>
       <use xlink:href="#ma437677a8b" x="589.1" y="336.706875" style="fill: #ffffff; stroke: #ffffff; stroke-width: 0.5"/>
      </g>
     </g>
    </g>
    <g id="ytick_9">
     <g id="line2d_87">
      <g>
       <use xlink:href="#m9ea093cd66" x="31.1" y="322.846875" style="fill: #ffffff; stroke: #ffffff; stroke-width: 0.5"/>
      </g>
     </g>
     <g id="line2d_88">
      <g>
       <use xlink:href="#ma437677a8b" x="589.1" y="322.846875" style="fill: #ffffff; stroke: #ffffff; stroke-width: 0.5"/>
      </g>
     </g>
    </g>
    <g id="ytick_10">
     <g id="line2d_89">
      <g>
       <use xlink:href="#m9ea093cd66" x="31.1" y="308.986875" style="fill: #ffffff; stroke: #ffffff; stroke-width: 0.5"/>
      </g>
     </g>
     <g id="line2d_90">
      <g>
       <use xlink:href="#ma437677a8b" x="589.1" y="308.986875" style="fill: #ffffff; stroke: #ffffff; stroke-width: 0.5"/>
      </g>
     </g>
    </g>
    <g id="ytick_11">
     <g id="line2d_91">
      <g>
       <use xlink:href="#m9ea093cd66" x="31.1" y="281.266875" style="fill: #ffffff; stroke: #ffffff; stroke-width: 0.5"/>
      </g>
     </g>
     <g id="line2d_92">
      <g>
       <use xlink:href="#ma437677a8b" x="589.1" y="281.266875" style="fill: #ffffff; stroke: #ffffff; stroke-width: 0.5"/>
      </g>
     </g>
    </g>
    <g id="ytick_12">
     <g id="line2d_93">
      <g>
       <use xlink:href="#m9ea093cd66" x="31.1" y="267.406875" style="fill: #ffffff; stroke: #ffffff; stroke-width: 0.5"/>
      </g>
     </g>
     <g id="line2d_94">
      <g>
       <use xlink:href="#ma437677a8b" x="589.1" y="267.406875" style="fill: #ffffff; stroke: #ffffff; stroke-width: 0.5"/>
      </g>
     </g>
    </g>
    <g id="ytick_13">
     <g id="line2d_95">
      <g>
       <use xlink:href="#m9ea093cd66" x="31.1" y="253.546875" style="fill: #ffffff; stroke: #ffffff; stroke-width: 0.5"/>
      </g>
     </g>
     <g id="line2d_96">
      <g>
       <use xlink:href="#ma437677a8b" x="589.1" y="253.546875" style="fill: #ffffff; stroke: #ffffff; stroke-width: 0.5"/>
      </g>
     </g>
    </g>
    <g id="ytick_14">
     <g id="line2d_97">
      <g>
       <use xlink:href="#m9ea093cd66" x="31.1" y="225.826875" style="fill: #ffffff; stroke: #ffffff; stroke-width: 0.5"/>
      </g>
     </g>
     <g id="line2d_98">
      <g>
       <use xlink:href="#ma437677a8b" x="589.1" y="225.826875" style="fill: #ffffff; stroke: #ffffff; stroke-width: 0.5"/>
      </g>
     </g>
    </g>
    <g id="ytick_15">
     <g id="line2d_99">
      <g>
       <use xlink:href="#m9ea093cd66" x="31.1" y="211.966875" style="fill: #ffffff; stroke: #ffffff; stroke-width: 0.5"/>
      </g>
     </g>
     <g id="line2d_100">
      <g>
       <use xlink:href="#ma437677a8b" x="589.1" y="211.966875" style="fill: #ffffff; stroke: #ffffff; stroke-width: 0.5"/>
      </g>
     </g>
    </g>
    <g id="ytick_16">
     <g id="line2d_101">
      <g>
       <use xlink:href="#m9ea093cd66" x="31.1" y="198.106875" style="fill: #ffffff; stroke: #ffffff; stroke-width: 0.5"/>
      </g>
     </g>
     <g id="line2d_102">
      <g>
       <use xlink:href="#ma437677a8b" x="589.1" y="198.106875" style="fill: #ffffff; stroke: #ffffff; stroke-width: 0.5"/>
      </g>
     </g>
    </g>
    <g id="ytick_17">
     <g id="line2d_103">
      <g>
       <use xlink:href="#m9ea093cd66" x="31.1" y="170.386875" style="fill: #ffffff; stroke: #ffffff; stroke-width: 0.5"/>
      </g>
     </g>
     <g id="line2d_104">
      <g>
       <use xlink:href="#ma437677a8b" x="589.1" y="170.386875" style="fill: #ffffff; stroke: #ffffff; stroke-width: 0.5"/>
      </g>
     </g>
    </g>
    <g id="ytick_18">
     <g id="line2d_105">
      <g>
       <use xlink:href="#m9ea093cd66" x="31.1" y="156.526875" style="fill: #ffffff; stroke: #ffffff; stroke-width: 0.5"/>
      </g>
     </g>
     <g id="line2d_106">
      <g>
       <use xlink:href="#ma437677a8b" x="589.1" y="156.526875" style="fill: #ffffff; stroke: #ffffff; stroke-width: 0.5"/>
      </g>
     </g>
    </g>
    <g id="ytick_19">
     <g id="line2d_107">
      <g>
       <use xlink:href="#m9ea093cd66" x="31.1" y="142.666875" style="fill: #ffffff; stroke: #ffffff; stroke-width: 0.5"/>
      </g>
     </g>
     <g id="line2d_108">
      <g>
       <use xlink:href="#ma437677a8b" x="589.1" y="142.666875" style="fill: #ffffff; stroke: #ffffff; stroke-width: 0.5"/>
      </g>
     </g>
    </g>
    <g id="ytick_20">
     <g id="line2d_109">
      <g>
       <use xlink:href="#m9ea093cd66" x="31.1" y="114.946875" style="fill: #ffffff; stroke: #ffffff; stroke-width: 0.5"/>
      </g>
     </g>
     <g id="line2d_110">
      <g>
       <use xlink:href="#ma437677a8b" x="589.1" y="114.946875" style="fill: #ffffff; stroke: #ffffff; stroke-width: 0.5"/>
      </g>
     </g>
    </g>
    <g id="ytick_21">
     <g id="line2d_111">
      <g>
       <use xlink:href="#m9ea093cd66" x="31.1" y="101.086875" style="fill: #ffffff; stroke: #ffffff; stroke-width: 0.5"/>
      </g>
     </g>
     <g id="line2d_112">
      <g>
       <use xlink:href="#ma437677a8b" x="589.1" y="101.086875" style="fill: #ffffff; stroke: #ffffff; stroke-width: 0.5"/>
      </g>
     </g>
    </g>
    <g id="ytick_22">
     <g id="line2d_113">
      <g>
       <use xlink:href="#m9ea093cd66" x="31.1" y="87.226875" style="fill: #ffffff; stroke: #ffffff; stroke-width: 0.5"/>
      </g>
     </g>
     <g id="line2d_114">
      <g>
       <use xlink:href="#ma437677a8b" x="589.1" y="87.226875" style="fill: #ffffff; stroke: #ffffff; stroke-width: 0.5"/>
      </g>
     </g>
    </g>
    <g id="ytick_23">
     <g id="line2d_115">
      <g>
       <use xlink:href="#m9ea093cd66" x="31.1" y="59.506875" style="fill: #ffffff; stroke: #ffffff; stroke-width: 0.5"/>
      </g>
     </g>
     <g id="line2d_116">
      <g>
       <use xlink:href="#ma437677a8b" x="589.1" y="59.506875" style="fill: #ffffff; stroke: #ffffff; stroke-width: 0.5"/>
      </g>
     </g>
    </g>
    <g id="ytick_24">
     <g id="line2d_117">
      <g>
       <use xlink:href="#m9ea093cd66" x="31.1" y="45.646875" style="fill: #ffffff; stroke: #ffffff; stroke-width: 0.5"/>
      </g>
     </g>
     <g id="line2d_118">
      <g>
       <use xlink:href="#ma437677a8b" x="589.1" y="45.646875" style="fill: #ffffff; stroke: #ffffff; stroke-width: 0.5"/>
      </g>
     </g>
    </g>
    <g id="ytick_25">
     <g id="line2d_119">
      <g>
       <use xlink:href="#m9ea093cd66" x="31.1" y="31.786875" style="fill: #ffffff; stroke: #ffffff; stroke-width: 0.5"/>
      </g>
     </g>
     <g id="line2d_120">
      <g>
       <use xlink:href="#ma437677a8b" x="589.1" y="31.786875" style="fill: #ffffff; stroke: #ffffff; stroke-width: 0.5"/>
      </g>
     </g>
    </g>
    <g id="text_16">
     <!-- Elevation (degrees) -->
     <g style="fill: #ffffff" transform="translate(11.1 226.392969) rotate(-90) scale(0.1 -0.1)">
      <defs>
       <path id="Cmr10-45" d="M 197 0 
L 197 225 
Q 856 225 856 428 
L 856 3944 
Q 856 4147 197 4147 
L 197 4372 
L 3816 4372 
L 3994 2906 
L 3809 2906 
Q 3741 3459 3617 3709 
Q 3494 3959 3222 4053 
Q 2950 4147 2406 4147 
L 1778 4147 
Q 1663 4147 1598 4137 
Q 1534 4128 1493 4083 
Q 1453 4038 1453 3944 
L 1453 2381 
L 1925 2381 
Q 2250 2381 2411 2436 
Q 2572 2491 2633 2645 
Q 2694 2800 2694 3128 
L 2881 3128 
L 2881 1409 
L 2694 1409 
Q 2694 1734 2633 1890 
Q 2572 2047 2411 2101 
Q 2250 2156 1925 2156 
L 1453 2156 
L 1453 428 
Q 1453 291 1531 258 
Q 1609 225 1778 225 
L 2456 225 
Q 2900 225 3173 295 
Q 3447 366 3598 530 
Q 3750 694 3833 955 
Q 3916 1216 3988 1678 
L 4172 1678 
L 3903 0 
L 197 0 
z
" transform="scale(0.015625)"/>
       <path id="Cmr10-6c" d="M 197 0 
L 197 225 
Q 416 225 556 259 
Q 697 294 697 428 
L 697 3788 
Q 697 3959 645 4036 
Q 594 4113 497 4130 
Q 400 4147 197 4147 
L 197 4372 
L 1147 4441 
L 1147 428 
Q 1147 294 1287 259 
Q 1428 225 1644 225 
L 1644 0 
L 197 0 
z
" transform="scale(0.015625)"/>
       <path id="Cmr10-76" d="M 1563 0 
L 628 2350 
Q 569 2469 445 2501 
Q 322 2534 122 2534 
L 122 2759 
L 1466 2759 
L 1466 2534 
Q 1106 2534 1106 2381 
Q 1106 2356 1113 2344 
L 1831 538 
L 2478 2169 
Q 2497 2219 2497 2272 
Q 2497 2394 2405 2464 
Q 2313 2534 2188 2534 
L 2188 2759 
L 3250 2759 
L 3250 2534 
Q 3053 2534 2904 2443 
Q 2756 2353 2675 2175 
L 1813 0 
Q 1788 -72 1709 -72 
L 1663 -72 
Q 1584 -72 1563 0 
z
" transform="scale(0.015625)"/>
       <path id="Cmr10-61" d="M 256 628 
Q 256 1009 556 1248 
Q 856 1488 1276 1586 
Q 1697 1684 2075 1684 
L 2075 1947 
Q 2075 2131 1994 2304 
Q 1913 2478 1759 2589 
Q 1606 2700 1422 2700 
Q 997 2700 775 2509 
Q 897 2509 976 2417 
Q 1056 2325 1056 2203 
Q 1056 2075 965 1984 
Q 875 1894 750 1894 
Q 622 1894 531 1984 
Q 441 2075 441 2203 
Q 441 2541 747 2705 
Q 1053 2869 1422 2869 
Q 1681 2869 1943 2758 
Q 2206 2647 2373 2440 
Q 2541 2234 2541 1959 
L 2541 519 
Q 2541 394 2594 289 
Q 2647 184 2759 184 
Q 2866 184 2917 290 
Q 2969 397 2969 519 
L 2969 928 
L 3156 928 
L 3156 519 
Q 3156 375 3081 245 
Q 3006 116 2879 39 
Q 2753 -38 2606 -38 
Q 2419 -38 2283 107 
Q 2147 253 2131 453 
Q 2013 213 1781 70 
Q 1550 -72 1288 -72 
Q 1044 -72 808 0 
Q 572 72 414 226 
Q 256 381 256 628 
z
M 775 628 
Q 775 403 940 250 
Q 1106 97 1331 97 
Q 1538 97 1706 200 
Q 1875 303 1975 481 
Q 2075 659 2075 856 
L 2075 1522 
Q 1784 1522 1479 1426 
Q 1175 1331 975 1128 
Q 775 925 775 628 
z
" transform="scale(0.015625)"/>
       <path id="Cmr10-74" d="M 653 769 
L 653 2534 
L 122 2534 
L 122 2700 
Q 541 2700 737 3090 
Q 934 3481 934 3938 
L 1119 3938 
L 1119 2759 
L 2022 2759 
L 2022 2534 
L 1119 2534 
L 1119 781 
Q 1119 516 1208 316 
Q 1297 116 1528 116 
Q 1747 116 1844 327 
Q 1941 538 1941 781 
L 1941 1159 
L 2125 1159 
L 2125 769 
Q 2125 569 2051 373 
Q 1978 178 1834 53 
Q 1691 -72 1484 -72 
Q 1100 -72 876 158 
Q 653 388 653 769 
z
" transform="scale(0.015625)"/>
       <path id="Cmr10-6f" d="M 1600 -72 
Q 1216 -72 887 123 
Q 559 319 368 647 
Q 178 975 178 1363 
Q 178 1656 283 1928 
Q 388 2200 583 2414 
Q 778 2628 1037 2748 
Q 1297 2869 1600 2869 
Q 1994 2869 2317 2661 
Q 2641 2453 2828 2104 
Q 3016 1756 3016 1363 
Q 3016 978 2825 648 
Q 2634 319 2307 123 
Q 1981 -72 1600 -72 
z
M 1600 116 
Q 2113 116 2284 487 
Q 2456 859 2456 1434 
Q 2456 1756 2422 1967 
Q 2388 2178 2272 2350 
Q 2200 2456 2089 2536 
Q 1978 2616 1854 2658 
Q 1731 2700 1600 2700 
Q 1400 2700 1220 2609 
Q 1041 2519 922 2350 
Q 803 2169 770 1951 
Q 738 1734 738 1434 
Q 738 1075 800 789 
Q 863 503 1052 309 
Q 1241 116 1600 116 
z
" transform="scale(0.015625)"/>
       <path id="Cmr10-6e" d="M 191 0 
L 191 225 
Q 409 225 550 259 
Q 691 294 691 428 
L 691 2175 
Q 691 2347 639 2423 
Q 588 2500 491 2517 
Q 394 2534 191 2534 
L 191 2759 
L 1119 2828 
L 1119 2203 
Q 1247 2478 1498 2653 
Q 1750 2828 2047 2828 
Q 2491 2828 2714 2615 
Q 2938 2403 2938 1966 
L 2938 428 
Q 2938 294 3078 259 
Q 3219 225 3438 225 
L 3438 0 
L 1972 0 
L 1972 225 
Q 2191 225 2331 259 
Q 2472 294 2472 428 
L 2472 1947 
Q 2472 2259 2381 2461 
Q 2291 2663 2009 2663 
Q 1638 2663 1398 2366 
Q 1159 2069 1159 1691 
L 1159 428 
Q 1159 294 1300 259 
Q 1441 225 1656 225 
L 1656 0 
L 191 0 
z
" transform="scale(0.015625)"/>
       <path id="Cmr10-28" d="M 1984 -1588 
Q 1628 -1306 1370 -942 
Q 1113 -578 948 -165 
Q 784 247 703 697 
Q 622 1147 622 1600 
Q 622 2059 703 2509 
Q 784 2959 951 3375 
Q 1119 3791 1378 4153 
Q 1638 4516 1984 4788 
Q 1984 4800 2016 4800 
L 2075 4800 
Q 2094 4800 2109 4783 
Q 2125 4766 2125 4744 
Q 2125 4716 2113 4703 
Q 1800 4397 1592 4047 
Q 1384 3697 1257 3301 
Q 1131 2906 1075 2482 
Q 1019 2059 1019 1600 
Q 1019 -434 2106 -1491 
Q 2125 -1509 2125 -1544 
Q 2125 -1559 2108 -1579 
Q 2091 -1600 2075 -1600 
L 2016 -1600 
Q 1984 -1600 1984 -1588 
z
" transform="scale(0.015625)"/>
       <path id="Cmr10-64" d="M 1563 -72 
Q 1184 -72 871 133 
Q 559 338 386 672 
Q 213 1006 213 1381 
Q 213 1769 402 2101 
Q 591 2434 916 2631 
Q 1241 2828 1631 2828 
Q 1866 2828 2075 2729 
Q 2284 2631 2438 2456 
L 2438 3788 
Q 2438 3959 2386 4036 
Q 2334 4113 2239 4130 
Q 2144 4147 1941 4147 
L 1941 4372 
L 2888 4441 
L 2888 581 
Q 2888 413 2939 336 
Q 2991 259 3086 242 
Q 3181 225 3384 225 
L 3384 0 
L 2419 -72 
L 2419 331 
Q 2253 141 2025 34 
Q 1797 -72 1563 -72 
z
M 909 556 
Q 1019 347 1201 222 
Q 1384 97 1600 97 
Q 1866 97 2087 250 
Q 2309 403 2419 647 
L 2419 2181 
Q 2344 2322 2230 2433 
Q 2116 2544 1973 2603 
Q 1831 2663 1672 2663 
Q 1338 2663 1134 2473 
Q 931 2284 850 1990 
Q 769 1697 769 1375 
Q 769 1119 795 928 
Q 822 738 909 556 
z
" transform="scale(0.015625)"/>
       <path id="Cmr10-67" d="M 178 -500 
Q 178 -272 343 -101 
Q 509 69 738 141 
Q 609 238 542 384 
Q 475 531 475 697 
Q 475 997 666 1228 
Q 372 1516 372 1888 
Q 372 2088 458 2263 
Q 544 2438 697 2566 
Q 850 2694 1037 2761 
Q 1225 2828 1422 2828 
Q 1803 2828 2106 2606 
Q 2238 2747 2417 2823 
Q 2597 2900 2791 2900 
Q 2928 2900 3015 2801 
Q 3103 2703 3103 2566 
Q 3103 2488 3043 2428 
Q 2984 2369 2906 2369 
Q 2825 2369 2765 2428 
Q 2706 2488 2706 2566 
Q 2706 2684 2784 2731 
Q 2453 2731 2216 2503 
Q 2331 2388 2401 2220 
Q 2472 2053 2472 1888 
Q 2472 1616 2322 1398 
Q 2172 1181 1926 1061 
Q 1681 941 1422 941 
Q 1072 941 781 1131 
Q 691 1006 691 850 
Q 691 681 802 554 
Q 913 428 1081 428 
L 1606 428 
Q 1988 428 2294 359 
Q 2600 291 2808 84 
Q 3016 -122 3016 -500 
Q 3016 -781 2778 -967 
Q 2541 -1153 2211 -1236 
Q 1881 -1319 1600 -1319 
Q 1316 -1319 984 -1236 
Q 653 -1153 415 -967 
Q 178 -781 178 -500 
z
M 538 -500 
Q 538 -716 713 -861 
Q 888 -1006 1134 -1076 
Q 1381 -1147 1600 -1147 
Q 1816 -1147 2062 -1076 
Q 2309 -1006 2482 -861 
Q 2656 -716 2656 -500 
Q 2656 -166 2350 -67 
Q 2044 31 1606 31 
L 1081 31 
Q 934 31 811 -39 
Q 688 -109 613 -236 
Q 538 -363 538 -500 
z
M 1422 1113 
Q 1966 1113 1966 1888 
Q 1966 2222 1850 2439 
Q 1734 2656 1422 2656 
Q 1109 2656 993 2439 
Q 878 2222 878 1888 
Q 878 1675 922 1503 
Q 966 1331 1084 1222 
Q 1203 1113 1422 1113 
z
" transform="scale(0.015625)"/>
       <path id="Cmr10-72" d="M 166 0 
L 166 225 
Q 384 225 525 259 
Q 666 294 666 428 
L 666 2175 
Q 666 2347 614 2423 
Q 563 2500 466 2517 
Q 369 2534 166 2534 
L 166 2759 
L 1081 2828 
L 1081 2203 
Q 1184 2481 1375 2654 
Q 1566 2828 1838 2828 
Q 2028 2828 2178 2715 
Q 2328 2603 2328 2419 
Q 2328 2303 2245 2217 
Q 2163 2131 2041 2131 
Q 1922 2131 1837 2215 
Q 1753 2300 1753 2419 
Q 1753 2591 1875 2663 
L 1838 2663 
Q 1578 2663 1414 2475 
Q 1250 2288 1181 2009 
Q 1113 1731 1113 1478 
L 1113 428 
Q 1113 225 1734 225 
L 1734 0 
L 166 0 
z
" transform="scale(0.015625)"/>
       <path id="Cmr10-73" d="M 213 -19 
L 213 1025 
Q 213 1075 269 1075 
L 347 1075 
Q 384 1075 397 1025 
Q 575 97 1259 97 
Q 1563 97 1767 234 
Q 1972 372 1972 659 
Q 1972 866 1812 1011 
Q 1653 1156 1434 1209 
L 1006 1294 
Q 791 1341 614 1437 
Q 438 1534 325 1695 
Q 213 1856 213 2069 
Q 213 2350 361 2529 
Q 509 2709 746 2789 
Q 984 2869 1259 2869 
Q 1588 2869 1831 2694 
L 2016 2853 
Q 2016 2869 2047 2869 
L 2094 2869 
Q 2113 2869 2128 2851 
Q 2144 2834 2144 2816 
L 2144 1978 
Q 2144 1919 2094 1919 
L 2016 1919 
Q 1959 1919 1959 1978 
Q 1959 2313 1773 2516 
Q 1588 2719 1253 2719 
Q 966 2719 755 2612 
Q 544 2506 544 2247 
Q 544 2069 695 1955 
Q 847 1841 1050 1791 
L 1484 1709 
Q 1703 1659 1892 1540 
Q 2081 1422 2192 1240 
Q 2303 1059 2303 831 
Q 2303 600 2223 429 
Q 2144 259 2001 146 
Q 1859 34 1665 -19 
Q 1472 -72 1259 -72 
Q 859 -72 575 197 
L 341 -56 
Q 341 -72 306 -72 
L 269 -72 
Q 213 -72 213 -19 
z
" transform="scale(0.015625)"/>
       <path id="Cmr10-29" d="M 416 -1600 
Q 359 -1600 359 -1544 
Q 359 -1516 372 -1503 
Q 1466 -434 1466 1600 
Q 1466 3634 384 4691 
Q 359 4706 359 4744 
Q 359 4766 376 4783 
Q 394 4800 416 4800 
L 475 4800 
Q 494 4800 506 4788 
Q 966 4425 1272 3906 
Q 1578 3388 1720 2800 
Q 1863 2213 1863 1600 
Q 1863 1147 1786 708 
Q 1709 269 1542 -157 
Q 1375 -584 1119 -945 
Q 863 -1306 506 -1588 
Q 494 -1600 475 -1600 
L 416 -1600 
z
" transform="scale(0.015625)"/>
      </defs>
      <use xlink:href="#Cmr10-45"/>
      <use xlink:href="#Cmr10-6c" transform="translate(68.017578 0)"/>
      <use xlink:href="#Cmr10-65" transform="translate(95.703125 0)"/>
      <use xlink:href="#Cmr10-76" transform="translate(140.087891 0)"/>
      <use xlink:href="#Cmr10-61" transform="translate(192.773438 0)"/>
      <use xlink:href="#Cmr10-74" transform="translate(242.773438 0)"/>
      <use xlink:href="#Cmr10-69" transform="translate(281.591797 0)"/>
      <use xlink:href="#Cmr10-6f" transform="translate(309.277344 0)"/>
      <use xlink:href="#Cmr10-6e" transform="translate(359.277344 0)"/>
      <use xlink:href="#Cmr10-20" transform="translate(414.794922 0)"/>
      <use xlink:href="#Cmr10-28" transform="translate(448.095703 0)"/>
      <use xlink:href="#Cmr10-64" transform="translate(486.914062 0)"/>
      <use xlink:href="#Cmr10-65" transform="translate(542.431641 0)"/>
      <use xlink:href="#Cmr10-67" transform="translate(586.816406 0)"/>
      <use xlink:href="#Cmr10-72" transform="translate(636.816406 0)"/>
      <use xlink:href="#Cmr10-65" transform="translate(675.927734 0)"/>
      <use xlink:href="#Cmr10-65" transform="translate(720.3125 0)"/>
      <use xlink:href="#Cmr10-73" transform="translate(764.697266 0)"/>
      <use xlink:href="#Cmr10-29" transform="translate(804.101562 0)"/>
     </g>
    </g>
   </g>
   <g id="line2d_121">
    <path d="M 56.463636 313.607015 
L 63.138286 311.678764 
L 69.812882 309.692936 
L 76.487532 307.646201 
L 83.162182 305.535072 
L 89.836832 303.355842 
L 96.511481 301.104588 
L 103.186131 298.777173 
L 109.860726 296.369268 
L 116.535375 293.876282 
L 123.210025 291.293495 
L 129.884675 288.616003 
L 136.559324 285.838781 
L 143.233974 282.956737 
L 149.908624 279.964792 
L 156.58322 276.858008 
L 163.25787 273.631638 
L 169.932519 270.281459 
L 176.607169 266.803922 
L 183.281819 263.196498 
L 189.956468 259.458072 
L 196.631064 255.589494 
L 203.305714 251.594069 
L 209.980364 247.478513 
L 216.655012 243.253736 
L 223.329662 238.935932 
L 230.004312 234.547755 
L 236.678908 230.11963 
L 243.353558 225.690865 
L 250.028207 221.310972 
L 256.702857 217.04027 
L 263.377506 212.950012 
L 270.052156 209.121483 
L 276.726806 205.643781 
L 283.401402 202.610016 
L 290.076052 200.111783 
L 296.750701 198.232551 
L 303.425351 197.040243 
L 310.100001 196.580488 
L 316.774651 196.871668 
L 323.449245 197.90281 
L 330.123895 199.634875 
L 336.798545 202.004995 
L 343.473194 204.932924 
L 350.147844 208.328336 
L 356.822494 212.097815 
L 363.49709 216.150659 
L 370.17174 220.403257 
L 376.846389 224.78152 
L 383.521039 229.222219 
L 390.195689 233.673089 
L 396.870338 238.09222 
L 403.544933 242.446984 
L 410.219583 246.712939 
L 416.894232 250.872334 
L 423.568882 254.91304 
L 430.243532 258.827418 
L 436.918181 262.611372 
L 443.592831 266.263545 
L 450.267427 269.784628 
L 456.942077 273.176939 
L 463.616727 276.443817 
L 470.291377 279.589405 
L 476.966026 282.61835 
L 483.640676 285.535605 
L 490.315271 288.34625 
L 496.989921 291.055465 
L 503.66457 293.668311 
L 510.33922 296.189758 
L 517.01387 298.624621 
L 523.688519 300.97753 
L 530.363115 303.252894 
L 537.037765 305.454964 
L 543.712414 307.58772 
L 550.387064 309.654945 
L 557.061714 311.660211 
L 563.736364 313.606882 
" clip-path="url(#p2e3eac24fb)" style="fill: none; stroke: #0c5da5; stroke-width: 2; stroke-linecap: square"/>
   </g>
   <g id="line2d_122">
    <defs>
     <path id="m7d84846b42" d="M 0 3 
C 0.795609 3 1.55874 2.683901 2.12132 2.12132 
C 2.683901 1.55874 3 0.795609 3 0 
C 3 -0.795609 2.683901 -1.55874 2.12132 -2.12132 
C 1.55874 -2.683901 0.795609 -3 0 -3 
C -0.795609 -3 -1.55874 -2.683901 -2.12132 -2.12132 
C -2.683901 -1.55874 -3 -0.795609 -3 0 
C -3 0.795609 -2.683901 1.55874 -2.12132 2.12132 
C -1.55874 2.683901 -0.795609 3 0 3 
z
" style="stroke: #00b945"/>
    </defs>
    <g clip-path="url(#p2e3eac24fb)">
     <use xlink:href="#m7d84846b42" x="56.463636" y="313.607015" style="fill: #00b945; stroke: #00b945"/>
    </g>
   </g>
   <g id="line2d_123">
    <defs>
     <path id="m46d324ddf4" d="M -3 3 
L 3 3 
L 3 -3 
L -3 -3 
z
" style="stroke: #ff9500; stroke-linejoin: miter"/>
    </defs>
    <g clip-path="url(#p2e3eac24fb)">
     <use xlink:href="#m46d324ddf4" x="563.736364" y="313.606882" style="fill: #ff9500; stroke: #ff9500; stroke-linejoin: miter"/>
    </g>
   </g>
   <g id="patch_3">
    <path d="M 31.1 350.566875 
L 31.1 17.926875 
" style="fill: none; stroke: #ffffff; stroke-width: 0.5; stroke-linejoin: miter; stroke-linecap: square"/>
   </g>
   <g id="patch_4">
    <path d="M 589.1 350.566875 
L 589.1 17.926875 
" style="fill: none; stroke: #ffffff; stroke-width: 0.5; stroke-linejoin: miter; stroke-linecap: square"/>
   </g>
   <g id="patch_5">
    <path d="M 31.1 350.566875 
L 589.1 350.566875 
" style="fill: none; stroke: #ffffff; stroke-width: 0.5; stroke-linejoin: miter; stroke-linecap: square"/>
   </g>
   <g id="patch_6">
    <path d="M 31.1 17.926875 
L 589.1 17.926875 
" style="fill: none; stroke: #ffffff; stroke-width: 0.5; stroke-linejoin: miter; stroke-linecap: square"/>
   </g>
   <g id="text_17">
    <!-- Elevation Profile -->
    <g style="fill: #ffffff" transform="translate(265.97 11.926875) scale(0.12 -0.12)">
     <defs>
      <path id="Cmr10-50" d="M 213 0 
L 213 225 
Q 872 225 872 428 
L 872 3944 
Q 872 4147 213 4147 
L 213 4372 
L 2491 4372 
Q 2841 4372 3191 4228 
Q 3541 4084 3767 3809 
Q 3994 3534 3994 3169 
Q 3994 2813 3766 2544 
Q 3538 2275 3191 2136 
Q 2844 1997 2491 1997 
L 1466 1997 
L 1466 428 
Q 1466 225 2125 225 
L 2125 0 
L 213 0 
z
M 1447 2188 
L 2316 2188 
Q 2669 2188 2887 2289 
Q 3106 2391 3207 2605 
Q 3309 2819 3309 3169 
Q 3309 3691 3079 3919 
Q 2850 4147 2316 4147 
L 1772 4147 
Q 1656 4147 1592 4137 
Q 1528 4128 1487 4083 
Q 1447 4038 1447 3944 
L 1447 2188 
z
" transform="scale(0.015625)"/>
      <path id="Cmr10-66" d="M 206 0 
L 206 225 
Q 422 225 562 259 
Q 703 294 703 428 
L 703 2534 
L 213 2534 
L 213 2759 
L 703 2759 
L 703 3525 
Q 703 3731 789 3911 
Q 875 4091 1020 4225 
Q 1166 4359 1355 4436 
Q 1544 4513 1747 4513 
Q 1963 4513 2136 4384 
Q 2309 4256 2309 4044 
Q 2309 3922 2226 3839 
Q 2144 3756 2022 3756 
Q 1900 3756 1814 3839 
Q 1728 3922 1728 4044 
Q 1728 4244 1900 4313 
Q 1797 4347 1716 4347 
Q 1528 4347 1395 4214 
Q 1263 4081 1197 3890 
Q 1131 3700 1131 3513 
L 1131 2759 
L 1869 2759 
L 1869 2534 
L 1153 2534 
L 1153 428 
Q 1153 297 1340 261 
Q 1528 225 1772 225 
L 1772 0 
L 206 0 
z
" transform="scale(0.015625)"/>
     </defs>
     <use xlink:href="#Cmr10-45"/>
     <use xlink:href="#Cmr10-6c" transform="translate(68.017578 0)"/>
     <use xlink:href="#Cmr10-65" transform="translate(95.703125 0)"/>
     <use xlink:href="#Cmr10-76" transform="translate(140.087891 0)"/>
     <use xlink:href="#Cmr10-61" transform="translate(192.773438 0)"/>
     <use xlink:href="#Cmr10-74" transform="translate(242.773438 0)"/>
     <use xlink:href="#Cmr10-69" transform="translate(281.591797 0)"/>
     <use xlink:href="#Cmr10-6f" transform="translate(309.277344 0)"/>
     <use xlink:href="#Cmr10-6e" transform="translate(359.277344 0)"/>
     <use xlink:href="#Cmr10-20" transform="translate(414.794922 0)"/>
     <use xlink:href="#Cmr10-50" transform="translate(448.095703 0)"/>
     <use xlink:href="#Cmr10-72" transform="translate(516.113281 0)"/>
     <use xlink:href="#Cmr10-6f" transform="translate(555.224609 0)"/>
     <use xlink:href="#Cmr10-66" transform="translate(605.224609 0)"/>
     <use xlink:href="#Cmr10-69" transform="translate(635.742188 0)"/>
     <use xlink:href="#Cmr10-6c" transform="translate(663.427734 0)"/>
     <use xlink:href="#Cmr10-65" transform="translate(691.113281 0)"/>
    </g>
   </g>
   <g id="legend_1"/>
  </g>
 </g>
 <defs>
  <clipPath id="p2e3eac24fb">
   <rect x="31.1" y="17.926875" width="558" height="332.64"/>
  </clipPath>
 </defs>
</svg>
