<?xml version="1.0" encoding="utf-8" standalone="no"?>
<!DOCTYPE svg PUBLIC "-//W3C//DTD SVG 1.1//EN"
  "http://www.w3.org/Graphics/SVG/1.1/DTD/svg11.dtd">
<svg xmlns:xlink="http://www.w3.org/1999/xlink" width="488.22pt" height="507.915625pt" viewBox="0 0 488.22 507.915625" xmlns="http://www.w3.org/2000/svg" version="1.1">
 <metadata>
  <rdf:RDF xmlns:dc="http://purl.org/dc/elements/1.1/" xmlns:cc="http://creativecommons.org/ns#" xmlns:rdf="http://www.w3.org/1999/02/22-rdf-syntax-ns#">
   <cc:Work>
    <dc:type rdf:resource="http://purl.org/dc/dcmitype/StillImage"/>
    <dc:date>2026-02-14T01:30:56.175305</dc:date>
    <dc:format>image/svg+xml</dc:format>
    <dc:creator>
     <cc:Agent>
      <dc:title>Matplotlib v3.10.8, https://matplotlib.org/</dc:title>
     </cc:Agent>
    </dc:creator>
   </cc:Work>
  </rdf:RDF>
 </metadata>
 <defs>
  <style type="text/css">*{stroke-linejoin: round; stroke-linecap: butt}</style>
 </defs>
 <g id="figure_1">
  <g id="patch_1">
   <path d="M 0 507.915625 
L 488.22 507.915625 
L 488.22 0 
L 0 0 
z
" style="fill: #ffffff"/>
  </g>
  <g id="axes_1">
   <g id="patch_2">
    <path d="M 467.12 254.555625 
C 467.12 225.434369 461.383747 196.59628 450.239525 169.691747 
C 439.095303 142.787214 422.759838 118.339463 402.168 97.747625 
C 381.576162 77.155787 357.128411 60.820322 330.223878 49.6761 
C 303.319345 38.531878 274.481256 32.795625 245.36 32.795625 
C 216.238744 32.795625 187.400655 38.531878 160.496122 49.6761 
C 133.591589 60.820322 109.143838 77.155787 88.552 97.747625 
C 67.960162 118.339463 51.624697 142.787214 40.480475 169.691747 
C 29.336253 196.59628 23.6 225.434369 23.6 254.555625 
C 23.6 283.676881 29.336253 312.51497 40.480475 339.419503 
C 51.624697 366.324036 67.960162 390.771787 88.552 411.363625 
C 109.143838 431.955463 133.591589 448.290928 160.496122 459.43515 
C 187.400655 470.579372 216.238744 476.315625 245.36 476.315625 
C 274.481256 476.315625 303.319345 470.579372 330.223878 459.43515 
C 357.128411 448.290928 381.576162 431.955463 402.168 411.363625 
C 422.759838 390.771787 439.095303 366.324036 450.239525 339.419503 
C 461.383747 312.51497 467.12 283.676881 467.12 254.555625 
M 245.36 254.555625 
C 245.36 254.555625 245.36 254.555625 245.36 254.555625 
C 245.36 254.555625 245.36 254.555625 245.36 254.555625 
C 245.36 254.555625 245.36 254.555625 245.36 254.555625 
C 245.36 254.555625 245.36 254.555625 245.36 254.555625 
C 245.36 254.555625 245.36 254.555625 245.36 254.555625 
C 245.36 254.555625 245.36 254.555625 245.36 254.555625 
C 245.36 254.555625 245.36 254.555625 245.36 254.555625 
C 245.36 254.555625 245.36 254.555625 245.36 254.555625 
C 245.36 254.555625 245.36 254.555625 245.36 254.555625 
C 245.36 254.555625 245.36 254.555625 245.36 254.555625 
C 245.36 254.555625 245.36 254.555625 245.36 254.555625 
C 245.36 254.555625 245.36 254.555625 245.36 254.555625 
C 245.36 254.555625 245.36 254.555625 245.36 254.555625 
C 245.36 254.555625 245.36 254.555625 245.36 254.555625 
C 245.36 254.555625 245.36 254.555625 245.36 254.555625 
C 245.36 254.555625 245.36 254.555625 245.36 254.555625 
z
" style="fill: #ffffff"/>
   </g>
   <g id="matplotlib.axis_1">
    <g id="xtick_1">
     <g id="line2d_1">
      <path d="M 245.36 254.555625 
L 245.36 32.795625 
" clip-path="url(#p4a0048ab84)" style="fill: none; stroke: #b0b0b0; stroke-width: 0.5; stroke-linecap: square"/>
     </g>
     <g id="text_1">
      <!-- 0° -->
      <g transform="translate(240.86 24.625312) scale(0.1 -0.1)">
       <defs>
        <path id="STIXGeneral-Regular-30" d="M 3046 2112 
Q 3046 1683 2963 1302 
Q 2880 922 2717 602 
Q 2554 282 2266 96 
Q 1978 -90 1600 -90 
Q 1210 -90 915 108 
Q 621 307 461 640 
Q 301 973 227 1350 
Q 154 1728 154 2150 
Q 154 2746 301 3222 
Q 448 3699 790 4012 
Q 1133 4326 1626 4326 
Q 2253 4326 2649 3712 
Q 3046 3098 3046 2112 
z
M 2432 2080 
Q 2432 3091 2217 3625 
Q 2003 4160 1587 4160 
Q 1190 4160 979 3622 
Q 768 3085 768 2106 
Q 768 1120 979 598 
Q 1190 77 1600 77 
Q 2003 77 2217 598 
Q 2432 1120 2432 2080 
z
" transform="scale(0.015625)"/>
        <path id="STIXGeneral-Regular-b0" d="M 2195 3411 
Q 2195 3027 1929 2761 
Q 1664 2496 1280 2496 
Q 890 2496 627 2761 
Q 365 3027 365 3418 
Q 365 3802 633 4064 
Q 902 4326 1293 4326 
Q 1664 4326 1929 4057 
Q 2195 3789 2195 3411 
z
M 1946 3418 
Q 1946 3699 1744 3904 
Q 1542 4109 1267 4109 
Q 1005 4109 809 3901 
Q 614 3693 614 3411 
Q 614 3123 809 2918 
Q 1005 2714 1280 2714 
Q 1555 2714 1750 2922 
Q 1946 3130 1946 3418 
z
" transform="scale(0.015625)"/>
       </defs>
       <use xlink:href="#STIXGeneral-Regular-30"/>
       <use xlink:href="#STIXGeneral-Regular-b0" transform="translate(49.999985 0)"/>
      </g>
     </g>
    </g>
    <g id="xtick_2">
     <g id="line2d_2">
      <path d="M 245.36 254.555625 
L 402.168 97.747625 
" clip-path="url(#p4a0048ab84)" style="fill: none; stroke: #b0b0b0; stroke-width: 0.5; stroke-linecap: square"/>
     </g>
     <g id="text_2">
      <!-- 45° -->
      <g transform="translate(402.592621 92.652692) scale(0.1 -0.1)">
       <defs>
        <path id="STIXGeneral-Regular-34" d="M 3027 1069 
L 2368 1069 
L 2368 0 
L 1869 0 
L 1869 1069 
L 77 1069 
L 77 1478 
L 2086 4326 
L 2368 4326 
L 2368 1478 
L 3027 1478 
L 3027 1069 
z
M 1869 1478 
L 1869 3674 
L 333 1478 
L 1869 1478 
z
" transform="scale(0.015625)"/>
        <path id="STIXGeneral-Regular-35" d="M 2803 4358 
L 2573 3814 
Q 2534 3731 2400 3731 
L 1158 3731 
L 902 3187 
Q 1606 3053 1920 2896 
Q 2234 2739 2502 2368 
Q 2726 2061 2726 1555 
Q 2726 1094 2576 780 
Q 2426 467 2099 224 
Q 1664 -90 1011 -90 
Q 646 -90 422 19 
Q 198 128 198 307 
Q 198 550 486 550 
Q 717 550 960 352 
Q 1210 147 1414 147 
Q 1747 147 2012 480 
Q 2278 813 2278 1229 
Q 2278 1843 1850 2189 
Q 1293 2637 486 2637 
Q 410 2637 410 2688 
L 416 2720 
L 1114 4237 
L 2438 4237 
Q 2547 4237 2608 4269 
Q 2669 4301 2746 4403 
L 2803 4358 
z
" transform="scale(0.015625)"/>
       </defs>
       <use xlink:href="#STIXGeneral-Regular-34"/>
       <use xlink:href="#STIXGeneral-Regular-35" transform="translate(49.999985 0)"/>
       <use xlink:href="#STIXGeneral-Regular-b0" transform="translate(99.999969 0)"/>
      </g>
     </g>
    </g>
    <g id="xtick_3">
     <g id="line2d_3">
      <path d="M 245.36 254.555625 
L 467.12 254.555625 
" clip-path="url(#p4a0048ab84)" style="fill: none; stroke: #b0b0b0; stroke-width: 0.5; stroke-linecap: square"/>
     </g>
     <g id="text_3">
      <!-- 90° -->
      <g transform="translate(470.62 256.885312) scale(0.1 -0.1)">
       <defs>
        <path id="STIXGeneral-Regular-39" d="M 378 -141 
L 358 -13 
Q 1094 115 1603 608 
Q 2112 1101 2304 1882 
Q 1933 1517 1344 1517 
Q 826 1517 509 1875 
Q 192 2234 192 2816 
Q 192 3462 573 3894 
Q 954 4326 1523 4326 
Q 2131 4326 2528 3840 
Q 2938 3328 2938 2522 
Q 2938 1958 2742 1462 
Q 2547 966 2170 621 
Q 1773 262 1395 105 
Q 1018 -51 378 -141 
z
M 2317 2272 
L 2317 2522 
Q 2317 4147 1472 4147 
Q 1171 4147 1005 3930 
Q 909 3802 845 3546 
Q 781 3290 781 3034 
Q 781 2464 995 2128 
Q 1210 1792 1568 1792 
Q 1824 1792 2070 1917 
Q 2317 2042 2317 2272 
z
" transform="scale(0.015625)"/>
       </defs>
       <use xlink:href="#STIXGeneral-Regular-39"/>
       <use xlink:href="#STIXGeneral-Regular-30" transform="translate(49.999985 0)"/>
       <use xlink:href="#STIXGeneral-Regular-b0" transform="translate(99.999969 0)"/>
      </g>
     </g>
    </g>
    <g id="xtick_4">
     <g id="line2d_4">
      <path d="M 245.36 254.555625 
L 402.168 411.363625 
" clip-path="url(#p4a0048ab84)" style="fill: none; stroke: #b0b0b0; stroke-width: 0.5; stroke-linecap: square"/>
     </g>
     <g id="text_4">
      <!-- 135° -->
      <g transform="translate(400.092621 421.117933) scale(0.1 -0.1)">
       <defs>
        <path id="STIXGeneral-Regular-31" d="M 2522 0 
L 755 0 
L 755 96 
Q 1107 115 1235 227 
Q 1363 339 1363 608 
L 1363 3482 
Q 1363 3795 1171 3795 
Q 1082 3795 883 3718 
L 710 3654 
L 710 3744 
L 1856 4326 
L 1914 4307 
L 1914 486 
Q 1914 275 2042 185 
Q 2170 96 2522 96 
L 2522 0 
z
" transform="scale(0.015625)"/>
        <path id="STIXGeneral-Regular-33" d="M 390 3264 
L 288 3290 
Q 435 3770 748 4048 
Q 1062 4326 1542 4326 
Q 1990 4326 2265 4083 
Q 2541 3840 2541 3450 
Q 2541 2925 1946 2566 
Q 2298 2413 2477 2227 
Q 2758 1914 2758 1402 
Q 2758 890 2464 506 
Q 2246 211 1840 60 
Q 1434 -90 979 -90 
Q 262 -90 262 275 
Q 262 378 339 442 
Q 416 506 525 506 
Q 685 506 915 339 
Q 1197 141 1466 141 
Q 1818 141 2058 425 
Q 2298 710 2298 1120 
Q 2298 1856 1632 2048 
Q 1434 2112 979 2112 
L 979 2202 
Q 1338 2323 1517 2432 
Q 2035 2726 2035 3290 
Q 2035 3610 1852 3776 
Q 1670 3942 1344 3942 
Q 768 3942 390 3264 
z
" transform="scale(0.015625)"/>
       </defs>
       <use xlink:href="#STIXGeneral-Regular-31"/>
       <use xlink:href="#STIXGeneral-Regular-33" transform="translate(49.999985 0)"/>
       <use xlink:href="#STIXGeneral-Regular-35" transform="translate(99.999969 0)"/>
       <use xlink:href="#STIXGeneral-Regular-b0" transform="translate(149.999954 0)"/>
      </g>
     </g>
    </g>
    <g id="xtick_5">
     <g id="line2d_5">
      <path d="M 245.36 254.555625 
L 245.36 476.315625 
" clip-path="url(#p4a0048ab84)" style="fill: none; stroke: #b0b0b0; stroke-width: 0.5; stroke-linecap: square"/>
     </g>
     <g id="text_5">
      <!-- 180° -->
      <g transform="translate(235.86 489.145312) scale(0.1 -0.1)">
       <defs>
        <path id="STIXGeneral-Regular-38" d="M 2848 992 
Q 2848 499 2505 204 
Q 2163 -90 1587 -90 
Q 1050 -90 704 204 
Q 358 499 358 954 
Q 358 1293 524 1533 
Q 691 1773 1190 2125 
Q 710 2522 553 2765 
Q 397 3008 397 3328 
Q 397 3782 745 4054 
Q 1094 4326 1638 4326 
Q 2106 4326 2410 4060 
Q 2714 3795 2714 3411 
Q 2714 3059 2531 2848 
Q 2349 2637 1856 2374 
Q 2432 1990 2640 1689 
Q 2848 1389 2848 992 
z
M 2272 3411 
Q 2272 3744 2086 3945 
Q 1901 4147 1574 4147 
Q 1248 4147 1059 3977 
Q 870 3808 870 3513 
Q 870 3219 1059 2979 
Q 1248 2739 1670 2490 
Q 1997 2682 2134 2896 
Q 2272 3110 2272 3411 
z
M 1734 1741 
L 1357 1997 
Q 1075 1766 960 1545 
Q 845 1325 845 1011 
Q 845 576 1065 333 
Q 1286 90 1658 90 
Q 1971 90 2166 285 
Q 2362 480 2362 794 
Q 2362 1082 2214 1299 
Q 2067 1517 1734 1741 
z
" transform="scale(0.015625)"/>
       </defs>
       <use xlink:href="#STIXGeneral-Regular-31"/>
       <use xlink:href="#STIXGeneral-Regular-38" transform="translate(49.999985 0)"/>
       <use xlink:href="#STIXGeneral-Regular-30" transform="translate(99.999969 0)"/>
       <use xlink:href="#STIXGeneral-Regular-b0" transform="translate(149.999954 0)"/>
      </g>
     </g>
    </g>
    <g id="xtick_6">
     <g id="line2d_6">
      <path d="M 245.36 254.555625 
L 88.552 411.363625 
" clip-path="url(#p4a0048ab84)" style="fill: none; stroke: #b0b0b0; stroke-width: 0.5; stroke-linecap: square"/>
     </g>
     <g id="text_6">
      <!-- 225° -->
      <g transform="translate(71.627379 421.117933) scale(0.1 -0.1)">
       <defs>
        <path id="STIXGeneral-Regular-32" d="M 3034 877 
L 2688 0 
L 186 0 
L 186 77 
L 1325 1286 
Q 1773 1754 1965 2144 
Q 2157 2534 2157 2950 
Q 2157 3379 1920 3616 
Q 1683 3853 1267 3853 
Q 922 3853 720 3673 
Q 518 3494 326 3021 
L 192 3053 
Q 301 3648 630 3987 
Q 960 4326 1523 4326 
Q 2054 4326 2380 4006 
Q 2707 3686 2707 3200 
Q 2707 2477 1888 1613 
L 832 486 
L 2330 486 
Q 2541 486 2665 569 
Q 2790 653 2944 915 
L 3034 877 
z
" transform="scale(0.015625)"/>
       </defs>
       <use xlink:href="#STIXGeneral-Regular-32"/>
       <use xlink:href="#STIXGeneral-Regular-32" transform="translate(49.999985 0)"/>
       <use xlink:href="#STIXGeneral-Regular-35" transform="translate(99.999969 0)"/>
       <use xlink:href="#STIXGeneral-Regular-b0" transform="translate(149.999954 0)"/>
      </g>
     </g>
    </g>
    <g id="xtick_7">
     <g id="line2d_7">
      <path d="M 245.36 254.555625 
L 23.6 254.555625 
" clip-path="url(#p4a0048ab84)" style="fill: none; stroke: #b0b0b0; stroke-width: 0.5; stroke-linecap: square"/>
     </g>
     <g id="text_7">
      <!-- 270° -->
      <g transform="translate(3.6 256.885312) scale(0.1 -0.1)">
       <defs>
        <path id="STIXGeneral-Regular-37" d="M 2874 4134 
L 1517 -51 
L 1101 -51 
L 2368 3763 
L 992 3763 
Q 717 3763 582 3667 
Q 448 3571 243 3238 
L 128 3296 
L 512 4237 
L 2874 4237 
L 2874 4134 
z
" transform="scale(0.015625)"/>
       </defs>
       <use xlink:href="#STIXGeneral-Regular-32"/>
       <use xlink:href="#STIXGeneral-Regular-37" transform="translate(49.999985 0)"/>
       <use xlink:href="#STIXGeneral-Regular-30" transform="translate(99.999969 0)"/>
       <use xlink:href="#STIXGeneral-Regular-b0" transform="translate(149.999954 0)"/>
      </g>
     </g>
    </g>
    <g id="xtick_8">
     <g id="line2d_8">
      <path d="M 245.36 254.555625 
L 88.552 97.747625 
" clip-path="url(#p4a0048ab84)" style="fill: none; stroke: #b0b0b0; stroke-width: 0.5; stroke-linecap: square"/>
     </g>
     <g id="text_8">
      <!-- 315° -->
      <g transform="translate(71.627379 92.652692) scale(0.1 -0.1)">
       <use xlink:href="#STIXGeneral-Regular-33"/>
       <use xlink:href="#STIXGeneral-Regular-31" transform="translate(49.999985 0)"/>
       <use xlink:href="#STIXGeneral-Regular-35" transform="translate(99.999969 0)"/>
       <use xlink:href="#STIXGeneral-Regular-b0" transform="translate(149.999954 0)"/>
      </g>
     </g>
    </g>
    <g id="text_9">
     <!-- Azimuth -->
     <g transform="translate(227.86 502.145312) scale(0.1 -0.1)">
      <defs>
       <path id="STIXGeneral-Regular-41" d="M 4525 0 
L 2893 0 
L 2893 122 
Q 3149 122 3245 179 
Q 3334 224 3334 333 
Q 3334 499 3213 781 
L 2950 1382 
L 1274 1382 
L 979 653 
Q 922 506 922 384 
Q 922 237 1027 179 
Q 1133 122 1370 122 
L 1370 0 
L 96 0 
L 96 122 
Q 365 147 486 316 
Q 608 486 902 1190 
L 2221 4314 
L 2349 4314 
L 3923 710 
Q 4064 378 4176 262 
Q 4288 147 4525 122 
L 4525 0 
z
M 2861 1645 
L 2118 3405 
L 1382 1645 
L 2861 1645 
z
" transform="scale(0.015625)"/>
       <path id="STIXGeneral-Regular-7a" d="M 2675 870 
L 2579 0 
L 173 0 
L 173 96 
L 1875 2688 
L 1011 2688 
Q 710 2688 604 2582 
Q 499 2477 454 2125 
L 339 2125 
L 365 2880 
L 2579 2880 
L 2579 2784 
L 858 192 
L 1709 192 
Q 2246 192 2387 365 
Q 2477 474 2560 896 
L 2675 870 
z
" transform="scale(0.015625)"/>
       <path id="STIXGeneral-Regular-69" d="M 1152 4045 
Q 1152 3904 1056 3811 
Q 960 3718 819 3718 
Q 685 3718 592 3811 
Q 499 3904 499 4045 
Q 499 4179 595 4275 
Q 691 4371 826 4371 
Q 966 4371 1059 4275 
Q 1152 4179 1152 4045 
z
M 1619 0 
L 102 0 
L 102 96 
Q 435 115 521 211 
Q 608 307 608 666 
L 608 2118 
Q 608 2342 563 2432 
Q 518 2522 397 2522 
Q 243 2522 128 2490 
L 128 2592 
L 1120 2944 
L 1146 2918 
L 1146 672 
Q 1146 314 1226 218 
Q 1306 122 1619 96 
L 1619 0 
z
" transform="scale(0.015625)"/>
       <path id="STIXGeneral-Regular-6d" d="M 4960 0 
L 3565 0 
L 3565 96 
Q 3834 122 3907 208 
Q 3981 294 3981 576 
L 3981 1894 
Q 3981 2278 3869 2444 
Q 3757 2611 3488 2611 
Q 3264 2611 3107 2521 
Q 2950 2432 2803 2221 
L 2803 608 
Q 2803 301 2896 201 
Q 2989 102 3264 96 
L 3264 0 
L 1830 0 
L 1830 96 
Q 2112 115 2189 188 
Q 2266 262 2266 550 
L 2266 1901 
Q 2266 2611 1850 2611 
Q 1670 2611 1468 2531 
Q 1267 2451 1171 2336 
Q 1088 2240 1088 2227 
L 1088 448 
Q 1088 243 1177 176 
Q 1267 109 1523 96 
L 1523 0 
L 102 0 
L 102 96 
Q 371 102 460 195 
Q 550 288 550 563 
L 550 2150 
Q 550 2387 499 2480 
Q 448 2573 326 2573 
Q 230 2573 122 2547 
L 122 2656 
Q 557 2778 1011 2944 
L 1062 2925 
L 1062 2451 
L 1075 2451 
Q 1363 2752 1584 2848 
Q 1805 2944 2054 2944 
Q 2560 2944 2733 2406 
Q 3232 2944 3776 2944 
Q 4518 2944 4518 1792 
L 4518 493 
Q 4518 282 4582 202 
Q 4646 122 4794 109 
L 4960 96 
L 4960 0 
z
" transform="scale(0.015625)"/>
       <path id="STIXGeneral-Regular-75" d="M 3072 320 
L 3072 230 
Q 2573 96 2195 -58 
L 2163 -38 
L 2163 486 
L 2150 486 
Q 1747 -64 1235 -64 
Q 870 -64 662 160 
Q 454 384 454 755 
L 454 2362 
Q 454 2598 371 2688 
Q 288 2778 58 2790 
L 58 2880 
L 992 2880 
L 992 813 
Q 992 595 1123 451 
Q 1254 307 1446 307 
Q 1760 307 1984 506 
Q 2067 582 2099 649 
Q 2131 717 2131 877 
L 2131 2355 
Q 2131 2605 2041 2678 
Q 1952 2752 1658 2771 
L 1658 2880 
L 2669 2880 
L 2669 685 
Q 2669 461 2742 390 
Q 2816 320 3034 320 
L 3072 320 
z
" transform="scale(0.015625)"/>
       <path id="STIXGeneral-Regular-74" d="M 1702 493 
L 1786 422 
Q 1478 -64 1011 -64 
Q 448 -64 448 749 
L 448 2675 
L 109 2675 
Q 83 2694 83 2720 
Q 83 2771 192 2842 
Q 435 2982 813 3526 
Q 826 3546 874 3606 
Q 922 3667 941 3706 
Q 986 3706 986 3622 
L 986 2880 
L 1632 2880 
L 1632 2675 
L 986 2675 
L 986 845 
Q 986 538 1062 403 
Q 1139 269 1318 269 
Q 1510 269 1702 493 
z
" transform="scale(0.015625)"/>
       <path id="STIXGeneral-Regular-68" d="M 3117 0 
L 1760 0 
L 1760 96 
Q 2042 128 2118 224 
Q 2195 320 2195 653 
L 2195 1920 
Q 2195 2598 1722 2598 
Q 1530 2598 1370 2508 
Q 1210 2419 1005 2195 
L 1005 653 
Q 1005 320 1081 224 
Q 1158 128 1440 96 
L 1440 0 
L 58 0 
L 58 96 
Q 333 134 400 224 
Q 467 314 467 653 
L 467 3667 
Q 467 3872 406 3933 
Q 346 3994 141 3994 
Q 83 3994 64 3987 
L 64 4090 
L 237 4141 
Q 730 4288 973 4371 
L 1005 4352 
L 1005 2406 
Q 1229 2694 1446 2819 
Q 1664 2944 1946 2944 
Q 2733 2944 2733 1926 
L 2733 653 
Q 2733 320 2793 233 
Q 2854 147 3117 96 
L 3117 0 
z
" transform="scale(0.015625)"/>
      </defs>
      <use xlink:href="#STIXGeneral-Regular-41"/>
      <use xlink:href="#STIXGeneral-Regular-7a" transform="translate(72.199982 0)"/>
      <use xlink:href="#STIXGeneral-Regular-69" transform="translate(116.599976 0)"/>
      <use xlink:href="#STIXGeneral-Regular-6d" transform="translate(144.399963 0)"/>
      <use xlink:href="#STIXGeneral-Regular-75" transform="translate(222.199951 0)"/>
      <use xlink:href="#STIXGeneral-Regular-74" transform="translate(272.199936 0)"/>
      <use xlink:href="#STIXGeneral-Regular-68" transform="translate(299.999924 0)"/>
     </g>
    </g>
   </g>
   <g id="matplotlib.axis_2">
    <g id="ytick_1">
     <g id="line2d_9">
      <path d="M 245.36 217.595625 
C 250.213543 217.595625 255.019891 218.551667 259.50398 220.409037 
C 263.988068 222.266408 268.062694 224.988985 271.494667 228.420958 
C 274.92664 231.852931 277.649217 235.927557 279.506588 240.411645 
C 281.363958 244.895734 282.32 249.702082 282.32 254.555625 
C 282.32 259.409168 281.363958 264.215516 279.506588 268.699605 
C 277.649217 273.183693 274.92664 277.258319 271.494667 280.690292 
C 268.062694 284.122265 263.988068 286.844842 259.50398 288.702213 
C 255.019891 290.559583 250.213543 291.515625 245.36 291.515625 
C 240.506457 291.515625 235.700109 290.559583 231.21602 288.702213 
C 226.731932 286.844842 222.657306 284.122265 219.225333 280.690292 
C 215.79336 277.258319 213.070783 273.183693 211.213412 268.699605 
C 209.356042 264.215516 208.4 259.409168 208.4 254.555625 
C 208.4 249.702082 209.356042 244.895734 211.213412 240.411645 
C 213.070783 235.927557 215.79336 231.852931 219.225333 228.420958 
C 222.657306 224.988985 226.731932 222.266408 231.21602 220.409037 
C 235.700109 218.551667 240.506457 217.595625 245.36 217.595625 
" clip-path="url(#p4a0048ab84)" style="fill: none; stroke: #b0b0b0; stroke-width: 0.5; stroke-linecap: square"/>
     </g>
     <g id="text_10">
      <!-- 75° -->
      <g transform="translate(259.50398 218.238725) scale(0.1 -0.1)">
       <use xlink:href="#STIXGeneral-Regular-37"/>
       <use xlink:href="#STIXGeneral-Regular-35" transform="translate(49.999985 0)"/>
       <use xlink:href="#STIXGeneral-Regular-b0" transform="translate(99.999969 0)"/>
      </g>
     </g>
    </g>
    <g id="ytick_2">
     <g id="line2d_10">
      <path d="M 245.36 180.635625 
C 255.067085 180.635625 264.679782 182.547709 273.647959 186.26245 
C 282.616137 189.977191 290.765387 195.422346 297.629333 202.286292 
C 304.493279 209.150238 309.938434 217.299488 313.653175 226.267666 
C 317.367916 235.235843 319.28 244.84854 319.28 254.555625 
C 319.28 264.26271 317.367916 273.875407 313.653175 282.843584 
C 309.938434 291.811762 304.493279 299.961012 297.629333 306.824958 
C 290.765387 313.688904 282.616137 319.134059 273.647959 322.8488 
C 264.679782 326.563541 255.067085 328.475625 245.36 328.475625 
C 235.652915 328.475625 226.040218 326.563541 217.072041 322.8488 
C 208.103863 319.134059 199.954613 313.688904 193.090667 306.824958 
C 186.226721 299.961012 180.781566 291.811762 177.066825 282.843584 
C 173.352084 273.875407 171.44 264.26271 171.44 254.555625 
C 171.44 244.84854 173.352084 235.235843 177.066825 226.267666 
C 180.781566 217.299488 186.226721 209.150238 193.090667 202.286292 
C 199.954613 195.422346 208.103863 189.977191 217.072041 186.26245 
C 226.040218 182.547709 235.652915 180.635625 245.36 180.635625 
" clip-path="url(#p4a0048ab84)" style="fill: none; stroke: #b0b0b0; stroke-width: 0.5; stroke-linecap: square"/>
     </g>
     <g id="text_11">
      <!-- 60° -->
      <g transform="translate(273.647959 184.092137) scale(0.1 -0.1)">
       <defs>
        <path id="STIXGeneral-Regular-36" d="M 2854 4378 
L 2867 4275 
Q 2112 4154 1606 3664 
Q 1101 3174 973 2451 
Q 1344 2739 1786 2739 
Q 2349 2739 2672 2380 
Q 2995 2022 2995 1402 
Q 2995 774 2669 378 
Q 2291 -90 1651 -90 
Q 870 -90 518 557 
Q 218 1107 218 1786 
Q 218 2835 915 3552 
Q 1312 3962 1731 4131 
Q 2150 4301 2854 4378 
z
M 2419 1203 
Q 2419 2445 1555 2445 
Q 1235 2445 1024 2275 
Q 813 2106 813 1702 
Q 813 954 1046 522 
Q 1280 90 1722 90 
Q 2061 90 2240 394 
Q 2419 698 2419 1203 
z
" transform="scale(0.015625)"/>
       </defs>
       <use xlink:href="#STIXGeneral-Regular-36"/>
       <use xlink:href="#STIXGeneral-Regular-30" transform="translate(49.999985 0)"/>
       <use xlink:href="#STIXGeneral-Regular-b0" transform="translate(99.999969 0)"/>
      </g>
     </g>
    </g>
    <g id="ytick_3">
     <g id="line2d_11">
      <path d="M 245.36 143.675625 
C 259.920628 143.675625 274.339673 146.543751 287.791939 152.115862 
C 301.244205 157.687974 313.468081 165.855706 323.764 176.151625 
C 334.059919 186.447544 342.227651 198.67142 347.799763 212.123686 
C 353.371874 225.575952 356.24 239.994997 356.24 254.555625 
C 356.24 269.116253 353.371874 283.535298 347.799763 296.987564 
C 342.227651 310.43983 334.059919 322.663706 323.764 332.959625 
C 313.468081 343.255544 301.244205 351.423276 287.791939 356.995388 
C 274.339673 362.567499 259.920628 365.435625 245.36 365.435625 
C 230.799372 365.435625 216.380327 362.567499 202.928061 356.995388 
C 189.475795 351.423276 177.251919 343.255544 166.956 332.959625 
C 156.660081 322.663706 148.492349 310.43983 142.920237 296.987564 
C 137.348126 283.535298 134.48 269.116253 134.48 254.555625 
C 134.48 239.994997 137.348126 225.575952 142.920237 212.123686 
C 148.492349 198.67142 156.660081 186.447544 166.956 176.151625 
C 177.251919 165.855706 189.475795 157.687974 202.928061 152.115862 
C 216.380327 146.543751 230.799372 143.675625 245.36 143.675625 
" clip-path="url(#p4a0048ab84)" style="fill: none; stroke: #b0b0b0; stroke-width: 0.5; stroke-linecap: square"/>
     </g>
     <g id="text_12">
      <!-- 45° -->
      <g transform="translate(287.791939 149.94555) scale(0.1 -0.1)">
       <use xlink:href="#STIXGeneral-Regular-34"/>
       <use xlink:href="#STIXGeneral-Regular-35" transform="translate(49.999985 0)"/>
       <use xlink:href="#STIXGeneral-Regular-b0" transform="translate(99.999969 0)"/>
      </g>
     </g>
    </g>
    <g id="ytick_4">
     <g id="line2d_12">
      <path d="M 245.36 106.715625 
C 264.774171 106.715625 283.999563 110.539793 301.935919 117.969275 
C 319.872274 125.398756 336.170775 136.289067 349.898667 150.016958 
C 363.626558 163.74485 374.516869 180.043351 381.94635 197.979706 
C 389.375832 215.916062 393.2 235.141454 393.2 254.555625 
C 393.2 273.969796 389.375832 293.195188 381.94635 311.131544 
C 374.516869 329.067899 363.626558 345.3664 349.898667 359.094292 
C 336.170775 372.822183 319.872274 383.712494 301.935919 391.141975 
C 283.999563 398.571457 264.774171 402.395625 245.36 402.395625 
C 225.945829 402.395625 206.720437 398.571457 188.784081 391.141975 
C 170.847726 383.712494 154.549225 372.822183 140.821333 359.094292 
C 127.093442 345.3664 116.203131 329.067899 108.77365 311.131544 
C 101.344168 293.195188 97.52 273.969796 97.52 254.555625 
C 97.52 235.141454 101.344168 215.916062 108.77365 197.979706 
C 116.203131 180.043351 127.093442 163.74485 140.821333 150.016958 
C 154.549225 136.289067 170.847726 125.398756 188.784081 117.969275 
C 206.720437 110.539793 225.945829 106.715625 245.36 106.715625 
" clip-path="url(#p4a0048ab84)" style="fill: none; stroke: #b0b0b0; stroke-width: 0.5; stroke-linecap: square"/>
     </g>
     <g id="text_13">
      <!-- 30° -->
      <g transform="translate(301.935919 115.798962) scale(0.1 -0.1)">
       <use xlink:href="#STIXGeneral-Regular-33"/>
       <use xlink:href="#STIXGeneral-Regular-30" transform="translate(49.999985 0)"/>
       <use xlink:href="#STIXGeneral-Regular-b0" transform="translate(99.999969 0)"/>
      </g>
     </g>
    </g>
    <g id="ytick_5">
     <g id="line2d_13">
      <path d="M 245.36 69.755625 
C 269.627714 69.755625 293.659454 74.535835 316.079898 83.822687 
C 338.500342 93.109539 358.873468 106.722427 376.033333 123.882292 
C 393.193198 141.042157 406.806086 161.415283 416.092938 183.835727 
C 425.37979 206.256171 430.16 230.287911 430.16 254.555625 
C 430.16 278.823339 425.37979 302.855079 416.092938 325.275523 
C 406.806086 347.695967 393.193198 368.069093 376.033333 385.228958 
C 358.873468 402.388823 338.500342 416.001711 316.079898 425.288563 
C 293.659454 434.575415 269.627714 439.355625 245.36 439.355625 
C 221.092286 439.355625 197.060546 434.575415 174.640102 425.288563 
C 152.219658 416.001711 131.846532 402.388823 114.686667 385.228958 
C 97.526802 368.069093 83.913914 347.695967 74.627062 325.275523 
C 65.34021 302.855079 60.56 278.823339 60.56 254.555625 
C 60.56 230.287911 65.34021 206.256171 74.627062 183.835727 
C 83.913914 161.415283 97.526802 141.042157 114.686667 123.882292 
C 131.846532 106.722427 152.219658 93.109539 174.640102 83.822687 
C 197.060546 74.535835 221.092286 69.755625 245.36 69.755625 
" clip-path="url(#p4a0048ab84)" style="fill: none; stroke: #b0b0b0; stroke-width: 0.5; stroke-linecap: square"/>
     </g>
     <g id="text_14">
      <!-- 15° -->
      <g transform="translate(316.079898 81.652375) scale(0.1 -0.1)">
       <use xlink:href="#STIXGeneral-Regular-31"/>
       <use xlink:href="#STIXGeneral-Regular-35" transform="translate(49.999985 0)"/>
       <use xlink:href="#STIXGeneral-Regular-b0" transform="translate(99.999969 0)"/>
      </g>
     </g>
    </g>
    <g id="ytick_6">
     <g id="line2d_14">
      <path d="M 245.36 32.795625 
C 274.481256 32.795625 303.319345 38.531878 330.223878 49.6761 
C 357.128411 60.820322 381.576162 77.155787 402.168 97.747625 
C 422.759838 118.339463 439.095303 142.787214 450.239525 169.691747 
C 461.383747 196.59628 467.12 225.434369 467.12 254.555625 
C 467.12 283.676881 461.383747 312.51497 450.239525 339.419503 
C 439.095303 366.324036 422.759838 390.771787 402.168 411.363625 
C 381.576162 431.955463 357.128411 448.290928 330.223878 459.43515 
C 303.319345 470.579372 274.481256 476.315625 245.36 476.315625 
C 216.238744 476.315625 187.400655 470.579372 160.496122 459.43515 
C 133.591589 448.290928 109.143838 431.955463 88.552 411.363625 
C 67.960162 390.771787 51.624697 366.324036 40.480475 339.419503 
C 29.336253 312.51497 23.6 283.676881 23.6 254.555625 
C 23.6 225.434369 29.336253 196.59628 40.480475 169.691747 
C 51.624697 142.787214 67.960162 118.339463 88.552 97.747625 
C 109.143838 77.155787 133.591589 60.820322 160.496122 49.6761 
C 187.400655 38.531878 216.238744 32.795625 245.36 32.795625 
" clip-path="url(#p4a0048ab84)" style="fill: none; stroke: #b0b0b0; stroke-width: 0.5; stroke-linecap: square"/>
     </g>
     <g id="text_15">
      <!-- 0° -->
      <g transform="translate(330.223878 47.505787) scale(0.1 -0.1)">
       <use xlink:href="#STIXGeneral-Regular-30"/>
       <use xlink:href="#STIXGeneral-Regular-b0" transform="translate(49.999985 0)"/>
      </g>
     </g>
    </g>
   </g>
   <g id="line2d_15">
    <path d="M 184.072472 441.906019 
L 185.963634 441.165538 
L 187.922448 440.392497 
L 189.952858 439.584028 
L 192.059017 438.736981 
L 194.245369 437.847872 
L 196.516646 436.912847 
L 198.877881 435.927641 
L 201.3344 434.887536 
L 203.891914 433.787282 
L 206.556406 432.621083 
L 209.334211 431.382501 
L 212.231992 430.064401 
L 215.256729 428.658867 
L 218.415694 427.157131 
L 221.716386 425.549498 
L 225.16658 423.825211 
L 228.774085 421.97244 
L 232.546743 419.978156 
L 236.492249 417.828069 
L 240.617965 415.506582 
L 244.930634 412.996789 
L 249.436217 410.280414 
L 254.13931 407.338016 
L 259.042829 404.149074 
L 264.147449 400.69228 
L 269.451005 396.945947 
L 274.947786 392.888608 
L 280.628028 388.499642 
L 286.476971 383.760422 
L 292.474439 378.655336 
L 298.594353 373.173138 
L 304.804551 367.308364 
L 311.066962 361.062747 
L 317.338161 354.446538 
L 323.570684 347.479228 
L 329.714312 340.190313 
L 335.718271 332.618876 
L 341.53342 324.812703 
L 347.114528 316.826628 
L 352.422278 308.72036 
L 357.425063 300.555607 
L 362.099737 292.393762 
L 366.432147 284.293117 
L 370.416802 276.306822 
L 374.056061 268.481345 
L 377.358933 260.855618 
L 380.339812 253.46046 
L 383.016907 246.319126 
L 385.41103 239.447604 
L 387.544405 232.855473 
L 389.439715 226.54682 
L 391.11934 220.521243 
L 392.604869 214.774574 
L 393.91665 209.3 
L 395.073611 204.088606 
L 396.093144 199.130039 
L 396.991063 194.413017 
L 397.781641 189.925741 
L 398.477673 185.656249 
L 399.090591 181.592522 
L 399.630538 177.722873 
L 400.106509 174.035938 
L 400.526449 170.520801 
L 400.897371 167.16705 
L 401.225446 163.964836 
L 401.516115 160.904786 
L 401.774154 157.978155 
L 402.003763 155.176714 
L 402.208633 152.49276 
L 402.392007 149.919094 
L 402.556733 147.449015 
L 402.705317 145.076216 
L 402.839958 142.794876 
L 402.962591 140.599553 
L 403.074917 138.48518 
L 403.178432 136.447035 
" clip-path="url(#p4a0048ab84)" style="fill: none; stroke: #0c5da5; stroke-width: 2; stroke-linecap: square"/>
   </g>
   <g id="line2d_16">
    <defs>
     <path id="m2d01d17faa" d="M 0 3 
C 0.795609 3 1.55874 2.683901 2.12132 2.12132 
C 2.683901 1.55874 3 0.795609 3 0 
C 3 -0.795609 2.683901 -1.55874 2.12132 -2.12132 
C 1.55874 -2.683901 0.795609 -3 0 -3 
C -0.795609 -3 -1.55874 -2.683901 -2.12132 -2.12132 
C -2.683901 -1.55874 -3 -0.795609 -3 0 
C -3 0.795609 -2.683901 1.55874 -2.12132 2.12132 
C -1.55874 2.683901 -0.795609 3 0 3 
z
" style="stroke: #00b945"/>
    </defs>
    <g clip-path="url(#p4a0048ab84)">
     <use xlink:href="#m2d01d17faa" x="184.072472" y="441.906019" style="fill: #00b945; stroke: #00b945"/>
    </g>
   </g>
   <g id="line2d_17">
    <defs>
     <path id="m1923ba35ba" d="M -3 3 
L 3 3 
L 3 -3 
L -3 -3 
z
" style="stroke: #ff9500; stroke-linejoin: miter"/>
    </defs>
    <g clip-path="url(#p4a0048ab84)">
     <use xlink:href="#m1923ba35ba" x="403.178432" y="136.447035" style="fill: #ff9500; stroke: #ff9500; stroke-linejoin: miter"/>
    </g>
   </g>
   <g id="line2d_18">
    <path d="M 256.419718 57.745998 
L 259.584446 59.003458 
L 262.834545 60.335232 
L 266.171629 61.746497 
L 269.597089 63.242717 
L 273.111965 64.829602 
L 276.717055 66.51317 
L 280.412776 68.299702 
L 284.199011 70.195668 
L 288.075213 72.207786 
L 292.040252 74.342936 
L 296.092235 76.608057 
L 300.228619 79.010175 
L 304.446042 81.556284 
L 308.740137 84.253177 
L 313.105666 87.10746 
L 317.536356 90.125369 
L 322.024737 93.312548 
L 326.562322 96.674039 
L 331.139484 100.214053 
L 335.74536 103.9357 
L 340.368107 107.840992 
L 344.994868 111.930586 
L 349.611773 116.203533 
L 354.204305 120.657325 
L 358.757371 125.287702 
L 363.255411 130.088462 
L 367.682864 135.051647 
L 372.024315 140.167469 
L 376.264679 145.424247 
L 380.389678 150.808787 
L 384.386007 156.306438 
L 388.241483 161.901188 
L 391.94545 167.576187 
L 395.488846 173.313911 
L 398.864245 179.096333 
L 402.0661 184.905507 
L 405.090664 190.723729 
L 407.935897 196.533684 
L 410.601527 202.318968 
L 413.088862 208.064164 
L 415.400588 213.754875 
L 417.540718 219.378126 
L 419.51435 224.922307 
L 421.327439 230.377086 
L 422.986707 235.73368 
L 424.499414 240.984694 
L 425.873169 246.123945 
L 427.115846 251.146642 
L 428.235419 256.049169 
L 429.239823 260.828871 
L 430.136916 265.484189 
L 430.934365 270.014431 
L 431.639575 274.419565 
L 432.259676 278.700335 
L 432.80147 282.858053 
L 433.271393 286.894414 
L 433.675532 290.811618 
L 434.019603 294.612185 
L 434.308943 298.29881 
L 434.548536 301.874482 
L 434.743012 305.342336 
L 434.896654 308.705535 
" clip-path="url(#p4a0048ab84)" style="fill: none; stroke: #ff2c00; stroke-width: 2; stroke-linecap: square"/>
   </g>
   <g id="line2d_19">
    <defs>
     <path id="ma8057f8430" d="M 0 3 
C 0.795609 3 1.55874 2.683901 2.12132 2.12132 
C 2.683901 1.55874 3 0.795609 3 0 
C 3 -0.795609 2.683901 -1.55874 2.12132 -2.12132 
C 1.55874 -2.683901 0.795609 -3 0 -3 
C -0.795609 -3 -1.55874 -2.683901 -2.12132 -2.12132 
C -2.683901 -1.55874 -3 -0.795609 -3 0 
C -3 0.795609 -2.683901 1.55874 -2.12132 2.12132 
C -1.55874 2.683901 -0.795609 3 0 3 
z
" style="stroke: #845b97"/>
    </defs>
    <g clip-path="url(#p4a0048ab84)">
     <use xlink:href="#ma8057f8430" x="256.419718" y="57.745998" style="fill: #845b97; stroke: #845b97"/>
    </g>
   </g>
   <g id="line2d_20">
    <defs>
     <path id="m6e2224c140" d="M -3 3 
L 3 3 
L 3 -3 
L -3 -3 
z
" style="stroke: #474747; stroke-linejoin: miter"/>
    </defs>
    <g clip-path="url(#p4a0048ab84)">
     <use xlink:href="#m6e2224c140" x="434.896654" y="308.705535" style="fill: #474747; stroke: #474747; stroke-linejoin: miter"/>
    </g>
   </g>
   <g id="line2d_21">
    <path d="M 51.489761 290.201759 
L 52.931001 294.560791 
L 54.470949 298.968609 
L 56.112487 303.420577 
L 57.858189 307.911564 
L 59.710343 312.436095 
L 61.670811 316.988159 
L 63.741043 321.561368 
L 65.922019 326.148958 
L 68.21421 330.743828 
L 70.617542 335.338586 
L 73.131367 339.925602 
L 75.754439 344.497075 
L 78.484906 349.045093 
L 81.320296 353.561707 
L 84.257529 358.039009 
L 87.292927 362.469202 
L 90.42221 366.844643 
L 93.640636 371.158059 
L 96.942887 375.402404 
L 100.323224 379.571066 
L 103.775512 383.657892 
L 107.293291 387.657235 
L 110.869835 391.563999 
L 114.498228 395.37367 
L 118.171427 399.082339 
L 121.882338 402.686716 
L 125.623878 406.184131 
L 129.389043 409.572529 
L 133.170963 412.850456 
L 136.96293 416.017011 
L 140.758561 419.071919 
L 144.551662 422.015345 
L 148.336383 424.84796 
L 152.107211 427.570872 
L 155.858993 430.185584 
" clip-path="url(#p4a0048ab84)" style="fill: none; stroke: #9e9e9e; stroke-width: 2; stroke-linecap: square"/>
   </g>
   <g id="line2d_22">
    <defs>
     <path id="mc14cb9b41e" d="M 0 3 
C 0.795609 3 1.55874 2.683901 2.12132 2.12132 
C 2.683901 1.55874 3 0.795609 3 0 
C 3 -0.795609 2.683901 -1.55874 2.12132 -2.12132 
C 1.55874 -2.683901 0.795609 -3 0 -3 
C -0.795609 -3 -1.55874 -2.683901 -2.12132 -2.12132 
C -2.683901 -1.55874 -3 -0.795609 -3 0 
C -3 0.795609 -2.683901 1.55874 -2.12132 2.12132 
C -1.55874 2.683901 -0.795609 3 0 3 
z
" style="stroke: #0c5da5"/>
    </defs>
    <g clip-path="url(#p4a0048ab84)">
     <use xlink:href="#mc14cb9b41e" x="51.489761" y="290.201759" style="fill: #0c5da5; stroke: #0c5da5"/>
    </g>
   </g>
   <g id="line2d_23">
    <defs>
     <path id="mcff4de34b5" d="M -3 3 
L 3 3 
L 3 -3 
L -3 -3 
z
" style="stroke: #00b945; stroke-linejoin: miter"/>
    </defs>
    <g clip-path="url(#p4a0048ab84)">
     <use xlink:href="#mcff4de34b5" x="155.858993" y="430.185584" style="fill: #00b945; stroke: #00b945; stroke-linejoin: miter"/>
    </g>
   </g>
   <g id="patch_3">
    <path d="M 245.36 32.795625 
C 216.238744 32.795625 187.400655 38.531878 160.496122 49.6761 
C 133.591589 60.820322 109.143838 77.155787 88.552 97.747625 
C 67.960162 118.339463 51.624697 142.787214 40.480475 169.691747 
C 29.336253 196.59628 23.6 225.434369 23.6 254.555625 
C 23.6 283.676881 29.336253 312.51497 40.480475 339.419503 
C 51.624697 366.324036 67.960162 390.771787 88.552 411.363625 
C 109.143838 431.955463 133.591589 448.290928 160.496122 459.43515 
C 187.400655 470.579372 216.238744 476.315625 245.36 476.315625 
C 274.481256 476.315625 303.319345 470.579372 330.223878 459.43515 
C 357.128411 448.290928 381.576162 431.955463 402.168 411.363625 
C 422.759838 390.771787 439.095303 366.324036 450.239525 339.419503 
C 461.383747 312.51497 467.12 283.676881 467.12 254.555625 
C 467.12 225.434369 461.383747 196.59628 450.239525 169.691747 
C 439.095303 142.787214 422.759838 118.339463 402.168 97.747625 
C 381.576162 77.155787 357.128411 60.820322 330.223878 49.6761 
C 303.319345 38.531878 274.481256 32.795625 245.36 32.795625 
" style="fill: none; stroke: #000000; stroke-width: 0.5; stroke-linejoin: miter; stroke-linecap: square"/>
   </g>
   <g id="text_16">
    <!-- Access Window Geometry -->
    <g transform="translate(180.707188 11.795625) scale(0.12 -0.12)">
     <defs>
      <path id="STIXGeneral-Regular-63" d="M 2547 998 
L 2637 941 
Q 2362 403 2112 205 
Q 1786 -64 1376 -64 
Q 845 -64 502 336 
Q 160 736 160 1357 
Q 160 2170 698 2618 
Q 1094 2944 1562 2944 
Q 1965 2944 2256 2749 
Q 2547 2554 2547 2285 
Q 2547 2176 2457 2096 
Q 2368 2016 2246 2016 
Q 2022 2016 1939 2310 
L 1901 2451 
Q 1850 2630 1773 2694 
Q 1696 2758 1523 2758 
Q 1133 2758 893 2451 
Q 653 2144 653 1645 
Q 653 1094 928 745 
Q 1203 397 1645 397 
Q 1920 397 2118 528 
Q 2317 659 2547 998 
z
" transform="scale(0.015625)"/>
      <path id="STIXGeneral-Regular-65" d="M 2611 1050 
L 2714 1005 
Q 2330 -64 1376 -64 
Q 813 -64 486 329 
Q 160 723 160 1389 
Q 160 2074 525 2509 
Q 890 2944 1485 2944 
Q 2061 2944 2374 2502 
Q 2560 2246 2592 1773 
L 621 1773 
Q 646 1370 700 1158 
Q 755 947 915 730 
Q 1184 378 1626 378 
Q 1939 378 2153 531 
Q 2368 685 2611 1050 
z
M 634 1978 
L 1939 1978 
Q 1882 2381 1750 2547 
Q 1619 2714 1312 2714 
Q 1043 2714 864 2525 
Q 685 2336 634 1978 
z
" transform="scale(0.015625)"/>
      <path id="STIXGeneral-Regular-73" d="M 998 1926 
L 1664 1523 
Q 1984 1331 2105 1164 
Q 2227 998 2227 736 
Q 2227 416 1961 176 
Q 1696 -64 1331 -64 
Q 1030 -64 864 -6 
Q 691 51 570 51 
Q 461 51 416 -26 
L 333 -26 
L 333 979 
L 435 979 
Q 538 512 730 294 
Q 922 77 1248 77 
Q 1485 77 1632 211 
Q 1779 346 1779 550 
Q 1779 845 1440 1030 
L 1094 1222 
Q 326 1651 326 2150 
Q 326 2522 566 2730 
Q 806 2938 1210 2938 
Q 1491 2938 1638 2867 
Q 1754 2816 1818 2816 
Q 1862 2816 1920 2880 
L 1990 2880 
L 2022 2010 
L 1926 2010 
Q 1818 2445 1654 2621 
Q 1491 2797 1203 2797 
Q 986 2797 854 2688 
Q 723 2579 723 2362 
Q 723 2253 796 2128 
Q 870 2003 998 1926 
z
" transform="scale(0.015625)"/>
      <path id="STIXGeneral-Regular-20" transform="scale(0.015625)"/>
      <path id="STIXGeneral-Regular-57" d="M 5965 4237 
L 5965 4115 
Q 5709 4064 5616 3990 
Q 5523 3917 5434 3667 
Q 4704 1709 4128 -70 
L 4032 -70 
Q 3642 1011 3008 2637 
L 2022 -70 
L 1926 -70 
Q 1709 576 1277 1753 
Q 845 2931 698 3347 
Q 538 3808 406 3958 
Q 275 4109 32 4115 
L 32 4237 
L 1594 4237 
L 1594 4115 
Q 1357 4109 1270 4064 
Q 1184 4019 1184 3917 
Q 1184 3808 1254 3616 
L 2176 1210 
L 2842 3021 
L 2662 3501 
Q 2509 3917 2400 4013 
Q 2291 4109 2010 4115 
L 2010 4237 
L 3706 4237 
L 3706 4115 
Q 3213 4102 3213 3891 
Q 3213 3808 3322 3520 
L 4237 1190 
L 5043 3360 
Q 5152 3667 5152 3853 
Q 5152 4109 4704 4115 
L 4704 4237 
L 5965 4237 
z
" transform="scale(0.015625)"/>
      <path id="STIXGeneral-Regular-6e" d="M 3104 0 
L 1773 0 
L 1779 96 
Q 2016 115 2096 233 
Q 2176 352 2176 672 
L 2176 1946 
Q 2176 2592 1709 2592 
Q 1549 2592 1408 2515 
Q 1267 2438 1050 2227 
L 1050 461 
Q 1050 269 1136 192 
Q 1222 115 1466 96 
L 1466 0 
L 115 0 
L 115 96 
Q 358 115 435 214 
Q 512 314 512 602 
L 512 2157 
Q 512 2394 467 2483 
Q 422 2573 288 2573 
Q 160 2573 102 2547 
L 102 2656 
Q 550 2784 979 2944 
L 1030 2925 
L 1030 2426 
L 1037 2426 
Q 1491 2944 1958 2944 
Q 2323 2944 2518 2688 
Q 2714 2432 2714 1958 
L 2714 544 
Q 2714 288 2790 205 
Q 2867 122 3104 96 
L 3104 0 
z
" transform="scale(0.015625)"/>
      <path id="STIXGeneral-Regular-64" d="M 3142 269 
L 2202 -64 
L 2176 -45 
L 2176 365 
Q 1869 -64 1357 -64 
Q 826 -64 499 317 
Q 173 698 173 1312 
Q 173 1990 563 2467 
Q 954 2944 1504 2944 
Q 1850 2944 2176 2669 
L 2176 3667 
Q 2176 3866 2118 3930 
Q 2061 3994 1882 3994 
Q 1792 3994 1741 3987 
L 1741 4090 
Q 2323 4243 2682 4371 
L 2714 4358 
L 2714 730 
Q 2714 506 2768 435 
Q 2822 365 2995 365 
Q 3034 365 3142 371 
L 3142 269 
z
M 2176 653 
L 2176 2125 
Q 2176 2381 1981 2573 
Q 1786 2765 1523 2765 
Q 1158 2765 940 2438 
Q 723 2112 723 1568 
Q 723 979 963 624 
Q 1203 269 1606 269 
Q 1907 269 2080 474 
Q 2176 582 2176 653 
z
" transform="scale(0.015625)"/>
      <path id="STIXGeneral-Regular-6f" d="M 3008 1478 
Q 3008 806 2608 371 
Q 2208 -64 1568 -64 
Q 979 -64 582 368 
Q 186 800 186 1459 
Q 186 2125 582 2534 
Q 979 2944 1626 2944 
Q 2221 2944 2614 2537 
Q 3008 2131 3008 1478 
z
M 2432 1306 
Q 2432 2035 2112 2445 
Q 1856 2765 1504 2765 
Q 1171 2765 966 2493 
Q 762 2221 762 1747 
Q 762 928 1101 435 
Q 1318 115 1677 115 
Q 2029 115 2230 432 
Q 2432 749 2432 1306 
z
" transform="scale(0.015625)"/>
      <path id="STIXGeneral-Regular-77" d="M 4442 2880 
L 4442 2784 
Q 4346 2752 4301 2691 
Q 4256 2630 4179 2438 
L 3296 224 
Q 3168 -90 3117 -90 
Q 3085 -90 3062 -48 
Q 3040 -6 2963 186 
L 2381 1696 
L 1664 160 
Q 1549 -90 1504 -90 
Q 1446 -90 1338 192 
L 474 2381 
Q 378 2630 314 2700 
Q 250 2771 134 2784 
L 134 2880 
L 1286 2880 
L 1286 2784 
Q 1120 2765 1056 2720 
Q 992 2675 992 2573 
Q 992 2477 1030 2381 
L 1664 710 
L 2246 1984 
L 2118 2342 
Q 2029 2598 1942 2681 
Q 1856 2765 1677 2784 
L 1677 2880 
L 2976 2880 
L 2976 2784 
Q 2752 2752 2678 2707 
Q 2605 2662 2605 2560 
Q 2605 2458 2714 2176 
L 3251 742 
L 3827 2163 
Q 3936 2432 3936 2592 
Q 3936 2669 3875 2710 
Q 3814 2752 3654 2784 
L 3654 2880 
L 4442 2880 
z
" transform="scale(0.015625)"/>
      <path id="STIXGeneral-Regular-47" d="M 4538 2266 
L 4538 2150 
Q 4256 2125 4173 2035 
Q 4090 1946 4090 1638 
L 4090 358 
Q 3539 -90 2464 -90 
Q 1965 -90 1507 89 
Q 1050 269 736 595 
Q 205 1152 205 2093 
Q 205 3155 890 3776 
Q 1491 4326 2419 4326 
Q 2829 4326 3270 4179 
Q 3443 4115 3552 4115 
Q 3654 4115 3731 4176 
Q 3808 4237 3840 4326 
L 3981 4326 
L 4032 2976 
L 3885 2976 
Q 3680 3475 3430 3718 
Q 3059 4070 2496 4070 
Q 1856 4070 1427 3629 
Q 934 3136 934 2074 
Q 934 1190 1395 678 
Q 1856 166 2618 166 
Q 2982 166 3225 281 
Q 3469 397 3469 557 
L 3469 1562 
Q 3469 1933 3376 2025 
Q 3283 2118 2899 2150 
L 2899 2266 
L 4538 2266 
z
" transform="scale(0.015625)"/>
      <path id="STIXGeneral-Regular-72" d="M 1024 2931 
L 1024 2342 
Q 1267 2688 1430 2816 
Q 1594 2944 1792 2944 
Q 1958 2944 2051 2854 
Q 2144 2765 2144 2605 
Q 2144 2470 2077 2393 
Q 2010 2317 1894 2317 
Q 1773 2317 1638 2445 
Q 1536 2541 1472 2541 
Q 1338 2541 1181 2355 
Q 1024 2170 1024 2016 
L 1024 576 
Q 1024 301 1133 205 
Q 1242 109 1568 96 
L 1568 0 
L 32 0 
L 32 96 
Q 339 154 412 224 
Q 486 294 486 538 
L 486 2138 
Q 486 2349 438 2435 
Q 390 2522 269 2522 
Q 166 2522 45 2496 
L 45 2598 
Q 448 2726 992 2944 
L 1024 2931 
z
" transform="scale(0.015625)"/>
      <path id="STIXGeneral-Regular-79" d="M 3040 2880 
L 3040 2784 
Q 2925 2771 2854 2700 
Q 2784 2630 2720 2458 
L 1760 -160 
Q 1510 -838 1257 -1116 
Q 1005 -1395 640 -1395 
Q 435 -1395 313 -1289 
Q 192 -1184 192 -1024 
Q 192 -902 272 -816 
Q 352 -730 467 -730 
Q 653 -730 800 -813 
Q 883 -858 966 -858 
Q 1101 -858 1286 -576 
Q 1376 -448 1459 -211 
Q 1542 26 1542 115 
Q 1542 198 1274 762 
L 429 2566 
Q 346 2752 90 2790 
L 90 2880 
L 1402 2880 
L 1402 2784 
Q 1197 2778 1117 2739 
Q 1037 2701 1037 2611 
Q 1037 2541 1120 2349 
L 1837 749 
L 2458 2515 
Q 2483 2573 2483 2630 
Q 2483 2784 2189 2784 
L 2189 2880 
L 3040 2880 
z
" transform="scale(0.015625)"/>
     </defs>
     <use xlink:href="#STIXGeneral-Regular-41"/>
     <use xlink:href="#STIXGeneral-Regular-63" transform="translate(72.199982 0)"/>
     <use xlink:href="#STIXGeneral-Regular-63" transform="translate(116.599976 0)"/>
     <use xlink:href="#STIXGeneral-Regular-65" transform="translate(160.999969 0)"/>
     <use xlink:href="#STIXGeneral-Regular-73" transform="translate(205.399963 0)"/>
     <use xlink:href="#STIXGeneral-Regular-73" transform="translate(244.299957 0)"/>
     <use xlink:href="#STIXGeneral-Regular-20" transform="translate(283.199951 0)"/>
     <use xlink:href="#STIXGeneral-Regular-57" transform="translate(308.199936 0)"/>
     <use xlink:href="#STIXGeneral-Regular-69" transform="translate(402.59993 0)"/>
     <use xlink:href="#STIXGeneral-Regular-6e" transform="translate(430.399918 0)"/>
     <use xlink:href="#STIXGeneral-Regular-64" transform="translate(480.399902 0)"/>
     <use xlink:href="#STIXGeneral-Regular-6f" transform="translate(530.399887 0)"/>
     <use xlink:href="#STIXGeneral-Regular-77" transform="translate(580.399872 0)"/>
     <use xlink:href="#STIXGeneral-Regular-20" transform="translate(652.599854 0)"/>
     <use xlink:href="#STIXGeneral-Regular-47" transform="translate(677.599838 0)"/>
     <use xlink:href="#STIXGeneral-Regular-65" transform="translate(749.79982 0)"/>
     <use xlink:href="#STIXGeneral-Regular-6f" transform="translate(794.199814 0)"/>
     <use xlink:href="#STIXGeneral-Regular-6d" transform="translate(844.199799 0)"/>
     <use xlink:href="#STIXGeneral-Regular-65" transform="translate(921.999786 0)"/>
     <use xlink:href="#STIXGeneral-Regular-74" transform="translate(966.39978 0)"/>
     <use xlink:href="#STIXGeneral-Regular-72" transform="translate(994.199768 0)"/>
     <use xlink:href="#STIXGeneral-Regular-79" transform="translate(1027.499756 0)"/>
    </g>
   </g>
   <g id="legend_1">
    <g id="line2d_24">
     <path d="M 394.296563 45.295625 
L 404.296563 45.295625 
L 414.296563 45.295625 
" style="fill: none; stroke: #0c5da5; stroke-width: 2; stroke-linecap: square"/>
    </g>
    <g id="text_17">
     <!-- Access 1 -->
     <g transform="translate(422.296563 48.795625) scale(0.1 -0.1)">
      <use xlink:href="#STIXGeneral-Regular-41"/>
      <use xlink:href="#STIXGeneral-Regular-63" transform="translate(72.199982 0)"/>
      <use xlink:href="#STIXGeneral-Regular-63" transform="translate(116.599976 0)"/>
      <use xlink:href="#STIXGeneral-Regular-65" transform="translate(160.999969 0)"/>
      <use xlink:href="#STIXGeneral-Regular-73" transform="translate(205.399963 0)"/>
      <use xlink:href="#STIXGeneral-Regular-73" transform="translate(244.299957 0)"/>
      <use xlink:href="#STIXGeneral-Regular-20" transform="translate(283.199951 0)"/>
      <use xlink:href="#STIXGeneral-Regular-31" transform="translate(308.199936 0)"/>
     </g>
    </g>
    <g id="line2d_25">
     <path d="M 394.296563 59.465937 
L 404.296563 59.465937 
L 414.296563 59.465937 
" style="fill: none; stroke: #ff2c00; stroke-width: 2; stroke-linecap: square"/>
    </g>
    <g id="text_18">
     <!-- Access 2 -->
     <g transform="translate(422.296563 62.965937) scale(0.1 -0.1)">
      <use xlink:href="#STIXGeneral-Regular-41"/>
      <use xlink:href="#STIXGeneral-Regular-63" transform="translate(72.199982 0)"/>
      <use xlink:href="#STIXGeneral-Regular-63" transform="translate(116.599976 0)"/>
      <use xlink:href="#STIXGeneral-Regular-65" transform="translate(160.999969 0)"/>
      <use xlink:href="#STIXGeneral-Regular-73" transform="translate(205.399963 0)"/>
      <use xlink:href="#STIXGeneral-Regular-73" transform="translate(244.299957 0)"/>
      <use xlink:href="#STIXGeneral-Regular-20" transform="translate(283.199951 0)"/>
      <use xlink:href="#STIXGeneral-Regular-32" transform="translate(308.199936 0)"/>
     </g>
    </g>
    <g id="line2d_26">
     <path d="M 394.296563 73.63625 
L 404.296563 73.63625 
L 414.296563 73.63625 
" style="fill: none; stroke: #9e9e9e; stroke-width: 2; stroke-linecap: square"/>
    </g>
    <g id="text_19">
     <!-- Access 3 -->
     <g transform="translate(422.296563 77.13625) scale(0.1 -0.1)">
      <use xlink:href="#STIXGeneral-Regular-41"/>
      <use xlink:href="#STIXGeneral-Regular-63" transform="translate(72.199982 0)"/>
      <use xlink:href="#STIXGeneral-Regular-63" transform="translate(116.599976 0)"/>
      <use xlink:href="#STIXGeneral-Regular-65" transform="translate(160.999969 0)"/>
      <use xlink:href="#STIXGeneral-Regular-73" transform="translate(205.399963 0)"/>
      <use xlink:href="#STIXGeneral-Regular-73" transform="translate(244.299957 0)"/>
      <use xlink:href="#STIXGeneral-Regular-20" transform="translate(283.199951 0)"/>
      <use xlink:href="#STIXGeneral-Regular-33" transform="translate(308.199936 0)"/>
     </g>
    </g>
   </g>
  </g>
 </g>
 <defs>
  <clipPath id="p4a0048ab84">
   <path d="M 467.12 254.555625 
C 467.12 225.434369 461.383747 196.59628 450.239525 169.691747 
C 439.095303 142.787214 422.759838 118.339463 402.168 97.747625 
C 381.576162 77.155787 357.128411 60.820322 330.223878 49.6761 
C 303.319345 38.531878 274.481256 32.795625 245.36 32.795625 
C 216.238744 32.795625 187.400655 38.531878 160.496122 49.6761 
C 133.591589 60.820322 109.143838 77.155787 88.552 97.747625 
C 67.960162 118.339463 51.624697 142.787214 40.480475 169.691747 
C 29.336253 196.59628 23.6 225.434369 23.6 254.555625 
C 23.6 283.676881 29.336253 312.51497 40.480475 339.419503 
C 51.624697 366.324036 67.960162 390.771787 88.552 411.363625 
C 109.143838 431.955463 133.591589 448.290928 160.496122 459.43515 
C 187.400655 470.579372 216.238744 476.315625 245.36 476.315625 
C 274.481256 476.315625 303.319345 470.579372 330.223878 459.43515 
C 357.128411 448.290928 381.576162 431.955463 402.168 411.363625 
C 422.759838 390.771787 439.095303 366.324036 450.239525 339.419503 
C 461.383747 312.51497 467.12 283.676881 467.12 254.555625 
M 245.36 254.555625 
C 245.36 254.555625 245.36 254.555625 245.36 254.555625 
C 245.36 254.555625 245.36 254.555625 245.36 254.555625 
C 245.36 254.555625 245.36 254.555625 245.36 254.555625 
C 245.36 254.555625 245.36 254.555625 245.36 254.555625 
C 245.36 254.555625 245.36 254.555625 245.36 254.555625 
C 245.36 254.555625 245.36 254.555625 245.36 254.555625 
C 245.36 254.555625 245.36 254.555625 245.36 254.555625 
C 245.36 254.555625 245.36 254.555625 245.36 254.555625 
C 245.36 254.555625 245.36 254.555625 245.36 254.555625 
C 245.36 254.555625 245.36 254.555625 245.36 254.555625 
C 245.36 254.555625 245.36 254.555625 245.36 254.555625 
C 245.36 254.555625 245.36 254.555625 245.36 254.555625 
C 245.36 254.555625 245.36 254.555625 245.36 254.555625 
C 245.36 254.555625 245.36 254.555625 245.36 254.555625 
C 245.36 254.555625 245.36 254.555625 245.36 254.555625 
C 245.36 254.555625 245.36 254.555625 245.36 254.555625 
z
"/>
  </clipPath>
 </defs>
</svg>
