<?xml version="1.0" encoding="utf-8" standalone="no"?>
<!DOCTYPE svg PUBLIC "-//W3C//DTD SVG 1.1//EN"
  "http://www.w3.org/Graphics/SVG/1.1/DTD/svg11.dtd">
<svg xmlns:xlink="http://www.w3.org/1999/xlink" width="1071.748125pt" height="712.478437pt" viewBox="0 0 1071.748125 712.478437" xmlns="http://www.w3.org/2000/svg" version="1.1">
 <metadata>
  <rdf:RDF xmlns:dc="http://purl.org/dc/elements/1.1/" xmlns:cc="http://creativecommons.org/ns#" xmlns:rdf="http://www.w3.org/1999/02/22-rdf-syntax-ns#">
   <cc:Work>
    <dc:type rdf:resource="http://purl.org/dc/dcmitype/StillImage"/>
    <dc:date>2026-07-15T15:08:23.779098</dc:date>
    <dc:format>image/svg+xml</dc:format>
    <dc:creator>
     <cc:Agent>
      <dc:title>Matplotlib v3.11.0, https://matplotlib.org/</dc:title>
     </cc:Agent>
    </dc:creator>
   </cc:Work>
  </rdf:RDF>
 </metadata>
 <defs>
  <style type="text/css">*{stroke-linejoin: round; stroke-linecap: butt}</style>
 </defs>
 <g id="figure_1">
  <g id="patch_1">
   <path d="M 0 712.478437 
L 1071.748125 712.478437 
L 1071.748125 0 
L 0 0 
z
" style="fill: #ffffff"/>
  </g>
  <g id="axes_1">
   <g id="patch_2">
    <path d="M 68.030469 318.886989 
L 351.748125 318.886989 
L 351.748125 7.2 
L 68.030469 7.2 
z
" style="fill: #ffffff"/>
   </g>
   <g id="matplotlib.axis_1">
    <g id="xtick_1">
     <g id="line2d_1">
      <defs>
       <path id="m2afe765498" d="M 0 0 
L 0 3.5 
" style="stroke: #000000; stroke-width: 0.8"/>
      </defs>
      <g>
       <use xlink:href="#m2afe765498" x="68.030469" y="318.886989" style="stroke: #000000; stroke-width: 0.8"/>
      </g>
     </g>
     <g id="text_1">
      <!-- 0 -->
      <g transform="translate(64.849219 333.484646) scale(0.1 -0.1)">
       <defs>
        <path id="DejaVuSans-13" d="M 2034 4250 
Q 1547 4250 1301 3770 
Q 1056 3291 1056 2328 
Q 1056 1369 1301 889 
Q 1547 409 2034 409 
Q 2525 409 2770 889 
Q 3016 1369 3016 2328 
Q 3016 3291 2770 3770 
Q 2525 4250 2034 4250 
z
M 2034 4750 
Q 2819 4750 3233 4129 
Q 3647 3509 3647 2328 
Q 3647 1150 3233 529 
Q 2819 -91 2034 -91 
Q 1250 -91 836 529 
Q 422 1150 422 2328 
Q 422 3509 836 4129 
Q 1250 4750 2034 4750 
z
" transform="scale(0.015625)"/>
       </defs>
       <use xlink:href="#DejaVuSans-13"/>
      </g>
     </g>
    </g>
    <g id="xtick_2">
     <g id="line2d_2">
      <g>
       <use xlink:href="#m2afe765498" x="129.096754" y="318.886989" style="stroke: #000000; stroke-width: 0.8"/>
      </g>
     </g>
     <g id="text_2">
      <!-- 20 -->
      <g transform="translate(122.734254 333.484646) scale(0.1 -0.1)">
       <defs>
        <path id="DejaVuSans-15" d="M 1228 531 
L 3431 531 
L 3431 0 
L 469 0 
L 469 531 
Q 828 903 1448 1529 
Q 2069 2156 2228 2338 
Q 2531 2678 2651 2914 
Q 2772 3150 2772 3378 
Q 2772 3750 2511 3984 
Q 2250 4219 1831 4219 
Q 1534 4219 1204 4116 
Q 875 4013 500 3803 
L 500 4441 
Q 881 4594 1212 4672 
Q 1544 4750 1819 4750 
Q 2544 4750 2975 4387 
Q 3406 4025 3406 3419 
Q 3406 3131 3298 2873 
Q 3191 2616 2906 2266 
Q 2828 2175 2409 1742 
Q 1991 1309 1228 531 
z
" transform="scale(0.015625)"/>
       </defs>
       <use xlink:href="#DejaVuSans-15"/>
       <use xlink:href="#DejaVuSans-13" transform="translate(63.625 0)"/>
      </g>
     </g>
    </g>
    <g id="xtick_3">
     <g id="line2d_3">
      <g>
       <use xlink:href="#m2afe765498" x="190.16304" y="318.886989" style="stroke: #000000; stroke-width: 0.8"/>
      </g>
     </g>
     <g id="text_3">
      <!-- 40 -->
      <g transform="translate(183.80054 333.484646) scale(0.1 -0.1)">
       <defs>
        <path id="DejaVuSans-17" d="M 2419 4116 
L 825 1625 
L 2419 1625 
L 2419 4116 
z
M 2253 4666 
L 3047 4666 
L 3047 1625 
L 3713 1625 
L 3713 1100 
L 3047 1100 
L 3047 0 
L 2419 0 
L 2419 1100 
L 313 1100 
L 313 1709 
L 2253 4666 
z
" transform="scale(0.015625)"/>
       </defs>
       <use xlink:href="#DejaVuSans-17"/>
       <use xlink:href="#DejaVuSans-13" transform="translate(63.625 0)"/>
      </g>
     </g>
    </g>
    <g id="xtick_4">
     <g id="line2d_4">
      <g>
       <use xlink:href="#m2afe765498" x="251.229326" y="318.886989" style="stroke: #000000; stroke-width: 0.8"/>
      </g>
     </g>
     <g id="text_4">
      <!-- 60 -->
      <g transform="translate(244.866826 333.484646) scale(0.1 -0.1)">
       <defs>
        <path id="DejaVuSans-19" d="M 2113 2584 
Q 1688 2584 1439 2293 
Q 1191 2003 1191 1497 
Q 1191 994 1439 701 
Q 1688 409 2113 409 
Q 2538 409 2786 701 
Q 3034 994 3034 1497 
Q 3034 2003 2786 2293 
Q 2538 2584 2113 2584 
z
M 3366 4563 
L 3366 3988 
Q 3128 4100 2886 4159 
Q 2644 4219 2406 4219 
Q 1781 4219 1451 3797 
Q 1122 3375 1075 2522 
Q 1259 2794 1537 2939 
Q 1816 3084 2150 3084 
Q 2853 3084 3261 2657 
Q 3669 2231 3669 1497 
Q 3669 778 3244 343 
Q 2819 -91 2113 -91 
Q 1303 -91 875 529 
Q 447 1150 447 2328 
Q 447 3434 972 4092 
Q 1497 4750 2381 4750 
Q 2619 4750 2861 4703 
Q 3103 4656 3366 4563 
z
" transform="scale(0.015625)"/>
       </defs>
       <use xlink:href="#DejaVuSans-19"/>
       <use xlink:href="#DejaVuSans-13" transform="translate(63.625 0)"/>
      </g>
     </g>
    </g>
    <g id="xtick_5">
     <g id="line2d_5">
      <g>
       <use xlink:href="#m2afe765498" x="312.295611" y="318.886989" style="stroke: #000000; stroke-width: 0.8"/>
      </g>
     </g>
     <g id="text_5">
      <!-- 80 -->
      <g transform="translate(305.933111 333.484646) scale(0.1 -0.1)">
       <defs>
        <path id="DejaVuSans-1b" d="M 2034 2216 
Q 1584 2216 1326 1975 
Q 1069 1734 1069 1313 
Q 1069 891 1326 650 
Q 1584 409 2034 409 
Q 2484 409 2743 651 
Q 3003 894 3003 1313 
Q 3003 1734 2745 1975 
Q 2488 2216 2034 2216 
z
M 1403 2484 
Q 997 2584 770 2862 
Q 544 3141 544 3541 
Q 544 4100 942 4425 
Q 1341 4750 2034 4750 
Q 2731 4750 3128 4425 
Q 3525 4100 3525 3541 
Q 3525 3141 3298 2862 
Q 3072 2584 2669 2484 
Q 3125 2378 3379 2068 
Q 3634 1759 3634 1313 
Q 3634 634 3220 271 
Q 2806 -91 2034 -91 
Q 1263 -91 848 271 
Q 434 634 434 1313 
Q 434 1759 690 2068 
Q 947 2378 1403 2484 
z
M 1172 3481 
Q 1172 3119 1398 2916 
Q 1625 2713 2034 2713 
Q 2441 2713 2670 2916 
Q 2900 3119 2900 3481 
Q 2900 3844 2670 4047 
Q 2441 4250 2034 4250 
Q 1625 4250 1398 4047 
Q 1172 3844 1172 3481 
z
" transform="scale(0.015625)"/>
       </defs>
       <use xlink:href="#DejaVuSans-1b"/>
       <use xlink:href="#DejaVuSans-13" transform="translate(63.625 0)"/>
      </g>
     </g>
    </g>
    <g id="text_6">
     <!-- Time (minutes) -->
     <g transform="translate(171.924453 347.485427) scale(0.1 -0.1)">
      <defs>
       <path id="DejaVuSans-37" d="M -19 4666 
L 3928 4666 
L 3928 4134 
L 2272 4134 
L 2272 0 
L 1638 0 
L 1638 4134 
L -19 4134 
L -19 4666 
z
" transform="scale(0.015625)"/>
       <path id="DejaVuSans-4c" d="M 603 3500 
L 1178 3500 
L 1178 0 
L 603 0 
L 603 3500 
z
M 603 4863 
L 1178 4863 
L 1178 4134 
L 603 4134 
L 603 4863 
z
" transform="scale(0.015625)"/>
       <path id="DejaVuSans-50" d="M 3328 2828 
Q 3544 3216 3844 3400 
Q 4144 3584 4550 3584 
Q 5097 3584 5394 3201 
Q 5691 2819 5691 2113 
L 5691 0 
L 5113 0 
L 5113 2094 
Q 5113 2597 4934 2840 
Q 4756 3084 4391 3084 
Q 3944 3084 3684 2787 
Q 3425 2491 3425 1978 
L 3425 0 
L 2847 0 
L 2847 2094 
Q 2847 2600 2669 2842 
Q 2491 3084 2119 3084 
Q 1678 3084 1418 2786 
Q 1159 2488 1159 1978 
L 1159 0 
L 581 0 
L 581 3500 
L 1159 3500 
L 1159 2956 
Q 1356 3278 1631 3431 
Q 1906 3584 2284 3584 
Q 2666 3584 2933 3390 
Q 3200 3197 3328 2828 
z
" transform="scale(0.015625)"/>
       <path id="DejaVuSans-48" d="M 3597 1894 
L 3597 1613 
L 953 1613 
Q 991 1019 1311 708 
Q 1631 397 2203 397 
Q 2534 397 2845 478 
Q 3156 559 3463 722 
L 3463 178 
Q 3153 47 2828 -22 
Q 2503 -91 2169 -91 
Q 1331 -91 842 396 
Q 353 884 353 1716 
Q 353 2575 817 3079 
Q 1281 3584 2069 3584 
Q 2775 3584 3186 3129 
Q 3597 2675 3597 1894 
z
M 3022 2063 
Q 3016 2534 2758 2815 
Q 2500 3097 2075 3097 
Q 1594 3097 1305 2825 
Q 1016 2553 972 2059 
L 3022 2063 
z
" transform="scale(0.015625)"/>
       <path id="DejaVuSans-3" transform="scale(0.015625)"/>
       <path id="DejaVuSans-b" d="M 1984 4856 
Q 1566 4138 1362 3434 
Q 1159 2731 1159 2009 
Q 1159 1288 1364 580 
Q 1569 -128 1984 -844 
L 1484 -844 
Q 1016 -109 783 600 
Q 550 1309 550 2009 
Q 550 2706 781 3412 
Q 1013 4119 1484 4856 
L 1984 4856 
z
" transform="scale(0.015625)"/>
       <path id="DejaVuSans-51" d="M 3513 2113 
L 3513 0 
L 2938 0 
L 2938 2094 
Q 2938 2591 2744 2837 
Q 2550 3084 2163 3084 
Q 1697 3084 1428 2787 
Q 1159 2491 1159 1978 
L 1159 0 
L 581 0 
L 581 3500 
L 1159 3500 
L 1159 2956 
Q 1366 3272 1645 3428 
Q 1925 3584 2291 3584 
Q 2894 3584 3203 3211 
Q 3513 2838 3513 2113 
z
" transform="scale(0.015625)"/>
       <path id="DejaVuSans-58" d="M 544 1381 
L 544 3500 
L 1119 3500 
L 1119 1403 
Q 1119 906 1312 657 
Q 1506 409 1894 409 
Q 2359 409 2629 706 
Q 2900 1003 2900 1516 
L 2900 3500 
L 3475 3500 
L 3475 0 
L 2900 0 
L 2900 538 
Q 2691 219 2414 64 
Q 2138 -91 1772 -91 
Q 1169 -91 856 284 
Q 544 659 544 1381 
z
M 1991 3584 
L 1991 3584 
z
" transform="scale(0.015625)"/>
       <path id="DejaVuSans-57" d="M 1172 4494 
L 1172 3500 
L 2356 3500 
L 2356 3053 
L 1172 3053 
L 1172 1153 
Q 1172 725 1289 603 
Q 1406 481 1766 481 
L 2356 481 
L 2356 0 
L 1766 0 
Q 1100 0 847 248 
Q 594 497 594 1153 
L 594 3053 
L 172 3053 
L 172 3500 
L 594 3500 
L 594 4494 
L 1172 4494 
z
" transform="scale(0.015625)"/>
       <path id="DejaVuSans-56" d="M 2834 3397 
L 2834 2853 
Q 2591 2978 2328 3040 
Q 2066 3103 1784 3103 
Q 1356 3103 1142 2972 
Q 928 2841 928 2578 
Q 928 2378 1081 2264 
Q 1234 2150 1697 2047 
L 1894 2003 
Q 2506 1872 2764 1633 
Q 3022 1394 3022 966 
Q 3022 478 2636 193 
Q 2250 -91 1575 -91 
Q 1294 -91 989 -36 
Q 684 19 347 128 
L 347 722 
Q 666 556 975 473 
Q 1284 391 1588 391 
Q 1994 391 2212 530 
Q 2431 669 2431 922 
Q 2431 1156 2273 1281 
Q 2116 1406 1581 1522 
L 1381 1569 
Q 847 1681 609 1914 
Q 372 2147 372 2553 
Q 372 3047 722 3315 
Q 1072 3584 1716 3584 
Q 2034 3584 2315 3537 
Q 2597 3491 2834 3397 
z
" transform="scale(0.015625)"/>
       <path id="DejaVuSans-c" d="M 513 4856 
L 1013 4856 
Q 1481 4119 1714 3412 
Q 1947 2706 1947 2009 
Q 1947 1309 1714 600 
Q 1481 -109 1013 -844 
L 513 -844 
Q 928 -128 1133 580 
Q 1338 1288 1338 2009 
Q 1338 2731 1133 3434 
Q 928 4138 513 4856 
z
" transform="scale(0.015625)"/>
      </defs>
      <use xlink:href="#DejaVuSans-37"/>
      <use xlink:href="#DejaVuSans-4c" transform="translate(58 0)"/>
      <use xlink:href="#DejaVuSans-50" transform="translate(85.78125 0)"/>
      <use xlink:href="#DejaVuSans-48" transform="translate(183.1875 0)"/>
      <use xlink:href="#DejaVuSans-3" transform="translate(244.71875 0)"/>
      <use xlink:href="#DejaVuSans-b" transform="translate(276.5 0)"/>
      <use xlink:href="#DejaVuSans-50" transform="translate(315.515625 0)"/>
      <use xlink:href="#DejaVuSans-4c" transform="translate(412.921875 0)"/>
      <use xlink:href="#DejaVuSans-51" transform="translate(440.703125 0)"/>
      <use xlink:href="#DejaVuSans-58" transform="translate(504.078125 0)"/>
      <use xlink:href="#DejaVuSans-57" transform="translate(567.453125 0)"/>
      <use xlink:href="#DejaVuSans-48" transform="translate(606.65625 0)"/>
      <use xlink:href="#DejaVuSans-56" transform="translate(668.1875 0)"/>
      <use xlink:href="#DejaVuSans-c" transform="translate(720.28125 0)"/>
     </g>
    </g>
   </g>
   <g id="matplotlib.axis_2">
    <g id="ytick_1">
     <g id="line2d_6">
      <defs>
       <path id="m83a2704164" d="M 0 0 
L -3.5 0 
" style="stroke: #000000; stroke-width: 0.8"/>
      </defs>
      <g>
       <use xlink:href="#m83a2704164" x="68.030469" y="292.056945" style="stroke: #000000; stroke-width: 0.8"/>
      </g>
     </g>
     <g id="text_7">
      <!-- −6000 -->
      <g transform="translate(27.200781 295.855774) scale(0.1 -0.1)">
       <defs>
        <path id="DejaVuSans-c9c" d="M 678 2272 
L 4684 2272 
L 4684 1741 
L 678 1741 
L 678 2272 
z
" transform="scale(0.015625)"/>
       </defs>
       <use xlink:href="#DejaVuSans-c9c"/>
       <use xlink:href="#DejaVuSans-19" transform="translate(83.796875 0)"/>
       <use xlink:href="#DejaVuSans-13" transform="translate(147.421875 0)"/>
       <use xlink:href="#DejaVuSans-13" transform="translate(211.046875 0)"/>
       <use xlink:href="#DejaVuSans-13" transform="translate(274.671875 0)"/>
      </g>
     </g>
    </g>
    <g id="ytick_2">
     <g id="line2d_7">
      <g>
       <use xlink:href="#m83a2704164" x="68.030469" y="249.043532" style="stroke: #000000; stroke-width: 0.8"/>
      </g>
     </g>
     <g id="text_8">
      <!-- −4000 -->
      <g transform="translate(27.200781 252.84236) scale(0.1 -0.1)">
       <use xlink:href="#DejaVuSans-c9c"/>
       <use xlink:href="#DejaVuSans-17" transform="translate(83.796875 0)"/>
       <use xlink:href="#DejaVuSans-13" transform="translate(147.421875 0)"/>
       <use xlink:href="#DejaVuSans-13" transform="translate(211.046875 0)"/>
       <use xlink:href="#DejaVuSans-13" transform="translate(274.671875 0)"/>
      </g>
     </g>
    </g>
    <g id="ytick_3">
     <g id="line2d_8">
      <g>
       <use xlink:href="#m83a2704164" x="68.030469" y="206.030118" style="stroke: #000000; stroke-width: 0.8"/>
      </g>
     </g>
     <g id="text_9">
      <!-- −2000 -->
      <g transform="translate(27.200781 209.828946) scale(0.1 -0.1)">
       <use xlink:href="#DejaVuSans-c9c"/>
       <use xlink:href="#DejaVuSans-15" transform="translate(83.796875 0)"/>
       <use xlink:href="#DejaVuSans-13" transform="translate(147.421875 0)"/>
       <use xlink:href="#DejaVuSans-13" transform="translate(211.046875 0)"/>
       <use xlink:href="#DejaVuSans-13" transform="translate(274.671875 0)"/>
      </g>
     </g>
    </g>
    <g id="ytick_4">
     <g id="line2d_9">
      <g>
       <use xlink:href="#m83a2704164" x="68.030469" y="163.016705" style="stroke: #000000; stroke-width: 0.8"/>
      </g>
     </g>
     <g id="text_10">
      <!-- 0 -->
      <g transform="translate(54.667969 166.815533) scale(0.1 -0.1)">
       <use xlink:href="#DejaVuSans-13"/>
      </g>
     </g>
    </g>
    <g id="ytick_5">
     <g id="line2d_10">
      <g>
       <use xlink:href="#m83a2704164" x="68.030469" y="120.003291" style="stroke: #000000; stroke-width: 0.8"/>
      </g>
     </g>
     <g id="text_11">
      <!-- 2000 -->
      <g transform="translate(35.580469 123.802119) scale(0.1 -0.1)">
       <use xlink:href="#DejaVuSans-15"/>
       <use xlink:href="#DejaVuSans-13" transform="translate(63.625 0)"/>
       <use xlink:href="#DejaVuSans-13" transform="translate(127.25 0)"/>
       <use xlink:href="#DejaVuSans-13" transform="translate(190.875 0)"/>
      </g>
     </g>
    </g>
    <g id="ytick_6">
     <g id="line2d_11">
      <g>
       <use xlink:href="#m83a2704164" x="68.030469" y="76.989877" style="stroke: #000000; stroke-width: 0.8"/>
      </g>
     </g>
     <g id="text_12">
      <!-- 4000 -->
      <g transform="translate(35.580469 80.788705) scale(0.1 -0.1)">
       <use xlink:href="#DejaVuSans-17"/>
       <use xlink:href="#DejaVuSans-13" transform="translate(63.625 0)"/>
       <use xlink:href="#DejaVuSans-13" transform="translate(127.25 0)"/>
       <use xlink:href="#DejaVuSans-13" transform="translate(190.875 0)"/>
      </g>
     </g>
    </g>
    <g id="ytick_7">
     <g id="line2d_12">
      <g>
       <use xlink:href="#m83a2704164" x="68.030469" y="33.976464" style="stroke: #000000; stroke-width: 0.8"/>
      </g>
     </g>
     <g id="text_13">
      <!-- 6000 -->
      <g transform="translate(35.580469 37.775292) scale(0.1 -0.1)">
       <use xlink:href="#DejaVuSans-19"/>
       <use xlink:href="#DejaVuSans-13" transform="translate(63.625 0)"/>
       <use xlink:href="#DejaVuSans-13" transform="translate(127.25 0)"/>
       <use xlink:href="#DejaVuSans-13" transform="translate(190.875 0)"/>
      </g>
     </g>
    </g>
    <g id="text_14">
     <!-- X Position (km) -->
     <g transform="translate(14.798437 200.780995) rotate(-90) scale(0.1 -0.1)">
      <defs>
       <path id="DejaVuSans-3b" d="M 403 4666 
L 1081 4666 
L 2241 2931 
L 3406 4666 
L 4084 4666 
L 2584 2425 
L 4184 0 
L 3506 0 
L 2194 1984 
L 872 0 
L 191 0 
L 1856 2491 
L 403 4666 
z
" transform="scale(0.015625)"/>
       <path id="DejaVuSans-33" d="M 1259 4147 
L 1259 2394 
L 2053 2394 
Q 2494 2394 2734 2622 
Q 2975 2850 2975 3272 
Q 2975 3691 2734 3919 
Q 2494 4147 2053 4147 
L 1259 4147 
z
M 628 4666 
L 2053 4666 
Q 2838 4666 3239 4311 
Q 3641 3956 3641 3272 
Q 3641 2581 3239 2228 
Q 2838 1875 2053 1875 
L 1259 1875 
L 1259 0 
L 628 0 
L 628 4666 
z
" transform="scale(0.015625)"/>
       <path id="DejaVuSans-52" d="M 1959 3097 
Q 1497 3097 1228 2736 
Q 959 2375 959 1747 
Q 959 1119 1226 758 
Q 1494 397 1959 397 
Q 2419 397 2687 759 
Q 2956 1122 2956 1747 
Q 2956 2369 2687 2733 
Q 2419 3097 1959 3097 
z
M 1959 3584 
Q 2709 3584 3137 3096 
Q 3566 2609 3566 1747 
Q 3566 888 3137 398 
Q 2709 -91 1959 -91 
Q 1206 -91 779 398 
Q 353 888 353 1747 
Q 353 2609 779 3096 
Q 1206 3584 1959 3584 
z
" transform="scale(0.015625)"/>
       <path id="DejaVuSans-4e" d="M 581 4863 
L 1159 4863 
L 1159 1991 
L 2875 3500 
L 3609 3500 
L 1753 1863 
L 3688 0 
L 2938 0 
L 1159 1709 
L 1159 0 
L 581 0 
L 581 4863 
z
" transform="scale(0.015625)"/>
      </defs>
      <use xlink:href="#DejaVuSans-3b"/>
      <use xlink:href="#DejaVuSans-3" transform="translate(68.5 0)"/>
      <use xlink:href="#DejaVuSans-33" transform="translate(100.28125 0)"/>
      <use xlink:href="#DejaVuSans-52" transform="translate(157.015625 0)"/>
      <use xlink:href="#DejaVuSans-56" transform="translate(218.203125 0)"/>
      <use xlink:href="#DejaVuSans-4c" transform="translate(270.296875 0)"/>
      <use xlink:href="#DejaVuSans-57" transform="translate(298.078125 0)"/>
      <use xlink:href="#DejaVuSans-4c" transform="translate(337.28125 0)"/>
      <use xlink:href="#DejaVuSans-52" transform="translate(365.0625 0)"/>
      <use xlink:href="#DejaVuSans-51" transform="translate(426.25 0)"/>
      <use xlink:href="#DejaVuSans-3" transform="translate(489.625 0)"/>
      <use xlink:href="#DejaVuSans-b" transform="translate(521.40625 0)"/>
      <use xlink:href="#DejaVuSans-4e" transform="translate(560.421875 0)"/>
      <use xlink:href="#DejaVuSans-50" transform="translate(618.328125 0)"/>
      <use xlink:href="#DejaVuSans-c" transform="translate(715.734375 0)"/>
     </g>
    </g>
   </g>
   <g id="line2d_13">
    <path d="M 68.030469 24.275241 
L 71.083783 22.661255 
L 74.137097 21.690527 
L 77.190412 21.36759 
L 80.243726 21.693986 
L 83.29704 22.668253 
L 86.350354 24.285935 
L 89.403669 26.539603 
L 92.456983 29.418892 
L 95.510297 32.910553 
L 98.563612 36.998513 
L 101.616926 41.663959 
L 104.67024 46.885424 
L 107.723554 52.638894 
L 110.776869 58.897916 
L 113.830183 65.633732 
L 116.883497 72.815409 
L 119.936812 80.409985 
L 122.990126 88.382623 
L 126.04344 96.69677 
L 129.096754 105.314332 
L 132.150069 114.195839 
L 135.203383 123.300633 
L 138.256697 132.58705 
L 141.310012 142.012608 
L 144.363326 151.534201 
L 147.41664 161.108293 
L 150.469954 170.691115 
L 153.523269 180.23886 
L 156.576583 189.707885 
L 159.629897 199.054905 
L 162.683212 208.237193 
L 165.736526 217.21277 
L 168.78984 225.940597 
L 171.843154 234.380767 
L 174.896469 242.494682 
L 177.949783 250.245235 
L 181.003097 257.59698 
L 184.056411 264.516295 
L 187.109726 270.97154 
L 190.16304 276.933204 
L 193.216354 282.374041 
L 196.269669 287.269202 
L 199.322983 291.596343 
L 202.376297 295.335737 
L 205.429611 298.470361 
L 208.482926 300.985976 
L 211.53624 302.871191 
L 214.589554 304.117517 
L 217.642869 304.719399 
L 220.696183 304.674245 
L 223.749497 303.982431 
L 226.802811 302.647295 
L 229.856126 300.675118 
L 232.90944 298.075093 
L 235.962754 294.859271 
L 239.016069 291.042509 
L 242.069383 286.642391 
L 245.122697 281.679143 
L 248.176011 276.175541 
L 251.229326 270.156796 
L 254.28264 263.650442 
L 257.335954 256.686207 
L 260.389269 249.295873 
L 263.442583 241.513134 
L 266.495897 233.373445 
L 269.549211 224.913858 
L 272.602526 216.17286 
L 275.65584 207.190201 
L 278.709154 198.006718 
L 281.762469 188.664152 
L 284.815783 179.204969 
L 287.869097 169.672168 
L 290.922411 160.109093 
L 293.975726 150.559244 
L 297.02904 141.066082 
L 300.082354 131.672834 
L 303.135669 122.422307 
L 306.188983 113.356688 
L 309.242297 104.517362 
L 312.295611 95.944716 
L 315.348926 87.677962 
L 318.40224 79.754953 
L 321.455554 72.212005 
L 324.508868 65.083736 
L 327.562183 58.402893 
L 330.615497 52.200206 
L 333.668811 46.504233 
L 336.722126 41.341231 
L 339.77544 36.735024 
L 342.828754 32.706889 
L 345.882068 29.275452 
L 348.935383 26.456597 
L 351.748125 24.41323 
" clip-path="url(#pb7d079e68c)" style="fill: none; stroke: #0000ff; stroke-width: 1.5; stroke-linecap: square"/>
   </g>
   <g id="patch_3">
    <path d="M 68.030469 318.886989 
L 68.030469 7.2 
" style="fill: none; stroke: #000000; stroke-width: 0.8; stroke-linejoin: miter; stroke-linecap: square"/>
   </g>
   <g id="patch_4">
    <path d="M 351.748125 318.886989 
L 351.748125 7.2 
" style="fill: none; stroke: #000000; stroke-width: 0.8; stroke-linejoin: miter; stroke-linecap: square"/>
   </g>
   <g id="patch_5">
    <path d="M 68.030469 318.886989 
L 351.748125 318.886989 
" style="fill: none; stroke: #000000; stroke-width: 0.8; stroke-linejoin: miter; stroke-linecap: square"/>
   </g>
   <g id="patch_6">
    <path d="M 68.030469 7.2 
L 351.748125 7.2 
" style="fill: none; stroke: #000000; stroke-width: 0.8; stroke-linejoin: miter; stroke-linecap: square"/>
   </g>
   <g id="legend_1">
    <g id="patch_7">
     <path d="M 75.030469 313.886989 
L 122.677344 313.886989 
Q 124.677344 313.886989 124.677344 311.886989 
L 124.677344 297.886208 
Q 124.677344 295.886208 122.677344 295.886208 
L 75.030469 295.886208 
Q 73.030469 295.886208 73.030469 297.886208 
L 73.030469 311.886989 
Q 73.030469 313.886989 75.030469 313.886989 
z
" style="fill: #ffffff; opacity: 0.8; stroke: #cccccc; stroke-linejoin: miter"/>
    </g>
    <g id="line2d_14">
     <path d="M 77.030469 303.984646 
L 87.030469 303.984646 
L 97.030469 303.984646 
" style="fill: none; stroke: #0000ff; stroke-width: 1.5; stroke-linecap: square"/>
    </g>
    <g id="text_15">
     <!-- ISS -->
     <g transform="translate(105.030469 307.484646) scale(0.1 -0.1)">
      <defs>
       <path id="DejaVuSans-2c" d="M 628 4666 
L 1259 4666 
L 1259 0 
L 628 0 
L 628 4666 
z
" transform="scale(0.015625)"/>
       <path id="DejaVuSans-36" d="M 3425 4513 
L 3425 3897 
Q 3066 4069 2747 4153 
Q 2428 4238 2131 4238 
Q 1616 4238 1336 4038 
Q 1056 3838 1056 3469 
Q 1056 3159 1242 3001 
Q 1428 2844 1947 2747 
L 2328 2669 
Q 3034 2534 3370 2195 
Q 3706 1856 3706 1288 
Q 3706 609 3251 259 
Q 2797 -91 1919 -91 
Q 1588 -91 1214 -16 
Q 841 59 441 206 
L 441 856 
Q 825 641 1194 531 
Q 1563 422 1919 422 
Q 2459 422 2753 634 
Q 3047 847 3047 1241 
Q 3047 1584 2836 1778 
Q 2625 1972 2144 2069 
L 1759 2144 
Q 1053 2284 737 2584 
Q 422 2884 422 3419 
Q 422 4038 858 4394 
Q 1294 4750 2059 4750 
Q 2388 4750 2728 4690 
Q 3069 4631 3425 4513 
z
" transform="scale(0.015625)"/>
      </defs>
      <use xlink:href="#DejaVuSans-2c"/>
      <use xlink:href="#DejaVuSans-36" transform="translate(29.5 0)"/>
      <use xlink:href="#DejaVuSans-36" transform="translate(92.984375 0)"/>
     </g>
    </g>
   </g>
  </g>
  <g id="axes_2">
   <g id="patch_8">
    <path d="M 424.430469 318.886989 
L 708.148125 318.886989 
L 708.148125 7.2 
L 424.430469 7.2 
z
" style="fill: #ffffff"/>
   </g>
   <g id="matplotlib.axis_3">
    <g id="xtick_6">
     <g id="line2d_15">
      <g>
       <use xlink:href="#m2afe765498" x="424.430469" y="318.886989" style="stroke: #000000; stroke-width: 0.8"/>
      </g>
     </g>
     <g id="text_16">
      <!-- 0 -->
      <g transform="translate(421.249219 333.484646) scale(0.1 -0.1)">
       <use xlink:href="#DejaVuSans-13"/>
      </g>
     </g>
    </g>
    <g id="xtick_7">
     <g id="line2d_16">
      <g>
       <use xlink:href="#m2afe765498" x="485.496754" y="318.886989" style="stroke: #000000; stroke-width: 0.8"/>
      </g>
     </g>
     <g id="text_17">
      <!-- 20 -->
      <g transform="translate(479.134254 333.484646) scale(0.1 -0.1)">
       <use xlink:href="#DejaVuSans-15"/>
       <use xlink:href="#DejaVuSans-13" transform="translate(63.625 0)"/>
      </g>
     </g>
    </g>
    <g id="xtick_8">
     <g id="line2d_17">
      <g>
       <use xlink:href="#m2afe765498" x="546.56304" y="318.886989" style="stroke: #000000; stroke-width: 0.8"/>
      </g>
     </g>
     <g id="text_18">
      <!-- 40 -->
      <g transform="translate(540.20054 333.484646) scale(0.1 -0.1)">
       <use xlink:href="#DejaVuSans-17"/>
       <use xlink:href="#DejaVuSans-13" transform="translate(63.625 0)"/>
      </g>
     </g>
    </g>
    <g id="xtick_9">
     <g id="line2d_18">
      <g>
       <use xlink:href="#m2afe765498" x="607.629326" y="318.886989" style="stroke: #000000; stroke-width: 0.8"/>
      </g>
     </g>
     <g id="text_19">
      <!-- 60 -->
      <g transform="translate(601.266826 333.484646) scale(0.1 -0.1)">
       <use xlink:href="#DejaVuSans-19"/>
       <use xlink:href="#DejaVuSans-13" transform="translate(63.625 0)"/>
      </g>
     </g>
    </g>
    <g id="xtick_10">
     <g id="line2d_19">
      <g>
       <use xlink:href="#m2afe765498" x="668.695611" y="318.886989" style="stroke: #000000; stroke-width: 0.8"/>
      </g>
     </g>
     <g id="text_20">
      <!-- 80 -->
      <g transform="translate(662.333111 333.484646) scale(0.1 -0.1)">
       <use xlink:href="#DejaVuSans-1b"/>
       <use xlink:href="#DejaVuSans-13" transform="translate(63.625 0)"/>
      </g>
     </g>
    </g>
    <g id="text_21">
     <!-- Time (minutes) -->
     <g transform="translate(528.324453 347.485427) scale(0.1 -0.1)">
      <use xlink:href="#DejaVuSans-37"/>
      <use xlink:href="#DejaVuSans-4c" transform="translate(58 0)"/>
      <use xlink:href="#DejaVuSans-50" transform="translate(85.78125 0)"/>
      <use xlink:href="#DejaVuSans-48" transform="translate(183.1875 0)"/>
      <use xlink:href="#DejaVuSans-3" transform="translate(244.71875 0)"/>
      <use xlink:href="#DejaVuSans-b" transform="translate(276.5 0)"/>
      <use xlink:href="#DejaVuSans-50" transform="translate(315.515625 0)"/>
      <use xlink:href="#DejaVuSans-4c" transform="translate(412.921875 0)"/>
      <use xlink:href="#DejaVuSans-51" transform="translate(440.703125 0)"/>
      <use xlink:href="#DejaVuSans-58" transform="translate(504.078125 0)"/>
      <use xlink:href="#DejaVuSans-57" transform="translate(567.453125 0)"/>
      <use xlink:href="#DejaVuSans-48" transform="translate(606.65625 0)"/>
      <use xlink:href="#DejaVuSans-56" transform="translate(668.1875 0)"/>
      <use xlink:href="#DejaVuSans-c" transform="translate(720.28125 0)"/>
     </g>
    </g>
   </g>
   <g id="matplotlib.axis_4">
    <g id="ytick_8">
     <g id="line2d_20">
      <g>
       <use xlink:href="#m83a2704164" x="424.430469" y="287.601867" style="stroke: #000000; stroke-width: 0.8"/>
      </g>
     </g>
     <g id="text_22">
      <!-- −4000 -->
      <g transform="translate(383.600781 291.400695) scale(0.1 -0.1)">
       <use xlink:href="#DejaVuSans-c9c"/>
       <use xlink:href="#DejaVuSans-17" transform="translate(83.796875 0)"/>
       <use xlink:href="#DejaVuSans-13" transform="translate(147.421875 0)"/>
       <use xlink:href="#DejaVuSans-13" transform="translate(211.046875 0)"/>
       <use xlink:href="#DejaVuSans-13" transform="translate(274.671875 0)"/>
      </g>
     </g>
    </g>
    <g id="ytick_9">
     <g id="line2d_21">
      <g>
       <use xlink:href="#m83a2704164" x="424.430469" y="225.224256" style="stroke: #000000; stroke-width: 0.8"/>
      </g>
     </g>
     <g id="text_23">
      <!-- −2000 -->
      <g transform="translate(383.600781 229.023084) scale(0.1 -0.1)">
       <use xlink:href="#DejaVuSans-c9c"/>
       <use xlink:href="#DejaVuSans-15" transform="translate(83.796875 0)"/>
       <use xlink:href="#DejaVuSans-13" transform="translate(147.421875 0)"/>
       <use xlink:href="#DejaVuSans-13" transform="translate(211.046875 0)"/>
       <use xlink:href="#DejaVuSans-13" transform="translate(274.671875 0)"/>
      </g>
     </g>
    </g>
    <g id="ytick_10">
     <g id="line2d_22">
      <g>
       <use xlink:href="#m83a2704164" x="424.430469" y="162.846645" style="stroke: #000000; stroke-width: 0.8"/>
      </g>
     </g>
     <g id="text_24">
      <!-- 0 -->
      <g transform="translate(411.067969 166.645473) scale(0.1 -0.1)">
       <use xlink:href="#DejaVuSans-13"/>
      </g>
     </g>
    </g>
    <g id="ytick_11">
     <g id="line2d_23">
      <g>
       <use xlink:href="#m83a2704164" x="424.430469" y="100.469034" style="stroke: #000000; stroke-width: 0.8"/>
      </g>
     </g>
     <g id="text_25">
      <!-- 2000 -->
      <g transform="translate(391.980469 104.267862) scale(0.1 -0.1)">
       <use xlink:href="#DejaVuSans-15"/>
       <use xlink:href="#DejaVuSans-13" transform="translate(63.625 0)"/>
       <use xlink:href="#DejaVuSans-13" transform="translate(127.25 0)"/>
       <use xlink:href="#DejaVuSans-13" transform="translate(190.875 0)"/>
      </g>
     </g>
    </g>
    <g id="ytick_12">
     <g id="line2d_24">
      <g>
       <use xlink:href="#m83a2704164" x="424.430469" y="38.091423" style="stroke: #000000; stroke-width: 0.8"/>
      </g>
     </g>
     <g id="text_26">
      <!-- 4000 -->
      <g transform="translate(391.980469 41.890252) scale(0.1 -0.1)">
       <use xlink:href="#DejaVuSans-17"/>
       <use xlink:href="#DejaVuSans-13" transform="translate(63.625 0)"/>
       <use xlink:href="#DejaVuSans-13" transform="translate(127.25 0)"/>
       <use xlink:href="#DejaVuSans-13" transform="translate(190.875 0)"/>
      </g>
     </g>
    </g>
    <g id="text_27">
     <!-- Y Position (km) -->
     <g transform="translate(371.198438 200.409901) rotate(-90) scale(0.1 -0.1)">
      <defs>
       <path id="DejaVuSans-3c" d="M -13 4666 
L 666 4666 
L 1959 2747 
L 3244 4666 
L 3922 4666 
L 2272 2222 
L 2272 0 
L 1638 0 
L 1638 2222 
L -13 4666 
z
" transform="scale(0.015625)"/>
      </defs>
      <use xlink:href="#DejaVuSans-3c"/>
      <use xlink:href="#DejaVuSans-3" transform="translate(61.078125 0)"/>
      <use xlink:href="#DejaVuSans-33" transform="translate(92.859375 0)"/>
      <use xlink:href="#DejaVuSans-52" transform="translate(149.59375 0)"/>
      <use xlink:href="#DejaVuSans-56" transform="translate(210.78125 0)"/>
      <use xlink:href="#DejaVuSans-4c" transform="translate(262.875 0)"/>
      <use xlink:href="#DejaVuSans-57" transform="translate(290.65625 0)"/>
      <use xlink:href="#DejaVuSans-4c" transform="translate(329.859375 0)"/>
      <use xlink:href="#DejaVuSans-52" transform="translate(357.640625 0)"/>
      <use xlink:href="#DejaVuSans-51" transform="translate(418.828125 0)"/>
      <use xlink:href="#DejaVuSans-3" transform="translate(482.203125 0)"/>
      <use xlink:href="#DejaVuSans-b" transform="translate(513.984375 0)"/>
      <use xlink:href="#DejaVuSans-4e" transform="translate(553 0)"/>
      <use xlink:href="#DejaVuSans-50" transform="translate(610.90625 0)"/>
      <use xlink:href="#DejaVuSans-c" transform="translate(708.3125 0)"/>
     </g>
    </g>
   </g>
   <g id="line2d_25">
    <path d="M 424.430469 229.229024 
L 427.483783 220.627689 
L 430.537097 211.761539 
L 433.590412 202.67118 
L 436.643726 193.398261 
L 439.69704 183.985283 
L 442.750354 174.475396 
L 445.803669 164.912199 
L 448.856983 155.339533 
L 451.910297 145.801277 
L 454.963612 136.341142 
L 458.016926 127.00247 
L 461.07024 117.82803 
L 464.123554 108.859821 
L 467.176869 100.138883 
L 470.230183 91.705102 
L 473.283497 83.597035 
L 476.336812 75.851734 
L 479.390126 68.504574 
L 482.44344 61.589101 
L 485.496754 55.136875 
L 488.550069 49.177334 
L 491.603383 43.737663 
L 494.656697 38.842667 
L 497.710012 34.514667 
L 500.763326 30.773398 
L 503.81664 27.63592 
L 506.869954 25.116544 
L 509.923269 23.226763 
L 512.976583 21.975206 
L 516.029897 21.36759 
L 519.083212 21.406701 
L 522.136526 22.092374 
L 525.18984 23.421492 
L 528.243154 25.388002 
L 531.296469 27.982937 
L 534.349783 31.194453 
L 537.403097 35.007885 
L 540.456411 39.405809 
L 543.509726 44.368123 
L 546.56304 49.872134 
L 549.616354 55.892664 
L 552.669669 62.402166 
L 555.722983 69.370848 
L 558.776297 76.766814 
L 561.829611 84.556212 
L 564.882926 92.703387 
L 567.93624 101.171056 
L 570.989554 109.920474 
L 574.042869 118.911619 
L 577.096183 128.103378 
L 580.149497 137.453739 
L 583.202811 146.919987 
L 586.256126 156.458898 
L 589.30944 166.026944 
L 592.362754 175.580493 
L 595.416069 185.076003 
L 598.469383 194.470226 
L 601.522697 203.720404 
L 604.576011 212.784459 
L 607.629326 221.621181 
L 610.68264 230.190418 
L 613.735954 238.453246 
L 616.789269 246.372148 
L 619.842583 253.911175 
L 622.895897 261.036106 
L 625.949211 267.714595 
L 629.002526 273.916317 
L 632.05584 279.613096 
L 635.109154 284.779031 
L 638.162469 289.390611 
L 641.215783 293.426816 
L 644.269097 296.86921 
L 647.322411 299.70203 
L 650.375726 301.912251 
L 653.42904 303.489651 
L 656.482354 304.426861 
L 659.535669 304.719399 
L 662.588983 304.365697 
L 665.642297 303.367116 
L 668.695611 301.727942 
L 671.748926 299.455379 
L 674.80224 296.559517 
L 677.855554 293.0533 
L 680.908868 288.952467 
L 683.962183 284.275495 
L 687.015497 279.043511 
L 690.068811 273.280209 
L 693.122126 267.011744 
L 696.17544 260.266612 
L 699.228754 253.075526 
L 702.282068 245.471275 
L 705.335383 237.488574 
L 708.148125 229.831343 
" clip-path="url(#p1e1d30099b)" style="fill: none; stroke: #0000ff; stroke-width: 1.5; stroke-linecap: square"/>
   </g>
   <g id="patch_9">
    <path d="M 424.430469 318.886989 
L 424.430469 7.2 
" style="fill: none; stroke: #000000; stroke-width: 0.8; stroke-linejoin: miter; stroke-linecap: square"/>
   </g>
   <g id="patch_10">
    <path d="M 708.148125 318.886989 
L 708.148125 7.2 
" style="fill: none; stroke: #000000; stroke-width: 0.8; stroke-linejoin: miter; stroke-linecap: square"/>
   </g>
   <g id="patch_11">
    <path d="M 424.430469 318.886989 
L 708.148125 318.886989 
" style="fill: none; stroke: #000000; stroke-width: 0.8; stroke-linejoin: miter; stroke-linecap: square"/>
   </g>
   <g id="patch_12">
    <path d="M 424.430469 7.2 
L 708.148125 7.2 
" style="fill: none; stroke: #000000; stroke-width: 0.8; stroke-linejoin: miter; stroke-linecap: square"/>
   </g>
  </g>
  <g id="axes_3">
   <g id="patch_13">
    <path d="M 780.830469 318.886989 
L 1064.548125 318.886989 
L 1064.548125 7.2 
L 780.830469 7.2 
z
" style="fill: #ffffff"/>
   </g>
   <g id="matplotlib.axis_5">
    <g id="xtick_11">
     <g id="line2d_26">
      <g>
       <use xlink:href="#m2afe765498" x="780.830469" y="318.886989" style="stroke: #000000; stroke-width: 0.8"/>
      </g>
     </g>
     <g id="text_28">
      <!-- 0 -->
      <g transform="translate(777.649219 333.484646) scale(0.1 -0.1)">
       <use xlink:href="#DejaVuSans-13"/>
      </g>
     </g>
    </g>
    <g id="xtick_12">
     <g id="line2d_27">
      <g>
       <use xlink:href="#m2afe765498" x="841.896754" y="318.886989" style="stroke: #000000; stroke-width: 0.8"/>
      </g>
     </g>
     <g id="text_29">
      <!-- 20 -->
      <g transform="translate(835.534254 333.484646) scale(0.1 -0.1)">
       <use xlink:href="#DejaVuSans-15"/>
       <use xlink:href="#DejaVuSans-13" transform="translate(63.625 0)"/>
      </g>
     </g>
    </g>
    <g id="xtick_13">
     <g id="line2d_28">
      <g>
       <use xlink:href="#m2afe765498" x="902.96304" y="318.886989" style="stroke: #000000; stroke-width: 0.8"/>
      </g>
     </g>
     <g id="text_30">
      <!-- 40 -->
      <g transform="translate(896.60054 333.484646) scale(0.1 -0.1)">
       <use xlink:href="#DejaVuSans-17"/>
       <use xlink:href="#DejaVuSans-13" transform="translate(63.625 0)"/>
      </g>
     </g>
    </g>
    <g id="xtick_14">
     <g id="line2d_29">
      <g>
       <use xlink:href="#m2afe765498" x="964.029326" y="318.886989" style="stroke: #000000; stroke-width: 0.8"/>
      </g>
     </g>
     <g id="text_31">
      <!-- 60 -->
      <g transform="translate(957.666826 333.484646) scale(0.1 -0.1)">
       <use xlink:href="#DejaVuSans-19"/>
       <use xlink:href="#DejaVuSans-13" transform="translate(63.625 0)"/>
      </g>
     </g>
    </g>
    <g id="xtick_15">
     <g id="line2d_30">
      <g>
       <use xlink:href="#m2afe765498" x="1025.095611" y="318.886989" style="stroke: #000000; stroke-width: 0.8"/>
      </g>
     </g>
     <g id="text_32">
      <!-- 80 -->
      <g transform="translate(1018.733111 333.484646) scale(0.1 -0.1)">
       <use xlink:href="#DejaVuSans-1b"/>
       <use xlink:href="#DejaVuSans-13" transform="translate(63.625 0)"/>
      </g>
     </g>
    </g>
    <g id="text_33">
     <!-- Time (minutes) -->
     <g transform="translate(884.724453 347.485427) scale(0.1 -0.1)">
      <use xlink:href="#DejaVuSans-37"/>
      <use xlink:href="#DejaVuSans-4c" transform="translate(58 0)"/>
      <use xlink:href="#DejaVuSans-50" transform="translate(85.78125 0)"/>
      <use xlink:href="#DejaVuSans-48" transform="translate(183.1875 0)"/>
      <use xlink:href="#DejaVuSans-3" transform="translate(244.71875 0)"/>
      <use xlink:href="#DejaVuSans-b" transform="translate(276.5 0)"/>
      <use xlink:href="#DejaVuSans-50" transform="translate(315.515625 0)"/>
      <use xlink:href="#DejaVuSans-4c" transform="translate(412.921875 0)"/>
      <use xlink:href="#DejaVuSans-51" transform="translate(440.703125 0)"/>
      <use xlink:href="#DejaVuSans-58" transform="translate(504.078125 0)"/>
      <use xlink:href="#DejaVuSans-57" transform="translate(567.453125 0)"/>
      <use xlink:href="#DejaVuSans-48" transform="translate(606.65625 0)"/>
      <use xlink:href="#DejaVuSans-56" transform="translate(668.1875 0)"/>
      <use xlink:href="#DejaVuSans-c" transform="translate(720.28125 0)"/>
     </g>
    </g>
   </g>
   <g id="matplotlib.axis_6">
    <g id="ytick_13">
     <g id="line2d_31">
      <g>
       <use xlink:href="#m83a2704164" x="780.830469" y="269.4158" style="stroke: #000000; stroke-width: 0.8"/>
      </g>
     </g>
     <g id="text_34">
      <!-- −4000 -->
      <g transform="translate(740.000781 273.214628) scale(0.1 -0.1)">
       <use xlink:href="#DejaVuSans-c9c"/>
       <use xlink:href="#DejaVuSans-17" transform="translate(83.796875 0)"/>
       <use xlink:href="#DejaVuSans-13" transform="translate(147.421875 0)"/>
       <use xlink:href="#DejaVuSans-13" transform="translate(211.046875 0)"/>
       <use xlink:href="#DejaVuSans-13" transform="translate(274.671875 0)"/>
      </g>
     </g>
    </g>
    <g id="ytick_14">
     <g id="line2d_32">
      <g>
       <use xlink:href="#m83a2704164" x="780.830469" y="216.168185" style="stroke: #000000; stroke-width: 0.8"/>
      </g>
     </g>
     <g id="text_35">
      <!-- −2000 -->
      <g transform="translate(740.000781 219.967014) scale(0.1 -0.1)">
       <use xlink:href="#DejaVuSans-c9c"/>
       <use xlink:href="#DejaVuSans-15" transform="translate(83.796875 0)"/>
       <use xlink:href="#DejaVuSans-13" transform="translate(147.421875 0)"/>
       <use xlink:href="#DejaVuSans-13" transform="translate(211.046875 0)"/>
       <use xlink:href="#DejaVuSans-13" transform="translate(274.671875 0)"/>
      </g>
     </g>
    </g>
    <g id="ytick_15">
     <g id="line2d_33">
      <g>
       <use xlink:href="#m83a2704164" x="780.830469" y="162.920571" style="stroke: #000000; stroke-width: 0.8"/>
      </g>
     </g>
     <g id="text_36">
      <!-- 0 -->
      <g transform="translate(767.467969 166.719399) scale(0.1 -0.1)">
       <use xlink:href="#DejaVuSans-13"/>
      </g>
     </g>
    </g>
    <g id="ytick_16">
     <g id="line2d_34">
      <g>
       <use xlink:href="#m83a2704164" x="780.830469" y="109.672956" style="stroke: #000000; stroke-width: 0.8"/>
      </g>
     </g>
     <g id="text_37">
      <!-- 2000 -->
      <g transform="translate(748.380469 113.471784) scale(0.1 -0.1)">
       <use xlink:href="#DejaVuSans-15"/>
       <use xlink:href="#DejaVuSans-13" transform="translate(63.625 0)"/>
       <use xlink:href="#DejaVuSans-13" transform="translate(127.25 0)"/>
       <use xlink:href="#DejaVuSans-13" transform="translate(190.875 0)"/>
      </g>
     </g>
    </g>
    <g id="ytick_17">
     <g id="line2d_35">
      <g>
       <use xlink:href="#m83a2704164" x="780.830469" y="56.425342" style="stroke: #000000; stroke-width: 0.8"/>
      </g>
     </g>
     <g id="text_38">
      <!-- 4000 -->
      <g transform="translate(748.380469 60.22417) scale(0.1 -0.1)">
       <use xlink:href="#DejaVuSans-17"/>
       <use xlink:href="#DejaVuSans-13" transform="translate(63.625 0)"/>
       <use xlink:href="#DejaVuSans-13" transform="translate(127.25 0)"/>
       <use xlink:href="#DejaVuSans-13" transform="translate(190.875 0)"/>
      </g>
     </g>
    </g>
    <g id="text_39">
     <!-- Z Position (km) -->
     <g transform="translate(727.598438 200.780995) rotate(-90) scale(0.1 -0.1)">
      <defs>
       <path id="DejaVuSans-3d" d="M 359 4666 
L 4025 4666 
L 4025 4184 
L 1075 531 
L 4097 531 
L 4097 0 
L 288 0 
L 288 481 
L 3238 4134 
L 359 4134 
L 359 4666 
z
" transform="scale(0.015625)"/>
      </defs>
      <use xlink:href="#DejaVuSans-3d"/>
      <use xlink:href="#DejaVuSans-3" transform="translate(68.5 0)"/>
      <use xlink:href="#DejaVuSans-33" transform="translate(100.28125 0)"/>
      <use xlink:href="#DejaVuSans-52" transform="translate(157.015625 0)"/>
      <use xlink:href="#DejaVuSans-56" transform="translate(218.203125 0)"/>
      <use xlink:href="#DejaVuSans-4c" transform="translate(270.296875 0)"/>
      <use xlink:href="#DejaVuSans-57" transform="translate(298.078125 0)"/>
      <use xlink:href="#DejaVuSans-4c" transform="translate(337.28125 0)"/>
      <use xlink:href="#DejaVuSans-52" transform="translate(365.0625 0)"/>
      <use xlink:href="#DejaVuSans-51" transform="translate(426.25 0)"/>
      <use xlink:href="#DejaVuSans-3" transform="translate(489.625 0)"/>
      <use xlink:href="#DejaVuSans-b" transform="translate(521.40625 0)"/>
      <use xlink:href="#DejaVuSans-4e" transform="translate(560.421875 0)"/>
      <use xlink:href="#DejaVuSans-50" transform="translate(618.328125 0)"/>
      <use xlink:href="#DejaVuSans-c" transform="translate(715.734375 0)"/>
     </g>
    </g>
   </g>
   <g id="line2d_36">
    <path d="M 780.830469 163.350038 
L 783.883783 153.759452 
L 786.937097 144.210979 
L 789.990412 134.748516 
L 793.043726 125.415572 
L 796.09704 116.25506 
L 799.150354 107.3091 
L 802.203669 98.618813 
L 805.256983 90.224139 
L 808.310297 82.16364 
L 811.363612 74.474327 
L 814.416926 67.191487 
L 817.47024 60.348521 
L 820.523554 53.976791 
L 823.576869 48.105475 
L 826.630183 42.761442 
L 829.683497 37.969124 
L 832.736812 33.750411 
L 835.790126 30.124555 
L 838.84344 27.108084 
L 841.896754 24.714729 
L 844.950069 22.955368 
L 848.003383 21.837975 
L 851.056697 21.36759 
L 854.110012 21.546299 
L 857.163326 22.373219 
L 860.21664 23.844513 
L 863.269954 25.953401 
L 866.323269 28.690191 
L 869.376583 32.042325 
L 872.429897 35.994435 
L 875.483212 40.528409 
L 878.536526 45.623473 
L 881.58984 51.256286 
L 884.643154 57.40104 
L 887.696469 64.029581 
L 890.749783 71.111532 
L 893.803097 78.614435 
L 896.856411 86.503895 
L 899.909726 94.743739 
L 902.96304 103.296184 
L 906.016354 112.122007 
L 909.069669 121.180731 
L 912.122983 130.430809 
L 915.176297 139.82982 
L 918.229611 149.334665 
L 921.282926 158.90177 
L 924.33624 168.487285 
L 927.389554 178.047293 
L 930.442869 187.538012 
L 933.496183 196.915999 
L 936.549497 206.138351 
L 939.602811 215.162905 
L 942.656126 223.948427 
L 945.70944 232.454808 
L 948.762754 240.64324 
L 951.816069 248.476395 
L 954.869383 255.918593 
L 957.922697 262.935961 
L 960.976011 269.496583 
L 964.029326 275.57064 
L 967.08264 281.130544 
L 970.135954 286.151054 
L 973.189269 290.609388 
L 976.242583 294.485322 
L 979.295897 297.761272 
L 982.349211 300.422375 
L 985.402526 302.456549 
L 988.45584 303.854544 
L 991.509154 304.609986 
L 994.562469 304.719399 
L 997.615783 304.182224 
L 1000.669097 303.000823 
L 1003.722411 301.180467 
L 1006.775726 298.729321 
L 1009.82904 295.658403 
L 1012.882354 291.981547 
L 1015.935669 287.715341 
L 1018.988983 282.879061 
L 1022.042297 277.494587 
L 1025.095611 271.58631 
L 1028.148926 265.18103 
L 1031.20224 258.307841 
L 1034.255554 250.997999 
L 1037.308868 243.284788 
L 1040.362183 235.203373 
L 1043.415497 226.790638 
L 1046.468811 218.085025 
L 1049.522126 209.126356 
L 1052.57544 199.955648 
L 1055.628754 190.61493 
L 1058.682068 181.147042 
L 1061.735383 171.59544 
L 1064.548125 162.760125 
" clip-path="url(#pfc2386125a)" style="fill: none; stroke: #0000ff; stroke-width: 1.5; stroke-linecap: square"/>
   </g>
   <g id="patch_14">
    <path d="M 780.830469 318.886989 
L 780.830469 7.2 
" style="fill: none; stroke: #000000; stroke-width: 0.8; stroke-linejoin: miter; stroke-linecap: square"/>
   </g>
   <g id="patch_15">
    <path d="M 1064.548125 318.886989 
L 1064.548125 7.2 
" style="fill: none; stroke: #000000; stroke-width: 0.8; stroke-linejoin: miter; stroke-linecap: square"/>
   </g>
   <g id="patch_16">
    <path d="M 780.830469 318.886989 
L 1064.548125 318.886989 
" style="fill: none; stroke: #000000; stroke-width: 0.8; stroke-linejoin: miter; stroke-linecap: square"/>
   </g>
   <g id="patch_17">
    <path d="M 780.830469 7.2 
L 1064.548125 7.2 
" style="fill: none; stroke: #000000; stroke-width: 0.8; stroke-linejoin: miter; stroke-linecap: square"/>
   </g>
  </g>
  <g id="axes_4">
   <g id="patch_18">
    <path d="M 68.030469 674.277656 
L 351.748125 674.277656 
L 351.748125 362.590667 
L 68.030469 362.590667 
z
" style="fill: #ffffff"/>
   </g>
   <g id="matplotlib.axis_7">
    <g id="xtick_16">
     <g id="line2d_37">
      <g>
       <use xlink:href="#m2afe765498" x="68.030469" y="674.277656" style="stroke: #000000; stroke-width: 0.8"/>
      </g>
     </g>
     <g id="text_40">
      <!-- 0 -->
      <g transform="translate(64.849219 688.875312) scale(0.1 -0.1)">
       <use xlink:href="#DejaVuSans-13"/>
      </g>
     </g>
    </g>
    <g id="xtick_17">
     <g id="line2d_38">
      <g>
       <use xlink:href="#m2afe765498" x="129.096754" y="674.277656" style="stroke: #000000; stroke-width: 0.8"/>
      </g>
     </g>
     <g id="text_41">
      <!-- 20 -->
      <g transform="translate(122.734254 688.875312) scale(0.1 -0.1)">
       <use xlink:href="#DejaVuSans-15"/>
       <use xlink:href="#DejaVuSans-13" transform="translate(63.625 0)"/>
      </g>
     </g>
    </g>
    <g id="xtick_18">
     <g id="line2d_39">
      <g>
       <use xlink:href="#m2afe765498" x="190.16304" y="674.277656" style="stroke: #000000; stroke-width: 0.8"/>
      </g>
     </g>
     <g id="text_42">
      <!-- 40 -->
      <g transform="translate(183.80054 688.875312) scale(0.1 -0.1)">
       <use xlink:href="#DejaVuSans-17"/>
       <use xlink:href="#DejaVuSans-13" transform="translate(63.625 0)"/>
      </g>
     </g>
    </g>
    <g id="xtick_19">
     <g id="line2d_40">
      <g>
       <use xlink:href="#m2afe765498" x="251.229326" y="674.277656" style="stroke: #000000; stroke-width: 0.8"/>
      </g>
     </g>
     <g id="text_43">
      <!-- 60 -->
      <g transform="translate(244.866826 688.875312) scale(0.1 -0.1)">
       <use xlink:href="#DejaVuSans-19"/>
       <use xlink:href="#DejaVuSans-13" transform="translate(63.625 0)"/>
      </g>
     </g>
    </g>
    <g id="xtick_20">
     <g id="line2d_41">
      <g>
       <use xlink:href="#m2afe765498" x="312.295611" y="674.277656" style="stroke: #000000; stroke-width: 0.8"/>
      </g>
     </g>
     <g id="text_44">
      <!-- 80 -->
      <g transform="translate(305.933111 688.875312) scale(0.1 -0.1)">
       <use xlink:href="#DejaVuSans-1b"/>
       <use xlink:href="#DejaVuSans-13" transform="translate(63.625 0)"/>
      </g>
     </g>
    </g>
    <g id="text_45">
     <!-- Time (minutes) -->
     <g transform="translate(171.924453 702.876094) scale(0.1 -0.1)">
      <use xlink:href="#DejaVuSans-37"/>
      <use xlink:href="#DejaVuSans-4c" transform="translate(58 0)"/>
      <use xlink:href="#DejaVuSans-50" transform="translate(85.78125 0)"/>
      <use xlink:href="#DejaVuSans-48" transform="translate(183.1875 0)"/>
      <use xlink:href="#DejaVuSans-3" transform="translate(244.71875 0)"/>
      <use xlink:href="#DejaVuSans-b" transform="translate(276.5 0)"/>
      <use xlink:href="#DejaVuSans-50" transform="translate(315.515625 0)"/>
      <use xlink:href="#DejaVuSans-4c" transform="translate(412.921875 0)"/>
      <use xlink:href="#DejaVuSans-51" transform="translate(440.703125 0)"/>
      <use xlink:href="#DejaVuSans-58" transform="translate(504.078125 0)"/>
      <use xlink:href="#DejaVuSans-57" transform="translate(567.453125 0)"/>
      <use xlink:href="#DejaVuSans-48" transform="translate(606.65625 0)"/>
      <use xlink:href="#DejaVuSans-56" transform="translate(668.1875 0)"/>
      <use xlink:href="#DejaVuSans-c" transform="translate(720.28125 0)"/>
     </g>
    </g>
   </g>
   <g id="matplotlib.axis_8">
    <g id="ytick_18">
     <g id="line2d_42">
      <g>
       <use xlink:href="#m83a2704164" x="68.030469" y="671.021929" style="stroke: #000000; stroke-width: 0.8"/>
      </g>
     </g>
     <g id="text_46">
      <!-- −8 -->
      <g transform="translate(46.288281 674.820757) scale(0.1 -0.1)">
       <use xlink:href="#DejaVuSans-c9c"/>
       <use xlink:href="#DejaVuSans-1b" transform="translate(83.796875 0)"/>
      </g>
     </g>
    </g>
    <g id="ytick_19">
     <g id="line2d_43">
      <g>
       <use xlink:href="#m83a2704164" x="68.030469" y="632.834236" style="stroke: #000000; stroke-width: 0.8"/>
      </g>
     </g>
     <g id="text_47">
      <!-- −6 -->
      <g transform="translate(46.288281 636.633064) scale(0.1 -0.1)">
       <use xlink:href="#DejaVuSans-c9c"/>
       <use xlink:href="#DejaVuSans-19" transform="translate(83.796875 0)"/>
      </g>
     </g>
    </g>
    <g id="ytick_20">
     <g id="line2d_44">
      <g>
       <use xlink:href="#m83a2704164" x="68.030469" y="594.646543" style="stroke: #000000; stroke-width: 0.8"/>
      </g>
     </g>
     <g id="text_48">
      <!-- −4 -->
      <g transform="translate(46.288281 598.445371) scale(0.1 -0.1)">
       <use xlink:href="#DejaVuSans-c9c"/>
       <use xlink:href="#DejaVuSans-17" transform="translate(83.796875 0)"/>
      </g>
     </g>
    </g>
    <g id="ytick_21">
     <g id="line2d_45">
      <g>
       <use xlink:href="#m83a2704164" x="68.030469" y="556.45885" style="stroke: #000000; stroke-width: 0.8"/>
      </g>
     </g>
     <g id="text_49">
      <!-- −2 -->
      <g transform="translate(46.288281 560.257678) scale(0.1 -0.1)">
       <use xlink:href="#DejaVuSans-c9c"/>
       <use xlink:href="#DejaVuSans-15" transform="translate(83.796875 0)"/>
      </g>
     </g>
    </g>
    <g id="ytick_22">
     <g id="line2d_46">
      <g>
       <use xlink:href="#m83a2704164" x="68.030469" y="518.271157" style="stroke: #000000; stroke-width: 0.8"/>
      </g>
     </g>
     <g id="text_50">
      <!-- 0 -->
      <g transform="translate(54.667969 522.069985) scale(0.1 -0.1)">
       <use xlink:href="#DejaVuSans-13"/>
      </g>
     </g>
    </g>
    <g id="ytick_23">
     <g id="line2d_47">
      <g>
       <use xlink:href="#m83a2704164" x="68.030469" y="480.083464" style="stroke: #000000; stroke-width: 0.8"/>
      </g>
     </g>
     <g id="text_51">
      <!-- 2 -->
      <g transform="translate(54.667969 483.882292) scale(0.1 -0.1)">
       <use xlink:href="#DejaVuSans-15"/>
      </g>
     </g>
    </g>
    <g id="ytick_24">
     <g id="line2d_48">
      <g>
       <use xlink:href="#m83a2704164" x="68.030469" y="441.895771" style="stroke: #000000; stroke-width: 0.8"/>
      </g>
     </g>
     <g id="text_52">
      <!-- 4 -->
      <g transform="translate(54.667969 445.694599) scale(0.1 -0.1)">
       <use xlink:href="#DejaVuSans-17"/>
      </g>
     </g>
    </g>
    <g id="ytick_25">
     <g id="line2d_49">
      <g>
       <use xlink:href="#m83a2704164" x="68.030469" y="403.708078" style="stroke: #000000; stroke-width: 0.8"/>
      </g>
     </g>
     <g id="text_53">
      <!-- 6 -->
      <g transform="translate(54.667969 407.506906) scale(0.1 -0.1)">
       <use xlink:href="#DejaVuSans-19"/>
      </g>
     </g>
    </g>
    <g id="ytick_26">
     <g id="line2d_50">
      <g>
       <use xlink:href="#m83a2704164" x="68.030469" y="365.520385" style="stroke: #000000; stroke-width: 0.8"/>
      </g>
     </g>
     <g id="text_54">
      <!-- 8 -->
      <g transform="translate(54.667969 369.319213) scale(0.1 -0.1)">
       <use xlink:href="#DejaVuSans-1b"/>
      </g>
     </g>
    </g>
    <g id="text_55">
     <!-- VX Velocity (km/s) -->
     <g transform="translate(33.885937 564.028693) rotate(-90) scale(0.1 -0.1)">
      <defs>
       <path id="DejaVuSans-39" d="M 1831 0 
L 50 4666 
L 709 4666 
L 2188 738 
L 3669 4666 
L 4325 4666 
L 2547 0 
L 1831 0 
z
" transform="scale(0.015625)"/>
       <path id="DejaVuSans-4f" d="M 603 4863 
L 1178 4863 
L 1178 0 
L 603 0 
L 603 4863 
z
" transform="scale(0.015625)"/>
       <path id="DejaVuSans-46" d="M 3122 3366 
L 3122 2828 
Q 2878 2963 2633 3030 
Q 2388 3097 2138 3097 
Q 1578 3097 1268 2742 
Q 959 2388 959 1747 
Q 959 1106 1268 751 
Q 1578 397 2138 397 
Q 2388 397 2633 464 
Q 2878 531 3122 666 
L 3122 134 
Q 2881 22 2623 -34 
Q 2366 -91 2075 -91 
Q 1284 -91 818 406 
Q 353 903 353 1747 
Q 353 2603 823 3093 
Q 1294 3584 2113 3584 
Q 2378 3584 2631 3529 
Q 2884 3475 3122 3366 
z
" transform="scale(0.015625)"/>
       <path id="DejaVuSans-5c" d="M 2059 -325 
Q 1816 -950 1584 -1140 
Q 1353 -1331 966 -1331 
L 506 -1331 
L 506 -850 
L 844 -850 
Q 1081 -850 1212 -737 
Q 1344 -625 1503 -206 
L 1606 56 
L 191 3500 
L 800 3500 
L 1894 763 
L 2988 3500 
L 3597 3500 
L 2059 -325 
z
" transform="scale(0.015625)"/>
       <path id="DejaVuSans-12" d="M 1625 4666 
L 2156 4666 
L 531 -594 
L 0 -594 
L 1625 4666 
z
" transform="scale(0.015625)"/>
      </defs>
      <use xlink:href="#DejaVuSans-39"/>
      <use xlink:href="#DejaVuSans-3b" transform="translate(68.40625 0)"/>
      <use xlink:href="#DejaVuSans-3" transform="translate(136.90625 0)"/>
      <use xlink:href="#DejaVuSans-39" transform="translate(168.6875 0)"/>
      <use xlink:href="#DejaVuSans-48" transform="translate(229.328125 0)"/>
      <use xlink:href="#DejaVuSans-4f" transform="translate(290.859375 0)"/>
      <use xlink:href="#DejaVuSans-52" transform="translate(318.640625 0)"/>
      <use xlink:href="#DejaVuSans-46" transform="translate(379.828125 0)"/>
      <use xlink:href="#DejaVuSans-4c" transform="translate(434.8125 0)"/>
      <use xlink:href="#DejaVuSans-57" transform="translate(462.59375 0)"/>
      <use xlink:href="#DejaVuSans-5c" transform="translate(501.796875 0)"/>
      <use xlink:href="#DejaVuSans-3" transform="translate(560.984375 0)"/>
      <use xlink:href="#DejaVuSans-b" transform="translate(592.765625 0)"/>
      <use xlink:href="#DejaVuSans-4e" transform="translate(631.78125 0)"/>
      <use xlink:href="#DejaVuSans-50" transform="translate(689.6875 0)"/>
      <use xlink:href="#DejaVuSans-12" transform="translate(787.09375 0)"/>
      <use xlink:href="#DejaVuSans-56" transform="translate(820.78125 0)"/>
      <use xlink:href="#DejaVuSans-c" transform="translate(872.875 0)"/>
     </g>
    </g>
   </g>
   <g id="line2d_51">
    <path d="M 68.030469 489.663521 
L 71.083783 499.133449 
L 74.137097 508.692526 
L 77.190412 518.296579 
L 80.243726 527.901215 
L 83.29704 537.462034 
L 86.350354 546.934854 
L 89.403669 556.275925 
L 92.456983 565.442142 
L 95.510297 574.391253 
L 98.563612 583.082064 
L 101.616926 591.474627 
L 104.67024 599.530432 
L 107.723554 607.212578 
L 110.776869 614.48594 
L 113.830183 621.317329 
L 116.883497 627.675629 
L 119.936812 633.531934 
L 122.990126 638.859671 
L 126.04344 643.634705 
L 129.096754 647.835444 
L 132.150069 651.44292 
L 135.203383 654.44087 
L 138.256697 656.815797 
L 141.310012 658.557029 
L 144.363326 659.656756 
L 147.41664 660.110066 
L 150.469954 659.914965 
L 153.523269 659.072389 
L 156.576583 657.586197 
L 159.629897 655.463166 
L 162.683212 652.712963 
L 165.736526 649.348105 
L 168.78984 645.383919 
L 171.843154 640.838474 
L 174.896469 635.732509 
L 177.949783 630.089351 
L 181.003097 623.934809 
L 184.056411 617.297064 
L 187.109726 610.206548 
L 190.16304 602.695801 
L 193.216354 594.799325 
L 196.269669 586.553424 
L 199.322983 577.99603 
L 202.376297 569.166525 
L 205.429611 560.10555 
L 208.482926 550.854812 
L 211.53624 541.456877 
L 214.589554 531.954966 
L 217.642869 522.392745 
L 220.696183 512.814112 
L 223.749497 503.262989 
L 226.802811 493.783104 
L 229.856126 484.417794 
L 232.90944 475.209793 
L 235.962754 466.201038 
L 239.016069 457.432478 
L 242.069383 448.943886 
L 245.122697 440.773691 
L 248.176011 432.958802 
L 251.229326 425.534457 
L 254.28264 418.534075 
L 257.335954 411.989116 
L 260.389269 405.928954 
L 263.442583 400.380762 
L 266.495897 395.369405 
L 269.549211 390.91734 
L 272.602526 387.044532 
L 275.65584 383.768372 
L 278.709154 381.103615 
L 281.762469 379.062315 
L 284.815783 377.65378 
L 287.869097 376.884528 
L 290.922411 376.758257 
L 293.975726 377.275826 
L 297.02904 378.435238 
L 300.082354 380.231641 
L 303.135669 382.657338 
L 306.188983 385.701802 
L 309.242297 389.351709 
L 312.295611 393.590982 
L 315.348926 398.40084 
L 318.40224 403.759873 
L 321.455554 409.644113 
L 324.508868 416.027134 
L 327.562183 422.880158 
L 330.615497 430.172171 
L 333.668811 437.87006 
L 336.722126 445.938757 
L 339.77544 454.3414 
L 342.828754 463.039499 
L 345.882068 471.993121 
L 348.935383 481.161078 
L 351.748125 489.75997 
" clip-path="url(#p5650012b3e)" style="fill: none; stroke: #0000ff; stroke-width: 1.5; stroke-linecap: square"/>
   </g>
   <g id="patch_19">
    <path d="M 68.030469 674.277656 
L 68.030469 362.590667 
" style="fill: none; stroke: #000000; stroke-width: 0.8; stroke-linejoin: miter; stroke-linecap: square"/>
   </g>
   <g id="patch_20">
    <path d="M 351.748125 674.277656 
L 351.748125 362.590667 
" style="fill: none; stroke: #000000; stroke-width: 0.8; stroke-linejoin: miter; stroke-linecap: square"/>
   </g>
   <g id="patch_21">
    <path d="M 68.030469 674.277656 
L 351.748125 674.277656 
" style="fill: none; stroke: #000000; stroke-width: 0.8; stroke-linejoin: miter; stroke-linecap: square"/>
   </g>
   <g id="patch_22">
    <path d="M 68.030469 362.590667 
L 351.748125 362.590667 
" style="fill: none; stroke: #000000; stroke-width: 0.8; stroke-linejoin: miter; stroke-linecap: square"/>
   </g>
  </g>
  <g id="axes_5">
   <g id="patch_23">
    <path d="M 424.430469 674.277656 
L 708.148125 674.277656 
L 708.148125 362.590667 
L 424.430469 362.590667 
z
" style="fill: #ffffff"/>
   </g>
   <g id="matplotlib.axis_9">
    <g id="xtick_21">
     <g id="line2d_52">
      <g>
       <use xlink:href="#m2afe765498" x="424.430469" y="674.277656" style="stroke: #000000; stroke-width: 0.8"/>
      </g>
     </g>
     <g id="text_56">
      <!-- 0 -->
      <g transform="translate(421.249219 688.875312) scale(0.1 -0.1)">
       <use xlink:href="#DejaVuSans-13"/>
      </g>
     </g>
    </g>
    <g id="xtick_22">
     <g id="line2d_53">
      <g>
       <use xlink:href="#m2afe765498" x="485.496754" y="674.277656" style="stroke: #000000; stroke-width: 0.8"/>
      </g>
     </g>
     <g id="text_57">
      <!-- 20 -->
      <g transform="translate(479.134254 688.875312) scale(0.1 -0.1)">
       <use xlink:href="#DejaVuSans-15"/>
       <use xlink:href="#DejaVuSans-13" transform="translate(63.625 0)"/>
      </g>
     </g>
    </g>
    <g id="xtick_23">
     <g id="line2d_54">
      <g>
       <use xlink:href="#m2afe765498" x="546.56304" y="674.277656" style="stroke: #000000; stroke-width: 0.8"/>
      </g>
     </g>
     <g id="text_58">
      <!-- 40 -->
      <g transform="translate(540.20054 688.875312) scale(0.1 -0.1)">
       <use xlink:href="#DejaVuSans-17"/>
       <use xlink:href="#DejaVuSans-13" transform="translate(63.625 0)"/>
      </g>
     </g>
    </g>
    <g id="xtick_24">
     <g id="line2d_55">
      <g>
       <use xlink:href="#m2afe765498" x="607.629326" y="674.277656" style="stroke: #000000; stroke-width: 0.8"/>
      </g>
     </g>
     <g id="text_59">
      <!-- 60 -->
      <g transform="translate(601.266826 688.875312) scale(0.1 -0.1)">
       <use xlink:href="#DejaVuSans-19"/>
       <use xlink:href="#DejaVuSans-13" transform="translate(63.625 0)"/>
      </g>
     </g>
    </g>
    <g id="xtick_25">
     <g id="line2d_56">
      <g>
       <use xlink:href="#m2afe765498" x="668.695611" y="674.277656" style="stroke: #000000; stroke-width: 0.8"/>
      </g>
     </g>
     <g id="text_60">
      <!-- 80 -->
      <g transform="translate(662.333111 688.875312) scale(0.1 -0.1)">
       <use xlink:href="#DejaVuSans-1b"/>
       <use xlink:href="#DejaVuSans-13" transform="translate(63.625 0)"/>
      </g>
     </g>
    </g>
    <g id="text_61">
     <!-- Time (minutes) -->
     <g transform="translate(528.324453 702.876094) scale(0.1 -0.1)">
      <use xlink:href="#DejaVuSans-37"/>
      <use xlink:href="#DejaVuSans-4c" transform="translate(58 0)"/>
      <use xlink:href="#DejaVuSans-50" transform="translate(85.78125 0)"/>
      <use xlink:href="#DejaVuSans-48" transform="translate(183.1875 0)"/>
      <use xlink:href="#DejaVuSans-3" transform="translate(244.71875 0)"/>
      <use xlink:href="#DejaVuSans-b" transform="translate(276.5 0)"/>
      <use xlink:href="#DejaVuSans-50" transform="translate(315.515625 0)"/>
      <use xlink:href="#DejaVuSans-4c" transform="translate(412.921875 0)"/>
      <use xlink:href="#DejaVuSans-51" transform="translate(440.703125 0)"/>
      <use xlink:href="#DejaVuSans-58" transform="translate(504.078125 0)"/>
      <use xlink:href="#DejaVuSans-57" transform="translate(567.453125 0)"/>
      <use xlink:href="#DejaVuSans-48" transform="translate(606.65625 0)"/>
      <use xlink:href="#DejaVuSans-56" transform="translate(668.1875 0)"/>
      <use xlink:href="#DejaVuSans-c" transform="translate(720.28125 0)"/>
     </g>
    </g>
   </g>
   <g id="matplotlib.axis_10">
    <g id="ytick_27">
     <g id="line2d_57">
      <g>
       <use xlink:href="#m83a2704164" x="424.430469" y="629.281541" style="stroke: #000000; stroke-width: 0.8"/>
      </g>
     </g>
     <g id="text_62">
      <!-- −4 -->
      <g transform="translate(402.688281 633.080369) scale(0.1 -0.1)">
       <use xlink:href="#DejaVuSans-c9c"/>
       <use xlink:href="#DejaVuSans-17" transform="translate(83.796875 0)"/>
      </g>
     </g>
    </g>
    <g id="ytick_28">
     <g id="line2d_58">
      <g>
       <use xlink:href="#m83a2704164" x="424.430469" y="573.884286" style="stroke: #000000; stroke-width: 0.8"/>
      </g>
     </g>
     <g id="text_63">
      <!-- −2 -->
      <g transform="translate(402.688281 577.683114) scale(0.1 -0.1)">
       <use xlink:href="#DejaVuSans-c9c"/>
       <use xlink:href="#DejaVuSans-15" transform="translate(83.796875 0)"/>
      </g>
     </g>
    </g>
    <g id="ytick_29">
     <g id="line2d_59">
      <g>
       <use xlink:href="#m83a2704164" x="424.430469" y="518.487031" style="stroke: #000000; stroke-width: 0.8"/>
      </g>
     </g>
     <g id="text_64">
      <!-- 0 -->
      <g transform="translate(411.067969 522.285859) scale(0.1 -0.1)">
       <use xlink:href="#DejaVuSans-13"/>
      </g>
     </g>
    </g>
    <g id="ytick_30">
     <g id="line2d_60">
      <g>
       <use xlink:href="#m83a2704164" x="424.430469" y="463.089777" style="stroke: #000000; stroke-width: 0.8"/>
      </g>
     </g>
     <g id="text_65">
      <!-- 2 -->
      <g transform="translate(411.067969 466.888605) scale(0.1 -0.1)">
       <use xlink:href="#DejaVuSans-15"/>
      </g>
     </g>
    </g>
    <g id="ytick_31">
     <g id="line2d_61">
      <g>
       <use xlink:href="#m83a2704164" x="424.430469" y="407.692522" style="stroke: #000000; stroke-width: 0.8"/>
      </g>
     </g>
     <g id="text_66">
      <!-- 4 -->
      <g transform="translate(411.067969 411.49135) scale(0.1 -0.1)">
       <use xlink:href="#DejaVuSans-17"/>
      </g>
     </g>
    </g>
    <g id="text_67">
     <!-- VY Velocity (km/s) -->
     <g transform="translate(390.285937 563.657599) rotate(-90) scale(0.1 -0.1)">
      <use xlink:href="#DejaVuSans-39"/>
      <use xlink:href="#DejaVuSans-3c" transform="translate(68.40625 0)"/>
      <use xlink:href="#DejaVuSans-3" transform="translate(129.484375 0)"/>
      <use xlink:href="#DejaVuSans-39" transform="translate(161.265625 0)"/>
      <use xlink:href="#DejaVuSans-48" transform="translate(221.90625 0)"/>
      <use xlink:href="#DejaVuSans-4f" transform="translate(283.4375 0)"/>
      <use xlink:href="#DejaVuSans-52" transform="translate(311.21875 0)"/>
      <use xlink:href="#DejaVuSans-46" transform="translate(372.40625 0)"/>
      <use xlink:href="#DejaVuSans-4c" transform="translate(427.390625 0)"/>
      <use xlink:href="#DejaVuSans-57" transform="translate(455.171875 0)"/>
      <use xlink:href="#DejaVuSans-5c" transform="translate(494.375 0)"/>
      <use xlink:href="#DejaVuSans-3" transform="translate(553.5625 0)"/>
      <use xlink:href="#DejaVuSans-b" transform="translate(585.34375 0)"/>
      <use xlink:href="#DejaVuSans-4e" transform="translate(624.359375 0)"/>
      <use xlink:href="#DejaVuSans-50" transform="translate(682.265625 0)"/>
      <use xlink:href="#DejaVuSans-12" transform="translate(779.671875 0)"/>
      <use xlink:href="#DejaVuSans-56" transform="translate(813.359375 0)"/>
      <use xlink:href="#DejaVuSans-c" transform="translate(865.453125 0)"/>
     </g>
    </g>
   </g>
   <g id="line2d_62">
    <path d="M 424.430469 393.329407 
L 427.483783 389.115115 
L 430.537097 385.493146 
L 433.590412 382.480401 
L 436.643726 380.090922 
L 439.69704 378.33582 
L 442.750354 377.223228 
L 445.803669 376.758257 
L 448.856983 376.942987 
L 451.910297 377.776456 
L 454.963612 379.254679 
L 458.016926 381.370675 
L 461.07024 384.114513 
L 464.123554 387.473368 
L 467.176869 391.431598 
L 470.230183 395.970822 
L 473.283497 401.070024 
L 476.336812 406.70565 
L 479.390126 412.851735 
L 482.44344 419.48002 
L 485.496754 426.560091 
L 488.550069 434.059519 
L 491.603383 441.944004 
L 494.656697 450.177534 
L 497.710012 458.72254 
L 500.763326 467.540066 
L 503.81664 476.589933 
L 506.869954 485.83092 
L 509.923269 495.220935 
L 512.976583 504.717205 
L 516.029897 514.276458 
L 519.083212 523.855114 
L 522.136526 533.409476 
L 525.18984 542.895926 
L 528.243154 552.271122 
L 531.296469 561.492194 
L 534.349783 570.516941 
L 537.403097 579.304028 
L 540.456411 587.813178 
L 543.509726 596.00537 
L 546.56304 603.843017 
L 549.616354 611.290157 
L 552.669669 618.312621 
L 555.722983 624.878199 
L 558.776297 630.956806 
L 561.829611 636.520617 
L 564.882926 641.54421 
L 567.93624 646.004686 
L 570.989554 649.881776 
L 574.042869 653.157935 
L 577.096183 655.818422 
L 580.149497 657.851363 
L 583.202811 659.247799 
L 586.256126 660.001717 
L 589.30944 660.110066 
L 592.362754 659.57276 
L 595.416069 658.392663 
L 598.469383 656.575561 
L 601.522697 654.13012 
L 604.576011 651.067831 
L 607.629326 647.402946 
L 610.68264 643.152399 
L 613.735954 638.335716 
L 616.789269 632.974922 
L 619.842583 627.094431 
L 622.895897 620.720938 
L 625.949211 613.883291 
L 629.002526 606.612371 
L 632.05584 598.940953 
L 635.109154 590.90357 
L 638.162469 582.536367 
L 641.215783 573.876955 
L 644.269097 564.96425 
L 647.322411 555.83832 
L 650.375726 546.540217 
L 653.42904 537.111812 
L 656.482354 527.595616 
L 659.535669 518.034608 
L 662.588983 508.472051 
L 665.642297 498.951307 
L 668.695611 489.515646 
L 671.748926 480.208058 
L 674.80224 471.071056 
L 677.855554 462.146481 
L 680.908868 453.475308 
L 683.962183 445.097449 
L 687.015497 437.051562 
L 690.068811 429.374859 
L 693.122126 422.102921 
L 696.17544 415.269519 
L 699.228754 408.90644 
L 702.282068 403.043326 
L 705.335383 397.707521 
L 708.148125 393.280253 
" clip-path="url(#p0455c7f403)" style="fill: none; stroke: #0000ff; stroke-width: 1.5; stroke-linecap: square"/>
   </g>
   <g id="patch_24">
    <path d="M 424.430469 674.277656 
L 424.430469 362.590667 
" style="fill: none; stroke: #000000; stroke-width: 0.8; stroke-linejoin: miter; stroke-linecap: square"/>
   </g>
   <g id="patch_25">
    <path d="M 708.148125 674.277656 
L 708.148125 362.590667 
" style="fill: none; stroke: #000000; stroke-width: 0.8; stroke-linejoin: miter; stroke-linecap: square"/>
   </g>
   <g id="patch_26">
    <path d="M 424.430469 674.277656 
L 708.148125 674.277656 
" style="fill: none; stroke: #000000; stroke-width: 0.8; stroke-linejoin: miter; stroke-linecap: square"/>
   </g>
   <g id="patch_27">
    <path d="M 424.430469 362.590667 
L 708.148125 362.590667 
" style="fill: none; stroke: #000000; stroke-width: 0.8; stroke-linejoin: miter; stroke-linecap: square"/>
   </g>
  </g>
  <g id="axes_6">
   <g id="patch_28">
    <path d="M 780.830469 674.277656 
L 1064.548125 674.277656 
L 1064.548125 362.590667 
L 780.830469 362.590667 
z
" style="fill: #ffffff"/>
   </g>
   <g id="matplotlib.axis_11">
    <g id="xtick_26">
     <g id="line2d_63">
      <g>
       <use xlink:href="#m2afe765498" x="780.830469" y="674.277656" style="stroke: #000000; stroke-width: 0.8"/>
      </g>
     </g>
     <g id="text_68">
      <!-- 0 -->
      <g transform="translate(777.649219 688.875312) scale(0.1 -0.1)">
       <use xlink:href="#DejaVuSans-13"/>
      </g>
     </g>
    </g>
    <g id="xtick_27">
     <g id="line2d_64">
      <g>
       <use xlink:href="#m2afe765498" x="841.896754" y="674.277656" style="stroke: #000000; stroke-width: 0.8"/>
      </g>
     </g>
     <g id="text_69">
      <!-- 20 -->
      <g transform="translate(835.534254 688.875312) scale(0.1 -0.1)">
       <use xlink:href="#DejaVuSans-15"/>
       <use xlink:href="#DejaVuSans-13" transform="translate(63.625 0)"/>
      </g>
     </g>
    </g>
    <g id="xtick_28">
     <g id="line2d_65">
      <g>
       <use xlink:href="#m2afe765498" x="902.96304" y="674.277656" style="stroke: #000000; stroke-width: 0.8"/>
      </g>
     </g>
     <g id="text_70">
      <!-- 40 -->
      <g transform="translate(896.60054 688.875312) scale(0.1 -0.1)">
       <use xlink:href="#DejaVuSans-17"/>
       <use xlink:href="#DejaVuSans-13" transform="translate(63.625 0)"/>
      </g>
     </g>
    </g>
    <g id="xtick_29">
     <g id="line2d_66">
      <g>
       <use xlink:href="#m2afe765498" x="964.029326" y="674.277656" style="stroke: #000000; stroke-width: 0.8"/>
      </g>
     </g>
     <g id="text_71">
      <!-- 60 -->
      <g transform="translate(957.666826 688.875312) scale(0.1 -0.1)">
       <use xlink:href="#DejaVuSans-19"/>
       <use xlink:href="#DejaVuSans-13" transform="translate(63.625 0)"/>
      </g>
     </g>
    </g>
    <g id="xtick_30">
     <g id="line2d_67">
      <g>
       <use xlink:href="#m2afe765498" x="1025.095611" y="674.277656" style="stroke: #000000; stroke-width: 0.8"/>
      </g>
     </g>
     <g id="text_72">
      <!-- 80 -->
      <g transform="translate(1018.733111 688.875312) scale(0.1 -0.1)">
       <use xlink:href="#DejaVuSans-1b"/>
       <use xlink:href="#DejaVuSans-13" transform="translate(63.625 0)"/>
      </g>
     </g>
    </g>
    <g id="text_73">
     <!-- Time (minutes) -->
     <g transform="translate(884.724453 702.876094) scale(0.1 -0.1)">
      <use xlink:href="#DejaVuSans-37"/>
      <use xlink:href="#DejaVuSans-4c" transform="translate(58 0)"/>
      <use xlink:href="#DejaVuSans-50" transform="translate(85.78125 0)"/>
      <use xlink:href="#DejaVuSans-48" transform="translate(183.1875 0)"/>
      <use xlink:href="#DejaVuSans-3" transform="translate(244.71875 0)"/>
      <use xlink:href="#DejaVuSans-b" transform="translate(276.5 0)"/>
      <use xlink:href="#DejaVuSans-50" transform="translate(315.515625 0)"/>
      <use xlink:href="#DejaVuSans-4c" transform="translate(412.921875 0)"/>
      <use xlink:href="#DejaVuSans-51" transform="translate(440.703125 0)"/>
      <use xlink:href="#DejaVuSans-58" transform="translate(504.078125 0)"/>
      <use xlink:href="#DejaVuSans-57" transform="translate(567.453125 0)"/>
      <use xlink:href="#DejaVuSans-48" transform="translate(606.65625 0)"/>
      <use xlink:href="#DejaVuSans-56" transform="translate(668.1875 0)"/>
      <use xlink:href="#DejaVuSans-c" transform="translate(720.28125 0)"/>
     </g>
    </g>
   </g>
   <g id="matplotlib.axis_12">
    <g id="ytick_32">
     <g id="line2d_68">
      <g>
       <use xlink:href="#m83a2704164" x="780.830469" y="660.123816" style="stroke: #000000; stroke-width: 0.8"/>
      </g>
     </g>
     <g id="text_74">
      <!-- −6 -->
      <g transform="translate(759.088281 663.922644) scale(0.1 -0.1)">
       <use xlink:href="#DejaVuSans-c9c"/>
       <use xlink:href="#DejaVuSans-19" transform="translate(83.796875 0)"/>
      </g>
     </g>
    </g>
    <g id="ytick_33">
     <g id="line2d_69">
      <g>
       <use xlink:href="#m83a2704164" x="780.830469" y="612.926752" style="stroke: #000000; stroke-width: 0.8"/>
      </g>
     </g>
     <g id="text_75">
      <!-- −4 -->
      <g transform="translate(759.088281 616.72558) scale(0.1 -0.1)">
       <use xlink:href="#DejaVuSans-c9c"/>
       <use xlink:href="#DejaVuSans-17" transform="translate(83.796875 0)"/>
      </g>
     </g>
    </g>
    <g id="ytick_34">
     <g id="line2d_70">
      <g>
       <use xlink:href="#m83a2704164" x="780.830469" y="565.729688" style="stroke: #000000; stroke-width: 0.8"/>
      </g>
     </g>
     <g id="text_76">
      <!-- −2 -->
      <g transform="translate(759.088281 569.528516) scale(0.1 -0.1)">
       <use xlink:href="#DejaVuSans-c9c"/>
       <use xlink:href="#DejaVuSans-15" transform="translate(83.796875 0)"/>
      </g>
     </g>
    </g>
    <g id="ytick_35">
     <g id="line2d_71">
      <g>
       <use xlink:href="#m83a2704164" x="780.830469" y="518.532624" style="stroke: #000000; stroke-width: 0.8"/>
      </g>
     </g>
     <g id="text_77">
      <!-- 0 -->
      <g transform="translate(767.467969 522.331452) scale(0.1 -0.1)">
       <use xlink:href="#DejaVuSans-13"/>
      </g>
     </g>
    </g>
    <g id="ytick_36">
     <g id="line2d_72">
      <g>
       <use xlink:href="#m83a2704164" x="780.830469" y="471.33556" style="stroke: #000000; stroke-width: 0.8"/>
      </g>
     </g>
     <g id="text_78">
      <!-- 2 -->
      <g transform="translate(767.467969 475.134388) scale(0.1 -0.1)">
       <use xlink:href="#DejaVuSans-15"/>
      </g>
     </g>
    </g>
    <g id="ytick_37">
     <g id="line2d_73">
      <g>
       <use xlink:href="#m83a2704164" x="780.830469" y="424.138496" style="stroke: #000000; stroke-width: 0.8"/>
      </g>
     </g>
     <g id="text_79">
      <!-- 4 -->
      <g transform="translate(767.467969 427.937324) scale(0.1 -0.1)">
       <use xlink:href="#DejaVuSans-17"/>
      </g>
     </g>
    </g>
    <g id="ytick_38">
     <g id="line2d_74">
      <g>
       <use xlink:href="#m83a2704164" x="780.830469" y="376.941432" style="stroke: #000000; stroke-width: 0.8"/>
      </g>
     </g>
     <g id="text_80">
      <!-- 6 -->
      <g transform="translate(767.467969 380.74026) scale(0.1 -0.1)">
       <use xlink:href="#DejaVuSans-19"/>
      </g>
     </g>
    </g>
    <g id="text_81">
     <!-- VZ Velocity (km/s) -->
     <g transform="translate(746.685938 564.028693) rotate(-90) scale(0.1 -0.1)">
      <use xlink:href="#DejaVuSans-39"/>
      <use xlink:href="#DejaVuSans-3d" transform="translate(68.40625 0)"/>
      <use xlink:href="#DejaVuSans-3" transform="translate(136.90625 0)"/>
      <use xlink:href="#DejaVuSans-39" transform="translate(168.6875 0)"/>
      <use xlink:href="#DejaVuSans-48" transform="translate(229.328125 0)"/>
      <use xlink:href="#DejaVuSans-4f" transform="translate(290.859375 0)"/>
      <use xlink:href="#DejaVuSans-52" transform="translate(318.640625 0)"/>
      <use xlink:href="#DejaVuSans-46" transform="translate(379.828125 0)"/>
      <use xlink:href="#DejaVuSans-4c" transform="translate(434.8125 0)"/>
      <use xlink:href="#DejaVuSans-57" transform="translate(462.59375 0)"/>
      <use xlink:href="#DejaVuSans-5c" transform="translate(501.796875 0)"/>
      <use xlink:href="#DejaVuSans-3" transform="translate(560.984375 0)"/>
      <use xlink:href="#DejaVuSans-b" transform="translate(592.765625 0)"/>
      <use xlink:href="#DejaVuSans-4e" transform="translate(631.78125 0)"/>
      <use xlink:href="#DejaVuSans-50" transform="translate(689.6875 0)"/>
      <use xlink:href="#DejaVuSans-12" transform="translate(787.09375 0)"/>
      <use xlink:href="#DejaVuSans-56" transform="translate(820.78125 0)"/>
      <use xlink:href="#DejaVuSans-c" transform="translate(872.875 0)"/>
     </g>
    </g>
   </g>
   <g id="line2d_75">
    <path d="M 780.830469 376.758257 
L 783.883783 377.054984 
L 786.937097 378.002053 
L 789.990412 379.595246 
L 793.043726 381.827293 
L 796.09704 384.687916 
L 799.150354 388.16388 
L 802.203669 392.239058 
L 805.256983 396.894524 
L 808.310297 402.108646 
L 811.363612 407.857201 
L 814.416926 414.1135 
L 817.47024 420.848525 
L 820.523554 428.031078 
L 823.576869 435.62793 
L 826.630183 443.603991 
L 829.683497 451.922476 
L 832.736812 460.545081 
L 835.790126 469.432161 
L 838.84344 478.542918 
L 841.896754 487.83558 
L 844.950069 497.267595 
L 848.003383 506.795815 
L 851.056697 516.376692 
L 854.110012 525.966463 
L 857.163326 535.521346 
L 860.21664 544.997725 
L 863.269954 554.352347 
L 866.323269 563.542501 
L 869.376583 572.526217 
L 872.429897 581.262441 
L 875.483212 589.711225 
L 878.536526 597.833903 
L 881.58984 605.593269 
L 884.643154 612.95375 
L 887.696469 619.881569 
L 890.749783 626.344911 
L 893.803097 632.314068 
L 896.856411 637.761592 
L 899.909726 642.662424 
L 902.96304 646.994021 
L 906.016354 650.736471 
L 909.069669 653.872589 
L 912.122983 656.388009 
L 915.176297 658.271252 
L 918.229611 659.513785 
L 921.282926 660.110066 
L 924.33624 660.057564 
L 927.389554 659.356772 
L 930.442869 658.011198 
L 933.496183 656.027346 
L 936.549497 653.414668 
L 939.602811 650.185517 
L 942.656126 646.355077 
L 945.70944 641.941275 
L 948.762754 636.964686 
L 951.816069 631.448427 
L 954.869383 625.418036 
L 957.922697 618.901339 
L 960.976011 611.928316 
L 964.029326 604.530954 
L 967.08264 596.743093 
L 970.135954 588.600268 
L 973.189269 580.139547 
L 976.242583 571.399365 
L 979.295897 562.419352 
L 982.349211 553.240162 
L 985.402526 543.9033 
L 988.45584 534.450944 
L 991.509154 524.925772 
L 994.562469 515.370779 
L 997.615783 505.829104 
L 1000.669097 496.343846 
L 1003.722411 486.95789 
L 1006.775726 477.713724 
L 1009.82904 468.65326 
L 1012.882354 459.817655 
L 1015.935669 451.247135 
L 1018.988983 442.980815 
L 1022.042297 435.056525 
L 1025.095611 427.510635 
L 1028.148926 420.377888 
L 1031.20224 413.69123 
L 1034.255554 407.481654 
L 1037.308868 401.778041 
L 1040.362183 396.607017 
L 1043.415497 391.992808 
L 1046.468811 387.957118 
L 1049.522126 384.519007 
L 1052.57544 381.694786 
L 1055.628754 379.497927 
L 1058.682068 377.93898 
L 1061.735383 377.025518 
L 1064.548125 376.759195 
" clip-path="url(#p5365107dc0)" style="fill: none; stroke: #0000ff; stroke-width: 1.5; stroke-linecap: square"/>
   </g>
   <g id="patch_29">
    <path d="M 780.830469 674.277656 
L 780.830469 362.590667 
" style="fill: none; stroke: #000000; stroke-width: 0.8; stroke-linejoin: miter; stroke-linecap: square"/>
   </g>
   <g id="patch_30">
    <path d="M 1064.548125 674.277656 
L 1064.548125 362.590667 
" style="fill: none; stroke: #000000; stroke-width: 0.8; stroke-linejoin: miter; stroke-linecap: square"/>
   </g>
   <g id="patch_31">
    <path d="M 780.830469 674.277656 
L 1064.548125 674.277656 
" style="fill: none; stroke: #000000; stroke-width: 0.8; stroke-linejoin: miter; stroke-linecap: square"/>
   </g>
   <g id="patch_32">
    <path d="M 780.830469 362.590667 
L 1064.548125 362.590667 
" style="fill: none; stroke: #000000; stroke-width: 0.8; stroke-linejoin: miter; stroke-linecap: square"/>
   </g>
  </g>
 </g>
 <defs>
  <clipPath id="pb7d079e68c">
   <rect x="68.030469" y="7.2" width="283.717656" height="311.686989"/>
  </clipPath>
  <clipPath id="p1e1d30099b">
   <rect x="424.430469" y="7.2" width="283.717656" height="311.686989"/>
  </clipPath>
  <clipPath id="pfc2386125a">
   <rect x="780.830469" y="7.2" width="283.717656" height="311.686989"/>
  </clipPath>
  <clipPath id="p5650012b3e">
   <rect x="68.030469" y="362.590667" width="283.717656" height="311.686989"/>
  </clipPath>
  <clipPath id="p0455c7f403">
   <rect x="424.430469" y="362.590667" width="283.717656" height="311.686989"/>
  </clipPath>
  <clipPath id="p5365107dc0">
   <rect x="780.830469" y="362.590667" width="283.717656" height="311.686989"/>
  </clipPath>
 </defs>
</svg>
