<?xml version="1.0" encoding="utf-8" standalone="no"?>
<!DOCTYPE svg PUBLIC "-//W3C//DTD SVG 1.1//EN"
  "http://www.w3.org/Graphics/SVG/1.1/DTD/svg11.dtd">
<svg xmlns:xlink="http://www.w3.org/1999/xlink" width="592.7pt" height="380.545pt" viewBox="0 0 592.7 380.545" xmlns="http://www.w3.org/2000/svg" version="1.1">
 <metadata>
  <rdf:RDF xmlns:dc="http://purl.org/dc/elements/1.1/" xmlns:cc="http://creativecommons.org/ns#" xmlns:rdf="http://www.w3.org/1999/02/22-rdf-syntax-ns#">
   <cc:Work>
    <dc:type rdf:resource="http://purl.org/dc/dcmitype/StillImage"/>
    <dc:date>2025-11-20T15:08:43.222184</dc:date>
    <dc:format>image/svg+xml</dc:format>
    <dc:creator>
     <cc:Agent>
      <dc:title>Matplotlib v3.10.6, https://matplotlib.org/</dc:title>
     </cc:Agent>
    </dc:creator>
   </cc:Work>
  </rdf:RDF>
 </metadata>
 <defs>
  <style type="text/css">*{stroke-linejoin: round; stroke-linecap: butt}</style>
 </defs>
 <g id="figure_1">
  <g id="patch_1">
   <path d="M 0 380.545 
L 592.7 380.545 
L 592.7 0 
L 0 0 
z
" style="fill: #ffffff"/>
  </g>
  <g id="axes_1">
   <g id="patch_2">
    <path d="M 31.1 350.566875 
L 589.1 350.566875 
L 589.1 17.926875 
L 31.1 17.926875 
z
" style="fill: #ffffff"/>
   </g>
   <g id="FillBetweenPolyCollection_1">
    <defs>
     <path id="maeb9f8b77b" d="M 31.1 -85.418125 
L 31.1 -29.978125 
L 32.65 -29.978125 
L 34.2 -29.978125 
L 35.75 -29.978125 
L 37.3 -29.978125 
L 38.85 -29.978125 
L 40.4 -29.978125 
L 41.95 -29.978125 
L 43.5 -29.978125 
L 45.05 -29.978125 
L 46.6 -29.978125 
L 48.15 -29.978125 
L 49.7 -29.978125 
L 51.25 -29.978125 
L 52.8 -29.978125 
L 54.35 -29.978125 
L 55.9 -29.978125 
L 57.45 -29.978125 
L 59 -29.978125 
L 60.55 -29.978125 
L 62.1 -29.978125 
L 63.65 -29.978125 
L 65.2 -29.978125 
L 66.75 -29.978125 
L 68.3 -29.978125 
L 69.85 -29.978125 
L 71.4 -29.978125 
L 72.95 -29.978125 
L 74.5 -29.978125 
L 76.05 -29.978125 
L 77.6 -29.978125 
L 79.15 -29.978125 
L 80.7 -29.978125 
L 82.25 -29.978125 
L 83.8 -29.978125 
L 85.35 -29.978125 
L 86.9 -29.978125 
L 88.45 -29.978125 
L 90 -29.978125 
L 91.55 -29.978125 
L 93.1 -29.978125 
L 94.65 -29.978125 
L 96.2 -29.978125 
L 97.75 -29.978125 
L 99.3 -29.978125 
L 100.85 -29.978125 
L 102.4 -29.978125 
L 103.95 -29.978125 
L 105.5 -29.978125 
L 107.05 -29.978125 
L 108.6 -29.978125 
L 110.15 -29.978125 
L 111.7 -29.978125 
L 113.25 -29.978125 
L 114.8 -29.978125 
L 116.35 -29.978125 
L 117.9 -29.978125 
L 119.45 -29.978125 
L 121 -29.978125 
L 122.55 -29.978125 
L 124.1 -29.978125 
L 125.65 -29.978125 
L 127.2 -29.978125 
L 128.75 -29.978125 
L 130.3 -29.978125 
L 131.85 -29.978125 
L 133.4 -29.978125 
L 134.95 -29.978125 
L 136.5 -29.978125 
L 138.05 -29.978125 
L 139.6 -29.978125 
L 141.15 -29.978125 
L 142.7 -29.978125 
L 144.25 -29.978125 
L 145.8 -29.978125 
L 147.35 -29.978125 
L 148.9 -29.978125 
L 150.45 -29.978125 
L 152 -29.978125 
L 153.55 -29.978125 
L 155.1 -29.978125 
L 156.65 -29.978125 
L 158.2 -29.978125 
L 159.75 -29.978125 
L 161.3 -29.978125 
L 162.85 -29.978125 
L 164.4 -29.978125 
L 165.95 -29.978125 
L 167.5 -29.978125 
L 169.05 -29.978125 
L 170.6 -29.978125 
L 172.15 -29.978125 
L 173.7 -29.978125 
L 175.25 -29.978125 
L 176.8 -29.978125 
L 178.35 -29.978125 
L 179.9 -29.978125 
L 181.45 -29.978125 
L 183 -29.978125 
L 184.55 -29.978125 
L 186.1 -29.978125 
L 187.65 -29.978125 
L 189.2 -29.978125 
L 190.75 -29.978125 
L 192.3 -29.978125 
L 193.85 -29.978125 
L 195.4 -29.978125 
L 196.95 -29.978125 
L 198.5 -29.978125 
L 200.05 -29.978125 
L 201.6 -29.978125 
L 203.15 -29.978125 
L 204.7 -29.978125 
L 206.25 -29.978125 
L 207.8 -29.978125 
L 209.35 -29.978125 
L 210.9 -29.978125 
L 212.45 -29.978125 
L 214 -29.978125 
L 215.55 -29.978125 
L 217.1 -29.978125 
L 218.65 -29.978125 
L 220.2 -29.978125 
L 221.75 -29.978125 
L 223.3 -29.978125 
L 224.85 -29.978125 
L 226.4 -29.978125 
L 227.95 -29.978125 
L 229.5 -29.978125 
L 231.05 -29.978125 
L 232.6 -29.978125 
L 234.15 -29.978125 
L 235.7 -29.978125 
L 237.25 -29.978125 
L 238.8 -29.978125 
L 240.35 -29.978125 
L 241.9 -29.978125 
L 243.45 -29.978125 
L 245 -29.978125 
L 246.55 -29.978125 
L 248.1 -29.978125 
L 249.65 -29.978125 
L 251.2 -29.978125 
L 252.75 -29.978125 
L 254.3 -29.978125 
L 255.85 -29.978125 
L 257.4 -29.978125 
L 258.95 -29.978125 
L 260.5 -29.978125 
L 262.05 -29.978125 
L 263.6 -29.978125 
L 265.15 -29.978125 
L 266.7 -29.978125 
L 268.25 -29.978125 
L 269.8 -29.978125 
L 271.35 -29.978125 
L 272.9 -29.978125 
L 274.45 -29.978125 
L 276 -29.978125 
L 277.55 -29.978125 
L 279.1 -29.978125 
L 280.65 -29.978125 
L 282.2 -29.978125 
L 283.75 -29.978125 
L 285.3 -29.978125 
L 286.85 -29.978125 
L 288.4 -29.978125 
L 289.95 -29.978125 
L 291.5 -29.978125 
L 293.05 -29.978125 
L 294.6 -29.978125 
L 296.15 -29.978125 
L 297.7 -29.978125 
L 299.25 -29.978125 
L 300.8 -29.978125 
L 302.35 -29.978125 
L 303.9 -29.978125 
L 305.45 -29.978125 
L 307 -29.978125 
L 308.55 -29.978125 
L 310.1 -29.978125 
L 311.65 -29.978125 
L 313.2 -29.978125 
L 314.75 -29.978125 
L 316.3 -29.978125 
L 317.85 -29.978125 
L 319.4 -29.978125 
L 320.95 -29.978125 
L 322.5 -29.978125 
L 324.05 -29.978125 
L 325.6 -29.978125 
L 327.15 -29.978125 
L 328.7 -29.978125 
L 330.25 -29.978125 
L 331.8 -29.978125 
L 333.35 -29.978125 
L 334.9 -29.978125 
L 336.45 -29.978125 
L 338 -29.978125 
L 339.55 -29.978125 
L 341.1 -29.978125 
L 342.65 -29.978125 
L 344.2 -29.978125 
L 345.75 -29.978125 
L 347.3 -29.978125 
L 348.85 -29.978125 
L 350.4 -29.978125 
L 351.95 -29.978125 
L 353.5 -29.978125 
L 355.05 -29.978125 
L 356.6 -29.978125 
L 358.15 -29.978125 
L 359.7 -29.978125 
L 361.25 -29.978125 
L 362.8 -29.978125 
L 364.35 -29.978125 
L 365.9 -29.978125 
L 367.45 -29.978125 
L 369 -29.978125 
L 370.55 -29.978125 
L 372.1 -29.978125 
L 373.65 -29.978125 
L 375.2 -29.978125 
L 376.75 -29.978125 
L 378.3 -29.978125 
L 379.85 -29.978125 
L 381.4 -29.978125 
L 382.95 -29.978125 
L 384.5 -29.978125 
L 386.05 -29.978125 
L 387.6 -29.978125 
L 389.15 -29.978125 
L 390.7 -29.978125 
L 392.25 -29.978125 
L 393.8 -29.978125 
L 395.35 -29.978125 
L 396.9 -29.978125 
L 398.45 -29.978125 
L 400 -29.978125 
L 401.55 -29.978125 
L 403.1 -29.978125 
L 404.65 -29.978125 
L 406.2 -29.978125 
L 407.75 -29.978125 
L 409.3 -29.978125 
L 410.85 -29.978125 
L 412.4 -29.978125 
L 413.95 -29.978125 
L 415.5 -29.978125 
L 417.05 -29.978125 
L 418.6 -29.978125 
L 420.15 -29.978125 
L 421.7 -29.978125 
L 423.25 -29.978125 
L 424.8 -29.978125 
L 426.35 -29.978125 
L 427.9 -29.978125 
L 429.45 -29.978125 
L 431 -29.978125 
L 432.55 -29.978125 
L 434.1 -29.978125 
L 435.65 -29.978125 
L 437.2 -29.978125 
L 438.75 -29.978125 
L 440.3 -29.978125 
L 441.85 -29.978125 
L 443.4 -29.978125 
L 444.95 -29.978125 
L 446.5 -29.978125 
L 448.05 -29.978125 
L 449.6 -29.978125 
L 451.15 -29.978125 
L 452.7 -29.978125 
L 454.25 -29.978125 
L 455.8 -29.978125 
L 457.35 -29.978125 
L 458.9 -29.978125 
L 460.45 -29.978125 
L 462 -29.978125 
L 463.55 -29.978125 
L 465.1 -29.978125 
L 466.65 -29.978125 
L 468.2 -29.978125 
L 469.75 -29.978125 
L 471.3 -29.978125 
L 472.85 -29.978125 
L 474.4 -29.978125 
L 475.95 -29.978125 
L 477.5 -29.978125 
L 479.05 -29.978125 
L 480.6 -29.978125 
L 482.15 -29.978125 
L 483.7 -29.978125 
L 485.25 -29.978125 
L 486.8 -29.978125 
L 488.35 -29.978125 
L 489.9 -29.978125 
L 491.45 -29.978125 
L 493 -29.978125 
L 494.55 -29.978125 
L 496.1 -29.978125 
L 497.65 -29.978125 
L 499.2 -29.978125 
L 500.75 -29.978125 
L 502.3 -29.978125 
L 503.85 -29.978125 
L 505.4 -29.978125 
L 506.95 -29.978125 
L 508.5 -29.978125 
L 510.05 -29.978125 
L 511.6 -29.978125 
L 513.15 -29.978125 
L 514.7 -29.978125 
L 516.25 -29.978125 
L 517.8 -29.978125 
L 519.35 -29.978125 
L 520.9 -29.978125 
L 522.45 -29.978125 
L 524 -29.978125 
L 525.55 -29.978125 
L 527.1 -29.978125 
L 528.65 -29.978125 
L 530.2 -29.978125 
L 531.75 -29.978125 
L 533.3 -29.978125 
L 534.85 -29.978125 
L 536.4 -29.978125 
L 537.95 -29.978125 
L 539.5 -29.978125 
L 541.05 -29.978125 
L 542.6 -29.978125 
L 544.15 -29.978125 
L 545.7 -29.978125 
L 547.25 -29.978125 
L 548.8 -29.978125 
L 550.35 -29.978125 
L 551.9 -29.978125 
L 553.45 -29.978125 
L 555 -29.978125 
L 556.55 -29.978125 
L 558.1 -29.978125 
L 559.65 -29.978125 
L 561.2 -29.978125 
L 562.75 -29.978125 
L 564.3 -29.978125 
L 565.85 -29.978125 
L 567.4 -29.978125 
L 568.95 -29.978125 
L 570.5 -29.978125 
L 572.05 -29.978125 
L 573.6 -29.978125 
L 575.15 -29.978125 
L 576.7 -29.978125 
L 578.25 -29.978125 
L 579.8 -29.978125 
L 581.35 -29.978125 
L 582.9 -29.978125 
L 584.45 -29.978125 
L 586 -29.978125 
L 587.55 -29.978125 
L 589.1 -29.978125 
L 589.1 -85.418125 
L 589.1 -85.418125 
L 587.55 -83.161071 
L 586 -80.90824 
L 584.45 -78.663844 
L 582.9 -76.432079 
L 581.35 -74.217112 
L 579.8 -72.023075 
L 578.25 -69.854052 
L 576.7 -67.714075 
L 575.15 -65.607112 
L 573.6 -63.537061 
L 572.05 -61.507736 
L 570.5 -59.522867 
L 568.95 -57.586087 
L 567.4 -55.700922 
L 565.85 -53.870792 
L 564.3 -52.098993 
L 562.75 -50.388698 
L 561.2 -48.742948 
L 559.65 -47.164645 
L 558.1 -45.656545 
L 556.55 -44.221257 
L 555 -42.861232 
L 553.45 -41.57876 
L 551.9 -40.375968 
L 550.35 -39.254813 
L 548.8 -38.21708 
L 547.25 -37.264376 
L 545.7 -36.398132 
L 544.15 -35.619594 
L 542.6 -34.929826 
L 541.05 -34.329708 
L 539.5 -33.819932 
L 537.95 -33.401004 
L 536.4 -33.073242 
L 534.85 -32.836776 
L 533.3 -32.691552 
L 531.75 -32.637326 
L 530.2 -32.673675 
L 528.65 -32.799989 
L 527.1 -33.015481 
L 525.55 -33.319185 
L 524 -33.709962 
L 522.45 -34.1865 
L 520.9 -34.747324 
L 519.35 -35.390792 
L 517.8 -36.115106 
L 516.25 -36.918317 
L 514.7 -37.798324 
L 513.15 -38.752888 
L 511.6 -39.77963 
L 510.05 -40.876045 
L 508.5 -42.039502 
L 506.95 -43.267253 
L 505.4 -44.556442 
L 503.85 -45.90411 
L 502.3 -47.307202 
L 500.75 -48.762576 
L 499.2 -50.267011 
L 497.65 -51.817213 
L 496.1 -53.409826 
L 494.55 -55.041436 
L 493 -56.708582 
L 491.45 -58.407766 
L 489.9 -60.135456 
L 488.35 -61.888098 
L 486.8 -63.662126 
L 485.25 -65.453966 
L 483.7 -67.260045 
L 482.15 -69.076802 
L 480.6 -70.900695 
L 479.05 -72.728206 
L 477.5 -74.555854 
L 475.95 -76.380196 
L 474.4 -78.197843 
L 472.85 -80.005458 
L 471.3 -81.799772 
L 469.75 -83.577585 
L 468.2 -85.335773 
L 466.65 -87.071297 
L 465.1 -88.78121 
L 463.55 -90.462657 
L 462 -92.112888 
L 460.45 -93.729258 
L 458.9 -95.309233 
L 457.35 -96.850398 
L 455.8 -98.350455 
L 454.25 -99.807234 
L 452.7 -101.21869 
L 451.15 -102.582913 
L 449.6 -103.898125 
L 448.05 -105.162684 
L 446.5 -106.375089 
L 444.95 -107.533978 
L 443.4 -108.63813 
L 441.85 -109.686471 
L 440.3 -110.678066 
L 438.75 -111.612125 
L 437.2 -112.488002 
L 435.65 -113.305194 
L 434.1 -114.063339 
L 432.55 -114.762217 
L 431 -115.401745 
L 429.45 -115.98198 
L 427.9 -116.50311 
L 426.35 -116.965458 
L 424.8 -117.369475 
L 423.25 -117.715736 
L 421.7 -118.004939 
L 420.15 -118.237902 
L 418.6 -118.415555 
L 417.05 -118.538937 
L 415.5 -118.609192 
L 413.95 -118.627564 
L 412.4 -118.595392 
L 410.85 -118.514104 
L 409.3 -118.38521 
L 407.75 -118.210302 
L 406.2 -117.99104 
L 404.65 -117.729151 
L 403.1 -117.426424 
L 401.55 -117.0847 
L 400 -116.705867 
L 398.45 -116.291856 
L 396.9 -115.844632 
L 395.35 -115.366188 
L 393.8 -114.85854 
L 392.25 -114.323718 
L 390.7 -113.763762 
L 389.15 -113.180716 
L 387.6 -112.57662 
L 386.05 -111.953503 
L 384.5 -111.313383 
L 382.95 -110.658251 
L 381.4 -109.990076 
L 379.85 -109.310792 
L 378.3 -108.622294 
L 376.75 -107.926435 
L 375.2 -107.22502 
L 373.65 -106.519801 
L 372.1 -105.81247 
L 370.55 -105.10466 
L 369 -104.397935 
L 367.45 -103.693791 
L 365.9 -102.993649 
L 364.35 -102.298855 
L 362.8 -101.610673 
L 361.25 -100.930285 
L 359.7 -100.258788 
L 358.15 -99.597194 
L 356.6 -98.946424 
L 355.05 -98.307309 
L 353.5 -97.680589 
L 351.95 -97.066913 
L 350.4 -96.466835 
L 348.85 -95.880818 
L 347.3 -95.309233 
L 345.75 -94.752358 
L 344.2 -94.210378 
L 342.65 -93.683392 
L 341.1 -93.171406 
L 339.55 -92.674341 
L 338 -92.192034 
L 336.45 -91.724237 
L 334.9 -91.270625 
L 333.35 -90.830792 
L 331.8 -90.40426 
L 330.25 -89.990482 
L 328.7 -89.58884 
L 327.15 -89.198655 
L 325.6 -88.819189 
L 324.05 -88.449649 
L 322.5 -88.089189 
L 320.95 -87.736919 
L 319.4 -87.391907 
L 317.85 -87.053186 
L 316.3 -86.719755 
L 314.75 -86.390588 
L 313.2 -86.064638 
L 311.65 -85.740842 
L 310.1 -85.418125 
L 308.55 -85.095408 
L 307 -84.771612 
L 305.45 -84.445662 
L 303.9 -84.116495 
L 302.35 -83.783064 
L 300.8 -83.444343 
L 299.25 -83.099331 
L 297.7 -82.747061 
L 296.15 -82.386601 
L 294.6 -82.017061 
L 293.05 -81.637595 
L 291.5 -81.24741 
L 289.95 -80.845768 
L 288.4 -80.43199 
L 286.85 -80.005458 
L 285.3 -79.565625 
L 283.75 -79.112013 
L 282.2 -78.644216 
L 280.65 -78.161909 
L 279.1 -77.664844 
L 277.55 -77.152858 
L 276 -76.625872 
L 274.45 -76.083892 
L 272.9 -75.527017 
L 271.35 -74.955432 
L 269.8 -74.369415 
L 268.25 -73.769337 
L 266.7 -73.155661 
L 265.15 -72.528941 
L 263.6 -71.889826 
L 262.05 -71.239056 
L 260.5 -70.577462 
L 258.95 -69.905965 
L 257.4 -69.225577 
L 255.85 -68.537395 
L 254.3 -67.842601 
L 252.75 -67.142459 
L 251.2 -66.438315 
L 249.65 -65.73159 
L 248.1 -65.02378 
L 246.55 -64.316449 
L 245 -63.61123 
L 243.45 -62.909815 
L 241.9 -62.213956 
L 240.35 -61.525458 
L 238.8 -60.846174 
L 237.25 -60.177999 
L 235.7 -59.522867 
L 234.15 -58.882747 
L 232.6 -58.25963 
L 231.05 -57.655534 
L 229.5 -57.072488 
L 227.95 -56.512532 
L 226.4 -55.97771 
L 224.85 -55.470062 
L 223.3 -54.991618 
L 221.75 -54.544394 
L 220.2 -54.130383 
L 218.65 -53.75155 
L 217.1 -53.409826 
L 215.55 -53.107099 
L 214 -52.84521 
L 212.45 -52.625948 
L 210.9 -52.45104 
L 209.35 -52.322146 
L 207.8 -52.240858 
L 206.25 -52.208686 
L 204.7 -52.227058 
L 203.15 -52.297313 
L 201.6 -52.420695 
L 200.05 -52.598348 
L 198.5 -52.831311 
L 196.95 -53.120514 
L 195.4 -53.466775 
L 193.85 -53.870792 
L 192.3 -54.33314 
L 190.75 -54.85427 
L 189.2 -55.434505 
L 187.65 -56.074033 
L 186.1 -56.772911 
L 184.55 -57.531056 
L 183 -58.348248 
L 181.45 -59.224125 
L 179.9 -60.158184 
L 178.35 -61.149779 
L 176.8 -62.19812 
L 175.25 -63.302272 
L 173.7 -64.461161 
L 172.15 -65.673566 
L 170.6 -66.938125 
L 169.05 -68.253337 
L 167.5 -69.61756 
L 165.95 -71.029016 
L 164.4 -72.485795 
L 162.85 -73.985852 
L 161.3 -75.527017 
L 159.75 -77.106992 
L 158.2 -78.723362 
L 156.65 -80.373593 
L 155.1 -82.05504 
L 153.55 -83.764953 
L 152 -85.500477 
L 150.45 -87.258665 
L 148.9 -89.036478 
L 147.35 -90.830792 
L 145.8 -92.638407 
L 144.25 -94.456054 
L 142.7 -96.280396 
L 141.15 -98.108044 
L 139.6 -99.935555 
L 138.05 -101.759448 
L 136.5 -103.576205 
L 134.95 -105.382284 
L 133.4 -107.174124 
L 131.85 -108.948152 
L 130.3 -110.700794 
L 128.75 -112.428484 
L 127.2 -114.127668 
L 125.65 -115.794814 
L 124.1 -117.426424 
L 122.55 -119.019037 
L 121 -120.569239 
L 119.45 -122.073674 
L 117.9 -123.529048 
L 116.35 -124.93214 
L 114.8 -126.279808 
L 113.25 -127.568997 
L 111.7 -128.796748 
L 110.15 -129.960205 
L 108.6 -131.05662 
L 107.05 -132.083362 
L 105.5 -133.037926 
L 103.95 -133.917933 
L 102.4 -134.721144 
L 100.85 -135.445458 
L 99.3 -136.088926 
L 97.75 -136.64975 
L 96.2 -137.126288 
L 94.65 -137.517065 
L 93.1 -137.820769 
L 91.55 -138.036261 
L 90 -138.162575 
L 88.45 -138.198924 
L 86.9 -138.144698 
L 85.35 -137.999474 
L 83.8 -137.763008 
L 82.25 -137.435246 
L 80.7 -137.016318 
L 79.15 -136.506542 
L 77.6 -135.906424 
L 76.05 -135.216656 
L 74.5 -134.438118 
L 72.95 -133.571874 
L 71.4 -132.61917 
L 69.85 -131.581437 
L 68.3 -130.460282 
L 66.75 -129.25749 
L 65.2 -127.975018 
L 63.65 -126.614993 
L 62.1 -125.179705 
L 60.55 -123.671605 
L 59 -122.093302 
L 57.45 -120.447552 
L 55.9 -118.737257 
L 54.35 -116.965458 
L 52.8 -115.135328 
L 51.25 -113.250163 
L 49.7 -111.313383 
L 48.15 -109.328514 
L 46.6 -107.299189 
L 45.05 -105.229138 
L 43.5 -103.122175 
L 41.95 -100.982198 
L 40.4 -98.813175 
L 38.85 -96.619138 
L 37.3 -94.404171 
L 35.75 -92.172406 
L 34.2 -89.92801 
L 32.65 -87.675179 
L 31.1 -85.418125 
z
" style="stroke: #808080; stroke-opacity: 0.2"/>
    </defs>
    <g clip-path="url(#p57ec7a0d9d)">
     <use xlink:href="#maeb9f8b77b" x="0" y="380.545" style="fill: #808080; fill-opacity: 0.2; stroke: #808080; stroke-opacity: 0.2"/>
    </g>
   </g>
   <g id="matplotlib.axis_1">
    <g id="xtick_1">
     <g id="line2d_1">
      <path d="M 31.1 350.566875 
L 31.1 17.926875 
" clip-path="url(#p57ec7a0d9d)" style="fill: none; stroke: #b0b0b0; stroke-width: 0.5; stroke-linecap: square"/>
     </g>
     <g id="line2d_2">
      <defs>
       <path id="m69085db246" d="M 0 0 
L 0 -3 
" style="stroke: #000000; stroke-width: 0.5"/>
      </defs>
      <g>
       <use xlink:href="#m69085db246" x="31.1" y="350.566875" style="stroke: #000000; stroke-width: 0.5"/>
      </g>
     </g>
     <g id="line2d_3">
      <defs>
       <path id="maf133b47bc" d="M 0 0 
L 0 3 
" style="stroke: #000000; stroke-width: 0.5"/>
      </defs>
      <g>
       <use xlink:href="#maf133b47bc" x="31.1" y="17.926875" style="stroke: #000000; stroke-width: 0.5"/>
      </g>
     </g>
     <g id="text_1">
      <!-- $\mathdefault{0}$ -->
      <g transform="translate(28.6 361.005937) scale(0.1 -0.1)">
       <defs>
        <path id="Cmr10-30" d="M 1600 -141 
Q 816 -141 533 504 
Q 250 1150 250 2041 
Q 250 2597 351 3087 
Q 453 3578 754 3920 
Q 1056 4263 1600 4263 
Q 2022 4263 2290 4056 
Q 2559 3850 2700 3523 
Q 2841 3197 2892 2823 
Q 2944 2450 2944 2041 
Q 2944 1491 2842 1011 
Q 2741 531 2444 195 
Q 2147 -141 1600 -141 
z
M 1600 25 
Q 1956 25 2131 390 
Q 2306 756 2347 1200 
Q 2388 1644 2388 2144 
Q 2388 2625 2347 3031 
Q 2306 3438 2132 3767 
Q 1959 4097 1600 4097 
Q 1238 4097 1063 3765 
Q 888 3434 847 3029 
Q 806 2625 806 2144 
Q 806 1788 823 1472 
Q 841 1156 916 820 
Q 991 484 1158 254 
Q 1325 25 1600 25 
z
" transform="scale(0.015625)"/>
       </defs>
       <use xlink:href="#Cmr10-30" transform="translate(0 0.390625)"/>
      </g>
     </g>
    </g>
    <g id="xtick_2">
     <g id="line2d_4">
      <path d="M 108.6 350.566875 
L 108.6 17.926875 
" clip-path="url(#p57ec7a0d9d)" style="fill: none; stroke: #b0b0b0; stroke-width: 0.5; stroke-linecap: square"/>
     </g>
     <g id="line2d_5">
      <g>
       <use xlink:href="#m69085db246" x="108.6" y="350.566875" style="stroke: #000000; stroke-width: 0.5"/>
      </g>
     </g>
     <g id="line2d_6">
      <g>
       <use xlink:href="#maf133b47bc" x="108.6" y="17.926875" style="stroke: #000000; stroke-width: 0.5"/>
      </g>
     </g>
     <g id="text_2">
      <!-- $\mathdefault{50}$ -->
      <g transform="translate(103.6 361.005937) scale(0.1 -0.1)">
       <defs>
        <path id="Cmr10-35" d="M 556 728 
Q 622 541 758 387 
Q 894 234 1080 148 
Q 1266 63 1466 63 
Q 1928 63 2103 422 
Q 2278 781 2278 1294 
Q 2278 1516 2270 1667 
Q 2263 1819 2228 1959 
Q 2169 2184 2020 2353 
Q 1872 2522 1656 2522 
Q 1441 2522 1286 2456 
Q 1131 2391 1034 2303 
Q 938 2216 863 2119 
Q 788 2022 769 2016 
L 697 2016 
Q 681 2016 657 2036 
Q 634 2056 634 2075 
L 634 4213 
Q 634 4228 654 4245 
Q 675 4263 697 4263 
L 716 4263 
Q 1147 4056 1631 4056 
Q 2106 4056 2547 4263 
L 2566 4263 
Q 2588 4263 2606 4247 
Q 2625 4231 2625 4213 
L 2625 4153 
Q 2625 4122 2613 4122 
Q 2394 3831 2064 3668 
Q 1734 3506 1381 3506 
Q 1125 3506 856 3578 
L 856 2369 
Q 1069 2541 1236 2614 
Q 1403 2688 1663 2688 
Q 2016 2688 2295 2484 
Q 2575 2281 2725 1954 
Q 2875 1628 2875 1288 
Q 2875 903 2686 575 
Q 2497 247 2172 53 
Q 1847 -141 1466 -141 
Q 1150 -141 886 21 
Q 622 184 470 459 
Q 319 734 319 1044 
Q 319 1188 412 1278 
Q 506 1369 647 1369 
Q 788 1369 883 1276 
Q 978 1184 978 1044 
Q 978 906 883 811 
Q 788 716 647 716 
Q 625 716 597 720 
Q 569 725 556 728 
z
" transform="scale(0.015625)"/>
       </defs>
       <use xlink:href="#Cmr10-35" transform="translate(0 0.390625)"/>
       <use xlink:href="#Cmr10-30" transform="translate(50 0.390625)"/>
      </g>
     </g>
    </g>
    <g id="xtick_3">
     <g id="line2d_7">
      <path d="M 186.1 350.566875 
L 186.1 17.926875 
" clip-path="url(#p57ec7a0d9d)" style="fill: none; stroke: #b0b0b0; stroke-width: 0.5; stroke-linecap: square"/>
     </g>
     <g id="line2d_8">
      <g>
       <use xlink:href="#m69085db246" x="186.1" y="350.566875" style="stroke: #000000; stroke-width: 0.5"/>
      </g>
     </g>
     <g id="line2d_9">
      <g>
       <use xlink:href="#maf133b47bc" x="186.1" y="17.926875" style="stroke: #000000; stroke-width: 0.5"/>
      </g>
     </g>
     <g id="text_3">
      <!-- $\mathdefault{100}$ -->
      <g transform="translate(178.6 361.005937) scale(0.1 -0.1)">
       <defs>
        <path id="Cmr10-31" d="M 594 0 
L 594 225 
Q 1394 225 1394 428 
L 1394 3788 
Q 1063 3628 556 3628 
L 556 3853 
Q 1341 3853 1741 4263 
L 1831 4263 
Q 1853 4263 1873 4245 
Q 1894 4228 1894 4206 
L 1894 428 
Q 1894 225 2694 225 
L 2694 0 
L 594 0 
z
" transform="scale(0.015625)"/>
       </defs>
       <use xlink:href="#Cmr10-31" transform="translate(0 0.390625)"/>
       <use xlink:href="#Cmr10-30" transform="translate(50 0.390625)"/>
       <use xlink:href="#Cmr10-30" transform="translate(100 0.390625)"/>
      </g>
     </g>
    </g>
    <g id="xtick_4">
     <g id="line2d_10">
      <path d="M 263.6 350.566875 
L 263.6 17.926875 
" clip-path="url(#p57ec7a0d9d)" style="fill: none; stroke: #b0b0b0; stroke-width: 0.5; stroke-linecap: square"/>
     </g>
     <g id="line2d_11">
      <g>
       <use xlink:href="#m69085db246" x="263.6" y="350.566875" style="stroke: #000000; stroke-width: 0.5"/>
      </g>
     </g>
     <g id="line2d_12">
      <g>
       <use xlink:href="#maf133b47bc" x="263.6" y="17.926875" style="stroke: #000000; stroke-width: 0.5"/>
      </g>
     </g>
     <g id="text_4">
      <!-- $\mathdefault{150}$ -->
      <g transform="translate(256.1 361.005937) scale(0.1 -0.1)">
       <use xlink:href="#Cmr10-31" transform="translate(0 0.390625)"/>
       <use xlink:href="#Cmr10-35" transform="translate(50 0.390625)"/>
       <use xlink:href="#Cmr10-30" transform="translate(100 0.390625)"/>
      </g>
     </g>
    </g>
    <g id="xtick_5">
     <g id="line2d_13">
      <path d="M 341.1 350.566875 
L 341.1 17.926875 
" clip-path="url(#p57ec7a0d9d)" style="fill: none; stroke: #b0b0b0; stroke-width: 0.5; stroke-linecap: square"/>
     </g>
     <g id="line2d_14">
      <g>
       <use xlink:href="#m69085db246" x="341.1" y="350.566875" style="stroke: #000000; stroke-width: 0.5"/>
      </g>
     </g>
     <g id="line2d_15">
      <g>
       <use xlink:href="#maf133b47bc" x="341.1" y="17.926875" style="stroke: #000000; stroke-width: 0.5"/>
      </g>
     </g>
     <g id="text_5">
      <!-- $\mathdefault{200}$ -->
      <g transform="translate(333.6 361.005937) scale(0.1 -0.1)">
       <defs>
        <path id="Cmr10-32" d="M 319 0 
L 319 172 
Q 319 188 331 206 
L 1325 1306 
Q 1550 1550 1690 1715 
Q 1831 1881 1968 2097 
Q 2106 2313 2186 2536 
Q 2266 2759 2266 3009 
Q 2266 3272 2169 3511 
Q 2072 3750 1880 3894 
Q 1688 4038 1416 4038 
Q 1138 4038 916 3870 
Q 694 3703 603 3438 
Q 628 3444 672 3444 
Q 816 3444 917 3347 
Q 1019 3250 1019 3097 
Q 1019 2950 917 2848 
Q 816 2747 672 2747 
Q 522 2747 420 2851 
Q 319 2956 319 3097 
Q 319 3338 409 3548 
Q 500 3759 670 3923 
Q 841 4088 1055 4175 
Q 1269 4263 1509 4263 
Q 1875 4263 2190 4108 
Q 2506 3953 2690 3670 
Q 2875 3388 2875 3009 
Q 2875 2731 2753 2481 
Q 2631 2231 2440 2026 
Q 2250 1822 1953 1562 
Q 1656 1303 1563 1216 
L 838 519 
L 1453 519 
Q 1906 519 2211 526 
Q 2516 534 2534 550 
Q 2609 631 2688 1141 
L 2875 1141 
L 2694 0 
L 319 0 
z
" transform="scale(0.015625)"/>
       </defs>
       <use xlink:href="#Cmr10-32" transform="translate(0 0.390625)"/>
       <use xlink:href="#Cmr10-30" transform="translate(50 0.390625)"/>
       <use xlink:href="#Cmr10-30" transform="translate(100 0.390625)"/>
      </g>
     </g>
    </g>
    <g id="xtick_6">
     <g id="line2d_16">
      <path d="M 418.6 350.566875 
L 418.6 17.926875 
" clip-path="url(#p57ec7a0d9d)" style="fill: none; stroke: #b0b0b0; stroke-width: 0.5; stroke-linecap: square"/>
     </g>
     <g id="line2d_17">
      <g>
       <use xlink:href="#m69085db246" x="418.6" y="350.566875" style="stroke: #000000; stroke-width: 0.5"/>
      </g>
     </g>
     <g id="line2d_18">
      <g>
       <use xlink:href="#maf133b47bc" x="418.6" y="17.926875" style="stroke: #000000; stroke-width: 0.5"/>
      </g>
     </g>
     <g id="text_6">
      <!-- $\mathdefault{250}$ -->
      <g transform="translate(411.1 361.005937) scale(0.1 -0.1)">
       <use xlink:href="#Cmr10-32" transform="translate(0 0.390625)"/>
       <use xlink:href="#Cmr10-35" transform="translate(50 0.390625)"/>
       <use xlink:href="#Cmr10-30" transform="translate(100 0.390625)"/>
      </g>
     </g>
    </g>
    <g id="xtick_7">
     <g id="line2d_19">
      <path d="M 496.1 350.566875 
L 496.1 17.926875 
" clip-path="url(#p57ec7a0d9d)" style="fill: none; stroke: #b0b0b0; stroke-width: 0.5; stroke-linecap: square"/>
     </g>
     <g id="line2d_20">
      <g>
       <use xlink:href="#m69085db246" x="496.1" y="350.566875" style="stroke: #000000; stroke-width: 0.5"/>
      </g>
     </g>
     <g id="line2d_21">
      <g>
       <use xlink:href="#maf133b47bc" x="496.1" y="17.926875" style="stroke: #000000; stroke-width: 0.5"/>
      </g>
     </g>
     <g id="text_7">
      <!-- $\mathdefault{300}$ -->
      <g transform="translate(488.6 361.005937) scale(0.1 -0.1)">
       <defs>
        <path id="Cmr10-33" d="M 609 494 
Q 759 275 1012 169 
Q 1266 63 1556 63 
Q 1928 63 2084 380 
Q 2241 697 2241 1100 
Q 2241 1281 2208 1462 
Q 2175 1644 2097 1800 
Q 2019 1956 1883 2050 
Q 1747 2144 1550 2144 
L 1125 2144 
Q 1069 2144 1069 2203 
L 1069 2259 
Q 1069 2309 1125 2309 
L 1478 2338 
Q 1703 2338 1851 2506 
Q 2000 2675 2069 2917 
Q 2138 3159 2138 3378 
Q 2138 3684 1994 3881 
Q 1850 4078 1556 4078 
Q 1313 4078 1091 3986 
Q 869 3894 738 3706 
Q 750 3709 759 3711 
Q 769 3713 781 3713 
Q 925 3713 1022 3613 
Q 1119 3513 1119 3372 
Q 1119 3234 1022 3134 
Q 925 3034 781 3034 
Q 641 3034 541 3134 
Q 441 3234 441 3372 
Q 441 3647 606 3850 
Q 772 4053 1033 4158 
Q 1294 4263 1556 4263 
Q 1750 4263 1965 4205 
Q 2181 4147 2356 4039 
Q 2531 3931 2642 3762 
Q 2753 3594 2753 3378 
Q 2753 3109 2633 2881 
Q 2513 2653 2303 2487 
Q 2094 2322 1844 2241 
Q 2122 2188 2372 2031 
Q 2622 1875 2773 1631 
Q 2925 1388 2925 1106 
Q 2925 753 2731 467 
Q 2538 181 2222 20 
Q 1906 -141 1556 -141 
Q 1256 -141 954 -26 
Q 653 88 461 316 
Q 269 544 269 863 
Q 269 1022 375 1128 
Q 481 1234 641 1234 
Q 744 1234 830 1186 
Q 916 1138 964 1050 
Q 1013 963 1013 863 
Q 1013 706 903 600 
Q 794 494 641 494 
L 609 494 
z
" transform="scale(0.015625)"/>
       </defs>
       <use xlink:href="#Cmr10-33" transform="translate(0 0.390625)"/>
       <use xlink:href="#Cmr10-30" transform="translate(50 0.390625)"/>
       <use xlink:href="#Cmr10-30" transform="translate(100 0.390625)"/>
      </g>
     </g>
    </g>
    <g id="xtick_8">
     <g id="line2d_22">
      <path d="M 573.6 350.566875 
L 573.6 17.926875 
" clip-path="url(#p57ec7a0d9d)" style="fill: none; stroke: #b0b0b0; stroke-width: 0.5; stroke-linecap: square"/>
     </g>
     <g id="line2d_23">
      <g>
       <use xlink:href="#m69085db246" x="573.6" y="350.566875" style="stroke: #000000; stroke-width: 0.5"/>
      </g>
     </g>
     <g id="line2d_24">
      <g>
       <use xlink:href="#maf133b47bc" x="573.6" y="17.926875" style="stroke: #000000; stroke-width: 0.5"/>
      </g>
     </g>
     <g id="text_8">
      <!-- $\mathdefault{350}$ -->
      <g transform="translate(566.1 361.005937) scale(0.1 -0.1)">
       <use xlink:href="#Cmr10-33" transform="translate(0 0.390625)"/>
       <use xlink:href="#Cmr10-35" transform="translate(50 0.390625)"/>
       <use xlink:href="#Cmr10-30" transform="translate(100 0.390625)"/>
      </g>
     </g>
    </g>
    <g id="xtick_9">
     <g id="line2d_25">
      <defs>
       <path id="m658eb538ac" d="M 0 0 
L 0 -1.5 
" style="stroke: #000000; stroke-width: 0.5"/>
      </defs>
      <g>
       <use xlink:href="#m658eb538ac" x="46.6" y="350.566875" style="stroke: #000000; stroke-width: 0.5"/>
      </g>
     </g>
     <g id="line2d_26">
      <defs>
       <path id="md5e058142d" d="M 0 0 
L 0 1.5 
" style="stroke: #000000; stroke-width: 0.5"/>
      </defs>
      <g>
       <use xlink:href="#md5e058142d" x="46.6" y="17.926875" style="stroke: #000000; stroke-width: 0.5"/>
      </g>
     </g>
    </g>
    <g id="xtick_10">
     <g id="line2d_27">
      <g>
       <use xlink:href="#m658eb538ac" x="62.1" y="350.566875" style="stroke: #000000; stroke-width: 0.5"/>
      </g>
     </g>
     <g id="line2d_28">
      <g>
       <use xlink:href="#md5e058142d" x="62.1" y="17.926875" style="stroke: #000000; stroke-width: 0.5"/>
      </g>
     </g>
    </g>
    <g id="xtick_11">
     <g id="line2d_29">
      <g>
       <use xlink:href="#m658eb538ac" x="77.6" y="350.566875" style="stroke: #000000; stroke-width: 0.5"/>
      </g>
     </g>
     <g id="line2d_30">
      <g>
       <use xlink:href="#md5e058142d" x="77.6" y="17.926875" style="stroke: #000000; stroke-width: 0.5"/>
      </g>
     </g>
    </g>
    <g id="xtick_12">
     <g id="line2d_31">
      <g>
       <use xlink:href="#m658eb538ac" x="93.1" y="350.566875" style="stroke: #000000; stroke-width: 0.5"/>
      </g>
     </g>
     <g id="line2d_32">
      <g>
       <use xlink:href="#md5e058142d" x="93.1" y="17.926875" style="stroke: #000000; stroke-width: 0.5"/>
      </g>
     </g>
    </g>
    <g id="xtick_13">
     <g id="line2d_33">
      <g>
       <use xlink:href="#m658eb538ac" x="124.1" y="350.566875" style="stroke: #000000; stroke-width: 0.5"/>
      </g>
     </g>
     <g id="line2d_34">
      <g>
       <use xlink:href="#md5e058142d" x="124.1" y="17.926875" style="stroke: #000000; stroke-width: 0.5"/>
      </g>
     </g>
    </g>
    <g id="xtick_14">
     <g id="line2d_35">
      <g>
       <use xlink:href="#m658eb538ac" x="139.6" y="350.566875" style="stroke: #000000; stroke-width: 0.5"/>
      </g>
     </g>
     <g id="line2d_36">
      <g>
       <use xlink:href="#md5e058142d" x="139.6" y="17.926875" style="stroke: #000000; stroke-width: 0.5"/>
      </g>
     </g>
    </g>
    <g id="xtick_15">
     <g id="line2d_37">
      <g>
       <use xlink:href="#m658eb538ac" x="155.1" y="350.566875" style="stroke: #000000; stroke-width: 0.5"/>
      </g>
     </g>
     <g id="line2d_38">
      <g>
       <use xlink:href="#md5e058142d" x="155.1" y="17.926875" style="stroke: #000000; stroke-width: 0.5"/>
      </g>
     </g>
    </g>
    <g id="xtick_16">
     <g id="line2d_39">
      <g>
       <use xlink:href="#m658eb538ac" x="170.6" y="350.566875" style="stroke: #000000; stroke-width: 0.5"/>
      </g>
     </g>
     <g id="line2d_40">
      <g>
       <use xlink:href="#md5e058142d" x="170.6" y="17.926875" style="stroke: #000000; stroke-width: 0.5"/>
      </g>
     </g>
    </g>
    <g id="xtick_17">
     <g id="line2d_41">
      <g>
       <use xlink:href="#m658eb538ac" x="201.6" y="350.566875" style="stroke: #000000; stroke-width: 0.5"/>
      </g>
     </g>
     <g id="line2d_42">
      <g>
       <use xlink:href="#md5e058142d" x="201.6" y="17.926875" style="stroke: #000000; stroke-width: 0.5"/>
      </g>
     </g>
    </g>
    <g id="xtick_18">
     <g id="line2d_43">
      <g>
       <use xlink:href="#m658eb538ac" x="217.1" y="350.566875" style="stroke: #000000; stroke-width: 0.5"/>
      </g>
     </g>
     <g id="line2d_44">
      <g>
       <use xlink:href="#md5e058142d" x="217.1" y="17.926875" style="stroke: #000000; stroke-width: 0.5"/>
      </g>
     </g>
    </g>
    <g id="xtick_19">
     <g id="line2d_45">
      <g>
       <use xlink:href="#m658eb538ac" x="232.6" y="350.566875" style="stroke: #000000; stroke-width: 0.5"/>
      </g>
     </g>
     <g id="line2d_46">
      <g>
       <use xlink:href="#md5e058142d" x="232.6" y="17.926875" style="stroke: #000000; stroke-width: 0.5"/>
      </g>
     </g>
    </g>
    <g id="xtick_20">
     <g id="line2d_47">
      <g>
       <use xlink:href="#m658eb538ac" x="248.1" y="350.566875" style="stroke: #000000; stroke-width: 0.5"/>
      </g>
     </g>
     <g id="line2d_48">
      <g>
       <use xlink:href="#md5e058142d" x="248.1" y="17.926875" style="stroke: #000000; stroke-width: 0.5"/>
      </g>
     </g>
    </g>
    <g id="xtick_21">
     <g id="line2d_49">
      <g>
       <use xlink:href="#m658eb538ac" x="279.1" y="350.566875" style="stroke: #000000; stroke-width: 0.5"/>
      </g>
     </g>
     <g id="line2d_50">
      <g>
       <use xlink:href="#md5e058142d" x="279.1" y="17.926875" style="stroke: #000000; stroke-width: 0.5"/>
      </g>
     </g>
    </g>
    <g id="xtick_22">
     <g id="line2d_51">
      <g>
       <use xlink:href="#m658eb538ac" x="294.6" y="350.566875" style="stroke: #000000; stroke-width: 0.5"/>
      </g>
     </g>
     <g id="line2d_52">
      <g>
       <use xlink:href="#md5e058142d" x="294.6" y="17.926875" style="stroke: #000000; stroke-width: 0.5"/>
      </g>
     </g>
    </g>
    <g id="xtick_23">
     <g id="line2d_53">
      <g>
       <use xlink:href="#m658eb538ac" x="310.1" y="350.566875" style="stroke: #000000; stroke-width: 0.5"/>
      </g>
     </g>
     <g id="line2d_54">
      <g>
       <use xlink:href="#md5e058142d" x="310.1" y="17.926875" style="stroke: #000000; stroke-width: 0.5"/>
      </g>
     </g>
    </g>
    <g id="xtick_24">
     <g id="line2d_55">
      <g>
       <use xlink:href="#m658eb538ac" x="325.6" y="350.566875" style="stroke: #000000; stroke-width: 0.5"/>
      </g>
     </g>
     <g id="line2d_56">
      <g>
       <use xlink:href="#md5e058142d" x="325.6" y="17.926875" style="stroke: #000000; stroke-width: 0.5"/>
      </g>
     </g>
    </g>
    <g id="xtick_25">
     <g id="line2d_57">
      <g>
       <use xlink:href="#m658eb538ac" x="356.6" y="350.566875" style="stroke: #000000; stroke-width: 0.5"/>
      </g>
     </g>
     <g id="line2d_58">
      <g>
       <use xlink:href="#md5e058142d" x="356.6" y="17.926875" style="stroke: #000000; stroke-width: 0.5"/>
      </g>
     </g>
    </g>
    <g id="xtick_26">
     <g id="line2d_59">
      <g>
       <use xlink:href="#m658eb538ac" x="372.1" y="350.566875" style="stroke: #000000; stroke-width: 0.5"/>
      </g>
     </g>
     <g id="line2d_60">
      <g>
       <use xlink:href="#md5e058142d" x="372.1" y="17.926875" style="stroke: #000000; stroke-width: 0.5"/>
      </g>
     </g>
    </g>
    <g id="xtick_27">
     <g id="line2d_61">
      <g>
       <use xlink:href="#m658eb538ac" x="387.6" y="350.566875" style="stroke: #000000; stroke-width: 0.5"/>
      </g>
     </g>
     <g id="line2d_62">
      <g>
       <use xlink:href="#md5e058142d" x="387.6" y="17.926875" style="stroke: #000000; stroke-width: 0.5"/>
      </g>
     </g>
    </g>
    <g id="xtick_28">
     <g id="line2d_63">
      <g>
       <use xlink:href="#m658eb538ac" x="403.1" y="350.566875" style="stroke: #000000; stroke-width: 0.5"/>
      </g>
     </g>
     <g id="line2d_64">
      <g>
       <use xlink:href="#md5e058142d" x="403.1" y="17.926875" style="stroke: #000000; stroke-width: 0.5"/>
      </g>
     </g>
    </g>
    <g id="xtick_29">
     <g id="line2d_65">
      <g>
       <use xlink:href="#m658eb538ac" x="434.1" y="350.566875" style="stroke: #000000; stroke-width: 0.5"/>
      </g>
     </g>
     <g id="line2d_66">
      <g>
       <use xlink:href="#md5e058142d" x="434.1" y="17.926875" style="stroke: #000000; stroke-width: 0.5"/>
      </g>
     </g>
    </g>
    <g id="xtick_30">
     <g id="line2d_67">
      <g>
       <use xlink:href="#m658eb538ac" x="449.6" y="350.566875" style="stroke: #000000; stroke-width: 0.5"/>
      </g>
     </g>
     <g id="line2d_68">
      <g>
       <use xlink:href="#md5e058142d" x="449.6" y="17.926875" style="stroke: #000000; stroke-width: 0.5"/>
      </g>
     </g>
    </g>
    <g id="xtick_31">
     <g id="line2d_69">
      <g>
       <use xlink:href="#m658eb538ac" x="465.1" y="350.566875" style="stroke: #000000; stroke-width: 0.5"/>
      </g>
     </g>
     <g id="line2d_70">
      <g>
       <use xlink:href="#md5e058142d" x="465.1" y="17.926875" style="stroke: #000000; stroke-width: 0.5"/>
      </g>
     </g>
    </g>
    <g id="xtick_32">
     <g id="line2d_71">
      <g>
       <use xlink:href="#m658eb538ac" x="480.6" y="350.566875" style="stroke: #000000; stroke-width: 0.5"/>
      </g>
     </g>
     <g id="line2d_72">
      <g>
       <use xlink:href="#md5e058142d" x="480.6" y="17.926875" style="stroke: #000000; stroke-width: 0.5"/>
      </g>
     </g>
    </g>
    <g id="xtick_33">
     <g id="line2d_73">
      <g>
       <use xlink:href="#m658eb538ac" x="511.6" y="350.566875" style="stroke: #000000; stroke-width: 0.5"/>
      </g>
     </g>
     <g id="line2d_74">
      <g>
       <use xlink:href="#md5e058142d" x="511.6" y="17.926875" style="stroke: #000000; stroke-width: 0.5"/>
      </g>
     </g>
    </g>
    <g id="xtick_34">
     <g id="line2d_75">
      <g>
       <use xlink:href="#m658eb538ac" x="527.1" y="350.566875" style="stroke: #000000; stroke-width: 0.5"/>
      </g>
     </g>
     <g id="line2d_76">
      <g>
       <use xlink:href="#md5e058142d" x="527.1" y="17.926875" style="stroke: #000000; stroke-width: 0.5"/>
      </g>
     </g>
    </g>
    <g id="xtick_35">
     <g id="line2d_77">
      <g>
       <use xlink:href="#m658eb538ac" x="542.6" y="350.566875" style="stroke: #000000; stroke-width: 0.5"/>
      </g>
     </g>
     <g id="line2d_78">
      <g>
       <use xlink:href="#md5e058142d" x="542.6" y="17.926875" style="stroke: #000000; stroke-width: 0.5"/>
      </g>
     </g>
    </g>
    <g id="xtick_36">
     <g id="line2d_79">
      <g>
       <use xlink:href="#m658eb538ac" x="558.1" y="350.566875" style="stroke: #000000; stroke-width: 0.5"/>
      </g>
     </g>
     <g id="line2d_80">
      <g>
       <use xlink:href="#md5e058142d" x="558.1" y="17.926875" style="stroke: #000000; stroke-width: 0.5"/>
      </g>
     </g>
    </g>
    <g id="xtick_37">
     <g id="line2d_81">
      <g>
       <use xlink:href="#m658eb538ac" x="589.1" y="350.566875" style="stroke: #000000; stroke-width: 0.5"/>
      </g>
     </g>
     <g id="line2d_82">
      <g>
       <use xlink:href="#md5e058142d" x="589.1" y="17.926875" style="stroke: #000000; stroke-width: 0.5"/>
      </g>
     </g>
    </g>
    <g id="text_9">
     <!-- Azimuth (degrees) -->
     <g transform="translate(269.682813 374.445) scale(0.1 -0.1)">
      <defs>
       <path id="Cmr10-41" d="M 206 0 
L 206 225 
Q 778 225 909 603 
L 2253 4513 
Q 2272 4581 2356 4581 
L 2438 4581 
Q 2522 4581 2541 4513 
L 3944 428 
Q 4003 294 4170 259 
Q 4338 225 4588 225 
L 4588 0 
L 2803 0 
L 2803 225 
Q 3334 225 3334 397 
L 3334 428 
L 2988 1428 
L 1434 1428 
L 1147 603 
Q 1141 581 1141 538 
Q 1141 378 1292 301 
Q 1444 225 1619 225 
L 1619 0 
L 206 0 
z
M 1509 1650 
L 2913 1650 
L 2209 3694 
L 1509 1650 
z
" transform="scale(0.015625)"/>
       <path id="Cmr10-7a" d="M 250 0 
Q 178 0 178 72 
L 178 122 
Q 178 147 197 166 
L 1984 2591 
L 1409 2591 
Q 1138 2591 961 2556 
Q 784 2522 670 2426 
Q 556 2331 504 2164 
Q 453 1997 453 1703 
L 269 1703 
L 341 2759 
L 2484 2759 
Q 2513 2759 2533 2739 
Q 2553 2719 2553 2688 
L 2553 2650 
Q 2553 2631 2541 2606 
L 750 184 
L 1363 184 
Q 1641 184 1827 218 
Q 2013 253 2144 384 
Q 2266 506 2311 712 
Q 2356 919 2381 1222 
L 2566 1222 
L 2456 0 
L 250 0 
z
" transform="scale(0.015625)"/>
       <path id="Cmr10-69" d="M 197 0 
L 197 225 
Q 416 225 556 259 
Q 697 294 697 428 
L 697 2175 
Q 697 2422 601 2478 
Q 506 2534 225 2534 
L 225 2759 
L 1147 2828 
L 1147 428 
Q 1147 294 1269 259 
Q 1391 225 1594 225 
L 1594 0 
L 197 0 
z
M 469 3928 
Q 469 4069 575 4175 
Q 681 4281 819 4281 
Q 909 4281 993 4234 
Q 1078 4188 1125 4103 
Q 1172 4019 1172 3928 
Q 1172 3791 1065 3684 
Q 959 3578 819 3578 
Q 681 3578 575 3684 
Q 469 3791 469 3928 
z
" transform="scale(0.015625)"/>
       <path id="Cmr10-6d" d="M 191 0 
L 191 225 
Q 409 225 550 259 
Q 691 294 691 428 
L 691 2175 
Q 691 2347 639 2423 
Q 588 2500 491 2517 
Q 394 2534 191 2534 
L 191 2759 
L 1119 2828 
L 1119 2203 
Q 1247 2478 1498 2653 
Q 1750 2828 2047 2828 
Q 2784 2828 2913 2228 
Q 3041 2497 3287 2662 
Q 3534 2828 3828 2828 
Q 4119 2828 4317 2734 
Q 4516 2641 4616 2448 
Q 4716 2256 4716 1966 
L 4716 428 
Q 4716 294 4858 259 
Q 5000 225 5216 225 
L 5216 0 
L 3750 0 
L 3750 225 
Q 3969 225 4109 259 
Q 4250 294 4250 428 
L 4250 1947 
Q 4250 2269 4159 2466 
Q 4069 2663 3788 2663 
Q 3419 2663 3178 2366 
Q 2938 2069 2938 1691 
L 2938 428 
Q 2938 294 3078 259 
Q 3219 225 3438 225 
L 3438 0 
L 1972 0 
L 1972 225 
Q 2191 225 2331 259 
Q 2472 294 2472 428 
L 2472 1947 
Q 2472 2259 2381 2461 
Q 2291 2663 2009 2663 
Q 1638 2663 1398 2366 
Q 1159 2069 1159 1691 
L 1159 428 
Q 1159 294 1300 259 
Q 1441 225 1656 225 
L 1656 0 
L 191 0 
z
" transform="scale(0.015625)"/>
       <path id="Cmr10-75" d="M 691 763 
L 691 2175 
Q 691 2347 639 2423 
Q 588 2500 491 2517 
Q 394 2534 191 2534 
L 191 2759 
L 1159 2828 
L 1159 763 
Q 1159 513 1195 373 
Q 1231 234 1348 165 
Q 1466 97 1722 97 
Q 2066 97 2269 384 
Q 2472 672 2472 1038 
L 2472 2175 
Q 2472 2347 2419 2423 
Q 2366 2500 2270 2517 
Q 2175 2534 1972 2534 
L 1972 2759 
L 2938 2828 
L 2938 581 
Q 2938 413 2989 336 
Q 3041 259 3137 242 
Q 3234 225 3438 225 
L 3438 0 
L 2491 -72 
L 2491 469 
Q 2372 228 2159 78 
Q 1947 -72 1691 -72 
Q 1231 -72 961 123 
Q 691 319 691 763 
z
" transform="scale(0.015625)"/>
       <path id="Cmr10-74" d="M 653 769 
L 653 2534 
L 122 2534 
L 122 2700 
Q 541 2700 737 3090 
Q 934 3481 934 3938 
L 1119 3938 
L 1119 2759 
L 2022 2759 
L 2022 2534 
L 1119 2534 
L 1119 781 
Q 1119 516 1208 316 
Q 1297 116 1528 116 
Q 1747 116 1844 327 
Q 1941 538 1941 781 
L 1941 1159 
L 2125 1159 
L 2125 769 
Q 2125 569 2051 373 
Q 1978 178 1834 53 
Q 1691 -72 1484 -72 
Q 1100 -72 876 158 
Q 653 388 653 769 
z
" transform="scale(0.015625)"/>
       <path id="Cmr10-68" d="M 191 0 
L 191 225 
Q 409 225 550 259 
Q 691 294 691 428 
L 691 3788 
Q 691 3959 639 4036 
Q 588 4113 491 4130 
Q 394 4147 191 4147 
L 191 4372 
L 1141 4441 
L 1141 2241 
Q 1275 2506 1515 2667 
Q 1756 2828 2047 2828 
Q 2491 2828 2714 2615 
Q 2938 2403 2938 1966 
L 2938 428 
Q 2938 294 3078 259 
Q 3219 225 3438 225 
L 3438 0 
L 1972 0 
L 1972 225 
Q 2191 225 2331 259 
Q 2472 294 2472 428 
L 2472 1947 
Q 2472 2259 2381 2461 
Q 2291 2663 2009 2663 
Q 1638 2663 1398 2366 
Q 1159 2069 1159 1691 
L 1159 428 
Q 1159 294 1300 259 
Q 1441 225 1656 225 
L 1656 0 
L 191 0 
z
" transform="scale(0.015625)"/>
       <path id="Cmr10-20" transform="scale(0.015625)"/>
       <path id="Cmr10-28" d="M 1984 -1588 
Q 1628 -1306 1370 -942 
Q 1113 -578 948 -165 
Q 784 247 703 697 
Q 622 1147 622 1600 
Q 622 2059 703 2509 
Q 784 2959 951 3375 
Q 1119 3791 1378 4153 
Q 1638 4516 1984 4788 
Q 1984 4800 2016 4800 
L 2075 4800 
Q 2094 4800 2109 4783 
Q 2125 4766 2125 4744 
Q 2125 4716 2113 4703 
Q 1800 4397 1592 4047 
Q 1384 3697 1257 3301 
Q 1131 2906 1075 2482 
Q 1019 2059 1019 1600 
Q 1019 -434 2106 -1491 
Q 2125 -1509 2125 -1544 
Q 2125 -1559 2108 -1579 
Q 2091 -1600 2075 -1600 
L 2016 -1600 
Q 1984 -1600 1984 -1588 
z
" transform="scale(0.015625)"/>
       <path id="Cmr10-64" d="M 1563 -72 
Q 1184 -72 871 133 
Q 559 338 386 672 
Q 213 1006 213 1381 
Q 213 1769 402 2101 
Q 591 2434 916 2631 
Q 1241 2828 1631 2828 
Q 1866 2828 2075 2729 
Q 2284 2631 2438 2456 
L 2438 3788 
Q 2438 3959 2386 4036 
Q 2334 4113 2239 4130 
Q 2144 4147 1941 4147 
L 1941 4372 
L 2888 4441 
L 2888 581 
Q 2888 413 2939 336 
Q 2991 259 3086 242 
Q 3181 225 3384 225 
L 3384 0 
L 2419 -72 
L 2419 331 
Q 2253 141 2025 34 
Q 1797 -72 1563 -72 
z
M 909 556 
Q 1019 347 1201 222 
Q 1384 97 1600 97 
Q 1866 97 2087 250 
Q 2309 403 2419 647 
L 2419 2181 
Q 2344 2322 2230 2433 
Q 2116 2544 1973 2603 
Q 1831 2663 1672 2663 
Q 1338 2663 1134 2473 
Q 931 2284 850 1990 
Q 769 1697 769 1375 
Q 769 1119 795 928 
Q 822 738 909 556 
z
" transform="scale(0.015625)"/>
       <path id="Cmr10-65" d="M 1594 -72 
Q 1203 -72 876 133 
Q 550 338 364 680 
Q 178 1022 178 1403 
Q 178 1778 348 2115 
Q 519 2453 823 2661 
Q 1128 2869 1503 2869 
Q 1797 2869 2014 2770 
Q 2231 2672 2372 2497 
Q 2513 2322 2584 2084 
Q 2656 1847 2656 1563 
Q 2656 1478 2591 1478 
L 738 1478 
L 738 1409 
Q 738 878 952 497 
Q 1166 116 1650 116 
Q 1847 116 2014 203 
Q 2181 291 2304 447 
Q 2428 603 2472 781 
Q 2478 803 2495 820 
Q 2513 838 2534 838 
L 2591 838 
Q 2656 838 2656 756 
Q 2566 394 2266 161 
Q 1966 -72 1594 -72 
z
M 744 1638 
L 2203 1638 
Q 2203 1878 2136 2125 
Q 2069 2372 1912 2536 
Q 1756 2700 1503 2700 
Q 1141 2700 942 2361 
Q 744 2022 744 1638 
z
" transform="scale(0.015625)"/>
       <path id="Cmr10-67" d="M 178 -500 
Q 178 -272 343 -101 
Q 509 69 738 141 
Q 609 238 542 384 
Q 475 531 475 697 
Q 475 997 666 1228 
Q 372 1516 372 1888 
Q 372 2088 458 2263 
Q 544 2438 697 2566 
Q 850 2694 1037 2761 
Q 1225 2828 1422 2828 
Q 1803 2828 2106 2606 
Q 2238 2747 2417 2823 
Q 2597 2900 2791 2900 
Q 2928 2900 3015 2801 
Q 3103 2703 3103 2566 
Q 3103 2488 3043 2428 
Q 2984 2369 2906 2369 
Q 2825 2369 2765 2428 
Q 2706 2488 2706 2566 
Q 2706 2684 2784 2731 
Q 2453 2731 2216 2503 
Q 2331 2388 2401 2220 
Q 2472 2053 2472 1888 
Q 2472 1616 2322 1398 
Q 2172 1181 1926 1061 
Q 1681 941 1422 941 
Q 1072 941 781 1131 
Q 691 1006 691 850 
Q 691 681 802 554 
Q 913 428 1081 428 
L 1606 428 
Q 1988 428 2294 359 
Q 2600 291 2808 84 
Q 3016 -122 3016 -500 
Q 3016 -781 2778 -967 
Q 2541 -1153 2211 -1236 
Q 1881 -1319 1600 -1319 
Q 1316 -1319 984 -1236 
Q 653 -1153 415 -967 
Q 178 -781 178 -500 
z
M 538 -500 
Q 538 -716 713 -861 
Q 888 -1006 1134 -1076 
Q 1381 -1147 1600 -1147 
Q 1816 -1147 2062 -1076 
Q 2309 -1006 2482 -861 
Q 2656 -716 2656 -500 
Q 2656 -166 2350 -67 
Q 2044 31 1606 31 
L 1081 31 
Q 934 31 811 -39 
Q 688 -109 613 -236 
Q 538 -363 538 -500 
z
M 1422 1113 
Q 1966 1113 1966 1888 
Q 1966 2222 1850 2439 
Q 1734 2656 1422 2656 
Q 1109 2656 993 2439 
Q 878 2222 878 1888 
Q 878 1675 922 1503 
Q 966 1331 1084 1222 
Q 1203 1113 1422 1113 
z
" transform="scale(0.015625)"/>
       <path id="Cmr10-72" d="M 166 0 
L 166 225 
Q 384 225 525 259 
Q 666 294 666 428 
L 666 2175 
Q 666 2347 614 2423 
Q 563 2500 466 2517 
Q 369 2534 166 2534 
L 166 2759 
L 1081 2828 
L 1081 2203 
Q 1184 2481 1375 2654 
Q 1566 2828 1838 2828 
Q 2028 2828 2178 2715 
Q 2328 2603 2328 2419 
Q 2328 2303 2245 2217 
Q 2163 2131 2041 2131 
Q 1922 2131 1837 2215 
Q 1753 2300 1753 2419 
Q 1753 2591 1875 2663 
L 1838 2663 
Q 1578 2663 1414 2475 
Q 1250 2288 1181 2009 
Q 1113 1731 1113 1478 
L 1113 428 
Q 1113 225 1734 225 
L 1734 0 
L 166 0 
z
" transform="scale(0.015625)"/>
       <path id="Cmr10-73" d="M 213 -19 
L 213 1025 
Q 213 1075 269 1075 
L 347 1075 
Q 384 1075 397 1025 
Q 575 97 1259 97 
Q 1563 97 1767 234 
Q 1972 372 1972 659 
Q 1972 866 1812 1011 
Q 1653 1156 1434 1209 
L 1006 1294 
Q 791 1341 614 1437 
Q 438 1534 325 1695 
Q 213 1856 213 2069 
Q 213 2350 361 2529 
Q 509 2709 746 2789 
Q 984 2869 1259 2869 
Q 1588 2869 1831 2694 
L 2016 2853 
Q 2016 2869 2047 2869 
L 2094 2869 
Q 2113 2869 2128 2851 
Q 2144 2834 2144 2816 
L 2144 1978 
Q 2144 1919 2094 1919 
L 2016 1919 
Q 1959 1919 1959 1978 
Q 1959 2313 1773 2516 
Q 1588 2719 1253 2719 
Q 966 2719 755 2612 
Q 544 2506 544 2247 
Q 544 2069 695 1955 
Q 847 1841 1050 1791 
L 1484 1709 
Q 1703 1659 1892 1540 
Q 2081 1422 2192 1240 
Q 2303 1059 2303 831 
Q 2303 600 2223 429 
Q 2144 259 2001 146 
Q 1859 34 1665 -19 
Q 1472 -72 1259 -72 
Q 859 -72 575 197 
L 341 -56 
Q 341 -72 306 -72 
L 269 -72 
Q 213 -72 213 -19 
z
" transform="scale(0.015625)"/>
       <path id="Cmr10-29" d="M 416 -1600 
Q 359 -1600 359 -1544 
Q 359 -1516 372 -1503 
Q 1466 -434 1466 1600 
Q 1466 3634 384 4691 
Q 359 4706 359 4744 
Q 359 4766 376 4783 
Q 394 4800 416 4800 
L 475 4800 
Q 494 4800 506 4788 
Q 966 4425 1272 3906 
Q 1578 3388 1720 2800 
Q 1863 2213 1863 1600 
Q 1863 1147 1786 708 
Q 1709 269 1542 -157 
Q 1375 -584 1119 -945 
Q 863 -1306 506 -1588 
Q 494 -1600 475 -1600 
L 416 -1600 
z
" transform="scale(0.015625)"/>
      </defs>
      <use xlink:href="#Cmr10-41"/>
      <use xlink:href="#Cmr10-7a" transform="translate(75 0)"/>
      <use xlink:href="#Cmr10-69" transform="translate(119.384766 0)"/>
      <use xlink:href="#Cmr10-6d" transform="translate(147.070312 0)"/>
      <use xlink:href="#Cmr10-75" transform="translate(230.371094 0)"/>
      <use xlink:href="#Cmr10-74" transform="translate(285.888672 0)"/>
      <use xlink:href="#Cmr10-68" transform="translate(324.707031 0)"/>
      <use xlink:href="#Cmr10-20" transform="translate(380.224609 0)"/>
      <use xlink:href="#Cmr10-28" transform="translate(413.525391 0)"/>
      <use xlink:href="#Cmr10-64" transform="translate(452.34375 0)"/>
      <use xlink:href="#Cmr10-65" transform="translate(507.861328 0)"/>
      <use xlink:href="#Cmr10-67" transform="translate(552.246094 0)"/>
      <use xlink:href="#Cmr10-72" transform="translate(602.246094 0)"/>
      <use xlink:href="#Cmr10-65" transform="translate(641.357422 0)"/>
      <use xlink:href="#Cmr10-65" transform="translate(685.742188 0)"/>
      <use xlink:href="#Cmr10-73" transform="translate(730.126953 0)"/>
      <use xlink:href="#Cmr10-29" transform="translate(769.53125 0)"/>
     </g>
    </g>
   </g>
   <g id="matplotlib.axis_2">
    <g id="ytick_1">
     <g id="line2d_83">
      <path d="M 31.1 350.566875 
L 589.1 350.566875 
" clip-path="url(#p57ec7a0d9d)" style="fill: none; stroke: #b0b0b0; stroke-width: 0.5; stroke-linecap: square"/>
     </g>
     <g id="line2d_84">
      <defs>
       <path id="m8ea91513d2" d="M 0 0 
L 3 0 
" style="stroke: #000000; stroke-width: 0.5"/>
      </defs>
      <g>
       <use xlink:href="#m8ea91513d2" x="31.1" y="350.566875" style="stroke: #000000; stroke-width: 0.5"/>
      </g>
     </g>
     <g id="line2d_85">
      <defs>
       <path id="m7963b48f7c" d="M 0 0 
L -3 0 
" style="stroke: #000000; stroke-width: 0.5"/>
      </defs>
      <g>
       <use xlink:href="#m7963b48f7c" x="589.1" y="350.566875" style="stroke: #000000; stroke-width: 0.5"/>
      </g>
     </g>
     <g id="text_10">
      <!-- $\mathdefault{0}$ -->
      <g transform="translate(22.6 354.036406) scale(0.1 -0.1)">
       <use xlink:href="#Cmr10-30" transform="translate(0 0.390625)"/>
      </g>
     </g>
    </g>
    <g id="ytick_2">
     <g id="line2d_86">
      <path d="M 31.1 295.126875 
L 589.1 295.126875 
" clip-path="url(#p57ec7a0d9d)" style="fill: none; stroke: #b0b0b0; stroke-width: 0.5; stroke-linecap: square"/>
     </g>
     <g id="line2d_87">
      <g>
       <use xlink:href="#m8ea91513d2" x="31.1" y="295.126875" style="stroke: #000000; stroke-width: 0.5"/>
      </g>
     </g>
     <g id="line2d_88">
      <g>
       <use xlink:href="#m7963b48f7c" x="589.1" y="295.126875" style="stroke: #000000; stroke-width: 0.5"/>
      </g>
     </g>
     <g id="text_11">
      <!-- $\mathdefault{15}$ -->
      <g transform="translate(17.6 298.596406) scale(0.1 -0.1)">
       <use xlink:href="#Cmr10-31" transform="translate(0 0.390625)"/>
       <use xlink:href="#Cmr10-35" transform="translate(50 0.390625)"/>
      </g>
     </g>
    </g>
    <g id="ytick_3">
     <g id="line2d_89">
      <path d="M 31.1 239.686875 
L 589.1 239.686875 
" clip-path="url(#p57ec7a0d9d)" style="fill: none; stroke: #b0b0b0; stroke-width: 0.5; stroke-linecap: square"/>
     </g>
     <g id="line2d_90">
      <g>
       <use xlink:href="#m8ea91513d2" x="31.1" y="239.686875" style="stroke: #000000; stroke-width: 0.5"/>
      </g>
     </g>
     <g id="line2d_91">
      <g>
       <use xlink:href="#m7963b48f7c" x="589.1" y="239.686875" style="stroke: #000000; stroke-width: 0.5"/>
      </g>
     </g>
     <g id="text_12">
      <!-- $\mathdefault{30}$ -->
      <g transform="translate(17.6 243.156406) scale(0.1 -0.1)">
       <use xlink:href="#Cmr10-33" transform="translate(0 0.390625)"/>
       <use xlink:href="#Cmr10-30" transform="translate(50 0.390625)"/>
      </g>
     </g>
    </g>
    <g id="ytick_4">
     <g id="line2d_92">
      <path d="M 31.1 184.246875 
L 589.1 184.246875 
" clip-path="url(#p57ec7a0d9d)" style="fill: none; stroke: #b0b0b0; stroke-width: 0.5; stroke-linecap: square"/>
     </g>
     <g id="line2d_93">
      <g>
       <use xlink:href="#m8ea91513d2" x="31.1" y="184.246875" style="stroke: #000000; stroke-width: 0.5"/>
      </g>
     </g>
     <g id="line2d_94">
      <g>
       <use xlink:href="#m7963b48f7c" x="589.1" y="184.246875" style="stroke: #000000; stroke-width: 0.5"/>
      </g>
     </g>
     <g id="text_13">
      <!-- $\mathdefault{45}$ -->
      <g transform="translate(17.6 187.716406) scale(0.1 -0.1)">
       <defs>
        <path id="Cmr10-34" d="M 178 1056 
L 178 1281 
L 2156 4231 
Q 2178 4263 2222 4263 
L 2316 4263 
Q 2388 4263 2388 4191 
L 2388 1281 
L 3016 1281 
L 3016 1056 
L 2388 1056 
L 2388 428 
Q 2388 297 2575 261 
Q 2763 225 3009 225 
L 3009 0 
L 1247 0 
L 1247 225 
Q 1494 225 1681 261 
Q 1869 297 1869 428 
L 1869 1056 
L 178 1056 
z
M 391 1281 
L 1906 1281 
L 1906 3547 
L 391 1281 
z
" transform="scale(0.015625)"/>
       </defs>
       <use xlink:href="#Cmr10-34" transform="translate(0 0.390625)"/>
       <use xlink:href="#Cmr10-35" transform="translate(50 0.390625)"/>
      </g>
     </g>
    </g>
    <g id="ytick_5">
     <g id="line2d_95">
      <path d="M 31.1 128.806875 
L 589.1 128.806875 
" clip-path="url(#p57ec7a0d9d)" style="fill: none; stroke: #b0b0b0; stroke-width: 0.5; stroke-linecap: square"/>
     </g>
     <g id="line2d_96">
      <g>
       <use xlink:href="#m8ea91513d2" x="31.1" y="128.806875" style="stroke: #000000; stroke-width: 0.5"/>
      </g>
     </g>
     <g id="line2d_97">
      <g>
       <use xlink:href="#m7963b48f7c" x="589.1" y="128.806875" style="stroke: #000000; stroke-width: 0.5"/>
      </g>
     </g>
     <g id="text_14">
      <!-- $\mathdefault{60}$ -->
      <g transform="translate(17.6 132.276406) scale(0.1 -0.1)">
       <defs>
        <path id="Cmr10-36" d="M 1600 -141 
Q 1203 -141 937 70 
Q 672 281 526 617 
Q 381 953 325 1322 
Q 269 1691 269 2069 
Q 269 2575 466 3084 
Q 663 3594 1045 3928 
Q 1428 4263 1953 4263 
Q 2172 4263 2361 4180 
Q 2550 4097 2658 3936 
Q 2766 3775 2766 3547 
Q 2766 3416 2677 3327 
Q 2588 3238 2456 3238 
Q 2331 3238 2240 3328 
Q 2150 3419 2150 3547 
Q 2150 3672 2240 3762 
Q 2331 3853 2456 3853 
L 2491 3853 
Q 2409 3969 2261 4023 
Q 2113 4078 1953 4078 
Q 1759 4078 1595 3993 
Q 1431 3909 1300 3765 
Q 1169 3622 1081 3448 
Q 994 3275 945 3053 
Q 897 2831 884 2637 
Q 872 2444 872 2150 
Q 984 2413 1190 2580 
Q 1397 2747 1656 2747 
Q 1941 2747 2175 2631 
Q 2409 2516 2578 2311 
Q 2747 2106 2836 1843 
Q 2925 1581 2925 1313 
Q 2925 938 2758 598 
Q 2591 259 2287 59 
Q 1984 -141 1600 -141 
z
M 1600 63 
Q 1847 63 1997 175 
Q 2147 288 2217 473 
Q 2288 659 2305 848 
Q 2322 1038 2322 1313 
Q 2322 1675 2287 1931 
Q 2253 2188 2100 2383 
Q 1947 2578 1631 2578 
Q 1372 2578 1205 2403 
Q 1038 2228 961 1961 
Q 884 1694 884 1447 
Q 884 1363 891 1319 
Q 891 1309 889 1303 
Q 888 1297 884 1288 
Q 884 1013 940 731 
Q 997 450 1156 256 
Q 1316 63 1600 63 
z
" transform="scale(0.015625)"/>
       </defs>
       <use xlink:href="#Cmr10-36" transform="translate(0 0.390625)"/>
       <use xlink:href="#Cmr10-30" transform="translate(50 0.390625)"/>
      </g>
     </g>
    </g>
    <g id="ytick_6">
     <g id="line2d_98">
      <path d="M 31.1 73.366875 
L 589.1 73.366875 
" clip-path="url(#p57ec7a0d9d)" style="fill: none; stroke: #b0b0b0; stroke-width: 0.5; stroke-linecap: square"/>
     </g>
     <g id="line2d_99">
      <g>
       <use xlink:href="#m8ea91513d2" x="31.1" y="73.366875" style="stroke: #000000; stroke-width: 0.5"/>
      </g>
     </g>
     <g id="line2d_100">
      <g>
       <use xlink:href="#m7963b48f7c" x="589.1" y="73.366875" style="stroke: #000000; stroke-width: 0.5"/>
      </g>
     </g>
     <g id="text_15">
      <!-- $\mathdefault{75}$ -->
      <g transform="translate(17.6 76.836406) scale(0.1 -0.1)">
       <defs>
        <path id="Cmr10-37" d="M 1113 166 
Q 1113 522 1175 862 
Q 1238 1203 1358 1536 
Q 1478 1869 1648 2189 
Q 1819 2509 2022 2791 
L 2606 3603 
L 1875 3603 
Q 738 3603 703 3572 
Q 619 3469 544 2981 
L 359 2981 
L 569 4325 
L 756 4325 
L 756 4306 
Q 756 4191 1147 4156 
Q 1538 4122 1913 4122 
L 3103 4122 
L 3103 3956 
Q 3103 3950 3101 3947 
Q 3100 3944 3097 3938 
L 2216 2700 
Q 1891 2219 1809 1631 
Q 1728 1044 1728 166 
Q 1728 41 1637 -50 
Q 1547 -141 1422 -141 
Q 1294 -141 1203 -50 
Q 1113 41 1113 166 
z
" transform="scale(0.015625)"/>
       </defs>
       <use xlink:href="#Cmr10-37" transform="translate(0 0.421875)"/>
       <use xlink:href="#Cmr10-35" transform="translate(50 0.421875)"/>
      </g>
     </g>
    </g>
    <g id="ytick_7">
     <g id="line2d_101">
      <path d="M 31.1 17.926875 
L 589.1 17.926875 
" clip-path="url(#p57ec7a0d9d)" style="fill: none; stroke: #b0b0b0; stroke-width: 0.5; stroke-linecap: square"/>
     </g>
     <g id="line2d_102">
      <g>
       <use xlink:href="#m8ea91513d2" x="31.1" y="17.926875" style="stroke: #000000; stroke-width: 0.5"/>
      </g>
     </g>
     <g id="line2d_103">
      <g>
       <use xlink:href="#m7963b48f7c" x="589.1" y="17.926875" style="stroke: #000000; stroke-width: 0.5"/>
      </g>
     </g>
     <g id="text_16">
      <!-- $\mathdefault{90}$ -->
      <g transform="translate(17.6 21.396406) scale(0.1 -0.1)">
       <defs>
        <path id="Cmr10-39" d="M 722 269 
Q 897 63 1331 63 
Q 1575 63 1786 228 
Q 1997 394 2113 634 
Q 2247 906 2284 1214 
Q 2322 1522 2322 1978 
Q 2213 1719 2008 1553 
Q 1803 1388 1538 1388 
Q 1166 1388 873 1589 
Q 581 1791 425 2120 
Q 269 2450 269 2822 
Q 269 3206 444 3539 
Q 619 3872 928 4067 
Q 1238 4263 1631 4263 
Q 2019 4263 2280 4052 
Q 2541 3841 2678 3508 
Q 2816 3175 2870 2803 
Q 2925 2431 2925 2069 
Q 2925 1575 2744 1061 
Q 2563 547 2202 203 
Q 1841 -141 1331 -141 
Q 953 -141 690 37 
Q 428 216 428 575 
Q 428 706 517 795 
Q 606 884 738 884 
Q 866 884 955 795 
Q 1044 706 1044 575 
Q 1044 450 953 359 
Q 863 269 738 269 
L 722 269 
z
M 1563 1556 
Q 1825 1556 1992 1732 
Q 2159 1909 2234 2171 
Q 2309 2434 2309 2694 
L 2309 2816 
L 2309 2841 
Q 2309 3322 2168 3700 
Q 2028 4078 1631 4078 
Q 1378 4078 1220 3967 
Q 1063 3856 988 3672 
Q 913 3488 892 3278 
Q 872 3069 872 2822 
Q 872 2459 906 2203 
Q 941 1947 1094 1751 
Q 1247 1556 1563 1556 
z
" transform="scale(0.015625)"/>
       </defs>
       <use xlink:href="#Cmr10-39" transform="translate(0 0.390625)"/>
       <use xlink:href="#Cmr10-30" transform="translate(50 0.390625)"/>
      </g>
     </g>
    </g>
    <g id="ytick_8">
     <g id="line2d_104">
      <defs>
       <path id="m20e7fa7c11" d="M 0 0 
L 1.5 0 
" style="stroke: #000000; stroke-width: 0.5"/>
      </defs>
      <g>
       <use xlink:href="#m20e7fa7c11" x="31.1" y="336.706875" style="stroke: #000000; stroke-width: 0.5"/>
      </g>
     </g>
     <g id="line2d_105">
      <defs>
       <path id="m759c86eec6" d="M 0 0 
L -1.5 0 
" style="stroke: #000000; stroke-width: 0.5"/>
      </defs>
      <g>
       <use xlink:href="#m759c86eec6" x="589.1" y="336.706875" style="stroke: #000000; stroke-width: 0.5"/>
      </g>
     </g>
    </g>
    <g id="ytick_9">
     <g id="line2d_106">
      <g>
       <use xlink:href="#m20e7fa7c11" x="31.1" y="322.846875" style="stroke: #000000; stroke-width: 0.5"/>
      </g>
     </g>
     <g id="line2d_107">
      <g>
       <use xlink:href="#m759c86eec6" x="589.1" y="322.846875" style="stroke: #000000; stroke-width: 0.5"/>
      </g>
     </g>
    </g>
    <g id="ytick_10">
     <g id="line2d_108">
      <g>
       <use xlink:href="#m20e7fa7c11" x="31.1" y="308.986875" style="stroke: #000000; stroke-width: 0.5"/>
      </g>
     </g>
     <g id="line2d_109">
      <g>
       <use xlink:href="#m759c86eec6" x="589.1" y="308.986875" style="stroke: #000000; stroke-width: 0.5"/>
      </g>
     </g>
    </g>
    <g id="ytick_11">
     <g id="line2d_110">
      <g>
       <use xlink:href="#m20e7fa7c11" x="31.1" y="281.266875" style="stroke: #000000; stroke-width: 0.5"/>
      </g>
     </g>
     <g id="line2d_111">
      <g>
       <use xlink:href="#m759c86eec6" x="589.1" y="281.266875" style="stroke: #000000; stroke-width: 0.5"/>
      </g>
     </g>
    </g>
    <g id="ytick_12">
     <g id="line2d_112">
      <g>
       <use xlink:href="#m20e7fa7c11" x="31.1" y="267.406875" style="stroke: #000000; stroke-width: 0.5"/>
      </g>
     </g>
     <g id="line2d_113">
      <g>
       <use xlink:href="#m759c86eec6" x="589.1" y="267.406875" style="stroke: #000000; stroke-width: 0.5"/>
      </g>
     </g>
    </g>
    <g id="ytick_13">
     <g id="line2d_114">
      <g>
       <use xlink:href="#m20e7fa7c11" x="31.1" y="253.546875" style="stroke: #000000; stroke-width: 0.5"/>
      </g>
     </g>
     <g id="line2d_115">
      <g>
       <use xlink:href="#m759c86eec6" x="589.1" y="253.546875" style="stroke: #000000; stroke-width: 0.5"/>
      </g>
     </g>
    </g>
    <g id="ytick_14">
     <g id="line2d_116">
      <g>
       <use xlink:href="#m20e7fa7c11" x="31.1" y="225.826875" style="stroke: #000000; stroke-width: 0.5"/>
      </g>
     </g>
     <g id="line2d_117">
      <g>
       <use xlink:href="#m759c86eec6" x="589.1" y="225.826875" style="stroke: #000000; stroke-width: 0.5"/>
      </g>
     </g>
    </g>
    <g id="ytick_15">
     <g id="line2d_118">
      <g>
       <use xlink:href="#m20e7fa7c11" x="31.1" y="211.966875" style="stroke: #000000; stroke-width: 0.5"/>
      </g>
     </g>
     <g id="line2d_119">
      <g>
       <use xlink:href="#m759c86eec6" x="589.1" y="211.966875" style="stroke: #000000; stroke-width: 0.5"/>
      </g>
     </g>
    </g>
    <g id="ytick_16">
     <g id="line2d_120">
      <g>
       <use xlink:href="#m20e7fa7c11" x="31.1" y="198.106875" style="stroke: #000000; stroke-width: 0.5"/>
      </g>
     </g>
     <g id="line2d_121">
      <g>
       <use xlink:href="#m759c86eec6" x="589.1" y="198.106875" style="stroke: #000000; stroke-width: 0.5"/>
      </g>
     </g>
    </g>
    <g id="ytick_17">
     <g id="line2d_122">
      <g>
       <use xlink:href="#m20e7fa7c11" x="31.1" y="170.386875" style="stroke: #000000; stroke-width: 0.5"/>
      </g>
     </g>
     <g id="line2d_123">
      <g>
       <use xlink:href="#m759c86eec6" x="589.1" y="170.386875" style="stroke: #000000; stroke-width: 0.5"/>
      </g>
     </g>
    </g>
    <g id="ytick_18">
     <g id="line2d_124">
      <g>
       <use xlink:href="#m20e7fa7c11" x="31.1" y="156.526875" style="stroke: #000000; stroke-width: 0.5"/>
      </g>
     </g>
     <g id="line2d_125">
      <g>
       <use xlink:href="#m759c86eec6" x="589.1" y="156.526875" style="stroke: #000000; stroke-width: 0.5"/>
      </g>
     </g>
    </g>
    <g id="ytick_19">
     <g id="line2d_126">
      <g>
       <use xlink:href="#m20e7fa7c11" x="31.1" y="142.666875" style="stroke: #000000; stroke-width: 0.5"/>
      </g>
     </g>
     <g id="line2d_127">
      <g>
       <use xlink:href="#m759c86eec6" x="589.1" y="142.666875" style="stroke: #000000; stroke-width: 0.5"/>
      </g>
     </g>
    </g>
    <g id="ytick_20">
     <g id="line2d_128">
      <g>
       <use xlink:href="#m20e7fa7c11" x="31.1" y="114.946875" style="stroke: #000000; stroke-width: 0.5"/>
      </g>
     </g>
     <g id="line2d_129">
      <g>
       <use xlink:href="#m759c86eec6" x="589.1" y="114.946875" style="stroke: #000000; stroke-width: 0.5"/>
      </g>
     </g>
    </g>
    <g id="ytick_21">
     <g id="line2d_130">
      <g>
       <use xlink:href="#m20e7fa7c11" x="31.1" y="101.086875" style="stroke: #000000; stroke-width: 0.5"/>
      </g>
     </g>
     <g id="line2d_131">
      <g>
       <use xlink:href="#m759c86eec6" x="589.1" y="101.086875" style="stroke: #000000; stroke-width: 0.5"/>
      </g>
     </g>
    </g>
    <g id="ytick_22">
     <g id="line2d_132">
      <g>
       <use xlink:href="#m20e7fa7c11" x="31.1" y="87.226875" style="stroke: #000000; stroke-width: 0.5"/>
      </g>
     </g>
     <g id="line2d_133">
      <g>
       <use xlink:href="#m759c86eec6" x="589.1" y="87.226875" style="stroke: #000000; stroke-width: 0.5"/>
      </g>
     </g>
    </g>
    <g id="ytick_23">
     <g id="line2d_134">
      <g>
       <use xlink:href="#m20e7fa7c11" x="31.1" y="59.506875" style="stroke: #000000; stroke-width: 0.5"/>
      </g>
     </g>
     <g id="line2d_135">
      <g>
       <use xlink:href="#m759c86eec6" x="589.1" y="59.506875" style="stroke: #000000; stroke-width: 0.5"/>
      </g>
     </g>
    </g>
    <g id="ytick_24">
     <g id="line2d_136">
      <g>
       <use xlink:href="#m20e7fa7c11" x="31.1" y="45.646875" style="stroke: #000000; stroke-width: 0.5"/>
      </g>
     </g>
     <g id="line2d_137">
      <g>
       <use xlink:href="#m759c86eec6" x="589.1" y="45.646875" style="stroke: #000000; stroke-width: 0.5"/>
      </g>
     </g>
    </g>
    <g id="ytick_25">
     <g id="line2d_138">
      <g>
       <use xlink:href="#m20e7fa7c11" x="31.1" y="31.786875" style="stroke: #000000; stroke-width: 0.5"/>
      </g>
     </g>
     <g id="line2d_139">
      <g>
       <use xlink:href="#m759c86eec6" x="589.1" y="31.786875" style="stroke: #000000; stroke-width: 0.5"/>
      </g>
     </g>
    </g>
    <g id="text_17">
     <!-- Elevation (degrees) -->
     <g transform="translate(11.1 226.392969) rotate(-90) scale(0.1 -0.1)">
      <defs>
       <path id="Cmr10-45" d="M 197 0 
L 197 225 
Q 856 225 856 428 
L 856 3944 
Q 856 4147 197 4147 
L 197 4372 
L 3816 4372 
L 3994 2906 
L 3809 2906 
Q 3741 3459 3617 3709 
Q 3494 3959 3222 4053 
Q 2950 4147 2406 4147 
L 1778 4147 
Q 1663 4147 1598 4137 
Q 1534 4128 1493 4083 
Q 1453 4038 1453 3944 
L 1453 2381 
L 1925 2381 
Q 2250 2381 2411 2436 
Q 2572 2491 2633 2645 
Q 2694 2800 2694 3128 
L 2881 3128 
L 2881 1409 
L 2694 1409 
Q 2694 1734 2633 1890 
Q 2572 2047 2411 2101 
Q 2250 2156 1925 2156 
L 1453 2156 
L 1453 428 
Q 1453 291 1531 258 
Q 1609 225 1778 225 
L 2456 225 
Q 2900 225 3173 295 
Q 3447 366 3598 530 
Q 3750 694 3833 955 
Q 3916 1216 3988 1678 
L 4172 1678 
L 3903 0 
L 197 0 
z
" transform="scale(0.015625)"/>
       <path id="Cmr10-6c" d="M 197 0 
L 197 225 
Q 416 225 556 259 
Q 697 294 697 428 
L 697 3788 
Q 697 3959 645 4036 
Q 594 4113 497 4130 
Q 400 4147 197 4147 
L 197 4372 
L 1147 4441 
L 1147 428 
Q 1147 294 1287 259 
Q 1428 225 1644 225 
L 1644 0 
L 197 0 
z
" transform="scale(0.015625)"/>
       <path id="Cmr10-76" d="M 1563 0 
L 628 2350 
Q 569 2469 445 2501 
Q 322 2534 122 2534 
L 122 2759 
L 1466 2759 
L 1466 2534 
Q 1106 2534 1106 2381 
Q 1106 2356 1113 2344 
L 1831 538 
L 2478 2169 
Q 2497 2219 2497 2272 
Q 2497 2394 2405 2464 
Q 2313 2534 2188 2534 
L 2188 2759 
L 3250 2759 
L 3250 2534 
Q 3053 2534 2904 2443 
Q 2756 2353 2675 2175 
L 1813 0 
Q 1788 -72 1709 -72 
L 1663 -72 
Q 1584 -72 1563 0 
z
" transform="scale(0.015625)"/>
       <path id="Cmr10-61" d="M 256 628 
Q 256 1009 556 1248 
Q 856 1488 1276 1586 
Q 1697 1684 2075 1684 
L 2075 1947 
Q 2075 2131 1994 2304 
Q 1913 2478 1759 2589 
Q 1606 2700 1422 2700 
Q 997 2700 775 2509 
Q 897 2509 976 2417 
Q 1056 2325 1056 2203 
Q 1056 2075 965 1984 
Q 875 1894 750 1894 
Q 622 1894 531 1984 
Q 441 2075 441 2203 
Q 441 2541 747 2705 
Q 1053 2869 1422 2869 
Q 1681 2869 1943 2758 
Q 2206 2647 2373 2440 
Q 2541 2234 2541 1959 
L 2541 519 
Q 2541 394 2594 289 
Q 2647 184 2759 184 
Q 2866 184 2917 290 
Q 2969 397 2969 519 
L 2969 928 
L 3156 928 
L 3156 519 
Q 3156 375 3081 245 
Q 3006 116 2879 39 
Q 2753 -38 2606 -38 
Q 2419 -38 2283 107 
Q 2147 253 2131 453 
Q 2013 213 1781 70 
Q 1550 -72 1288 -72 
Q 1044 -72 808 0 
Q 572 72 414 226 
Q 256 381 256 628 
z
M 775 628 
Q 775 403 940 250 
Q 1106 97 1331 97 
Q 1538 97 1706 200 
Q 1875 303 1975 481 
Q 2075 659 2075 856 
L 2075 1522 
Q 1784 1522 1479 1426 
Q 1175 1331 975 1128 
Q 775 925 775 628 
z
" transform="scale(0.015625)"/>
       <path id="Cmr10-6f" d="M 1600 -72 
Q 1216 -72 887 123 
Q 559 319 368 647 
Q 178 975 178 1363 
Q 178 1656 283 1928 
Q 388 2200 583 2414 
Q 778 2628 1037 2748 
Q 1297 2869 1600 2869 
Q 1994 2869 2317 2661 
Q 2641 2453 2828 2104 
Q 3016 1756 3016 1363 
Q 3016 978 2825 648 
Q 2634 319 2307 123 
Q 1981 -72 1600 -72 
z
M 1600 116 
Q 2113 116 2284 487 
Q 2456 859 2456 1434 
Q 2456 1756 2422 1967 
Q 2388 2178 2272 2350 
Q 2200 2456 2089 2536 
Q 1978 2616 1854 2658 
Q 1731 2700 1600 2700 
Q 1400 2700 1220 2609 
Q 1041 2519 922 2350 
Q 803 2169 770 1951 
Q 738 1734 738 1434 
Q 738 1075 800 789 
Q 863 503 1052 309 
Q 1241 116 1600 116 
z
" transform="scale(0.015625)"/>
       <path id="Cmr10-6e" d="M 191 0 
L 191 225 
Q 409 225 550 259 
Q 691 294 691 428 
L 691 2175 
Q 691 2347 639 2423 
Q 588 2500 491 2517 
Q 394 2534 191 2534 
L 191 2759 
L 1119 2828 
L 1119 2203 
Q 1247 2478 1498 2653 
Q 1750 2828 2047 2828 
Q 2491 2828 2714 2615 
Q 2938 2403 2938 1966 
L 2938 428 
Q 2938 294 3078 259 
Q 3219 225 3438 225 
L 3438 0 
L 1972 0 
L 1972 225 
Q 2191 225 2331 259 
Q 2472 294 2472 428 
L 2472 1947 
Q 2472 2259 2381 2461 
Q 2291 2663 2009 2663 
Q 1638 2663 1398 2366 
Q 1159 2069 1159 1691 
L 1159 428 
Q 1159 294 1300 259 
Q 1441 225 1656 225 
L 1656 0 
L 191 0 
z
" transform="scale(0.015625)"/>
      </defs>
      <use xlink:href="#Cmr10-45"/>
      <use xlink:href="#Cmr10-6c" transform="translate(68.017578 0)"/>
      <use xlink:href="#Cmr10-65" transform="translate(95.703125 0)"/>
      <use xlink:href="#Cmr10-76" transform="translate(140.087891 0)"/>
      <use xlink:href="#Cmr10-61" transform="translate(192.773438 0)"/>
      <use xlink:href="#Cmr10-74" transform="translate(242.773438 0)"/>
      <use xlink:href="#Cmr10-69" transform="translate(281.591797 0)"/>
      <use xlink:href="#Cmr10-6f" transform="translate(309.277344 0)"/>
      <use xlink:href="#Cmr10-6e" transform="translate(359.277344 0)"/>
      <use xlink:href="#Cmr10-20" transform="translate(414.794922 0)"/>
      <use xlink:href="#Cmr10-28" transform="translate(448.095703 0)"/>
      <use xlink:href="#Cmr10-64" transform="translate(486.914062 0)"/>
      <use xlink:href="#Cmr10-65" transform="translate(542.431641 0)"/>
      <use xlink:href="#Cmr10-67" transform="translate(586.816406 0)"/>
      <use xlink:href="#Cmr10-72" transform="translate(636.816406 0)"/>
      <use xlink:href="#Cmr10-65" transform="translate(675.927734 0)"/>
      <use xlink:href="#Cmr10-65" transform="translate(720.3125 0)"/>
      <use xlink:href="#Cmr10-73" transform="translate(764.697266 0)"/>
      <use xlink:href="#Cmr10-29" transform="translate(804.101562 0)"/>
     </g>
    </g>
   </g>
   <g id="line2d_140">
    <path d="M 513.139897 341.437581 
L 512.928925 340.134954 
L 512.709925 338.808063 
L 512.48247 337.455706 
L 512.246102 336.076602 
L 512.000321 334.669352 
L 511.7446 333.232496 
L 511.478365 331.764476 
L 511.200997 330.26359 
L 510.911831 328.728051 
L 510.610147 327.155949 
L 510.295161 325.545195 
L 509.966029 323.893589 
L 509.621832 322.198756 
L 509.261571 320.458154 
L 508.884152 318.669009 
L 508.488387 316.828376 
L 508.072978 314.933086 
L 507.636491 312.97967 
L 507.177365 310.964435 
L 506.693879 308.883394 
L 506.184125 306.732186 
L 505.646009 304.506147 
L 505.077208 302.200236 
L 504.475131 299.808939 
L 503.836908 297.326348 
L 503.159331 294.746048 
L 502.438817 292.061122 
L 501.671327 289.264025 
L 500.852331 286.346674 
L 499.97672 283.300353 
L 499.038685 280.115609 
L 498.03165 276.782372 
L 496.948118 273.289885 
L 495.77949 269.626626 
L 494.515924 265.780528 
L 493.146085 261.738986 
L 491.656838 257.488915 
L 490.032983 253.017186 
L 488.256822 248.310868 
L 486.307711 243.357834 
L 484.161437 238.147362 
L 481.789655 232.671424 
L 479.159088 226.926032 
L 476.230609 220.913021 
L 472.958468 214.642889 
L 469.289391 208.137948 
L 465.161862 201.436267 
L 460.506254 194.596904 
L 455.245883 187.70529 
L 449.300049 180.878715 
L 442.590829 174.271338 
L 435.054273 168.075869 
L 426.657694 162.52011 
L 417.421518 157.85463 
L 407.442075 154.329975 
L 396.904581 152.163354 
L 386.075394 151.501675 
L 375.268929 152.392304 
L 364.795729 154.77274 
L 354.912065 158.484116 
L 345.790425 163.302263 
L 337.515266 168.974741 
L 330.098021 175.252983 
L 323.500317 181.913509 
L 317.655313 188.768877 
L 312.484144 195.670198 
L 307.906359 202.504932 
L 303.846141 209.191651 
L 300.234992 215.674522 
L 297.012573 221.91798 
L 294.126724 227.901607 
L 291.532696 233.616305 
L 289.192238 239.061239 
L 287.072821 244.241103 
L 285.146737 249.164399 
L 283.39031 253.842154 
L 281.783349 258.286681 
L 280.308532 262.511005 
L 278.950982 266.528288 
L 277.697831 270.351604 
L 276.537972 273.993519 
L 275.461755 277.466044 
L 274.460745 280.78063 
L 273.527585 283.94796 
L 272.655817 286.978026 
L 271.839735 289.880205 
L 271.074317 292.663138 
L 270.35511 295.334836 
L 269.678142 297.902777 
L 269.039885 300.373813 
L 268.437181 302.7543 
L 267.867205 305.050089 
L 267.327403 307.266643 
" clip-path="url(#p57ec7a0d9d)" style="fill: none; stroke: #0c5da5; stroke-width: 2; stroke-linecap: square"/>
   </g>
   <g id="line2d_141">
    <defs>
     <path id="m1b40ec4a8d" d="M 0 3 
C 0.795609 3 1.55874 2.683901 2.12132 2.12132 
C 2.683901 1.55874 3 0.795609 3 0 
C 3 -0.795609 2.683901 -1.55874 2.12132 -2.12132 
C 1.55874 -2.683901 0.795609 -3 0 -3 
C -0.795609 -3 -1.55874 -2.683901 -2.12132 -2.12132 
C -2.683901 -1.55874 -3 -0.795609 -3 0 
C -3 0.795609 -2.683901 1.55874 -2.12132 2.12132 
C -1.55874 2.683901 -0.795609 3 0 3 
z
" style="stroke: #00b945"/>
    </defs>
    <g clip-path="url(#p57ec7a0d9d)">
     <use xlink:href="#m1b40ec4a8d" x="513.139897" y="341.437581" style="fill: #00b945; stroke: #00b945"/>
    </g>
   </g>
   <g id="line2d_142">
    <defs>
     <path id="m5a5553f3ea" d="M -3 3 
L 3 3 
L 3 -3 
L -3 -3 
z
" style="stroke: #ff9500; stroke-linejoin: miter"/>
    </defs>
    <g clip-path="url(#p57ec7a0d9d)">
     <use xlink:href="#m5a5553f3ea" x="267.327403" y="307.266643" style="fill: #ff9500; stroke: #ff9500; stroke-linejoin: miter"/>
    </g>
   </g>
   <g id="line2d_143">
    <path d="M 526.582583 347.303807 
L 526.711822 346.094875 
L 526.84443 344.866024 
L 526.980586 343.616283 
L 527.120473 342.34465 
L 527.264289 341.050059 
L 527.41225 339.731344 
L 527.564582 338.387301 
L 527.721533 337.016604 
L 527.883364 335.617869 
L 528.050358 334.189616 
L 528.222822 332.730225 
L 528.401086 331.237997 
L 528.585502 329.711107 
L 528.77646 328.14756 
L 528.974372 326.545261 
L 529.179697 324.901903 
L 529.392923 323.215039 
L 529.614587 321.482032 
L 529.845278 319.699988 
L 530.085633 317.865822 
L 530.336352 315.976195 
L 530.59821 314.027436 
L 530.872049 312.015629 
L 531.158808 309.936446 
L 531.459518 307.785231 
L 531.775321 305.556909 
L 532.107494 303.245884 
L 532.457453 300.846101 
L 532.826777 298.350933 
L 533.21725 295.753058 
L 533.630861 293.044533 
L 534.069872 290.216544 
L 534.536831 287.25947 
L 535.034637 284.16273 
L 535.566613 280.914593 
L 536.136554 277.502214 
L 536.748832 273.911437 
L 537.408524 270.126576 
L 538.121517 266.130475 
L 538.894723 261.904128 
L 539.736262 257.426768 
L 540.655754 252.675664 
L 541.6647 247.62592 
L 542.776902 242.250693 
L 544.009078 236.521179 
L 545.381694 230.406726 
L 546.919941 223.875668 
L 548.65525 216.895823 
L 550.627137 209.436292 
L 552.885885 201.469569 
L 555.496288 192.974746 
L 558.542678 183.94295 
L 562.136125 174.384554 
L 566.424463 164.339545 
L 571.605379 153.893135 
L 577.943207 143.196184 
L 585.785022 132.494373 
" clip-path="url(#p57ec7a0d9d)" style="fill: none; stroke: #ff2c00; stroke-width: 2; stroke-linecap: square"/>
   </g>
   <g id="line2d_144">
    <path d="M 37.564503 122.164287 
L 49.759848 112.751324 
L 64.738216 104.986396 
L 82.42512 99.722161 
L 101.919637 97.717881 
L 121.525041 99.312039 
L 139.489694 104.234672 
L 154.803057 111.759102 
L 167.310853 121.02919 
L 177.349172 131.294105 
L 185.394004 141.986087 
L 191.887919 152.710183 
L 197.188599 163.207256 
L 201.569179 173.316364 
L 205.234405 182.945885 
L 208.337132 192.051064 
L 210.992182 200.618583 
L 213.286672 208.655653 
L 215.287342 216.181895 
L 217.045969 223.224251 
L 218.603219 229.813559 
L 219.991317 235.981789 
L 221.236145 241.760941 
L 222.358637 247.181749 
L 223.375906 252.273287 
L 224.302085 257.0628 
L 225.1489 261.57535 
L 225.926171 265.83395 
L 226.642195 269.859728 
L 227.303995 273.671802 
L 227.917585 277.287672 
L 228.488118 280.723144 
L 229.020041 283.992559 
L 229.517225 287.109008 
L 229.983029 290.084273 
L 230.420408 292.929146 
L 230.831949 295.653366 
L 231.219935 298.265794 
L 231.586398 300.774556 
L 231.933136 303.187003 
L 232.26175 305.509841 
L 232.573681 307.749256 
L 232.870212 309.910836 
L 233.152508 311.999766 
L 233.42161 314.020757 
L 233.678462 315.978134 
L 233.923925 317.875922 
L 234.158776 319.717782 
L 234.383721 321.507093 
" clip-path="url(#p57ec7a0d9d)" style="fill: none; stroke: #845b97; stroke-width: 2; stroke-linecap: square"/>
   </g>
   <g id="line2d_145">
    <defs>
     <path id="m986ec3b456" d="M 0 3 
C 0.795609 3 1.55874 2.683901 2.12132 2.12132 
C 2.683901 1.55874 3 0.795609 3 0 
C 3 -0.795609 2.683901 -1.55874 2.12132 -2.12132 
C 1.55874 -2.683901 0.795609 -3 0 -3 
C -0.795609 -3 -1.55874 -2.683901 -2.12132 -2.12132 
C -2.683901 -1.55874 -3 -0.795609 -3 0 
C -3 0.795609 -2.683901 1.55874 -2.12132 2.12132 
C -1.55874 2.683901 -0.795609 3 0 3 
z
" style="stroke: #474747"/>
    </defs>
    <g clip-path="url(#p57ec7a0d9d)">
     <use xlink:href="#m986ec3b456" x="526.582583" y="347.303807" style="fill: #474747; stroke: #474747"/>
    </g>
   </g>
   <g id="line2d_146">
    <defs>
     <path id="m13a1faab56" d="M -3 3 
L 3 3 
L 3 -3 
L -3 -3 
z
" style="stroke: #9e9e9e; stroke-linejoin: miter"/>
    </defs>
    <g clip-path="url(#p57ec7a0d9d)">
     <use xlink:href="#m13a1faab56" x="234.383721" y="321.507093" style="fill: #9e9e9e; stroke: #9e9e9e; stroke-linejoin: miter"/>
    </g>
   </g>
   <g id="line2d_147">
    <path d="M 538.530586 346.117943 
L 538.958969 344.945094 
L 539.399852 343.754652 
L 539.853831 342.545894 
L 540.321542 341.318047 
L 540.80366 340.070302 
L 541.300903 338.801805 
L 541.814038 337.511661 
L 542.34388 336.198927 
L 542.891299 334.862613 
L 543.457223 333.501678 
L 544.042644 332.115025 
L 544.648623 330.701506 
L 545.276294 329.259911 
L 545.926872 327.788971 
L 546.60166 326.287356 
L 547.302056 324.753668 
L 548.029559 323.186446 
L 548.785781 321.584159 
L 549.572458 319.94521 
L 550.391454 318.267931 
L 551.244781 316.550589 
L 552.134605 314.791382 
L 553.063265 312.988448 
L 554.033286 311.139867 
L 555.047393 309.24367 
L 556.108534 307.297848 
L 557.219897 305.300367 
L 558.384929 303.249186 
L 559.60736 301.14228 
L 560.891229 298.97767 
L 562.240902 296.753461 
L 563.661105 294.467889 
L 565.156946 292.11938 
L 566.73394 289.706621 
L 568.398036 287.228645 
L 570.155639 284.684943 
L 572.013627 282.075583 
L 573.979361 279.401366 
L 576.06069 276.664001 
L 578.265936 273.866315 
L 580.603863 271.012483 
L 583.08362 268.108303 
L 585.714656 265.161484 
L 588.506581 262.18197 
" clip-path="url(#p57ec7a0d9d)" style="fill: none; stroke: #0c5da5; stroke-width: 2; stroke-linecap: square"/>
   </g>
   <g id="line2d_148">
    <path d="M 33.468987 259.182266 
L 36.611201 256.177764 
L 39.941957 253.187045 
L 43.469001 250.232109 
L 47.198589 247.33852 
L 51.134915 244.535384 
L 55.279461 241.855137 
L 59.630307 239.333064 
L 64.181444 237.00652 
L 68.922165 234.91383 
L 73.836608 233.092867 
L 78.903556 231.579385 
L 84.096556 230.405198 
L 89.384451 229.596369 
L 94.732295 229.171598 
L 100.102646 229.14099 
L 105.457097 229.505362 
L 110.757919 230.256188 
L 115.969624 231.37618 
L 121.060306 232.840438 
L 126.002636 234.618004 
L 130.77445 236.673659 
L 135.358948 238.969748 
L 139.744542 241.467891 
L 143.924435 244.13045 
L 147.896033 246.92169 
L 151.660269 249.808617 
L 155.220906 252.761501 
L 158.583883 255.754142 
L 161.756719 258.763913 
L 164.748008 261.771647 
L 167.566995 264.761414 
L 170.223247 267.720227 
L 172.726386 270.637726 
L 175.085898 273.505838 
L 177.310995 276.318463 
L 179.410513 279.071172 
L 181.392856 281.76093 
L 183.265955 284.385862 
L 185.037259 286.945031 
L 186.71373 289.438264 
L 188.301856 291.865991 
L 189.807664 294.229119 
L 191.236744 296.528917 
L 192.594275 298.76693 
L 193.885046 300.944904 
L 195.113488 303.064723 
L 196.283692 305.128364 
L 197.399443 307.137853 
L 198.464236 309.095241 
L 199.481302 311.002569 
L 200.45363 312.861861 
L 201.383984 314.675099 
L 202.274923 316.444217 
L 203.128816 318.171096 
L 203.947859 319.857552 
L 204.73409 321.505335 
L 205.4894 323.11613 
L 206.215544 324.69155 
L 206.914155 326.233141 
L 207.586754 327.742381 
" clip-path="url(#p57ec7a0d9d)" style="fill: none; stroke: #00b945; stroke-width: 2; stroke-linecap: square"/>
   </g>
   <g id="line2d_149">
    <defs>
     <path id="m6fad3c4cfb" d="M 0 3 
C 0.795609 3 1.55874 2.683901 2.12132 2.12132 
C 2.683901 1.55874 3 0.795609 3 0 
C 3 -0.795609 2.683901 -1.55874 2.12132 -2.12132 
C 1.55874 -2.683901 0.795609 -3 0 -3 
C -0.795609 -3 -1.55874 -2.683901 -2.12132 -2.12132 
C -2.683901 -1.55874 -3 -0.795609 -3 0 
C -3 0.795609 -2.683901 1.55874 -2.12132 2.12132 
C -1.55874 2.683901 -0.795609 3 0 3 
z
" style="stroke: #ff9500"/>
    </defs>
    <g clip-path="url(#p57ec7a0d9d)">
     <use xlink:href="#m6fad3c4cfb" x="538.530586" y="346.117943" style="fill: #ff9500; stroke: #ff9500"/>
    </g>
   </g>
   <g id="line2d_150">
    <defs>
     <path id="m655d9f94d2" d="M -3 3 
L 3 3 
L 3 -3 
L -3 -3 
z
" style="stroke: #ff2c00; stroke-linejoin: miter"/>
    </defs>
    <g clip-path="url(#p57ec7a0d9d)">
     <use xlink:href="#m655d9f94d2" x="207.586754" y="327.742381" style="fill: #ff2c00; stroke: #ff2c00; stroke-linejoin: miter"/>
    </g>
   </g>
   <g id="patch_3">
    <path d="M 31.1 350.566875 
L 31.1 17.926875 
" style="fill: none; stroke: #000000; stroke-width: 0.5; stroke-linejoin: miter; stroke-linecap: square"/>
   </g>
   <g id="patch_4">
    <path d="M 589.1 350.566875 
L 589.1 17.926875 
" style="fill: none; stroke: #000000; stroke-width: 0.5; stroke-linejoin: miter; stroke-linecap: square"/>
   </g>
   <g id="patch_5">
    <path d="M 31.1 350.566875 
L 589.1 350.566875 
" style="fill: none; stroke: #000000; stroke-width: 0.5; stroke-linejoin: miter; stroke-linecap: square"/>
   </g>
   <g id="patch_6">
    <path d="M 31.1 17.926875 
L 589.1 17.926875 
" style="fill: none; stroke: #000000; stroke-width: 0.5; stroke-linejoin: miter; stroke-linecap: square"/>
   </g>
   <g id="text_18">
    <!-- Elevation vs Azimuth -->
    <g transform="translate(252.877813 11.926875) scale(0.12 -0.12)">
     <use xlink:href="#Cmr10-45"/>
     <use xlink:href="#Cmr10-6c" transform="translate(68.017578 0)"/>
     <use xlink:href="#Cmr10-65" transform="translate(95.703125 0)"/>
     <use xlink:href="#Cmr10-76" transform="translate(140.087891 0)"/>
     <use xlink:href="#Cmr10-61" transform="translate(192.773438 0)"/>
     <use xlink:href="#Cmr10-74" transform="translate(242.773438 0)"/>
     <use xlink:href="#Cmr10-69" transform="translate(281.591797 0)"/>
     <use xlink:href="#Cmr10-6f" transform="translate(309.277344 0)"/>
     <use xlink:href="#Cmr10-6e" transform="translate(359.277344 0)"/>
     <use xlink:href="#Cmr10-20" transform="translate(414.794922 0)"/>
     <use xlink:href="#Cmr10-76" transform="translate(448.095703 0)"/>
     <use xlink:href="#Cmr10-73" transform="translate(500.78125 0)"/>
     <use xlink:href="#Cmr10-20" transform="translate(540.185547 0)"/>
     <use xlink:href="#Cmr10-41" transform="translate(573.486328 0)"/>
     <use xlink:href="#Cmr10-7a" transform="translate(648.486328 0)"/>
     <use xlink:href="#Cmr10-69" transform="translate(692.871094 0)"/>
     <use xlink:href="#Cmr10-6d" transform="translate(720.556641 0)"/>
     <use xlink:href="#Cmr10-75" transform="translate(803.857422 0)"/>
     <use xlink:href="#Cmr10-74" transform="translate(859.375 0)"/>
     <use xlink:href="#Cmr10-68" transform="translate(898.193359 0)"/>
    </g>
   </g>
   <g id="legend_1">
    <g id="patch_7">
     <path d="M 483.920313 33.926875 
L 503.920313 33.926875 
L 503.920313 26.926875 
L 483.920313 26.926875 
z
" style="fill: #808080; fill-opacity: 0.2; stroke: #808080; stroke-opacity: 0.2; stroke-linejoin: miter"/>
    </g>
    <g id="text_19">
     <!-- Elevation Mask -->
     <g transform="translate(511.920313 33.926875) scale(0.1 -0.1)">
      <defs>
       <path id="Cmr10-4d" d="M 225 0 
L 225 225 
Q 884 225 884 603 
L 884 3944 
Q 884 4147 225 4147 
L 225 4372 
L 1434 4372 
Q 1513 4372 1538 4300 
L 2931 678 
L 4325 4300 
Q 4350 4372 4428 4372 
L 5638 4372 
L 5638 4147 
Q 4978 4147 4978 3944 
L 4978 428 
Q 4978 225 5638 225 
L 5638 0 
L 3775 0 
L 3775 225 
Q 4434 225 4434 428 
L 4434 4153 
L 2859 72 
Q 2831 0 2753 0 
Q 2672 0 2644 72 
L 1088 4103 
L 1088 603 
Q 1088 225 1747 225 
L 1747 0 
L 225 0 
z
" transform="scale(0.015625)"/>
       <path id="Cmr10-6b" d="M 166 0 
L 166 225 
Q 384 225 525 259 
Q 666 294 666 428 
L 666 3788 
Q 666 3959 614 4036 
Q 563 4113 466 4130 
Q 369 4147 166 4147 
L 166 4372 
L 1113 4441 
L 1113 1403 
L 1972 2156 
Q 2100 2278 2100 2381 
Q 2100 2456 2047 2495 
Q 1994 2534 1919 2534 
L 1919 2759 
L 3122 2759 
L 3122 2534 
Q 2688 2534 2253 2156 
L 1797 1759 
L 2613 603 
Q 2781 363 2895 294 
Q 3009 225 3272 225 
L 3272 0 
L 1997 0 
L 1997 225 
Q 2216 225 2216 359 
Q 2216 456 2100 603 
L 1484 1478 
L 1094 1141 
L 1094 428 
Q 1094 294 1236 259 
Q 1378 225 1594 225 
L 1594 0 
L 166 0 
z
" transform="scale(0.015625)"/>
      </defs>
      <use xlink:href="#Cmr10-45"/>
      <use xlink:href="#Cmr10-6c" transform="translate(68.017578 0)"/>
      <use xlink:href="#Cmr10-65" transform="translate(95.703125 0)"/>
      <use xlink:href="#Cmr10-76" transform="translate(140.087891 0)"/>
      <use xlink:href="#Cmr10-61" transform="translate(192.773438 0)"/>
      <use xlink:href="#Cmr10-74" transform="translate(242.773438 0)"/>
      <use xlink:href="#Cmr10-69" transform="translate(281.591797 0)"/>
      <use xlink:href="#Cmr10-6f" transform="translate(309.277344 0)"/>
      <use xlink:href="#Cmr10-6e" transform="translate(359.277344 0)"/>
      <use xlink:href="#Cmr10-20" transform="translate(414.794922 0)"/>
      <use xlink:href="#Cmr10-4d" transform="translate(448.095703 0)"/>
      <use xlink:href="#Cmr10-61" transform="translate(539.697266 0)"/>
      <use xlink:href="#Cmr10-73" transform="translate(589.697266 0)"/>
      <use xlink:href="#Cmr10-6b" transform="translate(629.101562 0)"/>
     </g>
    </g>
    <g id="line2d_151">
     <path d="M 483.920313 44.365937 
L 493.920313 44.365937 
L 503.920313 44.365937 
" style="fill: none; stroke: #0c5da5; stroke-width: 2; stroke-linecap: square"/>
    </g>
    <g id="text_20">
     <!-- Pass 1 -->
     <g transform="translate(511.920313 47.865937) scale(0.1 -0.1)">
      <defs>
       <path id="Cmr10-50" d="M 213 0 
L 213 225 
Q 872 225 872 428 
L 872 3944 
Q 872 4147 213 4147 
L 213 4372 
L 2491 4372 
Q 2841 4372 3191 4228 
Q 3541 4084 3767 3809 
Q 3994 3534 3994 3169 
Q 3994 2813 3766 2544 
Q 3538 2275 3191 2136 
Q 2844 1997 2491 1997 
L 1466 1997 
L 1466 428 
Q 1466 225 2125 225 
L 2125 0 
L 213 0 
z
M 1447 2188 
L 2316 2188 
Q 2669 2188 2887 2289 
Q 3106 2391 3207 2605 
Q 3309 2819 3309 3169 
Q 3309 3691 3079 3919 
Q 2850 4147 2316 4147 
L 1772 4147 
Q 1656 4147 1592 4137 
Q 1528 4128 1487 4083 
Q 1447 4038 1447 3944 
L 1447 2188 
z
" transform="scale(0.015625)"/>
      </defs>
      <use xlink:href="#Cmr10-50"/>
      <use xlink:href="#Cmr10-61" transform="translate(68.017578 0)"/>
      <use xlink:href="#Cmr10-73" transform="translate(118.017578 0)"/>
      <use xlink:href="#Cmr10-73" transform="translate(157.421875 0)"/>
      <use xlink:href="#Cmr10-20" transform="translate(196.826172 0)"/>
      <use xlink:href="#Cmr10-31" transform="translate(230.126953 0)"/>
     </g>
    </g>
    <g id="line2d_152">
     <path d="M 483.920313 58.305 
L 493.920313 58.305 
L 503.920313 58.305 
" style="fill: none; stroke: #ff2c00; stroke-width: 2; stroke-linecap: square"/>
    </g>
    <g id="text_21">
     <!-- Pass 2 -->
     <g transform="translate(511.920313 61.805) scale(0.1 -0.1)">
      <use xlink:href="#Cmr10-50"/>
      <use xlink:href="#Cmr10-61" transform="translate(68.017578 0)"/>
      <use xlink:href="#Cmr10-73" transform="translate(118.017578 0)"/>
      <use xlink:href="#Cmr10-73" transform="translate(157.421875 0)"/>
      <use xlink:href="#Cmr10-20" transform="translate(196.826172 0)"/>
      <use xlink:href="#Cmr10-32" transform="translate(230.126953 0)"/>
     </g>
    </g>
    <g id="line2d_153">
     <path d="M 483.920313 72.244062 
L 493.920313 72.244062 
L 503.920313 72.244062 
" style="fill: none; stroke: #0c5da5; stroke-width: 2; stroke-linecap: square"/>
    </g>
    <g id="text_22">
     <!-- Pass 3 -->
     <g transform="translate(511.920313 75.744062) scale(0.1 -0.1)">
      <use xlink:href="#Cmr10-50"/>
      <use xlink:href="#Cmr10-61" transform="translate(68.017578 0)"/>
      <use xlink:href="#Cmr10-73" transform="translate(118.017578 0)"/>
      <use xlink:href="#Cmr10-73" transform="translate(157.421875 0)"/>
      <use xlink:href="#Cmr10-20" transform="translate(196.826172 0)"/>
      <use xlink:href="#Cmr10-33" transform="translate(230.126953 0)"/>
     </g>
    </g>
   </g>
  </g>
 </g>
 <defs>
  <clipPath id="p57ec7a0d9d">
   <rect x="31.1" y="17.926875" width="558" height="332.64"/>
  </clipPath>
 </defs>
</svg>
