<?xml version="1.0" encoding="utf-8" standalone="no"?>
<!DOCTYPE svg PUBLIC "-//W3C//DTD SVG 1.1//EN"
  "http://www.w3.org/Graphics/SVG/1.1/DTD/svg11.dtd">
<svg xmlns:xlink="http://www.w3.org/1999/xlink" width="590.6825pt" height="376.1195pt" viewBox="0 0 590.6825 376.1195" xmlns="http://www.w3.org/2000/svg" version="1.1">
 <metadata>
  <rdf:RDF xmlns:dc="http://purl.org/dc/elements/1.1/" xmlns:cc="http://creativecommons.org/ns#" xmlns:rdf="http://www.w3.org/1999/02/22-rdf-syntax-ns#">
   <cc:Work>
    <dc:type rdf:resource="http://purl.org/dc/dcmitype/StillImage"/>
    <dc:date>2026-04-06T18:52:20.576021</dc:date>
    <dc:format>image/svg+xml</dc:format>
    <dc:creator>
     <cc:Agent>
      <dc:title>Matplotlib v3.10.8, https://matplotlib.org/</dc:title>
     </cc:Agent>
    </dc:creator>
   </cc:Work>
  </rdf:RDF>
 </metadata>
 <defs>
  <style type="text/css">*{stroke-linejoin: round; stroke-linecap: butt}</style>
 </defs>
 <g id="figure_1">
  <g id="patch_1">
   <path d="M -0 376.1195 
L 590.6825 376.1195 
L 590.6825 0 
L -0 0 
z
" style="fill: #ffffff"/>
  </g>
  <g id="axes_1">
   <g id="patch_2">
    <path d="M 29.0825 349.5345 
L 587.0825 349.5345 
L 587.0825 16.8945 
L 29.0825 16.8945 
z
" style="fill: #ffffff"/>
   </g>
   <g id="FillBetweenPolyCollection_1">
    <defs>
     <path id="m7e0b11d8a1" d="M 29.0825 -82.025 
L 29.0825 -26.585 
L 30.6325 -26.585 
L 32.1825 -26.585 
L 33.7325 -26.585 
L 35.2825 -26.585 
L 36.8325 -26.585 
L 38.3825 -26.585 
L 39.9325 -26.585 
L 41.4825 -26.585 
L 43.0325 -26.585 
L 44.5825 -26.585 
L 46.1325 -26.585 
L 47.6825 -26.585 
L 49.2325 -26.585 
L 50.7825 -26.585 
L 52.3325 -26.585 
L 53.8825 -26.585 
L 55.4325 -26.585 
L 56.9825 -26.585 
L 58.5325 -26.585 
L 60.0825 -26.585 
L 61.6325 -26.585 
L 63.1825 -26.585 
L 64.7325 -26.585 
L 66.2825 -26.585 
L 67.8325 -26.585 
L 69.3825 -26.585 
L 70.9325 -26.585 
L 72.4825 -26.585 
L 74.0325 -26.585 
L 75.5825 -26.585 
L 77.1325 -26.585 
L 78.6825 -26.585 
L 80.2325 -26.585 
L 81.7825 -26.585 
L 83.3325 -26.585 
L 84.8825 -26.585 
L 86.4325 -26.585 
L 87.9825 -26.585 
L 89.5325 -26.585 
L 91.0825 -26.585 
L 92.6325 -26.585 
L 94.1825 -26.585 
L 95.7325 -26.585 
L 97.2825 -26.585 
L 98.8325 -26.585 
L 100.3825 -26.585 
L 101.9325 -26.585 
L 103.4825 -26.585 
L 105.0325 -26.585 
L 106.5825 -26.585 
L 108.1325 -26.585 
L 109.6825 -26.585 
L 111.2325 -26.585 
L 112.7825 -26.585 
L 114.3325 -26.585 
L 115.8825 -26.585 
L 117.4325 -26.585 
L 118.9825 -26.585 
L 120.5325 -26.585 
L 122.0825 -26.585 
L 123.6325 -26.585 
L 125.1825 -26.585 
L 126.7325 -26.585 
L 128.2825 -26.585 
L 129.8325 -26.585 
L 131.3825 -26.585 
L 132.9325 -26.585 
L 134.4825 -26.585 
L 136.0325 -26.585 
L 137.5825 -26.585 
L 139.1325 -26.585 
L 140.6825 -26.585 
L 142.2325 -26.585 
L 143.7825 -26.585 
L 145.3325 -26.585 
L 146.8825 -26.585 
L 148.4325 -26.585 
L 149.9825 -26.585 
L 151.5325 -26.585 
L 153.0825 -26.585 
L 154.6325 -26.585 
L 156.1825 -26.585 
L 157.7325 -26.585 
L 159.2825 -26.585 
L 160.8325 -26.585 
L 162.3825 -26.585 
L 163.9325 -26.585 
L 165.4825 -26.585 
L 167.0325 -26.585 
L 168.5825 -26.585 
L 170.1325 -26.585 
L 171.6825 -26.585 
L 173.2325 -26.585 
L 174.7825 -26.585 
L 176.3325 -26.585 
L 177.8825 -26.585 
L 179.4325 -26.585 
L 180.9825 -26.585 
L 182.5325 -26.585 
L 184.0825 -26.585 
L 185.6325 -26.585 
L 187.1825 -26.585 
L 188.7325 -26.585 
L 190.2825 -26.585 
L 191.8325 -26.585 
L 193.3825 -26.585 
L 194.9325 -26.585 
L 196.4825 -26.585 
L 198.0325 -26.585 
L 199.5825 -26.585 
L 201.1325 -26.585 
L 202.6825 -26.585 
L 204.2325 -26.585 
L 205.7825 -26.585 
L 207.3325 -26.585 
L 208.8825 -26.585 
L 210.4325 -26.585 
L 211.9825 -26.585 
L 213.5325 -26.585 
L 215.0825 -26.585 
L 216.6325 -26.585 
L 218.1825 -26.585 
L 219.7325 -26.585 
L 221.2825 -26.585 
L 222.8325 -26.585 
L 224.3825 -26.585 
L 225.9325 -26.585 
L 227.4825 -26.585 
L 229.0325 -26.585 
L 230.5825 -26.585 
L 232.1325 -26.585 
L 233.6825 -26.585 
L 235.2325 -26.585 
L 236.7825 -26.585 
L 238.3325 -26.585 
L 239.8825 -26.585 
L 241.4325 -26.585 
L 242.9825 -26.585 
L 244.5325 -26.585 
L 246.0825 -26.585 
L 247.6325 -26.585 
L 249.1825 -26.585 
L 250.7325 -26.585 
L 252.2825 -26.585 
L 253.8325 -26.585 
L 255.3825 -26.585 
L 256.9325 -26.585 
L 258.4825 -26.585 
L 260.0325 -26.585 
L 261.5825 -26.585 
L 263.1325 -26.585 
L 264.6825 -26.585 
L 266.2325 -26.585 
L 267.7825 -26.585 
L 269.3325 -26.585 
L 270.8825 -26.585 
L 272.4325 -26.585 
L 273.9825 -26.585 
L 275.5325 -26.585 
L 277.0825 -26.585 
L 278.6325 -26.585 
L 280.1825 -26.585 
L 281.7325 -26.585 
L 283.2825 -26.585 
L 284.8325 -26.585 
L 286.3825 -26.585 
L 287.9325 -26.585 
L 289.4825 -26.585 
L 291.0325 -26.585 
L 292.5825 -26.585 
L 294.1325 -26.585 
L 295.6825 -26.585 
L 297.2325 -26.585 
L 298.7825 -26.585 
L 300.3325 -26.585 
L 301.8825 -26.585 
L 303.4325 -26.585 
L 304.9825 -26.585 
L 306.5325 -26.585 
L 308.0825 -26.585 
L 309.6325 -26.585 
L 311.1825 -26.585 
L 312.7325 -26.585 
L 314.2825 -26.585 
L 315.8325 -26.585 
L 317.3825 -26.585 
L 318.9325 -26.585 
L 320.4825 -26.585 
L 322.0325 -26.585 
L 323.5825 -26.585 
L 325.1325 -26.585 
L 326.6825 -26.585 
L 328.2325 -26.585 
L 329.7825 -26.585 
L 331.3325 -26.585 
L 332.8825 -26.585 
L 334.4325 -26.585 
L 335.9825 -26.585 
L 337.5325 -26.585 
L 339.0825 -26.585 
L 340.6325 -26.585 
L 342.1825 -26.585 
L 343.7325 -26.585 
L 345.2825 -26.585 
L 346.8325 -26.585 
L 348.3825 -26.585 
L 349.9325 -26.585 
L 351.4825 -26.585 
L 353.0325 -26.585 
L 354.5825 -26.585 
L 356.1325 -26.585 
L 357.6825 -26.585 
L 359.2325 -26.585 
L 360.7825 -26.585 
L 362.3325 -26.585 
L 363.8825 -26.585 
L 365.4325 -26.585 
L 366.9825 -26.585 
L 368.5325 -26.585 
L 370.0825 -26.585 
L 371.6325 -26.585 
L 373.1825 -26.585 
L 374.7325 -26.585 
L 376.2825 -26.585 
L 377.8325 -26.585 
L 379.3825 -26.585 
L 380.9325 -26.585 
L 382.4825 -26.585 
L 384.0325 -26.585 
L 385.5825 -26.585 
L 387.1325 -26.585 
L 388.6825 -26.585 
L 390.2325 -26.585 
L 391.7825 -26.585 
L 393.3325 -26.585 
L 394.8825 -26.585 
L 396.4325 -26.585 
L 397.9825 -26.585 
L 399.5325 -26.585 
L 401.0825 -26.585 
L 402.6325 -26.585 
L 404.1825 -26.585 
L 405.7325 -26.585 
L 407.2825 -26.585 
L 408.8325 -26.585 
L 410.3825 -26.585 
L 411.9325 -26.585 
L 413.4825 -26.585 
L 415.0325 -26.585 
L 416.5825 -26.585 
L 418.1325 -26.585 
L 419.6825 -26.585 
L 421.2325 -26.585 
L 422.7825 -26.585 
L 424.3325 -26.585 
L 425.8825 -26.585 
L 427.4325 -26.585 
L 428.9825 -26.585 
L 430.5325 -26.585 
L 432.0825 -26.585 
L 433.6325 -26.585 
L 435.1825 -26.585 
L 436.7325 -26.585 
L 438.2825 -26.585 
L 439.8325 -26.585 
L 441.3825 -26.585 
L 442.9325 -26.585 
L 444.4825 -26.585 
L 446.0325 -26.585 
L 447.5825 -26.585 
L 449.1325 -26.585 
L 450.6825 -26.585 
L 452.2325 -26.585 
L 453.7825 -26.585 
L 455.3325 -26.585 
L 456.8825 -26.585 
L 458.4325 -26.585 
L 459.9825 -26.585 
L 461.5325 -26.585 
L 463.0825 -26.585 
L 464.6325 -26.585 
L 466.1825 -26.585 
L 467.7325 -26.585 
L 469.2825 -26.585 
L 470.8325 -26.585 
L 472.3825 -26.585 
L 473.9325 -26.585 
L 475.4825 -26.585 
L 477.0325 -26.585 
L 478.5825 -26.585 
L 480.1325 -26.585 
L 481.6825 -26.585 
L 483.2325 -26.585 
L 484.7825 -26.585 
L 486.3325 -26.585 
L 487.8825 -26.585 
L 489.4325 -26.585 
L 490.9825 -26.585 
L 492.5325 -26.585 
L 494.0825 -26.585 
L 495.6325 -26.585 
L 497.1825 -26.585 
L 498.7325 -26.585 
L 500.2825 -26.585 
L 501.8325 -26.585 
L 503.3825 -26.585 
L 504.9325 -26.585 
L 506.4825 -26.585 
L 508.0325 -26.585 
L 509.5825 -26.585 
L 511.1325 -26.585 
L 512.6825 -26.585 
L 514.2325 -26.585 
L 515.7825 -26.585 
L 517.3325 -26.585 
L 518.8825 -26.585 
L 520.4325 -26.585 
L 521.9825 -26.585 
L 523.5325 -26.585 
L 525.0825 -26.585 
L 526.6325 -26.585 
L 528.1825 -26.585 
L 529.7325 -26.585 
L 531.2825 -26.585 
L 532.8325 -26.585 
L 534.3825 -26.585 
L 535.9325 -26.585 
L 537.4825 -26.585 
L 539.0325 -26.585 
L 540.5825 -26.585 
L 542.1325 -26.585 
L 543.6825 -26.585 
L 545.2325 -26.585 
L 546.7825 -26.585 
L 548.3325 -26.585 
L 549.8825 -26.585 
L 551.4325 -26.585 
L 552.9825 -26.585 
L 554.5325 -26.585 
L 556.0825 -26.585 
L 557.6325 -26.585 
L 559.1825 -26.585 
L 560.7325 -26.585 
L 562.2825 -26.585 
L 563.8325 -26.585 
L 565.3825 -26.585 
L 566.9325 -26.585 
L 568.4825 -26.585 
L 570.0325 -26.585 
L 571.5825 -26.585 
L 573.1325 -26.585 
L 574.6825 -26.585 
L 576.2325 -26.585 
L 577.7825 -26.585 
L 579.3325 -26.585 
L 580.8825 -26.585 
L 582.4325 -26.585 
L 583.9825 -26.585 
L 585.5325 -26.585 
L 587.0825 -26.585 
L 587.0825 -82.025 
L 587.0825 -82.025 
L 585.5325 -79.767946 
L 583.9825 -77.515115 
L 582.4325 -75.270719 
L 580.8825 -73.038954 
L 579.3325 -70.823987 
L 577.7825 -68.62995 
L 576.2325 -66.460927 
L 574.6825 -64.32095 
L 573.1325 -62.213987 
L 571.5825 -60.143936 
L 570.0325 -58.114611 
L 568.4825 -56.129742 
L 566.9325 -54.192962 
L 565.3825 -52.307797 
L 563.8325 -50.477667 
L 562.2825 -48.705868 
L 560.7325 -46.995573 
L 559.1825 -45.349823 
L 557.6325 -43.77152 
L 556.0825 -42.26342 
L 554.5325 -40.828132 
L 552.9825 -39.468107 
L 551.4325 -38.185635 
L 549.8825 -36.982843 
L 548.3325 -35.861688 
L 546.7825 -34.823955 
L 545.2325 -33.871251 
L 543.6825 -33.005007 
L 542.1325 -32.226469 
L 540.5825 -31.536701 
L 539.0325 -30.936583 
L 537.4825 -30.426807 
L 535.9325 -30.007879 
L 534.3825 -29.680117 
L 532.8325 -29.443651 
L 531.2825 -29.298427 
L 529.7325 -29.244201 
L 528.1825 -29.28055 
L 526.6325 -29.406864 
L 525.0825 -29.622356 
L 523.5325 -29.92606 
L 521.9825 -30.316837 
L 520.4325 -30.793375 
L 518.8825 -31.354199 
L 517.3325 -31.997667 
L 515.7825 -32.721981 
L 514.2325 -33.525192 
L 512.6825 -34.405199 
L 511.1325 -35.359763 
L 509.5825 -36.386505 
L 508.0325 -37.48292 
L 506.4825 -38.646377 
L 504.9325 -39.874128 
L 503.3825 -41.163317 
L 501.8325 -42.510985 
L 500.2825 -43.914077 
L 498.7325 -45.369451 
L 497.1825 -46.873886 
L 495.6325 -48.424088 
L 494.0825 -50.016701 
L 492.5325 -51.648311 
L 490.9825 -53.315457 
L 489.4325 -55.014641 
L 487.8825 -56.742331 
L 486.3325 -58.494973 
L 484.7825 -60.269001 
L 483.2325 -62.060841 
L 481.6825 -63.86692 
L 480.1325 -65.683677 
L 478.5825 -67.50757 
L 477.0325 -69.335081 
L 475.4825 -71.162729 
L 473.9325 -72.987071 
L 472.3825 -74.804718 
L 470.8325 -76.612333 
L 469.2825 -78.406647 
L 467.7325 -80.18446 
L 466.1825 -81.942648 
L 464.6325 -83.678172 
L 463.0825 -85.388085 
L 461.5325 -87.069532 
L 459.9825 -88.719763 
L 458.4325 -90.336133 
L 456.8825 -91.916108 
L 455.3325 -93.457273 
L 453.7825 -94.95733 
L 452.2325 -96.414109 
L 450.6825 -97.825565 
L 449.1325 -99.189788 
L 447.5825 -100.505 
L 446.0325 -101.769559 
L 444.4825 -102.981964 
L 442.9325 -104.140853 
L 441.3825 -105.245005 
L 439.8325 -106.293346 
L 438.2825 -107.284941 
L 436.7325 -108.219 
L 435.1825 -109.094877 
L 433.6325 -109.912069 
L 432.0825 -110.670214 
L 430.5325 -111.369092 
L 428.9825 -112.00862 
L 427.4325 -112.588855 
L 425.8825 -113.109985 
L 424.3325 -113.572333 
L 422.7825 -113.97635 
L 421.2325 -114.322611 
L 419.6825 -114.611814 
L 418.1325 -114.844777 
L 416.5825 -115.02243 
L 415.0325 -115.145812 
L 413.4825 -115.216067 
L 411.9325 -115.234439 
L 410.3825 -115.202267 
L 408.8325 -115.120979 
L 407.2825 -114.992085 
L 405.7325 -114.817177 
L 404.1825 -114.597915 
L 402.6325 -114.336026 
L 401.0825 -114.033299 
L 399.5325 -113.691575 
L 397.9825 -113.312742 
L 396.4325 -112.898731 
L 394.8825 -112.451507 
L 393.3325 -111.973063 
L 391.7825 -111.465415 
L 390.2325 -110.930593 
L 388.6825 -110.370637 
L 387.1325 -109.787591 
L 385.5825 -109.183495 
L 384.0325 -108.560378 
L 382.4825 -107.920258 
L 380.9325 -107.265126 
L 379.3825 -106.596951 
L 377.8325 -105.917667 
L 376.2825 -105.229169 
L 374.7325 -104.53331 
L 373.1825 -103.831895 
L 371.6325 -103.126676 
L 370.0825 -102.419345 
L 368.5325 -101.711535 
L 366.9825 -101.00481 
L 365.4325 -100.300666 
L 363.8825 -99.600524 
L 362.3325 -98.90573 
L 360.7825 -98.217548 
L 359.2325 -97.53716 
L 357.6825 -96.865663 
L 356.1325 -96.204069 
L 354.5825 -95.553299 
L 353.0325 -94.914184 
L 351.4825 -94.287464 
L 349.9325 -93.673788 
L 348.3825 -93.07371 
L 346.8325 -92.487693 
L 345.2825 -91.916108 
L 343.7325 -91.359233 
L 342.1825 -90.817253 
L 340.6325 -90.290267 
L 339.0825 -89.778281 
L 337.5325 -89.281216 
L 335.9825 -88.798909 
L 334.4325 -88.331112 
L 332.8825 -87.8775 
L 331.3325 -87.437667 
L 329.7825 -87.011135 
L 328.2325 -86.597357 
L 326.6825 -86.195715 
L 325.1325 -85.80553 
L 323.5825 -85.426064 
L 322.0325 -85.056524 
L 320.4825 -84.696064 
L 318.9325 -84.343794 
L 317.3825 -83.998782 
L 315.8325 -83.660061 
L 314.2825 -83.32663 
L 312.7325 -82.997463 
L 311.1825 -82.671513 
L 309.6325 -82.347717 
L 308.0825 -82.025 
L 306.5325 -81.702283 
L 304.9825 -81.378487 
L 303.4325 -81.052537 
L 301.8825 -80.72337 
L 300.3325 -80.389939 
L 298.7825 -80.051218 
L 297.2325 -79.706206 
L 295.6825 -79.353936 
L 294.1325 -78.993476 
L 292.5825 -78.623936 
L 291.0325 -78.24447 
L 289.4825 -77.854285 
L 287.9325 -77.452643 
L 286.3825 -77.038865 
L 284.8325 -76.612333 
L 283.2825 -76.1725 
L 281.7325 -75.718888 
L 280.1825 -75.251091 
L 278.6325 -74.768784 
L 277.0825 -74.271719 
L 275.5325 -73.759733 
L 273.9825 -73.232747 
L 272.4325 -72.690767 
L 270.8825 -72.133892 
L 269.3325 -71.562307 
L 267.7825 -70.97629 
L 266.2325 -70.376212 
L 264.6825 -69.762536 
L 263.1325 -69.135816 
L 261.5825 -68.496701 
L 260.0325 -67.845931 
L 258.4825 -67.184337 
L 256.9325 -66.51284 
L 255.3825 -65.832452 
L 253.8325 -65.14427 
L 252.2825 -64.449476 
L 250.7325 -63.749334 
L 249.1825 -63.04519 
L 247.6325 -62.338465 
L 246.0825 -61.630655 
L 244.5325 -60.923324 
L 242.9825 -60.218105 
L 241.4325 -59.51669 
L 239.8825 -58.820831 
L 238.3325 -58.132333 
L 236.7825 -57.453049 
L 235.2325 -56.784874 
L 233.6825 -56.129742 
L 232.1325 -55.489622 
L 230.5825 -54.866505 
L 229.0325 -54.262409 
L 227.4825 -53.679363 
L 225.9325 -53.119407 
L 224.3825 -52.584585 
L 222.8325 -52.076937 
L 221.2825 -51.598493 
L 219.7325 -51.151269 
L 218.1825 -50.737258 
L 216.6325 -50.358425 
L 215.0825 -50.016701 
L 213.5325 -49.713974 
L 211.9825 -49.452085 
L 210.4325 -49.232823 
L 208.8825 -49.057915 
L 207.3325 -48.929021 
L 205.7825 -48.847733 
L 204.2325 -48.815561 
L 202.6825 -48.833933 
L 201.1325 -48.904188 
L 199.5825 -49.02757 
L 198.0325 -49.205223 
L 196.4825 -49.438186 
L 194.9325 -49.727389 
L 193.3825 -50.07365 
L 191.8325 -50.477667 
L 190.2825 -50.940015 
L 188.7325 -51.461145 
L 187.1825 -52.04138 
L 185.6325 -52.680908 
L 184.0825 -53.379786 
L 182.5325 -54.137931 
L 180.9825 -54.955123 
L 179.4325 -55.831 
L 177.8825 -56.765059 
L 176.3325 -57.756654 
L 174.7825 -58.804995 
L 173.2325 -59.909147 
L 171.6825 -61.068036 
L 170.1325 -62.280441 
L 168.5825 -63.545 
L 167.0325 -64.860212 
L 165.4825 -66.224435 
L 163.9325 -67.635891 
L 162.3825 -69.09267 
L 160.8325 -70.592727 
L 159.2825 -72.133892 
L 157.7325 -73.713867 
L 156.1825 -75.330237 
L 154.6325 -76.980468 
L 153.0825 -78.661915 
L 151.5325 -80.371828 
L 149.9825 -82.107352 
L 148.4325 -83.86554 
L 146.8825 -85.643353 
L 145.3325 -87.437667 
L 143.7825 -89.245282 
L 142.2325 -91.062929 
L 140.6825 -92.887271 
L 139.1325 -94.714919 
L 137.5825 -96.54243 
L 136.0325 -98.366323 
L 134.4825 -100.18308 
L 132.9325 -101.989159 
L 131.3825 -103.780999 
L 129.8325 -105.555027 
L 128.2825 -107.307669 
L 126.7325 -109.035359 
L 125.1825 -110.734543 
L 123.6325 -112.401689 
L 122.0825 -114.033299 
L 120.5325 -115.625912 
L 118.9825 -117.176114 
L 117.4325 -118.680549 
L 115.8825 -120.135923 
L 114.3325 -121.539015 
L 112.7825 -122.886683 
L 111.2325 -124.175872 
L 109.6825 -125.403623 
L 108.1325 -126.56708 
L 106.5825 -127.663495 
L 105.0325 -128.690237 
L 103.4825 -129.644801 
L 101.9325 -130.524808 
L 100.3825 -131.328019 
L 98.8325 -132.052333 
L 97.2825 -132.695801 
L 95.7325 -133.256625 
L 94.1825 -133.733163 
L 92.6325 -134.12394 
L 91.0825 -134.427644 
L 89.5325 -134.643136 
L 87.9825 -134.76945 
L 86.4325 -134.805799 
L 84.8825 -134.751573 
L 83.3325 -134.606349 
L 81.7825 -134.369883 
L 80.2325 -134.042121 
L 78.6825 -133.623193 
L 77.1325 -133.113417 
L 75.5825 -132.513299 
L 74.0325 -131.823531 
L 72.4825 -131.044993 
L 70.9325 -130.178749 
L 69.3825 -129.226045 
L 67.8325 -128.188312 
L 66.2825 -127.067157 
L 64.7325 -125.864365 
L 63.1825 -124.581893 
L 61.6325 -123.221868 
L 60.0825 -121.78658 
L 58.5325 -120.27848 
L 56.9825 -118.700177 
L 55.4325 -117.054427 
L 53.8825 -115.344132 
L 52.3325 -113.572333 
L 50.7825 -111.742203 
L 49.2325 -109.857038 
L 47.6825 -107.920258 
L 46.1325 -105.935389 
L 44.5825 -103.906064 
L 43.0325 -101.836013 
L 41.4825 -99.72905 
L 39.9325 -97.589073 
L 38.3825 -95.42005 
L 36.8325 -93.226013 
L 35.2825 -91.011046 
L 33.7325 -88.779281 
L 32.1825 -86.534885 
L 30.6325 -84.282054 
L 29.0825 -82.025 
z
" style="stroke: #808080; stroke-opacity: 0.2"/>
    </defs>
    <g clip-path="url(#pbbbb928497)">
     <use xlink:href="#m7e0b11d8a1" x="0" y="376.1195" style="fill: #808080; fill-opacity: 0.2; stroke: #808080; stroke-opacity: 0.2"/>
    </g>
   </g>
   <g id="matplotlib.axis_1">
    <g id="xtick_1">
     <g id="line2d_1">
      <path d="M 29.0825 349.5345 
L 29.0825 16.8945 
" clip-path="url(#pbbbb928497)" style="fill: none; stroke: #b0b0b0; stroke-width: 0.5; stroke-linecap: square"/>
     </g>
     <g id="line2d_2">
      <defs>
       <path id="mfca8866ea5" d="M 0 0 
L 0 -3 
" style="stroke: #000000; stroke-width: 0.5"/>
      </defs>
      <g>
       <use xlink:href="#mfca8866ea5" x="29.0825" y="349.5345" style="stroke: #000000; stroke-width: 0.5"/>
      </g>
     </g>
     <g id="line2d_3">
      <defs>
       <path id="m3e530ead51" d="M 0 0 
L 0 3 
" style="stroke: #000000; stroke-width: 0.5"/>
      </defs>
      <g>
       <use xlink:href="#m3e530ead51" x="29.0825" y="16.8945" style="stroke: #000000; stroke-width: 0.5"/>
      </g>
     </g>
     <g id="text_1">
      <!-- $\mathdefault{0}$ -->
      <g transform="translate(26.5225 359.11325) scale(0.08 -0.08)">
       <defs>
        <path id="DejaVuSans-30" d="M 2034 4250 
Q 1547 4250 1301 3770 
Q 1056 3291 1056 2328 
Q 1056 1369 1301 889 
Q 1547 409 2034 409 
Q 2525 409 2770 889 
Q 3016 1369 3016 2328 
Q 3016 3291 2770 3770 
Q 2525 4250 2034 4250 
z
M 2034 4750 
Q 2819 4750 3233 4129 
Q 3647 3509 3647 2328 
Q 3647 1150 3233 529 
Q 2819 -91 2034 -91 
Q 1250 -91 836 529 
Q 422 1150 422 2328 
Q 422 3509 836 4129 
Q 1250 4750 2034 4750 
z
" transform="scale(0.015625)"/>
       </defs>
       <use xlink:href="#DejaVuSans-30" transform="translate(0 0.78125)"/>
      </g>
     </g>
    </g>
    <g id="xtick_2">
     <g id="line2d_4">
      <path d="M 106.5825 349.5345 
L 106.5825 16.8945 
" clip-path="url(#pbbbb928497)" style="fill: none; stroke: #b0b0b0; stroke-width: 0.5; stroke-linecap: square"/>
     </g>
     <g id="line2d_5">
      <g>
       <use xlink:href="#mfca8866ea5" x="106.5825" y="349.5345" style="stroke: #000000; stroke-width: 0.5"/>
      </g>
     </g>
     <g id="line2d_6">
      <g>
       <use xlink:href="#m3e530ead51" x="106.5825" y="16.8945" style="stroke: #000000; stroke-width: 0.5"/>
      </g>
     </g>
     <g id="text_2">
      <!-- $\mathdefault{50}$ -->
      <g transform="translate(101.4625 359.11325) scale(0.08 -0.08)">
       <defs>
        <path id="DejaVuSans-35" d="M 691 4666 
L 3169 4666 
L 3169 4134 
L 1269 4134 
L 1269 2991 
Q 1406 3038 1543 3061 
Q 1681 3084 1819 3084 
Q 2600 3084 3056 2656 
Q 3513 2228 3513 1497 
Q 3513 744 3044 326 
Q 2575 -91 1722 -91 
Q 1428 -91 1123 -41 
Q 819 9 494 109 
L 494 744 
Q 775 591 1075 516 
Q 1375 441 1709 441 
Q 2250 441 2565 725 
Q 2881 1009 2881 1497 
Q 2881 1984 2565 2268 
Q 2250 2553 1709 2553 
Q 1456 2553 1204 2497 
Q 953 2441 691 2322 
L 691 4666 
z
" transform="scale(0.015625)"/>
       </defs>
       <use xlink:href="#DejaVuSans-35" transform="translate(0 0.78125)"/>
       <use xlink:href="#DejaVuSans-30" transform="translate(63.623047 0.78125)"/>
      </g>
     </g>
    </g>
    <g id="xtick_3">
     <g id="line2d_7">
      <path d="M 184.0825 349.5345 
L 184.0825 16.8945 
" clip-path="url(#pbbbb928497)" style="fill: none; stroke: #b0b0b0; stroke-width: 0.5; stroke-linecap: square"/>
     </g>
     <g id="line2d_8">
      <g>
       <use xlink:href="#mfca8866ea5" x="184.0825" y="349.5345" style="stroke: #000000; stroke-width: 0.5"/>
      </g>
     </g>
     <g id="line2d_9">
      <g>
       <use xlink:href="#m3e530ead51" x="184.0825" y="16.8945" style="stroke: #000000; stroke-width: 0.5"/>
      </g>
     </g>
     <g id="text_3">
      <!-- $\mathdefault{100}$ -->
      <g transform="translate(176.4425 359.11325) scale(0.08 -0.08)">
       <defs>
        <path id="DejaVuSans-31" d="M 794 531 
L 1825 531 
L 1825 4091 
L 703 3866 
L 703 4441 
L 1819 4666 
L 2450 4666 
L 2450 531 
L 3481 531 
L 3481 0 
L 794 0 
L 794 531 
z
" transform="scale(0.015625)"/>
       </defs>
       <use xlink:href="#DejaVuSans-31" transform="translate(0 0.78125)"/>
       <use xlink:href="#DejaVuSans-30" transform="translate(63.623047 0.78125)"/>
       <use xlink:href="#DejaVuSans-30" transform="translate(127.246094 0.78125)"/>
      </g>
     </g>
    </g>
    <g id="xtick_4">
     <g id="line2d_10">
      <path d="M 261.5825 349.5345 
L 261.5825 16.8945 
" clip-path="url(#pbbbb928497)" style="fill: none; stroke: #b0b0b0; stroke-width: 0.5; stroke-linecap: square"/>
     </g>
     <g id="line2d_11">
      <g>
       <use xlink:href="#mfca8866ea5" x="261.5825" y="349.5345" style="stroke: #000000; stroke-width: 0.5"/>
      </g>
     </g>
     <g id="line2d_12">
      <g>
       <use xlink:href="#m3e530ead51" x="261.5825" y="16.8945" style="stroke: #000000; stroke-width: 0.5"/>
      </g>
     </g>
     <g id="text_4">
      <!-- $\mathdefault{150}$ -->
      <g transform="translate(253.9425 359.11325) scale(0.08 -0.08)">
       <use xlink:href="#DejaVuSans-31" transform="translate(0 0.78125)"/>
       <use xlink:href="#DejaVuSans-35" transform="translate(63.623047 0.78125)"/>
       <use xlink:href="#DejaVuSans-30" transform="translate(127.246094 0.78125)"/>
      </g>
     </g>
    </g>
    <g id="xtick_5">
     <g id="line2d_13">
      <path d="M 339.0825 349.5345 
L 339.0825 16.8945 
" clip-path="url(#pbbbb928497)" style="fill: none; stroke: #b0b0b0; stroke-width: 0.5; stroke-linecap: square"/>
     </g>
     <g id="line2d_14">
      <g>
       <use xlink:href="#mfca8866ea5" x="339.0825" y="349.5345" style="stroke: #000000; stroke-width: 0.5"/>
      </g>
     </g>
     <g id="line2d_15">
      <g>
       <use xlink:href="#m3e530ead51" x="339.0825" y="16.8945" style="stroke: #000000; stroke-width: 0.5"/>
      </g>
     </g>
     <g id="text_5">
      <!-- $\mathdefault{200}$ -->
      <g transform="translate(331.4425 359.11325) scale(0.08 -0.08)">
       <defs>
        <path id="DejaVuSans-32" d="M 1228 531 
L 3431 531 
L 3431 0 
L 469 0 
L 469 531 
Q 828 903 1448 1529 
Q 2069 2156 2228 2338 
Q 2531 2678 2651 2914 
Q 2772 3150 2772 3378 
Q 2772 3750 2511 3984 
Q 2250 4219 1831 4219 
Q 1534 4219 1204 4116 
Q 875 4013 500 3803 
L 500 4441 
Q 881 4594 1212 4672 
Q 1544 4750 1819 4750 
Q 2544 4750 2975 4387 
Q 3406 4025 3406 3419 
Q 3406 3131 3298 2873 
Q 3191 2616 2906 2266 
Q 2828 2175 2409 1742 
Q 1991 1309 1228 531 
z
" transform="scale(0.015625)"/>
       </defs>
       <use xlink:href="#DejaVuSans-32" transform="translate(0 0.78125)"/>
       <use xlink:href="#DejaVuSans-30" transform="translate(63.623047 0.78125)"/>
       <use xlink:href="#DejaVuSans-30" transform="translate(127.246094 0.78125)"/>
      </g>
     </g>
    </g>
    <g id="xtick_6">
     <g id="line2d_16">
      <path d="M 416.5825 349.5345 
L 416.5825 16.8945 
" clip-path="url(#pbbbb928497)" style="fill: none; stroke: #b0b0b0; stroke-width: 0.5; stroke-linecap: square"/>
     </g>
     <g id="line2d_17">
      <g>
       <use xlink:href="#mfca8866ea5" x="416.5825" y="349.5345" style="stroke: #000000; stroke-width: 0.5"/>
      </g>
     </g>
     <g id="line2d_18">
      <g>
       <use xlink:href="#m3e530ead51" x="416.5825" y="16.8945" style="stroke: #000000; stroke-width: 0.5"/>
      </g>
     </g>
     <g id="text_6">
      <!-- $\mathdefault{250}$ -->
      <g transform="translate(408.9425 359.11325) scale(0.08 -0.08)">
       <use xlink:href="#DejaVuSans-32" transform="translate(0 0.78125)"/>
       <use xlink:href="#DejaVuSans-35" transform="translate(63.623047 0.78125)"/>
       <use xlink:href="#DejaVuSans-30" transform="translate(127.246094 0.78125)"/>
      </g>
     </g>
    </g>
    <g id="xtick_7">
     <g id="line2d_19">
      <path d="M 494.0825 349.5345 
L 494.0825 16.8945 
" clip-path="url(#pbbbb928497)" style="fill: none; stroke: #b0b0b0; stroke-width: 0.5; stroke-linecap: square"/>
     </g>
     <g id="line2d_20">
      <g>
       <use xlink:href="#mfca8866ea5" x="494.0825" y="349.5345" style="stroke: #000000; stroke-width: 0.5"/>
      </g>
     </g>
     <g id="line2d_21">
      <g>
       <use xlink:href="#m3e530ead51" x="494.0825" y="16.8945" style="stroke: #000000; stroke-width: 0.5"/>
      </g>
     </g>
     <g id="text_7">
      <!-- $\mathdefault{300}$ -->
      <g transform="translate(486.4425 359.11325) scale(0.08 -0.08)">
       <defs>
        <path id="DejaVuSans-33" d="M 2597 2516 
Q 3050 2419 3304 2112 
Q 3559 1806 3559 1356 
Q 3559 666 3084 287 
Q 2609 -91 1734 -91 
Q 1441 -91 1130 -33 
Q 819 25 488 141 
L 488 750 
Q 750 597 1062 519 
Q 1375 441 1716 441 
Q 2309 441 2620 675 
Q 2931 909 2931 1356 
Q 2931 1769 2642 2001 
Q 2353 2234 1838 2234 
L 1294 2234 
L 1294 2753 
L 1863 2753 
Q 2328 2753 2575 2939 
Q 2822 3125 2822 3475 
Q 2822 3834 2567 4026 
Q 2313 4219 1838 4219 
Q 1578 4219 1281 4162 
Q 984 4106 628 3988 
L 628 4550 
Q 988 4650 1302 4700 
Q 1616 4750 1894 4750 
Q 2613 4750 3031 4423 
Q 3450 4097 3450 3541 
Q 3450 3153 3228 2886 
Q 3006 2619 2597 2516 
z
" transform="scale(0.015625)"/>
       </defs>
       <use xlink:href="#DejaVuSans-33" transform="translate(0 0.78125)"/>
       <use xlink:href="#DejaVuSans-30" transform="translate(63.623047 0.78125)"/>
       <use xlink:href="#DejaVuSans-30" transform="translate(127.246094 0.78125)"/>
      </g>
     </g>
    </g>
    <g id="xtick_8">
     <g id="line2d_22">
      <path d="M 571.5825 349.5345 
L 571.5825 16.8945 
" clip-path="url(#pbbbb928497)" style="fill: none; stroke: #b0b0b0; stroke-width: 0.5; stroke-linecap: square"/>
     </g>
     <g id="line2d_23">
      <g>
       <use xlink:href="#mfca8866ea5" x="571.5825" y="349.5345" style="stroke: #000000; stroke-width: 0.5"/>
      </g>
     </g>
     <g id="line2d_24">
      <g>
       <use xlink:href="#m3e530ead51" x="571.5825" y="16.8945" style="stroke: #000000; stroke-width: 0.5"/>
      </g>
     </g>
     <g id="text_8">
      <!-- $\mathdefault{350}$ -->
      <g transform="translate(563.9425 359.11325) scale(0.08 -0.08)">
       <use xlink:href="#DejaVuSans-33" transform="translate(0 0.78125)"/>
       <use xlink:href="#DejaVuSans-35" transform="translate(63.623047 0.78125)"/>
       <use xlink:href="#DejaVuSans-30" transform="translate(127.246094 0.78125)"/>
      </g>
     </g>
    </g>
    <g id="xtick_9">
     <g id="line2d_25">
      <defs>
       <path id="m8c8140d0a4" d="M 0 0 
L 0 -1.5 
" style="stroke: #000000; stroke-width: 0.5"/>
      </defs>
      <g>
       <use xlink:href="#m8c8140d0a4" x="44.5825" y="349.5345" style="stroke: #000000; stroke-width: 0.5"/>
      </g>
     </g>
     <g id="line2d_26">
      <defs>
       <path id="m17081a3e89" d="M 0 0 
L 0 1.5 
" style="stroke: #000000; stroke-width: 0.5"/>
      </defs>
      <g>
       <use xlink:href="#m17081a3e89" x="44.5825" y="16.8945" style="stroke: #000000; stroke-width: 0.5"/>
      </g>
     </g>
    </g>
    <g id="xtick_10">
     <g id="line2d_27">
      <g>
       <use xlink:href="#m8c8140d0a4" x="60.0825" y="349.5345" style="stroke: #000000; stroke-width: 0.5"/>
      </g>
     </g>
     <g id="line2d_28">
      <g>
       <use xlink:href="#m17081a3e89" x="60.0825" y="16.8945" style="stroke: #000000; stroke-width: 0.5"/>
      </g>
     </g>
    </g>
    <g id="xtick_11">
     <g id="line2d_29">
      <g>
       <use xlink:href="#m8c8140d0a4" x="75.5825" y="349.5345" style="stroke: #000000; stroke-width: 0.5"/>
      </g>
     </g>
     <g id="line2d_30">
      <g>
       <use xlink:href="#m17081a3e89" x="75.5825" y="16.8945" style="stroke: #000000; stroke-width: 0.5"/>
      </g>
     </g>
    </g>
    <g id="xtick_12">
     <g id="line2d_31">
      <g>
       <use xlink:href="#m8c8140d0a4" x="91.0825" y="349.5345" style="stroke: #000000; stroke-width: 0.5"/>
      </g>
     </g>
     <g id="line2d_32">
      <g>
       <use xlink:href="#m17081a3e89" x="91.0825" y="16.8945" style="stroke: #000000; stroke-width: 0.5"/>
      </g>
     </g>
    </g>
    <g id="xtick_13">
     <g id="line2d_33">
      <g>
       <use xlink:href="#m8c8140d0a4" x="122.0825" y="349.5345" style="stroke: #000000; stroke-width: 0.5"/>
      </g>
     </g>
     <g id="line2d_34">
      <g>
       <use xlink:href="#m17081a3e89" x="122.0825" y="16.8945" style="stroke: #000000; stroke-width: 0.5"/>
      </g>
     </g>
    </g>
    <g id="xtick_14">
     <g id="line2d_35">
      <g>
       <use xlink:href="#m8c8140d0a4" x="137.5825" y="349.5345" style="stroke: #000000; stroke-width: 0.5"/>
      </g>
     </g>
     <g id="line2d_36">
      <g>
       <use xlink:href="#m17081a3e89" x="137.5825" y="16.8945" style="stroke: #000000; stroke-width: 0.5"/>
      </g>
     </g>
    </g>
    <g id="xtick_15">
     <g id="line2d_37">
      <g>
       <use xlink:href="#m8c8140d0a4" x="153.0825" y="349.5345" style="stroke: #000000; stroke-width: 0.5"/>
      </g>
     </g>
     <g id="line2d_38">
      <g>
       <use xlink:href="#m17081a3e89" x="153.0825" y="16.8945" style="stroke: #000000; stroke-width: 0.5"/>
      </g>
     </g>
    </g>
    <g id="xtick_16">
     <g id="line2d_39">
      <g>
       <use xlink:href="#m8c8140d0a4" x="168.5825" y="349.5345" style="stroke: #000000; stroke-width: 0.5"/>
      </g>
     </g>
     <g id="line2d_40">
      <g>
       <use xlink:href="#m17081a3e89" x="168.5825" y="16.8945" style="stroke: #000000; stroke-width: 0.5"/>
      </g>
     </g>
    </g>
    <g id="xtick_17">
     <g id="line2d_41">
      <g>
       <use xlink:href="#m8c8140d0a4" x="199.5825" y="349.5345" style="stroke: #000000; stroke-width: 0.5"/>
      </g>
     </g>
     <g id="line2d_42">
      <g>
       <use xlink:href="#m17081a3e89" x="199.5825" y="16.8945" style="stroke: #000000; stroke-width: 0.5"/>
      </g>
     </g>
    </g>
    <g id="xtick_18">
     <g id="line2d_43">
      <g>
       <use xlink:href="#m8c8140d0a4" x="215.0825" y="349.5345" style="stroke: #000000; stroke-width: 0.5"/>
      </g>
     </g>
     <g id="line2d_44">
      <g>
       <use xlink:href="#m17081a3e89" x="215.0825" y="16.8945" style="stroke: #000000; stroke-width: 0.5"/>
      </g>
     </g>
    </g>
    <g id="xtick_19">
     <g id="line2d_45">
      <g>
       <use xlink:href="#m8c8140d0a4" x="230.5825" y="349.5345" style="stroke: #000000; stroke-width: 0.5"/>
      </g>
     </g>
     <g id="line2d_46">
      <g>
       <use xlink:href="#m17081a3e89" x="230.5825" y="16.8945" style="stroke: #000000; stroke-width: 0.5"/>
      </g>
     </g>
    </g>
    <g id="xtick_20">
     <g id="line2d_47">
      <g>
       <use xlink:href="#m8c8140d0a4" x="246.0825" y="349.5345" style="stroke: #000000; stroke-width: 0.5"/>
      </g>
     </g>
     <g id="line2d_48">
      <g>
       <use xlink:href="#m17081a3e89" x="246.0825" y="16.8945" style="stroke: #000000; stroke-width: 0.5"/>
      </g>
     </g>
    </g>
    <g id="xtick_21">
     <g id="line2d_49">
      <g>
       <use xlink:href="#m8c8140d0a4" x="277.0825" y="349.5345" style="stroke: #000000; stroke-width: 0.5"/>
      </g>
     </g>
     <g id="line2d_50">
      <g>
       <use xlink:href="#m17081a3e89" x="277.0825" y="16.8945" style="stroke: #000000; stroke-width: 0.5"/>
      </g>
     </g>
    </g>
    <g id="xtick_22">
     <g id="line2d_51">
      <g>
       <use xlink:href="#m8c8140d0a4" x="292.5825" y="349.5345" style="stroke: #000000; stroke-width: 0.5"/>
      </g>
     </g>
     <g id="line2d_52">
      <g>
       <use xlink:href="#m17081a3e89" x="292.5825" y="16.8945" style="stroke: #000000; stroke-width: 0.5"/>
      </g>
     </g>
    </g>
    <g id="xtick_23">
     <g id="line2d_53">
      <g>
       <use xlink:href="#m8c8140d0a4" x="308.0825" y="349.5345" style="stroke: #000000; stroke-width: 0.5"/>
      </g>
     </g>
     <g id="line2d_54">
      <g>
       <use xlink:href="#m17081a3e89" x="308.0825" y="16.8945" style="stroke: #000000; stroke-width: 0.5"/>
      </g>
     </g>
    </g>
    <g id="xtick_24">
     <g id="line2d_55">
      <g>
       <use xlink:href="#m8c8140d0a4" x="323.5825" y="349.5345" style="stroke: #000000; stroke-width: 0.5"/>
      </g>
     </g>
     <g id="line2d_56">
      <g>
       <use xlink:href="#m17081a3e89" x="323.5825" y="16.8945" style="stroke: #000000; stroke-width: 0.5"/>
      </g>
     </g>
    </g>
    <g id="xtick_25">
     <g id="line2d_57">
      <g>
       <use xlink:href="#m8c8140d0a4" x="354.5825" y="349.5345" style="stroke: #000000; stroke-width: 0.5"/>
      </g>
     </g>
     <g id="line2d_58">
      <g>
       <use xlink:href="#m17081a3e89" x="354.5825" y="16.8945" style="stroke: #000000; stroke-width: 0.5"/>
      </g>
     </g>
    </g>
    <g id="xtick_26">
     <g id="line2d_59">
      <g>
       <use xlink:href="#m8c8140d0a4" x="370.0825" y="349.5345" style="stroke: #000000; stroke-width: 0.5"/>
      </g>
     </g>
     <g id="line2d_60">
      <g>
       <use xlink:href="#m17081a3e89" x="370.0825" y="16.8945" style="stroke: #000000; stroke-width: 0.5"/>
      </g>
     </g>
    </g>
    <g id="xtick_27">
     <g id="line2d_61">
      <g>
       <use xlink:href="#m8c8140d0a4" x="385.5825" y="349.5345" style="stroke: #000000; stroke-width: 0.5"/>
      </g>
     </g>
     <g id="line2d_62">
      <g>
       <use xlink:href="#m17081a3e89" x="385.5825" y="16.8945" style="stroke: #000000; stroke-width: 0.5"/>
      </g>
     </g>
    </g>
    <g id="xtick_28">
     <g id="line2d_63">
      <g>
       <use xlink:href="#m8c8140d0a4" x="401.0825" y="349.5345" style="stroke: #000000; stroke-width: 0.5"/>
      </g>
     </g>
     <g id="line2d_64">
      <g>
       <use xlink:href="#m17081a3e89" x="401.0825" y="16.8945" style="stroke: #000000; stroke-width: 0.5"/>
      </g>
     </g>
    </g>
    <g id="xtick_29">
     <g id="line2d_65">
      <g>
       <use xlink:href="#m8c8140d0a4" x="432.0825" y="349.5345" style="stroke: #000000; stroke-width: 0.5"/>
      </g>
     </g>
     <g id="line2d_66">
      <g>
       <use xlink:href="#m17081a3e89" x="432.0825" y="16.8945" style="stroke: #000000; stroke-width: 0.5"/>
      </g>
     </g>
    </g>
    <g id="xtick_30">
     <g id="line2d_67">
      <g>
       <use xlink:href="#m8c8140d0a4" x="447.5825" y="349.5345" style="stroke: #000000; stroke-width: 0.5"/>
      </g>
     </g>
     <g id="line2d_68">
      <g>
       <use xlink:href="#m17081a3e89" x="447.5825" y="16.8945" style="stroke: #000000; stroke-width: 0.5"/>
      </g>
     </g>
    </g>
    <g id="xtick_31">
     <g id="line2d_69">
      <g>
       <use xlink:href="#m8c8140d0a4" x="463.0825" y="349.5345" style="stroke: #000000; stroke-width: 0.5"/>
      </g>
     </g>
     <g id="line2d_70">
      <g>
       <use xlink:href="#m17081a3e89" x="463.0825" y="16.8945" style="stroke: #000000; stroke-width: 0.5"/>
      </g>
     </g>
    </g>
    <g id="xtick_32">
     <g id="line2d_71">
      <g>
       <use xlink:href="#m8c8140d0a4" x="478.5825" y="349.5345" style="stroke: #000000; stroke-width: 0.5"/>
      </g>
     </g>
     <g id="line2d_72">
      <g>
       <use xlink:href="#m17081a3e89" x="478.5825" y="16.8945" style="stroke: #000000; stroke-width: 0.5"/>
      </g>
     </g>
    </g>
    <g id="xtick_33">
     <g id="line2d_73">
      <g>
       <use xlink:href="#m8c8140d0a4" x="509.5825" y="349.5345" style="stroke: #000000; stroke-width: 0.5"/>
      </g>
     </g>
     <g id="line2d_74">
      <g>
       <use xlink:href="#m17081a3e89" x="509.5825" y="16.8945" style="stroke: #000000; stroke-width: 0.5"/>
      </g>
     </g>
    </g>
    <g id="xtick_34">
     <g id="line2d_75">
      <g>
       <use xlink:href="#m8c8140d0a4" x="525.0825" y="349.5345" style="stroke: #000000; stroke-width: 0.5"/>
      </g>
     </g>
     <g id="line2d_76">
      <g>
       <use xlink:href="#m17081a3e89" x="525.0825" y="16.8945" style="stroke: #000000; stroke-width: 0.5"/>
      </g>
     </g>
    </g>
    <g id="xtick_35">
     <g id="line2d_77">
      <g>
       <use xlink:href="#m8c8140d0a4" x="540.5825" y="349.5345" style="stroke: #000000; stroke-width: 0.5"/>
      </g>
     </g>
     <g id="line2d_78">
      <g>
       <use xlink:href="#m17081a3e89" x="540.5825" y="16.8945" style="stroke: #000000; stroke-width: 0.5"/>
      </g>
     </g>
    </g>
    <g id="xtick_36">
     <g id="line2d_79">
      <g>
       <use xlink:href="#m8c8140d0a4" x="556.0825" y="349.5345" style="stroke: #000000; stroke-width: 0.5"/>
      </g>
     </g>
     <g id="line2d_80">
      <g>
       <use xlink:href="#m17081a3e89" x="556.0825" y="16.8945" style="stroke: #000000; stroke-width: 0.5"/>
      </g>
     </g>
    </g>
    <g id="xtick_37">
     <g id="line2d_81">
      <g>
       <use xlink:href="#m8c8140d0a4" x="587.0825" y="349.5345" style="stroke: #000000; stroke-width: 0.5"/>
      </g>
     </g>
     <g id="line2d_82">
      <g>
       <use xlink:href="#m17081a3e89" x="587.0825" y="16.8945" style="stroke: #000000; stroke-width: 0.5"/>
      </g>
     </g>
    </g>
    <g id="text_9">
     <!-- Azimuth (degrees) -->
     <g transform="translate(271.108125 370.85575) scale(0.08 -0.08)">
      <defs>
       <path id="DejaVuSans-41" d="M 2188 4044 
L 1331 1722 
L 3047 1722 
L 2188 4044 
z
M 1831 4666 
L 2547 4666 
L 4325 0 
L 3669 0 
L 3244 1197 
L 1141 1197 
L 716 0 
L 50 0 
L 1831 4666 
z
" transform="scale(0.015625)"/>
       <path id="DejaVuSans-7a" d="M 353 3500 
L 3084 3500 
L 3084 2975 
L 922 459 
L 3084 459 
L 3084 0 
L 275 0 
L 275 525 
L 2438 3041 
L 353 3041 
L 353 3500 
z
" transform="scale(0.015625)"/>
       <path id="DejaVuSans-69" d="M 603 3500 
L 1178 3500 
L 1178 0 
L 603 0 
L 603 3500 
z
M 603 4863 
L 1178 4863 
L 1178 4134 
L 603 4134 
L 603 4863 
z
" transform="scale(0.015625)"/>
       <path id="DejaVuSans-6d" d="M 3328 2828 
Q 3544 3216 3844 3400 
Q 4144 3584 4550 3584 
Q 5097 3584 5394 3201 
Q 5691 2819 5691 2113 
L 5691 0 
L 5113 0 
L 5113 2094 
Q 5113 2597 4934 2840 
Q 4756 3084 4391 3084 
Q 3944 3084 3684 2787 
Q 3425 2491 3425 1978 
L 3425 0 
L 2847 0 
L 2847 2094 
Q 2847 2600 2669 2842 
Q 2491 3084 2119 3084 
Q 1678 3084 1418 2786 
Q 1159 2488 1159 1978 
L 1159 0 
L 581 0 
L 581 3500 
L 1159 3500 
L 1159 2956 
Q 1356 3278 1631 3431 
Q 1906 3584 2284 3584 
Q 2666 3584 2933 3390 
Q 3200 3197 3328 2828 
z
" transform="scale(0.015625)"/>
       <path id="DejaVuSans-75" d="M 544 1381 
L 544 3500 
L 1119 3500 
L 1119 1403 
Q 1119 906 1312 657 
Q 1506 409 1894 409 
Q 2359 409 2629 706 
Q 2900 1003 2900 1516 
L 2900 3500 
L 3475 3500 
L 3475 0 
L 2900 0 
L 2900 538 
Q 2691 219 2414 64 
Q 2138 -91 1772 -91 
Q 1169 -91 856 284 
Q 544 659 544 1381 
z
M 1991 3584 
L 1991 3584 
z
" transform="scale(0.015625)"/>
       <path id="DejaVuSans-74" d="M 1172 4494 
L 1172 3500 
L 2356 3500 
L 2356 3053 
L 1172 3053 
L 1172 1153 
Q 1172 725 1289 603 
Q 1406 481 1766 481 
L 2356 481 
L 2356 0 
L 1766 0 
Q 1100 0 847 248 
Q 594 497 594 1153 
L 594 3053 
L 172 3053 
L 172 3500 
L 594 3500 
L 594 4494 
L 1172 4494 
z
" transform="scale(0.015625)"/>
       <path id="DejaVuSans-68" d="M 3513 2113 
L 3513 0 
L 2938 0 
L 2938 2094 
Q 2938 2591 2744 2837 
Q 2550 3084 2163 3084 
Q 1697 3084 1428 2787 
Q 1159 2491 1159 1978 
L 1159 0 
L 581 0 
L 581 4863 
L 1159 4863 
L 1159 2956 
Q 1366 3272 1645 3428 
Q 1925 3584 2291 3584 
Q 2894 3584 3203 3211 
Q 3513 2838 3513 2113 
z
" transform="scale(0.015625)"/>
       <path id="DejaVuSans-20" transform="scale(0.015625)"/>
       <path id="DejaVuSans-28" d="M 1984 4856 
Q 1566 4138 1362 3434 
Q 1159 2731 1159 2009 
Q 1159 1288 1364 580 
Q 1569 -128 1984 -844 
L 1484 -844 
Q 1016 -109 783 600 
Q 550 1309 550 2009 
Q 550 2706 781 3412 
Q 1013 4119 1484 4856 
L 1984 4856 
z
" transform="scale(0.015625)"/>
       <path id="DejaVuSans-64" d="M 2906 2969 
L 2906 4863 
L 3481 4863 
L 3481 0 
L 2906 0 
L 2906 525 
Q 2725 213 2448 61 
Q 2172 -91 1784 -91 
Q 1150 -91 751 415 
Q 353 922 353 1747 
Q 353 2572 751 3078 
Q 1150 3584 1784 3584 
Q 2172 3584 2448 3432 
Q 2725 3281 2906 2969 
z
M 947 1747 
Q 947 1113 1208 752 
Q 1469 391 1925 391 
Q 2381 391 2643 752 
Q 2906 1113 2906 1747 
Q 2906 2381 2643 2742 
Q 2381 3103 1925 3103 
Q 1469 3103 1208 2742 
Q 947 2381 947 1747 
z
" transform="scale(0.015625)"/>
       <path id="DejaVuSans-65" d="M 3597 1894 
L 3597 1613 
L 953 1613 
Q 991 1019 1311 708 
Q 1631 397 2203 397 
Q 2534 397 2845 478 
Q 3156 559 3463 722 
L 3463 178 
Q 3153 47 2828 -22 
Q 2503 -91 2169 -91 
Q 1331 -91 842 396 
Q 353 884 353 1716 
Q 353 2575 817 3079 
Q 1281 3584 2069 3584 
Q 2775 3584 3186 3129 
Q 3597 2675 3597 1894 
z
M 3022 2063 
Q 3016 2534 2758 2815 
Q 2500 3097 2075 3097 
Q 1594 3097 1305 2825 
Q 1016 2553 972 2059 
L 3022 2063 
z
" transform="scale(0.015625)"/>
       <path id="DejaVuSans-67" d="M 2906 1791 
Q 2906 2416 2648 2759 
Q 2391 3103 1925 3103 
Q 1463 3103 1205 2759 
Q 947 2416 947 1791 
Q 947 1169 1205 825 
Q 1463 481 1925 481 
Q 2391 481 2648 825 
Q 2906 1169 2906 1791 
z
M 3481 434 
Q 3481 -459 3084 -895 
Q 2688 -1331 1869 -1331 
Q 1566 -1331 1297 -1286 
Q 1028 -1241 775 -1147 
L 775 -588 
Q 1028 -725 1275 -790 
Q 1522 -856 1778 -856 
Q 2344 -856 2625 -561 
Q 2906 -266 2906 331 
L 2906 616 
Q 2728 306 2450 153 
Q 2172 0 1784 0 
Q 1141 0 747 490 
Q 353 981 353 1791 
Q 353 2603 747 3093 
Q 1141 3584 1784 3584 
Q 2172 3584 2450 3431 
Q 2728 3278 2906 2969 
L 2906 3500 
L 3481 3500 
L 3481 434 
z
" transform="scale(0.015625)"/>
       <path id="DejaVuSans-72" d="M 2631 2963 
Q 2534 3019 2420 3045 
Q 2306 3072 2169 3072 
Q 1681 3072 1420 2755 
Q 1159 2438 1159 1844 
L 1159 0 
L 581 0 
L 581 3500 
L 1159 3500 
L 1159 2956 
Q 1341 3275 1631 3429 
Q 1922 3584 2338 3584 
Q 2397 3584 2469 3576 
Q 2541 3569 2628 3553 
L 2631 2963 
z
" transform="scale(0.015625)"/>
       <path id="DejaVuSans-73" d="M 2834 3397 
L 2834 2853 
Q 2591 2978 2328 3040 
Q 2066 3103 1784 3103 
Q 1356 3103 1142 2972 
Q 928 2841 928 2578 
Q 928 2378 1081 2264 
Q 1234 2150 1697 2047 
L 1894 2003 
Q 2506 1872 2764 1633 
Q 3022 1394 3022 966 
Q 3022 478 2636 193 
Q 2250 -91 1575 -91 
Q 1294 -91 989 -36 
Q 684 19 347 128 
L 347 722 
Q 666 556 975 473 
Q 1284 391 1588 391 
Q 1994 391 2212 530 
Q 2431 669 2431 922 
Q 2431 1156 2273 1281 
Q 2116 1406 1581 1522 
L 1381 1569 
Q 847 1681 609 1914 
Q 372 2147 372 2553 
Q 372 3047 722 3315 
Q 1072 3584 1716 3584 
Q 2034 3584 2315 3537 
Q 2597 3491 2834 3397 
z
" transform="scale(0.015625)"/>
       <path id="DejaVuSans-29" d="M 513 4856 
L 1013 4856 
Q 1481 4119 1714 3412 
Q 1947 2706 1947 2009 
Q 1947 1309 1714 600 
Q 1481 -109 1013 -844 
L 513 -844 
Q 928 -128 1133 580 
Q 1338 1288 1338 2009 
Q 1338 2731 1133 3434 
Q 928 4138 513 4856 
z
" transform="scale(0.015625)"/>
      </defs>
      <use xlink:href="#DejaVuSans-41"/>
      <use xlink:href="#DejaVuSans-7a" transform="translate(68.408203 0)"/>
      <use xlink:href="#DejaVuSans-69" transform="translate(120.898438 0)"/>
      <use xlink:href="#DejaVuSans-6d" transform="translate(148.681641 0)"/>
      <use xlink:href="#DejaVuSans-75" transform="translate(246.09375 0)"/>
      <use xlink:href="#DejaVuSans-74" transform="translate(309.472656 0)"/>
      <use xlink:href="#DejaVuSans-68" transform="translate(348.681641 0)"/>
      <use xlink:href="#DejaVuSans-20" transform="translate(412.060547 0)"/>
      <use xlink:href="#DejaVuSans-28" transform="translate(443.847656 0)"/>
      <use xlink:href="#DejaVuSans-64" transform="translate(482.861328 0)"/>
      <use xlink:href="#DejaVuSans-65" transform="translate(546.337891 0)"/>
      <use xlink:href="#DejaVuSans-67" transform="translate(607.861328 0)"/>
      <use xlink:href="#DejaVuSans-72" transform="translate(671.337891 0)"/>
      <use xlink:href="#DejaVuSans-65" transform="translate(710.201172 0)"/>
      <use xlink:href="#DejaVuSans-65" transform="translate(771.724609 0)"/>
      <use xlink:href="#DejaVuSans-73" transform="translate(833.248047 0)"/>
      <use xlink:href="#DejaVuSans-29" transform="translate(885.347656 0)"/>
     </g>
    </g>
   </g>
   <g id="matplotlib.axis_2">
    <g id="ytick_1">
     <g id="line2d_83">
      <path d="M 29.0825 349.5345 
L 587.0825 349.5345 
" clip-path="url(#pbbbb928497)" style="fill: none; stroke: #b0b0b0; stroke-width: 0.5; stroke-linecap: square"/>
     </g>
     <g id="line2d_84">
      <defs>
       <path id="md0a4e270fd" d="M 0 0 
L 3 0 
" style="stroke: #000000; stroke-width: 0.5"/>
      </defs>
      <g>
       <use xlink:href="#md0a4e270fd" x="29.0825" y="349.5345" style="stroke: #000000; stroke-width: 0.5"/>
      </g>
     </g>
     <g id="line2d_85">
      <defs>
       <path id="mc1baccf446" d="M 0 0 
L -3 0 
" style="stroke: #000000; stroke-width: 0.5"/>
      </defs>
      <g>
       <use xlink:href="#mc1baccf446" x="587.0825" y="349.5345" style="stroke: #000000; stroke-width: 0.5"/>
      </g>
     </g>
     <g id="text_10">
      <!-- $\mathdefault{0}$ -->
      <g transform="translate(20.4625 352.573875) scale(0.08 -0.08)">
       <use xlink:href="#DejaVuSans-30" transform="translate(0 0.78125)"/>
      </g>
     </g>
    </g>
    <g id="ytick_2">
     <g id="line2d_86">
      <path d="M 29.0825 294.0945 
L 587.0825 294.0945 
" clip-path="url(#pbbbb928497)" style="fill: none; stroke: #b0b0b0; stroke-width: 0.5; stroke-linecap: square"/>
     </g>
     <g id="line2d_87">
      <g>
       <use xlink:href="#md0a4e270fd" x="29.0825" y="294.0945" style="stroke: #000000; stroke-width: 0.5"/>
      </g>
     </g>
     <g id="line2d_88">
      <g>
       <use xlink:href="#mc1baccf446" x="587.0825" y="294.0945" style="stroke: #000000; stroke-width: 0.5"/>
      </g>
     </g>
     <g id="text_11">
      <!-- $\mathdefault{15}$ -->
      <g transform="translate(15.3425 297.133875) scale(0.08 -0.08)">
       <use xlink:href="#DejaVuSans-31" transform="translate(0 0.09375)"/>
       <use xlink:href="#DejaVuSans-35" transform="translate(63.623047 0.09375)"/>
      </g>
     </g>
    </g>
    <g id="ytick_3">
     <g id="line2d_89">
      <path d="M 29.0825 238.6545 
L 587.0825 238.6545 
" clip-path="url(#pbbbb928497)" style="fill: none; stroke: #b0b0b0; stroke-width: 0.5; stroke-linecap: square"/>
     </g>
     <g id="line2d_90">
      <g>
       <use xlink:href="#md0a4e270fd" x="29.0825" y="238.6545" style="stroke: #000000; stroke-width: 0.5"/>
      </g>
     </g>
     <g id="line2d_91">
      <g>
       <use xlink:href="#mc1baccf446" x="587.0825" y="238.6545" style="stroke: #000000; stroke-width: 0.5"/>
      </g>
     </g>
     <g id="text_12">
      <!-- $\mathdefault{30}$ -->
      <g transform="translate(15.3425 241.693875) scale(0.08 -0.08)">
       <use xlink:href="#DejaVuSans-33" transform="translate(0 0.78125)"/>
       <use xlink:href="#DejaVuSans-30" transform="translate(63.623047 0.78125)"/>
      </g>
     </g>
    </g>
    <g id="ytick_4">
     <g id="line2d_92">
      <path d="M 29.0825 183.2145 
L 587.0825 183.2145 
" clip-path="url(#pbbbb928497)" style="fill: none; stroke: #b0b0b0; stroke-width: 0.5; stroke-linecap: square"/>
     </g>
     <g id="line2d_93">
      <g>
       <use xlink:href="#md0a4e270fd" x="29.0825" y="183.2145" style="stroke: #000000; stroke-width: 0.5"/>
      </g>
     </g>
     <g id="line2d_94">
      <g>
       <use xlink:href="#mc1baccf446" x="587.0825" y="183.2145" style="stroke: #000000; stroke-width: 0.5"/>
      </g>
     </g>
     <g id="text_13">
      <!-- $\mathdefault{45}$ -->
      <g transform="translate(15.3425 186.253875) scale(0.08 -0.08)">
       <defs>
        <path id="DejaVuSans-34" d="M 2419 4116 
L 825 1625 
L 2419 1625 
L 2419 4116 
z
M 2253 4666 
L 3047 4666 
L 3047 1625 
L 3713 1625 
L 3713 1100 
L 3047 1100 
L 3047 0 
L 2419 0 
L 2419 1100 
L 313 1100 
L 313 1709 
L 2253 4666 
z
" transform="scale(0.015625)"/>
       </defs>
       <use xlink:href="#DejaVuSans-34" transform="translate(0 0.09375)"/>
       <use xlink:href="#DejaVuSans-35" transform="translate(63.623047 0.09375)"/>
      </g>
     </g>
    </g>
    <g id="ytick_5">
     <g id="line2d_95">
      <path d="M 29.0825 127.7745 
L 587.0825 127.7745 
" clip-path="url(#pbbbb928497)" style="fill: none; stroke: #b0b0b0; stroke-width: 0.5; stroke-linecap: square"/>
     </g>
     <g id="line2d_96">
      <g>
       <use xlink:href="#md0a4e270fd" x="29.0825" y="127.7745" style="stroke: #000000; stroke-width: 0.5"/>
      </g>
     </g>
     <g id="line2d_97">
      <g>
       <use xlink:href="#mc1baccf446" x="587.0825" y="127.7745" style="stroke: #000000; stroke-width: 0.5"/>
      </g>
     </g>
     <g id="text_14">
      <!-- $\mathdefault{60}$ -->
      <g transform="translate(15.3425 130.813875) scale(0.08 -0.08)">
       <defs>
        <path id="DejaVuSans-36" d="M 2113 2584 
Q 1688 2584 1439 2293 
Q 1191 2003 1191 1497 
Q 1191 994 1439 701 
Q 1688 409 2113 409 
Q 2538 409 2786 701 
Q 3034 994 3034 1497 
Q 3034 2003 2786 2293 
Q 2538 2584 2113 2584 
z
M 3366 4563 
L 3366 3988 
Q 3128 4100 2886 4159 
Q 2644 4219 2406 4219 
Q 1781 4219 1451 3797 
Q 1122 3375 1075 2522 
Q 1259 2794 1537 2939 
Q 1816 3084 2150 3084 
Q 2853 3084 3261 2657 
Q 3669 2231 3669 1497 
Q 3669 778 3244 343 
Q 2819 -91 2113 -91 
Q 1303 -91 875 529 
Q 447 1150 447 2328 
Q 447 3434 972 4092 
Q 1497 4750 2381 4750 
Q 2619 4750 2861 4703 
Q 3103 4656 3366 4563 
z
" transform="scale(0.015625)"/>
       </defs>
       <use xlink:href="#DejaVuSans-36" transform="translate(0 0.78125)"/>
       <use xlink:href="#DejaVuSans-30" transform="translate(63.623047 0.78125)"/>
      </g>
     </g>
    </g>
    <g id="ytick_6">
     <g id="line2d_98">
      <path d="M 29.0825 72.3345 
L 587.0825 72.3345 
" clip-path="url(#pbbbb928497)" style="fill: none; stroke: #b0b0b0; stroke-width: 0.5; stroke-linecap: square"/>
     </g>
     <g id="line2d_99">
      <g>
       <use xlink:href="#md0a4e270fd" x="29.0825" y="72.3345" style="stroke: #000000; stroke-width: 0.5"/>
      </g>
     </g>
     <g id="line2d_100">
      <g>
       <use xlink:href="#mc1baccf446" x="587.0825" y="72.3345" style="stroke: #000000; stroke-width: 0.5"/>
      </g>
     </g>
     <g id="text_15">
      <!-- $\mathdefault{75}$ -->
      <g transform="translate(15.3425 75.373875) scale(0.08 -0.08)">
       <defs>
        <path id="DejaVuSans-37" d="M 525 4666 
L 3525 4666 
L 3525 4397 
L 1831 0 
L 1172 0 
L 2766 4134 
L 525 4134 
L 525 4666 
z
" transform="scale(0.015625)"/>
       </defs>
       <use xlink:href="#DejaVuSans-37" transform="translate(0 0.09375)"/>
       <use xlink:href="#DejaVuSans-35" transform="translate(63.623047 0.09375)"/>
      </g>
     </g>
    </g>
    <g id="ytick_7">
     <g id="line2d_101">
      <path d="M 29.0825 16.8945 
L 587.0825 16.8945 
" clip-path="url(#pbbbb928497)" style="fill: none; stroke: #b0b0b0; stroke-width: 0.5; stroke-linecap: square"/>
     </g>
     <g id="line2d_102">
      <g>
       <use xlink:href="#md0a4e270fd" x="29.0825" y="16.8945" style="stroke: #000000; stroke-width: 0.5"/>
      </g>
     </g>
     <g id="line2d_103">
      <g>
       <use xlink:href="#mc1baccf446" x="587.0825" y="16.8945" style="stroke: #000000; stroke-width: 0.5"/>
      </g>
     </g>
     <g id="text_16">
      <!-- $\mathdefault{90}$ -->
      <g transform="translate(15.3425 19.933875) scale(0.08 -0.08)">
       <defs>
        <path id="DejaVuSans-39" d="M 703 97 
L 703 672 
Q 941 559 1184 500 
Q 1428 441 1663 441 
Q 2288 441 2617 861 
Q 2947 1281 2994 2138 
Q 2813 1869 2534 1725 
Q 2256 1581 1919 1581 
Q 1219 1581 811 2004 
Q 403 2428 403 3163 
Q 403 3881 828 4315 
Q 1253 4750 1959 4750 
Q 2769 4750 3195 4129 
Q 3622 3509 3622 2328 
Q 3622 1225 3098 567 
Q 2575 -91 1691 -91 
Q 1453 -91 1209 -44 
Q 966 3 703 97 
z
M 1959 2075 
Q 2384 2075 2632 2365 
Q 2881 2656 2881 3163 
Q 2881 3666 2632 3958 
Q 2384 4250 1959 4250 
Q 1534 4250 1286 3958 
Q 1038 3666 1038 3163 
Q 1038 2656 1286 2365 
Q 1534 2075 1959 2075 
z
" transform="scale(0.015625)"/>
       </defs>
       <use xlink:href="#DejaVuSans-39" transform="translate(0 0.78125)"/>
       <use xlink:href="#DejaVuSans-30" transform="translate(63.623047 0.78125)"/>
      </g>
     </g>
    </g>
    <g id="ytick_8">
     <g id="line2d_104">
      <defs>
       <path id="m373779cc9a" d="M 0 0 
L 1.5 0 
" style="stroke: #000000; stroke-width: 0.5"/>
      </defs>
      <g>
       <use xlink:href="#m373779cc9a" x="29.0825" y="335.6745" style="stroke: #000000; stroke-width: 0.5"/>
      </g>
     </g>
     <g id="line2d_105">
      <defs>
       <path id="me19e8c0064" d="M 0 0 
L -1.5 0 
" style="stroke: #000000; stroke-width: 0.5"/>
      </defs>
      <g>
       <use xlink:href="#me19e8c0064" x="587.0825" y="335.6745" style="stroke: #000000; stroke-width: 0.5"/>
      </g>
     </g>
    </g>
    <g id="ytick_9">
     <g id="line2d_106">
      <g>
       <use xlink:href="#m373779cc9a" x="29.0825" y="321.8145" style="stroke: #000000; stroke-width: 0.5"/>
      </g>
     </g>
     <g id="line2d_107">
      <g>
       <use xlink:href="#me19e8c0064" x="587.0825" y="321.8145" style="stroke: #000000; stroke-width: 0.5"/>
      </g>
     </g>
    </g>
    <g id="ytick_10">
     <g id="line2d_108">
      <g>
       <use xlink:href="#m373779cc9a" x="29.0825" y="307.9545" style="stroke: #000000; stroke-width: 0.5"/>
      </g>
     </g>
     <g id="line2d_109">
      <g>
       <use xlink:href="#me19e8c0064" x="587.0825" y="307.9545" style="stroke: #000000; stroke-width: 0.5"/>
      </g>
     </g>
    </g>
    <g id="ytick_11">
     <g id="line2d_110">
      <g>
       <use xlink:href="#m373779cc9a" x="29.0825" y="280.2345" style="stroke: #000000; stroke-width: 0.5"/>
      </g>
     </g>
     <g id="line2d_111">
      <g>
       <use xlink:href="#me19e8c0064" x="587.0825" y="280.2345" style="stroke: #000000; stroke-width: 0.5"/>
      </g>
     </g>
    </g>
    <g id="ytick_12">
     <g id="line2d_112">
      <g>
       <use xlink:href="#m373779cc9a" x="29.0825" y="266.3745" style="stroke: #000000; stroke-width: 0.5"/>
      </g>
     </g>
     <g id="line2d_113">
      <g>
       <use xlink:href="#me19e8c0064" x="587.0825" y="266.3745" style="stroke: #000000; stroke-width: 0.5"/>
      </g>
     </g>
    </g>
    <g id="ytick_13">
     <g id="line2d_114">
      <g>
       <use xlink:href="#m373779cc9a" x="29.0825" y="252.5145" style="stroke: #000000; stroke-width: 0.5"/>
      </g>
     </g>
     <g id="line2d_115">
      <g>
       <use xlink:href="#me19e8c0064" x="587.0825" y="252.5145" style="stroke: #000000; stroke-width: 0.5"/>
      </g>
     </g>
    </g>
    <g id="ytick_14">
     <g id="line2d_116">
      <g>
       <use xlink:href="#m373779cc9a" x="29.0825" y="224.7945" style="stroke: #000000; stroke-width: 0.5"/>
      </g>
     </g>
     <g id="line2d_117">
      <g>
       <use xlink:href="#me19e8c0064" x="587.0825" y="224.7945" style="stroke: #000000; stroke-width: 0.5"/>
      </g>
     </g>
    </g>
    <g id="ytick_15">
     <g id="line2d_118">
      <g>
       <use xlink:href="#m373779cc9a" x="29.0825" y="210.9345" style="stroke: #000000; stroke-width: 0.5"/>
      </g>
     </g>
     <g id="line2d_119">
      <g>
       <use xlink:href="#me19e8c0064" x="587.0825" y="210.9345" style="stroke: #000000; stroke-width: 0.5"/>
      </g>
     </g>
    </g>
    <g id="ytick_16">
     <g id="line2d_120">
      <g>
       <use xlink:href="#m373779cc9a" x="29.0825" y="197.0745" style="stroke: #000000; stroke-width: 0.5"/>
      </g>
     </g>
     <g id="line2d_121">
      <g>
       <use xlink:href="#me19e8c0064" x="587.0825" y="197.0745" style="stroke: #000000; stroke-width: 0.5"/>
      </g>
     </g>
    </g>
    <g id="ytick_17">
     <g id="line2d_122">
      <g>
       <use xlink:href="#m373779cc9a" x="29.0825" y="169.3545" style="stroke: #000000; stroke-width: 0.5"/>
      </g>
     </g>
     <g id="line2d_123">
      <g>
       <use xlink:href="#me19e8c0064" x="587.0825" y="169.3545" style="stroke: #000000; stroke-width: 0.5"/>
      </g>
     </g>
    </g>
    <g id="ytick_18">
     <g id="line2d_124">
      <g>
       <use xlink:href="#m373779cc9a" x="29.0825" y="155.4945" style="stroke: #000000; stroke-width: 0.5"/>
      </g>
     </g>
     <g id="line2d_125">
      <g>
       <use xlink:href="#me19e8c0064" x="587.0825" y="155.4945" style="stroke: #000000; stroke-width: 0.5"/>
      </g>
     </g>
    </g>
    <g id="ytick_19">
     <g id="line2d_126">
      <g>
       <use xlink:href="#m373779cc9a" x="29.0825" y="141.6345" style="stroke: #000000; stroke-width: 0.5"/>
      </g>
     </g>
     <g id="line2d_127">
      <g>
       <use xlink:href="#me19e8c0064" x="587.0825" y="141.6345" style="stroke: #000000; stroke-width: 0.5"/>
      </g>
     </g>
    </g>
    <g id="ytick_20">
     <g id="line2d_128">
      <g>
       <use xlink:href="#m373779cc9a" x="29.0825" y="113.9145" style="stroke: #000000; stroke-width: 0.5"/>
      </g>
     </g>
     <g id="line2d_129">
      <g>
       <use xlink:href="#me19e8c0064" x="587.0825" y="113.9145" style="stroke: #000000; stroke-width: 0.5"/>
      </g>
     </g>
    </g>
    <g id="ytick_21">
     <g id="line2d_130">
      <g>
       <use xlink:href="#m373779cc9a" x="29.0825" y="100.0545" style="stroke: #000000; stroke-width: 0.5"/>
      </g>
     </g>
     <g id="line2d_131">
      <g>
       <use xlink:href="#me19e8c0064" x="587.0825" y="100.0545" style="stroke: #000000; stroke-width: 0.5"/>
      </g>
     </g>
    </g>
    <g id="ytick_22">
     <g id="line2d_132">
      <g>
       <use xlink:href="#m373779cc9a" x="29.0825" y="86.1945" style="stroke: #000000; stroke-width: 0.5"/>
      </g>
     </g>
     <g id="line2d_133">
      <g>
       <use xlink:href="#me19e8c0064" x="587.0825" y="86.1945" style="stroke: #000000; stroke-width: 0.5"/>
      </g>
     </g>
    </g>
    <g id="ytick_23">
     <g id="line2d_134">
      <g>
       <use xlink:href="#m373779cc9a" x="29.0825" y="58.4745" style="stroke: #000000; stroke-width: 0.5"/>
      </g>
     </g>
     <g id="line2d_135">
      <g>
       <use xlink:href="#me19e8c0064" x="587.0825" y="58.4745" style="stroke: #000000; stroke-width: 0.5"/>
      </g>
     </g>
    </g>
    <g id="ytick_24">
     <g id="line2d_136">
      <g>
       <use xlink:href="#m373779cc9a" x="29.0825" y="44.6145" style="stroke: #000000; stroke-width: 0.5"/>
      </g>
     </g>
     <g id="line2d_137">
      <g>
       <use xlink:href="#me19e8c0064" x="587.0825" y="44.6145" style="stroke: #000000; stroke-width: 0.5"/>
      </g>
     </g>
    </g>
    <g id="ytick_25">
     <g id="line2d_138">
      <g>
       <use xlink:href="#m373779cc9a" x="29.0825" y="30.7545" style="stroke: #000000; stroke-width: 0.5"/>
      </g>
     </g>
     <g id="line2d_139">
      <g>
       <use xlink:href="#me19e8c0064" x="587.0825" y="30.7545" style="stroke: #000000; stroke-width: 0.5"/>
      </g>
     </g>
    </g>
    <g id="text_17">
     <!-- Elevation (degrees) -->
     <g transform="translate(9.67875 222.28825) rotate(-90) scale(0.08 -0.08)">
      <defs>
       <path id="DejaVuSans-45" d="M 628 4666 
L 3578 4666 
L 3578 4134 
L 1259 4134 
L 1259 2753 
L 3481 2753 
L 3481 2222 
L 1259 2222 
L 1259 531 
L 3634 531 
L 3634 0 
L 628 0 
L 628 4666 
z
" transform="scale(0.015625)"/>
       <path id="DejaVuSans-6c" d="M 603 4863 
L 1178 4863 
L 1178 0 
L 603 0 
L 603 4863 
z
" transform="scale(0.015625)"/>
       <path id="DejaVuSans-76" d="M 191 3500 
L 800 3500 
L 1894 563 
L 2988 3500 
L 3597 3500 
L 2284 0 
L 1503 0 
L 191 3500 
z
" transform="scale(0.015625)"/>
       <path id="DejaVuSans-61" d="M 2194 1759 
Q 1497 1759 1228 1600 
Q 959 1441 959 1056 
Q 959 750 1161 570 
Q 1363 391 1709 391 
Q 2188 391 2477 730 
Q 2766 1069 2766 1631 
L 2766 1759 
L 2194 1759 
z
M 3341 1997 
L 3341 0 
L 2766 0 
L 2766 531 
Q 2569 213 2275 61 
Q 1981 -91 1556 -91 
Q 1019 -91 701 211 
Q 384 513 384 1019 
Q 384 1609 779 1909 
Q 1175 2209 1959 2209 
L 2766 2209 
L 2766 2266 
Q 2766 2663 2505 2880 
Q 2244 3097 1772 3097 
Q 1472 3097 1187 3025 
Q 903 2953 641 2809 
L 641 3341 
Q 956 3463 1253 3523 
Q 1550 3584 1831 3584 
Q 2591 3584 2966 3190 
Q 3341 2797 3341 1997 
z
" transform="scale(0.015625)"/>
       <path id="DejaVuSans-6f" d="M 1959 3097 
Q 1497 3097 1228 2736 
Q 959 2375 959 1747 
Q 959 1119 1226 758 
Q 1494 397 1959 397 
Q 2419 397 2687 759 
Q 2956 1122 2956 1747 
Q 2956 2369 2687 2733 
Q 2419 3097 1959 3097 
z
M 1959 3584 
Q 2709 3584 3137 3096 
Q 3566 2609 3566 1747 
Q 3566 888 3137 398 
Q 2709 -91 1959 -91 
Q 1206 -91 779 398 
Q 353 888 353 1747 
Q 353 2609 779 3096 
Q 1206 3584 1959 3584 
z
" transform="scale(0.015625)"/>
       <path id="DejaVuSans-6e" d="M 3513 2113 
L 3513 0 
L 2938 0 
L 2938 2094 
Q 2938 2591 2744 2837 
Q 2550 3084 2163 3084 
Q 1697 3084 1428 2787 
Q 1159 2491 1159 1978 
L 1159 0 
L 581 0 
L 581 3500 
L 1159 3500 
L 1159 2956 
Q 1366 3272 1645 3428 
Q 1925 3584 2291 3584 
Q 2894 3584 3203 3211 
Q 3513 2838 3513 2113 
z
" transform="scale(0.015625)"/>
      </defs>
      <use xlink:href="#DejaVuSans-45"/>
      <use xlink:href="#DejaVuSans-6c" transform="translate(63.183594 0)"/>
      <use xlink:href="#DejaVuSans-65" transform="translate(90.966797 0)"/>
      <use xlink:href="#DejaVuSans-76" transform="translate(152.490234 0)"/>
      <use xlink:href="#DejaVuSans-61" transform="translate(211.669922 0)"/>
      <use xlink:href="#DejaVuSans-74" transform="translate(272.949219 0)"/>
      <use xlink:href="#DejaVuSans-69" transform="translate(312.158203 0)"/>
      <use xlink:href="#DejaVuSans-6f" transform="translate(339.941406 0)"/>
      <use xlink:href="#DejaVuSans-6e" transform="translate(401.123047 0)"/>
      <use xlink:href="#DejaVuSans-20" transform="translate(464.501953 0)"/>
      <use xlink:href="#DejaVuSans-28" transform="translate(496.289062 0)"/>
      <use xlink:href="#DejaVuSans-64" transform="translate(535.302734 0)"/>
      <use xlink:href="#DejaVuSans-65" transform="translate(598.779297 0)"/>
      <use xlink:href="#DejaVuSans-67" transform="translate(660.302734 0)"/>
      <use xlink:href="#DejaVuSans-72" transform="translate(723.779297 0)"/>
      <use xlink:href="#DejaVuSans-65" transform="translate(762.642578 0)"/>
      <use xlink:href="#DejaVuSans-65" transform="translate(824.166016 0)"/>
      <use xlink:href="#DejaVuSans-73" transform="translate(885.689453 0)"/>
      <use xlink:href="#DejaVuSans-29" transform="translate(937.789062 0)"/>
     </g>
    </g>
   </g>
   <g id="line2d_140">
    <path d="M 511.122397 340.405206 
L 510.911425 339.102579 
L 510.692425 337.775688 
L 510.46497 336.423331 
L 510.228602 335.044227 
L 509.982821 333.636977 
L 509.7271 332.200121 
L 509.460866 330.732101 
L 509.183497 329.231215 
L 508.894331 327.695676 
L 508.592647 326.123574 
L 508.277661 324.51282 
L 507.948529 322.861214 
L 507.604332 321.166381 
L 507.244071 319.425779 
L 506.866652 317.636634 
L 506.470887 315.796001 
L 506.055478 313.900711 
L 505.618992 311.947295 
L 505.159865 309.93206 
L 504.676379 307.851019 
L 504.166625 305.699811 
L 503.628509 303.473772 
L 503.059708 301.167861 
L 502.457631 298.776564 
L 501.819408 296.293973 
L 501.141831 293.713673 
L 500.421317 291.028747 
L 499.653827 288.23165 
L 498.834831 285.314299 
L 497.95922 282.267978 
L 497.021185 279.083234 
L 496.01415 275.749997 
L 494.930618 272.25751 
L 493.76199 268.594251 
L 492.498424 264.748153 
L 491.128585 260.706611 
L 489.639338 256.45654 
L 488.015483 251.984811 
L 486.239322 247.278493 
L 484.290211 242.325459 
L 482.143937 237.114986 
L 479.772155 231.639049 
L 477.141588 225.893657 
L 474.213109 219.880646 
L 470.940968 213.610514 
L 467.271892 207.105573 
L 463.144362 200.403892 
L 458.488754 193.564529 
L 453.228383 186.672915 
L 447.282549 179.84634 
L 440.573329 173.238963 
L 433.036773 167.043494 
L 424.640194 161.487735 
L 415.404018 156.822254 
L 405.424575 153.2976 
L 394.887081 151.130978 
L 384.057894 150.4693 
L 373.251429 151.359929 
L 362.778229 153.740365 
L 352.894565 157.451741 
L 343.772925 162.269888 
L 335.497766 167.942366 
L 328.080521 174.220608 
L 321.482817 180.881134 
L 315.637813 187.736502 
L 310.466644 194.637822 
L 305.888859 201.472557 
L 301.828641 208.159276 
L 298.217492 214.642147 
L 294.995073 220.885605 
L 292.109224 226.869232 
L 289.515196 232.58393 
L 287.174738 238.028864 
L 285.055321 243.208728 
L 283.129237 248.132024 
L 281.37281 252.809779 
L 279.765849 257.254306 
L 278.291032 261.47863 
L 276.933482 265.495913 
L 275.680331 269.319229 
L 274.520472 272.961144 
L 273.444255 276.433669 
L 272.443245 279.748255 
L 271.510084 282.915585 
L 270.638317 285.945651 
L 269.822235 288.84783 
L 269.056817 291.630763 
L 268.33761 294.302461 
L 267.660642 296.870402 
L 267.022385 299.341438 
L 266.419681 301.721925 
L 265.849705 304.017714 
L 265.309903 306.234268 
" clip-path="url(#pbbbb928497)" style="fill: none; stroke: #000000; stroke-width: 2; stroke-linecap: square"/>
   </g>
   <g id="line2d_141">
    <defs>
     <path id="m5a46143ce6" d="M 0 3 
C 0.795609 3 1.55874 2.683901 2.12132 2.12132 
C 2.683901 1.55874 3 0.795609 3 0 
C 3 -0.795609 2.683901 -1.55874 2.12132 -2.12132 
C 1.55874 -2.683901 0.795609 -3 0 -3 
C -0.795609 -3 -1.55874 -2.683901 -2.12132 -2.12132 
C -2.683901 -1.55874 -3 -0.795609 -3 0 
C -3 0.795609 -2.683901 1.55874 -2.12132 2.12132 
C -1.55874 2.683901 -0.795609 3 0 3 
z
" style="stroke: #ff0000"/>
    </defs>
    <g clip-path="url(#pbbbb928497)">
     <use xlink:href="#m5a46143ce6" x="511.122397" y="340.405206" style="fill: #ff0000; stroke: #ff0000"/>
    </g>
   </g>
   <g id="line2d_142">
    <defs>
     <path id="m8bda573db5" d="M -3 3 
L 3 3 
L 3 -3 
L -3 -3 
z
" style="stroke: #0000ff; stroke-linejoin: miter"/>
    </defs>
    <g clip-path="url(#pbbbb928497)">
     <use xlink:href="#m8bda573db5" x="265.309903" y="306.234268" style="fill: #0000ff; stroke: #0000ff; stroke-linejoin: miter"/>
    </g>
   </g>
   <g id="line2d_143">
    <path d="M 524.565083 346.271432 
L 524.694322 345.0625 
L 524.82693 343.833649 
L 524.963086 342.583908 
L 525.102973 341.312275 
L 525.246789 340.017684 
L 525.39475 338.698969 
L 525.547082 337.354926 
L 525.704033 335.984229 
L 525.865864 334.585494 
L 526.032858 333.157241 
L 526.205322 331.69785 
L 526.383586 330.205622 
L 526.568002 328.678732 
L 526.75896 327.115185 
L 526.956872 325.512886 
L 527.162197 323.869528 
L 527.375423 322.182664 
L 527.597087 320.449657 
L 527.827778 318.667613 
L 528.068133 316.833447 
L 528.318852 314.94382 
L 528.58071 312.995061 
L 528.854549 310.983254 
L 529.141308 308.904071 
L 529.442018 306.752856 
L 529.757821 304.524534 
L 530.089994 302.213509 
L 530.439953 299.813726 
L 530.809277 297.318558 
L 531.19975 294.720683 
L 531.613361 292.012158 
L 532.052372 289.184169 
L 532.519331 286.227095 
L 533.017137 283.130355 
L 533.549113 279.882218 
L 534.119054 276.469838 
L 534.731332 272.879062 
L 535.391024 269.094201 
L 536.104017 265.0981 
L 536.877223 260.871753 
L 537.718762 256.394393 
L 538.638254 251.643289 
L 539.6472 246.593545 
L 540.759402 241.218318 
L 541.991578 235.488804 
L 543.364194 229.374351 
L 544.902441 222.843293 
L 546.63775 215.863448 
L 548.609637 208.403917 
L 550.868385 200.437194 
L 553.478788 191.942371 
L 556.525178 182.910575 
L 560.118626 173.352179 
L 564.406963 163.30717 
L 569.58788 152.86076 
L 575.925707 142.163809 
L 583.767522 131.461998 
" clip-path="url(#pbbbb928497)" style="fill: none; stroke-dasharray: 12.8,3.2,2,3.2; stroke-dashoffset: 0; stroke: #008000; stroke-width: 2"/>
   </g>
   <g id="line2d_144">
    <path d="M 35.547003 121.131912 
L 47.742348 111.718949 
L 62.720716 103.954021 
L 80.40762 98.689786 
L 99.902137 96.685506 
L 119.507542 98.279664 
L 137.472194 103.202297 
L 152.785557 110.726727 
L 165.293353 119.996815 
L 175.331672 130.26173 
L 183.376504 140.953712 
L 189.870419 151.677808 
L 195.171099 162.174881 
L 199.551679 172.283989 
L 203.216905 181.91351 
L 206.319632 191.01869 
L 208.974682 199.586208 
L 211.269172 207.623278 
L 213.269842 215.14952 
L 215.028469 222.191876 
L 216.585719 228.781184 
L 217.973817 234.949414 
L 219.218645 240.728567 
L 220.341137 246.149374 
L 221.358406 251.240912 
L 222.284585 256.030425 
L 223.1314 260.542975 
L 223.908671 264.801575 
L 224.624695 268.827353 
L 225.286495 272.639427 
L 225.900085 276.255297 
L 226.470618 279.690769 
L 227.002541 282.960184 
L 227.499725 286.076633 
L 227.965529 289.051898 
L 228.402908 291.896771 
L 228.814449 294.620991 
L 229.202435 297.233419 
L 229.568898 299.742181 
L 229.915636 302.154628 
L 230.24425 304.477466 
L 230.556181 306.716881 
L 230.852712 308.878461 
L 231.135008 310.967391 
L 231.40411 312.988382 
L 231.660962 314.945759 
L 231.906425 316.843547 
L 232.141276 318.685407 
L 232.366221 320.474718 
" clip-path="url(#pbbbb928497)" style="fill: none; stroke: #000000; stroke-width: 2; stroke-linecap: square"/>
   </g>
   <g id="line2d_145">
    <g clip-path="url(#pbbbb928497)">
     <use xlink:href="#m5a46143ce6" x="524.565083" y="346.271432" style="fill: #ff0000; stroke: #ff0000"/>
    </g>
   </g>
   <g id="line2d_146">
    <g clip-path="url(#pbbbb928497)">
     <use xlink:href="#m8bda573db5" x="232.366221" y="320.474718" style="fill: #0000ff; stroke: #0000ff; stroke-linejoin: miter"/>
    </g>
   </g>
   <g id="line2d_147">
    <path d="M 536.513086 345.085568 
L 536.941469 343.912719 
L 537.382352 342.722277 
L 537.836331 341.513519 
L 538.304042 340.285672 
L 538.78616 339.037927 
L 539.283403 337.76943 
L 539.796538 336.479286 
L 540.32638 335.166552 
L 540.873799 333.830238 
L 541.439723 332.469303 
L 542.025144 331.08265 
L 542.631123 329.669131 
L 543.258794 328.227536 
L 543.909372 326.756596 
L 544.58416 325.254981 
L 545.284556 323.721293 
L 546.012059 322.154071 
L 546.768281 320.551784 
L 547.554958 318.912835 
L 548.373954 317.235556 
L 549.227281 315.518214 
L 550.117105 313.759007 
L 551.045765 311.956073 
L 552.015786 310.107492 
L 553.029893 308.211295 
L 554.091034 306.265473 
L 555.202397 304.267992 
L 556.367429 302.216811 
L 557.58986 300.109905 
L 558.873729 297.945295 
L 560.223402 295.721086 
L 561.643605 293.435514 
L 563.139446 291.087005 
L 564.71644 288.674246 
L 566.380536 286.19627 
L 568.138139 283.652568 
L 569.996127 281.043208 
L 571.961861 278.368991 
L 574.04319 275.631626 
L 576.248436 272.83394 
L 578.586363 269.980108 
L 581.06612 267.075927 
L 583.697156 264.129109 
L 586.489081 261.149595 
" clip-path="url(#pbbbb928497)" style="fill: none; stroke-dasharray: 12.8,3.2,2,3.2; stroke-dashoffset: 0; stroke: #008000; stroke-width: 2"/>
   </g>
   <g id="line2d_148">
    <path d="M 31.451487 258.149891 
L 34.593701 255.145389 
L 37.924457 252.15467 
L 41.451501 249.199734 
L 45.181089 246.306145 
L 49.117415 243.503009 
L 53.261961 240.822762 
L 57.612807 238.300689 
L 62.163944 235.974145 
L 66.904665 233.881455 
L 71.819108 232.060492 
L 76.886056 230.54701 
L 82.079056 229.372822 
L 87.366951 228.563994 
L 92.714795 228.139223 
L 98.085146 228.108615 
L 103.439597 228.472987 
L 108.740419 229.223813 
L 113.952124 230.343805 
L 119.042806 231.808063 
L 123.985136 233.585629 
L 128.75695 235.641284 
L 133.341448 237.937373 
L 137.727042 240.435516 
L 141.906935 243.098075 
L 145.878533 245.889315 
L 149.642769 248.776242 
L 153.203406 251.729126 
L 156.566383 254.721767 
L 159.739219 257.731538 
L 162.730508 260.739272 
L 165.549495 263.729039 
L 168.205747 266.687852 
L 170.708886 269.605351 
L 173.068398 272.473463 
L 175.293495 275.286088 
L 177.393013 278.038797 
L 179.375356 280.728555 
L 181.248455 283.353487 
L 183.019759 285.912656 
L 184.69623 288.405889 
L 186.284356 290.833616 
L 187.790164 293.196744 
L 189.219244 295.496542 
L 190.576775 297.734555 
L 191.867546 299.912529 
L 193.095988 302.032348 
L 194.266192 304.095989 
L 195.381943 306.105478 
L 196.446736 308.062866 
L 197.463802 309.970194 
L 198.43613 311.829485 
L 199.366484 313.642723 
L 200.257423 315.411842 
L 201.111316 317.138721 
L 201.93036 318.825176 
L 202.716591 320.47296 
L 203.4719 322.083754 
L 204.198044 323.659174 
L 204.896656 325.200765 
L 205.569254 326.710005 
" clip-path="url(#pbbbb928497)" style="fill: none; stroke: #000000; stroke-width: 2; stroke-linecap: square"/>
   </g>
   <g id="line2d_149">
    <g clip-path="url(#pbbbb928497)">
     <use xlink:href="#m5a46143ce6" x="536.513086" y="345.085568" style="fill: #ff0000; stroke: #ff0000"/>
    </g>
   </g>
   <g id="line2d_150">
    <g clip-path="url(#pbbbb928497)">
     <use xlink:href="#m8bda573db5" x="205.569254" y="326.710005" style="fill: #0000ff; stroke: #0000ff; stroke-linejoin: miter"/>
    </g>
   </g>
   <g id="patch_3">
    <path d="M 29.0825 349.5345 
L 29.0825 16.8945 
" style="fill: none; stroke: #000000; stroke-width: 0.5; stroke-linejoin: miter; stroke-linecap: square"/>
   </g>
   <g id="patch_4">
    <path d="M 587.0825 349.5345 
L 587.0825 16.8945 
" style="fill: none; stroke: #000000; stroke-width: 0.5; stroke-linejoin: miter; stroke-linecap: square"/>
   </g>
   <g id="patch_5">
    <path d="M 29.0825 349.5345 
L 587.0825 349.5345 
" style="fill: none; stroke: #000000; stroke-width: 0.5; stroke-linejoin: miter; stroke-linecap: square"/>
   </g>
   <g id="patch_6">
    <path d="M 29.0825 16.8945 
L 587.0825 16.8945 
" style="fill: none; stroke: #000000; stroke-width: 0.5; stroke-linejoin: miter; stroke-linecap: square"/>
   </g>
   <g id="text_18">
    <!-- Elevation vs Azimuth -->
    <g transform="translate(257.61575 10.8945) scale(0.096 -0.096)">
     <use xlink:href="#DejaVuSans-45"/>
     <use xlink:href="#DejaVuSans-6c" transform="translate(63.183594 0)"/>
     <use xlink:href="#DejaVuSans-65" transform="translate(90.966797 0)"/>
     <use xlink:href="#DejaVuSans-76" transform="translate(152.490234 0)"/>
     <use xlink:href="#DejaVuSans-61" transform="translate(211.669922 0)"/>
     <use xlink:href="#DejaVuSans-74" transform="translate(272.949219 0)"/>
     <use xlink:href="#DejaVuSans-69" transform="translate(312.158203 0)"/>
     <use xlink:href="#DejaVuSans-6f" transform="translate(339.941406 0)"/>
     <use xlink:href="#DejaVuSans-6e" transform="translate(401.123047 0)"/>
     <use xlink:href="#DejaVuSans-20" transform="translate(464.501953 0)"/>
     <use xlink:href="#DejaVuSans-76" transform="translate(496.289062 0)"/>
     <use xlink:href="#DejaVuSans-73" transform="translate(555.46875 0)"/>
     <use xlink:href="#DejaVuSans-20" transform="translate(607.568359 0)"/>
     <use xlink:href="#DejaVuSans-41" transform="translate(639.355469 0)"/>
     <use xlink:href="#DejaVuSans-7a" transform="translate(707.763672 0)"/>
     <use xlink:href="#DejaVuSans-69" transform="translate(760.253906 0)"/>
     <use xlink:href="#DejaVuSans-6d" transform="translate(788.037109 0)"/>
     <use xlink:href="#DejaVuSans-75" transform="translate(885.449219 0)"/>
     <use xlink:href="#DejaVuSans-74" transform="translate(948.828125 0)"/>
     <use xlink:href="#DejaVuSans-68" transform="translate(988.037109 0)"/>
    </g>
   </g>
   <g id="legend_1">
    <g id="patch_7">
     <path d="M 497.17375 30.17325 
L 513.17375 30.17325 
L 513.17375 24.57325 
L 497.17375 24.57325 
z
" style="fill: #808080; fill-opacity: 0.2; stroke: #808080; stroke-opacity: 0.2; stroke-linejoin: miter"/>
    </g>
    <g id="text_19">
     <!-- Elevation Mask -->
     <g transform="translate(519.57375 30.17325) scale(0.08 -0.08)">
      <defs>
       <path id="DejaVuSans-4d" d="M 628 4666 
L 1569 4666 
L 2759 1491 
L 3956 4666 
L 4897 4666 
L 4897 0 
L 4281 0 
L 4281 4097 
L 3078 897 
L 2444 897 
L 1241 4097 
L 1241 0 
L 628 0 
L 628 4666 
z
" transform="scale(0.015625)"/>
       <path id="DejaVuSans-6b" d="M 581 4863 
L 1159 4863 
L 1159 1991 
L 2875 3500 
L 3609 3500 
L 1753 1863 
L 3688 0 
L 2938 0 
L 1159 1709 
L 1159 0 
L 581 0 
L 581 4863 
z
" transform="scale(0.015625)"/>
      </defs>
      <use xlink:href="#DejaVuSans-45"/>
      <use xlink:href="#DejaVuSans-6c" transform="translate(63.183594 0)"/>
      <use xlink:href="#DejaVuSans-65" transform="translate(90.966797 0)"/>
      <use xlink:href="#DejaVuSans-76" transform="translate(152.490234 0)"/>
      <use xlink:href="#DejaVuSans-61" transform="translate(211.669922 0)"/>
      <use xlink:href="#DejaVuSans-74" transform="translate(272.949219 0)"/>
      <use xlink:href="#DejaVuSans-69" transform="translate(312.158203 0)"/>
      <use xlink:href="#DejaVuSans-6f" transform="translate(339.941406 0)"/>
      <use xlink:href="#DejaVuSans-6e" transform="translate(401.123047 0)"/>
      <use xlink:href="#DejaVuSans-20" transform="translate(464.501953 0)"/>
      <use xlink:href="#DejaVuSans-4d" transform="translate(496.289062 0)"/>
      <use xlink:href="#DejaVuSans-61" transform="translate(582.568359 0)"/>
      <use xlink:href="#DejaVuSans-73" transform="translate(643.847656 0)"/>
      <use xlink:href="#DejaVuSans-6b" transform="translate(695.947266 0)"/>
     </g>
    </g>
    <g id="line2d_151">
     <path d="M 497.17375 39.11575 
L 505.17375 39.11575 
L 513.17375 39.11575 
" style="fill: none; stroke: #000000; stroke-width: 2; stroke-linecap: square"/>
    </g>
    <g id="text_20">
     <!-- Pass 1 -->
     <g transform="translate(519.57375 41.91575) scale(0.08 -0.08)">
      <defs>
       <path id="DejaVuSans-50" d="M 1259 4147 
L 1259 2394 
L 2053 2394 
Q 2494 2394 2734 2622 
Q 2975 2850 2975 3272 
Q 2975 3691 2734 3919 
Q 2494 4147 2053 4147 
L 1259 4147 
z
M 628 4666 
L 2053 4666 
Q 2838 4666 3239 4311 
Q 3641 3956 3641 3272 
Q 3641 2581 3239 2228 
Q 2838 1875 2053 1875 
L 1259 1875 
L 1259 0 
L 628 0 
L 628 4666 
z
" transform="scale(0.015625)"/>
      </defs>
      <use xlink:href="#DejaVuSans-50"/>
      <use xlink:href="#DejaVuSans-61" transform="translate(55.802734 0)"/>
      <use xlink:href="#DejaVuSans-73" transform="translate(117.082031 0)"/>
      <use xlink:href="#DejaVuSans-73" transform="translate(169.181641 0)"/>
      <use xlink:href="#DejaVuSans-20" transform="translate(221.28125 0)"/>
      <use xlink:href="#DejaVuSans-31" transform="translate(253.068359 0)"/>
     </g>
    </g>
    <g id="line2d_152">
     <path d="M 497.17375 50.85825 
L 505.17375 50.85825 
L 513.17375 50.85825 
" style="fill: none; stroke-dasharray: 12.8,3.2,2,3.2; stroke-dashoffset: 0; stroke: #008000; stroke-width: 2"/>
    </g>
    <g id="text_21">
     <!-- Pass 2 -->
     <g transform="translate(519.57375 53.65825) scale(0.08 -0.08)">
      <use xlink:href="#DejaVuSans-50"/>
      <use xlink:href="#DejaVuSans-61" transform="translate(55.802734 0)"/>
      <use xlink:href="#DejaVuSans-73" transform="translate(117.082031 0)"/>
      <use xlink:href="#DejaVuSans-73" transform="translate(169.181641 0)"/>
      <use xlink:href="#DejaVuSans-20" transform="translate(221.28125 0)"/>
      <use xlink:href="#DejaVuSans-32" transform="translate(253.068359 0)"/>
     </g>
    </g>
    <g id="line2d_153">
     <path d="M 497.17375 62.60075 
L 505.17375 62.60075 
L 513.17375 62.60075 
" style="fill: none; stroke-dasharray: 12.8,3.2,2,3.2; stroke-dashoffset: 0; stroke: #008000; stroke-width: 2"/>
    </g>
    <g id="text_22">
     <!-- Pass 3 -->
     <g transform="translate(519.57375 65.40075) scale(0.08 -0.08)">
      <use xlink:href="#DejaVuSans-50"/>
      <use xlink:href="#DejaVuSans-61" transform="translate(55.802734 0)"/>
      <use xlink:href="#DejaVuSans-73" transform="translate(117.082031 0)"/>
      <use xlink:href="#DejaVuSans-73" transform="translate(169.181641 0)"/>
      <use xlink:href="#DejaVuSans-20" transform="translate(221.28125 0)"/>
      <use xlink:href="#DejaVuSans-33" transform="translate(253.068359 0)"/>
     </g>
    </g>
   </g>
  </g>
 </g>
 <defs>
  <clipPath id="pbbbb928497">
   <rect x="29.0825" y="16.8945" width="558" height="332.64"/>
  </clipPath>
 </defs>
</svg>
