<?xml version="1.0" encoding="utf-8" standalone="no"?>
<!DOCTYPE svg PUBLIC "-//W3C//DTD SVG 1.1//EN"
  "http://www.w3.org/Graphics/SVG/1.1/DTD/svg11.dtd">
<svg xmlns:xlink="http://www.w3.org/1999/xlink" width="591.709375pt" height="379.545pt" viewBox="0 0 591.709375 379.545" xmlns="http://www.w3.org/2000/svg" version="1.1">
 <metadata>
  <rdf:RDF xmlns:dc="http://purl.org/dc/elements/1.1/" xmlns:cc="http://creativecommons.org/ns#" xmlns:rdf="http://www.w3.org/1999/02/22-rdf-syntax-ns#">
   <cc:Work>
    <dc:type rdf:resource="http://purl.org/dc/dcmitype/StillImage"/>
    <dc:date>2026-02-08T22:14:55.667460</dc:date>
    <dc:format>image/svg+xml</dc:format>
    <dc:creator>
     <cc:Agent>
      <dc:title>Matplotlib v3.10.8, https://matplotlib.org/</dc:title>
     </cc:Agent>
    </dc:creator>
   </cc:Work>
  </rdf:RDF>
 </metadata>
 <defs>
  <style type="text/css">*{stroke-linejoin: round; stroke-linecap: butt}</style>
 </defs>
 <g id="figure_1">
  <g id="patch_1">
   <path d="M 0 379.545 
L 591.709375 379.545 
L 591.709375 0 
L 0 0 
z
" style="fill: #1c1e24"/>
  </g>
  <g id="axes_1">
   <g id="patch_2">
    <path d="M 30.109375 350.435625 
L 588.109375 350.435625 
L 588.109375 17.795625 
L 30.109375 17.795625 
z
" style="fill: #1c1e24"/>
   </g>
   <g id="FillBetweenPolyCollection_1">
    <defs>
     <path id="m2fa60acfd4" d="M 30.109375 -84.549375 
L 30.109375 -29.109375 
L 31.659375 -29.109375 
L 33.209375 -29.109375 
L 34.759375 -29.109375 
L 36.309375 -29.109375 
L 37.859375 -29.109375 
L 39.409375 -29.109375 
L 40.959375 -29.109375 
L 42.509375 -29.109375 
L 44.059375 -29.109375 
L 45.609375 -29.109375 
L 47.159375 -29.109375 
L 48.709375 -29.109375 
L 50.259375 -29.109375 
L 51.809375 -29.109375 
L 53.359375 -29.109375 
L 54.909375 -29.109375 
L 56.459375 -29.109375 
L 58.009375 -29.109375 
L 59.559375 -29.109375 
L 61.109375 -29.109375 
L 62.659375 -29.109375 
L 64.209375 -29.109375 
L 65.759375 -29.109375 
L 67.309375 -29.109375 
L 68.859375 -29.109375 
L 70.409375 -29.109375 
L 71.959375 -29.109375 
L 73.509375 -29.109375 
L 75.059375 -29.109375 
L 76.609375 -29.109375 
L 78.159375 -29.109375 
L 79.709375 -29.109375 
L 81.259375 -29.109375 
L 82.809375 -29.109375 
L 84.359375 -29.109375 
L 85.909375 -29.109375 
L 87.459375 -29.109375 
L 89.009375 -29.109375 
L 90.559375 -29.109375 
L 92.109375 -29.109375 
L 93.659375 -29.109375 
L 95.209375 -29.109375 
L 96.759375 -29.109375 
L 98.309375 -29.109375 
L 99.859375 -29.109375 
L 101.409375 -29.109375 
L 102.959375 -29.109375 
L 104.509375 -29.109375 
L 106.059375 -29.109375 
L 107.609375 -29.109375 
L 109.159375 -29.109375 
L 110.709375 -29.109375 
L 112.259375 -29.109375 
L 113.809375 -29.109375 
L 115.359375 -29.109375 
L 116.909375 -29.109375 
L 118.459375 -29.109375 
L 120.009375 -29.109375 
L 121.559375 -29.109375 
L 123.109375 -29.109375 
L 124.659375 -29.109375 
L 126.209375 -29.109375 
L 127.759375 -29.109375 
L 129.309375 -29.109375 
L 130.859375 -29.109375 
L 132.409375 -29.109375 
L 133.959375 -29.109375 
L 135.509375 -29.109375 
L 137.059375 -29.109375 
L 138.609375 -29.109375 
L 140.159375 -29.109375 
L 141.709375 -29.109375 
L 143.259375 -29.109375 
L 144.809375 -29.109375 
L 146.359375 -29.109375 
L 147.909375 -29.109375 
L 149.459375 -29.109375 
L 151.009375 -29.109375 
L 152.559375 -29.109375 
L 154.109375 -29.109375 
L 155.659375 -29.109375 
L 157.209375 -29.109375 
L 158.759375 -29.109375 
L 160.309375 -29.109375 
L 161.859375 -29.109375 
L 163.409375 -29.109375 
L 164.959375 -29.109375 
L 166.509375 -29.109375 
L 168.059375 -29.109375 
L 169.609375 -29.109375 
L 171.159375 -29.109375 
L 172.709375 -29.109375 
L 174.259375 -29.109375 
L 175.809375 -29.109375 
L 177.359375 -29.109375 
L 178.909375 -29.109375 
L 180.459375 -29.109375 
L 182.009375 -29.109375 
L 183.559375 -29.109375 
L 185.109375 -29.109375 
L 186.659375 -29.109375 
L 188.209375 -29.109375 
L 189.759375 -29.109375 
L 191.309375 -29.109375 
L 192.859375 -29.109375 
L 194.409375 -29.109375 
L 195.959375 -29.109375 
L 197.509375 -29.109375 
L 199.059375 -29.109375 
L 200.609375 -29.109375 
L 202.159375 -29.109375 
L 203.709375 -29.109375 
L 205.259375 -29.109375 
L 206.809375 -29.109375 
L 208.359375 -29.109375 
L 209.909375 -29.109375 
L 211.459375 -29.109375 
L 213.009375 -29.109375 
L 214.559375 -29.109375 
L 216.109375 -29.109375 
L 217.659375 -29.109375 
L 219.209375 -29.109375 
L 220.759375 -29.109375 
L 222.309375 -29.109375 
L 223.859375 -29.109375 
L 225.409375 -29.109375 
L 226.959375 -29.109375 
L 228.509375 -29.109375 
L 230.059375 -29.109375 
L 231.609375 -29.109375 
L 233.159375 -29.109375 
L 234.709375 -29.109375 
L 236.259375 -29.109375 
L 237.809375 -29.109375 
L 239.359375 -29.109375 
L 240.909375 -29.109375 
L 242.459375 -29.109375 
L 244.009375 -29.109375 
L 245.559375 -29.109375 
L 247.109375 -29.109375 
L 248.659375 -29.109375 
L 250.209375 -29.109375 
L 251.759375 -29.109375 
L 253.309375 -29.109375 
L 254.859375 -29.109375 
L 256.409375 -29.109375 
L 257.959375 -29.109375 
L 259.509375 -29.109375 
L 261.059375 -29.109375 
L 262.609375 -29.109375 
L 264.159375 -29.109375 
L 265.709375 -29.109375 
L 267.259375 -29.109375 
L 268.809375 -29.109375 
L 270.359375 -29.109375 
L 271.909375 -29.109375 
L 273.459375 -29.109375 
L 275.009375 -29.109375 
L 276.559375 -29.109375 
L 278.109375 -29.109375 
L 279.659375 -29.109375 
L 281.209375 -29.109375 
L 282.759375 -29.109375 
L 284.309375 -29.109375 
L 285.859375 -29.109375 
L 287.409375 -29.109375 
L 288.959375 -29.109375 
L 290.509375 -29.109375 
L 292.059375 -29.109375 
L 293.609375 -29.109375 
L 295.159375 -29.109375 
L 296.709375 -29.109375 
L 298.259375 -29.109375 
L 299.809375 -29.109375 
L 301.359375 -29.109375 
L 302.909375 -29.109375 
L 304.459375 -29.109375 
L 306.009375 -29.109375 
L 307.559375 -29.109375 
L 309.109375 -29.109375 
L 310.659375 -29.109375 
L 312.209375 -29.109375 
L 313.759375 -29.109375 
L 315.309375 -29.109375 
L 316.859375 -29.109375 
L 318.409375 -29.109375 
L 319.959375 -29.109375 
L 321.509375 -29.109375 
L 323.059375 -29.109375 
L 324.609375 -29.109375 
L 326.159375 -29.109375 
L 327.709375 -29.109375 
L 329.259375 -29.109375 
L 330.809375 -29.109375 
L 332.359375 -29.109375 
L 333.909375 -29.109375 
L 335.459375 -29.109375 
L 337.009375 -29.109375 
L 338.559375 -29.109375 
L 340.109375 -29.109375 
L 341.659375 -29.109375 
L 343.209375 -29.109375 
L 344.759375 -29.109375 
L 346.309375 -29.109375 
L 347.859375 -29.109375 
L 349.409375 -29.109375 
L 350.959375 -29.109375 
L 352.509375 -29.109375 
L 354.059375 -29.109375 
L 355.609375 -29.109375 
L 357.159375 -29.109375 
L 358.709375 -29.109375 
L 360.259375 -29.109375 
L 361.809375 -29.109375 
L 363.359375 -29.109375 
L 364.909375 -29.109375 
L 366.459375 -29.109375 
L 368.009375 -29.109375 
L 369.559375 -29.109375 
L 371.109375 -29.109375 
L 372.659375 -29.109375 
L 374.209375 -29.109375 
L 375.759375 -29.109375 
L 377.309375 -29.109375 
L 378.859375 -29.109375 
L 380.409375 -29.109375 
L 381.959375 -29.109375 
L 383.509375 -29.109375 
L 385.059375 -29.109375 
L 386.609375 -29.109375 
L 388.159375 -29.109375 
L 389.709375 -29.109375 
L 391.259375 -29.109375 
L 392.809375 -29.109375 
L 394.359375 -29.109375 
L 395.909375 -29.109375 
L 397.459375 -29.109375 
L 399.009375 -29.109375 
L 400.559375 -29.109375 
L 402.109375 -29.109375 
L 403.659375 -29.109375 
L 405.209375 -29.109375 
L 406.759375 -29.109375 
L 408.309375 -29.109375 
L 409.859375 -29.109375 
L 411.409375 -29.109375 
L 412.959375 -29.109375 
L 414.509375 -29.109375 
L 416.059375 -29.109375 
L 417.609375 -29.109375 
L 419.159375 -29.109375 
L 420.709375 -29.109375 
L 422.259375 -29.109375 
L 423.809375 -29.109375 
L 425.359375 -29.109375 
L 426.909375 -29.109375 
L 428.459375 -29.109375 
L 430.009375 -29.109375 
L 431.559375 -29.109375 
L 433.109375 -29.109375 
L 434.659375 -29.109375 
L 436.209375 -29.109375 
L 437.759375 -29.109375 
L 439.309375 -29.109375 
L 440.859375 -29.109375 
L 442.409375 -29.109375 
L 443.959375 -29.109375 
L 445.509375 -29.109375 
L 447.059375 -29.109375 
L 448.609375 -29.109375 
L 450.159375 -29.109375 
L 451.709375 -29.109375 
L 453.259375 -29.109375 
L 454.809375 -29.109375 
L 456.359375 -29.109375 
L 457.909375 -29.109375 
L 459.459375 -29.109375 
L 461.009375 -29.109375 
L 462.559375 -29.109375 
L 464.109375 -29.109375 
L 465.659375 -29.109375 
L 467.209375 -29.109375 
L 468.759375 -29.109375 
L 470.309375 -29.109375 
L 471.859375 -29.109375 
L 473.409375 -29.109375 
L 474.959375 -29.109375 
L 476.509375 -29.109375 
L 478.059375 -29.109375 
L 479.609375 -29.109375 
L 481.159375 -29.109375 
L 482.709375 -29.109375 
L 484.259375 -29.109375 
L 485.809375 -29.109375 
L 487.359375 -29.109375 
L 488.909375 -29.109375 
L 490.459375 -29.109375 
L 492.009375 -29.109375 
L 493.559375 -29.109375 
L 495.109375 -29.109375 
L 496.659375 -29.109375 
L 498.209375 -29.109375 
L 499.759375 -29.109375 
L 501.309375 -29.109375 
L 502.859375 -29.109375 
L 504.409375 -29.109375 
L 505.959375 -29.109375 
L 507.509375 -29.109375 
L 509.059375 -29.109375 
L 510.609375 -29.109375 
L 512.159375 -29.109375 
L 513.709375 -29.109375 
L 515.259375 -29.109375 
L 516.809375 -29.109375 
L 518.359375 -29.109375 
L 519.909375 -29.109375 
L 521.459375 -29.109375 
L 523.009375 -29.109375 
L 524.559375 -29.109375 
L 526.109375 -29.109375 
L 527.659375 -29.109375 
L 529.209375 -29.109375 
L 530.759375 -29.109375 
L 532.309375 -29.109375 
L 533.859375 -29.109375 
L 535.409375 -29.109375 
L 536.959375 -29.109375 
L 538.509375 -29.109375 
L 540.059375 -29.109375 
L 541.609375 -29.109375 
L 543.159375 -29.109375 
L 544.709375 -29.109375 
L 546.259375 -29.109375 
L 547.809375 -29.109375 
L 549.359375 -29.109375 
L 550.909375 -29.109375 
L 552.459375 -29.109375 
L 554.009375 -29.109375 
L 555.559375 -29.109375 
L 557.109375 -29.109375 
L 558.659375 -29.109375 
L 560.209375 -29.109375 
L 561.759375 -29.109375 
L 563.309375 -29.109375 
L 564.859375 -29.109375 
L 566.409375 -29.109375 
L 567.959375 -29.109375 
L 569.509375 -29.109375 
L 571.059375 -29.109375 
L 572.609375 -29.109375 
L 574.159375 -29.109375 
L 575.709375 -29.109375 
L 577.259375 -29.109375 
L 578.809375 -29.109375 
L 580.359375 -29.109375 
L 581.909375 -29.109375 
L 583.459375 -29.109375 
L 585.009375 -29.109375 
L 586.559375 -29.109375 
L 588.109375 -29.109375 
L 588.109375 -84.549375 
L 588.109375 -84.549375 
L 586.559375 -82.292321 
L 585.009375 -80.03949 
L 583.459375 -77.795094 
L 581.909375 -75.563329 
L 580.359375 -73.348362 
L 578.809375 -71.154325 
L 577.259375 -68.985302 
L 575.709375 -66.845325 
L 574.159375 -64.738362 
L 572.609375 -62.668311 
L 571.059375 -60.638986 
L 569.509375 -58.654117 
L 567.959375 -56.717337 
L 566.409375 -54.832172 
L 564.859375 -53.002042 
L 563.309375 -51.230243 
L 561.759375 -49.519948 
L 560.209375 -47.874198 
L 558.659375 -46.295895 
L 557.109375 -44.787795 
L 555.559375 -43.352507 
L 554.009375 -41.992482 
L 552.459375 -40.71001 
L 550.909375 -39.507218 
L 549.359375 -38.386063 
L 547.809375 -37.34833 
L 546.259375 -36.395626 
L 544.709375 -35.529382 
L 543.159375 -34.750844 
L 541.609375 -34.061076 
L 540.059375 -33.460958 
L 538.509375 -32.951182 
L 536.959375 -32.532254 
L 535.409375 -32.204492 
L 533.859375 -31.968026 
L 532.309375 -31.822802 
L 530.759375 -31.768576 
L 529.209375 -31.804925 
L 527.659375 -31.931239 
L 526.109375 -32.146731 
L 524.559375 -32.450435 
L 523.009375 -32.841212 
L 521.459375 -33.31775 
L 519.909375 -33.878574 
L 518.359375 -34.522042 
L 516.809375 -35.246356 
L 515.259375 -36.049567 
L 513.709375 -36.929574 
L 512.159375 -37.884138 
L 510.609375 -38.91088 
L 509.059375 -40.007295 
L 507.509375 -41.170752 
L 505.959375 -42.398503 
L 504.409375 -43.687692 
L 502.859375 -45.03536 
L 501.309375 -46.438452 
L 499.759375 -47.893826 
L 498.209375 -49.398261 
L 496.659375 -50.948463 
L 495.109375 -52.541076 
L 493.559375 -54.172686 
L 492.009375 -55.839832 
L 490.459375 -57.539016 
L 488.909375 -59.266706 
L 487.359375 -61.019348 
L 485.809375 -62.793376 
L 484.259375 -64.585216 
L 482.709375 -66.391295 
L 481.159375 -68.208052 
L 479.609375 -70.031945 
L 478.059375 -71.859456 
L 476.509375 -73.687104 
L 474.959375 -75.511446 
L 473.409375 -77.329093 
L 471.859375 -79.136708 
L 470.309375 -80.931022 
L 468.759375 -82.708835 
L 467.209375 -84.467023 
L 465.659375 -86.202547 
L 464.109375 -87.91246 
L 462.559375 -89.593907 
L 461.009375 -91.244138 
L 459.459375 -92.860508 
L 457.909375 -94.440483 
L 456.359375 -95.981648 
L 454.809375 -97.481705 
L 453.259375 -98.938484 
L 451.709375 -100.34994 
L 450.159375 -101.714163 
L 448.609375 -103.029375 
L 447.059375 -104.293934 
L 445.509375 -105.506339 
L 443.959375 -106.665228 
L 442.409375 -107.76938 
L 440.859375 -108.817721 
L 439.309375 -109.809316 
L 437.759375 -110.743375 
L 436.209375 -111.619252 
L 434.659375 -112.436444 
L 433.109375 -113.194589 
L 431.559375 -113.893467 
L 430.009375 -114.532995 
L 428.459375 -115.11323 
L 426.909375 -115.63436 
L 425.359375 -116.096708 
L 423.809375 -116.500725 
L 422.259375 -116.846986 
L 420.709375 -117.136189 
L 419.159375 -117.369152 
L 417.609375 -117.546805 
L 416.059375 -117.670187 
L 414.509375 -117.740442 
L 412.959375 -117.758814 
L 411.409375 -117.726642 
L 409.859375 -117.645354 
L 408.309375 -117.51646 
L 406.759375 -117.341552 
L 405.209375 -117.12229 
L 403.659375 -116.860401 
L 402.109375 -116.557674 
L 400.559375 -116.21595 
L 399.009375 -115.837117 
L 397.459375 -115.423106 
L 395.909375 -114.975882 
L 394.359375 -114.497438 
L 392.809375 -113.98979 
L 391.259375 -113.454968 
L 389.709375 -112.895012 
L 388.159375 -112.311966 
L 386.609375 -111.70787 
L 385.059375 -111.084753 
L 383.509375 -110.444633 
L 381.959375 -109.789501 
L 380.409375 -109.121326 
L 378.859375 -108.442042 
L 377.309375 -107.753544 
L 375.759375 -107.057685 
L 374.209375 -106.35627 
L 372.659375 -105.651051 
L 371.109375 -104.94372 
L 369.559375 -104.23591 
L 368.009375 -103.529185 
L 366.459375 -102.825041 
L 364.909375 -102.124899 
L 363.359375 -101.430105 
L 361.809375 -100.741923 
L 360.259375 -100.061535 
L 358.709375 -99.390038 
L 357.159375 -98.728444 
L 355.609375 -98.077674 
L 354.059375 -97.438559 
L 352.509375 -96.811839 
L 350.959375 -96.198163 
L 349.409375 -95.598085 
L 347.859375 -95.012068 
L 346.309375 -94.440483 
L 344.759375 -93.883608 
L 343.209375 -93.341628 
L 341.659375 -92.814642 
L 340.109375 -92.302656 
L 338.559375 -91.805591 
L 337.009375 -91.323284 
L 335.459375 -90.855487 
L 333.909375 -90.401875 
L 332.359375 -89.962042 
L 330.809375 -89.53551 
L 329.259375 -89.121732 
L 327.709375 -88.72009 
L 326.159375 -88.329905 
L 324.609375 -87.950439 
L 323.059375 -87.580899 
L 321.509375 -87.220439 
L 319.959375 -86.868169 
L 318.409375 -86.523157 
L 316.859375 -86.184436 
L 315.309375 -85.851005 
L 313.759375 -85.521838 
L 312.209375 -85.195888 
L 310.659375 -84.872092 
L 309.109375 -84.549375 
L 307.559375 -84.226658 
L 306.009375 -83.902862 
L 304.459375 -83.576912 
L 302.909375 -83.247745 
L 301.359375 -82.914314 
L 299.809375 -82.575593 
L 298.259375 -82.230581 
L 296.709375 -81.878311 
L 295.159375 -81.517851 
L 293.609375 -81.148311 
L 292.059375 -80.768845 
L 290.509375 -80.37866 
L 288.959375 -79.977018 
L 287.409375 -79.56324 
L 285.859375 -79.136708 
L 284.309375 -78.696875 
L 282.759375 -78.243263 
L 281.209375 -77.775466 
L 279.659375 -77.293159 
L 278.109375 -76.796094 
L 276.559375 -76.284108 
L 275.009375 -75.757122 
L 273.459375 -75.215142 
L 271.909375 -74.658267 
L 270.359375 -74.086682 
L 268.809375 -73.500665 
L 267.259375 -72.900587 
L 265.709375 -72.286911 
L 264.159375 -71.660191 
L 262.609375 -71.021076 
L 261.059375 -70.370306 
L 259.509375 -69.708712 
L 257.959375 -69.037215 
L 256.409375 -68.356827 
L 254.859375 -67.668645 
L 253.309375 -66.973851 
L 251.759375 -66.273709 
L 250.209375 -65.569565 
L 248.659375 -64.86284 
L 247.109375 -64.15503 
L 245.559375 -63.447699 
L 244.009375 -62.74248 
L 242.459375 -62.041065 
L 240.909375 -61.345206 
L 239.359375 -60.656708 
L 237.809375 -59.977424 
L 236.259375 -59.309249 
L 234.709375 -58.654117 
L 233.159375 -58.013997 
L 231.609375 -57.39088 
L 230.059375 -56.786784 
L 228.509375 -56.203738 
L 226.959375 -55.643782 
L 225.409375 -55.10896 
L 223.859375 -54.601312 
L 222.309375 -54.122868 
L 220.759375 -53.675644 
L 219.209375 -53.261633 
L 217.659375 -52.8828 
L 216.109375 -52.541076 
L 214.559375 -52.238349 
L 213.009375 -51.97646 
L 211.459375 -51.757198 
L 209.909375 -51.58229 
L 208.359375 -51.453396 
L 206.809375 -51.372108 
L 205.259375 -51.339936 
L 203.709375 -51.358308 
L 202.159375 -51.428563 
L 200.609375 -51.551945 
L 199.059375 -51.729598 
L 197.509375 -51.962561 
L 195.959375 -52.251764 
L 194.409375 -52.598025 
L 192.859375 -53.002042 
L 191.309375 -53.46439 
L 189.759375 -53.98552 
L 188.209375 -54.565755 
L 186.659375 -55.205283 
L 185.109375 -55.904161 
L 183.559375 -56.662306 
L 182.009375 -57.479498 
L 180.459375 -58.355375 
L 178.909375 -59.289434 
L 177.359375 -60.281029 
L 175.809375 -61.32937 
L 174.259375 -62.433522 
L 172.709375 -63.592411 
L 171.159375 -64.804816 
L 169.609375 -66.069375 
L 168.059375 -67.384587 
L 166.509375 -68.74881 
L 164.959375 -70.160266 
L 163.409375 -71.617045 
L 161.859375 -73.117102 
L 160.309375 -74.658267 
L 158.759375 -76.238242 
L 157.209375 -77.854612 
L 155.659375 -79.504843 
L 154.109375 -81.18629 
L 152.559375 -82.896203 
L 151.009375 -84.631727 
L 149.459375 -86.389915 
L 147.909375 -88.167728 
L 146.359375 -89.962042 
L 144.809375 -91.769657 
L 143.259375 -93.587304 
L 141.709375 -95.411646 
L 140.159375 -97.239294 
L 138.609375 -99.066805 
L 137.059375 -100.890698 
L 135.509375 -102.707455 
L 133.959375 -104.513534 
L 132.409375 -106.305374 
L 130.859375 -108.079402 
L 129.309375 -109.832044 
L 127.759375 -111.559734 
L 126.209375 -113.258918 
L 124.659375 -114.926064 
L 123.109375 -116.557674 
L 121.559375 -118.150287 
L 120.009375 -119.700489 
L 118.459375 -121.204924 
L 116.909375 -122.660298 
L 115.359375 -124.06339 
L 113.809375 -125.411058 
L 112.259375 -126.700247 
L 110.709375 -127.927998 
L 109.159375 -129.091455 
L 107.609375 -130.18787 
L 106.059375 -131.214612 
L 104.509375 -132.169176 
L 102.959375 -133.049183 
L 101.409375 -133.852394 
L 99.859375 -134.576708 
L 98.309375 -135.220176 
L 96.759375 -135.781 
L 95.209375 -136.257538 
L 93.659375 -136.648315 
L 92.109375 -136.952019 
L 90.559375 -137.167511 
L 89.009375 -137.293825 
L 87.459375 -137.330174 
L 85.909375 -137.275948 
L 84.359375 -137.130724 
L 82.809375 -136.894258 
L 81.259375 -136.566496 
L 79.709375 -136.147568 
L 78.159375 -135.637792 
L 76.609375 -135.037674 
L 75.059375 -134.347906 
L 73.509375 -133.569368 
L 71.959375 -132.703124 
L 70.409375 -131.75042 
L 68.859375 -130.712687 
L 67.309375 -129.591532 
L 65.759375 -128.38874 
L 64.209375 -127.106268 
L 62.659375 -125.746243 
L 61.109375 -124.310955 
L 59.559375 -122.802855 
L 58.009375 -121.224552 
L 56.459375 -119.578802 
L 54.909375 -117.868507 
L 53.359375 -116.096708 
L 51.809375 -114.266578 
L 50.259375 -112.381413 
L 48.709375 -110.444633 
L 47.159375 -108.459764 
L 45.609375 -106.430439 
L 44.059375 -104.360388 
L 42.509375 -102.253425 
L 40.959375 -100.113448 
L 39.409375 -97.944425 
L 37.859375 -95.750388 
L 36.309375 -93.535421 
L 34.759375 -91.303656 
L 33.209375 -89.05926 
L 31.659375 -86.806429 
L 30.109375 -84.549375 
z
" style="stroke: #808080; stroke-opacity: 0.2"/>
    </defs>
    <g clip-path="url(#p22ff23d8ca)">
     <use xlink:href="#m2fa60acfd4" x="0" y="379.545" style="fill: #808080; fill-opacity: 0.2; stroke: #808080; stroke-opacity: 0.2"/>
    </g>
   </g>
   <g id="matplotlib.axis_1">
    <g id="xtick_1">
     <g id="line2d_1">
      <path d="M 30.109375 350.435625 
L 30.109375 17.795625 
" clip-path="url(#p22ff23d8ca)" style="fill: none; stroke: #ffffff; stroke-width: 0.5; stroke-linecap: square"/>
     </g>
     <g id="line2d_2">
      <defs>
       <path id="mc9b311119c" d="M 0 0 
L 0 -3 
" style="stroke: #ffffff; stroke-width: 0.5"/>
      </defs>
      <g>
       <use xlink:href="#mc9b311119c" x="30.109375" y="350.435625" style="fill: #ffffff; stroke: #ffffff; stroke-width: 0.5"/>
      </g>
     </g>
     <g id="line2d_3">
      <defs>
       <path id="mf1689c2188" d="M 0 0 
L 0 3 
" style="stroke: #ffffff; stroke-width: 0.5"/>
      </defs>
      <g>
       <use xlink:href="#mf1689c2188" x="30.109375" y="17.795625" style="fill: #ffffff; stroke: #ffffff; stroke-width: 0.5"/>
      </g>
     </g>
     <g id="text_1">
      <!-- $\mathdefault{0}$ -->
      <g style="fill: #ffffff" transform="translate(27.609375 360.765313) scale(0.1 -0.1)">
       <defs>
        <path id="STIXGeneral-Regular-30" d="M 3046 2112 
Q 3046 1683 2963 1302 
Q 2880 922 2717 602 
Q 2554 282 2266 96 
Q 1978 -90 1600 -90 
Q 1210 -90 915 108 
Q 621 307 461 640 
Q 301 973 227 1350 
Q 154 1728 154 2150 
Q 154 2746 301 3222 
Q 448 3699 790 4012 
Q 1133 4326 1626 4326 
Q 2253 4326 2649 3712 
Q 3046 3098 3046 2112 
z
M 2432 2080 
Q 2432 3091 2217 3625 
Q 2003 4160 1587 4160 
Q 1190 4160 979 3622 
Q 768 3085 768 2106 
Q 768 1120 979 598 
Q 1190 77 1600 77 
Q 2003 77 2217 598 
Q 2432 1120 2432 2080 
z
" transform="scale(0.015625)"/>
       </defs>
       <use xlink:href="#STIXGeneral-Regular-30" transform="translate(0 0.40625)"/>
      </g>
     </g>
    </g>
    <g id="xtick_2">
     <g id="line2d_4">
      <path d="M 107.609375 350.435625 
L 107.609375 17.795625 
" clip-path="url(#p22ff23d8ca)" style="fill: none; stroke: #ffffff; stroke-width: 0.5; stroke-linecap: square"/>
     </g>
     <g id="line2d_5">
      <g>
       <use xlink:href="#mc9b311119c" x="107.609375" y="350.435625" style="fill: #ffffff; stroke: #ffffff; stroke-width: 0.5"/>
      </g>
     </g>
     <g id="line2d_6">
      <g>
       <use xlink:href="#mf1689c2188" x="107.609375" y="17.795625" style="fill: #ffffff; stroke: #ffffff; stroke-width: 0.5"/>
      </g>
     </g>
     <g id="text_2">
      <!-- $\mathdefault{50}$ -->
      <g style="fill: #ffffff" transform="translate(102.609375 360.765313) scale(0.1 -0.1)">
       <defs>
        <path id="STIXGeneral-Regular-35" d="M 2803 4358 
L 2573 3814 
Q 2534 3731 2400 3731 
L 1158 3731 
L 902 3187 
Q 1606 3053 1920 2896 
Q 2234 2739 2502 2368 
Q 2726 2061 2726 1555 
Q 2726 1094 2576 780 
Q 2426 467 2099 224 
Q 1664 -90 1011 -90 
Q 646 -90 422 19 
Q 198 128 198 307 
Q 198 550 486 550 
Q 717 550 960 352 
Q 1210 147 1414 147 
Q 1747 147 2012 480 
Q 2278 813 2278 1229 
Q 2278 1843 1850 2189 
Q 1293 2637 486 2637 
Q 410 2637 410 2688 
L 416 2720 
L 1114 4237 
L 2438 4237 
Q 2547 4237 2608 4269 
Q 2669 4301 2746 4403 
L 2803 4358 
z
" transform="scale(0.015625)"/>
       </defs>
       <use xlink:href="#STIXGeneral-Regular-35" transform="translate(0 0.203125)"/>
       <use xlink:href="#STIXGeneral-Regular-30" transform="translate(49.999985 0.203125)"/>
      </g>
     </g>
    </g>
    <g id="xtick_3">
     <g id="line2d_7">
      <path d="M 185.109375 350.435625 
L 185.109375 17.795625 
" clip-path="url(#p22ff23d8ca)" style="fill: none; stroke: #ffffff; stroke-width: 0.5; stroke-linecap: square"/>
     </g>
     <g id="line2d_8">
      <g>
       <use xlink:href="#mc9b311119c" x="185.109375" y="350.435625" style="fill: #ffffff; stroke: #ffffff; stroke-width: 0.5"/>
      </g>
     </g>
     <g id="line2d_9">
      <g>
       <use xlink:href="#mf1689c2188" x="185.109375" y="17.795625" style="fill: #ffffff; stroke: #ffffff; stroke-width: 0.5"/>
      </g>
     </g>
     <g id="text_3">
      <!-- $\mathdefault{100}$ -->
      <g style="fill: #ffffff" transform="translate(177.609375 360.765313) scale(0.1 -0.1)">
       <defs>
        <path id="STIXGeneral-Regular-31" d="M 2522 0 
L 755 0 
L 755 96 
Q 1107 115 1235 227 
Q 1363 339 1363 608 
L 1363 3482 
Q 1363 3795 1171 3795 
Q 1082 3795 883 3718 
L 710 3654 
L 710 3744 
L 1856 4326 
L 1914 4307 
L 1914 486 
Q 1914 275 2042 185 
Q 2170 96 2522 96 
L 2522 0 
z
" transform="scale(0.015625)"/>
       </defs>
       <use xlink:href="#STIXGeneral-Regular-31" transform="translate(0 0.40625)"/>
       <use xlink:href="#STIXGeneral-Regular-30" transform="translate(49.999985 0.40625)"/>
       <use xlink:href="#STIXGeneral-Regular-30" transform="translate(99.999969 0.40625)"/>
      </g>
     </g>
    </g>
    <g id="xtick_4">
     <g id="line2d_10">
      <path d="M 262.609375 350.435625 
L 262.609375 17.795625 
" clip-path="url(#p22ff23d8ca)" style="fill: none; stroke: #ffffff; stroke-width: 0.5; stroke-linecap: square"/>
     </g>
     <g id="line2d_11">
      <g>
       <use xlink:href="#mc9b311119c" x="262.609375" y="350.435625" style="fill: #ffffff; stroke: #ffffff; stroke-width: 0.5"/>
      </g>
     </g>
     <g id="line2d_12">
      <g>
       <use xlink:href="#mf1689c2188" x="262.609375" y="17.795625" style="fill: #ffffff; stroke: #ffffff; stroke-width: 0.5"/>
      </g>
     </g>
     <g id="text_4">
      <!-- $\mathdefault{150}$ -->
      <g style="fill: #ffffff" transform="translate(255.109375 360.765313) scale(0.1 -0.1)">
       <use xlink:href="#STIXGeneral-Regular-31" transform="translate(0 0.203125)"/>
       <use xlink:href="#STIXGeneral-Regular-35" transform="translate(49.999985 0.203125)"/>
       <use xlink:href="#STIXGeneral-Regular-30" transform="translate(99.999969 0.203125)"/>
      </g>
     </g>
    </g>
    <g id="xtick_5">
     <g id="line2d_13">
      <path d="M 340.109375 350.435625 
L 340.109375 17.795625 
" clip-path="url(#p22ff23d8ca)" style="fill: none; stroke: #ffffff; stroke-width: 0.5; stroke-linecap: square"/>
     </g>
     <g id="line2d_14">
      <g>
       <use xlink:href="#mc9b311119c" x="340.109375" y="350.435625" style="fill: #ffffff; stroke: #ffffff; stroke-width: 0.5"/>
      </g>
     </g>
     <g id="line2d_15">
      <g>
       <use xlink:href="#mf1689c2188" x="340.109375" y="17.795625" style="fill: #ffffff; stroke: #ffffff; stroke-width: 0.5"/>
      </g>
     </g>
     <g id="text_5">
      <!-- $\mathdefault{200}$ -->
      <g style="fill: #ffffff" transform="translate(332.609375 360.765313) scale(0.1 -0.1)">
       <defs>
        <path id="STIXGeneral-Regular-32" d="M 3034 877 
L 2688 0 
L 186 0 
L 186 77 
L 1325 1286 
Q 1773 1754 1965 2144 
Q 2157 2534 2157 2950 
Q 2157 3379 1920 3616 
Q 1683 3853 1267 3853 
Q 922 3853 720 3673 
Q 518 3494 326 3021 
L 192 3053 
Q 301 3648 630 3987 
Q 960 4326 1523 4326 
Q 2054 4326 2380 4006 
Q 2707 3686 2707 3200 
Q 2707 2477 1888 1613 
L 832 486 
L 2330 486 
Q 2541 486 2665 569 
Q 2790 653 2944 915 
L 3034 877 
z
" transform="scale(0.015625)"/>
       </defs>
       <use xlink:href="#STIXGeneral-Regular-32" transform="translate(0 0.40625)"/>
       <use xlink:href="#STIXGeneral-Regular-30" transform="translate(49.999985 0.40625)"/>
       <use xlink:href="#STIXGeneral-Regular-30" transform="translate(99.999969 0.40625)"/>
      </g>
     </g>
    </g>
    <g id="xtick_6">
     <g id="line2d_16">
      <path d="M 417.609375 350.435625 
L 417.609375 17.795625 
" clip-path="url(#p22ff23d8ca)" style="fill: none; stroke: #ffffff; stroke-width: 0.5; stroke-linecap: square"/>
     </g>
     <g id="line2d_17">
      <g>
       <use xlink:href="#mc9b311119c" x="417.609375" y="350.435625" style="fill: #ffffff; stroke: #ffffff; stroke-width: 0.5"/>
      </g>
     </g>
     <g id="line2d_18">
      <g>
       <use xlink:href="#mf1689c2188" x="417.609375" y="17.795625" style="fill: #ffffff; stroke: #ffffff; stroke-width: 0.5"/>
      </g>
     </g>
     <g id="text_6">
      <!-- $\mathdefault{250}$ -->
      <g style="fill: #ffffff" transform="translate(410.109375 360.765313) scale(0.1 -0.1)">
       <use xlink:href="#STIXGeneral-Regular-32" transform="translate(0 0.203125)"/>
       <use xlink:href="#STIXGeneral-Regular-35" transform="translate(49.999985 0.203125)"/>
       <use xlink:href="#STIXGeneral-Regular-30" transform="translate(99.999969 0.203125)"/>
      </g>
     </g>
    </g>
    <g id="xtick_7">
     <g id="line2d_19">
      <path d="M 495.109375 350.435625 
L 495.109375 17.795625 
" clip-path="url(#p22ff23d8ca)" style="fill: none; stroke: #ffffff; stroke-width: 0.5; stroke-linecap: square"/>
     </g>
     <g id="line2d_20">
      <g>
       <use xlink:href="#mc9b311119c" x="495.109375" y="350.435625" style="fill: #ffffff; stroke: #ffffff; stroke-width: 0.5"/>
      </g>
     </g>
     <g id="line2d_21">
      <g>
       <use xlink:href="#mf1689c2188" x="495.109375" y="17.795625" style="fill: #ffffff; stroke: #ffffff; stroke-width: 0.5"/>
      </g>
     </g>
     <g id="text_7">
      <!-- $\mathdefault{300}$ -->
      <g style="fill: #ffffff" transform="translate(487.609375 360.765313) scale(0.1 -0.1)">
       <defs>
        <path id="STIXGeneral-Regular-33" d="M 390 3264 
L 288 3290 
Q 435 3770 748 4048 
Q 1062 4326 1542 4326 
Q 1990 4326 2265 4083 
Q 2541 3840 2541 3450 
Q 2541 2925 1946 2566 
Q 2298 2413 2477 2227 
Q 2758 1914 2758 1402 
Q 2758 890 2464 506 
Q 2246 211 1840 60 
Q 1434 -90 979 -90 
Q 262 -90 262 275 
Q 262 378 339 442 
Q 416 506 525 506 
Q 685 506 915 339 
Q 1197 141 1466 141 
Q 1818 141 2058 425 
Q 2298 710 2298 1120 
Q 2298 1856 1632 2048 
Q 1434 2112 979 2112 
L 979 2202 
Q 1338 2323 1517 2432 
Q 2035 2726 2035 3290 
Q 2035 3610 1852 3776 
Q 1670 3942 1344 3942 
Q 768 3942 390 3264 
z
" transform="scale(0.015625)"/>
       </defs>
       <use xlink:href="#STIXGeneral-Regular-33" transform="translate(0 0.40625)"/>
       <use xlink:href="#STIXGeneral-Regular-30" transform="translate(49.999985 0.40625)"/>
       <use xlink:href="#STIXGeneral-Regular-30" transform="translate(99.999969 0.40625)"/>
      </g>
     </g>
    </g>
    <g id="xtick_8">
     <g id="line2d_22">
      <path d="M 572.609375 350.435625 
L 572.609375 17.795625 
" clip-path="url(#p22ff23d8ca)" style="fill: none; stroke: #ffffff; stroke-width: 0.5; stroke-linecap: square"/>
     </g>
     <g id="line2d_23">
      <g>
       <use xlink:href="#mc9b311119c" x="572.609375" y="350.435625" style="fill: #ffffff; stroke: #ffffff; stroke-width: 0.5"/>
      </g>
     </g>
     <g id="line2d_24">
      <g>
       <use xlink:href="#mf1689c2188" x="572.609375" y="17.795625" style="fill: #ffffff; stroke: #ffffff; stroke-width: 0.5"/>
      </g>
     </g>
     <g id="text_8">
      <!-- $\mathdefault{350}$ -->
      <g style="fill: #ffffff" transform="translate(565.109375 360.765313) scale(0.1 -0.1)">
       <use xlink:href="#STIXGeneral-Regular-33" transform="translate(0 0.203125)"/>
       <use xlink:href="#STIXGeneral-Regular-35" transform="translate(49.999985 0.203125)"/>
       <use xlink:href="#STIXGeneral-Regular-30" transform="translate(99.999969 0.203125)"/>
      </g>
     </g>
    </g>
    <g id="xtick_9">
     <g id="line2d_25">
      <defs>
       <path id="m51efe51d91" d="M 0 0 
L 0 -1.5 
" style="stroke: #ffffff; stroke-width: 0.5"/>
      </defs>
      <g>
       <use xlink:href="#m51efe51d91" x="45.609375" y="350.435625" style="fill: #ffffff; stroke: #ffffff; stroke-width: 0.5"/>
      </g>
     </g>
     <g id="line2d_26">
      <defs>
       <path id="m91c6d9f0c8" d="M 0 0 
L 0 1.5 
" style="stroke: #ffffff; stroke-width: 0.5"/>
      </defs>
      <g>
       <use xlink:href="#m91c6d9f0c8" x="45.609375" y="17.795625" style="fill: #ffffff; stroke: #ffffff; stroke-width: 0.5"/>
      </g>
     </g>
    </g>
    <g id="xtick_10">
     <g id="line2d_27">
      <g>
       <use xlink:href="#m51efe51d91" x="61.109375" y="350.435625" style="fill: #ffffff; stroke: #ffffff; stroke-width: 0.5"/>
      </g>
     </g>
     <g id="line2d_28">
      <g>
       <use xlink:href="#m91c6d9f0c8" x="61.109375" y="17.795625" style="fill: #ffffff; stroke: #ffffff; stroke-width: 0.5"/>
      </g>
     </g>
    </g>
    <g id="xtick_11">
     <g id="line2d_29">
      <g>
       <use xlink:href="#m51efe51d91" x="76.609375" y="350.435625" style="fill: #ffffff; stroke: #ffffff; stroke-width: 0.5"/>
      </g>
     </g>
     <g id="line2d_30">
      <g>
       <use xlink:href="#m91c6d9f0c8" x="76.609375" y="17.795625" style="fill: #ffffff; stroke: #ffffff; stroke-width: 0.5"/>
      </g>
     </g>
    </g>
    <g id="xtick_12">
     <g id="line2d_31">
      <g>
       <use xlink:href="#m51efe51d91" x="92.109375" y="350.435625" style="fill: #ffffff; stroke: #ffffff; stroke-width: 0.5"/>
      </g>
     </g>
     <g id="line2d_32">
      <g>
       <use xlink:href="#m91c6d9f0c8" x="92.109375" y="17.795625" style="fill: #ffffff; stroke: #ffffff; stroke-width: 0.5"/>
      </g>
     </g>
    </g>
    <g id="xtick_13">
     <g id="line2d_33">
      <g>
       <use xlink:href="#m51efe51d91" x="123.109375" y="350.435625" style="fill: #ffffff; stroke: #ffffff; stroke-width: 0.5"/>
      </g>
     </g>
     <g id="line2d_34">
      <g>
       <use xlink:href="#m91c6d9f0c8" x="123.109375" y="17.795625" style="fill: #ffffff; stroke: #ffffff; stroke-width: 0.5"/>
      </g>
     </g>
    </g>
    <g id="xtick_14">
     <g id="line2d_35">
      <g>
       <use xlink:href="#m51efe51d91" x="138.609375" y="350.435625" style="fill: #ffffff; stroke: #ffffff; stroke-width: 0.5"/>
      </g>
     </g>
     <g id="line2d_36">
      <g>
       <use xlink:href="#m91c6d9f0c8" x="138.609375" y="17.795625" style="fill: #ffffff; stroke: #ffffff; stroke-width: 0.5"/>
      </g>
     </g>
    </g>
    <g id="xtick_15">
     <g id="line2d_37">
      <g>
       <use xlink:href="#m51efe51d91" x="154.109375" y="350.435625" style="fill: #ffffff; stroke: #ffffff; stroke-width: 0.5"/>
      </g>
     </g>
     <g id="line2d_38">
      <g>
       <use xlink:href="#m91c6d9f0c8" x="154.109375" y="17.795625" style="fill: #ffffff; stroke: #ffffff; stroke-width: 0.5"/>
      </g>
     </g>
    </g>
    <g id="xtick_16">
     <g id="line2d_39">
      <g>
       <use xlink:href="#m51efe51d91" x="169.609375" y="350.435625" style="fill: #ffffff; stroke: #ffffff; stroke-width: 0.5"/>
      </g>
     </g>
     <g id="line2d_40">
      <g>
       <use xlink:href="#m91c6d9f0c8" x="169.609375" y="17.795625" style="fill: #ffffff; stroke: #ffffff; stroke-width: 0.5"/>
      </g>
     </g>
    </g>
    <g id="xtick_17">
     <g id="line2d_41">
      <g>
       <use xlink:href="#m51efe51d91" x="200.609375" y="350.435625" style="fill: #ffffff; stroke: #ffffff; stroke-width: 0.5"/>
      </g>
     </g>
     <g id="line2d_42">
      <g>
       <use xlink:href="#m91c6d9f0c8" x="200.609375" y="17.795625" style="fill: #ffffff; stroke: #ffffff; stroke-width: 0.5"/>
      </g>
     </g>
    </g>
    <g id="xtick_18">
     <g id="line2d_43">
      <g>
       <use xlink:href="#m51efe51d91" x="216.109375" y="350.435625" style="fill: #ffffff; stroke: #ffffff; stroke-width: 0.5"/>
      </g>
     </g>
     <g id="line2d_44">
      <g>
       <use xlink:href="#m91c6d9f0c8" x="216.109375" y="17.795625" style="fill: #ffffff; stroke: #ffffff; stroke-width: 0.5"/>
      </g>
     </g>
    </g>
    <g id="xtick_19">
     <g id="line2d_45">
      <g>
       <use xlink:href="#m51efe51d91" x="231.609375" y="350.435625" style="fill: #ffffff; stroke: #ffffff; stroke-width: 0.5"/>
      </g>
     </g>
     <g id="line2d_46">
      <g>
       <use xlink:href="#m91c6d9f0c8" x="231.609375" y="17.795625" style="fill: #ffffff; stroke: #ffffff; stroke-width: 0.5"/>
      </g>
     </g>
    </g>
    <g id="xtick_20">
     <g id="line2d_47">
      <g>
       <use xlink:href="#m51efe51d91" x="247.109375" y="350.435625" style="fill: #ffffff; stroke: #ffffff; stroke-width: 0.5"/>
      </g>
     </g>
     <g id="line2d_48">
      <g>
       <use xlink:href="#m91c6d9f0c8" x="247.109375" y="17.795625" style="fill: #ffffff; stroke: #ffffff; stroke-width: 0.5"/>
      </g>
     </g>
    </g>
    <g id="xtick_21">
     <g id="line2d_49">
      <g>
       <use xlink:href="#m51efe51d91" x="278.109375" y="350.435625" style="fill: #ffffff; stroke: #ffffff; stroke-width: 0.5"/>
      </g>
     </g>
     <g id="line2d_50">
      <g>
       <use xlink:href="#m91c6d9f0c8" x="278.109375" y="17.795625" style="fill: #ffffff; stroke: #ffffff; stroke-width: 0.5"/>
      </g>
     </g>
    </g>
    <g id="xtick_22">
     <g id="line2d_51">
      <g>
       <use xlink:href="#m51efe51d91" x="293.609375" y="350.435625" style="fill: #ffffff; stroke: #ffffff; stroke-width: 0.5"/>
      </g>
     </g>
     <g id="line2d_52">
      <g>
       <use xlink:href="#m91c6d9f0c8" x="293.609375" y="17.795625" style="fill: #ffffff; stroke: #ffffff; stroke-width: 0.5"/>
      </g>
     </g>
    </g>
    <g id="xtick_23">
     <g id="line2d_53">
      <g>
       <use xlink:href="#m51efe51d91" x="309.109375" y="350.435625" style="fill: #ffffff; stroke: #ffffff; stroke-width: 0.5"/>
      </g>
     </g>
     <g id="line2d_54">
      <g>
       <use xlink:href="#m91c6d9f0c8" x="309.109375" y="17.795625" style="fill: #ffffff; stroke: #ffffff; stroke-width: 0.5"/>
      </g>
     </g>
    </g>
    <g id="xtick_24">
     <g id="line2d_55">
      <g>
       <use xlink:href="#m51efe51d91" x="324.609375" y="350.435625" style="fill: #ffffff; stroke: #ffffff; stroke-width: 0.5"/>
      </g>
     </g>
     <g id="line2d_56">
      <g>
       <use xlink:href="#m91c6d9f0c8" x="324.609375" y="17.795625" style="fill: #ffffff; stroke: #ffffff; stroke-width: 0.5"/>
      </g>
     </g>
    </g>
    <g id="xtick_25">
     <g id="line2d_57">
      <g>
       <use xlink:href="#m51efe51d91" x="355.609375" y="350.435625" style="fill: #ffffff; stroke: #ffffff; stroke-width: 0.5"/>
      </g>
     </g>
     <g id="line2d_58">
      <g>
       <use xlink:href="#m91c6d9f0c8" x="355.609375" y="17.795625" style="fill: #ffffff; stroke: #ffffff; stroke-width: 0.5"/>
      </g>
     </g>
    </g>
    <g id="xtick_26">
     <g id="line2d_59">
      <g>
       <use xlink:href="#m51efe51d91" x="371.109375" y="350.435625" style="fill: #ffffff; stroke: #ffffff; stroke-width: 0.5"/>
      </g>
     </g>
     <g id="line2d_60">
      <g>
       <use xlink:href="#m91c6d9f0c8" x="371.109375" y="17.795625" style="fill: #ffffff; stroke: #ffffff; stroke-width: 0.5"/>
      </g>
     </g>
    </g>
    <g id="xtick_27">
     <g id="line2d_61">
      <g>
       <use xlink:href="#m51efe51d91" x="386.609375" y="350.435625" style="fill: #ffffff; stroke: #ffffff; stroke-width: 0.5"/>
      </g>
     </g>
     <g id="line2d_62">
      <g>
       <use xlink:href="#m91c6d9f0c8" x="386.609375" y="17.795625" style="fill: #ffffff; stroke: #ffffff; stroke-width: 0.5"/>
      </g>
     </g>
    </g>
    <g id="xtick_28">
     <g id="line2d_63">
      <g>
       <use xlink:href="#m51efe51d91" x="402.109375" y="350.435625" style="fill: #ffffff; stroke: #ffffff; stroke-width: 0.5"/>
      </g>
     </g>
     <g id="line2d_64">
      <g>
       <use xlink:href="#m91c6d9f0c8" x="402.109375" y="17.795625" style="fill: #ffffff; stroke: #ffffff; stroke-width: 0.5"/>
      </g>
     </g>
    </g>
    <g id="xtick_29">
     <g id="line2d_65">
      <g>
       <use xlink:href="#m51efe51d91" x="433.109375" y="350.435625" style="fill: #ffffff; stroke: #ffffff; stroke-width: 0.5"/>
      </g>
     </g>
     <g id="line2d_66">
      <g>
       <use xlink:href="#m91c6d9f0c8" x="433.109375" y="17.795625" style="fill: #ffffff; stroke: #ffffff; stroke-width: 0.5"/>
      </g>
     </g>
    </g>
    <g id="xtick_30">
     <g id="line2d_67">
      <g>
       <use xlink:href="#m51efe51d91" x="448.609375" y="350.435625" style="fill: #ffffff; stroke: #ffffff; stroke-width: 0.5"/>
      </g>
     </g>
     <g id="line2d_68">
      <g>
       <use xlink:href="#m91c6d9f0c8" x="448.609375" y="17.795625" style="fill: #ffffff; stroke: #ffffff; stroke-width: 0.5"/>
      </g>
     </g>
    </g>
    <g id="xtick_31">
     <g id="line2d_69">
      <g>
       <use xlink:href="#m51efe51d91" x="464.109375" y="350.435625" style="fill: #ffffff; stroke: #ffffff; stroke-width: 0.5"/>
      </g>
     </g>
     <g id="line2d_70">
      <g>
       <use xlink:href="#m91c6d9f0c8" x="464.109375" y="17.795625" style="fill: #ffffff; stroke: #ffffff; stroke-width: 0.5"/>
      </g>
     </g>
    </g>
    <g id="xtick_32">
     <g id="line2d_71">
      <g>
       <use xlink:href="#m51efe51d91" x="479.609375" y="350.435625" style="fill: #ffffff; stroke: #ffffff; stroke-width: 0.5"/>
      </g>
     </g>
     <g id="line2d_72">
      <g>
       <use xlink:href="#m91c6d9f0c8" x="479.609375" y="17.795625" style="fill: #ffffff; stroke: #ffffff; stroke-width: 0.5"/>
      </g>
     </g>
    </g>
    <g id="xtick_33">
     <g id="line2d_73">
      <g>
       <use xlink:href="#m51efe51d91" x="510.609375" y="350.435625" style="fill: #ffffff; stroke: #ffffff; stroke-width: 0.5"/>
      </g>
     </g>
     <g id="line2d_74">
      <g>
       <use xlink:href="#m91c6d9f0c8" x="510.609375" y="17.795625" style="fill: #ffffff; stroke: #ffffff; stroke-width: 0.5"/>
      </g>
     </g>
    </g>
    <g id="xtick_34">
     <g id="line2d_75">
      <g>
       <use xlink:href="#m51efe51d91" x="526.109375" y="350.435625" style="fill: #ffffff; stroke: #ffffff; stroke-width: 0.5"/>
      </g>
     </g>
     <g id="line2d_76">
      <g>
       <use xlink:href="#m91c6d9f0c8" x="526.109375" y="17.795625" style="fill: #ffffff; stroke: #ffffff; stroke-width: 0.5"/>
      </g>
     </g>
    </g>
    <g id="xtick_35">
     <g id="line2d_77">
      <g>
       <use xlink:href="#m51efe51d91" x="541.609375" y="350.435625" style="fill: #ffffff; stroke: #ffffff; stroke-width: 0.5"/>
      </g>
     </g>
     <g id="line2d_78">
      <g>
       <use xlink:href="#m91c6d9f0c8" x="541.609375" y="17.795625" style="fill: #ffffff; stroke: #ffffff; stroke-width: 0.5"/>
      </g>
     </g>
    </g>
    <g id="xtick_36">
     <g id="line2d_79">
      <g>
       <use xlink:href="#m51efe51d91" x="557.109375" y="350.435625" style="fill: #ffffff; stroke: #ffffff; stroke-width: 0.5"/>
      </g>
     </g>
     <g id="line2d_80">
      <g>
       <use xlink:href="#m91c6d9f0c8" x="557.109375" y="17.795625" style="fill: #ffffff; stroke: #ffffff; stroke-width: 0.5"/>
      </g>
     </g>
    </g>
    <g id="xtick_37">
     <g id="line2d_81">
      <g>
       <use xlink:href="#m51efe51d91" x="588.109375" y="350.435625" style="fill: #ffffff; stroke: #ffffff; stroke-width: 0.5"/>
      </g>
     </g>
     <g id="line2d_82">
      <g>
       <use xlink:href="#m91c6d9f0c8" x="588.109375" y="17.795625" style="fill: #ffffff; stroke: #ffffff; stroke-width: 0.5"/>
      </g>
     </g>
    </g>
    <g id="text_9">
     <!-- Azimuth (degrees) -->
     <g style="fill: #ffffff" transform="translate(271.758594 373.765312) scale(0.1 -0.1)">
      <defs>
       <path id="STIXGeneral-Regular-41" d="M 4525 0 
L 2893 0 
L 2893 122 
Q 3149 122 3245 179 
Q 3334 224 3334 333 
Q 3334 499 3213 781 
L 2950 1382 
L 1274 1382 
L 979 653 
Q 922 506 922 384 
Q 922 237 1027 179 
Q 1133 122 1370 122 
L 1370 0 
L 96 0 
L 96 122 
Q 365 147 486 316 
Q 608 486 902 1190 
L 2221 4314 
L 2349 4314 
L 3923 710 
Q 4064 378 4176 262 
Q 4288 147 4525 122 
L 4525 0 
z
M 2861 1645 
L 2118 3405 
L 1382 1645 
L 2861 1645 
z
" transform="scale(0.015625)"/>
       <path id="STIXGeneral-Regular-7a" d="M 2675 870 
L 2579 0 
L 173 0 
L 173 96 
L 1875 2688 
L 1011 2688 
Q 710 2688 604 2582 
Q 499 2477 454 2125 
L 339 2125 
L 365 2880 
L 2579 2880 
L 2579 2784 
L 858 192 
L 1709 192 
Q 2246 192 2387 365 
Q 2477 474 2560 896 
L 2675 870 
z
" transform="scale(0.015625)"/>
       <path id="STIXGeneral-Regular-69" d="M 1152 4045 
Q 1152 3904 1056 3811 
Q 960 3718 819 3718 
Q 685 3718 592 3811 
Q 499 3904 499 4045 
Q 499 4179 595 4275 
Q 691 4371 826 4371 
Q 966 4371 1059 4275 
Q 1152 4179 1152 4045 
z
M 1619 0 
L 102 0 
L 102 96 
Q 435 115 521 211 
Q 608 307 608 666 
L 608 2118 
Q 608 2342 563 2432 
Q 518 2522 397 2522 
Q 243 2522 128 2490 
L 128 2592 
L 1120 2944 
L 1146 2918 
L 1146 672 
Q 1146 314 1226 218 
Q 1306 122 1619 96 
L 1619 0 
z
" transform="scale(0.015625)"/>
       <path id="STIXGeneral-Regular-6d" d="M 4960 0 
L 3565 0 
L 3565 96 
Q 3834 122 3907 208 
Q 3981 294 3981 576 
L 3981 1894 
Q 3981 2278 3869 2444 
Q 3757 2611 3488 2611 
Q 3264 2611 3107 2521 
Q 2950 2432 2803 2221 
L 2803 608 
Q 2803 301 2896 201 
Q 2989 102 3264 96 
L 3264 0 
L 1830 0 
L 1830 96 
Q 2112 115 2189 188 
Q 2266 262 2266 550 
L 2266 1901 
Q 2266 2611 1850 2611 
Q 1670 2611 1468 2531 
Q 1267 2451 1171 2336 
Q 1088 2240 1088 2227 
L 1088 448 
Q 1088 243 1177 176 
Q 1267 109 1523 96 
L 1523 0 
L 102 0 
L 102 96 
Q 371 102 460 195 
Q 550 288 550 563 
L 550 2150 
Q 550 2387 499 2480 
Q 448 2573 326 2573 
Q 230 2573 122 2547 
L 122 2656 
Q 557 2778 1011 2944 
L 1062 2925 
L 1062 2451 
L 1075 2451 
Q 1363 2752 1584 2848 
Q 1805 2944 2054 2944 
Q 2560 2944 2733 2406 
Q 3232 2944 3776 2944 
Q 4518 2944 4518 1792 
L 4518 493 
Q 4518 282 4582 202 
Q 4646 122 4794 109 
L 4960 96 
L 4960 0 
z
" transform="scale(0.015625)"/>
       <path id="STIXGeneral-Regular-75" d="M 3072 320 
L 3072 230 
Q 2573 96 2195 -58 
L 2163 -38 
L 2163 486 
L 2150 486 
Q 1747 -64 1235 -64 
Q 870 -64 662 160 
Q 454 384 454 755 
L 454 2362 
Q 454 2598 371 2688 
Q 288 2778 58 2790 
L 58 2880 
L 992 2880 
L 992 813 
Q 992 595 1123 451 
Q 1254 307 1446 307 
Q 1760 307 1984 506 
Q 2067 582 2099 649 
Q 2131 717 2131 877 
L 2131 2355 
Q 2131 2605 2041 2678 
Q 1952 2752 1658 2771 
L 1658 2880 
L 2669 2880 
L 2669 685 
Q 2669 461 2742 390 
Q 2816 320 3034 320 
L 3072 320 
z
" transform="scale(0.015625)"/>
       <path id="STIXGeneral-Regular-74" d="M 1702 493 
L 1786 422 
Q 1478 -64 1011 -64 
Q 448 -64 448 749 
L 448 2675 
L 109 2675 
Q 83 2694 83 2720 
Q 83 2771 192 2842 
Q 435 2982 813 3526 
Q 826 3546 874 3606 
Q 922 3667 941 3706 
Q 986 3706 986 3622 
L 986 2880 
L 1632 2880 
L 1632 2675 
L 986 2675 
L 986 845 
Q 986 538 1062 403 
Q 1139 269 1318 269 
Q 1510 269 1702 493 
z
" transform="scale(0.015625)"/>
       <path id="STIXGeneral-Regular-68" d="M 3117 0 
L 1760 0 
L 1760 96 
Q 2042 128 2118 224 
Q 2195 320 2195 653 
L 2195 1920 
Q 2195 2598 1722 2598 
Q 1530 2598 1370 2508 
Q 1210 2419 1005 2195 
L 1005 653 
Q 1005 320 1081 224 
Q 1158 128 1440 96 
L 1440 0 
L 58 0 
L 58 96 
Q 333 134 400 224 
Q 467 314 467 653 
L 467 3667 
Q 467 3872 406 3933 
Q 346 3994 141 3994 
Q 83 3994 64 3987 
L 64 4090 
L 237 4141 
Q 730 4288 973 4371 
L 1005 4352 
L 1005 2406 
Q 1229 2694 1446 2819 
Q 1664 2944 1946 2944 
Q 2733 2944 2733 1926 
L 2733 653 
Q 2733 320 2793 233 
Q 2854 147 3117 96 
L 3117 0 
z
" transform="scale(0.015625)"/>
       <path id="STIXGeneral-Regular-20" transform="scale(0.015625)"/>
       <path id="STIXGeneral-Regular-28" d="M 1946 -1030 
L 1869 -1133 
Q 1126 -710 716 32 
Q 307 774 307 1613 
Q 307 3386 1888 4326 
L 1946 4224 
Q 1293 3667 1075 3126 
Q 858 2586 858 1632 
Q 858 685 1082 96 
Q 1306 -493 1946 -1030 
z
" transform="scale(0.015625)"/>
       <path id="STIXGeneral-Regular-64" d="M 3142 269 
L 2202 -64 
L 2176 -45 
L 2176 365 
Q 1869 -64 1357 -64 
Q 826 -64 499 317 
Q 173 698 173 1312 
Q 173 1990 563 2467 
Q 954 2944 1504 2944 
Q 1850 2944 2176 2669 
L 2176 3667 
Q 2176 3866 2118 3930 
Q 2061 3994 1882 3994 
Q 1792 3994 1741 3987 
L 1741 4090 
Q 2323 4243 2682 4371 
L 2714 4358 
L 2714 730 
Q 2714 506 2768 435 
Q 2822 365 2995 365 
Q 3034 365 3142 371 
L 3142 269 
z
M 2176 653 
L 2176 2125 
Q 2176 2381 1981 2573 
Q 1786 2765 1523 2765 
Q 1158 2765 940 2438 
Q 723 2112 723 1568 
Q 723 979 963 624 
Q 1203 269 1606 269 
Q 1907 269 2080 474 
Q 2176 582 2176 653 
z
" transform="scale(0.015625)"/>
       <path id="STIXGeneral-Regular-65" d="M 2611 1050 
L 2714 1005 
Q 2330 -64 1376 -64 
Q 813 -64 486 329 
Q 160 723 160 1389 
Q 160 2074 525 2509 
Q 890 2944 1485 2944 
Q 2061 2944 2374 2502 
Q 2560 2246 2592 1773 
L 621 1773 
Q 646 1370 700 1158 
Q 755 947 915 730 
Q 1184 378 1626 378 
Q 1939 378 2153 531 
Q 2368 685 2611 1050 
z
M 634 1978 
L 1939 1978 
Q 1882 2381 1750 2547 
Q 1619 2714 1312 2714 
Q 1043 2714 864 2525 
Q 685 2336 634 1978 
z
" transform="scale(0.015625)"/>
       <path id="STIXGeneral-Regular-67" d="M 3008 2483 
L 2477 2483 
Q 2598 2208 2598 1946 
Q 2598 1453 2265 1203 
Q 1933 954 1600 954 
Q 1530 954 1357 973 
L 1235 986 
Q 1107 947 979 812 
Q 851 678 851 582 
Q 851 435 1350 410 
L 2176 371 
Q 2528 358 2739 172 
Q 2950 -13 2950 -314 
Q 2950 -685 2566 -986 
Q 2035 -1395 1286 -1395 
Q 826 -1395 502 -1212 
Q 179 -1030 179 -774 
Q 179 -595 320 -419 
Q 461 -243 806 6 
Q 602 102 534 172 
Q 467 243 467 346 
Q 467 531 762 787 
Q 909 915 1037 1043 
Q 717 1203 579 1401 
Q 442 1600 442 1901 
Q 442 2336 752 2640 
Q 1062 2944 1510 2944 
Q 1766 2944 2022 2848 
L 2163 2797 
Q 2349 2733 2515 2733 
L 3008 2733 
L 3008 2483 
z
M 973 2163 
L 973 2144 
Q 973 1683 1155 1398 
Q 1338 1114 1632 1114 
Q 1850 1114 1978 1270 
Q 2106 1427 2106 1690 
Q 2106 2112 1914 2464 
Q 1754 2765 1446 2765 
Q 1222 2765 1097 2605 
Q 973 2445 973 2163 
z
M 2771 -410 
Q 2771 -230 2595 -163 
Q 2419 -96 1978 -96 
Q 1344 -96 941 -13 
Q 749 -243 688 -348 
Q 627 -454 627 -563 
Q 627 -774 880 -902 
Q 1133 -1030 1555 -1030 
Q 2099 -1030 2435 -860 
Q 2771 -691 2771 -410 
z
" transform="scale(0.015625)"/>
       <path id="STIXGeneral-Regular-72" d="M 1024 2931 
L 1024 2342 
Q 1267 2688 1430 2816 
Q 1594 2944 1792 2944 
Q 1958 2944 2051 2854 
Q 2144 2765 2144 2605 
Q 2144 2470 2077 2393 
Q 2010 2317 1894 2317 
Q 1773 2317 1638 2445 
Q 1536 2541 1472 2541 
Q 1338 2541 1181 2355 
Q 1024 2170 1024 2016 
L 1024 576 
Q 1024 301 1133 205 
Q 1242 109 1568 96 
L 1568 0 
L 32 0 
L 32 96 
Q 339 154 412 224 
Q 486 294 486 538 
L 486 2138 
Q 486 2349 438 2435 
Q 390 2522 269 2522 
Q 166 2522 45 2496 
L 45 2598 
Q 448 2726 992 2944 
L 1024 2931 
z
" transform="scale(0.015625)"/>
       <path id="STIXGeneral-Regular-73" d="M 998 1926 
L 1664 1523 
Q 1984 1331 2105 1164 
Q 2227 998 2227 736 
Q 2227 416 1961 176 
Q 1696 -64 1331 -64 
Q 1030 -64 864 -6 
Q 691 51 570 51 
Q 461 51 416 -26 
L 333 -26 
L 333 979 
L 435 979 
Q 538 512 730 294 
Q 922 77 1248 77 
Q 1485 77 1632 211 
Q 1779 346 1779 550 
Q 1779 845 1440 1030 
L 1094 1222 
Q 326 1651 326 2150 
Q 326 2522 566 2730 
Q 806 2938 1210 2938 
Q 1491 2938 1638 2867 
Q 1754 2816 1818 2816 
Q 1862 2816 1920 2880 
L 1990 2880 
L 2022 2010 
L 1926 2010 
Q 1818 2445 1654 2621 
Q 1491 2797 1203 2797 
Q 986 2797 854 2688 
Q 723 2579 723 2362 
Q 723 2253 796 2128 
Q 870 2003 998 1926 
z
" transform="scale(0.015625)"/>
       <path id="STIXGeneral-Regular-29" d="M 186 4224 
L 262 4326 
Q 992 3891 1408 3148 
Q 1824 2406 1824 1581 
Q 1824 -166 243 -1133 
L 186 -1030 
Q 845 -486 1059 54 
Q 1274 595 1274 1562 
Q 1274 2534 1059 3120 
Q 845 3706 186 4224 
z
" transform="scale(0.015625)"/>
      </defs>
      <use xlink:href="#STIXGeneral-Regular-41"/>
      <use xlink:href="#STIXGeneral-Regular-7a" transform="translate(72.199982 0)"/>
      <use xlink:href="#STIXGeneral-Regular-69" transform="translate(116.599976 0)"/>
      <use xlink:href="#STIXGeneral-Regular-6d" transform="translate(144.399963 0)"/>
      <use xlink:href="#STIXGeneral-Regular-75" transform="translate(222.199951 0)"/>
      <use xlink:href="#STIXGeneral-Regular-74" transform="translate(272.199936 0)"/>
      <use xlink:href="#STIXGeneral-Regular-68" transform="translate(299.999924 0)"/>
      <use xlink:href="#STIXGeneral-Regular-20" transform="translate(349.999908 0)"/>
      <use xlink:href="#STIXGeneral-Regular-28" transform="translate(374.999893 0)"/>
      <use xlink:href="#STIXGeneral-Regular-64" transform="translate(408.299881 0)"/>
      <use xlink:href="#STIXGeneral-Regular-65" transform="translate(458.299866 0)"/>
      <use xlink:href="#STIXGeneral-Regular-67" transform="translate(502.69986 0)"/>
      <use xlink:href="#STIXGeneral-Regular-72" transform="translate(552.699844 0)"/>
      <use xlink:href="#STIXGeneral-Regular-65" transform="translate(585.999832 0)"/>
      <use xlink:href="#STIXGeneral-Regular-65" transform="translate(630.399826 0)"/>
      <use xlink:href="#STIXGeneral-Regular-73" transform="translate(674.79982 0)"/>
      <use xlink:href="#STIXGeneral-Regular-29" transform="translate(713.699814 0)"/>
     </g>
    </g>
   </g>
   <g id="matplotlib.axis_2">
    <g id="ytick_1">
     <g id="line2d_83">
      <path d="M 30.109375 350.435625 
L 588.109375 350.435625 
" clip-path="url(#p22ff23d8ca)" style="fill: none; stroke: #ffffff; stroke-width: 0.5; stroke-linecap: square"/>
     </g>
     <g id="line2d_84">
      <defs>
       <path id="m0583a86aaa" d="M 0 0 
L 3 0 
" style="stroke: #ffffff; stroke-width: 0.5"/>
      </defs>
      <g>
       <use xlink:href="#m0583a86aaa" x="30.109375" y="350.435625" style="fill: #ffffff; stroke: #ffffff; stroke-width: 0.5"/>
      </g>
     </g>
     <g id="line2d_85">
      <defs>
       <path id="mdc22cbfa1a" d="M 0 0 
L -3 0 
" style="stroke: #ffffff; stroke-width: 0.5"/>
      </defs>
      <g>
       <use xlink:href="#mdc22cbfa1a" x="588.109375" y="350.435625" style="fill: #ffffff; stroke: #ffffff; stroke-width: 0.5"/>
      </g>
     </g>
     <g id="text_10">
      <!-- $\mathdefault{0}$ -->
      <g style="fill: #ffffff" transform="translate(21.609375 353.850469) scale(0.1 -0.1)">
       <use xlink:href="#STIXGeneral-Regular-30" transform="translate(0 0.40625)"/>
      </g>
     </g>
    </g>
    <g id="ytick_2">
     <g id="line2d_86">
      <path d="M 30.109375 294.995625 
L 588.109375 294.995625 
" clip-path="url(#p22ff23d8ca)" style="fill: none; stroke: #ffffff; stroke-width: 0.5; stroke-linecap: square"/>
     </g>
     <g id="line2d_87">
      <g>
       <use xlink:href="#m0583a86aaa" x="30.109375" y="294.995625" style="fill: #ffffff; stroke: #ffffff; stroke-width: 0.5"/>
      </g>
     </g>
     <g id="line2d_88">
      <g>
       <use xlink:href="#mdc22cbfa1a" x="588.109375" y="294.995625" style="fill: #ffffff; stroke: #ffffff; stroke-width: 0.5"/>
      </g>
     </g>
     <g id="text_11">
      <!-- $\mathdefault{15}$ -->
      <g style="fill: #ffffff" transform="translate(16.609375 298.410469) scale(0.1 -0.1)">
       <use xlink:href="#STIXGeneral-Regular-31" transform="translate(0 0.203125)"/>
       <use xlink:href="#STIXGeneral-Regular-35" transform="translate(49.999985 0.203125)"/>
      </g>
     </g>
    </g>
    <g id="ytick_3">
     <g id="line2d_89">
      <path d="M 30.109375 239.555625 
L 588.109375 239.555625 
" clip-path="url(#p22ff23d8ca)" style="fill: none; stroke: #ffffff; stroke-width: 0.5; stroke-linecap: square"/>
     </g>
     <g id="line2d_90">
      <g>
       <use xlink:href="#m0583a86aaa" x="30.109375" y="239.555625" style="fill: #ffffff; stroke: #ffffff; stroke-width: 0.5"/>
      </g>
     </g>
     <g id="line2d_91">
      <g>
       <use xlink:href="#mdc22cbfa1a" x="588.109375" y="239.555625" style="fill: #ffffff; stroke: #ffffff; stroke-width: 0.5"/>
      </g>
     </g>
     <g id="text_12">
      <!-- $\mathdefault{30}$ -->
      <g style="fill: #ffffff" transform="translate(16.609375 242.970469) scale(0.1 -0.1)">
       <use xlink:href="#STIXGeneral-Regular-33" transform="translate(0 0.40625)"/>
       <use xlink:href="#STIXGeneral-Regular-30" transform="translate(49.999985 0.40625)"/>
      </g>
     </g>
    </g>
    <g id="ytick_4">
     <g id="line2d_92">
      <path d="M 30.109375 184.115625 
L 588.109375 184.115625 
" clip-path="url(#p22ff23d8ca)" style="fill: none; stroke: #ffffff; stroke-width: 0.5; stroke-linecap: square"/>
     </g>
     <g id="line2d_93">
      <g>
       <use xlink:href="#m0583a86aaa" x="30.109375" y="184.115625" style="fill: #ffffff; stroke: #ffffff; stroke-width: 0.5"/>
      </g>
     </g>
     <g id="line2d_94">
      <g>
       <use xlink:href="#mdc22cbfa1a" x="588.109375" y="184.115625" style="fill: #ffffff; stroke: #ffffff; stroke-width: 0.5"/>
      </g>
     </g>
     <g id="text_13">
      <!-- $\mathdefault{45}$ -->
      <g style="fill: #ffffff" transform="translate(16.609375 187.530469) scale(0.1 -0.1)">
       <defs>
        <path id="STIXGeneral-Regular-34" d="M 3027 1069 
L 2368 1069 
L 2368 0 
L 1869 0 
L 1869 1069 
L 77 1069 
L 77 1478 
L 2086 4326 
L 2368 4326 
L 2368 1478 
L 3027 1478 
L 3027 1069 
z
M 1869 1478 
L 1869 3674 
L 333 1478 
L 1869 1478 
z
" transform="scale(0.015625)"/>
       </defs>
       <use xlink:href="#STIXGeneral-Regular-34" transform="translate(0 0.203125)"/>
       <use xlink:href="#STIXGeneral-Regular-35" transform="translate(49.999985 0.203125)"/>
      </g>
     </g>
    </g>
    <g id="ytick_5">
     <g id="line2d_95">
      <path d="M 30.109375 128.675625 
L 588.109375 128.675625 
" clip-path="url(#p22ff23d8ca)" style="fill: none; stroke: #ffffff; stroke-width: 0.5; stroke-linecap: square"/>
     </g>
     <g id="line2d_96">
      <g>
       <use xlink:href="#m0583a86aaa" x="30.109375" y="128.675625" style="fill: #ffffff; stroke: #ffffff; stroke-width: 0.5"/>
      </g>
     </g>
     <g id="line2d_97">
      <g>
       <use xlink:href="#mdc22cbfa1a" x="588.109375" y="128.675625" style="fill: #ffffff; stroke: #ffffff; stroke-width: 0.5"/>
      </g>
     </g>
     <g id="text_14">
      <!-- $\mathdefault{60}$ -->
      <g style="fill: #ffffff" transform="translate(16.609375 132.090469) scale(0.1 -0.1)">
       <defs>
        <path id="STIXGeneral-Regular-36" d="M 2854 4378 
L 2867 4275 
Q 2112 4154 1606 3664 
Q 1101 3174 973 2451 
Q 1344 2739 1786 2739 
Q 2349 2739 2672 2380 
Q 2995 2022 2995 1402 
Q 2995 774 2669 378 
Q 2291 -90 1651 -90 
Q 870 -90 518 557 
Q 218 1107 218 1786 
Q 218 2835 915 3552 
Q 1312 3962 1731 4131 
Q 2150 4301 2854 4378 
z
M 2419 1203 
Q 2419 2445 1555 2445 
Q 1235 2445 1024 2275 
Q 813 2106 813 1702 
Q 813 954 1046 522 
Q 1280 90 1722 90 
Q 2061 90 2240 394 
Q 2419 698 2419 1203 
z
" transform="scale(0.015625)"/>
       </defs>
       <use xlink:href="#STIXGeneral-Regular-36" transform="translate(0 0.59375)"/>
       <use xlink:href="#STIXGeneral-Regular-30" transform="translate(49.999985 0.59375)"/>
      </g>
     </g>
    </g>
    <g id="ytick_6">
     <g id="line2d_98">
      <path d="M 30.109375 73.235625 
L 588.109375 73.235625 
" clip-path="url(#p22ff23d8ca)" style="fill: none; stroke: #ffffff; stroke-width: 0.5; stroke-linecap: square"/>
     </g>
     <g id="line2d_99">
      <g>
       <use xlink:href="#m0583a86aaa" x="30.109375" y="73.235625" style="fill: #ffffff; stroke: #ffffff; stroke-width: 0.5"/>
      </g>
     </g>
     <g id="line2d_100">
      <g>
       <use xlink:href="#mdc22cbfa1a" x="588.109375" y="73.235625" style="fill: #ffffff; stroke: #ffffff; stroke-width: 0.5"/>
      </g>
     </g>
     <g id="text_15">
      <!-- $\mathdefault{75}$ -->
      <g style="fill: #ffffff" transform="translate(16.609375 76.650469) scale(0.1 -0.1)">
       <defs>
        <path id="STIXGeneral-Regular-37" d="M 2874 4134 
L 1517 -51 
L 1101 -51 
L 2368 3763 
L 992 3763 
Q 717 3763 582 3667 
Q 448 3571 243 3238 
L 128 3296 
L 512 4237 
L 2874 4237 
L 2874 4134 
z
" transform="scale(0.015625)"/>
       </defs>
       <use xlink:href="#STIXGeneral-Regular-37" transform="translate(0 0.203125)"/>
       <use xlink:href="#STIXGeneral-Regular-35" transform="translate(49.999985 0.203125)"/>
      </g>
     </g>
    </g>
    <g id="ytick_7">
     <g id="line2d_101">
      <path d="M 30.109375 17.795625 
L 588.109375 17.795625 
" clip-path="url(#p22ff23d8ca)" style="fill: none; stroke: #ffffff; stroke-width: 0.5; stroke-linecap: square"/>
     </g>
     <g id="line2d_102">
      <g>
       <use xlink:href="#m0583a86aaa" x="30.109375" y="17.795625" style="fill: #ffffff; stroke: #ffffff; stroke-width: 0.5"/>
      </g>
     </g>
     <g id="line2d_103">
      <g>
       <use xlink:href="#mdc22cbfa1a" x="588.109375" y="17.795625" style="fill: #ffffff; stroke: #ffffff; stroke-width: 0.5"/>
      </g>
     </g>
     <g id="text_16">
      <!-- $\mathdefault{90}$ -->
      <g style="fill: #ffffff" transform="translate(16.609375 21.210469) scale(0.1 -0.1)">
       <defs>
        <path id="STIXGeneral-Regular-39" d="M 378 -141 
L 358 -13 
Q 1094 115 1603 608 
Q 2112 1101 2304 1882 
Q 1933 1517 1344 1517 
Q 826 1517 509 1875 
Q 192 2234 192 2816 
Q 192 3462 573 3894 
Q 954 4326 1523 4326 
Q 2131 4326 2528 3840 
Q 2938 3328 2938 2522 
Q 2938 1958 2742 1462 
Q 2547 966 2170 621 
Q 1773 262 1395 105 
Q 1018 -51 378 -141 
z
M 2317 2272 
L 2317 2522 
Q 2317 4147 1472 4147 
Q 1171 4147 1005 3930 
Q 909 3802 845 3546 
Q 781 3290 781 3034 
Q 781 2464 995 2128 
Q 1210 1792 1568 1792 
Q 1824 1792 2070 1917 
Q 2317 2042 2317 2272 
z
" transform="scale(0.015625)"/>
       </defs>
       <use xlink:href="#STIXGeneral-Regular-39" transform="translate(0 0.40625)"/>
       <use xlink:href="#STIXGeneral-Regular-30" transform="translate(49.999985 0.40625)"/>
      </g>
     </g>
    </g>
    <g id="ytick_8">
     <g id="line2d_104">
      <defs>
       <path id="m21f6a47899" d="M 0 0 
L 1.5 0 
" style="stroke: #ffffff; stroke-width: 0.5"/>
      </defs>
      <g>
       <use xlink:href="#m21f6a47899" x="30.109375" y="336.575625" style="fill: #ffffff; stroke: #ffffff; stroke-width: 0.5"/>
      </g>
     </g>
     <g id="line2d_105">
      <defs>
       <path id="m8cc7cc600e" d="M 0 0 
L -1.5 0 
" style="stroke: #ffffff; stroke-width: 0.5"/>
      </defs>
      <g>
       <use xlink:href="#m8cc7cc600e" x="588.109375" y="336.575625" style="fill: #ffffff; stroke: #ffffff; stroke-width: 0.5"/>
      </g>
     </g>
    </g>
    <g id="ytick_9">
     <g id="line2d_106">
      <g>
       <use xlink:href="#m21f6a47899" x="30.109375" y="322.715625" style="fill: #ffffff; stroke: #ffffff; stroke-width: 0.5"/>
      </g>
     </g>
     <g id="line2d_107">
      <g>
       <use xlink:href="#m8cc7cc600e" x="588.109375" y="322.715625" style="fill: #ffffff; stroke: #ffffff; stroke-width: 0.5"/>
      </g>
     </g>
    </g>
    <g id="ytick_10">
     <g id="line2d_108">
      <g>
       <use xlink:href="#m21f6a47899" x="30.109375" y="308.855625" style="fill: #ffffff; stroke: #ffffff; stroke-width: 0.5"/>
      </g>
     </g>
     <g id="line2d_109">
      <g>
       <use xlink:href="#m8cc7cc600e" x="588.109375" y="308.855625" style="fill: #ffffff; stroke: #ffffff; stroke-width: 0.5"/>
      </g>
     </g>
    </g>
    <g id="ytick_11">
     <g id="line2d_110">
      <g>
       <use xlink:href="#m21f6a47899" x="30.109375" y="281.135625" style="fill: #ffffff; stroke: #ffffff; stroke-width: 0.5"/>
      </g>
     </g>
     <g id="line2d_111">
      <g>
       <use xlink:href="#m8cc7cc600e" x="588.109375" y="281.135625" style="fill: #ffffff; stroke: #ffffff; stroke-width: 0.5"/>
      </g>
     </g>
    </g>
    <g id="ytick_12">
     <g id="line2d_112">
      <g>
       <use xlink:href="#m21f6a47899" x="30.109375" y="267.275625" style="fill: #ffffff; stroke: #ffffff; stroke-width: 0.5"/>
      </g>
     </g>
     <g id="line2d_113">
      <g>
       <use xlink:href="#m8cc7cc600e" x="588.109375" y="267.275625" style="fill: #ffffff; stroke: #ffffff; stroke-width: 0.5"/>
      </g>
     </g>
    </g>
    <g id="ytick_13">
     <g id="line2d_114">
      <g>
       <use xlink:href="#m21f6a47899" x="30.109375" y="253.415625" style="fill: #ffffff; stroke: #ffffff; stroke-width: 0.5"/>
      </g>
     </g>
     <g id="line2d_115">
      <g>
       <use xlink:href="#m8cc7cc600e" x="588.109375" y="253.415625" style="fill: #ffffff; stroke: #ffffff; stroke-width: 0.5"/>
      </g>
     </g>
    </g>
    <g id="ytick_14">
     <g id="line2d_116">
      <g>
       <use xlink:href="#m21f6a47899" x="30.109375" y="225.695625" style="fill: #ffffff; stroke: #ffffff; stroke-width: 0.5"/>
      </g>
     </g>
     <g id="line2d_117">
      <g>
       <use xlink:href="#m8cc7cc600e" x="588.109375" y="225.695625" style="fill: #ffffff; stroke: #ffffff; stroke-width: 0.5"/>
      </g>
     </g>
    </g>
    <g id="ytick_15">
     <g id="line2d_118">
      <g>
       <use xlink:href="#m21f6a47899" x="30.109375" y="211.835625" style="fill: #ffffff; stroke: #ffffff; stroke-width: 0.5"/>
      </g>
     </g>
     <g id="line2d_119">
      <g>
       <use xlink:href="#m8cc7cc600e" x="588.109375" y="211.835625" style="fill: #ffffff; stroke: #ffffff; stroke-width: 0.5"/>
      </g>
     </g>
    </g>
    <g id="ytick_16">
     <g id="line2d_120">
      <g>
       <use xlink:href="#m21f6a47899" x="30.109375" y="197.975625" style="fill: #ffffff; stroke: #ffffff; stroke-width: 0.5"/>
      </g>
     </g>
     <g id="line2d_121">
      <g>
       <use xlink:href="#m8cc7cc600e" x="588.109375" y="197.975625" style="fill: #ffffff; stroke: #ffffff; stroke-width: 0.5"/>
      </g>
     </g>
    </g>
    <g id="ytick_17">
     <g id="line2d_122">
      <g>
       <use xlink:href="#m21f6a47899" x="30.109375" y="170.255625" style="fill: #ffffff; stroke: #ffffff; stroke-width: 0.5"/>
      </g>
     </g>
     <g id="line2d_123">
      <g>
       <use xlink:href="#m8cc7cc600e" x="588.109375" y="170.255625" style="fill: #ffffff; stroke: #ffffff; stroke-width: 0.5"/>
      </g>
     </g>
    </g>
    <g id="ytick_18">
     <g id="line2d_124">
      <g>
       <use xlink:href="#m21f6a47899" x="30.109375" y="156.395625" style="fill: #ffffff; stroke: #ffffff; stroke-width: 0.5"/>
      </g>
     </g>
     <g id="line2d_125">
      <g>
       <use xlink:href="#m8cc7cc600e" x="588.109375" y="156.395625" style="fill: #ffffff; stroke: #ffffff; stroke-width: 0.5"/>
      </g>
     </g>
    </g>
    <g id="ytick_19">
     <g id="line2d_126">
      <g>
       <use xlink:href="#m21f6a47899" x="30.109375" y="142.535625" style="fill: #ffffff; stroke: #ffffff; stroke-width: 0.5"/>
      </g>
     </g>
     <g id="line2d_127">
      <g>
       <use xlink:href="#m8cc7cc600e" x="588.109375" y="142.535625" style="fill: #ffffff; stroke: #ffffff; stroke-width: 0.5"/>
      </g>
     </g>
    </g>
    <g id="ytick_20">
     <g id="line2d_128">
      <g>
       <use xlink:href="#m21f6a47899" x="30.109375" y="114.815625" style="fill: #ffffff; stroke: #ffffff; stroke-width: 0.5"/>
      </g>
     </g>
     <g id="line2d_129">
      <g>
       <use xlink:href="#m8cc7cc600e" x="588.109375" y="114.815625" style="fill: #ffffff; stroke: #ffffff; stroke-width: 0.5"/>
      </g>
     </g>
    </g>
    <g id="ytick_21">
     <g id="line2d_130">
      <g>
       <use xlink:href="#m21f6a47899" x="30.109375" y="100.955625" style="fill: #ffffff; stroke: #ffffff; stroke-width: 0.5"/>
      </g>
     </g>
     <g id="line2d_131">
      <g>
       <use xlink:href="#m8cc7cc600e" x="588.109375" y="100.955625" style="fill: #ffffff; stroke: #ffffff; stroke-width: 0.5"/>
      </g>
     </g>
    </g>
    <g id="ytick_22">
     <g id="line2d_132">
      <g>
       <use xlink:href="#m21f6a47899" x="30.109375" y="87.095625" style="fill: #ffffff; stroke: #ffffff; stroke-width: 0.5"/>
      </g>
     </g>
     <g id="line2d_133">
      <g>
       <use xlink:href="#m8cc7cc600e" x="588.109375" y="87.095625" style="fill: #ffffff; stroke: #ffffff; stroke-width: 0.5"/>
      </g>
     </g>
    </g>
    <g id="ytick_23">
     <g id="line2d_134">
      <g>
       <use xlink:href="#m21f6a47899" x="30.109375" y="59.375625" style="fill: #ffffff; stroke: #ffffff; stroke-width: 0.5"/>
      </g>
     </g>
     <g id="line2d_135">
      <g>
       <use xlink:href="#m8cc7cc600e" x="588.109375" y="59.375625" style="fill: #ffffff; stroke: #ffffff; stroke-width: 0.5"/>
      </g>
     </g>
    </g>
    <g id="ytick_24">
     <g id="line2d_136">
      <g>
       <use xlink:href="#m21f6a47899" x="30.109375" y="45.515625" style="fill: #ffffff; stroke: #ffffff; stroke-width: 0.5"/>
      </g>
     </g>
     <g id="line2d_137">
      <g>
       <use xlink:href="#m8cc7cc600e" x="588.109375" y="45.515625" style="fill: #ffffff; stroke: #ffffff; stroke-width: 0.5"/>
      </g>
     </g>
    </g>
    <g id="ytick_25">
     <g id="line2d_138">
      <g>
       <use xlink:href="#m21f6a47899" x="30.109375" y="31.655625" style="fill: #ffffff; stroke: #ffffff; stroke-width: 0.5"/>
      </g>
     </g>
     <g id="line2d_139">
      <g>
       <use xlink:href="#m8cc7cc600e" x="588.109375" y="31.655625" style="fill: #ffffff; stroke: #ffffff; stroke-width: 0.5"/>
      </g>
     </g>
    </g>
    <g id="text_17">
     <!-- Elevation (degrees) -->
     <g style="fill: #ffffff" transform="translate(10.429688 223.13125) rotate(-90) scale(0.1 -0.1)">
      <defs>
       <path id="STIXGeneral-Regular-45" d="M 3821 1082 
L 3526 0 
L 77 0 
L 77 122 
Q 442 147 538 252 
Q 634 358 634 730 
L 634 3520 
Q 634 3878 534 3987 
Q 435 4096 77 4115 
L 77 4237 
L 3469 4237 
L 3494 3322 
L 3334 3322 
Q 3264 3750 3085 3872 
Q 2906 3994 2349 3994 
L 1510 3994 
Q 1370 3994 1328 3952 
Q 1286 3910 1286 3763 
L 1286 2355 
L 2253 2355 
Q 2656 2355 2787 2470 
Q 2918 2586 2976 2970 
L 3123 2970 
L 3123 1472 
L 2976 1472 
Q 2918 1875 2790 1984 
Q 2662 2093 2253 2093 
L 1286 2093 
L 1286 538 
Q 1286 346 1420 291 
Q 1555 237 1933 237 
L 2163 237 
Q 2848 237 3136 403 
Q 3424 570 3642 1082 
L 3821 1082 
z
" transform="scale(0.015625)"/>
       <path id="STIXGeneral-Regular-6c" d="M 1645 0 
L 134 0 
L 134 96 
Q 435 122 531 221 
Q 627 320 627 589 
L 627 3590 
Q 627 3821 569 3910 
Q 512 4000 358 4000 
Q 224 4000 122 3987 
L 122 4090 
Q 730 4237 1133 4371 
L 1165 4346 
L 1165 557 
Q 1165 288 1254 201 
Q 1344 115 1645 96 
L 1645 0 
z
" transform="scale(0.015625)"/>
       <path id="STIXGeneral-Regular-76" d="M 3053 2880 
L 3053 2784 
Q 2906 2771 2835 2688 
Q 2765 2605 2637 2285 
L 1818 230 
Q 1690 -90 1638 -90 
Q 1587 -90 1523 77 
Q 1510 96 1497 141 
Q 1485 186 1472 211 
L 704 2048 
Q 499 2534 403 2652 
Q 307 2771 122 2784 
L 122 2880 
L 1376 2880 
L 1376 2784 
Q 1210 2771 1146 2732 
Q 1082 2694 1082 2611 
Q 1082 2509 1139 2368 
L 1792 730 
L 2426 2387 
Q 2464 2483 2464 2579 
Q 2464 2758 2163 2784 
L 2163 2880 
L 3053 2880 
z
" transform="scale(0.015625)"/>
       <path id="STIXGeneral-Regular-61" d="M 2829 422 
L 2829 243 
Q 2586 -64 2253 -64 
Q 1888 -64 1843 403 
L 1837 403 
Q 1427 -64 909 -64 
Q 608 -64 422 112 
Q 237 288 237 602 
Q 237 1050 685 1350 
Q 992 1555 1837 1869 
L 1837 2214 
Q 1837 2502 1699 2646 
Q 1562 2790 1338 2790 
Q 1146 2790 1018 2697 
Q 890 2605 890 2477 
Q 890 2419 909 2348 
Q 928 2278 928 2208 
Q 928 2112 841 2029 
Q 755 1946 634 1946 
Q 525 1946 441 2029 
Q 358 2112 358 2240 
Q 358 2547 685 2752 
Q 986 2944 1421 2944 
Q 1939 2944 2176 2656 
Q 2291 2522 2323 2384 
Q 2355 2246 2355 1946 
L 2355 723 
Q 2355 301 2554 301 
Q 2682 301 2829 422 
z
M 1837 813 
L 1837 1715 
Q 1248 1510 1018 1293 
Q 800 1094 800 800 
Q 800 557 921 432 
Q 1043 307 1242 307 
Q 1453 307 1613 410 
Q 1747 506 1792 589 
Q 1837 672 1837 813 
z
" transform="scale(0.015625)"/>
       <path id="STIXGeneral-Regular-6f" d="M 3008 1478 
Q 3008 806 2608 371 
Q 2208 -64 1568 -64 
Q 979 -64 582 368 
Q 186 800 186 1459 
Q 186 2125 582 2534 
Q 979 2944 1626 2944 
Q 2221 2944 2614 2537 
Q 3008 2131 3008 1478 
z
M 2432 1306 
Q 2432 2035 2112 2445 
Q 1856 2765 1504 2765 
Q 1171 2765 966 2493 
Q 762 2221 762 1747 
Q 762 928 1101 435 
Q 1318 115 1677 115 
Q 2029 115 2230 432 
Q 2432 749 2432 1306 
z
" transform="scale(0.015625)"/>
       <path id="STIXGeneral-Regular-6e" d="M 3104 0 
L 1773 0 
L 1779 96 
Q 2016 115 2096 233 
Q 2176 352 2176 672 
L 2176 1946 
Q 2176 2592 1709 2592 
Q 1549 2592 1408 2515 
Q 1267 2438 1050 2227 
L 1050 461 
Q 1050 269 1136 192 
Q 1222 115 1466 96 
L 1466 0 
L 115 0 
L 115 96 
Q 358 115 435 214 
Q 512 314 512 602 
L 512 2157 
Q 512 2394 467 2483 
Q 422 2573 288 2573 
Q 160 2573 102 2547 
L 102 2656 
Q 550 2784 979 2944 
L 1030 2925 
L 1030 2426 
L 1037 2426 
Q 1491 2944 1958 2944 
Q 2323 2944 2518 2688 
Q 2714 2432 2714 1958 
L 2714 544 
Q 2714 288 2790 205 
Q 2867 122 3104 96 
L 3104 0 
z
" transform="scale(0.015625)"/>
      </defs>
      <use xlink:href="#STIXGeneral-Regular-45"/>
      <use xlink:href="#STIXGeneral-Regular-6c" transform="translate(61.099991 0)"/>
      <use xlink:href="#STIXGeneral-Regular-65" transform="translate(88.899979 0)"/>
      <use xlink:href="#STIXGeneral-Regular-76" transform="translate(133.299973 0)"/>
      <use xlink:href="#STIXGeneral-Regular-61" transform="translate(183.299957 0)"/>
      <use xlink:href="#STIXGeneral-Regular-74" transform="translate(227.699951 0)"/>
      <use xlink:href="#STIXGeneral-Regular-69" transform="translate(255.499939 0)"/>
      <use xlink:href="#STIXGeneral-Regular-6f" transform="translate(283.299927 0)"/>
      <use xlink:href="#STIXGeneral-Regular-6e" transform="translate(333.299911 0)"/>
      <use xlink:href="#STIXGeneral-Regular-20" transform="translate(383.299896 0)"/>
      <use xlink:href="#STIXGeneral-Regular-28" transform="translate(408.299881 0)"/>
      <use xlink:href="#STIXGeneral-Regular-64" transform="translate(441.599869 0)"/>
      <use xlink:href="#STIXGeneral-Regular-65" transform="translate(491.599854 0)"/>
      <use xlink:href="#STIXGeneral-Regular-67" transform="translate(535.999847 0)"/>
      <use xlink:href="#STIXGeneral-Regular-72" transform="translate(585.999832 0)"/>
      <use xlink:href="#STIXGeneral-Regular-65" transform="translate(619.29982 0)"/>
      <use xlink:href="#STIXGeneral-Regular-65" transform="translate(663.699814 0)"/>
      <use xlink:href="#STIXGeneral-Regular-73" transform="translate(708.099808 0)"/>
      <use xlink:href="#STIXGeneral-Regular-29" transform="translate(746.999802 0)"/>
     </g>
    </g>
   </g>
   <g id="line2d_140">
    <path d="M 512.149272 341.306331 
L 511.9383 340.003704 
L 511.7193 338.676813 
L 511.491845 337.324456 
L 511.255477 335.945352 
L 511.009696 334.538102 
L 510.753975 333.101246 
L 510.487741 331.633226 
L 510.210372 330.13234 
L 509.921206 328.596801 
L 509.619522 327.024699 
L 509.304536 325.413945 
L 508.975404 323.762339 
L 508.631207 322.067506 
L 508.270946 320.326904 
L 507.893527 318.537759 
L 507.497762 316.697126 
L 507.082353 314.801836 
L 506.645867 312.84842 
L 506.18674 310.833185 
L 505.703254 308.752144 
L 505.1935 306.600936 
L 504.655384 304.374897 
L 504.086583 302.068986 
L 503.484506 299.677689 
L 502.846283 297.195098 
L 502.168706 294.614798 
L 501.448192 291.929872 
L 500.680702 289.132775 
L 499.861706 286.215424 
L 498.986095 283.169103 
L 498.04806 279.984359 
L 497.041025 276.651122 
L 495.957493 273.158635 
L 494.788865 269.495376 
L 493.525299 265.649278 
L 492.15546 261.607736 
L 490.666213 257.357665 
L 489.042358 252.885936 
L 487.266197 248.179618 
L 485.317086 243.226584 
L 483.170812 238.016111 
L 480.79903 232.540174 
L 478.168463 226.794782 
L 475.239984 220.781771 
L 471.967843 214.511639 
L 468.298767 208.006698 
L 464.171237 201.305017 
L 459.515629 194.465654 
L 454.255258 187.57404 
L 448.309424 180.747465 
L 441.600204 174.140088 
L 434.063648 167.944619 
L 425.667069 162.38886 
L 416.430893 157.723379 
L 406.45145 154.198725 
L 395.913956 152.032103 
L 385.084769 151.370425 
L 374.278304 152.261054 
L 363.805104 154.64149 
L 353.92144 158.352866 
L 344.7998 163.171013 
L 336.524641 168.843491 
L 329.107396 175.121733 
L 322.509692 181.782259 
L 316.664688 188.637627 
L 311.493519 195.538947 
L 306.915734 202.373682 
L 302.855516 209.060401 
L 299.244367 215.543272 
L 296.021948 221.78673 
L 293.136099 227.770357 
L 290.542071 233.485055 
L 288.201613 238.929989 
L 286.082196 244.109853 
L 284.156112 249.033149 
L 282.399685 253.710904 
L 280.792724 258.155431 
L 279.317907 262.379755 
L 277.960357 266.397038 
L 276.707206 270.220354 
L 275.547347 273.862269 
L 274.47113 277.334794 
L 273.47012 280.64938 
L 272.536959 283.81671 
L 271.665192 286.846776 
L 270.84911 289.748955 
L 270.083692 292.531888 
L 269.364485 295.203586 
L 268.687517 297.771527 
L 268.04926 300.242563 
L 267.446556 302.62305 
L 266.87658 304.918839 
L 266.336778 307.135393 
" clip-path="url(#p22ff23d8ca)" style="fill: none; stroke: #0c5da5; stroke-width: 2; stroke-linecap: square"/>
   </g>
   <g id="line2d_141">
    <defs>
     <path id="mf44ab3fa89" d="M 0 3 
C 0.795609 3 1.55874 2.683901 2.12132 2.12132 
C 2.683901 1.55874 3 0.795609 3 0 
C 3 -0.795609 2.683901 -1.55874 2.12132 -2.12132 
C 1.55874 -2.683901 0.795609 -3 0 -3 
C -0.795609 -3 -1.55874 -2.683901 -2.12132 -2.12132 
C -2.683901 -1.55874 -3 -0.795609 -3 0 
C -3 0.795609 -2.683901 1.55874 -2.12132 2.12132 
C -1.55874 2.683901 -0.795609 3 0 3 
z
" style="stroke: #00b945"/>
    </defs>
    <g clip-path="url(#p22ff23d8ca)">
     <use xlink:href="#mf44ab3fa89" x="512.149272" y="341.306331" style="fill: #00b945; stroke: #00b945"/>
    </g>
   </g>
   <g id="line2d_142">
    <defs>
     <path id="md1fda6020f" d="M -3 3 
L 3 3 
L 3 -3 
L -3 -3 
z
" style="stroke: #ff9500; stroke-linejoin: miter"/>
    </defs>
    <g clip-path="url(#p22ff23d8ca)">
     <use xlink:href="#md1fda6020f" x="266.336778" y="307.135393" style="fill: #ff9500; stroke: #ff9500; stroke-linejoin: miter"/>
    </g>
   </g>
   <g id="line2d_143">
    <path d="M 525.591958 347.172557 
L 525.721197 345.963625 
L 525.853805 344.734774 
L 525.989961 343.485033 
L 526.129848 342.2134 
L 526.273664 340.918809 
L 526.421625 339.600094 
L 526.573957 338.256051 
L 526.730908 336.885354 
L 526.892739 335.486619 
L 527.059733 334.058366 
L 527.232197 332.598975 
L 527.410461 331.106747 
L 527.594877 329.579857 
L 527.785835 328.01631 
L 527.983747 326.414011 
L 528.189072 324.770653 
L 528.402298 323.083789 
L 528.623962 321.350782 
L 528.854653 319.568738 
L 529.095008 317.734572 
L 529.345727 315.844945 
L 529.607585 313.896186 
L 529.881424 311.884379 
L 530.168183 309.805196 
L 530.468893 307.653981 
L 530.784696 305.425659 
L 531.116869 303.114634 
L 531.466828 300.714851 
L 531.836152 298.219683 
L 532.226625 295.621808 
L 532.640236 292.913283 
L 533.079247 290.085294 
L 533.546206 287.12822 
L 534.044012 284.03148 
L 534.575988 280.783343 
L 535.145929 277.370963 
L 535.758207 273.780187 
L 536.417899 269.995326 
L 537.130892 265.999225 
L 537.904098 261.772878 
L 538.745637 257.295518 
L 539.665129 252.544414 
L 540.674075 247.49467 
L 541.786277 242.119443 
L 543.018453 236.389929 
L 544.391069 230.275476 
L 545.929316 223.744418 
L 547.664625 216.764573 
L 549.636512 209.305042 
L 551.89526 201.338319 
L 554.505663 192.843496 
L 557.552053 183.8117 
L 561.145501 174.253304 
L 565.433838 164.208295 
L 570.614755 153.761885 
L 576.952582 143.064934 
L 584.794397 132.363123 
" clip-path="url(#p22ff23d8ca)" style="fill: none; stroke: #ff2c00; stroke-width: 2; stroke-linecap: square"/>
   </g>
   <g id="line2d_144">
    <path d="M 36.573878 122.033037 
L 48.769223 112.620074 
L 63.747591 104.855146 
L 81.434495 99.590911 
L 100.929012 97.586631 
L 120.534417 99.180789 
L 138.499069 104.103422 
L 153.812432 111.627852 
L 166.320228 120.89794 
L 176.358547 131.162855 
L 184.403379 141.854837 
L 190.897294 152.578933 
L 196.197974 163.076006 
L 200.578554 173.185114 
L 204.24378 182.814635 
L 207.346507 191.919815 
L 210.001557 200.487333 
L 212.296047 208.524403 
L 214.296717 216.050645 
L 216.055344 223.093001 
L 217.612594 229.682309 
L 219.000692 235.850539 
L 220.24552 241.629692 
L 221.368012 247.050499 
L 222.385281 252.142037 
L 223.31146 256.93155 
L 224.158275 261.4441 
L 224.935546 265.7027 
L 225.65157 269.728478 
L 226.31337 273.540552 
L 226.92696 277.156422 
L 227.497493 280.591894 
L 228.029416 283.861309 
L 228.5266 286.977758 
L 228.992404 289.953023 
L 229.429783 292.797896 
L 229.841324 295.522116 
L 230.22931 298.134544 
L 230.595773 300.643306 
L 230.942511 303.055753 
L 231.271125 305.378591 
L 231.583056 307.618006 
L 231.879587 309.779586 
L 232.161883 311.868516 
L 232.430985 313.889507 
L 232.687837 315.846884 
L 232.9333 317.744672 
L 233.168151 319.586532 
L 233.393096 321.375843 
" clip-path="url(#p22ff23d8ca)" style="fill: none; stroke: #845b97; stroke-width: 2; stroke-linecap: square"/>
   </g>
   <g id="line2d_145">
    <defs>
     <path id="mb7af4d9529" d="M 0 3 
C 0.795609 3 1.55874 2.683901 2.12132 2.12132 
C 2.683901 1.55874 3 0.795609 3 0 
C 3 -0.795609 2.683901 -1.55874 2.12132 -2.12132 
C 1.55874 -2.683901 0.795609 -3 0 -3 
C -0.795609 -3 -1.55874 -2.683901 -2.12132 -2.12132 
C -2.683901 -1.55874 -3 -0.795609 -3 0 
C -3 0.795609 -2.683901 1.55874 -2.12132 2.12132 
C -1.55874 2.683901 -0.795609 3 0 3 
z
" style="stroke: #474747"/>
    </defs>
    <g clip-path="url(#p22ff23d8ca)">
     <use xlink:href="#mb7af4d9529" x="525.591958" y="347.172557" style="fill: #474747; stroke: #474747"/>
    </g>
   </g>
   <g id="line2d_146">
    <defs>
     <path id="m8e75f95017" d="M -3 3 
L 3 3 
L 3 -3 
L -3 -3 
z
" style="stroke: #9e9e9e; stroke-linejoin: miter"/>
    </defs>
    <g clip-path="url(#p22ff23d8ca)">
     <use xlink:href="#m8e75f95017" x="233.393096" y="321.375843" style="fill: #9e9e9e; stroke: #9e9e9e; stroke-linejoin: miter"/>
    </g>
   </g>
   <g id="line2d_147">
    <path d="M 537.539961 345.986693 
L 537.968344 344.813844 
L 538.409227 343.623402 
L 538.863206 342.414644 
L 539.330917 341.186797 
L 539.813035 339.939052 
L 540.310278 338.670555 
L 540.823413 337.380411 
L 541.353255 336.067677 
L 541.900674 334.731363 
L 542.466598 333.370428 
L 543.052019 331.983775 
L 543.657998 330.570256 
L 544.285669 329.128661 
L 544.936247 327.657721 
L 545.611035 326.156106 
L 546.311431 324.622418 
L 547.038934 323.055196 
L 547.795156 321.452909 
L 548.581833 319.81396 
L 549.400829 318.136681 
L 550.254156 316.419339 
L 551.14398 314.660132 
L 552.07264 312.857198 
L 553.042661 311.008617 
L 554.056768 309.11242 
L 555.117909 307.166598 
L 556.229272 305.169117 
L 557.394304 303.117936 
L 558.616735 301.01103 
L 559.900604 298.84642 
L 561.250277 296.622211 
L 562.67048 294.336639 
L 564.166321 291.98813 
L 565.743315 289.575371 
L 567.407411 287.097395 
L 569.165014 284.553693 
L 571.023002 281.944333 
L 572.988736 279.270116 
L 575.070065 276.532751 
L 577.275311 273.735065 
L 579.613238 270.881233 
L 582.092995 267.977052 
L 584.724031 265.030234 
L 587.515956 262.05072 
" clip-path="url(#p22ff23d8ca)" style="fill: none; stroke: #0c5da5; stroke-width: 2; stroke-linecap: square"/>
   </g>
   <g id="line2d_148">
    <path d="M 32.478362 259.051016 
L 35.620576 256.046514 
L 38.951332 253.055795 
L 42.478376 250.100859 
L 46.207964 247.20727 
L 50.14429 244.404134 
L 54.288836 241.723887 
L 58.639682 239.201814 
L 63.190819 236.87527 
L 67.93154 234.78258 
L 72.845983 232.961617 
L 77.912931 231.448135 
L 83.105931 230.273947 
L 88.393826 229.465119 
L 93.74167 229.040348 
L 99.112021 229.00974 
L 104.466472 229.374112 
L 109.767294 230.124938 
L 114.978999 231.24493 
L 120.069681 232.709188 
L 125.012011 234.486754 
L 129.783825 236.542409 
L 134.368323 238.838498 
L 138.753917 241.336641 
L 142.93381 243.9992 
L 146.905408 246.79044 
L 150.669644 249.677367 
L 154.230281 252.630251 
L 157.593258 255.622892 
L 160.766094 258.632663 
L 163.757383 261.640397 
L 166.57637 264.630164 
L 169.232622 267.588977 
L 171.735761 270.506476 
L 174.095273 273.374588 
L 176.32037 276.187213 
L 178.419888 278.939922 
L 180.402231 281.62968 
L 182.27533 284.254612 
L 184.046634 286.813781 
L 185.723105 289.307014 
L 187.311231 291.734741 
L 188.817039 294.097869 
L 190.246119 296.397667 
L 191.60365 298.63568 
L 192.894421 300.813654 
L 194.122863 302.933473 
L 195.293067 304.997114 
L 196.408818 307.006603 
L 197.473611 308.963991 
L 198.490677 310.871319 
L 199.463005 312.73061 
L 200.393359 314.543848 
L 201.284298 316.312967 
L 202.138191 318.039846 
L 202.957235 319.726301 
L 203.743466 321.374085 
L 204.498775 322.984879 
L 205.224919 324.560299 
L 205.923531 326.10189 
L 206.596129 327.61113 
" clip-path="url(#p22ff23d8ca)" style="fill: none; stroke: #00b945; stroke-width: 2; stroke-linecap: square"/>
   </g>
   <g id="line2d_149">
    <defs>
     <path id="m2348b55bb3" d="M 0 3 
C 0.795609 3 1.55874 2.683901 2.12132 2.12132 
C 2.683901 1.55874 3 0.795609 3 0 
C 3 -0.795609 2.683901 -1.55874 2.12132 -2.12132 
C 1.55874 -2.683901 0.795609 -3 0 -3 
C -0.795609 -3 -1.55874 -2.683901 -2.12132 -2.12132 
C -2.683901 -1.55874 -3 -0.795609 -3 0 
C -3 0.795609 -2.683901 1.55874 -2.12132 2.12132 
C -1.55874 2.683901 -0.795609 3 0 3 
z
" style="stroke: #ff9500"/>
    </defs>
    <g clip-path="url(#p22ff23d8ca)">
     <use xlink:href="#m2348b55bb3" x="537.539961" y="345.986693" style="fill: #ff9500; stroke: #ff9500"/>
    </g>
   </g>
   <g id="line2d_150">
    <defs>
     <path id="m3db182b4a6" d="M -3 3 
L 3 3 
L 3 -3 
L -3 -3 
z
" style="stroke: #ff2c00; stroke-linejoin: miter"/>
    </defs>
    <g clip-path="url(#p22ff23d8ca)">
     <use xlink:href="#m3db182b4a6" x="206.596129" y="327.61113" style="fill: #ff2c00; stroke: #ff2c00; stroke-linejoin: miter"/>
    </g>
   </g>
   <g id="patch_3">
    <path d="M 30.109375 350.435625 
L 30.109375 17.795625 
" style="fill: none; stroke: #ffffff; stroke-width: 0.5; stroke-linejoin: miter; stroke-linecap: square"/>
   </g>
   <g id="patch_4">
    <path d="M 588.109375 350.435625 
L 588.109375 17.795625 
" style="fill: none; stroke: #ffffff; stroke-width: 0.5; stroke-linejoin: miter; stroke-linecap: square"/>
   </g>
   <g id="patch_5">
    <path d="M 30.109375 350.435625 
L 588.109375 350.435625 
" style="fill: none; stroke: #ffffff; stroke-width: 0.5; stroke-linejoin: miter; stroke-linecap: square"/>
   </g>
   <g id="patch_6">
    <path d="M 30.109375 17.795625 
L 588.109375 17.795625 
" style="fill: none; stroke: #ffffff; stroke-width: 0.5; stroke-linejoin: miter; stroke-linecap: square"/>
   </g>
   <g id="text_18">
    <!-- Elevation vs Azimuth -->
    <g style="fill: #ffffff" transform="translate(256.777188 11.795625) scale(0.12 -0.12)">
     <use xlink:href="#STIXGeneral-Regular-45"/>
     <use xlink:href="#STIXGeneral-Regular-6c" transform="translate(61.099991 0)"/>
     <use xlink:href="#STIXGeneral-Regular-65" transform="translate(88.899979 0)"/>
     <use xlink:href="#STIXGeneral-Regular-76" transform="translate(133.299973 0)"/>
     <use xlink:href="#STIXGeneral-Regular-61" transform="translate(183.299957 0)"/>
     <use xlink:href="#STIXGeneral-Regular-74" transform="translate(227.699951 0)"/>
     <use xlink:href="#STIXGeneral-Regular-69" transform="translate(255.499939 0)"/>
     <use xlink:href="#STIXGeneral-Regular-6f" transform="translate(283.299927 0)"/>
     <use xlink:href="#STIXGeneral-Regular-6e" transform="translate(333.299911 0)"/>
     <use xlink:href="#STIXGeneral-Regular-20" transform="translate(383.299896 0)"/>
     <use xlink:href="#STIXGeneral-Regular-76" transform="translate(408.299881 0)"/>
     <use xlink:href="#STIXGeneral-Regular-73" transform="translate(458.299866 0)"/>
     <use xlink:href="#STIXGeneral-Regular-20" transform="translate(497.19986 0)"/>
     <use xlink:href="#STIXGeneral-Regular-41" transform="translate(522.199844 0)"/>
     <use xlink:href="#STIXGeneral-Regular-7a" transform="translate(594.399826 0)"/>
     <use xlink:href="#STIXGeneral-Regular-69" transform="translate(638.79982 0)"/>
     <use xlink:href="#STIXGeneral-Regular-6d" transform="translate(666.599808 0)"/>
     <use xlink:href="#STIXGeneral-Regular-75" transform="translate(744.399796 0)"/>
     <use xlink:href="#STIXGeneral-Regular-74" transform="translate(794.39978 0)"/>
     <use xlink:href="#STIXGeneral-Regular-68" transform="translate(822.199768 0)"/>
    </g>
   </g>
   <g id="legend_1">
    <g id="patch_7">
     <path d="M 488.057813 33.795625 
L 508.057813 33.795625 
L 508.057813 26.795625 
L 488.057813 26.795625 
z
" style="fill: #808080; fill-opacity: 0.2; stroke: #808080; stroke-opacity: 0.2; stroke-linejoin: miter"/>
    </g>
    <g id="text_19">
     <!-- Elevation Mask -->
     <g style="fill: #ffffff" transform="translate(516.057812 33.795625) scale(0.1 -0.1)">
      <defs>
       <path id="STIXGeneral-Regular-4d" d="M 5530 0 
L 3738 0 
L 3738 122 
Q 4115 147 4214 265 
Q 4314 384 4314 787 
L 4314 3661 
L 2682 0 
L 2592 0 
L 979 3514 
L 979 966 
Q 979 448 1088 294 
Q 1197 141 1574 122 
L 1574 0 
L 77 0 
L 77 122 
Q 358 141 480 205 
Q 602 269 650 432 
Q 698 595 698 966 
L 698 3514 
Q 698 3878 589 3984 
Q 480 4090 90 4115 
L 90 4237 
L 1357 4237 
L 2835 1024 
L 4250 4237 
L 5523 4237 
L 5523 4115 
Q 5178 4109 5072 3993 
Q 4966 3878 4966 3520 
L 4966 717 
Q 4966 378 5072 262 
Q 5178 147 5530 122 
L 5530 0 
z
" transform="scale(0.015625)"/>
       <path id="STIXGeneral-Regular-6b" d="M 3232 0 
L 1837 0 
L 1837 96 
L 1958 96 
Q 2093 96 2093 192 
Q 2093 250 2022 339 
L 1062 1606 
L 1062 429 
Q 1062 262 1142 185 
Q 1222 109 1414 102 
L 1542 96 
L 1542 0 
L 45 0 
L 45 96 
Q 390 154 457 214 
Q 525 275 525 525 
L 525 3610 
Q 525 3840 467 3920 
Q 410 4000 250 4000 
Q 211 4000 45 3987 
L 45 4090 
L 237 4141 
Q 621 4243 1037 4371 
L 1062 4358 
L 1062 1670 
L 1939 2451 
Q 2086 2586 2086 2675 
Q 2086 2739 2019 2761 
Q 1952 2784 1766 2790 
L 1766 2880 
L 3072 2880 
L 3072 2784 
Q 2752 2784 2505 2646 
Q 2259 2509 1690 1978 
L 1504 1805 
L 2483 563 
Q 2829 122 3232 96 
L 3232 0 
z
" transform="scale(0.015625)"/>
      </defs>
      <use xlink:href="#STIXGeneral-Regular-45"/>
      <use xlink:href="#STIXGeneral-Regular-6c" transform="translate(61.099991 0)"/>
      <use xlink:href="#STIXGeneral-Regular-65" transform="translate(88.899979 0)"/>
      <use xlink:href="#STIXGeneral-Regular-76" transform="translate(133.299973 0)"/>
      <use xlink:href="#STIXGeneral-Regular-61" transform="translate(183.299957 0)"/>
      <use xlink:href="#STIXGeneral-Regular-74" transform="translate(227.699951 0)"/>
      <use xlink:href="#STIXGeneral-Regular-69" transform="translate(255.499939 0)"/>
      <use xlink:href="#STIXGeneral-Regular-6f" transform="translate(283.299927 0)"/>
      <use xlink:href="#STIXGeneral-Regular-6e" transform="translate(333.299911 0)"/>
      <use xlink:href="#STIXGeneral-Regular-20" transform="translate(383.299896 0)"/>
      <use xlink:href="#STIXGeneral-Regular-4d" transform="translate(408.299881 0)"/>
      <use xlink:href="#STIXGeneral-Regular-61" transform="translate(497.199875 0)"/>
      <use xlink:href="#STIXGeneral-Regular-73" transform="translate(541.599869 0)"/>
      <use xlink:href="#STIXGeneral-Regular-6b" transform="translate(580.499863 0)"/>
     </g>
    </g>
    <g id="line2d_151">
     <path d="M 488.057813 44.465937 
L 498.057813 44.465937 
L 508.057813 44.465937 
" style="fill: none; stroke: #0c5da5; stroke-width: 2; stroke-linecap: square"/>
    </g>
    <g id="text_20">
     <!-- Pass 1 -->
     <g style="fill: #ffffff" transform="translate(516.057812 47.965937) scale(0.1 -0.1)">
      <defs>
       <path id="STIXGeneral-Regular-50" d="M 102 4237 
L 1760 4237 
Q 2669 4237 3149 3834 
Q 3469 3565 3469 3072 
Q 3469 2560 3104 2234 
Q 2835 1990 2553 1916 
Q 2272 1843 1734 1843 
Q 1549 1843 1293 1862 
L 1293 717 
Q 1293 352 1398 246 
Q 1504 141 1894 122 
L 1894 0 
L 102 0 
L 102 122 
Q 474 147 557 256 
Q 640 365 640 781 
L 640 3526 
Q 640 3885 547 3987 
Q 454 4090 102 4115 
L 102 4237 
z
M 1293 3770 
L 1293 2118 
Q 1510 2099 1683 2099 
Q 2202 2099 2486 2352 
Q 2771 2605 2771 3040 
Q 2771 3558 2476 3779 
Q 2182 4000 1517 4000 
Q 1382 4000 1337 3952 
Q 1293 3904 1293 3770 
z
" transform="scale(0.015625)"/>
      </defs>
      <use xlink:href="#STIXGeneral-Regular-50"/>
      <use xlink:href="#STIXGeneral-Regular-61" transform="translate(55.699997 0)"/>
      <use xlink:href="#STIXGeneral-Regular-73" transform="translate(100.099991 0)"/>
      <use xlink:href="#STIXGeneral-Regular-73" transform="translate(138.999985 0)"/>
      <use xlink:href="#STIXGeneral-Regular-20" transform="translate(177.899979 0)"/>
      <use xlink:href="#STIXGeneral-Regular-31" transform="translate(202.899963 0)"/>
     </g>
    </g>
    <g id="line2d_152">
     <path d="M 488.057813 58.63625 
L 498.057813 58.63625 
L 508.057813 58.63625 
" style="fill: none; stroke: #ff2c00; stroke-width: 2; stroke-linecap: square"/>
    </g>
    <g id="text_21">
     <!-- Pass 2 -->
     <g style="fill: #ffffff" transform="translate(516.057812 62.13625) scale(0.1 -0.1)">
      <use xlink:href="#STIXGeneral-Regular-50"/>
      <use xlink:href="#STIXGeneral-Regular-61" transform="translate(55.699997 0)"/>
      <use xlink:href="#STIXGeneral-Regular-73" transform="translate(100.099991 0)"/>
      <use xlink:href="#STIXGeneral-Regular-73" transform="translate(138.999985 0)"/>
      <use xlink:href="#STIXGeneral-Regular-20" transform="translate(177.899979 0)"/>
      <use xlink:href="#STIXGeneral-Regular-32" transform="translate(202.899963 0)"/>
     </g>
    </g>
    <g id="line2d_153">
     <path d="M 488.057813 72.806562 
L 498.057813 72.806562 
L 508.057813 72.806562 
" style="fill: none; stroke: #0c5da5; stroke-width: 2; stroke-linecap: square"/>
    </g>
    <g id="text_22">
     <!-- Pass 3 -->
     <g style="fill: #ffffff" transform="translate(516.057812 76.306562) scale(0.1 -0.1)">
      <use xlink:href="#STIXGeneral-Regular-50"/>
      <use xlink:href="#STIXGeneral-Regular-61" transform="translate(55.699997 0)"/>
      <use xlink:href="#STIXGeneral-Regular-73" transform="translate(100.099991 0)"/>
      <use xlink:href="#STIXGeneral-Regular-73" transform="translate(138.999985 0)"/>
      <use xlink:href="#STIXGeneral-Regular-20" transform="translate(177.899979 0)"/>
      <use xlink:href="#STIXGeneral-Regular-33" transform="translate(202.899963 0)"/>
     </g>
    </g>
   </g>
  </g>
 </g>
 <defs>
  <clipPath id="p22ff23d8ca">
   <rect x="30.109375" y="17.795625" width="558" height="332.64"/>
  </clipPath>
 </defs>
</svg>
