<?xml version="1.0" encoding="utf-8" standalone="no"?>
<!DOCTYPE svg PUBLIC "-//W3C//DTD SVG 1.1//EN"
  "http://www.w3.org/Graphics/SVG/1.1/DTD/svg11.dtd">
<svg xmlns:xlink="http://www.w3.org/1999/xlink" width="506.82625pt" height="525.038906pt" viewBox="0 0 506.82625 525.038906" xmlns="http://www.w3.org/2000/svg" version="1.1">
 <metadata>
  <rdf:RDF xmlns:dc="http://purl.org/dc/elements/1.1/" xmlns:cc="http://creativecommons.org/ns#" xmlns:rdf="http://www.w3.org/1999/02/22-rdf-syntax-ns#">
   <cc:Work>
    <dc:type rdf:resource="http://purl.org/dc/dcmitype/StillImage"/>
    <dc:date>2026-07-16T08:27:44.752529</dc:date>
    <dc:format>image/svg+xml</dc:format>
    <dc:creator>
     <cc:Agent>
      <dc:title>Matplotlib v3.11.0, https://matplotlib.org/</dc:title>
     </cc:Agent>
    </dc:creator>
   </cc:Work>
  </rdf:RDF>
 </metadata>
 <defs>
  <style type="text/css">*{stroke-linejoin: round; stroke-linecap: butt}</style>
 </defs>
 <g id="figure_1">
  <g id="patch_1">
   <path d="M 0 525.038906 
L 506.82625 525.038906 
L 506.82625 0 
L 0 0 
z
" style="fill: #1c1e24"/>
  </g>
  <g id="axes_1">
   <g id="patch_2">
    <path d="M 476.76375 263.078125 
C 476.76375 233.956869 471.027497 205.11878 459.883275 178.214247 
C 448.739053 151.309714 432.403588 126.861963 411.81175 106.270125 
C 391.219912 85.678287 366.772161 69.342822 339.867628 58.1986 
C 312.963095 47.054378 284.125006 41.318125 255.00375 41.318125 
C 225.882494 41.318125 197.044405 47.054378 170.139872 58.1986 
C 143.235339 69.342822 118.787588 85.678287 98.19575 106.270125 
C 77.603912 126.861963 61.268447 151.309714 50.124225 178.214247 
C 38.980003 205.11878 33.24375 233.956869 33.24375 263.078125 
C 33.24375 292.199381 38.980003 321.03747 50.124225 347.942003 
C 61.268447 374.846536 77.603912 399.294287 98.19575 419.886125 
C 118.787588 440.477963 143.235339 456.813428 170.139872 467.95765 
C 197.044405 479.101872 225.882494 484.838125 255.00375 484.838125 
C 284.125006 484.838125 312.963095 479.101872 339.867628 467.95765 
C 366.772161 456.813428 391.219912 440.477963 411.81175 419.886125 
C 432.403588 399.294287 448.739053 374.846536 459.883275 347.942003 
C 471.027497 321.03747 476.76375 292.199381 476.76375 263.078125 
M 255.00375 263.078125 
C 255.00375 263.078125 255.00375 263.078125 255.00375 263.078125 
C 255.00375 263.078125 255.00375 263.078125 255.00375 263.078125 
C 255.00375 263.078125 255.00375 263.078125 255.00375 263.078125 
C 255.00375 263.078125 255.00375 263.078125 255.00375 263.078125 
C 255.00375 263.078125 255.00375 263.078125 255.00375 263.078125 
C 255.00375 263.078125 255.00375 263.078125 255.00375 263.078125 
C 255.00375 263.078125 255.00375 263.078125 255.00375 263.078125 
C 255.00375 263.078125 255.00375 263.078125 255.00375 263.078125 
C 255.00375 263.078125 255.00375 263.078125 255.00375 263.078125 
C 255.00375 263.078125 255.00375 263.078125 255.00375 263.078125 
C 255.00375 263.078125 255.00375 263.078125 255.00375 263.078125 
C 255.00375 263.078125 255.00375 263.078125 255.00375 263.078125 
C 255.00375 263.078125 255.00375 263.078125 255.00375 263.078125 
C 255.00375 263.078125 255.00375 263.078125 255.00375 263.078125 
C 255.00375 263.078125 255.00375 263.078125 255.00375 263.078125 
C 255.00375 263.078125 255.00375 263.078125 255.00375 263.078125 
z
" style="fill: #1c1e24"/>
   </g>
   <g id="matplotlib.axis_1">
    <g id="xtick_1">
     <g id="line2d_1">
      <path d="M 255.00375 263.078125 
L 255.00375 41.318125 
" clip-path="url(#p73be9bf377)" style="fill: none; stroke: #ffffff; stroke-width: 0.8; stroke-linecap: square"/>
     </g>
     <g id="text_1">
      <!-- 0° -->
      <g style="fill: #ffffff" transform="translate(249.3225 29.915781) scale(0.1 -0.1)">
       <defs>
        <path id="DejaVuSans-13" d="M 2034 4250 
Q 1547 4250 1301 3770 
Q 1056 3291 1056 2328 
Q 1056 1369 1301 889 
Q 1547 409 2034 409 
Q 2525 409 2770 889 
Q 3016 1369 3016 2328 
Q 3016 3291 2770 3770 
Q 2525 4250 2034 4250 
z
M 2034 4750 
Q 2819 4750 3233 4129 
Q 3647 3509 3647 2328 
Q 3647 1150 3233 529 
Q 2819 -91 2034 -91 
Q 1250 -91 836 529 
Q 422 1150 422 2328 
Q 422 3509 836 4129 
Q 1250 4750 2034 4750 
z
" transform="scale(0.015625)"/>
        <path id="DejaVuSans-72" d="M 1600 4347 
Q 1350 4347 1178 4173 
Q 1006 4000 1006 3750 
Q 1006 3503 1178 3333 
Q 1350 3163 1600 3163 
Q 1850 3163 2022 3333 
Q 2194 3503 2194 3750 
Q 2194 3997 2020 4172 
Q 1847 4347 1600 4347 
z
M 1600 4750 
Q 1800 4750 1984 4673 
Q 2169 4597 2303 4453 
Q 2447 4313 2519 4134 
Q 2591 3956 2591 3750 
Q 2591 3338 2302 3052 
Q 2013 2766 1594 2766 
Q 1172 2766 890 3047 
Q 609 3328 609 3750 
Q 609 4169 896 4459 
Q 1184 4750 1600 4750 
z
" transform="scale(0.015625)"/>
       </defs>
       <use xlink:href="#DejaVuSans-13"/>
       <use xlink:href="#DejaVuSans-72" transform="translate(63.625 0)"/>
      </g>
     </g>
    </g>
    <g id="xtick_2">
     <g id="line2d_2">
      <path d="M 255.00375 263.078125 
L 411.81175 106.270125 
" clip-path="url(#p73be9bf377)" style="fill: none; stroke: #ffffff; stroke-width: 0.8; stroke-linecap: square"/>
     </g>
     <g id="text_2">
      <!-- 45° -->
      <g style="fill: #ffffff" transform="translate(412.848745 98.968287) scale(0.1 -0.1)">
       <defs>
        <path id="DejaVuSans-17" d="M 2419 4116 
L 825 1625 
L 2419 1625 
L 2419 4116 
z
M 2253 4666 
L 3047 4666 
L 3047 1625 
L 3713 1625 
L 3713 1100 
L 3047 1100 
L 3047 0 
L 2419 0 
L 2419 1100 
L 313 1100 
L 313 1709 
L 2253 4666 
z
" transform="scale(0.015625)"/>
        <path id="DejaVuSans-18" d="M 691 4666 
L 3169 4666 
L 3169 4134 
L 1269 4134 
L 1269 2991 
Q 1406 3038 1543 3061 
Q 1681 3084 1819 3084 
Q 2600 3084 3056 2656 
Q 3513 2228 3513 1497 
Q 3513 744 3044 326 
Q 2575 -91 1722 -91 
Q 1428 -91 1123 -41 
Q 819 9 494 109 
L 494 744 
Q 775 591 1075 516 
Q 1375 441 1709 441 
Q 2250 441 2565 725 
Q 2881 1009 2881 1497 
Q 2881 1984 2565 2268 
Q 2250 2553 1709 2553 
Q 1456 2553 1204 2497 
Q 953 2441 691 2322 
L 691 4666 
z
" transform="scale(0.015625)"/>
       </defs>
       <use xlink:href="#DejaVuSans-17"/>
       <use xlink:href="#DejaVuSans-18" transform="translate(63.625 0)"/>
       <use xlink:href="#DejaVuSans-72" transform="translate(127.25 0)"/>
      </g>
     </g>
    </g>
    <g id="xtick_3">
     <g id="line2d_3">
      <path d="M 255.00375 263.078125 
L 476.76375 263.078125 
" clip-path="url(#p73be9bf377)" style="fill: none; stroke: #ffffff; stroke-width: 0.8; stroke-linecap: square"/>
     </g>
     <g id="text_3">
      <!-- 90° -->
      <g style="fill: #ffffff" transform="translate(481.90125 265.675781) scale(0.1 -0.1)">
       <defs>
        <path id="DejaVuSans-1c" d="M 703 97 
L 703 672 
Q 941 559 1184 500 
Q 1428 441 1663 441 
Q 2288 441 2617 861 
Q 2947 1281 2994 2138 
Q 2813 1869 2534 1725 
Q 2256 1581 1919 1581 
Q 1219 1581 811 2004 
Q 403 2428 403 3163 
Q 403 3881 828 4315 
Q 1253 4750 1959 4750 
Q 2769 4750 3195 4129 
Q 3622 3509 3622 2328 
Q 3622 1225 3098 567 
Q 2575 -91 1691 -91 
Q 1453 -91 1209 -44 
Q 966 3 703 97 
z
M 1959 2075 
Q 2384 2075 2632 2365 
Q 2881 2656 2881 3163 
Q 2881 3666 2632 3958 
Q 2384 4250 1959 4250 
Q 1534 4250 1286 3958 
Q 1038 3666 1038 3163 
Q 1038 2656 1286 2365 
Q 1534 2075 1959 2075 
z
" transform="scale(0.015625)"/>
       </defs>
       <use xlink:href="#DejaVuSans-1c"/>
       <use xlink:href="#DejaVuSans-13" transform="translate(63.625 0)"/>
       <use xlink:href="#DejaVuSans-72" transform="translate(127.25 0)"/>
      </g>
     </g>
    </g>
    <g id="xtick_4">
     <g id="line2d_4">
      <path d="M 255.00375 263.078125 
L 411.81175 419.886125 
" clip-path="url(#p73be9bf377)" style="fill: none; stroke: #ffffff; stroke-width: 0.8; stroke-linecap: square"/>
     </g>
     <g id="text_4">
      <!-- 135° -->
      <g style="fill: #ffffff" transform="translate(409.667495 432.383276) scale(0.1 -0.1)">
       <defs>
        <path id="DejaVuSans-14" d="M 794 531 
L 1825 531 
L 1825 4091 
L 703 3866 
L 703 4441 
L 1819 4666 
L 2450 4666 
L 2450 531 
L 3481 531 
L 3481 0 
L 794 0 
L 794 531 
z
" transform="scale(0.015625)"/>
        <path id="DejaVuSans-16" d="M 2597 2516 
Q 3050 2419 3304 2112 
Q 3559 1806 3559 1356 
Q 3559 666 3084 287 
Q 2609 -91 1734 -91 
Q 1441 -91 1130 -33 
Q 819 25 488 141 
L 488 750 
Q 750 597 1062 519 
Q 1375 441 1716 441 
Q 2309 441 2620 675 
Q 2931 909 2931 1356 
Q 2931 1769 2642 2001 
Q 2353 2234 1838 2234 
L 1294 2234 
L 1294 2753 
L 1863 2753 
Q 2328 2753 2575 2939 
Q 2822 3125 2822 3475 
Q 2822 3834 2567 4026 
Q 2313 4219 1838 4219 
Q 1578 4219 1281 4162 
Q 984 4106 628 3988 
L 628 4550 
Q 988 4650 1302 4700 
Q 1616 4750 1894 4750 
Q 2613 4750 3031 4423 
Q 3450 4097 3450 3541 
Q 3450 3153 3228 2886 
Q 3006 2619 2597 2516 
z
" transform="scale(0.015625)"/>
       </defs>
       <use xlink:href="#DejaVuSans-14"/>
       <use xlink:href="#DejaVuSans-16" transform="translate(63.625 0)"/>
       <use xlink:href="#DejaVuSans-18" transform="translate(127.25 0)"/>
       <use xlink:href="#DejaVuSans-72" transform="translate(190.875 0)"/>
      </g>
     </g>
    </g>
    <g id="xtick_5">
     <g id="line2d_5">
      <path d="M 255.00375 263.078125 
L 255.00375 484.838125 
" clip-path="url(#p73be9bf377)" style="fill: none; stroke: #ffffff; stroke-width: 0.8; stroke-linecap: square"/>
     </g>
     <g id="text_5">
      <!-- 180° -->
      <g style="fill: #ffffff" transform="translate(242.96 501.435781) scale(0.1 -0.1)">
       <defs>
        <path id="DejaVuSans-1b" d="M 2034 2216 
Q 1584 2216 1326 1975 
Q 1069 1734 1069 1313 
Q 1069 891 1326 650 
Q 1584 409 2034 409 
Q 2484 409 2743 651 
Q 3003 894 3003 1313 
Q 3003 1734 2745 1975 
Q 2488 2216 2034 2216 
z
M 1403 2484 
Q 997 2584 770 2862 
Q 544 3141 544 3541 
Q 544 4100 942 4425 
Q 1341 4750 2034 4750 
Q 2731 4750 3128 4425 
Q 3525 4100 3525 3541 
Q 3525 3141 3298 2862 
Q 3072 2584 2669 2484 
Q 3125 2378 3379 2068 
Q 3634 1759 3634 1313 
Q 3634 634 3220 271 
Q 2806 -91 2034 -91 
Q 1263 -91 848 271 
Q 434 634 434 1313 
Q 434 1759 690 2068 
Q 947 2378 1403 2484 
z
M 1172 3481 
Q 1172 3119 1398 2916 
Q 1625 2713 2034 2713 
Q 2441 2713 2670 2916 
Q 2900 3119 2900 3481 
Q 2900 3844 2670 4047 
Q 2441 4250 2034 4250 
Q 1625 4250 1398 4047 
Q 1172 3844 1172 3481 
z
" transform="scale(0.015625)"/>
       </defs>
       <use xlink:href="#DejaVuSans-14"/>
       <use xlink:href="#DejaVuSans-1b" transform="translate(63.625 0)"/>
       <use xlink:href="#DejaVuSans-13" transform="translate(127.25 0)"/>
       <use xlink:href="#DejaVuSans-72" transform="translate(190.875 0)"/>
      </g>
     </g>
    </g>
    <g id="xtick_6">
     <g id="line2d_6">
      <path d="M 255.00375 263.078125 
L 98.19575 419.886125 
" clip-path="url(#p73be9bf377)" style="fill: none; stroke: #ffffff; stroke-width: 0.8; stroke-linecap: square"/>
     </g>
     <g id="text_6">
      <!-- 225° -->
      <g style="fill: #ffffff" transform="translate(76.252505 432.383276) scale(0.1 -0.1)">
       <defs>
        <path id="DejaVuSans-15" d="M 1228 531 
L 3431 531 
L 3431 0 
L 469 0 
L 469 531 
Q 828 903 1448 1529 
Q 2069 2156 2228 2338 
Q 2531 2678 2651 2914 
Q 2772 3150 2772 3378 
Q 2772 3750 2511 3984 
Q 2250 4219 1831 4219 
Q 1534 4219 1204 4116 
Q 875 4013 500 3803 
L 500 4441 
Q 881 4594 1212 4672 
Q 1544 4750 1819 4750 
Q 2544 4750 2975 4387 
Q 3406 4025 3406 3419 
Q 3406 3131 3298 2873 
Q 3191 2616 2906 2266 
Q 2828 2175 2409 1742 
Q 1991 1309 1228 531 
z
" transform="scale(0.015625)"/>
       </defs>
       <use xlink:href="#DejaVuSans-15"/>
       <use xlink:href="#DejaVuSans-15" transform="translate(63.625 0)"/>
       <use xlink:href="#DejaVuSans-18" transform="translate(127.25 0)"/>
       <use xlink:href="#DejaVuSans-72" transform="translate(190.875 0)"/>
      </g>
     </g>
    </g>
    <g id="xtick_7">
     <g id="line2d_7">
      <path d="M 255.00375 263.078125 
L 33.24375 263.078125 
" clip-path="url(#p73be9bf377)" style="fill: none; stroke: #ffffff; stroke-width: 0.8; stroke-linecap: square"/>
     </g>
     <g id="text_7">
      <!-- 270° -->
      <g style="fill: #ffffff" transform="translate(7.2 265.675781) scale(0.1 -0.1)">
       <defs>
        <path id="DejaVuSans-1a" d="M 525 4666 
L 3525 4666 
L 3525 4397 
L 1831 0 
L 1172 0 
L 2766 4134 
L 525 4134 
L 525 4666 
z
" transform="scale(0.015625)"/>
       </defs>
       <use xlink:href="#DejaVuSans-15"/>
       <use xlink:href="#DejaVuSans-1a" transform="translate(63.625 0)"/>
       <use xlink:href="#DejaVuSans-13" transform="translate(127.25 0)"/>
       <use xlink:href="#DejaVuSans-72" transform="translate(190.875 0)"/>
      </g>
     </g>
    </g>
    <g id="xtick_8">
     <g id="line2d_8">
      <path d="M 255.00375 263.078125 
L 98.19575 106.270125 
" clip-path="url(#p73be9bf377)" style="fill: none; stroke: #ffffff; stroke-width: 0.8; stroke-linecap: square"/>
     </g>
     <g id="text_8">
      <!-- 315° -->
      <g style="fill: #ffffff" transform="translate(76.252505 98.968287) scale(0.1 -0.1)">
       <use xlink:href="#DejaVuSans-16"/>
       <use xlink:href="#DejaVuSans-14" transform="translate(63.625 0)"/>
       <use xlink:href="#DejaVuSans-18" transform="translate(127.25 0)"/>
       <use xlink:href="#DejaVuSans-72" transform="translate(190.875 0)"/>
      </g>
     </g>
    </g>
    <g id="text_9">
     <!-- Azimuth -->
     <g style="fill: #ffffff" transform="translate(234.402188 515.436562) scale(0.1 -0.1)">
      <defs>
       <path id="DejaVuSans-24" d="M 2188 4044 
L 1331 1722 
L 3047 1722 
L 2188 4044 
z
M 1831 4666 
L 2547 4666 
L 4325 0 
L 3669 0 
L 3244 1197 
L 1141 1197 
L 716 0 
L 50 0 
L 1831 4666 
z
" transform="scale(0.015625)"/>
       <path id="DejaVuSans-5d" d="M 353 3500 
L 3084 3500 
L 3084 2975 
L 922 459 
L 3084 459 
L 3084 0 
L 275 0 
L 275 525 
L 2438 3041 
L 353 3041 
L 353 3500 
z
" transform="scale(0.015625)"/>
       <path id="DejaVuSans-4c" d="M 603 3500 
L 1178 3500 
L 1178 0 
L 603 0 
L 603 3500 
z
M 603 4863 
L 1178 4863 
L 1178 4134 
L 603 4134 
L 603 4863 
z
" transform="scale(0.015625)"/>
       <path id="DejaVuSans-50" d="M 3328 2828 
Q 3544 3216 3844 3400 
Q 4144 3584 4550 3584 
Q 5097 3584 5394 3201 
Q 5691 2819 5691 2113 
L 5691 0 
L 5113 0 
L 5113 2094 
Q 5113 2597 4934 2840 
Q 4756 3084 4391 3084 
Q 3944 3084 3684 2787 
Q 3425 2491 3425 1978 
L 3425 0 
L 2847 0 
L 2847 2094 
Q 2847 2600 2669 2842 
Q 2491 3084 2119 3084 
Q 1678 3084 1418 2786 
Q 1159 2488 1159 1978 
L 1159 0 
L 581 0 
L 581 3500 
L 1159 3500 
L 1159 2956 
Q 1356 3278 1631 3431 
Q 1906 3584 2284 3584 
Q 2666 3584 2933 3390 
Q 3200 3197 3328 2828 
z
" transform="scale(0.015625)"/>
       <path id="DejaVuSans-58" d="M 544 1381 
L 544 3500 
L 1119 3500 
L 1119 1403 
Q 1119 906 1312 657 
Q 1506 409 1894 409 
Q 2359 409 2629 706 
Q 2900 1003 2900 1516 
L 2900 3500 
L 3475 3500 
L 3475 0 
L 2900 0 
L 2900 538 
Q 2691 219 2414 64 
Q 2138 -91 1772 -91 
Q 1169 -91 856 284 
Q 544 659 544 1381 
z
M 1991 3584 
L 1991 3584 
z
" transform="scale(0.015625)"/>
       <path id="DejaVuSans-57" d="M 1172 4494 
L 1172 3500 
L 2356 3500 
L 2356 3053 
L 1172 3053 
L 1172 1153 
Q 1172 725 1289 603 
Q 1406 481 1766 481 
L 2356 481 
L 2356 0 
L 1766 0 
Q 1100 0 847 248 
Q 594 497 594 1153 
L 594 3053 
L 172 3053 
L 172 3500 
L 594 3500 
L 594 4494 
L 1172 4494 
z
" transform="scale(0.015625)"/>
       <path id="DejaVuSans-4b" d="M 3513 2113 
L 3513 0 
L 2938 0 
L 2938 2094 
Q 2938 2591 2744 2837 
Q 2550 3084 2163 3084 
Q 1697 3084 1428 2787 
Q 1159 2491 1159 1978 
L 1159 0 
L 581 0 
L 581 4863 
L 1159 4863 
L 1159 2956 
Q 1366 3272 1645 3428 
Q 1925 3584 2291 3584 
Q 2894 3584 3203 3211 
Q 3513 2838 3513 2113 
z
" transform="scale(0.015625)"/>
      </defs>
      <use xlink:href="#DejaVuSans-24"/>
      <use xlink:href="#DejaVuSans-5d" transform="translate(68.40625 0)"/>
      <use xlink:href="#DejaVuSans-4c" transform="translate(120.890625 0)"/>
      <use xlink:href="#DejaVuSans-50" transform="translate(148.671875 0)"/>
      <use xlink:href="#DejaVuSans-58" transform="translate(246.078125 0)"/>
      <use xlink:href="#DejaVuSans-57" transform="translate(309.453125 0)"/>
      <use xlink:href="#DejaVuSans-4b" transform="translate(348.65625 0)"/>
     </g>
    </g>
   </g>
   <g id="matplotlib.axis_2">
    <g id="ytick_1">
     <g id="line2d_9">
      <path d="M 255.00375 226.118125 
C 259.857293 226.118125 264.663641 227.074167 269.14773 228.931537 
C 273.631818 230.788908 277.706444 233.511485 281.138417 236.943458 
C 284.57039 240.375431 287.292967 244.450057 289.150338 248.934145 
C 291.007708 253.418234 291.96375 258.224582 291.96375 263.078125 
C 291.96375 267.931668 291.007708 272.738016 289.150338 277.222105 
C 287.292967 281.706193 284.57039 285.780819 281.138417 289.212792 
C 277.706444 292.644765 273.631818 295.367342 269.14773 297.224713 
C 264.663641 299.082083 259.857293 300.038125 255.00375 300.038125 
C 250.150207 300.038125 245.343859 299.082083 240.85977 297.224713 
C 236.375682 295.367342 232.301056 292.644765 228.869083 289.212792 
C 225.43711 285.780819 222.714533 281.706193 220.857162 277.222105 
C 218.999792 272.738016 218.04375 267.931668 218.04375 263.078125 
C 218.04375 258.224582 218.999792 253.418234 220.857162 248.934145 
C 222.714533 244.450057 225.43711 240.375431 228.869083 236.943458 
C 232.301056 233.511485 236.375682 230.788908 240.85977 228.931537 
C 245.343859 227.074167 250.150207 226.118125 255.00375 226.118125 
" clip-path="url(#p73be9bf377)" style="fill: none; stroke: #ffffff; stroke-width: 0.8; stroke-linecap: square"/>
     </g>
     <g id="text_10">
      <!-- 75° -->
      <g style="fill: #ffffff" transform="translate(269.14773 226.529194) scale(0.1 -0.1)">
       <use xlink:href="#DejaVuSans-1a"/>
       <use xlink:href="#DejaVuSans-18" transform="translate(63.625 0)"/>
       <use xlink:href="#DejaVuSans-72" transform="translate(127.25 0)"/>
      </g>
     </g>
    </g>
    <g id="ytick_2">
     <g id="line2d_10">
      <path d="M 255.00375 189.158125 
C 264.710835 189.158125 274.323532 191.070209 283.291709 194.78495 
C 292.259887 198.499691 300.409137 203.944846 307.273083 210.808792 
C 314.137029 217.672738 319.582184 225.821988 323.296925 234.790166 
C 327.011666 243.758343 328.92375 253.37104 328.92375 263.078125 
C 328.92375 272.78521 327.011666 282.397907 323.296925 291.366084 
C 319.582184 300.334262 314.137029 308.483512 307.273083 315.347458 
C 300.409137 322.211404 292.259887 327.656559 283.291709 331.3713 
C 274.323532 335.086041 264.710835 336.998125 255.00375 336.998125 
C 245.296665 336.998125 235.683968 335.086041 226.715791 331.3713 
C 217.747613 327.656559 209.598363 322.211404 202.734417 315.347458 
C 195.870471 308.483512 190.425316 300.334262 186.710575 291.366084 
C 182.995834 282.397907 181.08375 272.78521 181.08375 263.078125 
C 181.08375 253.37104 182.995834 243.758343 186.710575 234.790166 
C 190.425316 225.821988 195.870471 217.672738 202.734417 210.808792 
C 209.598363 203.944846 217.747613 198.499691 226.715791 194.78495 
C 235.683968 191.070209 245.296665 189.158125 255.00375 189.158125 
" clip-path="url(#p73be9bf377)" style="fill: none; stroke: #ffffff; stroke-width: 0.8; stroke-linecap: square"/>
     </g>
     <g id="text_11">
      <!-- 60° -->
      <g style="fill: #ffffff" transform="translate(283.291709 192.382606) scale(0.1 -0.1)">
       <defs>
        <path id="DejaVuSans-19" d="M 2113 2584 
Q 1688 2584 1439 2293 
Q 1191 2003 1191 1497 
Q 1191 994 1439 701 
Q 1688 409 2113 409 
Q 2538 409 2786 701 
Q 3034 994 3034 1497 
Q 3034 2003 2786 2293 
Q 2538 2584 2113 2584 
z
M 3366 4563 
L 3366 3988 
Q 3128 4100 2886 4159 
Q 2644 4219 2406 4219 
Q 1781 4219 1451 3797 
Q 1122 3375 1075 2522 
Q 1259 2794 1537 2939 
Q 1816 3084 2150 3084 
Q 2853 3084 3261 2657 
Q 3669 2231 3669 1497 
Q 3669 778 3244 343 
Q 2819 -91 2113 -91 
Q 1303 -91 875 529 
Q 447 1150 447 2328 
Q 447 3434 972 4092 
Q 1497 4750 2381 4750 
Q 2619 4750 2861 4703 
Q 3103 4656 3366 4563 
z
" transform="scale(0.015625)"/>
       </defs>
       <use xlink:href="#DejaVuSans-19"/>
       <use xlink:href="#DejaVuSans-13" transform="translate(63.625 0)"/>
       <use xlink:href="#DejaVuSans-72" transform="translate(127.25 0)"/>
      </g>
     </g>
    </g>
    <g id="ytick_3">
     <g id="line2d_11">
      <path d="M 255.00375 152.198125 
C 269.564378 152.198125 283.983423 155.066251 297.435689 160.638362 
C 310.887955 166.210474 323.111831 174.378206 333.40775 184.674125 
C 343.703669 194.970044 351.871401 207.19392 357.443513 220.646186 
C 363.015624 234.098452 365.88375 248.517497 365.88375 263.078125 
C 365.88375 277.638753 363.015624 292.057798 357.443513 305.510064 
C 351.871401 318.96233 343.703669 331.186206 333.40775 341.482125 
C 323.111831 351.778044 310.887955 359.945776 297.435689 365.517888 
C 283.983423 371.089999 269.564378 373.958125 255.00375 373.958125 
C 240.443122 373.958125 226.024077 371.089999 212.571811 365.517888 
C 199.119545 359.945776 186.895669 351.778044 176.59975 341.482125 
C 166.303831 331.186206 158.136099 318.96233 152.563987 305.510064 
C 146.991876 292.057798 144.12375 277.638753 144.12375 263.078125 
C 144.12375 248.517497 146.991876 234.098452 152.563987 220.646186 
C 158.136099 207.19392 166.303831 194.970044 176.59975 184.674125 
C 186.895669 174.378206 199.119545 166.210474 212.571811 160.638362 
C 226.024077 155.066251 240.443122 152.198125 255.00375 152.198125 
" clip-path="url(#p73be9bf377)" style="fill: none; stroke: #ffffff; stroke-width: 0.8; stroke-linecap: square"/>
     </g>
     <g id="text_12">
      <!-- 45° -->
      <g style="fill: #ffffff" transform="translate(297.435689 158.236019) scale(0.1 -0.1)">
       <use xlink:href="#DejaVuSans-17"/>
       <use xlink:href="#DejaVuSans-18" transform="translate(63.625 0)"/>
       <use xlink:href="#DejaVuSans-72" transform="translate(127.25 0)"/>
      </g>
     </g>
    </g>
    <g id="ytick_4">
     <g id="line2d_12">
      <path d="M 255.00375 115.238125 
C 274.417921 115.238125 293.643313 119.062293 311.579669 126.491775 
C 329.516024 133.921256 345.814525 144.811567 359.542417 158.539458 
C 373.270308 172.26735 384.160619 188.565851 391.5901 206.502206 
C 399.019582 224.438562 402.84375 243.663954 402.84375 263.078125 
C 402.84375 282.492296 399.019582 301.717688 391.5901 319.654044 
C 384.160619 337.590399 373.270308 353.8889 359.542417 367.616792 
C 345.814525 381.344683 329.516024 392.234994 311.579669 399.664475 
C 293.643313 407.093957 274.417921 410.918125 255.00375 410.918125 
C 235.589579 410.918125 216.364187 407.093957 198.427831 399.664475 
C 180.491476 392.234994 164.192975 381.344683 150.465083 367.616792 
C 136.737192 353.8889 125.846881 337.590399 118.4174 319.654044 
C 110.987918 301.717688 107.16375 282.492296 107.16375 263.078125 
C 107.16375 243.663954 110.987918 224.438562 118.4174 206.502206 
C 125.846881 188.565851 136.737192 172.26735 150.465083 158.539458 
C 164.192975 144.811567 180.491476 133.921256 198.427831 126.491775 
C 216.364187 119.062293 235.589579 115.238125 255.00375 115.238125 
" clip-path="url(#p73be9bf377)" style="fill: none; stroke: #ffffff; stroke-width: 0.8; stroke-linecap: square"/>
     </g>
     <g id="text_13">
      <!-- 30° -->
      <g style="fill: #ffffff" transform="translate(311.579669 124.089431) scale(0.1 -0.1)">
       <use xlink:href="#DejaVuSans-16"/>
       <use xlink:href="#DejaVuSans-13" transform="translate(63.625 0)"/>
       <use xlink:href="#DejaVuSans-72" transform="translate(127.25 0)"/>
      </g>
     </g>
    </g>
    <g id="ytick_5">
     <g id="line2d_13">
      <path d="M 255.00375 78.278125 
C 279.271464 78.278125 303.303204 83.058335 325.723648 92.345187 
C 348.144092 101.632039 368.517218 115.244927 385.677083 132.404792 
C 402.836948 149.564657 416.449836 169.937783 425.736688 192.358227 
C 435.02354 214.778671 439.80375 238.810411 439.80375 263.078125 
C 439.80375 287.345839 435.02354 311.377579 425.736688 333.798023 
C 416.449836 356.218467 402.836948 376.591593 385.677083 393.751458 
C 368.517218 410.911323 348.144092 424.524211 325.723648 433.811063 
C 303.303204 443.097915 279.271464 447.878125 255.00375 447.878125 
C 230.736036 447.878125 206.704296 443.097915 184.283852 433.811063 
C 161.863408 424.524211 141.490282 410.911323 124.330417 393.751458 
C 107.170552 376.591593 93.557664 356.218467 84.270812 333.798023 
C 74.98396 311.377579 70.20375 287.345839 70.20375 263.078125 
C 70.20375 238.810411 74.98396 214.778671 84.270812 192.358227 
C 93.557664 169.937783 107.170552 149.564657 124.330417 132.404792 
C 141.490282 115.244927 161.863408 101.632039 184.283852 92.345187 
C 206.704296 83.058335 230.736036 78.278125 255.00375 78.278125 
" clip-path="url(#p73be9bf377)" style="fill: none; stroke: #ffffff; stroke-width: 0.8; stroke-linecap: square"/>
     </g>
     <g id="text_14">
      <!-- 15° -->
      <g style="fill: #ffffff" transform="translate(325.723648 89.942844) scale(0.1 -0.1)">
       <use xlink:href="#DejaVuSans-14"/>
       <use xlink:href="#DejaVuSans-18" transform="translate(63.625 0)"/>
       <use xlink:href="#DejaVuSans-72" transform="translate(127.25 0)"/>
      </g>
     </g>
    </g>
    <g id="ytick_6">
     <g id="line2d_14">
      <path d="M 255.00375 41.318125 
C 284.125006 41.318125 312.963095 47.054378 339.867628 58.1986 
C 366.772161 69.342822 391.219912 85.678287 411.81175 106.270125 
C 432.403588 126.861963 448.739053 151.309714 459.883275 178.214247 
C 471.027497 205.11878 476.76375 233.956869 476.76375 263.078125 
C 476.76375 292.199381 471.027497 321.03747 459.883275 347.942003 
C 448.739053 374.846536 432.403588 399.294287 411.81175 419.886125 
C 391.219912 440.477963 366.772161 456.813428 339.867628 467.95765 
C 312.963095 479.101872 284.125006 484.838125 255.00375 484.838125 
C 225.882494 484.838125 197.044405 479.101872 170.139872 467.95765 
C 143.235339 456.813428 118.787588 440.477963 98.19575 419.886125 
C 77.603912 399.294287 61.268447 374.846536 50.124225 347.942003 
C 38.980003 321.03747 33.24375 292.199381 33.24375 263.078125 
C 33.24375 233.956869 38.980003 205.11878 50.124225 178.214247 
C 61.268447 151.309714 77.603912 126.861963 98.19575 106.270125 
C 118.787588 85.678287 143.235339 69.342822 170.139872 58.1986 
C 197.044405 47.054378 225.882494 41.318125 255.00375 41.318125 
" clip-path="url(#p73be9bf377)" style="fill: none; stroke: #ffffff; stroke-width: 0.8; stroke-linecap: square"/>
     </g>
     <g id="text_15">
      <!-- 0° -->
      <g style="fill: #ffffff" transform="translate(339.867628 55.796256) scale(0.1 -0.1)">
       <use xlink:href="#DejaVuSans-13"/>
       <use xlink:href="#DejaVuSans-72" transform="translate(63.625 0)"/>
      </g>
     </g>
    </g>
   </g>
   <g id="line2d_15">
    <path d="M 193.716222 450.428519 
L 195.607384 449.688038 
L 197.566198 448.914997 
L 199.596608 448.106528 
L 201.702767 447.259481 
L 203.889119 446.370372 
L 206.160396 445.435347 
L 208.521631 444.450141 
L 210.97815 443.410036 
L 213.535664 442.309782 
L 216.200156 441.143583 
L 218.977961 439.905001 
L 221.875742 438.586901 
L 224.900479 437.181367 
L 228.059444 435.679631 
L 231.360136 434.071998 
L 234.81033 432.347711 
L 238.417835 430.49494 
L 242.190493 428.500656 
L 246.135999 426.350569 
L 250.261715 424.029082 
L 254.574384 421.519289 
L 259.079967 418.802914 
L 263.78306 415.860516 
L 268.686579 412.671574 
L 273.791199 409.21478 
L 279.094755 405.468447 
L 284.591536 401.411108 
L 290.271778 397.022142 
L 296.120721 392.282922 
L 302.118189 387.177836 
L 308.238103 381.695638 
L 314.448301 375.830864 
L 320.710712 369.585247 
L 326.981911 362.969038 
L 333.214434 356.001728 
L 339.358062 348.712813 
L 345.362021 341.141376 
L 351.17717 333.335203 
L 356.758278 325.349128 
L 362.066028 317.24286 
L 367.068813 309.078107 
L 371.743487 300.916262 
L 376.075897 292.815617 
L 380.060552 284.829322 
L 383.699811 277.003845 
L 387.002683 269.378118 
L 389.983562 261.98296 
L 392.660657 254.841626 
L 395.05478 247.970104 
L 397.188155 241.377973 
L 399.083465 235.06932 
L 400.76309 229.043743 
L 402.248619 223.297074 
L 403.5604 217.8225 
L 404.717361 212.611107 
L 405.736894 207.652539 
L 406.634813 202.935517 
L 407.425391 198.448241 
L 408.121423 194.178749 
L 408.734341 190.115022 
L 409.274288 186.245373 
L 409.750259 182.558438 
L 410.170199 179.043301 
L 410.541121 175.68955 
L 410.869196 172.487336 
L 411.159865 169.427286 
L 411.417904 166.500655 
L 411.647513 163.699214 
L 411.852383 161.01526 
L 412.035757 158.441594 
L 412.200483 155.971515 
L 412.349067 153.598716 
L 412.483708 151.317376 
L 412.606341 149.122053 
L 412.718667 147.00768 
L 412.822182 144.969535 
" clip-path="url(#p73be9bf377)" style="fill: none; stroke: #8dd3c7; stroke-width: 2; stroke-linecap: square"/>
   </g>
   <g id="line2d_16">
    <defs>
     <path id="md3a1ebaf80" d="M 0 3 
C 0.795609 3 1.55874 2.683901 2.12132 2.12132 
C 2.683901 1.55874 3 0.795609 3 0 
C 3 -0.795609 2.683901 -1.55874 2.12132 -2.12132 
C 1.55874 -2.683901 0.795609 -3 0 -3 
C -0.795609 -3 -1.55874 -2.683901 -2.12132 -2.12132 
C -2.683901 -1.55874 -3 -0.795609 -3 0 
C -3 0.795609 -2.683901 1.55874 -2.12132 2.12132 
C -1.55874 2.683901 -0.795609 3 0 3 
z
" style="stroke: #feffb3"/>
    </defs>
    <g clip-path="url(#p73be9bf377)">
     <use xlink:href="#md3a1ebaf80" x="193.716222" y="450.428519" style="fill: #feffb3; stroke: #feffb3"/>
    </g>
   </g>
   <g id="line2d_17">
    <defs>
     <path id="m03a9c44771" d="M -3 3 
L 3 3 
L 3 -3 
L -3 -3 
z
" style="stroke: #bfbbd9; stroke-linejoin: miter"/>
    </defs>
    <g clip-path="url(#p73be9bf377)">
     <use xlink:href="#m03a9c44771" x="412.822182" y="144.969535" style="fill: #bfbbd9; stroke: #bfbbd9; stroke-linejoin: miter"/>
    </g>
   </g>
   <g id="line2d_18">
    <path d="M 266.063468 66.268498 
L 269.228196 67.525958 
L 272.478295 68.857732 
L 275.815379 70.268997 
L 279.240839 71.765217 
L 282.755715 73.352102 
L 286.360805 75.03567 
L 290.056526 76.822202 
L 293.842761 78.718168 
L 297.718963 80.730286 
L 301.684002 82.865436 
L 305.735985 85.130557 
L 309.872369 87.532675 
L 314.089792 90.078784 
L 318.383887 92.775677 
L 322.749416 95.62996 
L 327.180106 98.647869 
L 331.668487 101.835048 
L 336.206072 105.196539 
L 340.783234 108.736553 
L 345.38911 112.4582 
L 350.011857 116.363492 
L 354.638618 120.453086 
L 359.255523 124.726033 
L 363.848055 129.179825 
L 368.401121 133.810202 
L 372.899161 138.610962 
L 377.326614 143.574147 
L 381.668065 148.689969 
L 385.908429 153.946747 
L 390.033428 159.331287 
L 394.029757 164.828938 
L 397.885233 170.423688 
L 401.5892 176.098687 
L 405.132596 181.836411 
L 408.507995 187.618833 
L 411.70985 193.428007 
L 414.734414 199.246229 
L 417.579647 205.056184 
L 420.245277 210.841468 
L 422.732612 216.586664 
L 425.044338 222.277375 
L 427.184468 227.900626 
L 429.1581 233.444807 
L 430.971189 238.899586 
L 432.630457 244.25618 
L 434.143164 249.507194 
L 435.516919 254.646445 
L 436.759596 259.669142 
L 437.879169 264.571669 
L 438.883573 269.351371 
L 439.780666 274.006689 
L 440.578115 278.536931 
L 441.283325 282.942065 
L 441.903426 287.222835 
L 442.44522 291.380553 
L 442.915143 295.416914 
L 443.319282 299.334118 
L 443.663353 303.134685 
L 443.952693 306.82131 
L 444.192286 310.396982 
L 444.386762 313.864836 
L 444.540404 317.228035 
" clip-path="url(#p73be9bf377)" style="fill: none; stroke: #fa8174; stroke-width: 2; stroke-linecap: square"/>
   </g>
   <g id="line2d_19">
    <defs>
     <path id="m484af40409" d="M 0 3 
C 0.795609 3 1.55874 2.683901 2.12132 2.12132 
C 2.683901 1.55874 3 0.795609 3 0 
C 3 -0.795609 2.683901 -1.55874 2.12132 -2.12132 
C 1.55874 -2.683901 0.795609 -3 0 -3 
C -0.795609 -3 -1.55874 -2.683901 -2.12132 -2.12132 
C -2.683901 -1.55874 -3 -0.795609 -3 0 
C -3 0.795609 -2.683901 1.55874 -2.12132 2.12132 
C -1.55874 2.683901 -0.795609 3 0 3 
z
" style="stroke: #81b1d2"/>
    </defs>
    <g clip-path="url(#p73be9bf377)">
     <use xlink:href="#m484af40409" x="266.063468" y="66.268498" style="fill: #81b1d2; stroke: #81b1d2"/>
    </g>
   </g>
   <g id="line2d_20">
    <defs>
     <path id="m160a4f30ea" d="M -3 3 
L 3 3 
L 3 -3 
L -3 -3 
z
" style="stroke: #fdb462; stroke-linejoin: miter"/>
    </defs>
    <g clip-path="url(#p73be9bf377)">
     <use xlink:href="#m160a4f30ea" x="444.540404" y="317.228035" style="fill: #fdb462; stroke: #fdb462; stroke-linejoin: miter"/>
    </g>
   </g>
   <g id="line2d_21">
    <path d="M 61.133511 298.724259 
L 62.574751 303.083291 
L 64.114699 307.491109 
L 65.756237 311.943077 
L 67.501939 316.434064 
L 69.354093 320.958595 
L 71.314561 325.510659 
L 73.384793 330.083868 
L 75.565769 334.671458 
L 77.85796 339.266328 
L 80.261292 343.861086 
L 82.775117 348.448102 
L 85.398189 353.019575 
L 88.128656 357.567593 
L 90.964046 362.084207 
L 93.901279 366.561509 
L 96.936677 370.991702 
L 100.06596 375.367143 
L 103.284386 379.680559 
L 106.586637 383.924904 
L 109.966974 388.093566 
L 113.419262 392.180392 
L 116.937041 396.179735 
L 120.513585 400.086499 
L 124.141978 403.89617 
L 127.815177 407.604839 
L 131.526088 411.209216 
L 135.267628 414.706631 
L 139.032793 418.095029 
L 142.814713 421.372956 
L 146.60668 424.539511 
L 150.402311 427.594419 
L 154.195412 430.537845 
L 157.980133 433.37046 
L 161.750961 436.093372 
L 165.502743 438.708084 
" clip-path="url(#p73be9bf377)" style="fill: none; stroke: #b3de69; stroke-width: 2; stroke-linecap: square"/>
   </g>
   <g id="line2d_22">
    <defs>
     <path id="m5b0e066366" d="M 0 3 
C 0.795609 3 1.55874 2.683901 2.12132 2.12132 
C 2.683901 1.55874 3 0.795609 3 0 
C 3 -0.795609 2.683901 -1.55874 2.12132 -2.12132 
C 1.55874 -2.683901 0.795609 -3 0 -3 
C -0.795609 -3 -1.55874 -2.683901 -2.12132 -2.12132 
C -2.683901 -1.55874 -3 -0.795609 -3 0 
C -3 0.795609 -2.683901 1.55874 -2.12132 2.12132 
C -1.55874 2.683901 -0.795609 3 0 3 
z
" style="stroke: #bc82bd"/>
    </defs>
    <g clip-path="url(#p73be9bf377)">
     <use xlink:href="#m5b0e066366" x="61.133511" y="298.724259" style="fill: #bc82bd; stroke: #bc82bd"/>
    </g>
   </g>
   <g id="line2d_23">
    <defs>
     <path id="md00676bdab" d="M -3 3 
L 3 3 
L 3 -3 
L -3 -3 
z
" style="stroke: #ccebc4; stroke-linejoin: miter"/>
    </defs>
    <g clip-path="url(#p73be9bf377)">
     <use xlink:href="#md00676bdab" x="165.502743" y="438.708084" style="fill: #ccebc4; stroke: #ccebc4; stroke-linejoin: miter"/>
    </g>
   </g>
   <g id="patch_3">
    <path d="M 255.00375 41.318125 
C 225.882494 41.318125 197.044405 47.054378 170.139872 58.1986 
C 143.235339 69.342822 118.787588 85.678287 98.19575 106.270125 
C 77.603912 126.861963 61.268447 151.309714 50.124225 178.214247 
C 38.980003 205.11878 33.24375 233.956869 33.24375 263.078125 
C 33.24375 292.199381 38.980003 321.03747 50.124225 347.942003 
C 61.268447 374.846536 77.603912 399.294287 98.19575 419.886125 
C 118.787588 440.477963 143.235339 456.813428 170.139872 467.95765 
C 197.044405 479.101872 225.882494 484.838125 255.00375 484.838125 
C 284.125006 484.838125 312.963095 479.101872 339.867628 467.95765 
C 366.772161 456.813428 391.219912 440.477963 411.81175 419.886125 
C 432.403588 399.294287 448.739053 374.846536 459.883275 347.942003 
C 471.027497 321.03747 476.76375 292.199381 476.76375 263.078125 
C 476.76375 233.956869 471.027497 205.11878 459.883275 178.214247 
C 448.739053 151.309714 432.403588 126.861963 411.81175 106.270125 
C 391.219912 85.678287 366.772161 69.342822 339.867628 58.1986 
C 312.963095 47.054378 284.125006 41.318125 255.00375 41.318125 
" style="fill: none; stroke: #ffffff; stroke-width: 0.8; stroke-linejoin: miter; stroke-linecap: square"/>
   </g>
   <g id="text_16">
    <!-- Access Window Geometry -->
    <g style="fill: #ffffff" transform="translate(177.074063 16.318125) scale(0.12 -0.12)">
     <defs>
      <path id="DejaVuSans-46" d="M 3122 3366 
L 3122 2828 
Q 2878 2963 2633 3030 
Q 2388 3097 2138 3097 
Q 1578 3097 1268 2742 
Q 959 2388 959 1747 
Q 959 1106 1268 751 
Q 1578 397 2138 397 
Q 2388 397 2633 464 
Q 2878 531 3122 666 
L 3122 134 
Q 2881 22 2623 -34 
Q 2366 -91 2075 -91 
Q 1284 -91 818 406 
Q 353 903 353 1747 
Q 353 2603 823 3093 
Q 1294 3584 2113 3584 
Q 2378 3584 2631 3529 
Q 2884 3475 3122 3366 
z
" transform="scale(0.015625)"/>
      <path id="DejaVuSans-48" d="M 3597 1894 
L 3597 1613 
L 953 1613 
Q 991 1019 1311 708 
Q 1631 397 2203 397 
Q 2534 397 2845 478 
Q 3156 559 3463 722 
L 3463 178 
Q 3153 47 2828 -22 
Q 2503 -91 2169 -91 
Q 1331 -91 842 396 
Q 353 884 353 1716 
Q 353 2575 817 3079 
Q 1281 3584 2069 3584 
Q 2775 3584 3186 3129 
Q 3597 2675 3597 1894 
z
M 3022 2063 
Q 3016 2534 2758 2815 
Q 2500 3097 2075 3097 
Q 1594 3097 1305 2825 
Q 1016 2553 972 2059 
L 3022 2063 
z
" transform="scale(0.015625)"/>
      <path id="DejaVuSans-56" d="M 2834 3397 
L 2834 2853 
Q 2591 2978 2328 3040 
Q 2066 3103 1784 3103 
Q 1356 3103 1142 2972 
Q 928 2841 928 2578 
Q 928 2378 1081 2264 
Q 1234 2150 1697 2047 
L 1894 2003 
Q 2506 1872 2764 1633 
Q 3022 1394 3022 966 
Q 3022 478 2636 193 
Q 2250 -91 1575 -91 
Q 1294 -91 989 -36 
Q 684 19 347 128 
L 347 722 
Q 666 556 975 473 
Q 1284 391 1588 391 
Q 1994 391 2212 530 
Q 2431 669 2431 922 
Q 2431 1156 2273 1281 
Q 2116 1406 1581 1522 
L 1381 1569 
Q 847 1681 609 1914 
Q 372 2147 372 2553 
Q 372 3047 722 3315 
Q 1072 3584 1716 3584 
Q 2034 3584 2315 3537 
Q 2597 3491 2834 3397 
z
" transform="scale(0.015625)"/>
      <path id="DejaVuSans-3" transform="scale(0.015625)"/>
      <path id="DejaVuSans-3a" d="M 213 4666 
L 850 4666 
L 1831 722 
L 2809 4666 
L 3519 4666 
L 4500 722 
L 5478 4666 
L 6119 4666 
L 4947 0 
L 4153 0 
L 3169 4050 
L 2175 0 
L 1381 0 
L 213 4666 
z
" transform="scale(0.015625)"/>
      <path id="DejaVuSans-51" d="M 3513 2113 
L 3513 0 
L 2938 0 
L 2938 2094 
Q 2938 2591 2744 2837 
Q 2550 3084 2163 3084 
Q 1697 3084 1428 2787 
Q 1159 2491 1159 1978 
L 1159 0 
L 581 0 
L 581 3500 
L 1159 3500 
L 1159 2956 
Q 1366 3272 1645 3428 
Q 1925 3584 2291 3584 
Q 2894 3584 3203 3211 
Q 3513 2838 3513 2113 
z
" transform="scale(0.015625)"/>
      <path id="DejaVuSans-47" d="M 2906 2969 
L 2906 4863 
L 3481 4863 
L 3481 0 
L 2906 0 
L 2906 525 
Q 2725 213 2448 61 
Q 2172 -91 1784 -91 
Q 1150 -91 751 415 
Q 353 922 353 1747 
Q 353 2572 751 3078 
Q 1150 3584 1784 3584 
Q 2172 3584 2448 3432 
Q 2725 3281 2906 2969 
z
M 947 1747 
Q 947 1113 1208 752 
Q 1469 391 1925 391 
Q 2381 391 2643 752 
Q 2906 1113 2906 1747 
Q 2906 2381 2643 2742 
Q 2381 3103 1925 3103 
Q 1469 3103 1208 2742 
Q 947 2381 947 1747 
z
" transform="scale(0.015625)"/>
      <path id="DejaVuSans-52" d="M 1959 3097 
Q 1497 3097 1228 2736 
Q 959 2375 959 1747 
Q 959 1119 1226 758 
Q 1494 397 1959 397 
Q 2419 397 2687 759 
Q 2956 1122 2956 1747 
Q 2956 2369 2687 2733 
Q 2419 3097 1959 3097 
z
M 1959 3584 
Q 2709 3584 3137 3096 
Q 3566 2609 3566 1747 
Q 3566 888 3137 398 
Q 2709 -91 1959 -91 
Q 1206 -91 779 398 
Q 353 888 353 1747 
Q 353 2609 779 3096 
Q 1206 3584 1959 3584 
z
" transform="scale(0.015625)"/>
      <path id="DejaVuSans-5a" d="M 269 3500 
L 844 3500 
L 1563 769 
L 2278 3500 
L 2956 3500 
L 3675 769 
L 4391 3500 
L 4966 3500 
L 4050 0 
L 3372 0 
L 2619 2869 
L 1863 0 
L 1184 0 
L 269 3500 
z
" transform="scale(0.015625)"/>
      <path id="DejaVuSans-2a" d="M 3809 666 
L 3809 1919 
L 2778 1919 
L 2778 2438 
L 4434 2438 
L 4434 434 
Q 4069 175 3628 42 
Q 3188 -91 2688 -91 
Q 1594 -91 976 548 
Q 359 1188 359 2328 
Q 359 3472 976 4111 
Q 1594 4750 2688 4750 
Q 3144 4750 3555 4637 
Q 3966 4525 4313 4306 
L 4313 3634 
Q 3963 3931 3569 4081 
Q 3175 4231 2741 4231 
Q 1884 4231 1454 3753 
Q 1025 3275 1025 2328 
Q 1025 1384 1454 906 
Q 1884 428 2741 428 
Q 3075 428 3337 486 
Q 3600 544 3809 666 
z
" transform="scale(0.015625)"/>
      <path id="DejaVuSans-55" d="M 2631 2963 
Q 2534 3019 2420 3045 
Q 2306 3072 2169 3072 
Q 1681 3072 1420 2755 
Q 1159 2438 1159 1844 
L 1159 0 
L 581 0 
L 581 3500 
L 1159 3500 
L 1159 2956 
Q 1341 3275 1631 3429 
Q 1922 3584 2338 3584 
Q 2397 3584 2469 3576 
Q 2541 3569 2628 3553 
L 2631 2963 
z
" transform="scale(0.015625)"/>
      <path id="DejaVuSans-5c" d="M 2059 -325 
Q 1816 -950 1584 -1140 
Q 1353 -1331 966 -1331 
L 506 -1331 
L 506 -850 
L 844 -850 
Q 1081 -850 1212 -737 
Q 1344 -625 1503 -206 
L 1606 56 
L 191 3500 
L 800 3500 
L 1894 763 
L 2988 3500 
L 3597 3500 
L 2059 -325 
z
" transform="scale(0.015625)"/>
     </defs>
     <use xlink:href="#DejaVuSans-24"/>
     <use xlink:href="#DejaVuSans-46" transform="translate(66.65625 0)"/>
     <use xlink:href="#DejaVuSans-46" transform="translate(121.640625 0)"/>
     <use xlink:href="#DejaVuSans-48" transform="translate(176.625 0)"/>
     <use xlink:href="#DejaVuSans-56" transform="translate(238.15625 0)"/>
     <use xlink:href="#DejaVuSans-56" transform="translate(290.25 0)"/>
     <use xlink:href="#DejaVuSans-3" transform="translate(342.34375 0)"/>
     <use xlink:href="#DejaVuSans-3a" transform="translate(374.125 0)"/>
     <use xlink:href="#DejaVuSans-4c" transform="translate(470.796875 0)"/>
     <use xlink:href="#DejaVuSans-51" transform="translate(498.578125 0)"/>
     <use xlink:href="#DejaVuSans-47" transform="translate(561.953125 0)"/>
     <use xlink:href="#DejaVuSans-52" transform="translate(625.4375 0)"/>
     <use xlink:href="#DejaVuSans-5a" transform="translate(686.625 0)"/>
     <use xlink:href="#DejaVuSans-3" transform="translate(768.40625 0)"/>
     <use xlink:href="#DejaVuSans-2a" transform="translate(800.1875 0)"/>
     <use xlink:href="#DejaVuSans-48" transform="translate(877.671875 0)"/>
     <use xlink:href="#DejaVuSans-52" transform="translate(939.203125 0)"/>
     <use xlink:href="#DejaVuSans-50" transform="translate(1000.390625 0)"/>
     <use xlink:href="#DejaVuSans-48" transform="translate(1097.796875 0)"/>
     <use xlink:href="#DejaVuSans-57" transform="translate(1159.328125 0)"/>
     <use xlink:href="#DejaVuSans-55" transform="translate(1198.53125 0)"/>
     <use xlink:href="#DejaVuSans-5c" transform="translate(1239.640625 0)"/>
    </g>
   </g>
   <g id="legend_1">
    <g id="patch_4">
     <path d="M 393.98875 94.320469 
L 469.76375 94.320469 
Q 471.76375 94.320469 471.76375 92.320469 
L 471.76375 48.318125 
Q 471.76375 46.318125 469.76375 46.318125 
L 393.98875 46.318125 
Q 391.98875 46.318125 391.98875 48.318125 
L 391.98875 92.320469 
Q 391.98875 94.320469 393.98875 94.320469 
z
" style="opacity: 0.8; stroke: #cccccc; stroke-linejoin: miter"/>
    </g>
    <g id="line2d_24">
     <path d="M 395.98875 54.416562 
L 405.98875 54.416562 
L 415.98875 54.416562 
" style="fill: none; stroke: #8dd3c7; stroke-width: 2; stroke-linecap: square"/>
    </g>
    <g id="text_17">
     <!-- Access 1 -->
     <g style="fill: #ffffff" transform="translate(423.98875 57.916562) scale(0.1 -0.1)">
      <use xlink:href="#DejaVuSans-24"/>
      <use xlink:href="#DejaVuSans-46" transform="translate(66.65625 0)"/>
      <use xlink:href="#DejaVuSans-46" transform="translate(121.640625 0)"/>
      <use xlink:href="#DejaVuSans-48" transform="translate(176.625 0)"/>
      <use xlink:href="#DejaVuSans-56" transform="translate(238.15625 0)"/>
      <use xlink:href="#DejaVuSans-56" transform="translate(290.25 0)"/>
      <use xlink:href="#DejaVuSans-3" transform="translate(342.34375 0)"/>
      <use xlink:href="#DejaVuSans-14" transform="translate(374.125 0)"/>
     </g>
    </g>
    <g id="line2d_25">
     <path d="M 395.98875 69.417344 
L 405.98875 69.417344 
L 415.98875 69.417344 
" style="fill: none; stroke: #fa8174; stroke-width: 2; stroke-linecap: square"/>
    </g>
    <g id="text_18">
     <!-- Access 2 -->
     <g style="fill: #ffffff" transform="translate(423.98875 72.917344) scale(0.1 -0.1)">
      <use xlink:href="#DejaVuSans-24"/>
      <use xlink:href="#DejaVuSans-46" transform="translate(66.65625 0)"/>
      <use xlink:href="#DejaVuSans-46" transform="translate(121.640625 0)"/>
      <use xlink:href="#DejaVuSans-48" transform="translate(176.625 0)"/>
      <use xlink:href="#DejaVuSans-56" transform="translate(238.15625 0)"/>
      <use xlink:href="#DejaVuSans-56" transform="translate(290.25 0)"/>
      <use xlink:href="#DejaVuSans-3" transform="translate(342.34375 0)"/>
      <use xlink:href="#DejaVuSans-15" transform="translate(374.125 0)"/>
     </g>
    </g>
    <g id="line2d_26">
     <path d="M 395.98875 84.418125 
L 405.98875 84.418125 
L 415.98875 84.418125 
" style="fill: none; stroke: #b3de69; stroke-width: 2; stroke-linecap: square"/>
    </g>
    <g id="text_19">
     <!-- Access 3 -->
     <g style="fill: #ffffff" transform="translate(423.98875 87.918125) scale(0.1 -0.1)">
      <use xlink:href="#DejaVuSans-24"/>
      <use xlink:href="#DejaVuSans-46" transform="translate(66.65625 0)"/>
      <use xlink:href="#DejaVuSans-46" transform="translate(121.640625 0)"/>
      <use xlink:href="#DejaVuSans-48" transform="translate(176.625 0)"/>
      <use xlink:href="#DejaVuSans-56" transform="translate(238.15625 0)"/>
      <use xlink:href="#DejaVuSans-56" transform="translate(290.25 0)"/>
      <use xlink:href="#DejaVuSans-3" transform="translate(342.34375 0)"/>
      <use xlink:href="#DejaVuSans-16" transform="translate(374.125 0)"/>
     </g>
    </g>
   </g>
  </g>
 </g>
 <defs>
  <clipPath id="p73be9bf377">
   <path d="M 476.76375 263.078125 
C 476.76375 233.956869 471.027497 205.11878 459.883275 178.214247 
C 448.739053 151.309714 432.403588 126.861963 411.81175 106.270125 
C 391.219912 85.678287 366.772161 69.342822 339.867628 58.1986 
C 312.963095 47.054378 284.125006 41.318125 255.00375 41.318125 
C 225.882494 41.318125 197.044405 47.054378 170.139872 58.1986 
C 143.235339 69.342822 118.787588 85.678287 98.19575 106.270125 
C 77.603912 126.861963 61.268447 151.309714 50.124225 178.214247 
C 38.980003 205.11878 33.24375 233.956869 33.24375 263.078125 
C 33.24375 292.199381 38.980003 321.03747 50.124225 347.942003 
C 61.268447 374.846536 77.603912 399.294287 98.19575 419.886125 
C 118.787588 440.477963 143.235339 456.813428 170.139872 467.95765 
C 197.044405 479.101872 225.882494 484.838125 255.00375 484.838125 
C 284.125006 484.838125 312.963095 479.101872 339.867628 467.95765 
C 366.772161 456.813428 391.219912 440.477963 411.81175 419.886125 
C 432.403588 399.294287 448.739053 374.846536 459.883275 347.942003 
C 471.027497 321.03747 476.76375 292.199381 476.76375 263.078125 
M 255.00375 263.078125 
C 255.00375 263.078125 255.00375 263.078125 255.00375 263.078125 
C 255.00375 263.078125 255.00375 263.078125 255.00375 263.078125 
C 255.00375 263.078125 255.00375 263.078125 255.00375 263.078125 
C 255.00375 263.078125 255.00375 263.078125 255.00375 263.078125 
C 255.00375 263.078125 255.00375 263.078125 255.00375 263.078125 
C 255.00375 263.078125 255.00375 263.078125 255.00375 263.078125 
C 255.00375 263.078125 255.00375 263.078125 255.00375 263.078125 
C 255.00375 263.078125 255.00375 263.078125 255.00375 263.078125 
C 255.00375 263.078125 255.00375 263.078125 255.00375 263.078125 
C 255.00375 263.078125 255.00375 263.078125 255.00375 263.078125 
C 255.00375 263.078125 255.00375 263.078125 255.00375 263.078125 
C 255.00375 263.078125 255.00375 263.078125 255.00375 263.078125 
C 255.00375 263.078125 255.00375 263.078125 255.00375 263.078125 
C 255.00375 263.078125 255.00375 263.078125 255.00375 263.078125 
C 255.00375 263.078125 255.00375 263.078125 255.00375 263.078125 
C 255.00375 263.078125 255.00375 263.078125 255.00375 263.078125 
z
"/>
  </clipPath>
 </defs>
</svg>
