<?xml version="1.0" encoding="utf-8" standalone="no"?>
<!DOCTYPE svg PUBLIC "-//W3C//DTD SVG 1.1//EN"
  "http://www.w3.org/Graphics/SVG/1.1/DTD/svg11.dtd">
<svg xmlns:xlink="http://www.w3.org/1999/xlink" width="488.445pt" height="504.4995pt" viewBox="0 0 488.445 504.4995" xmlns="http://www.w3.org/2000/svg" version="1.1">
 <metadata>
  <rdf:RDF xmlns:dc="http://purl.org/dc/elements/1.1/" xmlns:cc="http://creativecommons.org/ns#" xmlns:rdf="http://www.w3.org/1999/02/22-rdf-syntax-ns#">
   <cc:Work>
    <dc:type rdf:resource="http://purl.org/dc/dcmitype/StillImage"/>
    <dc:date>2026-04-15T04:12:59.197634</dc:date>
    <dc:format>image/svg+xml</dc:format>
    <dc:creator>
     <cc:Agent>
      <dc:title>Matplotlib v3.10.8, https://matplotlib.org/</dc:title>
     </cc:Agent>
    </dc:creator>
   </cc:Work>
  </rdf:RDF>
 </metadata>
 <defs>
  <style type="text/css">*{stroke-linejoin: round; stroke-linecap: butt}</style>
 </defs>
 <g id="figure_1">
  <g id="patch_1">
   <path d="M 0 504.4995 
L 488.445 504.4995 
L 488.445 0 
L 0 0 
z
" style="fill: #ffffff"/>
  </g>
  <g id="axes_1">
   <g id="patch_2">
    <path d="M 467.255 253.02575 
C 467.255 223.904494 461.518747 195.066405 450.374525 168.161872 
C 439.230303 141.257339 422.894838 116.809588 402.303 96.21775 
C 381.711162 75.625912 357.263411 59.290447 330.358878 48.146225 
C 303.454345 37.002003 274.616256 31.26575 245.495 31.26575 
C 216.373744 31.26575 187.535655 37.002003 160.631122 48.146225 
C 133.726589 59.290447 109.278838 75.625912 88.687 96.21775 
C 68.095162 116.809588 51.759697 141.257339 40.615475 168.161872 
C 29.471253 195.066405 23.735 223.904494 23.735 253.02575 
C 23.735 282.147006 29.471253 310.985095 40.615475 337.889628 
C 51.759697 364.794161 68.095162 389.241912 88.687 409.83375 
C 109.278838 430.425588 133.726589 446.761053 160.631122 457.905275 
C 187.535655 469.049497 216.373744 474.78575 245.495 474.78575 
C 274.616256 474.78575 303.454345 469.049497 330.358878 457.905275 
C 357.263411 446.761053 381.711162 430.425588 402.303 409.83375 
C 422.894838 389.241912 439.230303 364.794161 450.374525 337.889628 
C 461.518747 310.985095 467.255 282.147006 467.255 253.02575 
M 245.495 253.02575 
C 245.495 253.02575 245.495 253.02575 245.495 253.02575 
C 245.495 253.02575 245.495 253.02575 245.495 253.02575 
C 245.495 253.02575 245.495 253.02575 245.495 253.02575 
C 245.495 253.02575 245.495 253.02575 245.495 253.02575 
C 245.495 253.02575 245.495 253.02575 245.495 253.02575 
C 245.495 253.02575 245.495 253.02575 245.495 253.02575 
C 245.495 253.02575 245.495 253.02575 245.495 253.02575 
C 245.495 253.02575 245.495 253.02575 245.495 253.02575 
C 245.495 253.02575 245.495 253.02575 245.495 253.02575 
C 245.495 253.02575 245.495 253.02575 245.495 253.02575 
C 245.495 253.02575 245.495 253.02575 245.495 253.02575 
C 245.495 253.02575 245.495 253.02575 245.495 253.02575 
C 245.495 253.02575 245.495 253.02575 245.495 253.02575 
C 245.495 253.02575 245.495 253.02575 245.495 253.02575 
C 245.495 253.02575 245.495 253.02575 245.495 253.02575 
C 245.495 253.02575 245.495 253.02575 245.495 253.02575 
z
" style="fill: #ffffff"/>
   </g>
   <g id="matplotlib.axis_1">
    <g id="xtick_1">
     <g id="line2d_1">
      <path d="M 245.495 253.02575 
L 245.495 31.26575 
" clip-path="url(#pef28a0c7e5)" style="fill: none; stroke: #b0b0b0; stroke-width: 0.5; stroke-linecap: square"/>
     </g>
     <g id="text_1">
      <!-- 0° -->
      <g transform="translate(240.95 22.97325) scale(0.08 -0.08)">
       <defs>
        <path id="DejaVuSans-30" d="M 2034 4250 
Q 1547 4250 1301 3770 
Q 1056 3291 1056 2328 
Q 1056 1369 1301 889 
Q 1547 409 2034 409 
Q 2525 409 2770 889 
Q 3016 1369 3016 2328 
Q 3016 3291 2770 3770 
Q 2525 4250 2034 4250 
z
M 2034 4750 
Q 2819 4750 3233 4129 
Q 3647 3509 3647 2328 
Q 3647 1150 3233 529 
Q 2819 -91 2034 -91 
Q 1250 -91 836 529 
Q 422 1150 422 2328 
Q 422 3509 836 4129 
Q 1250 4750 2034 4750 
z
" transform="scale(0.015625)"/>
        <path id="DejaVuSans-b0" d="M 1600 4347 
Q 1350 4347 1178 4173 
Q 1006 4000 1006 3750 
Q 1006 3503 1178 3333 
Q 1350 3163 1600 3163 
Q 1850 3163 2022 3333 
Q 2194 3503 2194 3750 
Q 2194 3997 2020 4172 
Q 1847 4347 1600 4347 
z
M 1600 4750 
Q 1800 4750 1984 4673 
Q 2169 4597 2303 4453 
Q 2447 4313 2519 4134 
Q 2591 3956 2591 3750 
Q 2591 3338 2302 3052 
Q 2013 2766 1594 2766 
Q 1172 2766 890 3047 
Q 609 3328 609 3750 
Q 609 4169 896 4459 
Q 1184 4750 1600 4750 
z
" transform="scale(0.015625)"/>
       </defs>
       <use xlink:href="#DejaVuSans-30"/>
       <use xlink:href="#DejaVuSans-b0" transform="translate(63.623047 0)"/>
      </g>
     </g>
    </g>
    <g id="xtick_2">
     <g id="line2d_2">
      <path d="M 245.495 253.02575 
L 402.303 96.21775 
" clip-path="url(#pef28a0c7e5)" style="fill: none; stroke: #b0b0b0; stroke-width: 0.5; stroke-linecap: square"/>
     </g>
     <g id="text_2">
      <!-- 45° -->
      <g transform="translate(402.637621 91.000629) scale(0.08 -0.08)">
       <defs>
        <path id="DejaVuSans-34" d="M 2419 4116 
L 825 1625 
L 2419 1625 
L 2419 4116 
z
M 2253 4666 
L 3047 4666 
L 3047 1625 
L 3713 1625 
L 3713 1100 
L 3047 1100 
L 3047 0 
L 2419 0 
L 2419 1100 
L 313 1100 
L 313 1709 
L 2253 4666 
z
" transform="scale(0.015625)"/>
        <path id="DejaVuSans-35" d="M 691 4666 
L 3169 4666 
L 3169 4134 
L 1269 4134 
L 1269 2991 
Q 1406 3038 1543 3061 
Q 1681 3084 1819 3084 
Q 2600 3084 3056 2656 
Q 3513 2228 3513 1497 
Q 3513 744 3044 326 
Q 2575 -91 1722 -91 
Q 1428 -91 1123 -41 
Q 819 9 494 109 
L 494 744 
Q 775 591 1075 516 
Q 1375 441 1709 441 
Q 2250 441 2565 725 
Q 2881 1009 2881 1497 
Q 2881 1984 2565 2268 
Q 2250 2553 1709 2553 
Q 1456 2553 1204 2497 
Q 953 2441 691 2322 
L 691 4666 
z
" transform="scale(0.015625)"/>
       </defs>
       <use xlink:href="#DejaVuSans-34"/>
       <use xlink:href="#DejaVuSans-35" transform="translate(63.623047 0)"/>
       <use xlink:href="#DejaVuSans-b0" transform="translate(127.246094 0)"/>
      </g>
     </g>
    </g>
    <g id="xtick_3">
     <g id="line2d_3">
      <path d="M 245.495 253.02575 
L 467.255 253.02575 
" clip-path="url(#pef28a0c7e5)" style="fill: none; stroke: #b0b0b0; stroke-width: 0.5; stroke-linecap: square"/>
     </g>
     <g id="text_3">
      <!-- 90° -->
      <g transform="translate(470.665 255.23325) scale(0.08 -0.08)">
       <defs>
        <path id="DejaVuSans-39" d="M 703 97 
L 703 672 
Q 941 559 1184 500 
Q 1428 441 1663 441 
Q 2288 441 2617 861 
Q 2947 1281 2994 2138 
Q 2813 1869 2534 1725 
Q 2256 1581 1919 1581 
Q 1219 1581 811 2004 
Q 403 2428 403 3163 
Q 403 3881 828 4315 
Q 1253 4750 1959 4750 
Q 2769 4750 3195 4129 
Q 3622 3509 3622 2328 
Q 3622 1225 3098 567 
Q 2575 -91 1691 -91 
Q 1453 -91 1209 -44 
Q 966 3 703 97 
z
M 1959 2075 
Q 2384 2075 2632 2365 
Q 2881 2656 2881 3163 
Q 2881 3666 2632 3958 
Q 2384 4250 1959 4250 
Q 1534 4250 1286 3958 
Q 1038 3666 1038 3163 
Q 1038 2656 1286 2365 
Q 1534 2075 1959 2075 
z
" transform="scale(0.015625)"/>
       </defs>
       <use xlink:href="#DejaVuSans-39"/>
       <use xlink:href="#DejaVuSans-30" transform="translate(63.623047 0)"/>
       <use xlink:href="#DejaVuSans-b0" transform="translate(127.246094 0)"/>
      </g>
     </g>
    </g>
    <g id="xtick_4">
     <g id="line2d_4">
      <path d="M 245.495 253.02575 
L 402.303 409.83375 
" clip-path="url(#pef28a0c7e5)" style="fill: none; stroke: #b0b0b0; stroke-width: 0.5; stroke-linecap: square"/>
     </g>
     <g id="text_4">
      <!-- 135° -->
      <g transform="translate(400.092621 419.465871) scale(0.08 -0.08)">
       <defs>
        <path id="DejaVuSans-31" d="M 794 531 
L 1825 531 
L 1825 4091 
L 703 3866 
L 703 4441 
L 1819 4666 
L 2450 4666 
L 2450 531 
L 3481 531 
L 3481 0 
L 794 0 
L 794 531 
z
" transform="scale(0.015625)"/>
        <path id="DejaVuSans-33" d="M 2597 2516 
Q 3050 2419 3304 2112 
Q 3559 1806 3559 1356 
Q 3559 666 3084 287 
Q 2609 -91 1734 -91 
Q 1441 -91 1130 -33 
Q 819 25 488 141 
L 488 750 
Q 750 597 1062 519 
Q 1375 441 1716 441 
Q 2309 441 2620 675 
Q 2931 909 2931 1356 
Q 2931 1769 2642 2001 
Q 2353 2234 1838 2234 
L 1294 2234 
L 1294 2753 
L 1863 2753 
Q 2328 2753 2575 2939 
Q 2822 3125 2822 3475 
Q 2822 3834 2567 4026 
Q 2313 4219 1838 4219 
Q 1578 4219 1281 4162 
Q 984 4106 628 3988 
L 628 4550 
Q 988 4650 1302 4700 
Q 1616 4750 1894 4750 
Q 2613 4750 3031 4423 
Q 3450 4097 3450 3541 
Q 3450 3153 3228 2886 
Q 3006 2619 2597 2516 
z
" transform="scale(0.015625)"/>
       </defs>
       <use xlink:href="#DejaVuSans-31"/>
       <use xlink:href="#DejaVuSans-33" transform="translate(63.623047 0)"/>
       <use xlink:href="#DejaVuSans-35" transform="translate(127.246094 0)"/>
       <use xlink:href="#DejaVuSans-b0" transform="translate(190.869141 0)"/>
      </g>
     </g>
    </g>
    <g id="xtick_5">
     <g id="line2d_5">
      <path d="M 245.495 253.02575 
L 245.495 474.78575 
" clip-path="url(#pef28a0c7e5)" style="fill: none; stroke: #b0b0b0; stroke-width: 0.5; stroke-linecap: square"/>
     </g>
     <g id="text_5">
      <!-- 180° -->
      <g transform="translate(235.86 487.49325) scale(0.08 -0.08)">
       <defs>
        <path id="DejaVuSans-38" d="M 2034 2216 
Q 1584 2216 1326 1975 
Q 1069 1734 1069 1313 
Q 1069 891 1326 650 
Q 1584 409 2034 409 
Q 2484 409 2743 651 
Q 3003 894 3003 1313 
Q 3003 1734 2745 1975 
Q 2488 2216 2034 2216 
z
M 1403 2484 
Q 997 2584 770 2862 
Q 544 3141 544 3541 
Q 544 4100 942 4425 
Q 1341 4750 2034 4750 
Q 2731 4750 3128 4425 
Q 3525 4100 3525 3541 
Q 3525 3141 3298 2862 
Q 3072 2584 2669 2484 
Q 3125 2378 3379 2068 
Q 3634 1759 3634 1313 
Q 3634 634 3220 271 
Q 2806 -91 2034 -91 
Q 1263 -91 848 271 
Q 434 634 434 1313 
Q 434 1759 690 2068 
Q 947 2378 1403 2484 
z
M 1172 3481 
Q 1172 3119 1398 2916 
Q 1625 2713 2034 2713 
Q 2441 2713 2670 2916 
Q 2900 3119 2900 3481 
Q 2900 3844 2670 4047 
Q 2441 4250 2034 4250 
Q 1625 4250 1398 4047 
Q 1172 3844 1172 3481 
z
" transform="scale(0.015625)"/>
       </defs>
       <use xlink:href="#DejaVuSans-31"/>
       <use xlink:href="#DejaVuSans-38" transform="translate(63.623047 0)"/>
       <use xlink:href="#DejaVuSans-30" transform="translate(127.246094 0)"/>
       <use xlink:href="#DejaVuSans-b0" transform="translate(190.869141 0)"/>
      </g>
     </g>
    </g>
    <g id="xtick_6">
     <g id="line2d_6">
      <path d="M 245.495 253.02575 
L 88.687 409.83375 
" clip-path="url(#pef28a0c7e5)" style="fill: none; stroke: #b0b0b0; stroke-width: 0.5; stroke-linecap: square"/>
     </g>
     <g id="text_6">
      <!-- 225° -->
      <g transform="translate(71.627379 419.465871) scale(0.08 -0.08)">
       <defs>
        <path id="DejaVuSans-32" d="M 1228 531 
L 3431 531 
L 3431 0 
L 469 0 
L 469 531 
Q 828 903 1448 1529 
Q 2069 2156 2228 2338 
Q 2531 2678 2651 2914 
Q 2772 3150 2772 3378 
Q 2772 3750 2511 3984 
Q 2250 4219 1831 4219 
Q 1534 4219 1204 4116 
Q 875 4013 500 3803 
L 500 4441 
Q 881 4594 1212 4672 
Q 1544 4750 1819 4750 
Q 2544 4750 2975 4387 
Q 3406 4025 3406 3419 
Q 3406 3131 3298 2873 
Q 3191 2616 2906 2266 
Q 2828 2175 2409 1742 
Q 1991 1309 1228 531 
z
" transform="scale(0.015625)"/>
       </defs>
       <use xlink:href="#DejaVuSans-32"/>
       <use xlink:href="#DejaVuSans-32" transform="translate(63.623047 0)"/>
       <use xlink:href="#DejaVuSans-35" transform="translate(127.246094 0)"/>
       <use xlink:href="#DejaVuSans-b0" transform="translate(190.869141 0)"/>
      </g>
     </g>
    </g>
    <g id="xtick_7">
     <g id="line2d_7">
      <path d="M 245.495 253.02575 
L 23.735 253.02575 
" clip-path="url(#pef28a0c7e5)" style="fill: none; stroke: #b0b0b0; stroke-width: 0.5; stroke-linecap: square"/>
     </g>
     <g id="text_7">
      <!-- 270° -->
      <g transform="translate(3.6 255.23325) scale(0.08 -0.08)">
       <defs>
        <path id="DejaVuSans-37" d="M 525 4666 
L 3525 4666 
L 3525 4397 
L 1831 0 
L 1172 0 
L 2766 4134 
L 525 4134 
L 525 4666 
z
" transform="scale(0.015625)"/>
       </defs>
       <use xlink:href="#DejaVuSans-32"/>
       <use xlink:href="#DejaVuSans-37" transform="translate(63.623047 0)"/>
       <use xlink:href="#DejaVuSans-30" transform="translate(127.246094 0)"/>
       <use xlink:href="#DejaVuSans-b0" transform="translate(190.869141 0)"/>
      </g>
     </g>
    </g>
    <g id="xtick_8">
     <g id="line2d_8">
      <path d="M 245.495 253.02575 
L 88.687 96.21775 
" clip-path="url(#pef28a0c7e5)" style="fill: none; stroke: #b0b0b0; stroke-width: 0.5; stroke-linecap: square"/>
     </g>
     <g id="text_8">
      <!-- 315° -->
      <g transform="translate(71.627379 91.000629) scale(0.08 -0.08)">
       <use xlink:href="#DejaVuSans-33"/>
       <use xlink:href="#DejaVuSans-31" transform="translate(63.623047 0)"/>
       <use xlink:href="#DejaVuSans-35" transform="translate(127.246094 0)"/>
       <use xlink:href="#DejaVuSans-b0" transform="translate(190.869141 0)"/>
      </g>
     </g>
    </g>
    <g id="text_9">
     <!-- Azimuth -->
     <g transform="translate(229.01375 499.23575) scale(0.08 -0.08)">
      <defs>
       <path id="DejaVuSans-41" d="M 2188 4044 
L 1331 1722 
L 3047 1722 
L 2188 4044 
z
M 1831 4666 
L 2547 4666 
L 4325 0 
L 3669 0 
L 3244 1197 
L 1141 1197 
L 716 0 
L 50 0 
L 1831 4666 
z
" transform="scale(0.015625)"/>
       <path id="DejaVuSans-7a" d="M 353 3500 
L 3084 3500 
L 3084 2975 
L 922 459 
L 3084 459 
L 3084 0 
L 275 0 
L 275 525 
L 2438 3041 
L 353 3041 
L 353 3500 
z
" transform="scale(0.015625)"/>
       <path id="DejaVuSans-69" d="M 603 3500 
L 1178 3500 
L 1178 0 
L 603 0 
L 603 3500 
z
M 603 4863 
L 1178 4863 
L 1178 4134 
L 603 4134 
L 603 4863 
z
" transform="scale(0.015625)"/>
       <path id="DejaVuSans-6d" d="M 3328 2828 
Q 3544 3216 3844 3400 
Q 4144 3584 4550 3584 
Q 5097 3584 5394 3201 
Q 5691 2819 5691 2113 
L 5691 0 
L 5113 0 
L 5113 2094 
Q 5113 2597 4934 2840 
Q 4756 3084 4391 3084 
Q 3944 3084 3684 2787 
Q 3425 2491 3425 1978 
L 3425 0 
L 2847 0 
L 2847 2094 
Q 2847 2600 2669 2842 
Q 2491 3084 2119 3084 
Q 1678 3084 1418 2786 
Q 1159 2488 1159 1978 
L 1159 0 
L 581 0 
L 581 3500 
L 1159 3500 
L 1159 2956 
Q 1356 3278 1631 3431 
Q 1906 3584 2284 3584 
Q 2666 3584 2933 3390 
Q 3200 3197 3328 2828 
z
" transform="scale(0.015625)"/>
       <path id="DejaVuSans-75" d="M 544 1381 
L 544 3500 
L 1119 3500 
L 1119 1403 
Q 1119 906 1312 657 
Q 1506 409 1894 409 
Q 2359 409 2629 706 
Q 2900 1003 2900 1516 
L 2900 3500 
L 3475 3500 
L 3475 0 
L 2900 0 
L 2900 538 
Q 2691 219 2414 64 
Q 2138 -91 1772 -91 
Q 1169 -91 856 284 
Q 544 659 544 1381 
z
M 1991 3584 
L 1991 3584 
z
" transform="scale(0.015625)"/>
       <path id="DejaVuSans-74" d="M 1172 4494 
L 1172 3500 
L 2356 3500 
L 2356 3053 
L 1172 3053 
L 1172 1153 
Q 1172 725 1289 603 
Q 1406 481 1766 481 
L 2356 481 
L 2356 0 
L 1766 0 
Q 1100 0 847 248 
Q 594 497 594 1153 
L 594 3053 
L 172 3053 
L 172 3500 
L 594 3500 
L 594 4494 
L 1172 4494 
z
" transform="scale(0.015625)"/>
       <path id="DejaVuSans-68" d="M 3513 2113 
L 3513 0 
L 2938 0 
L 2938 2094 
Q 2938 2591 2744 2837 
Q 2550 3084 2163 3084 
Q 1697 3084 1428 2787 
Q 1159 2491 1159 1978 
L 1159 0 
L 581 0 
L 581 4863 
L 1159 4863 
L 1159 2956 
Q 1366 3272 1645 3428 
Q 1925 3584 2291 3584 
Q 2894 3584 3203 3211 
Q 3513 2838 3513 2113 
z
" transform="scale(0.015625)"/>
      </defs>
      <use xlink:href="#DejaVuSans-41"/>
      <use xlink:href="#DejaVuSans-7a" transform="translate(68.408203 0)"/>
      <use xlink:href="#DejaVuSans-69" transform="translate(120.898438 0)"/>
      <use xlink:href="#DejaVuSans-6d" transform="translate(148.681641 0)"/>
      <use xlink:href="#DejaVuSans-75" transform="translate(246.09375 0)"/>
      <use xlink:href="#DejaVuSans-74" transform="translate(309.472656 0)"/>
      <use xlink:href="#DejaVuSans-68" transform="translate(348.681641 0)"/>
     </g>
    </g>
   </g>
   <g id="matplotlib.axis_2">
    <g id="ytick_1">
     <g id="line2d_9">
      <path d="M 245.495 216.06575 
C 250.348543 216.06575 255.154891 217.021792 259.63898 218.879162 
C 264.123068 220.736533 268.197694 223.45911 271.629667 226.891083 
C 275.06164 230.323056 277.784217 234.397682 279.641588 238.88177 
C 281.498958 243.365859 282.455 248.172207 282.455 253.02575 
C 282.455 257.879293 281.498958 262.685641 279.641588 267.16973 
C 277.784217 271.653818 275.06164 275.728444 271.629667 279.160417 
C 268.197694 282.59239 264.123068 285.314967 259.63898 287.172338 
C 255.154891 289.029708 250.348543 289.98575 245.495 289.98575 
C 240.641457 289.98575 235.835109 289.029708 231.35102 287.172338 
C 226.866932 285.314967 222.792306 282.59239 219.360333 279.160417 
C 215.92836 275.728444 213.205783 271.653818 211.348412 267.16973 
C 209.491042 262.685641 208.535 257.879293 208.535 253.02575 
C 208.535 248.172207 209.491042 243.365859 211.348412 238.88177 
C 213.205783 234.397682 215.92836 230.323056 219.360333 226.891083 
C 222.792306 223.45911 226.866932 220.736533 231.35102 218.879162 
C 235.835109 217.021792 240.641457 216.06575 245.495 216.06575 
" clip-path="url(#pef28a0c7e5)" style="fill: none; stroke: #b0b0b0; stroke-width: 0.5; stroke-linecap: square"/>
     </g>
     <g id="text_10">
      <!-- 75° -->
      <g transform="translate(259.63898 217.215412) scale(0.08 -0.08)">
       <use xlink:href="#DejaVuSans-37"/>
       <use xlink:href="#DejaVuSans-35" transform="translate(63.623047 0)"/>
       <use xlink:href="#DejaVuSans-b0" transform="translate(127.246094 0)"/>
      </g>
     </g>
    </g>
    <g id="ytick_2">
     <g id="line2d_10">
      <path d="M 245.495 179.10575 
C 255.202085 179.10575 264.814782 181.017834 273.782959 184.732575 
C 282.751137 188.447316 290.900387 193.892471 297.764333 200.756417 
C 304.628279 207.620363 310.073434 215.769613 313.788175 224.737791 
C 317.502916 233.705968 319.415 243.318665 319.415 253.02575 
C 319.415 262.732835 317.502916 272.345532 313.788175 281.313709 
C 310.073434 290.281887 304.628279 298.431137 297.764333 305.295083 
C 290.900387 312.159029 282.751137 317.604184 273.782959 321.318925 
C 264.814782 325.033666 255.202085 326.94575 245.495 326.94575 
C 235.787915 326.94575 226.175218 325.033666 217.207041 321.318925 
C 208.238863 317.604184 200.089613 312.159029 193.225667 305.295083 
C 186.361721 298.431137 180.916566 290.281887 177.201825 281.313709 
C 173.487084 272.345532 171.575 262.732835 171.575 253.02575 
C 171.575 243.318665 173.487084 233.705968 177.201825 224.737791 
C 180.916566 215.769613 186.361721 207.620363 193.225667 200.756417 
C 200.089613 193.892471 208.238863 188.447316 217.207041 184.732575 
C 226.175218 181.017834 235.787915 179.10575 245.495 179.10575 
" clip-path="url(#pef28a0c7e5)" style="fill: none; stroke: #b0b0b0; stroke-width: 0.5; stroke-linecap: square"/>
     </g>
     <g id="text_11">
      <!-- 60° -->
      <g transform="translate(273.782959 183.068825) scale(0.08 -0.08)">
       <defs>
        <path id="DejaVuSans-36" d="M 2113 2584 
Q 1688 2584 1439 2293 
Q 1191 2003 1191 1497 
Q 1191 994 1439 701 
Q 1688 409 2113 409 
Q 2538 409 2786 701 
Q 3034 994 3034 1497 
Q 3034 2003 2786 2293 
Q 2538 2584 2113 2584 
z
M 3366 4563 
L 3366 3988 
Q 3128 4100 2886 4159 
Q 2644 4219 2406 4219 
Q 1781 4219 1451 3797 
Q 1122 3375 1075 2522 
Q 1259 2794 1537 2939 
Q 1816 3084 2150 3084 
Q 2853 3084 3261 2657 
Q 3669 2231 3669 1497 
Q 3669 778 3244 343 
Q 2819 -91 2113 -91 
Q 1303 -91 875 529 
Q 447 1150 447 2328 
Q 447 3434 972 4092 
Q 1497 4750 2381 4750 
Q 2619 4750 2861 4703 
Q 3103 4656 3366 4563 
z
" transform="scale(0.015625)"/>
       </defs>
       <use xlink:href="#DejaVuSans-36"/>
       <use xlink:href="#DejaVuSans-30" transform="translate(63.623047 0)"/>
       <use xlink:href="#DejaVuSans-b0" transform="translate(127.246094 0)"/>
      </g>
     </g>
    </g>
    <g id="ytick_3">
     <g id="line2d_11">
      <path d="M 245.495 142.14575 
C 260.055628 142.14575 274.474673 145.013876 287.926939 150.585987 
C 301.379205 156.158099 313.603081 164.325831 323.899 174.62175 
C 334.194919 184.917669 342.362651 197.141545 347.934763 210.593811 
C 353.506874 224.046077 356.375 238.465122 356.375 253.02575 
C 356.375 267.586378 353.506874 282.005423 347.934763 295.457689 
C 342.362651 308.909955 334.194919 321.133831 323.899 331.42975 
C 313.603081 341.725669 301.379205 349.893401 287.926939 355.465513 
C 274.474673 361.037624 260.055628 363.90575 245.495 363.90575 
C 230.934372 363.90575 216.515327 361.037624 203.063061 355.465513 
C 189.610795 349.893401 177.386919 341.725669 167.091 331.42975 
C 156.795081 321.133831 148.627349 308.909955 143.055237 295.457689 
C 137.483126 282.005423 134.615 267.586378 134.615 253.02575 
C 134.615 238.465122 137.483126 224.046077 143.055237 210.593811 
C 148.627349 197.141545 156.795081 184.917669 167.091 174.62175 
C 177.386919 164.325831 189.610795 156.158099 203.063061 150.585987 
C 216.515327 145.013876 230.934372 142.14575 245.495 142.14575 
" clip-path="url(#pef28a0c7e5)" style="fill: none; stroke: #b0b0b0; stroke-width: 0.5; stroke-linecap: square"/>
     </g>
     <g id="text_12">
      <!-- 45° -->
      <g transform="translate(287.926939 148.922237) scale(0.08 -0.08)">
       <use xlink:href="#DejaVuSans-34"/>
       <use xlink:href="#DejaVuSans-35" transform="translate(63.623047 0)"/>
       <use xlink:href="#DejaVuSans-b0" transform="translate(127.246094 0)"/>
      </g>
     </g>
    </g>
    <g id="ytick_4">
     <g id="line2d_12">
      <path d="M 245.495 105.18575 
C 264.909171 105.18575 284.134563 109.009918 302.070919 116.4394 
C 320.007274 123.868881 336.305775 134.759192 350.033667 148.487083 
C 363.761558 162.214975 374.651869 178.513476 382.08135 196.449831 
C 389.510832 214.386187 393.335 233.611579 393.335 253.02575 
C 393.335 272.439921 389.510832 291.665313 382.08135 309.601669 
C 374.651869 327.538024 363.761558 343.836525 350.033667 357.564417 
C 336.305775 371.292308 320.007274 382.182619 302.070919 389.6121 
C 284.134563 397.041582 264.909171 400.86575 245.495 400.86575 
C 226.080829 400.86575 206.855437 397.041582 188.919081 389.6121 
C 170.982726 382.182619 154.684225 371.292308 140.956333 357.564417 
C 127.228442 343.836525 116.338131 327.538024 108.90865 309.601669 
C 101.479168 291.665313 97.655 272.439921 97.655 253.02575 
C 97.655 233.611579 101.479168 214.386187 108.90865 196.449831 
C 116.338131 178.513476 127.228442 162.214975 140.956333 148.487083 
C 154.684225 134.759192 170.982726 123.868881 188.919081 116.4394 
C 206.855437 109.009918 226.080829 105.18575 245.495 105.18575 
" clip-path="url(#pef28a0c7e5)" style="fill: none; stroke: #b0b0b0; stroke-width: 0.5; stroke-linecap: square"/>
     </g>
     <g id="text_13">
      <!-- 30° -->
      <g transform="translate(302.070919 114.77565) scale(0.08 -0.08)">
       <use xlink:href="#DejaVuSans-33"/>
       <use xlink:href="#DejaVuSans-30" transform="translate(63.623047 0)"/>
       <use xlink:href="#DejaVuSans-b0" transform="translate(127.246094 0)"/>
      </g>
     </g>
    </g>
    <g id="ytick_5">
     <g id="line2d_13">
      <path d="M 245.495 68.22575 
C 269.762714 68.22575 293.794454 73.00596 316.214898 82.292812 
C 338.635342 91.579664 359.008468 105.192552 376.168333 122.352417 
C 393.328198 139.512282 406.941086 159.885408 416.227938 182.305852 
C 425.51479 204.726296 430.295 228.758036 430.295 253.02575 
C 430.295 277.293464 425.51479 301.325204 416.227938 323.745648 
C 406.941086 346.166092 393.328198 366.539218 376.168333 383.699083 
C 359.008468 400.858948 338.635342 414.471836 316.214898 423.758688 
C 293.794454 433.04554 269.762714 437.82575 245.495 437.82575 
C 221.227286 437.82575 197.195546 433.04554 174.775102 423.758688 
C 152.354658 414.471836 131.981532 400.858948 114.821667 383.699083 
C 97.661802 366.539218 84.048914 346.166092 74.762062 323.745648 
C 65.47521 301.325204 60.695 277.293464 60.695 253.02575 
C 60.695 228.758036 65.47521 204.726296 74.762062 182.305852 
C 84.048914 159.885408 97.661802 139.512282 114.821667 122.352417 
C 131.981532 105.192552 152.354658 91.579664 174.775102 82.292812 
C 197.195546 73.00596 221.227286 68.22575 245.495 68.22575 
" clip-path="url(#pef28a0c7e5)" style="fill: none; stroke: #b0b0b0; stroke-width: 0.5; stroke-linecap: square"/>
     </g>
     <g id="text_14">
      <!-- 15° -->
      <g transform="translate(316.214898 80.629062) scale(0.08 -0.08)">
       <use xlink:href="#DejaVuSans-31"/>
       <use xlink:href="#DejaVuSans-35" transform="translate(63.623047 0)"/>
       <use xlink:href="#DejaVuSans-b0" transform="translate(127.246094 0)"/>
      </g>
     </g>
    </g>
    <g id="ytick_6">
     <g id="line2d_14">
      <path d="M 245.495 31.26575 
C 274.616256 31.26575 303.454345 37.002003 330.358878 48.146225 
C 357.263411 59.290447 381.711162 75.625912 402.303 96.21775 
C 422.894838 116.809588 439.230303 141.257339 450.374525 168.161872 
C 461.518747 195.066405 467.255 223.904494 467.255 253.02575 
C 467.255 282.147006 461.518747 310.985095 450.374525 337.889628 
C 439.230303 364.794161 422.894838 389.241912 402.303 409.83375 
C 381.711162 430.425588 357.263411 446.761053 330.358878 457.905275 
C 303.454345 469.049497 274.616256 474.78575 245.495 474.78575 
C 216.373744 474.78575 187.535655 469.049497 160.631122 457.905275 
C 133.726589 446.761053 109.278838 430.425588 88.687 409.83375 
C 68.095162 389.241912 51.759697 364.794161 40.615475 337.889628 
C 29.471253 310.985095 23.735 282.147006 23.735 253.02575 
C 23.735 223.904494 29.471253 195.066405 40.615475 168.161872 
C 51.759697 141.257339 68.095162 116.809588 88.687 96.21775 
C 109.278838 75.625912 133.726589 59.290447 160.631122 48.146225 
C 187.535655 37.002003 216.373744 31.26575 245.495 31.26575 
" clip-path="url(#pef28a0c7e5)" style="fill: none; stroke: #b0b0b0; stroke-width: 0.5; stroke-linecap: square"/>
     </g>
     <g id="text_15">
      <!-- 0° -->
      <g transform="translate(330.358878 46.482475) scale(0.08 -0.08)">
       <use xlink:href="#DejaVuSans-30"/>
       <use xlink:href="#DejaVuSans-b0" transform="translate(63.623047 0)"/>
      </g>
     </g>
    </g>
   </g>
   <g id="line2d_15">
    <path d="M 184.207472 440.376144 
L 186.098634 439.635663 
L 188.057448 438.862622 
L 190.087858 438.054153 
L 192.194017 437.207106 
L 194.380369 436.317997 
L 196.651646 435.382972 
L 199.012881 434.397766 
L 201.4694 433.357661 
L 204.026914 432.257407 
L 206.691406 431.091208 
L 209.469211 429.852626 
L 212.366992 428.534526 
L 215.391729 427.128992 
L 218.550694 425.627256 
L 221.851386 424.019623 
L 225.30158 422.295336 
L 228.909085 420.442565 
L 232.681743 418.448281 
L 236.627249 416.298194 
L 240.752965 413.976707 
L 245.065634 411.466914 
L 249.571217 408.750539 
L 254.27431 405.808141 
L 259.177829 402.619199 
L 264.282449 399.162405 
L 269.586005 395.416072 
L 275.082786 391.358733 
L 280.763028 386.969767 
L 286.611971 382.230547 
L 292.609439 377.125461 
L 298.729353 371.643263 
L 304.939551 365.778489 
L 311.201962 359.532872 
L 317.473161 352.916663 
L 323.705684 345.949353 
L 329.849312 338.660438 
L 335.853271 331.089001 
L 341.66842 323.282828 
L 347.249528 315.296753 
L 352.557278 307.190485 
L 357.560063 299.025732 
L 362.234737 290.863887 
L 366.567147 282.763242 
L 370.551802 274.776947 
L 374.191061 266.95147 
L 377.493933 259.325743 
L 380.474812 251.930585 
L 383.151907 244.789251 
L 385.54603 237.917729 
L 387.679405 231.325598 
L 389.574715 225.016945 
L 391.25434 218.991368 
L 392.739869 213.244699 
L 394.05165 207.770125 
L 395.208611 202.558731 
L 396.228144 197.600164 
L 397.126063 192.883142 
L 397.916641 188.395866 
L 398.612673 184.126374 
L 399.225591 180.062647 
L 399.765538 176.192998 
L 400.241509 172.506063 
L 400.661449 168.990926 
L 401.032371 165.637175 
L 401.360446 162.434961 
L 401.651115 159.374911 
L 401.909154 156.44828 
L 402.138763 153.646839 
L 402.343633 150.962885 
L 402.527007 148.389219 
L 402.691733 145.91914 
L 402.840317 143.546341 
L 402.974958 141.265001 
L 403.097591 139.069678 
L 403.209917 136.955305 
L 403.313432 134.91716 
" clip-path="url(#pef28a0c7e5)" style="fill: none; stroke: #000000; stroke-width: 2; stroke-linecap: square"/>
   </g>
   <g id="line2d_16">
    <defs>
     <path id="m16dc90b078" d="M 0 3 
C 0.795609 3 1.55874 2.683901 2.12132 2.12132 
C 2.683901 1.55874 3 0.795609 3 0 
C 3 -0.795609 2.683901 -1.55874 2.12132 -2.12132 
C 1.55874 -2.683901 0.795609 -3 0 -3 
C -0.795609 -3 -1.55874 -2.683901 -2.12132 -2.12132 
C -2.683901 -1.55874 -3 -0.795609 -3 0 
C -3 0.795609 -2.683901 1.55874 -2.12132 2.12132 
C -1.55874 2.683901 -0.795609 3 0 3 
z
" style="stroke: #ff0000"/>
    </defs>
    <g clip-path="url(#pef28a0c7e5)">
     <use xlink:href="#m16dc90b078" x="184.207472" y="440.376144" style="fill: #ff0000; stroke: #ff0000"/>
    </g>
   </g>
   <g id="line2d_17">
    <defs>
     <path id="mea1e84c741" d="M -3 3 
L 3 3 
L 3 -3 
L -3 -3 
z
" style="stroke: #0000ff; stroke-linejoin: miter"/>
    </defs>
    <g clip-path="url(#pef28a0c7e5)">
     <use xlink:href="#mea1e84c741" x="403.313432" y="134.91716" style="fill: #0000ff; stroke: #0000ff; stroke-linejoin: miter"/>
    </g>
   </g>
   <g id="line2d_18">
    <path d="M 256.554718 56.216123 
L 259.719446 57.473583 
L 262.969545 58.805357 
L 266.306629 60.216622 
L 269.732089 61.712842 
L 273.246965 63.299727 
L 276.852055 64.983295 
L 280.547776 66.769827 
L 284.334011 68.665793 
L 288.210213 70.677911 
L 292.175252 72.813061 
L 296.227235 75.078182 
L 300.363619 77.4803 
L 304.581042 80.026409 
L 308.875137 82.723302 
L 313.240666 85.577585 
L 317.671356 88.595494 
L 322.159737 91.782673 
L 326.697322 95.144164 
L 331.274484 98.684178 
L 335.88036 102.405825 
L 340.503107 106.311117 
L 345.129868 110.400711 
L 349.746773 114.673658 
L 354.339305 119.12745 
L 358.892371 123.757827 
L 363.390411 128.558587 
L 367.817864 133.521772 
L 372.159315 138.637594 
L 376.399679 143.894372 
L 380.524678 149.278912 
L 384.521007 154.776563 
L 388.376483 160.371313 
L 392.08045 166.046312 
L 395.623846 171.784036 
L 398.999245 177.566458 
L 402.2011 183.375632 
L 405.225664 189.193854 
L 408.070897 195.003809 
L 410.736527 200.789093 
L 413.223862 206.534289 
L 415.535588 212.225 
L 417.675718 217.848251 
L 419.64935 223.392432 
L 421.462439 228.847211 
L 423.121707 234.203805 
L 424.634414 239.454819 
L 426.008169 244.59407 
L 427.250846 249.616767 
L 428.370419 254.519294 
L 429.374823 259.298996 
L 430.271916 263.954314 
L 431.069365 268.484556 
L 431.774575 272.88969 
L 432.394676 277.17046 
L 432.93647 281.328178 
L 433.406393 285.364539 
L 433.810532 289.281743 
L 434.154603 293.08231 
L 434.443943 296.768935 
L 434.683536 300.344607 
L 434.878012 303.812461 
L 435.031654 307.17566 
" clip-path="url(#pef28a0c7e5)" style="fill: none; stroke-dasharray: 12.8,3.2,2,3.2; stroke-dashoffset: 0; stroke: #008000; stroke-width: 2"/>
   </g>
   <g id="line2d_19">
    <defs>
     <path id="m32926f3fed" d="M 0 3 
C 0.795609 3 1.55874 2.683901 2.12132 2.12132 
C 2.683901 1.55874 3 0.795609 3 0 
C 3 -0.795609 2.683901 -1.55874 2.12132 -2.12132 
C 1.55874 -2.683901 0.795609 -3 0 -3 
C -0.795609 -3 -1.55874 -2.683901 -2.12132 -2.12132 
C -2.683901 -1.55874 -3 -0.795609 -3 0 
C -3 0.795609 -2.683901 1.55874 -2.12132 2.12132 
C -1.55874 2.683901 -0.795609 3 0 3 
z
" style="stroke: #000000"/>
    </defs>
    <g clip-path="url(#pef28a0c7e5)">
     <use xlink:href="#m32926f3fed" x="256.554718" y="56.216123" style="stroke: #000000"/>
    </g>
   </g>
   <g id="line2d_20">
    <defs>
     <path id="m1ef06c140c" d="M -3 3 
L 3 3 
L 3 -3 
L -3 -3 
z
" style="stroke: #ff0000; stroke-linejoin: miter"/>
    </defs>
    <g clip-path="url(#pef28a0c7e5)">
     <use xlink:href="#m1ef06c140c" x="435.031654" y="307.17566" style="fill: #ff0000; stroke: #ff0000; stroke-linejoin: miter"/>
    </g>
   </g>
   <g id="line2d_21">
    <path d="M 51.624761 288.671884 
L 53.066001 293.030916 
L 54.605949 297.438734 
L 56.247487 301.890702 
L 57.993189 306.381689 
L 59.845343 310.90622 
L 61.805811 315.458284 
L 63.876043 320.031493 
L 66.057019 324.619083 
L 68.34921 329.213953 
L 70.752542 333.808711 
L 73.266367 338.395727 
L 75.889439 342.9672 
L 78.619906 347.515218 
L 81.455296 352.031832 
L 84.392529 356.509134 
L 87.427927 360.939327 
L 90.55721 365.314768 
L 93.775636 369.628184 
L 97.077887 373.872529 
L 100.458224 378.041191 
L 103.910512 382.128017 
L 107.428291 386.12736 
L 111.004835 390.034124 
L 114.633228 393.843795 
L 118.306427 397.552464 
L 122.017338 401.156841 
L 125.758878 404.654256 
L 129.524043 408.042654 
L 133.305963 411.320581 
L 137.09793 414.487136 
L 140.893561 417.542044 
L 144.686662 420.48547 
L 148.471383 423.318085 
L 152.242211 426.040997 
L 155.993993 428.655709 
" clip-path="url(#pef28a0c7e5)" style="fill: none; stroke-dasharray: 2,3.3; stroke-dashoffset: 0; stroke: #0000ff; stroke-width: 2"/>
   </g>
   <g id="line2d_22">
    <defs>
     <path id="m8d0785fad5" d="M 0 3 
C 0.795609 3 1.55874 2.683901 2.12132 2.12132 
C 2.683901 1.55874 3 0.795609 3 0 
C 3 -0.795609 2.683901 -1.55874 2.12132 -2.12132 
C 1.55874 -2.683901 0.795609 -3 0 -3 
C -0.795609 -3 -1.55874 -2.683901 -2.12132 -2.12132 
C -2.683901 -1.55874 -3 -0.795609 -3 0 
C -3 0.795609 -2.683901 1.55874 -2.12132 2.12132 
C -1.55874 2.683901 -0.795609 3 0 3 
z
" style="stroke: #008000"/>
    </defs>
    <g clip-path="url(#pef28a0c7e5)">
     <use xlink:href="#m8d0785fad5" x="51.624761" y="288.671884" style="fill: #008000; stroke: #008000"/>
    </g>
   </g>
   <g id="line2d_23">
    <defs>
     <path id="m74be4d9050" d="M -3 3 
L 3 3 
L 3 -3 
L -3 -3 
z
" style="stroke: #000000; stroke-linejoin: miter"/>
    </defs>
    <g clip-path="url(#pef28a0c7e5)">
     <use xlink:href="#m74be4d9050" x="155.993993" y="428.655709" style="stroke: #000000; stroke-linejoin: miter"/>
    </g>
   </g>
   <g id="patch_3">
    <path d="M 245.495 31.26575 
C 216.373744 31.26575 187.535655 37.002003 160.631122 48.146225 
C 133.726589 59.290447 109.278838 75.625912 88.687 96.21775 
C 68.095162 116.809588 51.759697 141.257339 40.615475 168.161872 
C 29.471253 195.066405 23.735 223.904494 23.735 253.02575 
C 23.735 282.147006 29.471253 310.985095 40.615475 337.889628 
C 51.759697 364.794161 68.095162 389.241912 88.687 409.83375 
C 109.278838 430.425588 133.726589 446.761053 160.631122 457.905275 
C 187.535655 469.049497 216.373744 474.78575 245.495 474.78575 
C 274.616256 474.78575 303.454345 469.049497 330.358878 457.905275 
C 357.263411 446.761053 381.711162 430.425588 402.303 409.83375 
C 422.894838 389.241912 439.230303 364.794161 450.374525 337.889628 
C 461.518747 310.985095 467.255 282.147006 467.255 253.02575 
C 467.255 223.904494 461.518747 195.066405 450.374525 168.161872 
C 439.230303 141.257339 422.894838 116.809588 402.303 96.21775 
C 381.711162 75.625912 357.263411 59.290447 330.358878 48.146225 
C 303.454345 37.002003 274.616256 31.26575 245.495 31.26575 
" style="fill: none; stroke: #000000; stroke-width: 0.5; stroke-linejoin: miter; stroke-linecap: square"/>
   </g>
   <g id="text_16">
    <!-- Access Window Geometry -->
    <g transform="translate(183.1535 10.8945) scale(0.096 -0.096)">
     <defs>
      <path id="DejaVuSans-63" d="M 3122 3366 
L 3122 2828 
Q 2878 2963 2633 3030 
Q 2388 3097 2138 3097 
Q 1578 3097 1268 2742 
Q 959 2388 959 1747 
Q 959 1106 1268 751 
Q 1578 397 2138 397 
Q 2388 397 2633 464 
Q 2878 531 3122 666 
L 3122 134 
Q 2881 22 2623 -34 
Q 2366 -91 2075 -91 
Q 1284 -91 818 406 
Q 353 903 353 1747 
Q 353 2603 823 3093 
Q 1294 3584 2113 3584 
Q 2378 3584 2631 3529 
Q 2884 3475 3122 3366 
z
" transform="scale(0.015625)"/>
      <path id="DejaVuSans-65" d="M 3597 1894 
L 3597 1613 
L 953 1613 
Q 991 1019 1311 708 
Q 1631 397 2203 397 
Q 2534 397 2845 478 
Q 3156 559 3463 722 
L 3463 178 
Q 3153 47 2828 -22 
Q 2503 -91 2169 -91 
Q 1331 -91 842 396 
Q 353 884 353 1716 
Q 353 2575 817 3079 
Q 1281 3584 2069 3584 
Q 2775 3584 3186 3129 
Q 3597 2675 3597 1894 
z
M 3022 2063 
Q 3016 2534 2758 2815 
Q 2500 3097 2075 3097 
Q 1594 3097 1305 2825 
Q 1016 2553 972 2059 
L 3022 2063 
z
" transform="scale(0.015625)"/>
      <path id="DejaVuSans-73" d="M 2834 3397 
L 2834 2853 
Q 2591 2978 2328 3040 
Q 2066 3103 1784 3103 
Q 1356 3103 1142 2972 
Q 928 2841 928 2578 
Q 928 2378 1081 2264 
Q 1234 2150 1697 2047 
L 1894 2003 
Q 2506 1872 2764 1633 
Q 3022 1394 3022 966 
Q 3022 478 2636 193 
Q 2250 -91 1575 -91 
Q 1294 -91 989 -36 
Q 684 19 347 128 
L 347 722 
Q 666 556 975 473 
Q 1284 391 1588 391 
Q 1994 391 2212 530 
Q 2431 669 2431 922 
Q 2431 1156 2273 1281 
Q 2116 1406 1581 1522 
L 1381 1569 
Q 847 1681 609 1914 
Q 372 2147 372 2553 
Q 372 3047 722 3315 
Q 1072 3584 1716 3584 
Q 2034 3584 2315 3537 
Q 2597 3491 2834 3397 
z
" transform="scale(0.015625)"/>
      <path id="DejaVuSans-20" transform="scale(0.015625)"/>
      <path id="DejaVuSans-57" d="M 213 4666 
L 850 4666 
L 1831 722 
L 2809 4666 
L 3519 4666 
L 4500 722 
L 5478 4666 
L 6119 4666 
L 4947 0 
L 4153 0 
L 3169 4050 
L 2175 0 
L 1381 0 
L 213 4666 
z
" transform="scale(0.015625)"/>
      <path id="DejaVuSans-6e" d="M 3513 2113 
L 3513 0 
L 2938 0 
L 2938 2094 
Q 2938 2591 2744 2837 
Q 2550 3084 2163 3084 
Q 1697 3084 1428 2787 
Q 1159 2491 1159 1978 
L 1159 0 
L 581 0 
L 581 3500 
L 1159 3500 
L 1159 2956 
Q 1366 3272 1645 3428 
Q 1925 3584 2291 3584 
Q 2894 3584 3203 3211 
Q 3513 2838 3513 2113 
z
" transform="scale(0.015625)"/>
      <path id="DejaVuSans-64" d="M 2906 2969 
L 2906 4863 
L 3481 4863 
L 3481 0 
L 2906 0 
L 2906 525 
Q 2725 213 2448 61 
Q 2172 -91 1784 -91 
Q 1150 -91 751 415 
Q 353 922 353 1747 
Q 353 2572 751 3078 
Q 1150 3584 1784 3584 
Q 2172 3584 2448 3432 
Q 2725 3281 2906 2969 
z
M 947 1747 
Q 947 1113 1208 752 
Q 1469 391 1925 391 
Q 2381 391 2643 752 
Q 2906 1113 2906 1747 
Q 2906 2381 2643 2742 
Q 2381 3103 1925 3103 
Q 1469 3103 1208 2742 
Q 947 2381 947 1747 
z
" transform="scale(0.015625)"/>
      <path id="DejaVuSans-6f" d="M 1959 3097 
Q 1497 3097 1228 2736 
Q 959 2375 959 1747 
Q 959 1119 1226 758 
Q 1494 397 1959 397 
Q 2419 397 2687 759 
Q 2956 1122 2956 1747 
Q 2956 2369 2687 2733 
Q 2419 3097 1959 3097 
z
M 1959 3584 
Q 2709 3584 3137 3096 
Q 3566 2609 3566 1747 
Q 3566 888 3137 398 
Q 2709 -91 1959 -91 
Q 1206 -91 779 398 
Q 353 888 353 1747 
Q 353 2609 779 3096 
Q 1206 3584 1959 3584 
z
" transform="scale(0.015625)"/>
      <path id="DejaVuSans-77" d="M 269 3500 
L 844 3500 
L 1563 769 
L 2278 3500 
L 2956 3500 
L 3675 769 
L 4391 3500 
L 4966 3500 
L 4050 0 
L 3372 0 
L 2619 2869 
L 1863 0 
L 1184 0 
L 269 3500 
z
" transform="scale(0.015625)"/>
      <path id="DejaVuSans-47" d="M 3809 666 
L 3809 1919 
L 2778 1919 
L 2778 2438 
L 4434 2438 
L 4434 434 
Q 4069 175 3628 42 
Q 3188 -91 2688 -91 
Q 1594 -91 976 548 
Q 359 1188 359 2328 
Q 359 3472 976 4111 
Q 1594 4750 2688 4750 
Q 3144 4750 3555 4637 
Q 3966 4525 4313 4306 
L 4313 3634 
Q 3963 3931 3569 4081 
Q 3175 4231 2741 4231 
Q 1884 4231 1454 3753 
Q 1025 3275 1025 2328 
Q 1025 1384 1454 906 
Q 1884 428 2741 428 
Q 3075 428 3337 486 
Q 3600 544 3809 666 
z
" transform="scale(0.015625)"/>
      <path id="DejaVuSans-72" d="M 2631 2963 
Q 2534 3019 2420 3045 
Q 2306 3072 2169 3072 
Q 1681 3072 1420 2755 
Q 1159 2438 1159 1844 
L 1159 0 
L 581 0 
L 581 3500 
L 1159 3500 
L 1159 2956 
Q 1341 3275 1631 3429 
Q 1922 3584 2338 3584 
Q 2397 3584 2469 3576 
Q 2541 3569 2628 3553 
L 2631 2963 
z
" transform="scale(0.015625)"/>
      <path id="DejaVuSans-79" d="M 2059 -325 
Q 1816 -950 1584 -1140 
Q 1353 -1331 966 -1331 
L 506 -1331 
L 506 -850 
L 844 -850 
Q 1081 -850 1212 -737 
Q 1344 -625 1503 -206 
L 1606 56 
L 191 3500 
L 800 3500 
L 1894 763 
L 2988 3500 
L 3597 3500 
L 2059 -325 
z
" transform="scale(0.015625)"/>
     </defs>
     <use xlink:href="#DejaVuSans-41"/>
     <use xlink:href="#DejaVuSans-63" transform="translate(66.658203 0)"/>
     <use xlink:href="#DejaVuSans-63" transform="translate(121.638672 0)"/>
     <use xlink:href="#DejaVuSans-65" transform="translate(176.619141 0)"/>
     <use xlink:href="#DejaVuSans-73" transform="translate(238.142578 0)"/>
     <use xlink:href="#DejaVuSans-73" transform="translate(290.242188 0)"/>
     <use xlink:href="#DejaVuSans-20" transform="translate(342.341797 0)"/>
     <use xlink:href="#DejaVuSans-57" transform="translate(374.128906 0)"/>
     <use xlink:href="#DejaVuSans-69" transform="translate(470.755859 0)"/>
     <use xlink:href="#DejaVuSans-6e" transform="translate(498.539062 0)"/>
     <use xlink:href="#DejaVuSans-64" transform="translate(561.917969 0)"/>
     <use xlink:href="#DejaVuSans-6f" transform="translate(625.394531 0)"/>
     <use xlink:href="#DejaVuSans-77" transform="translate(686.576172 0)"/>
     <use xlink:href="#DejaVuSans-20" transform="translate(768.363281 0)"/>
     <use xlink:href="#DejaVuSans-47" transform="translate(800.150391 0)"/>
     <use xlink:href="#DejaVuSans-65" transform="translate(877.640625 0)"/>
     <use xlink:href="#DejaVuSans-6f" transform="translate(939.164062 0)"/>
     <use xlink:href="#DejaVuSans-6d" transform="translate(1000.345703 0)"/>
     <use xlink:href="#DejaVuSans-65" transform="translate(1097.757812 0)"/>
     <use xlink:href="#DejaVuSans-74" transform="translate(1159.28125 0)"/>
     <use xlink:href="#DejaVuSans-72" transform="translate(1198.490234 0)"/>
     <use xlink:href="#DejaVuSans-79" transform="translate(1239.603516 0)"/>
    </g>
   </g>
   <g id="legend_1">
    <g id="line2d_24">
     <path d="M 402.635 41.7445 
L 410.635 41.7445 
L 418.635 41.7445 
" style="fill: none; stroke: #000000; stroke-width: 2; stroke-linecap: square"/>
    </g>
    <g id="text_17">
     <!-- Access 1 -->
     <g transform="translate(425.035 44.5445) scale(0.08 -0.08)">
      <use xlink:href="#DejaVuSans-41"/>
      <use xlink:href="#DejaVuSans-63" transform="translate(66.658203 0)"/>
      <use xlink:href="#DejaVuSans-63" transform="translate(121.638672 0)"/>
      <use xlink:href="#DejaVuSans-65" transform="translate(176.619141 0)"/>
      <use xlink:href="#DejaVuSans-73" transform="translate(238.142578 0)"/>
      <use xlink:href="#DejaVuSans-73" transform="translate(290.242188 0)"/>
      <use xlink:href="#DejaVuSans-20" transform="translate(342.341797 0)"/>
      <use xlink:href="#DejaVuSans-31" transform="translate(374.128906 0)"/>
     </g>
    </g>
    <g id="line2d_25">
     <path d="M 402.635 53.487 
L 410.635 53.487 
L 418.635 53.487 
" style="fill: none; stroke-dasharray: 12.8,3.2,2,3.2; stroke-dashoffset: 0; stroke: #008000; stroke-width: 2"/>
    </g>
    <g id="text_18">
     <!-- Access 2 -->
     <g transform="translate(425.035 56.287) scale(0.08 -0.08)">
      <use xlink:href="#DejaVuSans-41"/>
      <use xlink:href="#DejaVuSans-63" transform="translate(66.658203 0)"/>
      <use xlink:href="#DejaVuSans-63" transform="translate(121.638672 0)"/>
      <use xlink:href="#DejaVuSans-65" transform="translate(176.619141 0)"/>
      <use xlink:href="#DejaVuSans-73" transform="translate(238.142578 0)"/>
      <use xlink:href="#DejaVuSans-73" transform="translate(290.242188 0)"/>
      <use xlink:href="#DejaVuSans-20" transform="translate(342.341797 0)"/>
      <use xlink:href="#DejaVuSans-32" transform="translate(374.128906 0)"/>
     </g>
    </g>
    <g id="line2d_26">
     <path d="M 402.635 65.2295 
L 410.635 65.2295 
L 418.635 65.2295 
" style="fill: none; stroke-dasharray: 2,3.3; stroke-dashoffset: 0; stroke: #0000ff; stroke-width: 2"/>
    </g>
    <g id="text_19">
     <!-- Access 3 -->
     <g transform="translate(425.035 68.0295) scale(0.08 -0.08)">
      <use xlink:href="#DejaVuSans-41"/>
      <use xlink:href="#DejaVuSans-63" transform="translate(66.658203 0)"/>
      <use xlink:href="#DejaVuSans-63" transform="translate(121.638672 0)"/>
      <use xlink:href="#DejaVuSans-65" transform="translate(176.619141 0)"/>
      <use xlink:href="#DejaVuSans-73" transform="translate(238.142578 0)"/>
      <use xlink:href="#DejaVuSans-73" transform="translate(290.242188 0)"/>
      <use xlink:href="#DejaVuSans-20" transform="translate(342.341797 0)"/>
      <use xlink:href="#DejaVuSans-33" transform="translate(374.128906 0)"/>
     </g>
    </g>
   </g>
  </g>
 </g>
 <defs>
  <clipPath id="pef28a0c7e5">
   <path d="M 467.255 253.02575 
C 467.255 223.904494 461.518747 195.066405 450.374525 168.161872 
C 439.230303 141.257339 422.894838 116.809588 402.303 96.21775 
C 381.711162 75.625912 357.263411 59.290447 330.358878 48.146225 
C 303.454345 37.002003 274.616256 31.26575 245.495 31.26575 
C 216.373744 31.26575 187.535655 37.002003 160.631122 48.146225 
C 133.726589 59.290447 109.278838 75.625912 88.687 96.21775 
C 68.095162 116.809588 51.759697 141.257339 40.615475 168.161872 
C 29.471253 195.066405 23.735 223.904494 23.735 253.02575 
C 23.735 282.147006 29.471253 310.985095 40.615475 337.889628 
C 51.759697 364.794161 68.095162 389.241912 88.687 409.83375 
C 109.278838 430.425588 133.726589 446.761053 160.631122 457.905275 
C 187.535655 469.049497 216.373744 474.78575 245.495 474.78575 
C 274.616256 474.78575 303.454345 469.049497 330.358878 457.905275 
C 357.263411 446.761053 381.711162 430.425588 402.303 409.83375 
C 422.894838 389.241912 439.230303 364.794161 450.374525 337.889628 
C 461.518747 310.985095 467.255 282.147006 467.255 253.02575 
M 245.495 253.02575 
C 245.495 253.02575 245.495 253.02575 245.495 253.02575 
C 245.495 253.02575 245.495 253.02575 245.495 253.02575 
C 245.495 253.02575 245.495 253.02575 245.495 253.02575 
C 245.495 253.02575 245.495 253.02575 245.495 253.02575 
C 245.495 253.02575 245.495 253.02575 245.495 253.02575 
C 245.495 253.02575 245.495 253.02575 245.495 253.02575 
C 245.495 253.02575 245.495 253.02575 245.495 253.02575 
C 245.495 253.02575 245.495 253.02575 245.495 253.02575 
C 245.495 253.02575 245.495 253.02575 245.495 253.02575 
C 245.495 253.02575 245.495 253.02575 245.495 253.02575 
C 245.495 253.02575 245.495 253.02575 245.495 253.02575 
C 245.495 253.02575 245.495 253.02575 245.495 253.02575 
C 245.495 253.02575 245.495 253.02575 245.495 253.02575 
C 245.495 253.02575 245.495 253.02575 245.495 253.02575 
C 245.495 253.02575 245.495 253.02575 245.495 253.02575 
C 245.495 253.02575 245.495 253.02575 245.495 253.02575 
z
"/>
  </clipPath>
 </defs>
</svg>
