<?xml version="1.0" encoding="UTF-8" standalone="no"?>
<!DOCTYPE svg PUBLIC "-//W3C//DTD SVG 1.1//EN" "http://www.w3.org/Graphics/SVG/1.1/DTD/svg11.dtd">
<svg width="100%" height="100%" viewBox="0 0 1050 500" version="1.1" xmlns="http://www.w3.org/2000/svg" xmlns:xlink="http://www.w3.org/1999/xlink" xml:space="preserve" xmlns:serif="http://www.serif.com/" style="fill-rule:evenodd;clip-rule:evenodd;stroke-linejoin:round;stroke-miterlimit:2;">
    <g transform="matrix(1,0,0,1,-7.23521,-0.486941)">
        <g transform="matrix(1.63967,0,0,1.63967,-52.066,-144.668)">
            <text x="63.868px" y="387.497px" style="font-family:'Edge-of-the-Galaxy-Poster', 'Edge of the Galaxy';font-size:335.134px;fill:rgb(255,159,0);">Brahe</text>
        </g>
        <g transform="matrix(1,0,0,1,-0.640973,-26.1623)">
            <g transform="matrix(1.04536,-0.518694,0.491977,0.991511,-162.784,-14.6596)">
                <ellipse cx="246.647" cy="347.493" rx="233.32" ry="92.704" style="fill:rgb(177,62,62);fill-opacity:0;"/>
                <path d="M246.647,252.256C224.535,252.622 203.174,254.301 182.912,256.808C159.189,259.743 137.007,263.989 116.967,269.306C107.234,271.888 97.988,274.641 89.339,277.702C41.415,294.666 11.581,319.809 11.406,347.493C11.167,369.11 28.916,389.225 59.071,405.895C67.893,410.772 77.708,415.515 88.538,419.749C110.915,428.496 137.346,435.545 166.524,440.312C191.502,444.393 218.49,446.674 246.647,447.109C280.94,447.445 313.603,445.134 343.022,439.894C366.187,435.768 387.307,429.785 405.773,422.879C419.253,417.839 431.352,412.276 441.682,406.078C450.135,401.006 457.43,395.557 463.456,389.861C477.367,376.71 484.695,362.281 484.207,347.493C484.064,343.33 483.293,339.268 482.01,335.257C474.532,311.881 446.69,290.396 404.677,275.478C362.89,260.641 307.418,251.839 246.647,252.256ZM246.647,257.322C306.67,257.735 361.326,267.214 402.446,282.34C441.418,296.676 468.54,315.651 474.657,337.697C475.55,340.914 475.84,344.197 475.726,347.493C475.326,359.615 468.09,370.616 456.084,380.642C450.317,385.458 443.415,389.945 435.572,394.248C425.623,399.706 414.161,404.802 401.349,409.274C383.414,415.534 362.884,420.446 340.545,424.413C311.837,429.51 280.108,432.956 246.647,433.284C219.055,433.71 192.579,432.118 167.982,429.053C139.291,425.478 113.197,419.809 90.926,412.404C80.2,408.838 70.322,405.025 61.559,400.639C32.747,386.221 15.47,367.742 15.247,347.493C15.078,320.841 44.187,297.064 90.124,280.116C98.679,276.96 107.806,273.999 117.474,271.428C137.41,266.127 159.554,262.145 183.21,259.751C203.39,257.709 224.674,256.959 246.647,257.322L246.647,257.322Z"/>
            </g>
            <g transform="matrix(1.28947,0,0,0.978923,-123.995,1.20928)">
                <ellipse cx="472.735" cy="59.809" rx="19.388" ry="25.538" style="fill:rgb(255,158,0);"/>
            </g>
        </g>
        <g transform="matrix(0.666637,0,0,0.793046,133.453,-107.763)">
            <rect x="56.941" y="217.37" width="115.145" height="122.052" style="fill:rgb(255,157,0);"/>
            <path d="M172.086,217.37L56.941,217.37L56.941,339.421L172.086,339.421L172.086,217.37ZM142.085,242.589L142.085,314.202C142.085,314.202 86.942,314.202 86.942,314.202C86.942,314.202 86.942,242.589 86.942,242.589L142.085,242.589Z" style="fill:rgb(255,156,0);"/>
        </g>
        <g transform="matrix(0.678764,0,0,0.977589,14.233,-87.4414)">
            <rect x="56.941" y="217.37" width="115.145" height="122.052" style="fill:rgb(255,158,0);"/>
            <path d="M172.086,217.37L56.941,217.37L56.941,339.421L172.086,339.421L172.086,217.37ZM142.621,237.828L142.621,318.963C142.621,318.963 86.406,318.963 86.406,318.963C86.406,318.963 86.406,237.828 86.406,237.828L142.621,237.828Z" style="fill:rgb(255,157,0);"/>
        </g>
    </g>
</svg>
