<svg viewBox="0 0 280 26" fill="none" xmlns="http://www.w3.org/2000/svg" class="h-[12px] tablet:h-[19px] relative top-[-1px]"><path fill="currentColor" d="M47.89.5H37.06l7.12 12.33-7.12 12.33h10.83l7.12-12.33L47.89.5Zm-2.76 21.62h-1.98c-.37 0-.61-.41-.42-.73l4.94-8.56-4.94-8.57c-.19-.32.05-.73.42-.73h1.98c.62 0 1.2.33 1.51.87L51 11.95c.31.54.31 1.2 0 1.74l-4.36 7.55c-.31.54-.89.87-1.51.87v.01Zm-2.88-9.29-7.12 12.33H20.89l-.56-.97c.84-.6 1.62-1.3 2.31-2.07h9.73c.62 0 1.2-.33 1.51-.87l4.36-7.55c.31-.54.31-1.2 0-1.74l-4.36-7.55c-.31-.54-.89-.87-1.51-.87h-9.73c-.69-.77-1.47-1.46-2.31-2.06l.56-.97h14.24l7.12 12.33v-.01ZM21.77 20.6c1.74-2.12 2.78-4.82 2.78-7.77 0-2.95-1.04-5.65-2.78-7.77-.66-.81-1.42-1.53-2.26-2.14A12.239 12.239 0 0 0 12.28.56C5.51.55 0 6.06 0 12.83S5.51 25.1 12.27 25.1c2.7 0 5.2-.88 7.23-2.36.84-.62 1.61-1.34 2.26-2.14h.01Zm-9.49 1.47c-5.31 0-9.58-4.49-9.22-9.87.3-4.49 3.88-8.16 8.36-8.57 2.15-.19 4.17.36 5.83 1.42.42.27.55.81.3 1.24l-.42.73-2.76 4.77c-.37.64-.37 1.45 0 2.09l2.75 4.77.42.73c.25.43.11.97-.3 1.24a9.228 9.228 0 0 1-4.98 1.46l.02-.01ZM19.67 8.7c.2-.35.71-.33.89.03a9.188 9.188 0 0 1 0 8.18c-.18.36-.69.38-.89.03l-.52-.91-1.86-3.22 1.86-3.22.52-.91v.02ZM77.87.5h3.36v24.64h-3.52L65.06 6.36v18.78H61.7V.5h3.36l12.82 19.03V.5h-.01Zm88.2 10.3h-12.01V.51h-3.36v24.64h3.36V14.01h12.01v11.14h3.36V.51h-3.36V10.8Zm-56.67 2.03c0 7.08-5.66 12.83-12.65 12.83S84.1 19.92 84.1 12.83 89.77 0 96.76 0s12.65 5.74 12.65 12.83h-.01Zm-3.35 0c0-5.23-4.17-9.48-9.3-9.48-5.13 0-9.3 4.25-9.3 9.48s4.17 9.48 9.3 9.48c5.13 0 9.3-4.25 9.3-9.48Zm125.51 0c0 7.08-5.66 12.83-12.65 12.83s-12.65-5.74-12.65-12.83S211.92 0 218.91 0s12.65 5.74 12.65 12.83Zm-3.35 0c0-5.23-4.17-9.48-9.3-9.48-5.13 0-9.3 4.25-9.3 9.48s4.17 9.48 9.3 9.48c5.13 0 9.3-4.25 9.3-9.48Zm30.69 0c0 7.08-5.66 12.83-12.65 12.83s-12.65-5.74-12.65-12.83S239.26 0 246.25 0s12.65 5.74 12.65 12.83Zm-3.35 0c0-5.23-4.17-9.48-9.3-9.48-5.13 0-9.3 4.25-9.3 9.48s4.17 9.48 9.3 9.48c5.13 0 9.3-4.25 9.3-9.48Zm12.37 12.37H261.45V.45h6.58c6.63.14 11.96 5.63 11.96 12.38 0 6.75-5.39 12.3-12.07 12.37Zm8.84-12.37c0-5.04-4.03-9.15-8.97-9.15h-3.1v18.3h3.1c4.95 0 8.97-4.1 8.97-9.15ZM131.6 3.71h6.57v21.43h3.36V3.71h6.57V.51h-16.49v3.21l-.01-.01Zm65.12 15.39L190.98.5h-4.14l-5.74 18.6L175.38.5h-3.72l7.57 24.64h3.72l5.95-19.29 5.95 19.29h3.72L206.14.5h-3.72l-5.72 18.6h.02ZM111.95 8.94v16.2h3.51V9.01c0-2.93 2.37-5.3 5.3-5.3h8.31V.51h-8.68c-4.66 0-8.44 3.78-8.44 8.44v-.01Z"></path></svg>