<?xml version="1.0" encoding="UTF-8" standalone="no"?>
<!DOCTYPE svg PUBLIC "-//W3C//DTD SVG 1.1//EN" "http://www.w3.org/Graphics/SVG/1.1/DTD/svg11.dtd">
<svg width="100%" height="100%" viewBox="0 0 500 500" version="1.1" xmlns="http://www.w3.org/2000/svg" xmlns:xlink="http://www.w3.org/1999/xlink" xml:space="preserve" xmlns:serif="http://www.serif.com/" style="fill-rule:evenodd;clip-rule:evenodd;stroke-linejoin:round;stroke-miterlimit:2;">
    <g transform="matrix(1.63967,0,0,1.63967,47.1758,-145.891)">
        <text x="63.868px" y="387.497px" style="font-family:'Edge-of-the-Galaxy-Poster', 'Edge of the Galaxy';font-size:335.134px;">B</text>
    </g>
    <g transform="matrix(0.836767,-0.739913,0.733207,0.829183,-215.453,146.604)">
        <ellipse cx="246.647" cy="347.493" rx="233.32" ry="92.704" style="fill:rgb(177,62,62);fill-opacity:0;"/>
        <path d="M246.647,252.256C224.339,252.622 202.797,254.322 182.377,256.868C158.468,259.848 136.132,264.163 115.983,269.565C106.202,272.188 96.916,274.986 88.241,278.095C40.916,295.057 11.508,320.006 11.32,347.493C11.064,368.868 28.41,388.745 57.907,405.308C66.707,410.249 76.513,415.05 87.361,419.341C109.805,428.218 136.402,435.374 165.81,440.214C190.986,444.358 218.221,446.673 246.647,447.109C281.275,447.446 314.248,445.079 343.898,439.747C367.253,435.548 388.524,429.509 407.05,422.452C426.696,414.968 443.326,406.244 455.914,396.457C474.879,381.712 484.985,364.8 484.397,347.493C484.247,343.483 483.51,339.569 482.305,335.7C475.031,312.339 447.545,290.876 405.846,275.885C363.908,260.808 307.971,251.839 246.647,252.256ZM246.647,257.322C307.149,257.734 362.189,267.361 403.396,282.704C441.948,297.059 468.732,316.018 474.573,337.973C475.405,341.101 475.656,344.29 475.537,347.493C475.112,359.373 468.128,370.203 456.539,380.082C450.869,384.916 444.055,389.421 436.303,393.744C426.411,399.26 414.988,404.408 402.192,408.931C384.231,415.279 363.621,420.266 341.173,424.29C312.304,429.466 280.359,432.956 246.647,433.284C218.844,433.71 192.172,432.087 167.414,428.966C138.542,425.326 112.313,419.563 89.984,412.042C79.247,408.425 69.369,404.558 60.632,400.118C32.43,385.784 15.572,367.488 15.333,347.493C15.151,321.054 43.799,297.412 89.103,280.494C97.675,277.293 106.831,274.29 116.541,271.68C136.575,266.296 158.869,262.247 182.704,259.809C203.035,257.73 224.492,256.959 246.647,257.322Z"/>
    </g>
    <g transform="matrix(1.1281,0,0,1.19582,-67.1567,-51.2093)">
        <ellipse cx="451.649" cy="114.397" rx="22.161" ry="20.906"/>
        <path d="M451.649,93.49C463.88,93.49 473.81,102.858 473.81,114.397C473.81,125.935 463.88,135.303 451.649,135.303C439.418,135.303 429.488,125.935 429.488,114.397C429.488,102.858 439.418,93.49 451.649,93.49ZM451.649,110.215C454.095,110.215 456.081,112.089 456.081,114.397C456.081,116.704 454.095,118.578 451.649,118.578C449.203,118.578 447.217,116.704 447.217,114.397C447.217,112.089 449.203,110.215 451.649,110.215Z"/>
    </g>
</svg>
